ISO-10303-21;
HEADER;
/* Generated by software containing ST-Developer
 * from STEP Tools, Inc. (www.steptools.com) 
 */

FILE_DESCRIPTION(
/* description */ (''),
/* implementation_level */ '2;1');

FILE_NAME(
/* name */ 'Base_J1.step',
/* time_stamp */ '2026-07-09T14:32:54+09:00',
/* author */ (''),
/* organization */ (''),
/* preprocessor_version */ 'ST-DEVELOPER v20.1',
/* originating_system */ 'Autodesk Translation Framework v15.8.0.0',
/* authorisation */ '');

FILE_SCHEMA (('AUTOMOTIVE_DESIGN { 1 0 10303 214 3 1 1 }'));
ENDSEC;

DATA;
#10=MECHANICAL_DESIGN_GEOMETRIC_PRESENTATION_REPRESENTATION('',(#13),#1396);
#11=SHAPE_REPRESENTATION_RELATIONSHIP('SRR','None',#1403,#12);
#12=ADVANCED_BREP_SHAPE_REPRESENTATION('',(#14),#1395);
#13=STYLED_ITEM('',(#1412),#14);
#14=MANIFOLD_SOLID_BREP('\X2\30DC30C730A3\X0\1',#745);
#15=CONICAL_SURFACE('',#812,49.75,0.785398163397447);
#16=FACE_BOUND('',#179,.T.);
#17=FACE_BOUND('',#180,.T.);
#18=FACE_BOUND('',#181,.T.);
#19=FACE_BOUND('',#182,.T.);
#20=FACE_BOUND('',#183,.T.);
#21=FACE_BOUND('',#187,.T.);
#22=FACE_BOUND('',#191,.T.);
#23=FACE_BOUND('',#194,.T.);
#24=FACE_BOUND('',#195,.T.);
#25=FACE_BOUND('',#196,.T.);
#26=FACE_BOUND('',#197,.T.);
#27=FACE_BOUND('',#198,.T.);
#28=FACE_BOUND('',#202,.T.);
#29=FACE_BOUND('',#203,.T.);
#30=FACE_BOUND('',#204,.T.);
#31=FACE_BOUND('',#205,.T.);
#32=FACE_BOUND('',#206,.T.);
#33=FACE_BOUND('',#207,.T.);
#34=FACE_BOUND('',#208,.T.);
#35=FACE_BOUND('',#209,.T.);
#36=FACE_BOUND('',#210,.T.);
#37=FACE_BOUND('',#212,.T.);
#38=FACE_BOUND('',#213,.T.);
#39=FACE_BOUND('',#214,.T.);
#40=FACE_BOUND('',#215,.T.);
#41=FACE_BOUND('',#216,.T.);
#42=FACE_BOUND('',#219,.T.);
#43=FACE_BOUND('',#222,.T.);
#44=FACE_BOUND('',#225,.T.);
#45=FACE_BOUND('',#228,.T.);
#46=PLANE('',#763);
#47=PLANE('',#767);
#48=PLANE('',#771);
#49=PLANE('',#775);
#50=PLANE('',#785);
#51=PLANE('',#807);
#52=PLANE('',#817);
#53=PLANE('',#830);
#54=PLANE('',#841);
#55=PLANE('',#845);
#56=PLANE('',#849);
#57=PLANE('',#853);
#58=CIRCLE('',#761,1.25);
#59=CIRCLE('',#762,1.25);
#60=CIRCLE('',#765,1.25);
#61=CIRCLE('',#766,1.25);
#62=CIRCLE('',#769,1.25);
#63=CIRCLE('',#770,1.25);
#64=CIRCLE('',#773,1.25);
#65=CIRCLE('',#774,1.25);
#66=CIRCLE('',#777,4.5);
#67=CIRCLE('',#778,4.5);
#68=CIRCLE('',#780,40.);
#69=CIRCLE('',#781,40.);
#70=CIRCLE('',#783,40.);
#71=CIRCLE('',#784,40.);
#72=CIRCLE('',#786,43.);
#73=CIRCLE('',#787,4.5);
#74=CIRCLE('',#788,40.);
#75=CIRCLE('',#789,4.5);
#76=CIRCLE('',#790,40.);
#77=CIRCLE('',#791,4.5);
#78=CIRCLE('',#793,4.5);
#79=CIRCLE('',#795,40.);
#80=CIRCLE('',#797,40.);
#81=CIRCLE('',#799,4.5);
#82=CIRCLE('',#801,4.5);
#83=CIRCLE('',#803,43.);
#84=CIRCLE('',#805,3.25);
#85=CIRCLE('',#806,3.25);
#86=CIRCLE('',#808,1.8);
#87=CIRCLE('',#809,1.8);
#88=CIRCLE('',#810,1.8);
#89=CIRCLE('',#811,1.8);
#90=CIRCLE('',#813,50.);
#91=CIRCLE('',#814,49.5);
#92=CIRCLE('',#816,50.);
#93=CIRCLE('',#818,45.);
#94=CIRCLE('',#819,2.1);
#95=CIRCLE('',#820,2.1);
#96=CIRCLE('',#821,45.);
#97=CIRCLE('',#822,2.1);
#98=CIRCLE('',#823,45.);
#99=CIRCLE('',#824,2.1);
#100=CIRCLE('',#825,45.);
#101=CIRCLE('',#826,3.25);
#102=CIRCLE('',#827,3.25);
#103=CIRCLE('',#828,3.25);
#104=CIRCLE('',#829,3.25);
#105=CIRCLE('',#831,45.);
#106=CIRCLE('',#832,2.1);
#107=CIRCLE('',#833,45.);
#108=CIRCLE('',#834,2.1);
#109=CIRCLE('',#835,45.);
#110=CIRCLE('',#836,2.1);
#111=CIRCLE('',#837,2.1);
#112=CIRCLE('',#838,45.);
#113=CIRCLE('',#840,3.25);
#114=CIRCLE('',#842,1.8);
#115=CIRCLE('',#844,3.25);
#116=CIRCLE('',#846,1.8);
#117=CIRCLE('',#848,3.25);
#118=CIRCLE('',#850,1.8);
#119=CIRCLE('',#852,3.25);
#120=CIRCLE('',#854,1.8);
#121=FACE_OUTER_BOUND('',#166,.T.);
#122=FACE_OUTER_BOUND('',#167,.T.);
#123=FACE_OUTER_BOUND('',#168,.T.);
#124=FACE_OUTER_BOUND('',#169,.T.);
#125=FACE_OUTER_BOUND('',#170,.T.);
#126=FACE_OUTER_BOUND('',#171,.T.);
#127=FACE_OUTER_BOUND('',#172,.T.);
#128=FACE_OUTER_BOUND('',#173,.T.);
#129=FACE_OUTER_BOUND('',#174,.T.);
#130=FACE_OUTER_BOUND('',#175,.T.);
#131=FACE_OUTER_BOUND('',#176,.T.);
#132=FACE_OUTER_BOUND('',#177,.T.);
#133=FACE_OUTER_BOUND('',#178,.T.);
#134=FACE_OUTER_BOUND('',#184,.T.);
#135=FACE_OUTER_BOUND('',#185,.T.);
#136=FACE_OUTER_BOUND('',#186,.T.);
#137=FACE_OUTER_BOUND('',#188,.T.);
#138=FACE_OUTER_BOUND('',#189,.T.);
#139=FACE_OUTER_BOUND('',#190,.T.);
#140=FACE_OUTER_BOUND('',#192,.T.);
#141=FACE_OUTER_BOUND('',#193,.T.);
#142=FACE_OUTER_BOUND('',#199,.T.);
#143=FACE_OUTER_BOUND('',#200,.T.);
#144=FACE_OUTER_BOUND('',#201,.T.);
#145=FACE_OUTER_BOUND('',#211,.T.);
#146=FACE_OUTER_BOUND('',#217,.T.);
#147=FACE_OUTER_BOUND('',#218,.T.);
#148=FACE_OUTER_BOUND('',#220,.T.);
#149=FACE_OUTER_BOUND('',#221,.T.);
#150=FACE_OUTER_BOUND('',#223,.T.);
#151=FACE_OUTER_BOUND('',#224,.T.);
#152=FACE_OUTER_BOUND('',#226,.T.);
#153=FACE_OUTER_BOUND('',#227,.T.);
#154=FACE_OUTER_BOUND('',#229,.T.);
#155=FACE_OUTER_BOUND('',#230,.T.);
#156=FACE_OUTER_BOUND('',#231,.T.);
#157=FACE_OUTER_BOUND('',#232,.T.);
#158=FACE_OUTER_BOUND('',#233,.T.);
#159=FACE_OUTER_BOUND('',#234,.T.);
#160=FACE_OUTER_BOUND('',#235,.T.);
#161=FACE_OUTER_BOUND('',#236,.T.);
#162=FACE_OUTER_BOUND('',#237,.T.);
#163=FACE_OUTER_BOUND('',#238,.T.);
#164=FACE_OUTER_BOUND('',#239,.T.);
#165=FACE_OUTER_BOUND('',#240,.T.);
#166=EDGE_LOOP('',(#472,#473,#474,#475));
#167=EDGE_LOOP('',(#476,#477,#478,#479));
#168=EDGE_LOOP('',(#480));
#169=EDGE_LOOP('',(#481,#482,#483,#484));
#170=EDGE_LOOP('',(#485));
#171=EDGE_LOOP('',(#486,#487,#488,#489));
#172=EDGE_LOOP('',(#490));
#173=EDGE_LOOP('',(#491,#492,#493,#494));
#174=EDGE_LOOP('',(#495));
#175=EDGE_LOOP('',(#496,#497,#498,#499));
#176=EDGE_LOOP('',(#500,#501,#502,#503));
#177=EDGE_LOOP('',(#504,#505,#506,#507));
#178=EDGE_LOOP('',(#508));
#179=EDGE_LOOP('',(#509,#510,#511,#512,#513,#514,#515,#516));
#180=EDGE_LOOP('',(#517));
#181=EDGE_LOOP('',(#518));
#182=EDGE_LOOP('',(#519));
#183=EDGE_LOOP('',(#520));
#184=EDGE_LOOP('',(#521,#522,#523,#524));
#185=EDGE_LOOP('',(#525,#526,#527,#528));
#186=EDGE_LOOP('',(#529,#530,#531,#532));
#187=EDGE_LOOP('',(#533));
#188=EDGE_LOOP('',(#534,#535,#536,#537));
#189=EDGE_LOOP('',(#538,#539,#540,#541));
#190=EDGE_LOOP('',(#542,#543,#544,#545));
#191=EDGE_LOOP('',(#546));
#192=EDGE_LOOP('',(#547,#548,#549,#550));
#193=EDGE_LOOP('',(#551,#552,#553,#554,#555,#556,#557,#558));
#194=EDGE_LOOP('',(#559));
#195=EDGE_LOOP('',(#560));
#196=EDGE_LOOP('',(#561));
#197=EDGE_LOOP('',(#562));
#198=EDGE_LOOP('',(#563));
#199=EDGE_LOOP('',(#564,#565,#566,#567));
#200=EDGE_LOOP('',(#568,#569,#570,#571));
#201=EDGE_LOOP('',(#572));
#202=EDGE_LOOP('',(#573,#574));
#203=EDGE_LOOP('',(#575,#576));
#204=EDGE_LOOP('',(#577,#578));
#205=EDGE_LOOP('',(#579,#580));
#206=EDGE_LOOP('',(#581));
#207=EDGE_LOOP('',(#582));
#208=EDGE_LOOP('',(#583));
#209=EDGE_LOOP('',(#584));
#210=EDGE_LOOP('',(#585));
#211=EDGE_LOOP('',(#586));
#212=EDGE_LOOP('',(#587));
#213=EDGE_LOOP('',(#588,#589));
#214=EDGE_LOOP('',(#590,#591));
#215=EDGE_LOOP('',(#592,#593));
#216=EDGE_LOOP('',(#594,#595));
#217=EDGE_LOOP('',(#596,#597,#598,#599));
#218=EDGE_LOOP('',(#600));
#219=EDGE_LOOP('',(#601));
#220=EDGE_LOOP('',(#602,#603,#604,#605));
#221=EDGE_LOOP('',(#606));
#222=EDGE_LOOP('',(#607));
#223=EDGE_LOOP('',(#608,#609,#610,#611));
#224=EDGE_LOOP('',(#612));
#225=EDGE_LOOP('',(#613));
#226=EDGE_LOOP('',(#614,#615,#616,#617));
#227=EDGE_LOOP('',(#618));
#228=EDGE_LOOP('',(#619));
#229=EDGE_LOOP('',(#620,#621,#622,#623));
#230=EDGE_LOOP('',(#624,#625,#626,#627));
#231=EDGE_LOOP('',(#628,#629,#630,#631));
#232=EDGE_LOOP('',(#632,#633,#634,#635));
#233=EDGE_LOOP('',(#636,#637,#638,#639));
#234=EDGE_LOOP('',(#640,#641,#642,#643));
#235=EDGE_LOOP('',(#644,#645,#646,#647));
#236=EDGE_LOOP('',(#648,#649,#650,#651));
#237=EDGE_LOOP('',(#652,#653,#654,#655));
#238=EDGE_LOOP('',(#656,#657,#658,#659));
#239=EDGE_LOOP('',(#660,#661,#662,#663));
#240=EDGE_LOOP('',(#664,#665,#666,#667));
#241=LINE('',#1156,#274);
#242=LINE('',#1195,#275);
#243=LINE('',#1202,#276);
#244=LINE('',#1209,#277);
#245=LINE('',#1216,#278);
#246=LINE('',#1222,#279);
#247=LINE('',#1226,#280);
#248=LINE('',#1232,#281);
#249=LINE('',#1238,#282);
#250=LINE('',#1254,#283);
#251=LINE('',#1257,#284);
#252=LINE('',#1261,#285);
#253=LINE('',#1264,#286);
#254=LINE('',#1272,#287);
#255=LINE('',#1278,#288);
#256=LINE('',#1293,#289);
#257=LINE('',#1298,#290);
#258=LINE('',#1343,#291);
#259=LINE('',#1350,#292);
#260=LINE('',#1357,#293);
#261=LINE('',#1364,#294);
#262=LINE('',#1370,#295);
#263=LINE('',#1371,#296);
#264=LINE('',#1373,#297);
#265=LINE('',#1374,#298);
#266=LINE('',#1376,#299);
#267=LINE('',#1377,#300);
#268=LINE('',#1379,#301);
#269=LINE('',#1380,#302);
#270=LINE('',#1382,#303);
#271=LINE('',#1384,#304);
#272=LINE('',#1386,#305);
#273=LINE('',#1388,#306);
#274=VECTOR('',#871,5.5);
#275=VECTOR('',#876,1.25);
#276=VECTOR('',#885,1.25);
#277=VECTOR('',#894,1.25);
#278=VECTOR('',#903,1.25);
#279=VECTOR('',#910,10.);
#280=VECTOR('',#913,10.);
#281=VECTOR('',#920,10.);
#282=VECTOR('',#927,10.);
#283=VECTOR('',#946,10.);
#284=VECTOR('',#949,10.);
#285=VECTOR('',#954,10.);
#286=VECTOR('',#957,10.);
#287=VECTOR('',#970,43.);
#288=VECTOR('',#977,3.25);
#289=VECTOR('',#994,49.75);
#290=VECTOR('',#1001,50.);
#291=VECTOR('',#1048,3.25);
#292=VECTOR('',#1057,3.25);
#293=VECTOR('',#1066,3.25);
#294=VECTOR('',#1075,3.25);
#295=VECTOR('',#1084,10.);
#296=VECTOR('',#1085,10.);
#297=VECTOR('',#1088,10.);
#298=VECTOR('',#1089,10.);
#299=VECTOR('',#1092,10.);
#300=VECTOR('',#1093,10.);
#301=VECTOR('',#1096,10.);
#302=VECTOR('',#1097,10.);
#303=VECTOR('',#1100,1.8);
#304=VECTOR('',#1103,1.8);
#305=VECTOR('',#1106,1.8);
#306=VECTOR('',#1109,1.8);
#307=B_SPLINE_CURVE_WITH_KNOTS('',3,(#1121,#1122,#1123,#1124,#1125,#1126,
#1127,#1128,#1129,#1130,#1131,#1132,#1133,#1134,#1135,#1136,#1137,#1138,
#1139,#1140,#1141,#1142,#1143,#1144,#1145,#1146,#1147,#1148,#1149,#1150,
#1151,#1152,#1153,#1154),.UNSPECIFIED.,.T.,.F.,(4,2,2,2,2,2,2,2,2,2,2,2,
2,2,2,2,4),(0.,0.207461436607098,0.414922873214196,0.62238176443781,0.829840655661425,
1.03729954688504,1.24475843810865,1.45221987471575,1.65968131132285,1.86714274792995,
2.07460418453705,2.28206307576066,2.48952196698428,2.69698085820789,2.90443974943151,
3.1119011860386,3.3193626226457),.UNSPECIFIED.);
#308=B_SPLINE_CURVE_WITH_KNOTS('',3,(#1157,#1158,#1159,#1160,#1161,#1162,
#1163,#1164,#1165,#1166,#1167,#1168,#1169,#1170,#1171,#1172,#1173,#1174,
#1175,#1176,#1177,#1178,#1179,#1180,#1181,#1182,#1183,#1184,#1185,#1186,
#1187,#1188,#1189,#1190),.UNSPECIFIED.,.T.,.F.,(4,2,2,2,2,2,2,2,2,2,2,2,
2,2,2,2,4),(0.,0.207422770397027,0.414845540794053,0.622266410140861,0.829687279487668,
1.03710814883448,1.24452901818128,1.45195178857831,1.65937455897534,1.86679732937236,
2.07422009976939,2.2816409691162,2.489061838463,2.69648270780981,2.90390357715662,
3.11132634755365,3.31874911795067),.UNSPECIFIED.);
#309=VERTEX_POINT('',#1120);
#310=VERTEX_POINT('',#1155);
#311=VERTEX_POINT('',#1192);
#312=VERTEX_POINT('',#1194);
#313=VERTEX_POINT('',#1199);
#314=VERTEX_POINT('',#1201);
#315=VERTEX_POINT('',#1206);
#316=VERTEX_POINT('',#1208);
#317=VERTEX_POINT('',#1213);
#318=VERTEX_POINT('',#1215);
#319=VERTEX_POINT('',#1220);
#320=VERTEX_POINT('',#1221);
#321=VERTEX_POINT('',#1223);
#322=VERTEX_POINT('',#1225);
#323=VERTEX_POINT('',#1229);
#324=VERTEX_POINT('',#1231);
#325=VERTEX_POINT('',#1235);
#326=VERTEX_POINT('',#1237);
#327=VERTEX_POINT('',#1241);
#328=VERTEX_POINT('',#1243);
#329=VERTEX_POINT('',#1245);
#330=VERTEX_POINT('',#1247);
#331=VERTEX_POINT('',#1249);
#332=VERTEX_POINT('',#1253);
#333=VERTEX_POINT('',#1255);
#334=VERTEX_POINT('',#1259);
#335=VERTEX_POINT('',#1263);
#336=VERTEX_POINT('',#1271);
#337=VERTEX_POINT('',#1275);
#338=VERTEX_POINT('',#1277);
#339=VERTEX_POINT('',#1281);
#340=VERTEX_POINT('',#1283);
#341=VERTEX_POINT('',#1285);
#342=VERTEX_POINT('',#1287);
#343=VERTEX_POINT('',#1290);
#344=VERTEX_POINT('',#1292);
#345=VERTEX_POINT('',#1296);
#346=VERTEX_POINT('',#1300);
#347=VERTEX_POINT('',#1301);
#348=VERTEX_POINT('',#1304);
#349=VERTEX_POINT('',#1305);
#350=VERTEX_POINT('',#1308);
#351=VERTEX_POINT('',#1309);
#352=VERTEX_POINT('',#1312);
#353=VERTEX_POINT('',#1313);
#354=VERTEX_POINT('',#1316);
#355=VERTEX_POINT('',#1318);
#356=VERTEX_POINT('',#1320);
#357=VERTEX_POINT('',#1322);
#358=VERTEX_POINT('',#1325);
#359=VERTEX_POINT('',#1326);
#360=VERTEX_POINT('',#1329);
#361=VERTEX_POINT('',#1330);
#362=VERTEX_POINT('',#1333);
#363=VERTEX_POINT('',#1334);
#364=VERTEX_POINT('',#1337);
#365=VERTEX_POINT('',#1338);
#366=VERTEX_POINT('',#1342);
#367=VERTEX_POINT('',#1346);
#368=VERTEX_POINT('',#1349);
#369=VERTEX_POINT('',#1353);
#370=VERTEX_POINT('',#1356);
#371=VERTEX_POINT('',#1360);
#372=VERTEX_POINT('',#1363);
#373=VERTEX_POINT('',#1367);
#374=EDGE_CURVE('',#309,#309,#307,.T.);
#375=EDGE_CURVE('',#309,#310,#241,.T.);
#376=EDGE_CURVE('',#310,#310,#308,.T.);
#377=EDGE_CURVE('',#311,#311,#58,.T.);
#378=EDGE_CURVE('',#311,#312,#242,.T.);
#379=EDGE_CURVE('',#312,#312,#59,.T.);
#380=EDGE_CURVE('',#313,#313,#60,.T.);
#381=EDGE_CURVE('',#313,#314,#243,.T.);
#382=EDGE_CURVE('',#314,#314,#61,.T.);
#383=EDGE_CURVE('',#315,#315,#62,.T.);
#384=EDGE_CURVE('',#315,#316,#244,.T.);
#385=EDGE_CURVE('',#316,#316,#63,.T.);
#386=EDGE_CURVE('',#317,#317,#64,.T.);
#387=EDGE_CURVE('',#317,#318,#245,.T.);
#388=EDGE_CURVE('',#318,#318,#65,.T.);
#389=EDGE_CURVE('',#319,#320,#246,.T.);
#390=EDGE_CURVE('',#321,#319,#66,.T.);
#391=EDGE_CURVE('',#322,#321,#247,.T.);
#392=EDGE_CURVE('',#320,#322,#67,.T.);
#393=EDGE_CURVE('',#323,#321,#68,.T.);
#394=EDGE_CURVE('',#323,#324,#248,.T.);
#395=EDGE_CURVE('',#322,#324,#69,.T.);
#396=EDGE_CURVE('',#325,#320,#70,.T.);
#397=EDGE_CURVE('',#325,#326,#249,.T.);
#398=EDGE_CURVE('',#319,#326,#71,.T.);
#399=EDGE_CURVE('',#327,#327,#72,.T.);
#400=EDGE_CURVE('',#324,#328,#73,.T.);
#401=EDGE_CURVE('',#328,#329,#74,.T.);
#402=EDGE_CURVE('',#329,#330,#75,.T.);
#403=EDGE_CURVE('',#330,#331,#76,.T.);
#404=EDGE_CURVE('',#331,#325,#77,.T.);
#405=EDGE_CURVE('',#332,#329,#250,.T.);
#406=EDGE_CURVE('',#333,#332,#78,.T.);
#407=EDGE_CURVE('',#330,#333,#251,.T.);
#408=EDGE_CURVE('',#334,#333,#79,.T.);
#409=EDGE_CURVE('',#334,#331,#252,.T.);
#410=EDGE_CURVE('',#328,#335,#253,.T.);
#411=EDGE_CURVE('',#332,#335,#80,.T.);
#412=EDGE_CURVE('',#335,#323,#81,.T.);
#413=EDGE_CURVE('',#326,#334,#82,.T.);
#414=EDGE_CURVE('',#327,#336,#254,.T.);
#415=EDGE_CURVE('',#336,#336,#83,.T.);
#416=EDGE_CURVE('',#337,#337,#84,.T.);
#417=EDGE_CURVE('',#337,#338,#255,.T.);
#418=EDGE_CURVE('',#338,#338,#85,.T.);
#419=EDGE_CURVE('',#339,#339,#86,.T.);
#420=EDGE_CURVE('',#340,#340,#87,.T.);
#421=EDGE_CURVE('',#341,#341,#88,.T.);
#422=EDGE_CURVE('',#342,#342,#89,.T.);
#423=EDGE_CURVE('',#343,#343,#90,.T.);
#424=EDGE_CURVE('',#343,#344,#256,.T.);
#425=EDGE_CURVE('',#344,#344,#91,.T.);
#426=EDGE_CURVE('',#345,#345,#92,.T.);
#427=EDGE_CURVE('',#345,#343,#257,.T.);
#428=EDGE_CURVE('',#346,#347,#93,.T.);
#429=EDGE_CURVE('',#346,#347,#94,.T.);
#430=EDGE_CURVE('',#348,#349,#95,.T.);
#431=EDGE_CURVE('',#348,#349,#96,.T.);
#432=EDGE_CURVE('',#350,#351,#97,.T.);
#433=EDGE_CURVE('',#350,#351,#98,.T.);
#434=EDGE_CURVE('',#352,#353,#99,.T.);
#435=EDGE_CURVE('',#352,#353,#100,.T.);
#436=EDGE_CURVE('',#354,#354,#101,.T.);
#437=EDGE_CURVE('',#355,#355,#102,.T.);
#438=EDGE_CURVE('',#356,#356,#103,.T.);
#439=EDGE_CURVE('',#357,#357,#104,.T.);
#440=EDGE_CURVE('',#358,#359,#105,.T.);
#441=EDGE_CURVE('',#359,#358,#106,.T.);
#442=EDGE_CURVE('',#360,#361,#107,.T.);
#443=EDGE_CURVE('',#361,#360,#108,.T.);
#444=EDGE_CURVE('',#362,#363,#109,.T.);
#445=EDGE_CURVE('',#363,#362,#110,.T.);
#446=EDGE_CURVE('',#364,#365,#111,.T.);
#447=EDGE_CURVE('',#365,#364,#112,.T.);
#448=EDGE_CURVE('',#357,#366,#258,.T.);
#449=EDGE_CURVE('',#366,#366,#113,.T.);
#450=EDGE_CURVE('',#367,#367,#114,.T.);
#451=EDGE_CURVE('',#356,#368,#259,.T.);
#452=EDGE_CURVE('',#368,#368,#115,.T.);
#453=EDGE_CURVE('',#369,#369,#116,.T.);
#454=EDGE_CURVE('',#355,#370,#260,.T.);
#455=EDGE_CURVE('',#370,#370,#117,.T.);
#456=EDGE_CURVE('',#371,#371,#118,.T.);
#457=EDGE_CURVE('',#354,#372,#261,.T.);
#458=EDGE_CURVE('',#372,#372,#119,.T.);
#459=EDGE_CURVE('',#373,#373,#120,.T.);
#460=EDGE_CURVE('',#358,#348,#262,.T.);
#461=EDGE_CURVE('',#349,#359,#263,.T.);
#462=EDGE_CURVE('',#360,#350,#264,.T.);
#463=EDGE_CURVE('',#351,#361,#265,.T.);
#464=EDGE_CURVE('',#362,#352,#266,.T.);
#465=EDGE_CURVE('',#353,#363,#267,.T.);
#466=EDGE_CURVE('',#347,#364,#268,.T.);
#467=EDGE_CURVE('',#365,#346,#269,.T.);
#468=EDGE_CURVE('',#373,#342,#270,.T.);
#469=EDGE_CURVE('',#369,#341,#271,.T.);
#470=EDGE_CURVE('',#367,#340,#272,.T.);
#471=EDGE_CURVE('',#371,#339,#273,.T.);
#472=ORIENTED_EDGE('',*,*,#374,.F.);
#473=ORIENTED_EDGE('',*,*,#375,.T.);
#474=ORIENTED_EDGE('',*,*,#376,.F.);
#475=ORIENTED_EDGE('',*,*,#375,.F.);
#476=ORIENTED_EDGE('',*,*,#377,.F.);
#477=ORIENTED_EDGE('',*,*,#378,.T.);
#478=ORIENTED_EDGE('',*,*,#379,.F.);
#479=ORIENTED_EDGE('',*,*,#378,.F.);
#480=ORIENTED_EDGE('',*,*,#377,.T.);
#481=ORIENTED_EDGE('',*,*,#380,.F.);
#482=ORIENTED_EDGE('',*,*,#381,.T.);
#483=ORIENTED_EDGE('',*,*,#382,.F.);
#484=ORIENTED_EDGE('',*,*,#381,.F.);
#485=ORIENTED_EDGE('',*,*,#380,.T.);
#486=ORIENTED_EDGE('',*,*,#383,.F.);
#487=ORIENTED_EDGE('',*,*,#384,.T.);
#488=ORIENTED_EDGE('',*,*,#385,.F.);
#489=ORIENTED_EDGE('',*,*,#384,.F.);
#490=ORIENTED_EDGE('',*,*,#383,.T.);
#491=ORIENTED_EDGE('',*,*,#386,.F.);
#492=ORIENTED_EDGE('',*,*,#387,.T.);
#493=ORIENTED_EDGE('',*,*,#388,.F.);
#494=ORIENTED_EDGE('',*,*,#387,.F.);
#495=ORIENTED_EDGE('',*,*,#386,.T.);
#496=ORIENTED_EDGE('',*,*,#389,.F.);
#497=ORIENTED_EDGE('',*,*,#390,.F.);
#498=ORIENTED_EDGE('',*,*,#391,.F.);
#499=ORIENTED_EDGE('',*,*,#392,.F.);
#500=ORIENTED_EDGE('',*,*,#391,.T.);
#501=ORIENTED_EDGE('',*,*,#393,.F.);
#502=ORIENTED_EDGE('',*,*,#394,.T.);
#503=ORIENTED_EDGE('',*,*,#395,.F.);
#504=ORIENTED_EDGE('',*,*,#389,.T.);
#505=ORIENTED_EDGE('',*,*,#396,.F.);
#506=ORIENTED_EDGE('',*,*,#397,.T.);
#507=ORIENTED_EDGE('',*,*,#398,.F.);
#508=ORIENTED_EDGE('',*,*,#399,.T.);
#509=ORIENTED_EDGE('',*,*,#395,.T.);
#510=ORIENTED_EDGE('',*,*,#400,.T.);
#511=ORIENTED_EDGE('',*,*,#401,.T.);
#512=ORIENTED_EDGE('',*,*,#402,.T.);
#513=ORIENTED_EDGE('',*,*,#403,.T.);
#514=ORIENTED_EDGE('',*,*,#404,.T.);
#515=ORIENTED_EDGE('',*,*,#396,.T.);
#516=ORIENTED_EDGE('',*,*,#392,.T.);
#517=ORIENTED_EDGE('',*,*,#388,.T.);
#518=ORIENTED_EDGE('',*,*,#385,.T.);
#519=ORIENTED_EDGE('',*,*,#382,.T.);
#520=ORIENTED_EDGE('',*,*,#379,.T.);
#521=ORIENTED_EDGE('',*,*,#405,.F.);
#522=ORIENTED_EDGE('',*,*,#406,.F.);
#523=ORIENTED_EDGE('',*,*,#407,.F.);
#524=ORIENTED_EDGE('',*,*,#402,.F.);
#525=ORIENTED_EDGE('',*,*,#407,.T.);
#526=ORIENTED_EDGE('',*,*,#408,.F.);
#527=ORIENTED_EDGE('',*,*,#409,.T.);
#528=ORIENTED_EDGE('',*,*,#403,.F.);
#529=ORIENTED_EDGE('',*,*,#405,.T.);
#530=ORIENTED_EDGE('',*,*,#401,.F.);
#531=ORIENTED_EDGE('',*,*,#410,.T.);
#532=ORIENTED_EDGE('',*,*,#411,.F.);
#533=ORIENTED_EDGE('',*,*,#374,.T.);
#534=ORIENTED_EDGE('',*,*,#394,.F.);
#535=ORIENTED_EDGE('',*,*,#412,.F.);
#536=ORIENTED_EDGE('',*,*,#410,.F.);
#537=ORIENTED_EDGE('',*,*,#400,.F.);
#538=ORIENTED_EDGE('',*,*,#409,.F.);
#539=ORIENTED_EDGE('',*,*,#413,.F.);
#540=ORIENTED_EDGE('',*,*,#397,.F.);
#541=ORIENTED_EDGE('',*,*,#404,.F.);
#542=ORIENTED_EDGE('',*,*,#399,.F.);
#543=ORIENTED_EDGE('',*,*,#414,.T.);
#544=ORIENTED_EDGE('',*,*,#415,.F.);
#545=ORIENTED_EDGE('',*,*,#414,.F.);
#546=ORIENTED_EDGE('',*,*,#376,.T.);
#547=ORIENTED_EDGE('',*,*,#416,.F.);
#548=ORIENTED_EDGE('',*,*,#417,.T.);
#549=ORIENTED_EDGE('',*,*,#418,.F.);
#550=ORIENTED_EDGE('',*,*,#417,.F.);
#551=ORIENTED_EDGE('',*,*,#390,.T.);
#552=ORIENTED_EDGE('',*,*,#398,.T.);
#553=ORIENTED_EDGE('',*,*,#413,.T.);
#554=ORIENTED_EDGE('',*,*,#408,.T.);
#555=ORIENTED_EDGE('',*,*,#406,.T.);
#556=ORIENTED_EDGE('',*,*,#411,.T.);
#557=ORIENTED_EDGE('',*,*,#412,.T.);
#558=ORIENTED_EDGE('',*,*,#393,.T.);
#559=ORIENTED_EDGE('',*,*,#416,.T.);
#560=ORIENTED_EDGE('',*,*,#419,.T.);
#561=ORIENTED_EDGE('',*,*,#420,.T.);
#562=ORIENTED_EDGE('',*,*,#421,.T.);
#563=ORIENTED_EDGE('',*,*,#422,.T.);
#564=ORIENTED_EDGE('',*,*,#423,.T.);
#565=ORIENTED_EDGE('',*,*,#424,.T.);
#566=ORIENTED_EDGE('',*,*,#425,.T.);
#567=ORIENTED_EDGE('',*,*,#424,.F.);
#568=ORIENTED_EDGE('',*,*,#426,.F.);
#569=ORIENTED_EDGE('',*,*,#427,.T.);
#570=ORIENTED_EDGE('',*,*,#423,.F.);
#571=ORIENTED_EDGE('',*,*,#427,.F.);
#572=ORIENTED_EDGE('',*,*,#425,.F.);
#573=ORIENTED_EDGE('',*,*,#428,.F.);
#574=ORIENTED_EDGE('',*,*,#429,.T.);
#575=ORIENTED_EDGE('',*,*,#430,.T.);
#576=ORIENTED_EDGE('',*,*,#431,.F.);
#577=ORIENTED_EDGE('',*,*,#432,.T.);
#578=ORIENTED_EDGE('',*,*,#433,.F.);
#579=ORIENTED_EDGE('',*,*,#434,.T.);
#580=ORIENTED_EDGE('',*,*,#435,.F.);
#581=ORIENTED_EDGE('',*,*,#436,.T.);
#582=ORIENTED_EDGE('',*,*,#437,.T.);
#583=ORIENTED_EDGE('',*,*,#438,.T.);
#584=ORIENTED_EDGE('',*,*,#439,.T.);
#585=ORIENTED_EDGE('',*,*,#418,.T.);
#586=ORIENTED_EDGE('',*,*,#426,.T.);
#587=ORIENTED_EDGE('',*,*,#415,.T.);
#588=ORIENTED_EDGE('',*,*,#440,.T.);
#589=ORIENTED_EDGE('',*,*,#441,.T.);
#590=ORIENTED_EDGE('',*,*,#442,.T.);
#591=ORIENTED_EDGE('',*,*,#443,.T.);
#592=ORIENTED_EDGE('',*,*,#444,.T.);
#593=ORIENTED_EDGE('',*,*,#445,.T.);
#594=ORIENTED_EDGE('',*,*,#446,.T.);
#595=ORIENTED_EDGE('',*,*,#447,.T.);
#596=ORIENTED_EDGE('',*,*,#439,.F.);
#597=ORIENTED_EDGE('',*,*,#448,.T.);
#598=ORIENTED_EDGE('',*,*,#449,.T.);
#599=ORIENTED_EDGE('',*,*,#448,.F.);
#600=ORIENTED_EDGE('',*,*,#449,.F.);
#601=ORIENTED_EDGE('',*,*,#450,.F.);
#602=ORIENTED_EDGE('',*,*,#438,.F.);
#603=ORIENTED_EDGE('',*,*,#451,.T.);
#604=ORIENTED_EDGE('',*,*,#452,.T.);
#605=ORIENTED_EDGE('',*,*,#451,.F.);
#606=ORIENTED_EDGE('',*,*,#452,.F.);
#607=ORIENTED_EDGE('',*,*,#453,.F.);
#608=ORIENTED_EDGE('',*,*,#437,.F.);
#609=ORIENTED_EDGE('',*,*,#454,.T.);
#610=ORIENTED_EDGE('',*,*,#455,.T.);
#611=ORIENTED_EDGE('',*,*,#454,.F.);
#612=ORIENTED_EDGE('',*,*,#455,.F.);
#613=ORIENTED_EDGE('',*,*,#456,.F.);
#614=ORIENTED_EDGE('',*,*,#436,.F.);
#615=ORIENTED_EDGE('',*,*,#457,.T.);
#616=ORIENTED_EDGE('',*,*,#458,.T.);
#617=ORIENTED_EDGE('',*,*,#457,.F.);
#618=ORIENTED_EDGE('',*,*,#458,.F.);
#619=ORIENTED_EDGE('',*,*,#459,.F.);
#620=ORIENTED_EDGE('',*,*,#460,.T.);
#621=ORIENTED_EDGE('',*,*,#431,.T.);
#622=ORIENTED_EDGE('',*,*,#461,.T.);
#623=ORIENTED_EDGE('',*,*,#440,.F.);
#624=ORIENTED_EDGE('',*,*,#462,.T.);
#625=ORIENTED_EDGE('',*,*,#433,.T.);
#626=ORIENTED_EDGE('',*,*,#463,.T.);
#627=ORIENTED_EDGE('',*,*,#442,.F.);
#628=ORIENTED_EDGE('',*,*,#464,.T.);
#629=ORIENTED_EDGE('',*,*,#435,.T.);
#630=ORIENTED_EDGE('',*,*,#465,.T.);
#631=ORIENTED_EDGE('',*,*,#444,.F.);
#632=ORIENTED_EDGE('',*,*,#466,.T.);
#633=ORIENTED_EDGE('',*,*,#447,.F.);
#634=ORIENTED_EDGE('',*,*,#467,.T.);
#635=ORIENTED_EDGE('',*,*,#428,.T.);
#636=ORIENTED_EDGE('',*,*,#459,.T.);
#637=ORIENTED_EDGE('',*,*,#468,.T.);
#638=ORIENTED_EDGE('',*,*,#422,.F.);
#639=ORIENTED_EDGE('',*,*,#468,.F.);
#640=ORIENTED_EDGE('',*,*,#453,.T.);
#641=ORIENTED_EDGE('',*,*,#469,.T.);
#642=ORIENTED_EDGE('',*,*,#421,.F.);
#643=ORIENTED_EDGE('',*,*,#469,.F.);
#644=ORIENTED_EDGE('',*,*,#450,.T.);
#645=ORIENTED_EDGE('',*,*,#470,.T.);
#646=ORIENTED_EDGE('',*,*,#420,.F.);
#647=ORIENTED_EDGE('',*,*,#470,.F.);
#648=ORIENTED_EDGE('',*,*,#456,.T.);
#649=ORIENTED_EDGE('',*,*,#471,.T.);
#650=ORIENTED_EDGE('',*,*,#419,.F.);
#651=ORIENTED_EDGE('',*,*,#471,.F.);
#652=ORIENTED_EDGE('',*,*,#465,.F.);
#653=ORIENTED_EDGE('',*,*,#434,.F.);
#654=ORIENTED_EDGE('',*,*,#464,.F.);
#655=ORIENTED_EDGE('',*,*,#445,.F.);
#656=ORIENTED_EDGE('',*,*,#460,.F.);
#657=ORIENTED_EDGE('',*,*,#441,.F.);
#658=ORIENTED_EDGE('',*,*,#461,.F.);
#659=ORIENTED_EDGE('',*,*,#430,.F.);
#660=ORIENTED_EDGE('',*,*,#463,.F.);
#661=ORIENTED_EDGE('',*,*,#432,.F.);
#662=ORIENTED_EDGE('',*,*,#462,.F.);
#663=ORIENTED_EDGE('',*,*,#443,.F.);
#664=ORIENTED_EDGE('',*,*,#467,.F.);
#665=ORIENTED_EDGE('',*,*,#446,.F.);
#666=ORIENTED_EDGE('',*,*,#466,.F.);
#667=ORIENTED_EDGE('',*,*,#429,.F.);
#668=CYLINDRICAL_SURFACE('',#759,5.5);
#669=CYLINDRICAL_SURFACE('',#760,1.25);
#670=CYLINDRICAL_SURFACE('',#764,1.25);
#671=CYLINDRICAL_SURFACE('',#768,1.25);
#672=CYLINDRICAL_SURFACE('',#772,1.25);
#673=CYLINDRICAL_SURFACE('',#776,4.5);
#674=CYLINDRICAL_SURFACE('',#779,40.);
#675=CYLINDRICAL_SURFACE('',#782,40.);
#676=CYLINDRICAL_SURFACE('',#792,4.5);
#677=CYLINDRICAL_SURFACE('',#794,40.);
#678=CYLINDRICAL_SURFACE('',#796,40.);
#679=CYLINDRICAL_SURFACE('',#798,4.5);
#680=CYLINDRICAL_SURFACE('',#800,4.5);
#681=CYLINDRICAL_SURFACE('',#802,43.);
#682=CYLINDRICAL_SURFACE('',#804,3.25);
#683=CYLINDRICAL_SURFACE('',#815,50.);
#684=CYLINDRICAL_SURFACE('',#839,3.25);
#685=CYLINDRICAL_SURFACE('',#843,3.25);
#686=CYLINDRICAL_SURFACE('',#847,3.25);
#687=CYLINDRICAL_SURFACE('',#851,3.25);
#688=CYLINDRICAL_SURFACE('',#855,45.);
#689=CYLINDRICAL_SURFACE('',#856,45.);
#690=CYLINDRICAL_SURFACE('',#857,45.);
#691=CYLINDRICAL_SURFACE('',#858,45.);
#692=CYLINDRICAL_SURFACE('',#859,1.8);
#693=CYLINDRICAL_SURFACE('',#860,1.8);
#694=CYLINDRICAL_SURFACE('',#861,1.8);
#695=CYLINDRICAL_SURFACE('',#862,1.8);
#696=CYLINDRICAL_SURFACE('',#863,2.1);
#697=CYLINDRICAL_SURFACE('',#864,2.1);
#698=CYLINDRICAL_SURFACE('',#865,2.1);
#699=CYLINDRICAL_SURFACE('',#866,2.1);
#700=ADVANCED_FACE('',(#121),#668,.F.);
#701=ADVANCED_FACE('',(#122),#669,.F.);
#702=ADVANCED_FACE('',(#123),#46,.T.);
#703=ADVANCED_FACE('',(#124),#670,.F.);
#704=ADVANCED_FACE('',(#125),#47,.T.);
#705=ADVANCED_FACE('',(#126),#671,.F.);
#706=ADVANCED_FACE('',(#127),#48,.T.);
#707=ADVANCED_FACE('',(#128),#672,.F.);
#708=ADVANCED_FACE('',(#129),#49,.T.);
#709=ADVANCED_FACE('',(#130),#673,.T.);
#710=ADVANCED_FACE('',(#131),#674,.F.);
#711=ADVANCED_FACE('',(#132),#675,.F.);
#712=ADVANCED_FACE('',(#133,#16,#17,#18,#19,#20),#50,.T.);
#713=ADVANCED_FACE('',(#134),#676,.T.);
#714=ADVANCED_FACE('',(#135),#677,.F.);
#715=ADVANCED_FACE('',(#136,#21),#678,.F.);
#716=ADVANCED_FACE('',(#137),#679,.T.);
#717=ADVANCED_FACE('',(#138),#680,.T.);
#718=ADVANCED_FACE('',(#139,#22),#681,.T.);
#719=ADVANCED_FACE('',(#140),#682,.F.);
#720=ADVANCED_FACE('',(#141,#23,#24,#25,#26,#27),#51,.T.);
#721=ADVANCED_FACE('',(#142),#15,.T.);
#722=ADVANCED_FACE('',(#143),#683,.T.);
#723=ADVANCED_FACE('',(#144,#28,#29,#30,#31,#32,#33,#34,#35,#36),#52,.T.);
#724=ADVANCED_FACE('',(#145,#37,#38,#39,#40,#41),#53,.T.);
#725=ADVANCED_FACE('',(#146),#684,.F.);
#726=ADVANCED_FACE('',(#147,#42),#54,.F.);
#727=ADVANCED_FACE('',(#148),#685,.F.);
#728=ADVANCED_FACE('',(#149,#43),#55,.F.);
#729=ADVANCED_FACE('',(#150),#686,.F.);
#730=ADVANCED_FACE('',(#151,#44),#56,.F.);
#731=ADVANCED_FACE('',(#152),#687,.F.);
#732=ADVANCED_FACE('',(#153,#45),#57,.F.);
#733=ADVANCED_FACE('',(#154),#688,.F.);
#734=ADVANCED_FACE('',(#155),#689,.F.);
#735=ADVANCED_FACE('',(#156),#690,.F.);
#736=ADVANCED_FACE('',(#157),#691,.F.);
#737=ADVANCED_FACE('',(#158),#692,.F.);
#738=ADVANCED_FACE('',(#159),#693,.F.);
#739=ADVANCED_FACE('',(#160),#694,.F.);
#740=ADVANCED_FACE('',(#161),#695,.F.);
#741=ADVANCED_FACE('',(#162),#696,.F.);
#742=ADVANCED_FACE('',(#163),#697,.F.);
#743=ADVANCED_FACE('',(#164),#698,.F.);
#744=ADVANCED_FACE('',(#165),#699,.F.);
#745=CLOSED_SHELL('',(#700,#701,#702,#703,#704,#705,#706,#707,#708,#709,
#710,#711,#712,#713,#714,#715,#716,#717,#718,#719,#720,#721,#722,#723,#724,
#725,#726,#727,#728,#729,#730,#731,#732,#733,#734,#735,#736,#737,#738,#739,
#740,#741,#742,#743,#744));
#746=DERIVED_UNIT_ELEMENT(#748,1.);
#747=DERIVED_UNIT_ELEMENT(#1398,-3.);
#748=(
MASS_UNIT()
NAMED_UNIT(*)
SI_UNIT(.KILO.,.GRAM.)
);
#749=DERIVED_UNIT((#746,#747));
#750=MEASURE_REPRESENTATION_ITEM('density measure',
POSITIVE_RATIO_MEASURE(7850.),#749);
#751=PROPERTY_DEFINITION_REPRESENTATION(#756,#753);
#752=PROPERTY_DEFINITION_REPRESENTATION(#757,#754);
#753=REPRESENTATION('material name',(#755),#1395);
#754=REPRESENTATION('density',(#750),#1395);
#755=DESCRIPTIVE_REPRESENTATION_ITEM('\X2\92FC\X0\','\X2\92FC\X0\');
#756=PROPERTY_DEFINITION('material property','material name',#1405);
#757=PROPERTY_DEFINITION('material property','density of part',#1405);
#758=AXIS2_PLACEMENT_3D('',#1118,#867,#868);
#759=AXIS2_PLACEMENT_3D('',#1119,#869,#870);
#760=AXIS2_PLACEMENT_3D('',#1191,#872,#873);
#761=AXIS2_PLACEMENT_3D('',#1193,#874,#875);
#762=AXIS2_PLACEMENT_3D('',#1196,#877,#878);
#763=AXIS2_PLACEMENT_3D('',#1197,#879,#880);
#764=AXIS2_PLACEMENT_3D('',#1198,#881,#882);
#765=AXIS2_PLACEMENT_3D('',#1200,#883,#884);
#766=AXIS2_PLACEMENT_3D('',#1203,#886,#887);
#767=AXIS2_PLACEMENT_3D('',#1204,#888,#889);
#768=AXIS2_PLACEMENT_3D('',#1205,#890,#891);
#769=AXIS2_PLACEMENT_3D('',#1207,#892,#893);
#770=AXIS2_PLACEMENT_3D('',#1210,#895,#896);
#771=AXIS2_PLACEMENT_3D('',#1211,#897,#898);
#772=AXIS2_PLACEMENT_3D('',#1212,#899,#900);
#773=AXIS2_PLACEMENT_3D('',#1214,#901,#902);
#774=AXIS2_PLACEMENT_3D('',#1217,#904,#905);
#775=AXIS2_PLACEMENT_3D('',#1218,#906,#907);
#776=AXIS2_PLACEMENT_3D('',#1219,#908,#909);
#777=AXIS2_PLACEMENT_3D('',#1224,#911,#912);
#778=AXIS2_PLACEMENT_3D('',#1227,#914,#915);
#779=AXIS2_PLACEMENT_3D('',#1228,#916,#917);
#780=AXIS2_PLACEMENT_3D('',#1230,#918,#919);
#781=AXIS2_PLACEMENT_3D('',#1233,#921,#922);
#782=AXIS2_PLACEMENT_3D('',#1234,#923,#924);
#783=AXIS2_PLACEMENT_3D('',#1236,#925,#926);
#784=AXIS2_PLACEMENT_3D('',#1239,#928,#929);
#785=AXIS2_PLACEMENT_3D('',#1240,#930,#931);
#786=AXIS2_PLACEMENT_3D('',#1242,#932,#933);
#787=AXIS2_PLACEMENT_3D('',#1244,#934,#935);
#788=AXIS2_PLACEMENT_3D('',#1246,#936,#937);
#789=AXIS2_PLACEMENT_3D('',#1248,#938,#939);
#790=AXIS2_PLACEMENT_3D('',#1250,#940,#941);
#791=AXIS2_PLACEMENT_3D('',#1251,#942,#943);
#792=AXIS2_PLACEMENT_3D('',#1252,#944,#945);
#793=AXIS2_PLACEMENT_3D('',#1256,#947,#948);
#794=AXIS2_PLACEMENT_3D('',#1258,#950,#951);
#795=AXIS2_PLACEMENT_3D('',#1260,#952,#953);
#796=AXIS2_PLACEMENT_3D('',#1262,#955,#956);
#797=AXIS2_PLACEMENT_3D('',#1265,#958,#959);
#798=AXIS2_PLACEMENT_3D('',#1266,#960,#961);
#799=AXIS2_PLACEMENT_3D('',#1267,#962,#963);
#800=AXIS2_PLACEMENT_3D('',#1268,#964,#965);
#801=AXIS2_PLACEMENT_3D('',#1269,#966,#967);
#802=AXIS2_PLACEMENT_3D('',#1270,#968,#969);
#803=AXIS2_PLACEMENT_3D('',#1273,#971,#972);
#804=AXIS2_PLACEMENT_3D('',#1274,#973,#974);
#805=AXIS2_PLACEMENT_3D('',#1276,#975,#976);
#806=AXIS2_PLACEMENT_3D('',#1279,#978,#979);
#807=AXIS2_PLACEMENT_3D('',#1280,#980,#981);
#808=AXIS2_PLACEMENT_3D('',#1282,#982,#983);
#809=AXIS2_PLACEMENT_3D('',#1284,#984,#985);
#810=AXIS2_PLACEMENT_3D('',#1286,#986,#987);
#811=AXIS2_PLACEMENT_3D('',#1288,#988,#989);
#812=AXIS2_PLACEMENT_3D('',#1289,#990,#991);
#813=AXIS2_PLACEMENT_3D('',#1291,#992,#993);
#814=AXIS2_PLACEMENT_3D('',#1294,#995,#996);
#815=AXIS2_PLACEMENT_3D('',#1295,#997,#998);
#816=AXIS2_PLACEMENT_3D('',#1297,#999,#1000);
#817=AXIS2_PLACEMENT_3D('',#1299,#1002,#1003);
#818=AXIS2_PLACEMENT_3D('',#1302,#1004,#1005);
#819=AXIS2_PLACEMENT_3D('',#1303,#1006,#1007);
#820=AXIS2_PLACEMENT_3D('',#1306,#1008,#1009);
#821=AXIS2_PLACEMENT_3D('',#1307,#1010,#1011);
#822=AXIS2_PLACEMENT_3D('',#1310,#1012,#1013);
#823=AXIS2_PLACEMENT_3D('',#1311,#1014,#1015);
#824=AXIS2_PLACEMENT_3D('',#1314,#1016,#1017);
#825=AXIS2_PLACEMENT_3D('',#1315,#1018,#1019);
#826=AXIS2_PLACEMENT_3D('',#1317,#1020,#1021);
#827=AXIS2_PLACEMENT_3D('',#1319,#1022,#1023);
#828=AXIS2_PLACEMENT_3D('',#1321,#1024,#1025);
#829=AXIS2_PLACEMENT_3D('',#1323,#1026,#1027);
#830=AXIS2_PLACEMENT_3D('',#1324,#1028,#1029);
#831=AXIS2_PLACEMENT_3D('',#1327,#1030,#1031);
#832=AXIS2_PLACEMENT_3D('',#1328,#1032,#1033);
#833=AXIS2_PLACEMENT_3D('',#1331,#1034,#1035);
#834=AXIS2_PLACEMENT_3D('',#1332,#1036,#1037);
#835=AXIS2_PLACEMENT_3D('',#1335,#1038,#1039);
#836=AXIS2_PLACEMENT_3D('',#1336,#1040,#1041);
#837=AXIS2_PLACEMENT_3D('',#1339,#1042,#1043);
#838=AXIS2_PLACEMENT_3D('',#1340,#1044,#1045);
#839=AXIS2_PLACEMENT_3D('',#1341,#1046,#1047);
#840=AXIS2_PLACEMENT_3D('',#1344,#1049,#1050);
#841=AXIS2_PLACEMENT_3D('',#1345,#1051,#1052);
#842=AXIS2_PLACEMENT_3D('',#1347,#1053,#1054);
#843=AXIS2_PLACEMENT_3D('',#1348,#1055,#1056);
#844=AXIS2_PLACEMENT_3D('',#1351,#1058,#1059);
#845=AXIS2_PLACEMENT_3D('',#1352,#1060,#1061);
#846=AXIS2_PLACEMENT_3D('',#1354,#1062,#1063);
#847=AXIS2_PLACEMENT_3D('',#1355,#1064,#1065);
#848=AXIS2_PLACEMENT_3D('',#1358,#1067,#1068);
#849=AXIS2_PLACEMENT_3D('',#1359,#1069,#1070);
#850=AXIS2_PLACEMENT_3D('',#1361,#1071,#1072);
#851=AXIS2_PLACEMENT_3D('',#1362,#1073,#1074);
#852=AXIS2_PLACEMENT_3D('',#1365,#1076,#1077);
#853=AXIS2_PLACEMENT_3D('',#1366,#1078,#1079);
#854=AXIS2_PLACEMENT_3D('',#1368,#1080,#1081);
#855=AXIS2_PLACEMENT_3D('',#1369,#1082,#1083);
#856=AXIS2_PLACEMENT_3D('',#1372,#1086,#1087);
#857=AXIS2_PLACEMENT_3D('',#1375,#1090,#1091);
#858=AXIS2_PLACEMENT_3D('',#1378,#1094,#1095);
#859=AXIS2_PLACEMENT_3D('',#1381,#1098,#1099);
#860=AXIS2_PLACEMENT_3D('',#1383,#1101,#1102);
#861=AXIS2_PLACEMENT_3D('',#1385,#1104,#1105);
#862=AXIS2_PLACEMENT_3D('',#1387,#1107,#1108);
#863=AXIS2_PLACEMENT_3D('',#1389,#1110,#1111);
#864=AXIS2_PLACEMENT_3D('',#1390,#1112,#1113);
#865=AXIS2_PLACEMENT_3D('',#1391,#1114,#1115);
#866=AXIS2_PLACEMENT_3D('',#1392,#1116,#1117);
#867=DIRECTION('axis',(0.,0.,1.));
#868=DIRECTION('refdir',(1.,0.,0.));
#869=DIRECTION('center_axis',(0.,1.,0.));
#870=DIRECTION('ref_axis',(1.,0.,0.));
#871=DIRECTION('',(0.,1.,0.));
#872=DIRECTION('center_axis',(0.,0.,1.));
#873=DIRECTION('ref_axis',(1.,0.,0.));
#874=DIRECTION('center_axis',(0.,0.,1.));
#875=DIRECTION('ref_axis',(1.,0.,0.));
#876=DIRECTION('',(0.,0.,1.));
#877=DIRECTION('center_axis',(0.,0.,-1.));
#878=DIRECTION('ref_axis',(1.,0.,0.));
#879=DIRECTION('center_axis',(0.,0.,1.));
#880=DIRECTION('ref_axis',(1.,0.,0.));
#881=DIRECTION('center_axis',(0.,0.,1.));
#882=DIRECTION('ref_axis',(1.,0.,0.));
#883=DIRECTION('center_axis',(0.,0.,1.));
#884=DIRECTION('ref_axis',(1.,0.,0.));
#885=DIRECTION('',(0.,0.,1.));
#886=DIRECTION('center_axis',(0.,0.,-1.));
#887=DIRECTION('ref_axis',(1.,0.,0.));
#888=DIRECTION('center_axis',(0.,0.,1.));
#889=DIRECTION('ref_axis',(1.,0.,0.));
#890=DIRECTION('center_axis',(0.,0.,1.));
#891=DIRECTION('ref_axis',(1.,0.,0.));
#892=DIRECTION('center_axis',(0.,0.,1.));
#893=DIRECTION('ref_axis',(1.,0.,0.));
#894=DIRECTION('',(0.,0.,1.));
#895=DIRECTION('center_axis',(0.,0.,-1.));
#896=DIRECTION('ref_axis',(1.,0.,0.));
#897=DIRECTION('center_axis',(0.,0.,1.));
#898=DIRECTION('ref_axis',(1.,0.,0.));
#899=DIRECTION('center_axis',(0.,0.,1.));
#900=DIRECTION('ref_axis',(1.,0.,0.));
#901=DIRECTION('center_axis',(0.,0.,1.));
#902=DIRECTION('ref_axis',(1.,0.,0.));
#903=DIRECTION('',(0.,0.,1.));
#904=DIRECTION('center_axis',(0.,0.,-1.));
#905=DIRECTION('ref_axis',(1.,0.,0.));
#906=DIRECTION('center_axis',(0.,0.,1.));
#907=DIRECTION('ref_axis',(1.,0.,0.));
#908=DIRECTION('center_axis',(0.,0.,1.));
#909=DIRECTION('ref_axis',(1.,0.,0.));
#910=DIRECTION('',(0.,0.,1.));
#911=DIRECTION('center_axis',(0.,0.,-1.));
#912=DIRECTION('ref_axis',(1.,0.,0.));
#913=DIRECTION('',(0.,0.,-1.));
#914=DIRECTION('center_axis',(0.,0.,1.));
#915=DIRECTION('ref_axis',(1.,0.,0.));
#916=DIRECTION('center_axis',(0.,0.,1.));
#917=DIRECTION('ref_axis',(-1.,-1.22464679914735E-16,0.));
#918=DIRECTION('center_axis',(0.,0.,1.));
#919=DIRECTION('ref_axis',(1.,0.,0.));
#920=DIRECTION('',(0.,0.,1.));
#921=DIRECTION('center_axis',(0.,0.,-1.));
#922=DIRECTION('ref_axis',(1.,0.,0.));
#923=DIRECTION('center_axis',(0.,0.,1.));
#924=DIRECTION('ref_axis',(1.,0.,0.));
#925=DIRECTION('center_axis',(0.,0.,-1.));
#926=DIRECTION('ref_axis',(1.,0.,0.));
#927=DIRECTION('',(0.,0.,-1.));
#928=DIRECTION('center_axis',(0.,0.,1.));
#929=DIRECTION('ref_axis',(1.,0.,0.));
#930=DIRECTION('center_axis',(0.,0.,1.));
#931=DIRECTION('ref_axis',(1.,0.,0.));
#932=DIRECTION('center_axis',(0.,0.,1.));
#933=DIRECTION('ref_axis',(1.,0.,0.));
#934=DIRECTION('center_axis',(0.,0.,1.));
#935=DIRECTION('ref_axis',(1.,0.,0.));
#936=DIRECTION('center_axis',(0.,0.,-1.));
#937=DIRECTION('ref_axis',(1.,0.,0.));
#938=DIRECTION('center_axis',(0.,0.,1.));
#939=DIRECTION('ref_axis',(1.,0.,0.));
#940=DIRECTION('center_axis',(0.,0.,-1.));
#941=DIRECTION('ref_axis',(1.,0.,0.));
#942=DIRECTION('center_axis',(0.,0.,1.));
#943=DIRECTION('ref_axis',(1.,0.,0.));
#944=DIRECTION('center_axis',(0.,0.,1.));
#945=DIRECTION('ref_axis',(-0.707106781186548,-0.707106781186547,0.));
#946=DIRECTION('',(0.,0.,1.));
#947=DIRECTION('center_axis',(0.,0.,-1.));
#948=DIRECTION('ref_axis',(1.,0.,0.));
#949=DIRECTION('',(0.,0.,-1.));
#950=DIRECTION('center_axis',(0.,0.,1.));
#951=DIRECTION('ref_axis',(1.,0.,0.));
#952=DIRECTION('center_axis',(0.,0.,1.));
#953=DIRECTION('ref_axis',(1.,0.,0.));
#954=DIRECTION('',(0.,0.,1.));
#955=DIRECTION('center_axis',(0.,0.,1.));
#956=DIRECTION('ref_axis',(1.,0.,0.));
#957=DIRECTION('',(0.,0.,-1.));
#958=DIRECTION('center_axis',(0.,0.,1.));
#959=DIRECTION('ref_axis',(1.,0.,0.));
#960=DIRECTION('center_axis',(0.,0.,1.));
#961=DIRECTION('ref_axis',(1.,0.,0.));
#962=DIRECTION('center_axis',(0.,0.,-1.));
#963=DIRECTION('ref_axis',(1.,0.,0.));
#964=DIRECTION('center_axis',(0.,0.,1.));
#965=DIRECTION('ref_axis',(-0.707106781186547,0.707106781186548,0.));
#966=DIRECTION('center_axis',(0.,0.,-1.));
#967=DIRECTION('ref_axis',(1.,0.,0.));
#968=DIRECTION('center_axis',(0.,0.,1.));
#969=DIRECTION('ref_axis',(1.,0.,0.));
#970=DIRECTION('',(0.,0.,-1.));
#971=DIRECTION('center_axis',(0.,0.,-1.));
#972=DIRECTION('ref_axis',(1.,0.,0.));
#973=DIRECTION('center_axis',(0.,0.,-1.));
#974=DIRECTION('ref_axis',(1.,0.,0.));
#975=DIRECTION('center_axis',(0.,0.,-1.));
#976=DIRECTION('ref_axis',(1.,0.,0.));
#977=DIRECTION('',(0.,0.,-1.));
#978=DIRECTION('center_axis',(0.,0.,1.));
#979=DIRECTION('ref_axis',(1.,0.,0.));
#980=DIRECTION('center_axis',(0.,0.,1.));
#981=DIRECTION('ref_axis',(1.,0.,0.));
#982=DIRECTION('center_axis',(0.,0.,-1.));
#983=DIRECTION('ref_axis',(1.,0.,0.));
#984=DIRECTION('center_axis',(0.,0.,-1.));
#985=DIRECTION('ref_axis',(1.,0.,0.));
#986=DIRECTION('center_axis',(0.,0.,-1.));
#987=DIRECTION('ref_axis',(1.,0.,0.));
#988=DIRECTION('center_axis',(0.,0.,-1.));
#989=DIRECTION('ref_axis',(1.,0.,0.));
#990=DIRECTION('center_axis',(0.,0.,1.));
#991=DIRECTION('ref_axis',(1.,0.,0.));
#992=DIRECTION('center_axis',(0.,0.,-1.));
#993=DIRECTION('ref_axis',(1.,0.,0.));
#994=DIRECTION('',(0.707106781186546,8.65956056235492E-17,-0.707106781186549));
#995=DIRECTION('center_axis',(0.,0.,1.));
#996=DIRECTION('ref_axis',(1.,0.,0.));
#997=DIRECTION('center_axis',(0.,0.,1.));
#998=DIRECTION('ref_axis',(1.,0.,0.));
#999=DIRECTION('center_axis',(0.,0.,1.));
#1000=DIRECTION('ref_axis',(1.,0.,0.));
#1001=DIRECTION('',(0.,0.,-1.));
#1002=DIRECTION('center_axis',(0.,0.,-1.));
#1003=DIRECTION('ref_axis',(-1.,0.,0.));
#1004=DIRECTION('center_axis',(0.,0.,-1.));
#1005=DIRECTION('ref_axis',(1.,0.,0.));
#1006=DIRECTION('center_axis',(0.,0.,1.));
#1007=DIRECTION('ref_axis',(1.,0.,0.));
#1008=DIRECTION('center_axis',(0.,0.,1.));
#1009=DIRECTION('ref_axis',(1.,0.,0.));
#1010=DIRECTION('center_axis',(0.,0.,-1.));
#1011=DIRECTION('ref_axis',(1.,0.,0.));
#1012=DIRECTION('center_axis',(0.,0.,1.));
#1013=DIRECTION('ref_axis',(1.,0.,0.));
#1014=DIRECTION('center_axis',(0.,0.,-1.));
#1015=DIRECTION('ref_axis',(1.,0.,0.));
#1016=DIRECTION('center_axis',(0.,0.,1.));
#1017=DIRECTION('ref_axis',(1.,0.,0.));
#1018=DIRECTION('center_axis',(0.,0.,-1.));
#1019=DIRECTION('ref_axis',(1.,0.,0.));
#1020=DIRECTION('center_axis',(0.,0.,1.));
#1021=DIRECTION('ref_axis',(1.,0.,0.));
#1022=DIRECTION('center_axis',(0.,0.,1.));
#1023=DIRECTION('ref_axis',(1.,0.,0.));
#1024=DIRECTION('center_axis',(0.,0.,1.));
#1025=DIRECTION('ref_axis',(1.,0.,0.));
#1026=DIRECTION('center_axis',(0.,0.,1.));
#1027=DIRECTION('ref_axis',(1.,0.,0.));
#1028=DIRECTION('center_axis',(0.,0.,1.));
#1029=DIRECTION('ref_axis',(1.,0.,0.));
#1030=DIRECTION('center_axis',(0.,0.,-1.));
#1031=DIRECTION('ref_axis',(1.,0.,0.));
#1032=DIRECTION('center_axis',(0.,0.,-1.));
#1033=DIRECTION('ref_axis',(1.,0.,0.));
#1034=DIRECTION('center_axis',(0.,0.,-1.));
#1035=DIRECTION('ref_axis',(1.,0.,0.));
#1036=DIRECTION('center_axis',(0.,0.,-1.));
#1037=DIRECTION('ref_axis',(1.,0.,0.));
#1038=DIRECTION('center_axis',(0.,0.,-1.));
#1039=DIRECTION('ref_axis',(1.,0.,0.));
#1040=DIRECTION('center_axis',(0.,0.,-1.));
#1041=DIRECTION('ref_axis',(1.,0.,0.));
#1042=DIRECTION('center_axis',(0.,0.,-1.));
#1043=DIRECTION('ref_axis',(1.,0.,0.));
#1044=DIRECTION('center_axis',(0.,0.,-1.));
#1045=DIRECTION('ref_axis',(1.,0.,0.));
#1046=DIRECTION('center_axis',(0.,0.,1.));
#1047=DIRECTION('ref_axis',(1.,0.,0.));
#1048=DIRECTION('',(0.,0.,1.));
#1049=DIRECTION('center_axis',(0.,0.,1.));
#1050=DIRECTION('ref_axis',(1.,0.,0.));
#1051=DIRECTION('center_axis',(0.,0.,1.));
#1052=DIRECTION('ref_axis',(1.,0.,0.));
#1053=DIRECTION('center_axis',(0.,0.,-1.));
#1054=DIRECTION('ref_axis',(1.,0.,0.));
#1055=DIRECTION('center_axis',(0.,0.,1.));
#1056=DIRECTION('ref_axis',(1.,0.,0.));
#1057=DIRECTION('',(0.,0.,1.));
#1058=DIRECTION('center_axis',(0.,0.,1.));
#1059=DIRECTION('ref_axis',(1.,0.,0.));
#1060=DIRECTION('center_axis',(0.,0.,1.));
#1061=DIRECTION('ref_axis',(1.,0.,0.));
#1062=DIRECTION('center_axis',(0.,0.,-1.));
#1063=DIRECTION('ref_axis',(1.,0.,0.));
#1064=DIRECTION('center_axis',(0.,0.,1.));
#1065=DIRECTION('ref_axis',(1.,0.,0.));
#1066=DIRECTION('',(0.,0.,1.));
#1067=DIRECTION('center_axis',(0.,0.,1.));
#1068=DIRECTION('ref_axis',(1.,0.,0.));
#1069=DIRECTION('center_axis',(0.,0.,1.));
#1070=DIRECTION('ref_axis',(1.,0.,0.));
#1071=DIRECTION('center_axis',(0.,0.,-1.));
#1072=DIRECTION('ref_axis',(1.,0.,0.));
#1073=DIRECTION('center_axis',(0.,0.,1.));
#1074=DIRECTION('ref_axis',(1.,0.,0.));
#1075=DIRECTION('',(0.,0.,1.));
#1076=DIRECTION('center_axis',(0.,0.,1.));
#1077=DIRECTION('ref_axis',(1.,0.,0.));
#1078=DIRECTION('center_axis',(0.,0.,1.));
#1079=DIRECTION('ref_axis',(1.,0.,0.));
#1080=DIRECTION('center_axis',(0.,0.,-1.));
#1081=DIRECTION('ref_axis',(1.,0.,0.));
#1082=DIRECTION('center_axis',(0.,0.,1.));
#1083=DIRECTION('ref_axis',(1.,0.,0.));
#1084=DIRECTION('',(0.,0.,-1.));
#1085=DIRECTION('',(0.,0.,1.));
#1086=DIRECTION('center_axis',(0.,0.,1.));
#1087=DIRECTION('ref_axis',(1.,0.,0.));
#1088=DIRECTION('',(0.,0.,-1.));
#1089=DIRECTION('',(0.,0.,1.));
#1090=DIRECTION('center_axis',(0.,0.,1.));
#1091=DIRECTION('ref_axis',(1.,0.,0.));
#1092=DIRECTION('',(0.,0.,-1.));
#1093=DIRECTION('',(0.,0.,1.));
#1094=DIRECTION('center_axis',(0.,0.,1.));
#1095=DIRECTION('ref_axis',(1.,0.,0.));
#1096=DIRECTION('',(0.,0.,1.));
#1097=DIRECTION('',(0.,0.,-1.));
#1098=DIRECTION('center_axis',(0.,0.,1.));
#1099=DIRECTION('ref_axis',(1.,0.,0.));
#1100=DIRECTION('',(0.,0.,1.));
#1101=DIRECTION('center_axis',(0.,0.,1.));
#1102=DIRECTION('ref_axis',(1.,0.,0.));
#1103=DIRECTION('',(0.,0.,1.));
#1104=DIRECTION('center_axis',(0.,0.,1.));
#1105=DIRECTION('ref_axis',(1.,0.,0.));
#1106=DIRECTION('',(0.,0.,1.));
#1107=DIRECTION('center_axis',(0.,0.,1.));
#1108=DIRECTION('ref_axis',(1.,0.,0.));
#1109=DIRECTION('',(0.,0.,1.));
#1110=DIRECTION('center_axis',(0.,0.,1.));
#1111=DIRECTION('ref_axis',(-0.707106781186548,0.707106781186548,0.));
#1112=DIRECTION('center_axis',(0.,0.,1.));
#1113=DIRECTION('ref_axis',(1.,0.,0.));
#1114=DIRECTION('center_axis',(0.,0.,1.));
#1115=DIRECTION('ref_axis',(1.,0.,0.));
#1116=DIRECTION('center_axis',(0.,0.,1.));
#1117=DIRECTION('ref_axis',(-0.707106781186548,-0.707106781186548,0.));
#1118=CARTESIAN_POINT('',(0.,0.,0.));
#1119=CARTESIAN_POINT('Origin',(0.,0.,12.));
#1120=CARTESIAN_POINT('',(-5.5,39.6200706713151,12.));
#1121=CARTESIAN_POINT('Ctrl Pts',(-5.5,39.6200706713151,12.));
#1122=CARTESIAN_POINT('Ctrl Pts',(-5.5,39.6200706713151,12.6915381220237));
#1123=CARTESIAN_POINT('Ctrl Pts',(-5.36161632396102,39.6400454411943,13.428563900694));
#1124=CARTESIAN_POINT('Ctrl Pts',(-4.80005070698145,39.7119584601077,14.7833861408256));
#1125=CARTESIAN_POINT('Ctrl Pts',(-4.37691609821329,39.7628325638863,15.4012584948387));
#1126=CARTESIAN_POINT('Ctrl Pts',(-3.40126448010228,39.858143986839,16.3769101129497));
#1127=CARTESIAN_POINT('Ctrl Pts',(-2.78338953387742,39.9088074248266,16.800049414847));
#1128=CARTESIAN_POINT('Ctrl Pts',(-1.42855847657674,39.9802374684329,17.3616184579596));
#1129=CARTESIAN_POINT('Ctrl Pts',(-0.69152963741205,40.,17.5));
#1130=CARTESIAN_POINT('Ctrl Pts',(0.691529637412048,40.,17.5));
#1131=CARTESIAN_POINT('Ctrl Pts',(1.42855847657674,39.9802374684329,17.3616184579596));
#1132=CARTESIAN_POINT('Ctrl Pts',(2.78338953387742,39.9088074248266,16.800049414847));
#1133=CARTESIAN_POINT('Ctrl Pts',(3.40126448010228,39.858143986839,16.3769101129497));
#1134=CARTESIAN_POINT('Ctrl Pts',(4.37691609821329,39.7628325638863,15.4012584948387));
#1135=CARTESIAN_POINT('Ctrl Pts',(4.80005070698145,39.7119584601077,14.7833861408256));
#1136=CARTESIAN_POINT('Ctrl Pts',(5.36161632396102,39.6400454411943,13.428563900694));
#1137=CARTESIAN_POINT('Ctrl Pts',(5.5,39.6200706713151,12.6915381220237));
#1138=CARTESIAN_POINT('Ctrl Pts',(5.5,39.6200706713151,11.3084618779763));
#1139=CARTESIAN_POINT('Ctrl Pts',(5.36161632396102,39.6400454411943,10.571436099306));
#1140=CARTESIAN_POINT('Ctrl Pts',(4.80005070698145,39.7119584601077,9.2166138591744));
#1141=CARTESIAN_POINT('Ctrl Pts',(4.37691609821329,39.7628325638863,8.59874150516127));
#1142=CARTESIAN_POINT('Ctrl Pts',(3.40126448010229,39.858143986839,7.62308988705026));
#1143=CARTESIAN_POINT('Ctrl Pts',(2.78338953387742,39.9088074248266,7.19995058515298));
#1144=CARTESIAN_POINT('Ctrl Pts',(1.42855847657674,39.9802374684329,6.63838154204036));
#1145=CARTESIAN_POINT('Ctrl Pts',(0.691529637412051,40.,6.5));
#1146=CARTESIAN_POINT('Ctrl Pts',(-0.691529637412047,40.,6.5));
#1147=CARTESIAN_POINT('Ctrl Pts',(-1.42855847657674,39.9802374684329,6.63838154204035));
#1148=CARTESIAN_POINT('Ctrl Pts',(-2.78338953387742,39.9088074248266,7.19995058515297));
#1149=CARTESIAN_POINT('Ctrl Pts',(-3.40126448010228,39.858143986839,7.62308988705026));
#1150=CARTESIAN_POINT('Ctrl Pts',(-4.37691609821329,39.7628325638863,8.59874150516126));
#1151=CARTESIAN_POINT('Ctrl Pts',(-4.80005070698145,39.7119584601077,9.2166138591744));
#1152=CARTESIAN_POINT('Ctrl Pts',(-5.36161632396102,39.6400454411943,10.571436099306));
#1153=CARTESIAN_POINT('Ctrl Pts',(-5.5,39.6200706713151,11.3084618779763));
#1154=CARTESIAN_POINT('Ctrl Pts',(-5.5,39.6200706713151,12.));
#1155=CARTESIAN_POINT('',(-5.5,42.6468052730799,12.));
#1156=CARTESIAN_POINT('',(-5.5,0.,12.));
#1157=CARTESIAN_POINT('Ctrl Pts',(-5.5,42.6468052730799,12.));
#1158=CARTESIAN_POINT('Ctrl Pts',(-5.5,42.6468052730799,11.3085907653432));
#1159=CARTESIAN_POINT('Ctrl Pts',(-5.36166643983777,42.6653545424895,10.5716191050808));
#1160=CARTESIAN_POINT('Ctrl Pts',(-4.80013716849897,42.7321732169579,9.21676037241308));
#1161=CARTESIAN_POINT('Ctrl Pts',(-4.37698250327059,42.7794580279258,8.59880791021857));
#1162=CARTESIAN_POINT('Ctrl Pts',(-3.40119656138928,42.8680750973085,7.62302196833726));
#1163=CARTESIAN_POINT('Ctrl Pts',(-2.78324215693521,42.9151905665736,7.19986379898134));
#1164=CARTESIAN_POINT('Ctrl Pts',(-1.42837684059777,42.9816211636624,6.63833196064779));
#1165=CARTESIAN_POINT('Ctrl Pts',(-0.691402897822691,43.,6.5));
#1166=CARTESIAN_POINT('Ctrl Pts',(0.691402897822692,43.,6.5));
#1167=CARTESIAN_POINT('Ctrl Pts',(1.42837684059777,42.9816211636624,6.63833196064779));
#1168=CARTESIAN_POINT('Ctrl Pts',(2.78324215693521,42.9151905665736,7.19986379898135));
#1169=CARTESIAN_POINT('Ctrl Pts',(3.40119656138929,42.8680750973085,7.62302196833726));
#1170=CARTESIAN_POINT('Ctrl Pts',(4.37698250327059,42.7794580279258,8.59880791021857));
#1171=CARTESIAN_POINT('Ctrl Pts',(4.80013716849897,42.7321732169579,9.21676037241308));
#1172=CARTESIAN_POINT('Ctrl Pts',(5.36166643983777,42.6653545424895,10.5716191050808));
#1173=CARTESIAN_POINT('Ctrl Pts',(5.5,42.6468052730799,11.3085907653432));
#1174=CARTESIAN_POINT('Ctrl Pts',(5.5,42.6468052730799,12.6914092346568));
#1175=CARTESIAN_POINT('Ctrl Pts',(5.36166643983777,42.6653545424895,13.4283808949192));
#1176=CARTESIAN_POINT('Ctrl Pts',(4.80013716849897,42.7321732169579,14.7832396275869));
#1177=CARTESIAN_POINT('Ctrl Pts',(4.37698250327059,42.7794580279258,15.4011920897814));
#1178=CARTESIAN_POINT('Ctrl Pts',(3.40119656138929,42.8680750973085,16.3769780316627));
#1179=CARTESIAN_POINT('Ctrl Pts',(2.78324215693521,42.9151905665736,16.8001362010187));
#1180=CARTESIAN_POINT('Ctrl Pts',(1.42837684059777,42.9816211636624,17.3616680393522));
#1181=CARTESIAN_POINT('Ctrl Pts',(0.691402897822692,43.,17.5));
#1182=CARTESIAN_POINT('Ctrl Pts',(-0.691402897822692,43.,17.5));
#1183=CARTESIAN_POINT('Ctrl Pts',(-1.42837684059777,42.9816211636624,17.3616680393522));
#1184=CARTESIAN_POINT('Ctrl Pts',(-2.78324215693521,42.9151905665736,16.8001362010187));
#1185=CARTESIAN_POINT('Ctrl Pts',(-3.40119656138929,42.8680750973085,16.3769780316627));
#1186=CARTESIAN_POINT('Ctrl Pts',(-4.37698250327059,42.7794580279258,15.4011920897814));
#1187=CARTESIAN_POINT('Ctrl Pts',(-4.80013716849898,42.7321732169579,14.7832396275869));
#1188=CARTESIAN_POINT('Ctrl Pts',(-5.36166643983778,42.6653545424895,13.4283808949192));
#1189=CARTESIAN_POINT('Ctrl Pts',(-5.5,42.6468052730799,12.6914092346568));
#1190=CARTESIAN_POINT('Ctrl Pts',(-5.5,42.6468052730799,12.));
#1191=CARTESIAN_POINT('Origin',(26.5,-26.5,40.));
#1192=CARTESIAN_POINT('',(25.25,-26.5,40.));
#1193=CARTESIAN_POINT('Origin',(26.5,-26.5,40.));
#1194=CARTESIAN_POINT('',(25.25,-26.5,50.));
#1195=CARTESIAN_POINT('',(25.25,-26.5,40.));
#1196=CARTESIAN_POINT('Origin',(26.5,-26.5,50.));
#1197=CARTESIAN_POINT('Origin',(26.5,-26.5,40.));
#1198=CARTESIAN_POINT('Origin',(-26.5,26.5,40.));
#1199=CARTESIAN_POINT('',(-27.75,26.5,40.));
#1200=CARTESIAN_POINT('Origin',(-26.5,26.5,40.));
#1201=CARTESIAN_POINT('',(-27.75,26.5,50.));
#1202=CARTESIAN_POINT('',(-27.75,26.5,40.));
#1203=CARTESIAN_POINT('Origin',(-26.5,26.5,50.));
#1204=CARTESIAN_POINT('Origin',(-26.5,26.5,40.));
#1205=CARTESIAN_POINT('Origin',(26.5,26.5,40.));
#1206=CARTESIAN_POINT('',(25.25,26.5,40.));
#1207=CARTESIAN_POINT('Origin',(26.5,26.5,40.));
#1208=CARTESIAN_POINT('',(25.25,26.5,50.));
#1209=CARTESIAN_POINT('',(25.25,26.5,40.));
#1210=CARTESIAN_POINT('Origin',(26.5,26.5,50.));
#1211=CARTESIAN_POINT('Origin',(26.5,26.5,40.));
#1212=CARTESIAN_POINT('Origin',(-26.5,-26.5,40.));
#1213=CARTESIAN_POINT('',(-27.75,-26.5,40.));
#1214=CARTESIAN_POINT('Origin',(-26.5,-26.5,40.));
#1215=CARTESIAN_POINT('',(-27.75,-26.5,50.));
#1216=CARTESIAN_POINT('',(-27.75,-26.5,40.));
#1217=CARTESIAN_POINT('Origin',(-26.5,-26.5,50.));
#1218=CARTESIAN_POINT('Origin',(-26.5,-26.5,40.));
#1219=CARTESIAN_POINT('Origin',(-26.5,-26.5,6.));
#1220=CARTESIAN_POINT('',(-25.4345534852061,-30.8720502883788,6.));
#1221=CARTESIAN_POINT('',(-25.434553485206,-30.8720502883789,50.));
#1222=CARTESIAN_POINT('',(-25.4345534852061,-30.8720502883788,6.));
#1223=CARTESIAN_POINT('',(-30.8720502883788,-25.4345534852061,6.));
#1224=CARTESIAN_POINT('Origin',(-26.5,-26.5,6.));
#1225=CARTESIAN_POINT('',(-30.8720502883789,-25.434553485206,50.));
#1226=CARTESIAN_POINT('',(-30.8720502883788,-25.4345534852061,6.));
#1227=CARTESIAN_POINT('Origin',(-26.5,-26.5,50.));
#1228=CARTESIAN_POINT('Origin',(0.,0.,6.));
#1229=CARTESIAN_POINT('',(-30.8720502883788,25.4345534852061,6.));
#1230=CARTESIAN_POINT('Origin',(0.,0.,6.));
#1231=CARTESIAN_POINT('',(-30.8720502883789,25.434553485206,50.));
#1232=CARTESIAN_POINT('',(-30.8720502883788,25.4345534852061,6.));
#1233=CARTESIAN_POINT('Origin',(0.,0.,50.));
#1234=CARTESIAN_POINT('Origin',(0.,0.,6.));
#1235=CARTESIAN_POINT('',(25.4345534852061,-30.8720502883788,50.));
#1236=CARTESIAN_POINT('Origin',(0.,0.,50.));
#1237=CARTESIAN_POINT('',(25.4345534852061,-30.8720502883788,6.));
#1238=CARTESIAN_POINT('',(25.4345534852061,-30.8720502883788,6.));
#1239=CARTESIAN_POINT('Origin',(0.,0.,6.));
#1240=CARTESIAN_POINT('Origin',(37.,0.,50.));
#1241=CARTESIAN_POINT('',(-43.,-5.26598123633362E-15,50.));
#1242=CARTESIAN_POINT('Origin',(0.,0.,50.));
#1243=CARTESIAN_POINT('',(-25.434553485206,30.8720502883789,50.));
#1244=CARTESIAN_POINT('Origin',(-26.5,26.5,50.));
#1245=CARTESIAN_POINT('',(25.4345534852061,30.8720502883788,50.));
#1246=CARTESIAN_POINT('Origin',(0.,0.,50.));
#1247=CARTESIAN_POINT('',(30.8720502883788,25.4345534852061,50.));
#1248=CARTESIAN_POINT('Origin',(26.5,26.5,50.));
#1249=CARTESIAN_POINT('',(30.8720502883788,-25.4345534852061,50.));
#1250=CARTESIAN_POINT('Origin',(0.,0.,50.));
#1251=CARTESIAN_POINT('Origin',(26.5,-26.5,50.));
#1252=CARTESIAN_POINT('Origin',(26.5,26.5,6.));
#1253=CARTESIAN_POINT('',(25.4345534852061,30.8720502883788,6.));
#1254=CARTESIAN_POINT('',(25.4345534852061,30.8720502883788,6.));
#1255=CARTESIAN_POINT('',(30.8720502883788,25.4345534852061,6.));
#1256=CARTESIAN_POINT('Origin',(26.5,26.5,6.));
#1257=CARTESIAN_POINT('',(30.8720502883788,25.4345534852061,6.));
#1258=CARTESIAN_POINT('Origin',(0.,0.,6.));
#1259=CARTESIAN_POINT('',(30.8720502883788,-25.4345534852061,6.));
#1260=CARTESIAN_POINT('Origin',(0.,0.,6.));
#1261=CARTESIAN_POINT('',(30.8720502883788,-25.4345534852061,6.));
#1262=CARTESIAN_POINT('Origin',(0.,0.,6.));
#1263=CARTESIAN_POINT('',(-25.4345534852061,30.8720502883788,6.));
#1264=CARTESIAN_POINT('',(-25.4345534852061,30.8720502883788,6.));
#1265=CARTESIAN_POINT('Origin',(0.,0.,6.));
#1266=CARTESIAN_POINT('Origin',(-26.5,26.5,6.));
#1267=CARTESIAN_POINT('Origin',(-26.5,26.5,6.));
#1268=CARTESIAN_POINT('Origin',(26.5,-26.5,6.));
#1269=CARTESIAN_POINT('Origin',(26.5,-26.5,6.));
#1270=CARTESIAN_POINT('Origin',(0.,0.,6.));
#1271=CARTESIAN_POINT('',(-43.,-5.26598123633362E-15,6.));
#1272=CARTESIAN_POINT('',(-43.,-5.26598123633362E-15,6.));
#1273=CARTESIAN_POINT('Origin',(0.,0.,6.));
#1274=CARTESIAN_POINT('Origin',(0.,0.,6.));
#1275=CARTESIAN_POINT('',(-3.25,-3.9801020972289E-16,6.));
#1276=CARTESIAN_POINT('Origin',(0.,0.,6.));
#1277=CARTESIAN_POINT('',(-3.25,-3.9801020972289E-16,0.));
#1278=CARTESIAN_POINT('',(-3.25,3.9801020972289E-16,6.));
#1279=CARTESIAN_POINT('Origin',(0.,0.,0.));
#1280=CARTESIAN_POINT('Origin',(0.,0.,6.));
#1281=CARTESIAN_POINT('',(31.2,8.75,6.));
#1282=CARTESIAN_POINT('Origin',(33.,8.75,6.));
#1283=CARTESIAN_POINT('',(6.2,-8.75,6.));
#1284=CARTESIAN_POINT('Origin',(8.,-8.75,6.));
#1285=CARTESIAN_POINT('',(6.2,8.75,6.));
#1286=CARTESIAN_POINT('Origin',(8.,8.75,6.));
#1287=CARTESIAN_POINT('',(31.2,-8.75,6.));
#1288=CARTESIAN_POINT('Origin',(33.,-8.75,6.));
#1289=CARTESIAN_POINT('Origin',(0.,0.,0.25));
#1290=CARTESIAN_POINT('',(-50.,6.12323399573677E-15,0.5));
#1291=CARTESIAN_POINT('Origin',(0.,0.,0.5));
#1292=CARTESIAN_POINT('',(-49.5,-6.0620016557794E-15,0.));
#1293=CARTESIAN_POINT('',(-49.75,-6.09261782575808E-15,0.25));
#1294=CARTESIAN_POINT('Origin',(0.,0.,0.));
#1295=CARTESIAN_POINT('Origin',(0.,0.,0.));
#1296=CARTESIAN_POINT('',(-50.,-6.12323399573677E-15,6.));
#1297=CARTESIAN_POINT('Origin',(0.,0.,6.));
#1298=CARTESIAN_POINT('',(-50.,-6.12323399573677E-15,0.));
#1299=CARTESIAN_POINT('Origin',(45.,0.,0.));
#1300=CARTESIAN_POINT('',(30.3526412314511,33.2222390918314,0.));
#1301=CARTESIAN_POINT('',(33.2222390918314,30.3526412314511,0.));
#1302=CARTESIAN_POINT('Origin',(0.,0.,0.));
#1303=CARTESIAN_POINT('Origin',(32.17,32.17,0.));
#1304=CARTESIAN_POINT('',(-33.2222390918315,30.3526412314511,0.));
#1305=CARTESIAN_POINT('',(-30.3526412314511,33.2222390918315,0.));
#1306=CARTESIAN_POINT('Origin',(-32.17,32.17,0.));
#1307=CARTESIAN_POINT('Origin',(0.,0.,0.));
#1308=CARTESIAN_POINT('',(-30.3526412314511,-33.2222390918315,0.));
#1309=CARTESIAN_POINT('',(-33.2222390918315,-30.3526412314511,0.));
#1310=CARTESIAN_POINT('Origin',(-32.17,-32.17,0.));
#1311=CARTESIAN_POINT('Origin',(0.,0.,0.));
#1312=CARTESIAN_POINT('',(33.2222390918314,-30.3526412314511,0.));
#1313=CARTESIAN_POINT('',(30.3526412314511,-33.2222390918314,0.));
#1314=CARTESIAN_POINT('Origin',(32.17,-32.17,0.));
#1315=CARTESIAN_POINT('Origin',(0.,0.,0.));
#1316=CARTESIAN_POINT('',(29.75,-8.75,0.));
#1317=CARTESIAN_POINT('Origin',(33.,-8.75,0.));
#1318=CARTESIAN_POINT('',(29.75,8.75,0.));
#1319=CARTESIAN_POINT('Origin',(33.,8.75,0.));
#1320=CARTESIAN_POINT('',(4.75,8.75,0.));
#1321=CARTESIAN_POINT('Origin',(8.,8.75,0.));
#1322=CARTESIAN_POINT('',(4.75,-8.75,0.));
#1323=CARTESIAN_POINT('Origin',(8.,-8.75,0.));
#1324=CARTESIAN_POINT('Origin',(40.,0.,6.));
#1325=CARTESIAN_POINT('',(-33.2222390918314,30.3526412314511,6.));
#1326=CARTESIAN_POINT('',(-30.3526412314511,33.2222390918314,6.));
#1327=CARTESIAN_POINT('Origin',(0.,0.,6.));
#1328=CARTESIAN_POINT('Origin',(-32.17,32.17,6.));
#1329=CARTESIAN_POINT('',(-30.3526412314511,-33.2222390918315,6.));
#1330=CARTESIAN_POINT('',(-33.2222390918315,-30.3526412314511,6.));
#1331=CARTESIAN_POINT('Origin',(0.,0.,6.));
#1332=CARTESIAN_POINT('Origin',(-32.17,-32.17,6.));
#1333=CARTESIAN_POINT('',(33.2222390918314,-30.3526412314511,6.));
#1334=CARTESIAN_POINT('',(30.3526412314511,-33.2222390918314,6.));
#1335=CARTESIAN_POINT('Origin',(0.,0.,6.));
#1336=CARTESIAN_POINT('Origin',(32.17,-32.17,6.));
#1337=CARTESIAN_POINT('',(33.2222390918315,30.3526412314511,6.));
#1338=CARTESIAN_POINT('',(30.3526412314511,33.2222390918315,6.));
#1339=CARTESIAN_POINT('Origin',(32.17,32.17,6.));
#1340=CARTESIAN_POINT('Origin',(0.,0.,6.));
#1341=CARTESIAN_POINT('Origin',(8.,-8.75,0.));
#1342=CARTESIAN_POINT('',(4.75,-8.75,3.));
#1343=CARTESIAN_POINT('',(4.75,-8.75,0.));
#1344=CARTESIAN_POINT('Origin',(8.,-8.75,3.));
#1345=CARTESIAN_POINT('Origin',(8.,-8.75,3.));
#1346=CARTESIAN_POINT('',(6.2,-8.75,3.));
#1347=CARTESIAN_POINT('Origin',(8.,-8.75,3.));
#1348=CARTESIAN_POINT('Origin',(8.,8.75,0.));
#1349=CARTESIAN_POINT('',(4.75,8.75,3.));
#1350=CARTESIAN_POINT('',(4.75,8.75,0.));
#1351=CARTESIAN_POINT('Origin',(8.,8.75,3.));
#1352=CARTESIAN_POINT('Origin',(8.,8.75,3.));
#1353=CARTESIAN_POINT('',(6.2,8.75,3.));
#1354=CARTESIAN_POINT('Origin',(8.,8.75,3.));
#1355=CARTESIAN_POINT('Origin',(33.,8.75,0.));
#1356=CARTESIAN_POINT('',(29.75,8.75,3.));
#1357=CARTESIAN_POINT('',(29.75,8.75,0.));
#1358=CARTESIAN_POINT('Origin',(33.,8.75,3.));
#1359=CARTESIAN_POINT('Origin',(33.,8.75,3.));
#1360=CARTESIAN_POINT('',(31.2,8.75,3.));
#1361=CARTESIAN_POINT('Origin',(33.,8.75,3.));
#1362=CARTESIAN_POINT('Origin',(33.,-8.75,0.));
#1363=CARTESIAN_POINT('',(29.75,-8.75,3.));
#1364=CARTESIAN_POINT('',(29.75,-8.75,0.));
#1365=CARTESIAN_POINT('Origin',(33.,-8.75,3.));
#1366=CARTESIAN_POINT('Origin',(33.,-8.75,3.));
#1367=CARTESIAN_POINT('',(31.2,-8.75,3.));
#1368=CARTESIAN_POINT('Origin',(33.,-8.75,3.));
#1369=CARTESIAN_POINT('Origin',(0.,0.,0.));
#1370=CARTESIAN_POINT('',(-33.2222390918315,30.3526412314511,0.));
#1371=CARTESIAN_POINT('',(-30.3526412314511,33.2222390918315,0.));
#1372=CARTESIAN_POINT('Origin',(0.,0.,0.));
#1373=CARTESIAN_POINT('',(-30.3526412314511,-33.2222390918315,0.));
#1374=CARTESIAN_POINT('',(-33.2222390918315,-30.3526412314511,0.));
#1375=CARTESIAN_POINT('Origin',(0.,0.,0.));
#1376=CARTESIAN_POINT('',(33.2222390918315,-30.3526412314511,0.));
#1377=CARTESIAN_POINT('',(30.3526412314511,-33.2222390918315,0.));
#1378=CARTESIAN_POINT('Origin',(0.,0.,0.));
#1379=CARTESIAN_POINT('',(33.2222390918315,30.3526412314511,0.));
#1380=CARTESIAN_POINT('',(30.3526412314511,33.2222390918315,0.));
#1381=CARTESIAN_POINT('Origin',(33.,-8.75,0.));
#1382=CARTESIAN_POINT('',(31.2,-8.75,0.));
#1383=CARTESIAN_POINT('Origin',(8.,8.75,0.));
#1384=CARTESIAN_POINT('',(6.2,8.75,0.));
#1385=CARTESIAN_POINT('Origin',(8.,-8.75,0.));
#1386=CARTESIAN_POINT('',(6.2,-8.75,0.));
#1387=CARTESIAN_POINT('Origin',(33.,8.75,0.));
#1388=CARTESIAN_POINT('',(31.2,8.75,0.));
#1389=CARTESIAN_POINT('Origin',(32.17,-32.17,0.));
#1390=CARTESIAN_POINT('Origin',(-32.17,32.17,0.));
#1391=CARTESIAN_POINT('Origin',(-32.17,-32.17,0.));
#1392=CARTESIAN_POINT('Origin',(32.17,32.17,0.));
#1393=UNCERTAINTY_MEASURE_WITH_UNIT(LENGTH_MEASURE(0.01),#1397,
'DISTANCE_ACCURACY_VALUE',
'Maximum model space distance between geometric entities at asserted c
onnectivities');
#1394=UNCERTAINTY_MEASURE_WITH_UNIT(LENGTH_MEASURE(0.01),#1397,
'DISTANCE_ACCURACY_VALUE',
'Maximum model space distance between geometric entities at asserted c
onnectivities');
#1395=(
GEOMETRIC_REPRESENTATION_CONTEXT(3)
GLOBAL_UNCERTAINTY_ASSIGNED_CONTEXT((#1393))
GLOBAL_UNIT_ASSIGNED_CONTEXT((#1397,#1399,#1400))
REPRESENTATION_CONTEXT('','3D')
);
#1396=(
GEOMETRIC_REPRESENTATION_CONTEXT(3)
GLOBAL_UNCERTAINTY_ASSIGNED_CONTEXT((#1394))
GLOBAL_UNIT_ASSIGNED_CONTEXT((#1397,#1399,#1400))
REPRESENTATION_CONTEXT('','3D')
);
#1397=(
LENGTH_UNIT()
NAMED_UNIT(*)
SI_UNIT(.MILLI.,.METRE.)
);
#1398=(
LENGTH_UNIT()
NAMED_UNIT(*)
SI_UNIT($,.METRE.)
);
#1399=(
NAMED_UNIT(*)
PLANE_ANGLE_UNIT()
SI_UNIT($,.RADIAN.)
);
#1400=(
NAMED_UNIT(*)
SI_UNIT($,.STERADIAN.)
SOLID_ANGLE_UNIT()
);
#1401=SHAPE_DEFINITION_REPRESENTATION(#1402,#1403);
#1402=PRODUCT_DEFINITION_SHAPE('',$,#1405);
#1403=SHAPE_REPRESENTATION('',(#758),#1395);
#1404=PRODUCT_DEFINITION_CONTEXT('part definition',#1409,'design');
#1405=PRODUCT_DEFINITION('2026-07-09-14-32-54-777','Base_J1',#1406,#1404);
#1406=PRODUCT_DEFINITION_FORMATION('',$,#1411);
#1407=PRODUCT_RELATED_PRODUCT_CATEGORY('Base_J1','Base_J1',(#1411));
#1408=APPLICATION_PROTOCOL_DEFINITION('international standard',
'automotive_design',2009,#1409);
#1409=APPLICATION_CONTEXT(
'Core Data for Automotive Mechanical Design Process');
#1410=PRODUCT_CONTEXT('part definition',#1409,'mechanical');
#1411=PRODUCT('2026-07-09-14-32-54-777','Base_J1',$,(#1410));
#1412=PRESENTATION_STYLE_ASSIGNMENT((#1413));
#1413=SURFACE_STYLE_USAGE(.BOTH.,#1414);
#1414=SURFACE_SIDE_STYLE('',(#1415));
#1415=SURFACE_STYLE_FILL_AREA(#1416);
#1416=FILL_AREA_STYLE('\X2\92FC\X0\ - \X2\30B530C630F3\X0\',(#1417));
#1417=FILL_AREA_STYLE_COLOUR('\X2\92FC\X0\ - \X2\30B530C630F3\X0\',#1418);
#1418=COLOUR_RGB('\X2\92FC\X0\ - \X2\30B530C630F3\X0\',0.627450980392157,
0.627450980392157,0.627450980392157);
ENDSEC;
END-ISO-10303-21;
