ISO-10303-21;
HEADER;
/* Generated by software containing ST-Developer
 * from STEP Tools, Inc. (www.steptools.com) 
 */

FILE_DESCRIPTION(
/* description */ (''),
/* implementation_level */ '2;1');

FILE_NAME(
/* name */ 'CameraMount.step',
/* time_stamp */ '2026-09-02T14:52:59+09:00',
/* author */ (''),
/* organization */ (''),
/* preprocessor_version */ 'ST-DEVELOPER v20.1',
/* originating_system */ 'Autodesk Translation Framework v15.8.0.0',
/* authorisation */ '');

FILE_SCHEMA (('AUTOMOTIVE_DESIGN { 1 0 10303 214 3 1 1 }'));
ENDSEC;

DATA;
#10=MECHANICAL_DESIGN_GEOMETRIC_PRESENTATION_REPRESENTATION('',(#13),#1433);
#11=SHAPE_REPRESENTATION_RELATIONSHIP('SRR','None',#1440,#12);
#12=ADVANCED_BREP_SHAPE_REPRESENTATION('',(#14),#1432);
#13=STYLED_ITEM('',(#1449),#14);
#14=MANIFOLD_SOLID_BREP('\X2\30DC30C730A3\X0\1',#869);
#15=FACE_BOUND('',#137,.T.);
#16=FACE_BOUND('',#138,.T.);
#17=FACE_BOUND('',#150,.T.);
#18=FACE_BOUND('',#151,.T.);
#19=FACE_BOUND('',#152,.T.);
#20=FACE_BOUND('',#153,.T.);
#21=FACE_BOUND('',#154,.T.);
#22=FACE_BOUND('',#156,.T.);
#23=FACE_BOUND('',#157,.T.);
#24=FACE_BOUND('',#160,.T.);
#25=FACE_BOUND('',#161,.T.);
#26=FACE_BOUND('',#169,.T.);
#27=FACE_BOUND('',#170,.T.);
#28=FACE_BOUND('',#172,.T.);
#29=FACE_BOUND('',#173,.T.);
#30=FACE_BOUND('',#174,.T.);
#31=FACE_BOUND('',#175,.T.);
#32=PLANE('',#886);
#33=PLANE('',#890);
#34=PLANE('',#894);
#35=PLANE('',#898);
#36=PLANE('',#911);
#37=PLANE('',#912);
#38=PLANE('',#913);
#39=PLANE('',#914);
#40=PLANE('',#915);
#41=PLANE('',#916);
#42=PLANE('',#917);
#43=PLANE('',#918);
#44=PLANE('',#919);
#45=PLANE('',#920);
#46=PLANE('',#921);
#47=PLANE('',#922);
#48=PLANE('',#923);
#49=PLANE('',#924);
#50=PLANE('',#925);
#51=PLANE('',#926);
#52=PLANE('',#927);
#53=PLANE('',#928);
#54=PLANE('',#929);
#55=PLANE('',#930);
#56=PLANE('',#931);
#57=PLANE('',#932);
#58=PLANE('',#933);
#59=PLANE('',#934);
#60=PLANE('',#935);
#61=PLANE('',#945);
#62=PLANE('',#949);
#63=PLANE('',#950);
#64=PLANE('',#951);
#65=PLANE('',#952);
#66=PLANE('',#953);
#67=FACE_OUTER_BOUND('',#114,.T.);
#68=FACE_OUTER_BOUND('',#115,.T.);
#69=FACE_OUTER_BOUND('',#116,.T.);
#70=FACE_OUTER_BOUND('',#117,.T.);
#71=FACE_OUTER_BOUND('',#118,.T.);
#72=FACE_OUTER_BOUND('',#119,.T.);
#73=FACE_OUTER_BOUND('',#120,.T.);
#74=FACE_OUTER_BOUND('',#121,.T.);
#75=FACE_OUTER_BOUND('',#122,.T.);
#76=FACE_OUTER_BOUND('',#123,.T.);
#77=FACE_OUTER_BOUND('',#124,.T.);
#78=FACE_OUTER_BOUND('',#125,.T.);
#79=FACE_OUTER_BOUND('',#126,.T.);
#80=FACE_OUTER_BOUND('',#127,.T.);
#81=FACE_OUTER_BOUND('',#128,.T.);
#82=FACE_OUTER_BOUND('',#129,.T.);
#83=FACE_OUTER_BOUND('',#130,.T.);
#84=FACE_OUTER_BOUND('',#131,.T.);
#85=FACE_OUTER_BOUND('',#132,.T.);
#86=FACE_OUTER_BOUND('',#133,.T.);
#87=FACE_OUTER_BOUND('',#134,.T.);
#88=FACE_OUTER_BOUND('',#135,.T.);
#89=FACE_OUTER_BOUND('',#136,.T.);
#90=FACE_OUTER_BOUND('',#139,.T.);
#91=FACE_OUTER_BOUND('',#140,.T.);
#92=FACE_OUTER_BOUND('',#141,.T.);
#93=FACE_OUTER_BOUND('',#142,.T.);
#94=FACE_OUTER_BOUND('',#143,.T.);
#95=FACE_OUTER_BOUND('',#144,.T.);
#96=FACE_OUTER_BOUND('',#145,.T.);
#97=FACE_OUTER_BOUND('',#146,.T.);
#98=FACE_OUTER_BOUND('',#147,.T.);
#99=FACE_OUTER_BOUND('',#148,.T.);
#100=FACE_OUTER_BOUND('',#149,.T.);
#101=FACE_OUTER_BOUND('',#155,.T.);
#102=FACE_OUTER_BOUND('',#158,.T.);
#103=FACE_OUTER_BOUND('',#159,.T.);
#104=FACE_OUTER_BOUND('',#162,.T.);
#105=FACE_OUTER_BOUND('',#163,.T.);
#106=FACE_OUTER_BOUND('',#164,.T.);
#107=FACE_OUTER_BOUND('',#165,.T.);
#108=FACE_OUTER_BOUND('',#166,.T.);
#109=FACE_OUTER_BOUND('',#167,.T.);
#110=FACE_OUTER_BOUND('',#168,.T.);
#111=FACE_OUTER_BOUND('',#171,.T.);
#112=FACE_OUTER_BOUND('',#176,.T.);
#113=FACE_OUTER_BOUND('',#177,.T.);
#114=EDGE_LOOP('',(#578,#579,#580,#581));
#115=EDGE_LOOP('',(#582));
#116=EDGE_LOOP('',(#583,#584,#585,#586));
#117=EDGE_LOOP('',(#587));
#118=EDGE_LOOP('',(#588,#589,#590,#591));
#119=EDGE_LOOP('',(#592));
#120=EDGE_LOOP('',(#593,#594,#595,#596));
#121=EDGE_LOOP('',(#597));
#122=EDGE_LOOP('',(#598,#599,#600,#601));
#123=EDGE_LOOP('',(#602,#603,#604,#605));
#124=EDGE_LOOP('',(#606,#607,#608,#609));
#125=EDGE_LOOP('',(#610,#611,#612,#613));
#126=EDGE_LOOP('',(#614,#615,#616,#617));
#127=EDGE_LOOP('',(#618,#619,#620,#621,#622));
#128=EDGE_LOOP('',(#623,#624,#625,#626,#627));
#129=EDGE_LOOP('',(#628,#629,#630,#631));
#130=EDGE_LOOP('',(#632,#633,#634,#635));
#131=EDGE_LOOP('',(#636,#637,#638,#639,#640));
#132=EDGE_LOOP('',(#641,#642,#643,#644,#645));
#133=EDGE_LOOP('',(#646,#647,#648,#649));
#134=EDGE_LOOP('',(#650,#651,#652,#653,#654,#655,#656,#657,#658,#659));
#135=EDGE_LOOP('',(#660,#661,#662,#663));
#136=EDGE_LOOP('',(#664,#665,#666,#667,#668,#669,#670,#671));
#137=EDGE_LOOP('',(#672));
#138=EDGE_LOOP('',(#673));
#139=EDGE_LOOP('',(#674,#675,#676,#677));
#140=EDGE_LOOP('',(#678,#679,#680,#681));
#141=EDGE_LOOP('',(#682,#683,#684,#685));
#142=EDGE_LOOP('',(#686,#687,#688,#689));
#143=EDGE_LOOP('',(#690,#691,#692,#693));
#144=EDGE_LOOP('',(#694,#695,#696,#697));
#145=EDGE_LOOP('',(#698,#699,#700,#701));
#146=EDGE_LOOP('',(#702,#703,#704,#705));
#147=EDGE_LOOP('',(#706,#707,#708,#709));
#148=EDGE_LOOP('',(#710,#711,#712,#713));
#149=EDGE_LOOP('',(#714,#715,#716,#717,#718,#719,#720,#721));
#150=EDGE_LOOP('',(#722,#723,#724,#725));
#151=EDGE_LOOP('',(#726));
#152=EDGE_LOOP('',(#727));
#153=EDGE_LOOP('',(#728));
#154=EDGE_LOOP('',(#729));
#155=EDGE_LOOP('',(#730,#731,#732,#733,#734,#735,#736,#737));
#156=EDGE_LOOP('',(#738));
#157=EDGE_LOOP('',(#739));
#158=EDGE_LOOP('',(#740,#741,#742,#743));
#159=EDGE_LOOP('',(#744,#745,#746,#747));
#160=EDGE_LOOP('',(#748));
#161=EDGE_LOOP('',(#749));
#162=EDGE_LOOP('',(#750,#751,#752,#753));
#163=EDGE_LOOP('',(#754,#755,#756,#757));
#164=EDGE_LOOP('',(#758,#759,#760,#761));
#165=EDGE_LOOP('',(#762,#763));
#166=EDGE_LOOP('',(#764,#765,#766,#767));
#167=EDGE_LOOP('',(#768,#769));
#168=EDGE_LOOP('',(#770,#771,#772,#773,#774,#775,#776,#777));
#169=EDGE_LOOP('',(#778));
#170=EDGE_LOOP('',(#779));
#171=EDGE_LOOP('',(#780,#781,#782,#783));
#172=EDGE_LOOP('',(#784));
#173=EDGE_LOOP('',(#785));
#174=EDGE_LOOP('',(#786));
#175=EDGE_LOOP('',(#787));
#176=EDGE_LOOP('',(#788,#789,#790,#791,#792,#793,#794,#795,#796,#797,#798,
#799));
#177=EDGE_LOOP('',(#800,#801,#802,#803,#804,#805,#806,#807,#808,#809));
#178=LINE('',#1195,#270);
#179=LINE('',#1202,#271);
#180=LINE('',#1209,#272);
#181=LINE('',#1216,#273);
#182=LINE('',#1223,#274);
#183=LINE('',#1229,#275);
#184=LINE('',#1235,#276);
#185=LINE('',#1241,#277);
#186=LINE('',#1246,#278);
#187=LINE('',#1248,#279);
#188=LINE('',#1250,#280);
#189=LINE('',#1251,#281);
#190=LINE('',#1255,#282);
#191=LINE('',#1257,#283);
#192=LINE('',#1258,#284);
#193=LINE('',#1259,#285);
#194=LINE('',#1263,#286);
#195=LINE('',#1264,#287);
#196=LINE('',#1266,#288);
#197=LINE('',#1267,#289);
#198=LINE('',#1269,#290);
#199=LINE('',#1273,#291);
#200=LINE('',#1275,#292);
#201=LINE('',#1277,#293);
#202=LINE('',#1278,#294);
#203=LINE('',#1282,#295);
#204=LINE('',#1283,#296);
#205=LINE('',#1285,#297);
#206=LINE('',#1286,#298);
#207=LINE('',#1290,#299);
#208=LINE('',#1292,#300);
#209=LINE('',#1293,#301);
#210=LINE('',#1294,#302);
#211=LINE('',#1296,#303);
#212=LINE('',#1299,#304);
#213=LINE('',#1301,#305);
#214=LINE('',#1303,#306);
#215=LINE('',#1305,#307);
#216=LINE('',#1307,#308);
#217=LINE('',#1309,#309);
#218=LINE('',#1310,#310);
#219=LINE('',#1313,#311);
#220=LINE('',#1315,#312);
#221=LINE('',#1316,#313);
#222=LINE('',#1319,#314);
#223=LINE('',#1321,#315);
#224=LINE('',#1322,#316);
#225=LINE('',#1324,#317);
#226=LINE('',#1325,#318);
#227=LINE('',#1328,#319);
#228=LINE('',#1329,#320);
#229=LINE('',#1332,#321);
#230=LINE('',#1334,#322);
#231=LINE('',#1335,#323);
#232=LINE('',#1339,#324);
#233=LINE('',#1341,#325);
#234=LINE('',#1343,#326);
#235=LINE('',#1344,#327);
#236=LINE('',#1347,#328);
#237=LINE('',#1349,#329);
#238=LINE('',#1350,#330);
#239=LINE('',#1353,#331);
#240=LINE('',#1355,#332);
#241=LINE('',#1356,#333);
#242=LINE('',#1358,#334);
#243=LINE('',#1359,#335);
#244=LINE('',#1363,#336);
#245=LINE('',#1364,#337);
#246=LINE('',#1366,#338);
#247=LINE('',#1368,#339);
#248=LINE('',#1369,#340);
#249=LINE('',#1373,#341);
#250=LINE('',#1374,#342);
#251=LINE('',#1377,#343);
#252=LINE('',#1378,#344);
#253=LINE('',#1381,#345);
#254=LINE('',#1382,#346);
#255=LINE('',#1390,#347);
#256=LINE('',#1394,#348);
#257=LINE('',#1398,#349);
#258=LINE('',#1402,#350);
#259=LINE('',#1405,#351);
#260=LINE('',#1409,#352);
#261=LINE('',#1413,#353);
#262=LINE('',#1416,#354);
#263=LINE('',#1418,#355);
#264=LINE('',#1420,#356);
#265=LINE('',#1422,#357);
#266=LINE('',#1423,#358);
#267=LINE('',#1424,#359);
#268=LINE('',#1426,#360);
#269=LINE('',#1428,#361);
#270=VECTOR('',#960,1.);
#271=VECTOR('',#969,1.);
#272=VECTOR('',#978,1.);
#273=VECTOR('',#987,1.);
#274=VECTOR('',#996,1.25);
#275=VECTOR('',#1003,1.25);
#276=VECTOR('',#1010,1.25);
#277=VECTOR('',#1017,1.25);
#278=VECTOR('',#1022,10.);
#279=VECTOR('',#1023,10.);
#280=VECTOR('',#1024,10.);
#281=VECTOR('',#1025,10.);
#282=VECTOR('',#1028,10.);
#283=VECTOR('',#1029,10.);
#284=VECTOR('',#1030,10.);
#285=VECTOR('',#1031,10.);
#286=VECTOR('',#1034,10.);
#287=VECTOR('',#1035,10.);
#288=VECTOR('',#1036,10.);
#289=VECTOR('',#1037,10.);
#290=VECTOR('',#1040,10.);
#291=VECTOR('',#1043,10.);
#292=VECTOR('',#1044,10.);
#293=VECTOR('',#1045,10.);
#294=VECTOR('',#1046,10.);
#295=VECTOR('',#1049,10.);
#296=VECTOR('',#1050,10.);
#297=VECTOR('',#1051,10.);
#298=VECTOR('',#1052,10.);
#299=VECTOR('',#1055,10.);
#300=VECTOR('',#1056,10.);
#301=VECTOR('',#1057,10.);
#302=VECTOR('',#1058,10.);
#303=VECTOR('',#1061,10.);
#304=VECTOR('',#1064,10.);
#305=VECTOR('',#1065,10.);
#306=VECTOR('',#1066,10.);
#307=VECTOR('',#1067,10.);
#308=VECTOR('',#1068,10.);
#309=VECTOR('',#1069,10.);
#310=VECTOR('',#1070,10.);
#311=VECTOR('',#1073,10.);
#312=VECTOR('',#1074,10.);
#313=VECTOR('',#1075,10.);
#314=VECTOR('',#1078,10.);
#315=VECTOR('',#1079,10.);
#316=VECTOR('',#1080,10.);
#317=VECTOR('',#1081,10.);
#318=VECTOR('',#1082,10.);
#319=VECTOR('',#1085,10.);
#320=VECTOR('',#1086,10.);
#321=VECTOR('',#1089,10.);
#322=VECTOR('',#1090,10.);
#323=VECTOR('',#1091,10.);
#324=VECTOR('',#1094,10.);
#325=VECTOR('',#1095,10.);
#326=VECTOR('',#1096,10.);
#327=VECTOR('',#1097,10.);
#328=VECTOR('',#1100,10.);
#329=VECTOR('',#1101,10.);
#330=VECTOR('',#1102,10.);
#331=VECTOR('',#1105,10.);
#332=VECTOR('',#1106,10.);
#333=VECTOR('',#1107,10.);
#334=VECTOR('',#1110,10.);
#335=VECTOR('',#1111,10.);
#336=VECTOR('',#1116,10.);
#337=VECTOR('',#1117,10.);
#338=VECTOR('',#1120,10.);
#339=VECTOR('',#1123,10.);
#340=VECTOR('',#1124,10.);
#341=VECTOR('',#1129,10.);
#342=VECTOR('',#1130,10.);
#343=VECTOR('',#1133,10.);
#344=VECTOR('',#1134,10.);
#345=VECTOR('',#1137,10.);
#346=VECTOR('',#1138,10.);
#347=VECTOR('',#1147,1.8);
#348=VECTOR('',#1152,1.8);
#349=VECTOR('',#1155,10.);
#350=VECTOR('',#1158,10.);
#351=VECTOR('',#1163,10.);
#352=VECTOR('',#1166,10.);
#353=VECTOR('',#1169,10.);
#354=VECTOR('',#1174,10.);
#355=VECTOR('',#1177,10.);
#356=VECTOR('',#1178,10.);
#357=VECTOR('',#1179,10.);
#358=VECTOR('',#1180,10.);
#359=VECTOR('',#1181,10.);
#360=VECTOR('',#1184,10.);
#361=VECTOR('',#1187,10.);
#362=CIRCLE('',#884,1.);
#363=CIRCLE('',#885,1.);
#364=CIRCLE('',#888,1.);
#365=CIRCLE('',#889,1.);
#366=CIRCLE('',#892,1.);
#367=CIRCLE('',#893,1.);
#368=CIRCLE('',#896,1.);
#369=CIRCLE('',#897,1.);
#370=CIRCLE('',#900,1.25);
#371=CIRCLE('',#901,1.25);
#372=CIRCLE('',#903,1.25);
#373=CIRCLE('',#904,1.25);
#374=CIRCLE('',#906,1.25);
#375=CIRCLE('',#907,1.25);
#376=CIRCLE('',#909,1.25);
#377=CIRCLE('',#910,1.25);
#378=CIRCLE('',#936,1.8);
#379=CIRCLE('',#937,1.8);
#380=CIRCLE('',#939,1.8);
#381=CIRCLE('',#941,1.8);
#382=CIRCLE('',#943,3.5);
#383=CIRCLE('',#944,3.5);
#384=CIRCLE('',#947,3.5);
#385=CIRCLE('',#948,3.5);
#386=VERTEX_POINT('',#1192);
#387=VERTEX_POINT('',#1194);
#388=VERTEX_POINT('',#1199);
#389=VERTEX_POINT('',#1201);
#390=VERTEX_POINT('',#1206);
#391=VERTEX_POINT('',#1208);
#392=VERTEX_POINT('',#1213);
#393=VERTEX_POINT('',#1215);
#394=VERTEX_POINT('',#1220);
#395=VERTEX_POINT('',#1222);
#396=VERTEX_POINT('',#1226);
#397=VERTEX_POINT('',#1228);
#398=VERTEX_POINT('',#1232);
#399=VERTEX_POINT('',#1234);
#400=VERTEX_POINT('',#1238);
#401=VERTEX_POINT('',#1240);
#402=VERTEX_POINT('',#1244);
#403=VERTEX_POINT('',#1245);
#404=VERTEX_POINT('',#1247);
#405=VERTEX_POINT('',#1249);
#406=VERTEX_POINT('',#1253);
#407=VERTEX_POINT('',#1254);
#408=VERTEX_POINT('',#1256);
#409=VERTEX_POINT('',#1261);
#410=VERTEX_POINT('',#1262);
#411=VERTEX_POINT('',#1265);
#412=VERTEX_POINT('',#1271);
#413=VERTEX_POINT('',#1272);
#414=VERTEX_POINT('',#1274);
#415=VERTEX_POINT('',#1276);
#416=VERTEX_POINT('',#1280);
#417=VERTEX_POINT('',#1281);
#418=VERTEX_POINT('',#1284);
#419=VERTEX_POINT('',#1288);
#420=VERTEX_POINT('',#1289);
#421=VERTEX_POINT('',#1291);
#422=VERTEX_POINT('',#1298);
#423=VERTEX_POINT('',#1300);
#424=VERTEX_POINT('',#1302);
#425=VERTEX_POINT('',#1304);
#426=VERTEX_POINT('',#1306);
#427=VERTEX_POINT('',#1308);
#428=VERTEX_POINT('',#1312);
#429=VERTEX_POINT('',#1314);
#430=VERTEX_POINT('',#1318);
#431=VERTEX_POINT('',#1320);
#432=VERTEX_POINT('',#1323);
#433=VERTEX_POINT('',#1327);
#434=VERTEX_POINT('',#1331);
#435=VERTEX_POINT('',#1333);
#436=VERTEX_POINT('',#1337);
#437=VERTEX_POINT('',#1338);
#438=VERTEX_POINT('',#1340);
#439=VERTEX_POINT('',#1342);
#440=VERTEX_POINT('',#1346);
#441=VERTEX_POINT('',#1348);
#442=VERTEX_POINT('',#1352);
#443=VERTEX_POINT('',#1354);
#444=VERTEX_POINT('',#1362);
#445=VERTEX_POINT('',#1372);
#446=VERTEX_POINT('',#1376);
#447=VERTEX_POINT('',#1380);
#448=VERTEX_POINT('',#1383);
#449=VERTEX_POINT('',#1385);
#450=VERTEX_POINT('',#1388);
#451=VERTEX_POINT('',#1392);
#452=VERTEX_POINT('',#1396);
#453=VERTEX_POINT('',#1397);
#454=VERTEX_POINT('',#1399);
#455=VERTEX_POINT('',#1401);
#456=VERTEX_POINT('',#1407);
#457=VERTEX_POINT('',#1408);
#458=VERTEX_POINT('',#1410);
#459=VERTEX_POINT('',#1412);
#460=VERTEX_POINT('',#1419);
#461=VERTEX_POINT('',#1421);
#462=EDGE_CURVE('',#386,#386,#362,.T.);
#463=EDGE_CURVE('',#386,#387,#178,.T.);
#464=EDGE_CURVE('',#387,#387,#363,.T.);
#465=EDGE_CURVE('',#388,#388,#364,.T.);
#466=EDGE_CURVE('',#388,#389,#179,.T.);
#467=EDGE_CURVE('',#389,#389,#365,.T.);
#468=EDGE_CURVE('',#390,#390,#366,.T.);
#469=EDGE_CURVE('',#390,#391,#180,.T.);
#470=EDGE_CURVE('',#391,#391,#367,.T.);
#471=EDGE_CURVE('',#392,#392,#368,.T.);
#472=EDGE_CURVE('',#392,#393,#181,.T.);
#473=EDGE_CURVE('',#393,#393,#369,.T.);
#474=EDGE_CURVE('',#394,#394,#370,.T.);
#475=EDGE_CURVE('',#394,#395,#182,.T.);
#476=EDGE_CURVE('',#395,#395,#371,.T.);
#477=EDGE_CURVE('',#396,#396,#372,.T.);
#478=EDGE_CURVE('',#396,#397,#183,.T.);
#479=EDGE_CURVE('',#397,#397,#373,.T.);
#480=EDGE_CURVE('',#398,#398,#374,.T.);
#481=EDGE_CURVE('',#398,#399,#184,.T.);
#482=EDGE_CURVE('',#399,#399,#375,.T.);
#483=EDGE_CURVE('',#400,#400,#376,.T.);
#484=EDGE_CURVE('',#400,#401,#185,.T.);
#485=EDGE_CURVE('',#401,#401,#377,.T.);
#486=EDGE_CURVE('',#402,#403,#186,.T.);
#487=EDGE_CURVE('',#403,#404,#187,.T.);
#488=EDGE_CURVE('',#404,#405,#188,.T.);
#489=EDGE_CURVE('',#402,#405,#189,.T.);
#490=EDGE_CURVE('',#406,#407,#190,.T.);
#491=EDGE_CURVE('',#408,#406,#191,.T.);
#492=EDGE_CURVE('',#408,#404,#192,.T.);
#493=EDGE_CURVE('',#407,#403,#193,.T.);
#494=EDGE_CURVE('',#409,#410,#194,.T.);
#495=EDGE_CURVE('',#402,#409,#195,.T.);
#496=EDGE_CURVE('',#405,#411,#196,.T.);
#497=EDGE_CURVE('',#410,#411,#197,.T.);
#498=EDGE_CURVE('',#411,#408,#198,.T.);
#499=EDGE_CURVE('',#412,#413,#199,.T.);
#500=EDGE_CURVE('',#413,#414,#200,.T.);
#501=EDGE_CURVE('',#414,#415,#201,.T.);
#502=EDGE_CURVE('',#412,#415,#202,.T.);
#503=EDGE_CURVE('',#416,#417,#203,.T.);
#504=EDGE_CURVE('',#412,#416,#204,.T.);
#505=EDGE_CURVE('',#415,#418,#205,.T.);
#506=EDGE_CURVE('',#417,#418,#206,.T.);
#507=EDGE_CURVE('',#419,#420,#207,.T.);
#508=EDGE_CURVE('',#421,#419,#208,.T.);
#509=EDGE_CURVE('',#421,#414,#209,.T.);
#510=EDGE_CURVE('',#420,#413,#210,.T.);
#511=EDGE_CURVE('',#418,#421,#211,.T.);
#512=EDGE_CURVE('',#422,#406,#212,.T.);
#513=EDGE_CURVE('',#423,#422,#213,.T.);
#514=EDGE_CURVE('',#424,#423,#214,.T.);
#515=EDGE_CURVE('',#424,#425,#215,.T.);
#516=EDGE_CURVE('',#425,#426,#216,.T.);
#517=EDGE_CURVE('',#427,#426,#217,.T.);
#518=EDGE_CURVE('',#410,#427,#218,.T.);
#519=EDGE_CURVE('',#428,#409,#219,.T.);
#520=EDGE_CURVE('',#428,#429,#220,.T.);
#521=EDGE_CURVE('',#429,#402,#221,.T.);
#522=EDGE_CURVE('',#407,#430,#222,.T.);
#523=EDGE_CURVE('',#430,#431,#223,.T.);
#524=EDGE_CURVE('',#431,#416,#224,.T.);
#525=EDGE_CURVE('',#432,#417,#225,.T.);
#526=EDGE_CURVE('',#422,#432,#226,.T.);
#527=EDGE_CURVE('',#431,#433,#227,.T.);
#528=EDGE_CURVE('',#433,#412,#228,.T.);
#529=EDGE_CURVE('',#413,#434,#229,.T.);
#530=EDGE_CURVE('',#435,#434,#230,.T.);
#531=EDGE_CURVE('',#420,#435,#231,.T.);
#532=EDGE_CURVE('',#436,#437,#232,.T.);
#533=EDGE_CURVE('',#436,#438,#233,.T.);
#534=EDGE_CURVE('',#438,#439,#234,.T.);
#535=EDGE_CURVE('',#437,#439,#235,.T.);
#536=EDGE_CURVE('',#440,#436,#236,.T.);
#537=EDGE_CURVE('',#440,#441,#237,.T.);
#538=EDGE_CURVE('',#441,#438,#238,.T.);
#539=EDGE_CURVE('',#442,#440,#239,.T.);
#540=EDGE_CURVE('',#442,#443,#240,.T.);
#541=EDGE_CURVE('',#443,#441,#241,.T.);
#542=EDGE_CURVE('',#437,#442,#242,.T.);
#543=EDGE_CURVE('',#439,#443,#243,.T.);
#544=EDGE_CURVE('',#430,#444,#244,.T.);
#545=EDGE_CURVE('',#444,#433,#245,.T.);
#546=EDGE_CURVE('',#403,#444,#246,.T.);
#547=EDGE_CURVE('',#435,#428,#247,.T.);
#548=EDGE_CURVE('',#434,#429,#248,.T.);
#549=EDGE_CURVE('',#445,#427,#249,.T.);
#550=EDGE_CURVE('',#419,#445,#250,.T.);
#551=EDGE_CURVE('',#446,#445,#251,.T.);
#552=EDGE_CURVE('',#426,#446,#252,.T.);
#553=EDGE_CURVE('',#432,#447,#253,.T.);
#554=EDGE_CURVE('',#447,#423,#254,.T.);
#555=EDGE_CURVE('',#448,#448,#378,.T.);
#556=EDGE_CURVE('',#449,#449,#379,.T.);
#557=EDGE_CURVE('',#450,#450,#380,.T.);
#558=EDGE_CURVE('',#450,#449,#255,.T.);
#559=EDGE_CURVE('',#451,#451,#381,.T.);
#560=EDGE_CURVE('',#451,#448,#256,.T.);
#561=EDGE_CURVE('',#452,#453,#257,.T.);
#562=EDGE_CURVE('',#452,#454,#382,.T.);
#563=EDGE_CURVE('',#455,#454,#258,.T.);
#564=EDGE_CURVE('',#453,#455,#383,.T.);
#565=EDGE_CURVE('',#454,#452,#259,.T.);
#566=EDGE_CURVE('',#456,#457,#260,.T.);
#567=EDGE_CURVE('',#456,#458,#384,.T.);
#568=EDGE_CURVE('',#459,#458,#261,.T.);
#569=EDGE_CURVE('',#457,#459,#385,.T.);
#570=EDGE_CURVE('',#458,#456,#262,.T.);
#571=EDGE_CURVE('',#457,#455,#263,.T.);
#572=EDGE_CURVE('',#460,#459,#264,.T.);
#573=EDGE_CURVE('',#461,#460,#265,.T.);
#574=EDGE_CURVE('',#425,#461,#266,.T.);
#575=EDGE_CURVE('',#453,#424,#267,.T.);
#576=EDGE_CURVE('',#461,#446,#268,.T.);
#577=EDGE_CURVE('',#460,#447,#269,.T.);
#578=ORIENTED_EDGE('',*,*,#462,.F.);
#579=ORIENTED_EDGE('',*,*,#463,.T.);
#580=ORIENTED_EDGE('',*,*,#464,.T.);
#581=ORIENTED_EDGE('',*,*,#463,.F.);
#582=ORIENTED_EDGE('',*,*,#464,.F.);
#583=ORIENTED_EDGE('',*,*,#465,.F.);
#584=ORIENTED_EDGE('',*,*,#466,.T.);
#585=ORIENTED_EDGE('',*,*,#467,.T.);
#586=ORIENTED_EDGE('',*,*,#466,.F.);
#587=ORIENTED_EDGE('',*,*,#467,.F.);
#588=ORIENTED_EDGE('',*,*,#468,.F.);
#589=ORIENTED_EDGE('',*,*,#469,.T.);
#590=ORIENTED_EDGE('',*,*,#470,.T.);
#591=ORIENTED_EDGE('',*,*,#469,.F.);
#592=ORIENTED_EDGE('',*,*,#470,.F.);
#593=ORIENTED_EDGE('',*,*,#471,.F.);
#594=ORIENTED_EDGE('',*,*,#472,.T.);
#595=ORIENTED_EDGE('',*,*,#473,.T.);
#596=ORIENTED_EDGE('',*,*,#472,.F.);
#597=ORIENTED_EDGE('',*,*,#473,.F.);
#598=ORIENTED_EDGE('',*,*,#474,.F.);
#599=ORIENTED_EDGE('',*,*,#475,.T.);
#600=ORIENTED_EDGE('',*,*,#476,.F.);
#601=ORIENTED_EDGE('',*,*,#475,.F.);
#602=ORIENTED_EDGE('',*,*,#477,.F.);
#603=ORIENTED_EDGE('',*,*,#478,.T.);
#604=ORIENTED_EDGE('',*,*,#479,.F.);
#605=ORIENTED_EDGE('',*,*,#478,.F.);
#606=ORIENTED_EDGE('',*,*,#480,.F.);
#607=ORIENTED_EDGE('',*,*,#481,.T.);
#608=ORIENTED_EDGE('',*,*,#482,.F.);
#609=ORIENTED_EDGE('',*,*,#481,.F.);
#610=ORIENTED_EDGE('',*,*,#483,.F.);
#611=ORIENTED_EDGE('',*,*,#484,.T.);
#612=ORIENTED_EDGE('',*,*,#485,.F.);
#613=ORIENTED_EDGE('',*,*,#484,.F.);
#614=ORIENTED_EDGE('',*,*,#486,.T.);
#615=ORIENTED_EDGE('',*,*,#487,.T.);
#616=ORIENTED_EDGE('',*,*,#488,.T.);
#617=ORIENTED_EDGE('',*,*,#489,.F.);
#618=ORIENTED_EDGE('',*,*,#490,.F.);
#619=ORIENTED_EDGE('',*,*,#491,.F.);
#620=ORIENTED_EDGE('',*,*,#492,.T.);
#621=ORIENTED_EDGE('',*,*,#487,.F.);
#622=ORIENTED_EDGE('',*,*,#493,.F.);
#623=ORIENTED_EDGE('',*,*,#494,.F.);
#624=ORIENTED_EDGE('',*,*,#495,.F.);
#625=ORIENTED_EDGE('',*,*,#489,.T.);
#626=ORIENTED_EDGE('',*,*,#496,.T.);
#627=ORIENTED_EDGE('',*,*,#497,.F.);
#628=ORIENTED_EDGE('',*,*,#496,.F.);
#629=ORIENTED_EDGE('',*,*,#488,.F.);
#630=ORIENTED_EDGE('',*,*,#492,.F.);
#631=ORIENTED_EDGE('',*,*,#498,.F.);
#632=ORIENTED_EDGE('',*,*,#499,.T.);
#633=ORIENTED_EDGE('',*,*,#500,.T.);
#634=ORIENTED_EDGE('',*,*,#501,.T.);
#635=ORIENTED_EDGE('',*,*,#502,.F.);
#636=ORIENTED_EDGE('',*,*,#503,.F.);
#637=ORIENTED_EDGE('',*,*,#504,.F.);
#638=ORIENTED_EDGE('',*,*,#502,.T.);
#639=ORIENTED_EDGE('',*,*,#505,.T.);
#640=ORIENTED_EDGE('',*,*,#506,.F.);
#641=ORIENTED_EDGE('',*,*,#507,.F.);
#642=ORIENTED_EDGE('',*,*,#508,.F.);
#643=ORIENTED_EDGE('',*,*,#509,.T.);
#644=ORIENTED_EDGE('',*,*,#500,.F.);
#645=ORIENTED_EDGE('',*,*,#510,.F.);
#646=ORIENTED_EDGE('',*,*,#509,.F.);
#647=ORIENTED_EDGE('',*,*,#511,.F.);
#648=ORIENTED_EDGE('',*,*,#505,.F.);
#649=ORIENTED_EDGE('',*,*,#501,.F.);
#650=ORIENTED_EDGE('',*,*,#497,.T.);
#651=ORIENTED_EDGE('',*,*,#498,.T.);
#652=ORIENTED_EDGE('',*,*,#491,.T.);
#653=ORIENTED_EDGE('',*,*,#512,.F.);
#654=ORIENTED_EDGE('',*,*,#513,.F.);
#655=ORIENTED_EDGE('',*,*,#514,.F.);
#656=ORIENTED_EDGE('',*,*,#515,.T.);
#657=ORIENTED_EDGE('',*,*,#516,.T.);
#658=ORIENTED_EDGE('',*,*,#517,.F.);
#659=ORIENTED_EDGE('',*,*,#518,.F.);
#660=ORIENTED_EDGE('',*,*,#495,.T.);
#661=ORIENTED_EDGE('',*,*,#519,.F.);
#662=ORIENTED_EDGE('',*,*,#520,.T.);
#663=ORIENTED_EDGE('',*,*,#521,.T.);
#664=ORIENTED_EDGE('',*,*,#490,.T.);
#665=ORIENTED_EDGE('',*,*,#522,.T.);
#666=ORIENTED_EDGE('',*,*,#523,.T.);
#667=ORIENTED_EDGE('',*,*,#524,.T.);
#668=ORIENTED_EDGE('',*,*,#503,.T.);
#669=ORIENTED_EDGE('',*,*,#525,.F.);
#670=ORIENTED_EDGE('',*,*,#526,.F.);
#671=ORIENTED_EDGE('',*,*,#512,.T.);
#672=ORIENTED_EDGE('',*,*,#477,.T.);
#673=ORIENTED_EDGE('',*,*,#480,.T.);
#674=ORIENTED_EDGE('',*,*,#504,.T.);
#675=ORIENTED_EDGE('',*,*,#524,.F.);
#676=ORIENTED_EDGE('',*,*,#527,.T.);
#677=ORIENTED_EDGE('',*,*,#528,.T.);
#678=ORIENTED_EDGE('',*,*,#510,.T.);
#679=ORIENTED_EDGE('',*,*,#529,.T.);
#680=ORIENTED_EDGE('',*,*,#530,.F.);
#681=ORIENTED_EDGE('',*,*,#531,.F.);
#682=ORIENTED_EDGE('',*,*,#532,.F.);
#683=ORIENTED_EDGE('',*,*,#533,.T.);
#684=ORIENTED_EDGE('',*,*,#534,.T.);
#685=ORIENTED_EDGE('',*,*,#535,.F.);
#686=ORIENTED_EDGE('',*,*,#536,.F.);
#687=ORIENTED_EDGE('',*,*,#537,.T.);
#688=ORIENTED_EDGE('',*,*,#538,.T.);
#689=ORIENTED_EDGE('',*,*,#533,.F.);
#690=ORIENTED_EDGE('',*,*,#539,.F.);
#691=ORIENTED_EDGE('',*,*,#540,.T.);
#692=ORIENTED_EDGE('',*,*,#541,.T.);
#693=ORIENTED_EDGE('',*,*,#537,.F.);
#694=ORIENTED_EDGE('',*,*,#542,.F.);
#695=ORIENTED_EDGE('',*,*,#535,.T.);
#696=ORIENTED_EDGE('',*,*,#543,.T.);
#697=ORIENTED_EDGE('',*,*,#540,.F.);
#698=ORIENTED_EDGE('',*,*,#543,.F.);
#699=ORIENTED_EDGE('',*,*,#534,.F.);
#700=ORIENTED_EDGE('',*,*,#538,.F.);
#701=ORIENTED_EDGE('',*,*,#541,.F.);
#702=ORIENTED_EDGE('',*,*,#523,.F.);
#703=ORIENTED_EDGE('',*,*,#544,.T.);
#704=ORIENTED_EDGE('',*,*,#545,.T.);
#705=ORIENTED_EDGE('',*,*,#527,.F.);
#706=ORIENTED_EDGE('',*,*,#493,.T.);
#707=ORIENTED_EDGE('',*,*,#546,.T.);
#708=ORIENTED_EDGE('',*,*,#544,.F.);
#709=ORIENTED_EDGE('',*,*,#522,.F.);
#710=ORIENTED_EDGE('',*,*,#547,.F.);
#711=ORIENTED_EDGE('',*,*,#530,.T.);
#712=ORIENTED_EDGE('',*,*,#548,.T.);
#713=ORIENTED_EDGE('',*,*,#520,.F.);
#714=ORIENTED_EDGE('',*,*,#548,.F.);
#715=ORIENTED_EDGE('',*,*,#529,.F.);
#716=ORIENTED_EDGE('',*,*,#499,.F.);
#717=ORIENTED_EDGE('',*,*,#528,.F.);
#718=ORIENTED_EDGE('',*,*,#545,.F.);
#719=ORIENTED_EDGE('',*,*,#546,.F.);
#720=ORIENTED_EDGE('',*,*,#486,.F.);
#721=ORIENTED_EDGE('',*,*,#521,.F.);
#722=ORIENTED_EDGE('',*,*,#532,.T.);
#723=ORIENTED_EDGE('',*,*,#542,.T.);
#724=ORIENTED_EDGE('',*,*,#539,.T.);
#725=ORIENTED_EDGE('',*,*,#536,.T.);
#726=ORIENTED_EDGE('',*,*,#471,.T.);
#727=ORIENTED_EDGE('',*,*,#468,.T.);
#728=ORIENTED_EDGE('',*,*,#465,.T.);
#729=ORIENTED_EDGE('',*,*,#462,.T.);
#730=ORIENTED_EDGE('',*,*,#494,.T.);
#731=ORIENTED_EDGE('',*,*,#518,.T.);
#732=ORIENTED_EDGE('',*,*,#549,.F.);
#733=ORIENTED_EDGE('',*,*,#550,.F.);
#734=ORIENTED_EDGE('',*,*,#507,.T.);
#735=ORIENTED_EDGE('',*,*,#531,.T.);
#736=ORIENTED_EDGE('',*,*,#547,.T.);
#737=ORIENTED_EDGE('',*,*,#519,.T.);
#738=ORIENTED_EDGE('',*,*,#474,.T.);
#739=ORIENTED_EDGE('',*,*,#483,.T.);
#740=ORIENTED_EDGE('',*,*,#551,.T.);
#741=ORIENTED_EDGE('',*,*,#549,.T.);
#742=ORIENTED_EDGE('',*,*,#517,.T.);
#743=ORIENTED_EDGE('',*,*,#552,.T.);
#744=ORIENTED_EDGE('',*,*,#526,.T.);
#745=ORIENTED_EDGE('',*,*,#553,.T.);
#746=ORIENTED_EDGE('',*,*,#554,.T.);
#747=ORIENTED_EDGE('',*,*,#513,.T.);
#748=ORIENTED_EDGE('',*,*,#555,.T.);
#749=ORIENTED_EDGE('',*,*,#556,.T.);
#750=ORIENTED_EDGE('',*,*,#557,.F.);
#751=ORIENTED_EDGE('',*,*,#558,.T.);
#752=ORIENTED_EDGE('',*,*,#556,.F.);
#753=ORIENTED_EDGE('',*,*,#558,.F.);
#754=ORIENTED_EDGE('',*,*,#559,.F.);
#755=ORIENTED_EDGE('',*,*,#560,.T.);
#756=ORIENTED_EDGE('',*,*,#555,.F.);
#757=ORIENTED_EDGE('',*,*,#560,.F.);
#758=ORIENTED_EDGE('',*,*,#561,.F.);
#759=ORIENTED_EDGE('',*,*,#562,.T.);
#760=ORIENTED_EDGE('',*,*,#563,.F.);
#761=ORIENTED_EDGE('',*,*,#564,.F.);
#762=ORIENTED_EDGE('',*,*,#565,.F.);
#763=ORIENTED_EDGE('',*,*,#562,.F.);
#764=ORIENTED_EDGE('',*,*,#566,.F.);
#765=ORIENTED_EDGE('',*,*,#567,.T.);
#766=ORIENTED_EDGE('',*,*,#568,.F.);
#767=ORIENTED_EDGE('',*,*,#569,.F.);
#768=ORIENTED_EDGE('',*,*,#570,.F.);
#769=ORIENTED_EDGE('',*,*,#567,.F.);
#770=ORIENTED_EDGE('',*,*,#564,.T.);
#771=ORIENTED_EDGE('',*,*,#571,.F.);
#772=ORIENTED_EDGE('',*,*,#569,.T.);
#773=ORIENTED_EDGE('',*,*,#572,.F.);
#774=ORIENTED_EDGE('',*,*,#573,.F.);
#775=ORIENTED_EDGE('',*,*,#574,.F.);
#776=ORIENTED_EDGE('',*,*,#515,.F.);
#777=ORIENTED_EDGE('',*,*,#575,.F.);
#778=ORIENTED_EDGE('',*,*,#557,.T.);
#779=ORIENTED_EDGE('',*,*,#559,.T.);
#780=ORIENTED_EDGE('',*,*,#574,.T.);
#781=ORIENTED_EDGE('',*,*,#576,.T.);
#782=ORIENTED_EDGE('',*,*,#552,.F.);
#783=ORIENTED_EDGE('',*,*,#516,.F.);
#784=ORIENTED_EDGE('',*,*,#476,.T.);
#785=ORIENTED_EDGE('',*,*,#479,.T.);
#786=ORIENTED_EDGE('',*,*,#482,.T.);
#787=ORIENTED_EDGE('',*,*,#485,.T.);
#788=ORIENTED_EDGE('',*,*,#561,.T.);
#789=ORIENTED_EDGE('',*,*,#575,.T.);
#790=ORIENTED_EDGE('',*,*,#514,.T.);
#791=ORIENTED_EDGE('',*,*,#554,.F.);
#792=ORIENTED_EDGE('',*,*,#577,.F.);
#793=ORIENTED_EDGE('',*,*,#572,.T.);
#794=ORIENTED_EDGE('',*,*,#568,.T.);
#795=ORIENTED_EDGE('',*,*,#570,.T.);
#796=ORIENTED_EDGE('',*,*,#566,.T.);
#797=ORIENTED_EDGE('',*,*,#571,.T.);
#798=ORIENTED_EDGE('',*,*,#563,.T.);
#799=ORIENTED_EDGE('',*,*,#565,.T.);
#800=ORIENTED_EDGE('',*,*,#508,.T.);
#801=ORIENTED_EDGE('',*,*,#550,.T.);
#802=ORIENTED_EDGE('',*,*,#551,.F.);
#803=ORIENTED_EDGE('',*,*,#576,.F.);
#804=ORIENTED_EDGE('',*,*,#573,.T.);
#805=ORIENTED_EDGE('',*,*,#577,.T.);
#806=ORIENTED_EDGE('',*,*,#553,.F.);
#807=ORIENTED_EDGE('',*,*,#525,.T.);
#808=ORIENTED_EDGE('',*,*,#506,.T.);
#809=ORIENTED_EDGE('',*,*,#511,.T.);
#810=CYLINDRICAL_SURFACE('',#883,1.);
#811=CYLINDRICAL_SURFACE('',#887,1.);
#812=CYLINDRICAL_SURFACE('',#891,1.);
#813=CYLINDRICAL_SURFACE('',#895,1.);
#814=CYLINDRICAL_SURFACE('',#899,1.25);
#815=CYLINDRICAL_SURFACE('',#902,1.25);
#816=CYLINDRICAL_SURFACE('',#905,1.25);
#817=CYLINDRICAL_SURFACE('',#908,1.25);
#818=CYLINDRICAL_SURFACE('',#938,1.8);
#819=CYLINDRICAL_SURFACE('',#940,1.8);
#820=CYLINDRICAL_SURFACE('',#942,3.5);
#821=CYLINDRICAL_SURFACE('',#946,3.5);
#822=ADVANCED_FACE('',(#67),#810,.F.);
#823=ADVANCED_FACE('',(#68),#32,.F.);
#824=ADVANCED_FACE('',(#69),#811,.F.);
#825=ADVANCED_FACE('',(#70),#33,.F.);
#826=ADVANCED_FACE('',(#71),#812,.F.);
#827=ADVANCED_FACE('',(#72),#34,.F.);
#828=ADVANCED_FACE('',(#73),#813,.F.);
#829=ADVANCED_FACE('',(#74),#35,.F.);
#830=ADVANCED_FACE('',(#75),#814,.F.);
#831=ADVANCED_FACE('',(#76),#815,.F.);
#832=ADVANCED_FACE('',(#77),#816,.F.);
#833=ADVANCED_FACE('',(#78),#817,.F.);
#834=ADVANCED_FACE('',(#79),#36,.F.);
#835=ADVANCED_FACE('',(#80),#37,.F.);
#836=ADVANCED_FACE('',(#81),#38,.F.);
#837=ADVANCED_FACE('',(#82),#39,.F.);
#838=ADVANCED_FACE('',(#83),#40,.F.);
#839=ADVANCED_FACE('',(#84),#41,.F.);
#840=ADVANCED_FACE('',(#85),#42,.F.);
#841=ADVANCED_FACE('',(#86),#43,.F.);
#842=ADVANCED_FACE('',(#87),#44,.T.);
#843=ADVANCED_FACE('',(#88),#45,.F.);
#844=ADVANCED_FACE('',(#89,#15,#16),#46,.T.);
#845=ADVANCED_FACE('',(#90),#47,.F.);
#846=ADVANCED_FACE('',(#91),#48,.F.);
#847=ADVANCED_FACE('',(#92),#49,.F.);
#848=ADVANCED_FACE('',(#93),#50,.F.);
#849=ADVANCED_FACE('',(#94),#51,.F.);
#850=ADVANCED_FACE('',(#95),#52,.F.);
#851=ADVANCED_FACE('',(#96),#53,.F.);
#852=ADVANCED_FACE('',(#97),#54,.F.);
#853=ADVANCED_FACE('',(#98),#55,.F.);
#854=ADVANCED_FACE('',(#99),#56,.F.);
#855=ADVANCED_FACE('',(#100,#17,#18,#19,#20,#21),#57,.F.);
#856=ADVANCED_FACE('',(#101,#22,#23),#58,.T.);
#857=ADVANCED_FACE('',(#102),#59,.T.);
#858=ADVANCED_FACE('',(#103,#24,#25),#60,.T.);
#859=ADVANCED_FACE('',(#104),#818,.F.);
#860=ADVANCED_FACE('',(#105),#819,.F.);
#861=ADVANCED_FACE('',(#106),#820,.F.);
#862=ADVANCED_FACE('',(#107),#61,.F.);
#863=ADVANCED_FACE('',(#108),#821,.F.);
#864=ADVANCED_FACE('',(#109),#62,.F.);
#865=ADVANCED_FACE('',(#110,#26,#27),#63,.F.);
#866=ADVANCED_FACE('',(#111,#28,#29,#30,#31),#64,.T.);
#867=ADVANCED_FACE('',(#112),#65,.T.);
#868=ADVANCED_FACE('',(#113),#66,.T.);
#869=CLOSED_SHELL('',(#822,#823,#824,#825,#826,#827,#828,#829,#830,#831,
#832,#833,#834,#835,#836,#837,#838,#839,#840,#841,#842,#843,#844,#845,#846,
#847,#848,#849,#850,#851,#852,#853,#854,#855,#856,#857,#858,#859,#860,#861,
#862,#863,#864,#865,#866,#867,#868));
#870=DERIVED_UNIT_ELEMENT(#872,1.);
#871=DERIVED_UNIT_ELEMENT(#1435,-3.);
#872=(
MASS_UNIT()
NAMED_UNIT(*)
SI_UNIT(.KILO.,.GRAM.)
);
#873=DERIVED_UNIT((#870,#871));
#874=MEASURE_REPRESENTATION_ITEM('density measure',
POSITIVE_RATIO_MEASURE(7850.),#873);
#875=PROPERTY_DEFINITION_REPRESENTATION(#880,#877);
#876=PROPERTY_DEFINITION_REPRESENTATION(#881,#878);
#877=REPRESENTATION('material name',(#879),#1432);
#878=REPRESENTATION('density',(#874),#1432);
#879=DESCRIPTIVE_REPRESENTATION_ITEM('\X2\92FC\X0\','\X2\92FC\X0\');
#880=PROPERTY_DEFINITION('material property','material name',#1442);
#881=PROPERTY_DEFINITION('material property','density of part',#1442);
#882=AXIS2_PLACEMENT_3D('',#1190,#954,#955);
#883=AXIS2_PLACEMENT_3D('',#1191,#956,#957);
#884=AXIS2_PLACEMENT_3D('',#1193,#958,#959);
#885=AXIS2_PLACEMENT_3D('',#1196,#961,#962);
#886=AXIS2_PLACEMENT_3D('',#1197,#963,#964);
#887=AXIS2_PLACEMENT_3D('',#1198,#965,#966);
#888=AXIS2_PLACEMENT_3D('',#1200,#967,#968);
#889=AXIS2_PLACEMENT_3D('',#1203,#970,#971);
#890=AXIS2_PLACEMENT_3D('',#1204,#972,#973);
#891=AXIS2_PLACEMENT_3D('',#1205,#974,#975);
#892=AXIS2_PLACEMENT_3D('',#1207,#976,#977);
#893=AXIS2_PLACEMENT_3D('',#1210,#979,#980);
#894=AXIS2_PLACEMENT_3D('',#1211,#981,#982);
#895=AXIS2_PLACEMENT_3D('',#1212,#983,#984);
#896=AXIS2_PLACEMENT_3D('',#1214,#985,#986);
#897=AXIS2_PLACEMENT_3D('',#1217,#988,#989);
#898=AXIS2_PLACEMENT_3D('',#1218,#990,#991);
#899=AXIS2_PLACEMENT_3D('',#1219,#992,#993);
#900=AXIS2_PLACEMENT_3D('',#1221,#994,#995);
#901=AXIS2_PLACEMENT_3D('',#1224,#997,#998);
#902=AXIS2_PLACEMENT_3D('',#1225,#999,#1000);
#903=AXIS2_PLACEMENT_3D('',#1227,#1001,#1002);
#904=AXIS2_PLACEMENT_3D('',#1230,#1004,#1005);
#905=AXIS2_PLACEMENT_3D('',#1231,#1006,#1007);
#906=AXIS2_PLACEMENT_3D('',#1233,#1008,#1009);
#907=AXIS2_PLACEMENT_3D('',#1236,#1011,#1012);
#908=AXIS2_PLACEMENT_3D('',#1237,#1013,#1014);
#909=AXIS2_PLACEMENT_3D('',#1239,#1015,#1016);
#910=AXIS2_PLACEMENT_3D('',#1242,#1018,#1019);
#911=AXIS2_PLACEMENT_3D('',#1243,#1020,#1021);
#912=AXIS2_PLACEMENT_3D('',#1252,#1026,#1027);
#913=AXIS2_PLACEMENT_3D('',#1260,#1032,#1033);
#914=AXIS2_PLACEMENT_3D('',#1268,#1038,#1039);
#915=AXIS2_PLACEMENT_3D('',#1270,#1041,#1042);
#916=AXIS2_PLACEMENT_3D('',#1279,#1047,#1048);
#917=AXIS2_PLACEMENT_3D('',#1287,#1053,#1054);
#918=AXIS2_PLACEMENT_3D('',#1295,#1059,#1060);
#919=AXIS2_PLACEMENT_3D('',#1297,#1062,#1063);
#920=AXIS2_PLACEMENT_3D('',#1311,#1071,#1072);
#921=AXIS2_PLACEMENT_3D('',#1317,#1076,#1077);
#922=AXIS2_PLACEMENT_3D('',#1326,#1083,#1084);
#923=AXIS2_PLACEMENT_3D('',#1330,#1087,#1088);
#924=AXIS2_PLACEMENT_3D('',#1336,#1092,#1093);
#925=AXIS2_PLACEMENT_3D('',#1345,#1098,#1099);
#926=AXIS2_PLACEMENT_3D('',#1351,#1103,#1104);
#927=AXIS2_PLACEMENT_3D('',#1357,#1108,#1109);
#928=AXIS2_PLACEMENT_3D('',#1360,#1112,#1113);
#929=AXIS2_PLACEMENT_3D('',#1361,#1114,#1115);
#930=AXIS2_PLACEMENT_3D('',#1365,#1118,#1119);
#931=AXIS2_PLACEMENT_3D('',#1367,#1121,#1122);
#932=AXIS2_PLACEMENT_3D('',#1370,#1125,#1126);
#933=AXIS2_PLACEMENT_3D('',#1371,#1127,#1128);
#934=AXIS2_PLACEMENT_3D('',#1375,#1131,#1132);
#935=AXIS2_PLACEMENT_3D('',#1379,#1135,#1136);
#936=AXIS2_PLACEMENT_3D('',#1384,#1139,#1140);
#937=AXIS2_PLACEMENT_3D('',#1386,#1141,#1142);
#938=AXIS2_PLACEMENT_3D('',#1387,#1143,#1144);
#939=AXIS2_PLACEMENT_3D('',#1389,#1145,#1146);
#940=AXIS2_PLACEMENT_3D('',#1391,#1148,#1149);
#941=AXIS2_PLACEMENT_3D('',#1393,#1150,#1151);
#942=AXIS2_PLACEMENT_3D('',#1395,#1153,#1154);
#943=AXIS2_PLACEMENT_3D('',#1400,#1156,#1157);
#944=AXIS2_PLACEMENT_3D('',#1403,#1159,#1160);
#945=AXIS2_PLACEMENT_3D('',#1404,#1161,#1162);
#946=AXIS2_PLACEMENT_3D('',#1406,#1164,#1165);
#947=AXIS2_PLACEMENT_3D('',#1411,#1167,#1168);
#948=AXIS2_PLACEMENT_3D('',#1414,#1170,#1171);
#949=AXIS2_PLACEMENT_3D('',#1415,#1172,#1173);
#950=AXIS2_PLACEMENT_3D('',#1417,#1175,#1176);
#951=AXIS2_PLACEMENT_3D('',#1425,#1182,#1183);
#952=AXIS2_PLACEMENT_3D('',#1427,#1185,#1186);
#953=AXIS2_PLACEMENT_3D('',#1429,#1188,#1189);
#954=DIRECTION('axis',(0.,0.,1.));
#955=DIRECTION('refdir',(1.,0.,0.));
#956=DIRECTION('center_axis',(0.,1.,0.));
#957=DIRECTION('ref_axis',(1.,0.,0.));
#958=DIRECTION('center_axis',(0.,1.,0.));
#959=DIRECTION('ref_axis',(1.,0.,0.));
#960=DIRECTION('',(0.,1.,0.));
#961=DIRECTION('center_axis',(0.,1.,0.));
#962=DIRECTION('ref_axis',(1.,0.,0.));
#963=DIRECTION('center_axis',(0.,1.,0.));
#964=DIRECTION('ref_axis',(1.,0.,0.));
#965=DIRECTION('center_axis',(0.,1.,0.));
#966=DIRECTION('ref_axis',(1.,0.,0.));
#967=DIRECTION('center_axis',(0.,1.,0.));
#968=DIRECTION('ref_axis',(1.,0.,0.));
#969=DIRECTION('',(0.,1.,0.));
#970=DIRECTION('center_axis',(0.,1.,0.));
#971=DIRECTION('ref_axis',(1.,0.,0.));
#972=DIRECTION('center_axis',(0.,1.,0.));
#973=DIRECTION('ref_axis',(1.,0.,0.));
#974=DIRECTION('center_axis',(0.,1.,0.));
#975=DIRECTION('ref_axis',(1.,0.,0.));
#976=DIRECTION('center_axis',(0.,1.,0.));
#977=DIRECTION('ref_axis',(1.,0.,0.));
#978=DIRECTION('',(0.,1.,0.));
#979=DIRECTION('center_axis',(0.,1.,0.));
#980=DIRECTION('ref_axis',(1.,0.,0.));
#981=DIRECTION('center_axis',(0.,1.,0.));
#982=DIRECTION('ref_axis',(1.,0.,0.));
#983=DIRECTION('center_axis',(0.,1.,0.));
#984=DIRECTION('ref_axis',(1.,0.,0.));
#985=DIRECTION('center_axis',(0.,1.,0.));
#986=DIRECTION('ref_axis',(1.,0.,0.));
#987=DIRECTION('',(0.,1.,0.));
#988=DIRECTION('center_axis',(0.,1.,0.));
#989=DIRECTION('ref_axis',(1.,0.,0.));
#990=DIRECTION('center_axis',(0.,1.,0.));
#991=DIRECTION('ref_axis',(1.,0.,0.));
#992=DIRECTION('center_axis',(0.,1.,0.));
#993=DIRECTION('ref_axis',(1.,0.,0.));
#994=DIRECTION('center_axis',(0.,1.,0.));
#995=DIRECTION('ref_axis',(1.,0.,0.));
#996=DIRECTION('',(0.,1.,0.));
#997=DIRECTION('center_axis',(0.,-1.,0.));
#998=DIRECTION('ref_axis',(1.,0.,0.));
#999=DIRECTION('center_axis',(0.,1.,0.));
#1000=DIRECTION('ref_axis',(1.,0.,0.));
#1001=DIRECTION('center_axis',(0.,1.,0.));
#1002=DIRECTION('ref_axis',(1.,0.,0.));
#1003=DIRECTION('',(0.,1.,0.));
#1004=DIRECTION('center_axis',(0.,-1.,0.));
#1005=DIRECTION('ref_axis',(1.,0.,0.));
#1006=DIRECTION('center_axis',(0.,1.,0.));
#1007=DIRECTION('ref_axis',(1.,0.,0.));
#1008=DIRECTION('center_axis',(0.,1.,0.));
#1009=DIRECTION('ref_axis',(1.,0.,0.));
#1010=DIRECTION('',(0.,1.,0.));
#1011=DIRECTION('center_axis',(0.,-1.,0.));
#1012=DIRECTION('ref_axis',(1.,0.,0.));
#1013=DIRECTION('center_axis',(0.,1.,0.));
#1014=DIRECTION('ref_axis',(1.,0.,0.));
#1015=DIRECTION('center_axis',(0.,1.,0.));
#1016=DIRECTION('ref_axis',(1.,0.,0.));
#1017=DIRECTION('',(0.,1.,0.));
#1018=DIRECTION('center_axis',(0.,-1.,0.));
#1019=DIRECTION('ref_axis',(1.,0.,0.));
#1020=DIRECTION('center_axis',(-1.,0.,0.));
#1021=DIRECTION('ref_axis',(0.,0.,1.));
#1022=DIRECTION('',(0.,0.,-1.));
#1023=DIRECTION('',(0.,1.,0.));
#1024=DIRECTION('',(0.,0.,1.));
#1025=DIRECTION('',(0.,1.,0.));
#1026=DIRECTION('center_axis',(0.,0.,-1.));
#1027=DIRECTION('ref_axis',(-1.,0.,0.));
#1028=DIRECTION('',(-1.,0.,0.));
#1029=DIRECTION('',(0.,-1.,0.));
#1030=DIRECTION('',(-1.,0.,0.));
#1031=DIRECTION('',(0.,1.,0.));
#1032=DIRECTION('center_axis',(0.,0.,1.));
#1033=DIRECTION('ref_axis',(1.,0.,0.));
#1034=DIRECTION('',(1.,0.,0.));
#1035=DIRECTION('',(0.,-1.,0.));
#1036=DIRECTION('',(1.,0.,0.));
#1037=DIRECTION('',(0.,1.,0.));
#1038=DIRECTION('center_axis',(0.,1.,0.));
#1039=DIRECTION('ref_axis',(0.,0.,1.));
#1040=DIRECTION('',(0.,0.,-1.));
#1041=DIRECTION('center_axis',(1.,0.,0.));
#1042=DIRECTION('ref_axis',(0.,0.,-1.));
#1043=DIRECTION('',(0.,0.,1.));
#1044=DIRECTION('',(0.,1.,0.));
#1045=DIRECTION('',(0.,0.,-1.));
#1046=DIRECTION('',(0.,1.,0.));
#1047=DIRECTION('center_axis',(0.,0.,-1.));
#1048=DIRECTION('ref_axis',(-1.,0.,0.));
#1049=DIRECTION('',(-1.,0.,0.));
#1050=DIRECTION('',(0.,-1.,0.));
#1051=DIRECTION('',(-1.,0.,0.));
#1052=DIRECTION('',(0.,1.,0.));
#1053=DIRECTION('center_axis',(0.,0.,1.));
#1054=DIRECTION('ref_axis',(1.,0.,0.));
#1055=DIRECTION('',(1.,0.,0.));
#1056=DIRECTION('',(0.,-1.,0.));
#1057=DIRECTION('',(1.,0.,0.));
#1058=DIRECTION('',(0.,1.,0.));
#1059=DIRECTION('center_axis',(0.,1.,0.));
#1060=DIRECTION('ref_axis',(0.,0.,1.));
#1061=DIRECTION('',(0.,0.,1.));
#1062=DIRECTION('center_axis',(1.,0.,0.));
#1063=DIRECTION('ref_axis',(0.,1.,0.));
#1064=DIRECTION('',(0.,0.,1.));
#1065=DIRECTION('',(0.,1.,0.));
#1066=DIRECTION('',(0.,0.,1.));
#1067=DIRECTION('',(0.,1.,0.));
#1068=DIRECTION('',(0.,0.,1.));
#1069=DIRECTION('',(0.,1.,0.));
#1070=DIRECTION('',(0.,0.,1.));
#1071=DIRECTION('center_axis',(1.,0.,0.));
#1072=DIRECTION('ref_axis',(0.,0.,-1.));
#1073=DIRECTION('',(0.,0.,-1.));
#1074=DIRECTION('',(0.,1.,0.));
#1075=DIRECTION('',(0.,0.,-1.));
#1076=DIRECTION('center_axis',(0.,-1.,0.));
#1077=DIRECTION('ref_axis',(1.,0.,0.));
#1078=DIRECTION('',(0.,0.,-1.));
#1079=DIRECTION('',(-1.,0.,0.));
#1080=DIRECTION('',(0.,0.,1.));
#1081=DIRECTION('',(0.,0.,1.));
#1082=DIRECTION('',(-1.,0.,0.));
#1083=DIRECTION('center_axis',(-1.,0.,0.));
#1084=DIRECTION('ref_axis',(0.,0.,1.));
#1085=DIRECTION('',(0.,1.,0.));
#1086=DIRECTION('',(0.,0.,1.));
#1087=DIRECTION('center_axis',(-1.,0.,0.));
#1088=DIRECTION('ref_axis',(0.,0.,1.));
#1089=DIRECTION('',(0.,0.,1.));
#1090=DIRECTION('',(0.,1.,0.));
#1091=DIRECTION('',(0.,0.,1.));
#1092=DIRECTION('center_axis',(-1.,0.,0.));
#1093=DIRECTION('ref_axis',(0.,0.,1.));
#1094=DIRECTION('',(0.,0.,1.));
#1095=DIRECTION('',(0.,1.,0.));
#1096=DIRECTION('',(0.,0.,1.));
#1097=DIRECTION('',(0.,1.,0.));
#1098=DIRECTION('center_axis',(0.,0.,-1.));
#1099=DIRECTION('ref_axis',(-1.,0.,0.));
#1100=DIRECTION('',(-1.,0.,0.));
#1101=DIRECTION('',(0.,1.,0.));
#1102=DIRECTION('',(-1.,0.,0.));
#1103=DIRECTION('center_axis',(1.,0.,0.));
#1104=DIRECTION('ref_axis',(0.,0.,-1.));
#1105=DIRECTION('',(0.,0.,-1.));
#1106=DIRECTION('',(0.,1.,0.));
#1107=DIRECTION('',(0.,0.,-1.));
#1108=DIRECTION('center_axis',(0.,0.,1.));
#1109=DIRECTION('ref_axis',(1.,0.,0.));
#1110=DIRECTION('',(1.,0.,0.));
#1111=DIRECTION('',(1.,0.,0.));
#1112=DIRECTION('center_axis',(0.,1.,0.));
#1113=DIRECTION('ref_axis',(0.,0.,1.));
#1114=DIRECTION('center_axis',(0.,0.,-1.));
#1115=DIRECTION('ref_axis',(-1.,0.,0.));
#1116=DIRECTION('',(0.,1.,0.));
#1117=DIRECTION('',(-1.,0.,0.));
#1118=DIRECTION('center_axis',(1.,0.,0.));
#1119=DIRECTION('ref_axis',(0.,0.,-1.));
#1120=DIRECTION('',(0.,0.,-1.));
#1121=DIRECTION('center_axis',(0.,0.,1.));
#1122=DIRECTION('ref_axis',(1.,0.,0.));
#1123=DIRECTION('',(1.,0.,0.));
#1124=DIRECTION('',(1.,0.,0.));
#1125=DIRECTION('center_axis',(0.,1.,0.));
#1126=DIRECTION('ref_axis',(0.,0.,1.));
#1127=DIRECTION('center_axis',(0.,-1.,0.));
#1128=DIRECTION('ref_axis',(1.,0.,0.));
#1129=DIRECTION('',(1.,0.,0.));
#1130=DIRECTION('',(0.,0.,1.));
#1131=DIRECTION('center_axis',(0.,0.,1.));
#1132=DIRECTION('ref_axis',(1.,0.,0.));
#1133=DIRECTION('',(0.,-1.,0.));
#1134=DIRECTION('',(-1.,0.,0.));
#1135=DIRECTION('center_axis',(0.,0.,1.));
#1136=DIRECTION('ref_axis',(1.,0.,0.));
#1137=DIRECTION('',(0.,-1.,0.));
#1138=DIRECTION('',(1.,0.,0.));
#1139=DIRECTION('center_axis',(0.,0.,-1.));
#1140=DIRECTION('ref_axis',(1.,0.,0.));
#1141=DIRECTION('center_axis',(0.,0.,-1.));
#1142=DIRECTION('ref_axis',(1.,0.,0.));
#1143=DIRECTION('center_axis',(0.,0.,1.));
#1144=DIRECTION('ref_axis',(1.,0.,0.));
#1145=DIRECTION('center_axis',(0.,0.,1.));
#1146=DIRECTION('ref_axis',(1.,0.,0.));
#1147=DIRECTION('',(0.,0.,1.));
#1148=DIRECTION('center_axis',(0.,0.,1.));
#1149=DIRECTION('ref_axis',(1.,0.,0.));
#1150=DIRECTION('center_axis',(0.,0.,1.));
#1151=DIRECTION('ref_axis',(1.,0.,0.));
#1152=DIRECTION('',(0.,0.,1.));
#1153=DIRECTION('center_axis',(0.,0.,1.));
#1154=DIRECTION('ref_axis',(6.12323399573677E-17,1.,0.));
#1155=DIRECTION('',(0.,0.,-1.));
#1156=DIRECTION('center_axis',(0.,0.,1.));
#1157=DIRECTION('ref_axis',(1.,0.,0.));
#1158=DIRECTION('',(0.,0.,1.));
#1159=DIRECTION('center_axis',(0.,0.,1.));
#1160=DIRECTION('ref_axis',(1.,0.,0.));
#1161=DIRECTION('center_axis',(0.,0.,1.));
#1162=DIRECTION('ref_axis',(1.,0.,0.));
#1163=DIRECTION('',(1.,0.,0.));
#1164=DIRECTION('center_axis',(0.,0.,1.));
#1165=DIRECTION('ref_axis',(6.12323399573677E-17,1.,0.));
#1166=DIRECTION('',(0.,0.,-1.));
#1167=DIRECTION('center_axis',(0.,0.,1.));
#1168=DIRECTION('ref_axis',(1.,0.,0.));
#1169=DIRECTION('',(0.,0.,1.));
#1170=DIRECTION('center_axis',(0.,0.,1.));
#1171=DIRECTION('ref_axis',(1.,0.,0.));
#1172=DIRECTION('center_axis',(0.,0.,1.));
#1173=DIRECTION('ref_axis',(1.,0.,0.));
#1174=DIRECTION('',(1.,0.,0.));
#1175=DIRECTION('center_axis',(0.,0.,1.));
#1176=DIRECTION('ref_axis',(1.,0.,0.));
#1177=DIRECTION('',(1.,0.,0.));
#1178=DIRECTION('',(1.,0.,0.));
#1179=DIRECTION('',(0.,-1.,0.));
#1180=DIRECTION('',(-1.,0.,0.));
#1181=DIRECTION('',(1.,0.,0.));
#1182=DIRECTION('center_axis',(0.,1.,0.));
#1183=DIRECTION('ref_axis',(-1.,0.,0.));
#1184=DIRECTION('',(0.,0.,1.));
#1185=DIRECTION('center_axis',(0.,-1.,0.));
#1186=DIRECTION('ref_axis',(1.,0.,0.));
#1187=DIRECTION('',(0.,0.,1.));
#1188=DIRECTION('center_axis',(-1.,0.,0.));
#1189=DIRECTION('ref_axis',(0.,-1.,0.));
#1190=CARTESIAN_POINT('',(0.,0.,0.));
#1191=CARTESIAN_POINT('Origin',(17.,36.2,503.65));
#1192=CARTESIAN_POINT('',(16.,36.2,503.65));
#1193=CARTESIAN_POINT('Origin',(17.,36.2,503.65));
#1194=CARTESIAN_POINT('',(16.,40.2,503.65));
#1195=CARTESIAN_POINT('',(16.,36.2,503.65));
#1196=CARTESIAN_POINT('Origin',(17.,40.2,503.65));
#1197=CARTESIAN_POINT('Origin',(17.,40.2,503.65));
#1198=CARTESIAN_POINT('Origin',(-17.,36.2,469.65));
#1199=CARTESIAN_POINT('',(-18.,36.2,469.65));
#1200=CARTESIAN_POINT('Origin',(-17.,36.2,469.65));
#1201=CARTESIAN_POINT('',(-18.,40.2,469.65));
#1202=CARTESIAN_POINT('',(-18.,36.2,469.65));
#1203=CARTESIAN_POINT('Origin',(-17.,40.2,469.65));
#1204=CARTESIAN_POINT('Origin',(-17.,40.2,469.65));
#1205=CARTESIAN_POINT('Origin',(17.,36.2,469.65));
#1206=CARTESIAN_POINT('',(16.,36.2,469.65));
#1207=CARTESIAN_POINT('Origin',(17.,36.2,469.65));
#1208=CARTESIAN_POINT('',(16.,40.2,469.65));
#1209=CARTESIAN_POINT('',(16.,36.2,469.65));
#1210=CARTESIAN_POINT('Origin',(17.,40.2,469.65));
#1211=CARTESIAN_POINT('Origin',(17.,40.2,469.65));
#1212=CARTESIAN_POINT('Origin',(-17.,36.2,503.65));
#1213=CARTESIAN_POINT('',(-18.,36.2,503.65));
#1214=CARTESIAN_POINT('Origin',(-17.,36.2,503.65));
#1215=CARTESIAN_POINT('',(-18.,40.2,503.65));
#1216=CARTESIAN_POINT('',(-18.,36.2,503.65));
#1217=CARTESIAN_POINT('Origin',(-17.,40.2,503.65));
#1218=CARTESIAN_POINT('Origin',(-17.,40.2,503.65));
#1219=CARTESIAN_POINT('Origin',(21.1,35.,504.));
#1220=CARTESIAN_POINT('',(19.85,35.,504.));
#1221=CARTESIAN_POINT('Origin',(21.1,35.,504.));
#1222=CARTESIAN_POINT('',(19.85,41.,504.));
#1223=CARTESIAN_POINT('',(19.85,35.,504.));
#1224=CARTESIAN_POINT('Origin',(21.1,41.,504.));
#1225=CARTESIAN_POINT('Origin',(-21.1,35.,470.));
#1226=CARTESIAN_POINT('',(-22.35,35.,470.));
#1227=CARTESIAN_POINT('Origin',(-21.1,35.,470.));
#1228=CARTESIAN_POINT('',(-22.35,41.,470.));
#1229=CARTESIAN_POINT('',(-22.35,35.,470.));
#1230=CARTESIAN_POINT('Origin',(-21.1,41.,470.));
#1231=CARTESIAN_POINT('Origin',(21.1,35.,470.));
#1232=CARTESIAN_POINT('',(19.85,35.,470.));
#1233=CARTESIAN_POINT('Origin',(21.1,35.,470.));
#1234=CARTESIAN_POINT('',(19.85,41.,470.));
#1235=CARTESIAN_POINT('',(19.85,35.,470.));
#1236=CARTESIAN_POINT('Origin',(21.1,41.,470.));
#1237=CARTESIAN_POINT('Origin',(-21.1,35.,504.));
#1238=CARTESIAN_POINT('',(-22.35,35.,504.));
#1239=CARTESIAN_POINT('Origin',(-21.1,35.,504.));
#1240=CARTESIAN_POINT('',(-22.35,41.,504.));
#1241=CARTESIAN_POINT('',(-22.35,35.,504.));
#1242=CARTESIAN_POINT('Origin',(-21.1,41.,504.));
#1243=CARTESIAN_POINT('Origin',(19.75,35.,476.5));
#1244=CARTESIAN_POINT('',(19.75,36.2,496.5));
#1245=CARTESIAN_POINT('',(19.75,36.2,476.5));
#1246=CARTESIAN_POINT('',(19.75,36.2,466.9));
#1247=CARTESIAN_POINT('',(19.75,37.,476.5));
#1248=CARTESIAN_POINT('',(19.75,35.,476.5));
#1249=CARTESIAN_POINT('',(19.75,37.,496.5));
#1250=CARTESIAN_POINT('',(19.75,37.,496.5));
#1251=CARTESIAN_POINT('',(19.75,35.,496.5));
#1252=CARTESIAN_POINT('Origin',(22.5,35.,476.5));
#1253=CARTESIAN_POINT('',(22.5,35.,476.5));
#1254=CARTESIAN_POINT('',(19.75,35.,476.5));
#1255=CARTESIAN_POINT('',(0.,35.,476.5));
#1256=CARTESIAN_POINT('',(22.5,37.,476.5));
#1257=CARTESIAN_POINT('',(22.5,30.5,476.5));
#1258=CARTESIAN_POINT('',(19.75,37.,476.5));
#1259=CARTESIAN_POINT('',(19.75,35.,476.5));
#1260=CARTESIAN_POINT('Origin',(19.75,35.,496.5));
#1261=CARTESIAN_POINT('',(19.75,35.,496.5));
#1262=CARTESIAN_POINT('',(22.5,35.,496.5));
#1263=CARTESIAN_POINT('',(-1.375,35.,496.5));
#1264=CARTESIAN_POINT('',(19.75,35.,496.5));
#1265=CARTESIAN_POINT('',(22.5,37.,496.5));
#1266=CARTESIAN_POINT('',(22.5,37.,496.5));
#1267=CARTESIAN_POINT('',(22.5,30.5,496.5));
#1268=CARTESIAN_POINT('Origin',(21.125,37.,486.5));
#1269=CARTESIAN_POINT('',(22.5,37.,474.1));
#1270=CARTESIAN_POINT('Origin',(-19.75,35.,496.5));
#1271=CARTESIAN_POINT('',(-19.75,36.2,476.5));
#1272=CARTESIAN_POINT('',(-19.75,36.2,496.5));
#1273=CARTESIAN_POINT('',(-19.75,36.2,506.4));
#1274=CARTESIAN_POINT('',(-19.75,37.,496.5));
#1275=CARTESIAN_POINT('',(-19.75,35.,496.5));
#1276=CARTESIAN_POINT('',(-19.75,37.,476.5));
#1277=CARTESIAN_POINT('',(-19.75,37.,476.5));
#1278=CARTESIAN_POINT('',(-19.75,35.,476.5));
#1279=CARTESIAN_POINT('Origin',(-19.75,35.,476.5));
#1280=CARTESIAN_POINT('',(-19.75,35.,476.5));
#1281=CARTESIAN_POINT('',(-22.5,35.,476.5));
#1282=CARTESIAN_POINT('',(-21.125,35.,476.5));
#1283=CARTESIAN_POINT('',(-19.75,35.,476.5));
#1284=CARTESIAN_POINT('',(-22.5,37.,476.5));
#1285=CARTESIAN_POINT('',(-22.5,37.,476.5));
#1286=CARTESIAN_POINT('',(-22.5,38.,476.5));
#1287=CARTESIAN_POINT('Origin',(-22.5,35.,496.5));
#1288=CARTESIAN_POINT('',(-22.5,35.,496.5));
#1289=CARTESIAN_POINT('',(-19.75,35.,496.5));
#1290=CARTESIAN_POINT('',(-22.5,35.,496.5));
#1291=CARTESIAN_POINT('',(-22.5,37.,496.5));
#1292=CARTESIAN_POINT('',(-22.5,38.,496.5));
#1293=CARTESIAN_POINT('',(-19.75,37.,496.5));
#1294=CARTESIAN_POINT('',(-19.75,35.,496.5));
#1295=CARTESIAN_POINT('Origin',(-21.125,37.,486.5));
#1296=CARTESIAN_POINT('',(-22.5,37.,474.1));
#1297=CARTESIAN_POINT('Origin',(22.5,26.,461.7));
#1298=CARTESIAN_POINT('',(22.5,35.,465.7));
#1299=CARTESIAN_POINT('',(22.5,35.,465.7));
#1300=CARTESIAN_POINT('',(22.5,26.,465.7));
#1301=CARTESIAN_POINT('',(22.5,26.,465.7));
#1302=CARTESIAN_POINT('',(22.5,26.,461.7));
#1303=CARTESIAN_POINT('',(22.5,26.,461.7));
#1304=CARTESIAN_POINT('',(22.5,41.,461.7));
#1305=CARTESIAN_POINT('',(22.5,26.,461.7));
#1306=CARTESIAN_POINT('',(22.5,41.,511.));
#1307=CARTESIAN_POINT('',(22.5,41.,461.7));
#1308=CARTESIAN_POINT('',(22.5,35.,511.));
#1309=CARTESIAN_POINT('',(22.5,35.,511.));
#1310=CARTESIAN_POINT('',(22.5,35.,465.7));
#1311=CARTESIAN_POINT('Origin',(19.75,35.,506.4));
#1312=CARTESIAN_POINT('',(19.75,35.,506.4));
#1313=CARTESIAN_POINT('',(19.75,35.,486.05));
#1314=CARTESIAN_POINT('',(19.75,36.2,506.4));
#1315=CARTESIAN_POINT('',(19.75,35.,506.4));
#1316=CARTESIAN_POINT('',(19.75,36.2,466.9));
#1317=CARTESIAN_POINT('Origin',(-22.5,35.,465.7));
#1318=CARTESIAN_POINT('',(19.75,35.,466.9));
#1319=CARTESIAN_POINT('',(19.75,35.,486.05));
#1320=CARTESIAN_POINT('',(-19.75,35.,466.9));
#1321=CARTESIAN_POINT('',(-1.375,35.,466.9));
#1322=CARTESIAN_POINT('',(-19.75,35.,466.3));
#1323=CARTESIAN_POINT('',(-22.5,35.,465.7));
#1324=CARTESIAN_POINT('',(-22.5,35.,465.7));
#1325=CARTESIAN_POINT('',(-11.25,35.,465.7));
#1326=CARTESIAN_POINT('Origin',(-19.75,35.,466.9));
#1327=CARTESIAN_POINT('',(-19.75,36.2,466.9));
#1328=CARTESIAN_POINT('',(-19.75,35.,466.9));
#1329=CARTESIAN_POINT('',(-19.75,36.2,506.4));
#1330=CARTESIAN_POINT('Origin',(-19.75,35.,466.9));
#1331=CARTESIAN_POINT('',(-19.75,36.2,506.4));
#1332=CARTESIAN_POINT('',(-19.75,36.2,506.4));
#1333=CARTESIAN_POINT('',(-19.75,35.,506.4));
#1334=CARTESIAN_POINT('',(-19.75,35.,506.4));
#1335=CARTESIAN_POINT('',(-19.75,35.,466.3));
#1336=CARTESIAN_POINT('Origin',(-15.5,36.2,471.15));
#1337=CARTESIAN_POINT('',(-15.5,36.2,471.15));
#1338=CARTESIAN_POINT('',(-15.5,36.2,502.15));
#1339=CARTESIAN_POINT('',(-15.5,36.2,478.9));
#1340=CARTESIAN_POINT('',(-15.5,38.7,471.15));
#1341=CARTESIAN_POINT('',(-15.5,36.2,471.15));
#1342=CARTESIAN_POINT('',(-15.5,38.7,502.15));
#1343=CARTESIAN_POINT('',(-15.5,38.7,502.15));
#1344=CARTESIAN_POINT('',(-15.5,36.2,502.15));
#1345=CARTESIAN_POINT('Origin',(15.5,36.2,471.15));
#1346=CARTESIAN_POINT('',(15.5,36.2,471.15));
#1347=CARTESIAN_POINT('',(7.75,36.2,471.15));
#1348=CARTESIAN_POINT('',(15.5,38.7,471.15));
#1349=CARTESIAN_POINT('',(15.5,36.2,471.15));
#1350=CARTESIAN_POINT('',(-15.5,38.7,471.15));
#1351=CARTESIAN_POINT('Origin',(15.5,36.2,502.15));
#1352=CARTESIAN_POINT('',(15.5,36.2,502.15));
#1353=CARTESIAN_POINT('',(15.5,36.2,494.4));
#1354=CARTESIAN_POINT('',(15.5,38.7,502.15));
#1355=CARTESIAN_POINT('',(15.5,36.2,502.15));
#1356=CARTESIAN_POINT('',(15.5,38.7,471.15));
#1357=CARTESIAN_POINT('Origin',(-15.5,36.2,502.15));
#1358=CARTESIAN_POINT('',(-7.75,36.2,502.15));
#1359=CARTESIAN_POINT('',(15.5,38.7,502.15));
#1360=CARTESIAN_POINT('Origin',(0.,38.7,486.65));
#1361=CARTESIAN_POINT('Origin',(19.75,35.,466.9));
#1362=CARTESIAN_POINT('',(19.75,36.2,466.9));
#1363=CARTESIAN_POINT('',(19.75,35.,466.9));
#1364=CARTESIAN_POINT('',(-19.75,36.2,466.9));
#1365=CARTESIAN_POINT('Origin',(19.75,35.,506.4));
#1366=CARTESIAN_POINT('',(19.75,36.2,466.9));
#1367=CARTESIAN_POINT('Origin',(-19.75,35.,506.4));
#1368=CARTESIAN_POINT('',(-21.125,35.,506.4));
#1369=CARTESIAN_POINT('',(19.75,36.2,506.4));
#1370=CARTESIAN_POINT('Origin',(0.,36.2,486.65));
#1371=CARTESIAN_POINT('Origin',(-22.5,35.,465.7));
#1372=CARTESIAN_POINT('',(-22.5,35.,511.));
#1373=CARTESIAN_POINT('',(-22.5,35.,511.));
#1374=CARTESIAN_POINT('',(-22.5,35.,465.7));
#1375=CARTESIAN_POINT('Origin',(0.,38.,511.));
#1376=CARTESIAN_POINT('',(-22.5,41.,511.));
#1377=CARTESIAN_POINT('',(-22.5,41.,511.));
#1378=CARTESIAN_POINT('',(22.5,41.,511.));
#1379=CARTESIAN_POINT('Origin',(0.,33.5,465.7));
#1380=CARTESIAN_POINT('',(-22.5,26.,465.7));
#1381=CARTESIAN_POINT('',(-22.5,41.,465.7));
#1382=CARTESIAN_POINT('',(-22.5,26.,465.7));
#1383=CARTESIAN_POINT('',(-9.8,30.5,465.7));
#1384=CARTESIAN_POINT('Origin',(-8.,30.5,465.7));
#1385=CARTESIAN_POINT('',(6.2,30.5,465.7));
#1386=CARTESIAN_POINT('Origin',(8.,30.5,465.7));
#1387=CARTESIAN_POINT('Origin',(8.,30.5,461.7));
#1388=CARTESIAN_POINT('',(6.2,30.5,461.7));
#1389=CARTESIAN_POINT('Origin',(8.,30.5,461.7));
#1390=CARTESIAN_POINT('',(6.2,30.5,461.7));
#1391=CARTESIAN_POINT('Origin',(-8.,30.5,461.7));
#1392=CARTESIAN_POINT('',(-9.8,30.5,461.7));
#1393=CARTESIAN_POINT('Origin',(-8.,30.5,461.7));
#1394=CARTESIAN_POINT('',(-9.8,30.5,461.7));
#1395=CARTESIAN_POINT('Origin',(16.5,28.,461.7));
#1396=CARTESIAN_POINT('',(19.372281323269,26.,464.2));
#1397=CARTESIAN_POINT('',(19.372281323269,26.,461.7));
#1398=CARTESIAN_POINT('',(19.372281323269,26.,461.7));
#1399=CARTESIAN_POINT('',(13.627718676731,26.,464.2));
#1400=CARTESIAN_POINT('Origin',(16.5,28.,464.2));
#1401=CARTESIAN_POINT('',(13.627718676731,26.,461.7));
#1402=CARTESIAN_POINT('',(13.627718676731,26.,461.7));
#1403=CARTESIAN_POINT('Origin',(16.5,28.,461.7));
#1404=CARTESIAN_POINT('Origin',(16.5,28.,464.2));
#1405=CARTESIAN_POINT('',(-3.,26.,464.2));
#1406=CARTESIAN_POINT('Origin',(-16.5,28.,461.7));
#1407=CARTESIAN_POINT('',(-13.627718676731,26.,464.2));
#1408=CARTESIAN_POINT('',(-13.627718676731,26.,461.7));
#1409=CARTESIAN_POINT('',(-13.627718676731,26.,461.7));
#1410=CARTESIAN_POINT('',(-19.372281323269,26.,464.2));
#1411=CARTESIAN_POINT('Origin',(-16.5,28.,464.2));
#1412=CARTESIAN_POINT('',(-19.372281323269,26.,461.7));
#1413=CARTESIAN_POINT('',(-19.372281323269,26.,461.7));
#1414=CARTESIAN_POINT('Origin',(-16.5,28.,461.7));
#1415=CARTESIAN_POINT('Origin',(-16.5,28.,464.2));
#1416=CARTESIAN_POINT('',(-19.5,26.,464.2));
#1417=CARTESIAN_POINT('Origin',(0.,33.5,461.7));
#1418=CARTESIAN_POINT('',(-22.5,26.,461.7));
#1419=CARTESIAN_POINT('',(-22.5,26.,461.7));
#1420=CARTESIAN_POINT('',(-22.5,26.,461.7));
#1421=CARTESIAN_POINT('',(-22.5,41.,461.7));
#1422=CARTESIAN_POINT('',(-22.5,41.,461.7));
#1423=CARTESIAN_POINT('',(22.5,41.,461.7));
#1424=CARTESIAN_POINT('',(-22.5,26.,461.7));
#1425=CARTESIAN_POINT('Origin',(22.5,41.,461.7));
#1426=CARTESIAN_POINT('',(-22.5,41.,461.7));
#1427=CARTESIAN_POINT('Origin',(-22.5,26.,461.7));
#1428=CARTESIAN_POINT('',(-22.5,26.,461.7));
#1429=CARTESIAN_POINT('Origin',(-22.5,41.,461.7));
#1430=UNCERTAINTY_MEASURE_WITH_UNIT(LENGTH_MEASURE(0.01),#1434,
'DISTANCE_ACCURACY_VALUE',
'Maximum model space distance between geometric entities at asserted c
onnectivities');
#1431=UNCERTAINTY_MEASURE_WITH_UNIT(LENGTH_MEASURE(0.01),#1434,
'DISTANCE_ACCURACY_VALUE',
'Maximum model space distance between geometric entities at asserted c
onnectivities');
#1432=(
GEOMETRIC_REPRESENTATION_CONTEXT(3)
GLOBAL_UNCERTAINTY_ASSIGNED_CONTEXT((#1430))
GLOBAL_UNIT_ASSIGNED_CONTEXT((#1434,#1436,#1437))
REPRESENTATION_CONTEXT('','3D')
);
#1433=(
GEOMETRIC_REPRESENTATION_CONTEXT(3)
GLOBAL_UNCERTAINTY_ASSIGNED_CONTEXT((#1431))
GLOBAL_UNIT_ASSIGNED_CONTEXT((#1434,#1436,#1437))
REPRESENTATION_CONTEXT('','3D')
);
#1434=(
LENGTH_UNIT()
NAMED_UNIT(*)
SI_UNIT(.MILLI.,.METRE.)
);
#1435=(
LENGTH_UNIT()
NAMED_UNIT(*)
SI_UNIT($,.METRE.)
);
#1436=(
NAMED_UNIT(*)
PLANE_ANGLE_UNIT()
SI_UNIT($,.RADIAN.)
);
#1437=(
NAMED_UNIT(*)
SI_UNIT($,.STERADIAN.)
SOLID_ANGLE_UNIT()
);
#1438=SHAPE_DEFINITION_REPRESENTATION(#1439,#1440);
#1439=PRODUCT_DEFINITION_SHAPE('',$,#1442);
#1440=SHAPE_REPRESENTATION('',(#882),#1432);
#1441=PRODUCT_DEFINITION_CONTEXT('part definition',#1446,'design');
#1442=PRODUCT_DEFINITION('2026-09-02-14-52-58-980','CameraMount',#1443,
#1441);
#1443=PRODUCT_DEFINITION_FORMATION('',$,#1448);
#1444=PRODUCT_RELATED_PRODUCT_CATEGORY('CameraMount','CameraMount',(#1448));
#1445=APPLICATION_PROTOCOL_DEFINITION('international standard',
'automotive_design',2009,#1446);
#1446=APPLICATION_CONTEXT(
'Core Data for Automotive Mechanical Design Process');
#1447=PRODUCT_CONTEXT('part definition',#1446,'mechanical');
#1448=PRODUCT('2026-09-02-14-52-58-980','CameraMount',$,(#1447));
#1449=PRESENTATION_STYLE_ASSIGNMENT((#1450));
#1450=SURFACE_STYLE_USAGE(.BOTH.,#1451);
#1451=SURFACE_SIDE_STYLE('',(#1452));
#1452=SURFACE_STYLE_FILL_AREA(#1453);
#1453=FILL_AREA_STYLE('\X2\92FC\X0\ - \X2\30B530C630F3\X0\',(#1454));
#1454=FILL_AREA_STYLE_COLOUR('\X2\92FC\X0\ - \X2\30B530C630F3\X0\',#1455);
#1455=COLOUR_RGB('\X2\92FC\X0\ - \X2\30B530C630F3\X0\',0.627450980392157,
0.627450980392157,0.627450980392157);
ENDSEC;
END-ISO-10303-21;
