ISO-10303-21;
HEADER;
/* Generated by software containing ST-Developer
 * from STEP Tools, Inc. (www.steptools.com) 
 */

FILE_DESCRIPTION(
/* description */ (''),
/* implementation_level */ '2;1');

FILE_NAME(
/* name */ 'CameraRetainer.step',
/* time_stamp */ '2026-09-02T14:53:06+09:00',
/* author */ (''),
/* organization */ (''),
/* preprocessor_version */ 'ST-DEVELOPER v20.1',
/* originating_system */ 'Autodesk Translation Framework v15.8.0.0',
/* authorisation */ '');

FILE_SCHEMA (('AUTOMOTIVE_DESIGN { 1 0 10303 214 3 1 1 }'));
ENDSEC;

DATA;
#10=MECHANICAL_DESIGN_GEOMETRIC_PRESENTATION_REPRESENTATION('',(#13),#319);
#11=SHAPE_REPRESENTATION_RELATIONSHIP('SRR','None',#326,#12);
#12=ADVANCED_BREP_SHAPE_REPRESENTATION('',(#14),#318);
#13=STYLED_ITEM('',(#335),#14);
#14=MANIFOLD_SOLID_BREP('\X2\30DC30C730A3\X0\1',#187);
#15=PLANE('',#207);
#16=PLANE('',#208);
#17=PLANE('',#209);
#18=PLANE('',#210);
#19=PLANE('',#211);
#20=PLANE('',#212);
#21=PLANE('',#213);
#22=PLANE('',#214);
#23=FACE_OUTER_BOUND('',#33,.T.);
#24=FACE_OUTER_BOUND('',#34,.T.);
#25=FACE_OUTER_BOUND('',#35,.T.);
#26=FACE_OUTER_BOUND('',#36,.T.);
#27=FACE_OUTER_BOUND('',#37,.T.);
#28=FACE_OUTER_BOUND('',#38,.T.);
#29=FACE_OUTER_BOUND('',#39,.T.);
#30=FACE_OUTER_BOUND('',#40,.T.);
#31=FACE_OUTER_BOUND('',#41,.T.);
#32=FACE_OUTER_BOUND('',#42,.T.);
#33=EDGE_LOOP('',(#127,#128,#129,#130));
#34=EDGE_LOOP('',(#131,#132,#133,#134));
#35=EDGE_LOOP('',(#135,#136,#137,#138));
#36=EDGE_LOOP('',(#139,#140,#141,#142,#143,#144,#145,#146));
#37=EDGE_LOOP('',(#147,#148,#149,#150));
#38=EDGE_LOOP('',(#151,#152,#153,#154));
#39=EDGE_LOOP('',(#155,#156,#157,#158));
#40=EDGE_LOOP('',(#159,#160,#161,#162));
#41=EDGE_LOOP('',(#163,#164,#165,#166));
#42=EDGE_LOOP('',(#167,#168,#169,#170,#171,#172,#173,#174));
#43=CIRCLE('',#202,1.8);
#44=CIRCLE('',#203,1.8);
#45=CIRCLE('',#205,1.8);
#46=CIRCLE('',#206,1.8);
#47=LINE('',#269,#67);
#48=LINE('',#273,#68);
#49=LINE('',#278,#69);
#50=LINE('',#282,#70);
#51=LINE('',#286,#71);
#52=LINE('',#288,#72);
#53=LINE('',#289,#73);
#54=LINE('',#292,#74);
#55=LINE('',#293,#75);
#56=LINE('',#295,#76);
#57=LINE('',#297,#77);
#58=LINE('',#298,#78);
#59=LINE('',#301,#79);
#60=LINE('',#302,#80);
#61=LINE('',#305,#81);
#62=LINE('',#306,#82);
#63=LINE('',#309,#83);
#64=LINE('',#310,#84);
#65=LINE('',#312,#85);
#66=LINE('',#314,#86);
#67=VECTOR('',#219,10.);
#68=VECTOR('',#222,10.);
#69=VECTOR('',#227,10.);
#70=VECTOR('',#230,10.);
#71=VECTOR('',#235,10.);
#72=VECTOR('',#236,10.);
#73=VECTOR('',#237,10.);
#74=VECTOR('',#240,10.);
#75=VECTOR('',#241,10.);
#76=VECTOR('',#242,10.);
#77=VECTOR('',#243,10.);
#78=VECTOR('',#244,10.);
#79=VECTOR('',#247,10.);
#80=VECTOR('',#248,10.);
#81=VECTOR('',#251,10.);
#82=VECTOR('',#252,10.);
#83=VECTOR('',#255,10.);
#84=VECTOR('',#256,10.);
#85=VECTOR('',#259,10.);
#86=VECTOR('',#262,10.);
#87=VERTEX_POINT('',#267);
#88=VERTEX_POINT('',#268);
#89=VERTEX_POINT('',#270);
#90=VERTEX_POINT('',#272);
#91=VERTEX_POINT('',#276);
#92=VERTEX_POINT('',#277);
#93=VERTEX_POINT('',#279);
#94=VERTEX_POINT('',#281);
#95=VERTEX_POINT('',#285);
#96=VERTEX_POINT('',#287);
#97=VERTEX_POINT('',#291);
#98=VERTEX_POINT('',#294);
#99=VERTEX_POINT('',#296);
#100=VERTEX_POINT('',#300);
#101=VERTEX_POINT('',#304);
#102=VERTEX_POINT('',#308);
#103=EDGE_CURVE('',#87,#88,#47,.T.);
#104=EDGE_CURVE('',#89,#87,#43,.T.);
#105=EDGE_CURVE('',#90,#89,#48,.T.);
#106=EDGE_CURVE('',#88,#90,#44,.T.);
#107=EDGE_CURVE('',#91,#92,#49,.T.);
#108=EDGE_CURVE('',#93,#91,#45,.T.);
#109=EDGE_CURVE('',#94,#93,#50,.T.);
#110=EDGE_CURVE('',#92,#94,#46,.T.);
#111=EDGE_CURVE('',#95,#89,#51,.T.);
#112=EDGE_CURVE('',#96,#95,#52,.T.);
#113=EDGE_CURVE('',#90,#96,#53,.T.);
#114=EDGE_CURVE('',#96,#97,#54,.T.);
#115=EDGE_CURVE('',#97,#93,#55,.T.);
#116=EDGE_CURVE('',#91,#98,#56,.T.);
#117=EDGE_CURVE('',#98,#99,#57,.T.);
#118=EDGE_CURVE('',#99,#88,#58,.T.);
#119=EDGE_CURVE('',#97,#100,#59,.T.);
#120=EDGE_CURVE('',#94,#100,#60,.T.);
#121=EDGE_CURVE('',#101,#92,#61,.T.);
#122=EDGE_CURVE('',#98,#101,#62,.T.);
#123=EDGE_CURVE('',#102,#101,#63,.T.);
#124=EDGE_CURVE('',#99,#102,#64,.T.);
#125=EDGE_CURVE('',#87,#102,#65,.T.);
#126=EDGE_CURVE('',#100,#95,#66,.T.);
#127=ORIENTED_EDGE('',*,*,#103,.F.);
#128=ORIENTED_EDGE('',*,*,#104,.F.);
#129=ORIENTED_EDGE('',*,*,#105,.F.);
#130=ORIENTED_EDGE('',*,*,#106,.F.);
#131=ORIENTED_EDGE('',*,*,#107,.F.);
#132=ORIENTED_EDGE('',*,*,#108,.F.);
#133=ORIENTED_EDGE('',*,*,#109,.F.);
#134=ORIENTED_EDGE('',*,*,#110,.F.);
#135=ORIENTED_EDGE('',*,*,#105,.T.);
#136=ORIENTED_EDGE('',*,*,#111,.F.);
#137=ORIENTED_EDGE('',*,*,#112,.F.);
#138=ORIENTED_EDGE('',*,*,#113,.F.);
#139=ORIENTED_EDGE('',*,*,#106,.T.);
#140=ORIENTED_EDGE('',*,*,#113,.T.);
#141=ORIENTED_EDGE('',*,*,#114,.T.);
#142=ORIENTED_EDGE('',*,*,#115,.T.);
#143=ORIENTED_EDGE('',*,*,#108,.T.);
#144=ORIENTED_EDGE('',*,*,#116,.T.);
#145=ORIENTED_EDGE('',*,*,#117,.T.);
#146=ORIENTED_EDGE('',*,*,#118,.T.);
#147=ORIENTED_EDGE('',*,*,#109,.T.);
#148=ORIENTED_EDGE('',*,*,#115,.F.);
#149=ORIENTED_EDGE('',*,*,#119,.T.);
#150=ORIENTED_EDGE('',*,*,#120,.F.);
#151=ORIENTED_EDGE('',*,*,#107,.T.);
#152=ORIENTED_EDGE('',*,*,#121,.F.);
#153=ORIENTED_EDGE('',*,*,#122,.F.);
#154=ORIENTED_EDGE('',*,*,#116,.F.);
#155=ORIENTED_EDGE('',*,*,#117,.F.);
#156=ORIENTED_EDGE('',*,*,#122,.T.);
#157=ORIENTED_EDGE('',*,*,#123,.F.);
#158=ORIENTED_EDGE('',*,*,#124,.F.);
#159=ORIENTED_EDGE('',*,*,#103,.T.);
#160=ORIENTED_EDGE('',*,*,#118,.F.);
#161=ORIENTED_EDGE('',*,*,#124,.T.);
#162=ORIENTED_EDGE('',*,*,#125,.F.);
#163=ORIENTED_EDGE('',*,*,#114,.F.);
#164=ORIENTED_EDGE('',*,*,#112,.T.);
#165=ORIENTED_EDGE('',*,*,#126,.F.);
#166=ORIENTED_EDGE('',*,*,#119,.F.);
#167=ORIENTED_EDGE('',*,*,#104,.T.);
#168=ORIENTED_EDGE('',*,*,#125,.T.);
#169=ORIENTED_EDGE('',*,*,#123,.T.);
#170=ORIENTED_EDGE('',*,*,#121,.T.);
#171=ORIENTED_EDGE('',*,*,#110,.T.);
#172=ORIENTED_EDGE('',*,*,#120,.T.);
#173=ORIENTED_EDGE('',*,*,#126,.T.);
#174=ORIENTED_EDGE('',*,*,#111,.T.);
#175=CYLINDRICAL_SURFACE('',#201,1.8);
#176=CYLINDRICAL_SURFACE('',#204,1.8);
#177=ADVANCED_FACE('',(#23),#175,.F.);
#178=ADVANCED_FACE('',(#24),#176,.F.);
#179=ADVANCED_FACE('',(#25),#15,.T.);
#180=ADVANCED_FACE('',(#26),#16,.F.);
#181=ADVANCED_FACE('',(#27),#17,.T.);
#182=ADVANCED_FACE('',(#28),#18,.T.);
#183=ADVANCED_FACE('',(#29),#19,.T.);
#184=ADVANCED_FACE('',(#30),#20,.T.);
#185=ADVANCED_FACE('',(#31),#21,.T.);
#186=ADVANCED_FACE('',(#32),#22,.T.);
#187=CLOSED_SHELL('',(#177,#178,#179,#180,#181,#182,#183,#184,#185,#186));
#188=DERIVED_UNIT_ELEMENT(#190,1.);
#189=DERIVED_UNIT_ELEMENT(#321,-3.);
#190=(
MASS_UNIT()
NAMED_UNIT(*)
SI_UNIT(.KILO.,.GRAM.)
);
#191=DERIVED_UNIT((#188,#189));
#192=MEASURE_REPRESENTATION_ITEM('density measure',
POSITIVE_RATIO_MEASURE(7850.),#191);
#193=PROPERTY_DEFINITION_REPRESENTATION(#198,#195);
#194=PROPERTY_DEFINITION_REPRESENTATION(#199,#196);
#195=REPRESENTATION('material name',(#197),#318);
#196=REPRESENTATION('density',(#192),#318);
#197=DESCRIPTIVE_REPRESENTATION_ITEM('\X2\92FC\X0\','\X2\92FC\X0\');
#198=PROPERTY_DEFINITION('material property','material name',#328);
#199=PROPERTY_DEFINITION('material property','density of part',#328);
#200=AXIS2_PLACEMENT_3D('',#265,#215,#216);
#201=AXIS2_PLACEMENT_3D('',#266,#217,#218);
#202=AXIS2_PLACEMENT_3D('',#271,#220,#221);
#203=AXIS2_PLACEMENT_3D('',#274,#223,#224);
#204=AXIS2_PLACEMENT_3D('',#275,#225,#226);
#205=AXIS2_PLACEMENT_3D('',#280,#228,#229);
#206=AXIS2_PLACEMENT_3D('',#283,#231,#232);
#207=AXIS2_PLACEMENT_3D('',#284,#233,#234);
#208=AXIS2_PLACEMENT_3D('',#290,#238,#239);
#209=AXIS2_PLACEMENT_3D('',#299,#245,#246);
#210=AXIS2_PLACEMENT_3D('',#303,#249,#250);
#211=AXIS2_PLACEMENT_3D('',#307,#253,#254);
#212=AXIS2_PLACEMENT_3D('',#311,#257,#258);
#213=AXIS2_PLACEMENT_3D('',#313,#260,#261);
#214=AXIS2_PLACEMENT_3D('',#315,#263,#264);
#215=DIRECTION('axis',(0.,0.,1.));
#216=DIRECTION('refdir',(1.,0.,0.));
#217=DIRECTION('center_axis',(0.,1.,0.));
#218=DIRECTION('ref_axis',(-1.,0.,-1.22464679914735E-16));
#219=DIRECTION('',(0.,-1.,0.));
#220=DIRECTION('center_axis',(0.,-1.,0.));
#221=DIRECTION('ref_axis',(1.,0.,0.));
#222=DIRECTION('',(0.,1.,0.));
#223=DIRECTION('center_axis',(0.,1.,0.));
#224=DIRECTION('ref_axis',(1.,0.,0.));
#225=DIRECTION('center_axis',(0.,1.,0.));
#226=DIRECTION('ref_axis',(1.,0.,0.));
#227=DIRECTION('',(0.,1.,0.));
#228=DIRECTION('center_axis',(0.,1.,0.));
#229=DIRECTION('ref_axis',(1.,0.,0.));
#230=DIRECTION('',(0.,-1.,0.));
#231=DIRECTION('center_axis',(0.,-1.,0.));
#232=DIRECTION('ref_axis',(1.,0.,0.));
#233=DIRECTION('center_axis',(1.,0.,0.));
#234=DIRECTION('ref_axis',(0.,0.,-1.));
#235=DIRECTION('',(0.,0.,-1.));
#236=DIRECTION('',(0.,1.,0.));
#237=DIRECTION('',(0.,0.,1.));
#238=DIRECTION('center_axis',(0.,1.,0.));
#239=DIRECTION('ref_axis',(1.,0.,0.));
#240=DIRECTION('',(-1.,0.,0.));
#241=DIRECTION('',(0.,0.,-1.));
#242=DIRECTION('',(0.,0.,-1.));
#243=DIRECTION('',(1.,0.,0.));
#244=DIRECTION('',(0.,0.,1.));
#245=DIRECTION('center_axis',(-1.,0.,0.));
#246=DIRECTION('ref_axis',(0.,0.,1.));
#247=DIRECTION('',(0.,1.,0.));
#248=DIRECTION('',(0.,0.,1.));
#249=DIRECTION('center_axis',(-1.,0.,0.));
#250=DIRECTION('ref_axis',(0.,0.,1.));
#251=DIRECTION('',(0.,0.,1.));
#252=DIRECTION('',(0.,1.,0.));
#253=DIRECTION('center_axis',(0.,0.,-1.));
#254=DIRECTION('ref_axis',(-1.,0.,0.));
#255=DIRECTION('',(-1.,0.,0.));
#256=DIRECTION('',(0.,1.,0.));
#257=DIRECTION('center_axis',(1.,0.,0.));
#258=DIRECTION('ref_axis',(0.,0.,-1.));
#259=DIRECTION('',(0.,0.,-1.));
#260=DIRECTION('center_axis',(0.,0.,1.));
#261=DIRECTION('ref_axis',(1.,0.,0.));
#262=DIRECTION('',(1.,0.,0.));
#263=DIRECTION('center_axis',(0.,1.,0.));
#264=DIRECTION('ref_axis',(0.,0.,1.));
#265=CARTESIAN_POINT('',(0.,0.,0.));
#266=CARTESIAN_POINT('Origin',(21.1,32.,470.));
#267=CARTESIAN_POINT('',(22.5,35.,468.868629150102));
#268=CARTESIAN_POINT('',(22.5,32.,468.868629150102));
#269=CARTESIAN_POINT('',(22.5,32.,468.868629150102));
#270=CARTESIAN_POINT('',(22.5,35.,471.131370849898));
#271=CARTESIAN_POINT('Origin',(21.1,35.,470.));
#272=CARTESIAN_POINT('',(22.5,32.,471.131370849898));
#273=CARTESIAN_POINT('',(22.5,32.,471.131370849898));
#274=CARTESIAN_POINT('Origin',(21.1,32.,470.));
#275=CARTESIAN_POINT('Origin',(-21.1,32.,470.));
#276=CARTESIAN_POINT('',(-22.5,32.,468.868629150102));
#277=CARTESIAN_POINT('',(-22.5,35.,468.868629150102));
#278=CARTESIAN_POINT('',(-22.5,32.,468.868629150102));
#279=CARTESIAN_POINT('',(-22.5,32.,471.131370849898));
#280=CARTESIAN_POINT('Origin',(-21.1,32.,470.));
#281=CARTESIAN_POINT('',(-22.5,35.,471.131370849898));
#282=CARTESIAN_POINT('',(-22.5,32.,471.131370849898));
#283=CARTESIAN_POINT('Origin',(-21.1,35.,470.));
#284=CARTESIAN_POINT('Origin',(22.5,32.,474.));
#285=CARTESIAN_POINT('',(22.5,35.,474.));
#286=CARTESIAN_POINT('',(22.5,35.,466.));
#287=CARTESIAN_POINT('',(22.5,32.,474.));
#288=CARTESIAN_POINT('',(22.5,32.,474.));
#289=CARTESIAN_POINT('',(22.5,32.,466.));
#290=CARTESIAN_POINT('Origin',(0.,32.,470.));
#291=CARTESIAN_POINT('',(-22.5,32.,474.));
#292=CARTESIAN_POINT('',(22.5,32.,474.));
#293=CARTESIAN_POINT('',(-22.5,32.,474.));
#294=CARTESIAN_POINT('',(-22.5,32.,466.));
#295=CARTESIAN_POINT('',(-22.5,32.,474.));
#296=CARTESIAN_POINT('',(22.5,32.,466.));
#297=CARTESIAN_POINT('',(-22.5,32.,466.));
#298=CARTESIAN_POINT('',(22.5,32.,466.));
#299=CARTESIAN_POINT('Origin',(-22.5,32.,466.));
#300=CARTESIAN_POINT('',(-22.5,35.,474.));
#301=CARTESIAN_POINT('',(-22.5,32.,474.));
#302=CARTESIAN_POINT('',(-22.5,35.,474.));
#303=CARTESIAN_POINT('Origin',(-22.5,32.,466.));
#304=CARTESIAN_POINT('',(-22.5,35.,466.));
#305=CARTESIAN_POINT('',(-22.5,35.,474.));
#306=CARTESIAN_POINT('',(-22.5,32.,466.));
#307=CARTESIAN_POINT('Origin',(22.5,32.,466.));
#308=CARTESIAN_POINT('',(22.5,35.,466.));
#309=CARTESIAN_POINT('',(-22.5,35.,466.));
#310=CARTESIAN_POINT('',(22.5,32.,466.));
#311=CARTESIAN_POINT('Origin',(22.5,32.,474.));
#312=CARTESIAN_POINT('',(22.5,35.,466.));
#313=CARTESIAN_POINT('Origin',(-22.5,32.,474.));
#314=CARTESIAN_POINT('',(22.5,35.,474.));
#315=CARTESIAN_POINT('Origin',(0.,35.,470.));
#316=UNCERTAINTY_MEASURE_WITH_UNIT(LENGTH_MEASURE(0.01),#320,
'DISTANCE_ACCURACY_VALUE',
'Maximum model space distance between geometric entities at asserted c
onnectivities');
#317=UNCERTAINTY_MEASURE_WITH_UNIT(LENGTH_MEASURE(0.01),#320,
'DISTANCE_ACCURACY_VALUE',
'Maximum model space distance between geometric entities at asserted c
onnectivities');
#318=(
GEOMETRIC_REPRESENTATION_CONTEXT(3)
GLOBAL_UNCERTAINTY_ASSIGNED_CONTEXT((#316))
GLOBAL_UNIT_ASSIGNED_CONTEXT((#320,#322,#323))
REPRESENTATION_CONTEXT('','3D')
);
#319=(
GEOMETRIC_REPRESENTATION_CONTEXT(3)
GLOBAL_UNCERTAINTY_ASSIGNED_CONTEXT((#317))
GLOBAL_UNIT_ASSIGNED_CONTEXT((#320,#322,#323))
REPRESENTATION_CONTEXT('','3D')
);
#320=(
LENGTH_UNIT()
NAMED_UNIT(*)
SI_UNIT(.MILLI.,.METRE.)
);
#321=(
LENGTH_UNIT()
NAMED_UNIT(*)
SI_UNIT($,.METRE.)
);
#322=(
NAMED_UNIT(*)
PLANE_ANGLE_UNIT()
SI_UNIT($,.RADIAN.)
);
#323=(
NAMED_UNIT(*)
SI_UNIT($,.STERADIAN.)
SOLID_ANGLE_UNIT()
);
#324=SHAPE_DEFINITION_REPRESENTATION(#325,#326);
#325=PRODUCT_DEFINITION_SHAPE('',$,#328);
#326=SHAPE_REPRESENTATION('',(#200),#318);
#327=PRODUCT_DEFINITION_CONTEXT('part definition',#332,'design');
#328=PRODUCT_DEFINITION('2026-09-02-14-53-06-708','CameraRetainer',#329,
#327);
#329=PRODUCT_DEFINITION_FORMATION('',$,#334);
#330=PRODUCT_RELATED_PRODUCT_CATEGORY('CameraRetainer','CameraRetainer',
(#334));
#331=APPLICATION_PROTOCOL_DEFINITION('international standard',
'automotive_design',2009,#332);
#332=APPLICATION_CONTEXT(
'Core Data for Automotive Mechanical Design Process');
#333=PRODUCT_CONTEXT('part definition',#332,'mechanical');
#334=PRODUCT('2026-09-02-14-53-06-708','CameraRetainer',$,(#333));
#335=PRESENTATION_STYLE_ASSIGNMENT((#336));
#336=SURFACE_STYLE_USAGE(.BOTH.,#337);
#337=SURFACE_SIDE_STYLE('',(#338));
#338=SURFACE_STYLE_FILL_AREA(#339);
#339=FILL_AREA_STYLE('\X2\92FC\X0\ - \X2\30B530C630F3\X0\',(#340));
#340=FILL_AREA_STYLE_COLOUR('\X2\92FC\X0\ - \X2\30B530C630F3\X0\',#341);
#341=COLOUR_RGB('\X2\92FC\X0\ - \X2\30B530C630F3\X0\',0.627450980392157,
0.627450980392157,0.627450980392157);
ENDSEC;
END-ISO-10303-21;
