ISO-10303-21;
HEADER;
/* Generated by software containing ST-Developer
 * from STEP Tools, Inc. (www.steptools.com) 
 */

FILE_DESCRIPTION(
/* description */ (''),
/* implementation_level */ '2;1');

FILE_NAME(
/* name */ 'Finger_B.step',
/* time_stamp */ '2026-09-02T14:52:33+09:00',
/* author */ (''),
/* organization */ (''),
/* preprocessor_version */ 'ST-DEVELOPER v20.1',
/* originating_system */ 'Autodesk Translation Framework v15.8.0.0',
/* authorisation */ '');

FILE_SCHEMA (('AUTOMOTIVE_DESIGN { 1 0 10303 214 3 1 1 }'));
ENDSEC;

DATA;
#10=MECHANICAL_DESIGN_GEOMETRIC_PRESENTATION_REPRESENTATION('',(#13),#2310);
#11=SHAPE_REPRESENTATION_RELATIONSHIP('SRR','None',#2317,#12);
#12=ADVANCED_BREP_SHAPE_REPRESENTATION('',(#14),#2309);
#13=STYLED_ITEM('',(#2326),#14);
#14=MANIFOLD_SOLID_BREP('\X2\30DC30C730A3\X0\1',#1460);
#15=FACE_OUTER_BOUND('',#86,.T.);
#16=FACE_OUTER_BOUND('',#87,.T.);
#17=FACE_OUTER_BOUND('',#88,.T.);
#18=FACE_OUTER_BOUND('',#89,.T.);
#19=FACE_OUTER_BOUND('',#90,.T.);
#20=FACE_OUTER_BOUND('',#91,.T.);
#21=FACE_OUTER_BOUND('',#92,.T.);
#22=FACE_OUTER_BOUND('',#93,.T.);
#23=FACE_OUTER_BOUND('',#94,.T.);
#24=FACE_OUTER_BOUND('',#95,.T.);
#25=FACE_OUTER_BOUND('',#96,.T.);
#26=FACE_OUTER_BOUND('',#97,.T.);
#27=FACE_OUTER_BOUND('',#98,.T.);
#28=FACE_OUTER_BOUND('',#99,.T.);
#29=FACE_OUTER_BOUND('',#100,.T.);
#30=FACE_OUTER_BOUND('',#101,.T.);
#31=FACE_OUTER_BOUND('',#102,.T.);
#32=FACE_OUTER_BOUND('',#103,.T.);
#33=FACE_OUTER_BOUND('',#104,.T.);
#34=FACE_OUTER_BOUND('',#105,.T.);
#35=FACE_OUTER_BOUND('',#106,.T.);
#36=FACE_OUTER_BOUND('',#107,.T.);
#37=FACE_OUTER_BOUND('',#108,.T.);
#38=FACE_OUTER_BOUND('',#109,.T.);
#39=FACE_OUTER_BOUND('',#110,.T.);
#40=FACE_OUTER_BOUND('',#111,.T.);
#41=FACE_OUTER_BOUND('',#112,.T.);
#42=FACE_OUTER_BOUND('',#113,.T.);
#43=FACE_OUTER_BOUND('',#114,.T.);
#44=FACE_OUTER_BOUND('',#115,.T.);
#45=FACE_OUTER_BOUND('',#116,.T.);
#46=FACE_OUTER_BOUND('',#117,.T.);
#47=FACE_OUTER_BOUND('',#118,.T.);
#48=FACE_OUTER_BOUND('',#119,.T.);
#49=FACE_OUTER_BOUND('',#120,.T.);
#50=FACE_OUTER_BOUND('',#121,.T.);
#51=FACE_OUTER_BOUND('',#122,.T.);
#52=FACE_OUTER_BOUND('',#123,.T.);
#53=FACE_OUTER_BOUND('',#124,.T.);
#54=FACE_OUTER_BOUND('',#125,.T.);
#55=FACE_OUTER_BOUND('',#126,.T.);
#56=FACE_OUTER_BOUND('',#127,.T.);
#57=FACE_OUTER_BOUND('',#128,.T.);
#58=FACE_OUTER_BOUND('',#129,.T.);
#59=FACE_OUTER_BOUND('',#130,.T.);
#60=FACE_OUTER_BOUND('',#131,.T.);
#61=FACE_OUTER_BOUND('',#132,.T.);
#62=FACE_OUTER_BOUND('',#133,.T.);
#63=FACE_OUTER_BOUND('',#134,.T.);
#64=FACE_OUTER_BOUND('',#135,.T.);
#65=FACE_OUTER_BOUND('',#136,.T.);
#66=FACE_OUTER_BOUND('',#137,.T.);
#67=FACE_OUTER_BOUND('',#138,.T.);
#68=FACE_OUTER_BOUND('',#139,.T.);
#69=FACE_OUTER_BOUND('',#140,.T.);
#70=FACE_OUTER_BOUND('',#141,.T.);
#71=FACE_OUTER_BOUND('',#142,.T.);
#72=FACE_OUTER_BOUND('',#143,.T.);
#73=FACE_OUTER_BOUND('',#144,.T.);
#74=FACE_OUTER_BOUND('',#145,.T.);
#75=FACE_OUTER_BOUND('',#146,.T.);
#76=FACE_OUTER_BOUND('',#147,.T.);
#77=FACE_OUTER_BOUND('',#148,.T.);
#78=FACE_OUTER_BOUND('',#149,.T.);
#79=FACE_OUTER_BOUND('',#150,.T.);
#80=FACE_OUTER_BOUND('',#151,.T.);
#81=FACE_OUTER_BOUND('',#152,.T.);
#82=FACE_OUTER_BOUND('',#153,.T.);
#83=FACE_OUTER_BOUND('',#154,.T.);
#84=FACE_OUTER_BOUND('',#155,.T.);
#85=FACE_OUTER_BOUND('',#156,.T.);
#86=EDGE_LOOP('',(#908,#909,#910,#911,#912));
#87=EDGE_LOOP('',(#913,#914,#915,#916));
#88=EDGE_LOOP('',(#917,#918,#919,#920));
#89=EDGE_LOOP('',(#921,#922,#923,#924));
#90=EDGE_LOOP('',(#925,#926,#927,#928,#929,#930));
#91=EDGE_LOOP('',(#931,#932,#933,#934));
#92=EDGE_LOOP('',(#935,#936,#937,#938));
#93=EDGE_LOOP('',(#939,#940,#941,#942));
#94=EDGE_LOOP('',(#943,#944,#945,#946));
#95=EDGE_LOOP('',(#947,#948,#949,#950));
#96=EDGE_LOOP('',(#951,#952,#953,#954));
#97=EDGE_LOOP('',(#955,#956,#957,#958));
#98=EDGE_LOOP('',(#959,#960,#961,#962));
#99=EDGE_LOOP('',(#963,#964,#965,#966));
#100=EDGE_LOOP('',(#967,#968,#969,#970));
#101=EDGE_LOOP('',(#971,#972,#973,#974));
#102=EDGE_LOOP('',(#975,#976,#977,#978));
#103=EDGE_LOOP('',(#979,#980,#981,#982));
#104=EDGE_LOOP('',(#983,#984,#985,#986));
#105=EDGE_LOOP('',(#987,#988,#989,#990));
#106=EDGE_LOOP('',(#991,#992,#993,#994));
#107=EDGE_LOOP('',(#995,#996,#997,#998));
#108=EDGE_LOOP('',(#999,#1000,#1001,#1002));
#109=EDGE_LOOP('',(#1003,#1004,#1005,#1006));
#110=EDGE_LOOP('',(#1007,#1008,#1009,#1010));
#111=EDGE_LOOP('',(#1011,#1012,#1013,#1014));
#112=EDGE_LOOP('',(#1015,#1016,#1017,#1018));
#113=EDGE_LOOP('',(#1019,#1020,#1021,#1022));
#114=EDGE_LOOP('',(#1023,#1024,#1025,#1026));
#115=EDGE_LOOP('',(#1027,#1028,#1029,#1030));
#116=EDGE_LOOP('',(#1031,#1032,#1033,#1034));
#117=EDGE_LOOP('',(#1035,#1036,#1037,#1038));
#118=EDGE_LOOP('',(#1039,#1040,#1041,#1042));
#119=EDGE_LOOP('',(#1043,#1044,#1045,#1046));
#120=EDGE_LOOP('',(#1047,#1048,#1049,#1050));
#121=EDGE_LOOP('',(#1051,#1052,#1053,#1054));
#122=EDGE_LOOP('',(#1055,#1056,#1057,#1058,#1059));
#123=EDGE_LOOP('',(#1060,#1061,#1062,#1063));
#124=EDGE_LOOP('',(#1064,#1065,#1066,#1067,#1068,#1069,#1070,#1071));
#125=EDGE_LOOP('',(#1072,#1073,#1074,#1075));
#126=EDGE_LOOP('',(#1076,#1077,#1078,#1079,#1080,#1081,#1082,#1083,#1084,
#1085));
#127=EDGE_LOOP('',(#1086,#1087,#1088,#1089,#1090,#1091,#1092,#1093));
#128=EDGE_LOOP('',(#1094,#1095,#1096,#1097));
#129=EDGE_LOOP('',(#1098,#1099,#1100,#1101));
#130=EDGE_LOOP('',(#1102,#1103,#1104,#1105));
#131=EDGE_LOOP('',(#1106,#1107,#1108,#1109));
#132=EDGE_LOOP('',(#1110,#1111,#1112,#1113,#1114,#1115));
#133=EDGE_LOOP('',(#1116,#1117,#1118,#1119));
#134=EDGE_LOOP('',(#1120,#1121,#1122,#1123));
#135=EDGE_LOOP('',(#1124,#1125,#1126,#1127));
#136=EDGE_LOOP('',(#1128,#1129,#1130,#1131,#1132,#1133,#1134,#1135,#1136,
#1137,#1138,#1139,#1140,#1141,#1142,#1143,#1144,#1145,#1146,#1147,#1148,
#1149,#1150,#1151,#1152,#1153,#1154,#1155,#1156,#1157,#1158,#1159,#1160,
#1161,#1162,#1163,#1164,#1165,#1166,#1167,#1168,#1169,#1170,#1171,#1172,
#1173,#1174,#1175,#1176,#1177,#1178,#1179,#1180,#1181,#1182,#1183,#1184,
#1185,#1186,#1187));
#137=EDGE_LOOP('',(#1188,#1189,#1190,#1191));
#138=EDGE_LOOP('',(#1192,#1193,#1194,#1195));
#139=EDGE_LOOP('',(#1196,#1197,#1198,#1199));
#140=EDGE_LOOP('',(#1200,#1201,#1202,#1203));
#141=EDGE_LOOP('',(#1204,#1205,#1206,#1207));
#142=EDGE_LOOP('',(#1208,#1209,#1210,#1211));
#143=EDGE_LOOP('',(#1212,#1213,#1214,#1215));
#144=EDGE_LOOP('',(#1216,#1217,#1218,#1219));
#145=EDGE_LOOP('',(#1220,#1221,#1222,#1223));
#146=EDGE_LOOP('',(#1224,#1225,#1226,#1227));
#147=EDGE_LOOP('',(#1228,#1229,#1230,#1231));
#148=EDGE_LOOP('',(#1232,#1233,#1234,#1235));
#149=EDGE_LOOP('',(#1236,#1237,#1238,#1239));
#150=EDGE_LOOP('',(#1240,#1241,#1242,#1243));
#151=EDGE_LOOP('',(#1244,#1245,#1246,#1247));
#152=EDGE_LOOP('',(#1248,#1249,#1250,#1251));
#153=EDGE_LOOP('',(#1252,#1253,#1254,#1255));
#154=EDGE_LOOP('',(#1256,#1257,#1258,#1259));
#155=EDGE_LOOP('',(#1260,#1261,#1262,#1263));
#156=EDGE_LOOP('',(#1264,#1265,#1266,#1267,#1268,#1269,#1270,#1271,#1272,
#1273,#1274,#1275,#1276,#1277,#1278,#1279,#1280,#1281,#1282,#1283,#1284,
#1285,#1286,#1287,#1288,#1289,#1290,#1291,#1292,#1293,#1294,#1295,#1296,
#1297,#1298,#1299,#1300,#1301,#1302,#1303,#1304,#1305,#1306,#1307,#1308,
#1309,#1310,#1311,#1312,#1313,#1314,#1315,#1316,#1317));
#157=LINE('',#1898,#362);
#158=LINE('',#1900,#363);
#159=LINE('',#1902,#364);
#160=LINE('',#1904,#365);
#161=LINE('',#1905,#366);
#162=LINE('',#1909,#367);
#163=LINE('',#1911,#368);
#164=LINE('',#1913,#369);
#165=LINE('',#1914,#370);
#166=LINE('',#1917,#371);
#167=LINE('',#1919,#372);
#168=LINE('',#1920,#373);
#169=LINE('',#1924,#374);
#170=LINE('',#1925,#375);
#171=LINE('',#1926,#376);
#172=LINE('',#1929,#377);
#173=LINE('',#1931,#378);
#174=LINE('',#1933,#379);
#175=LINE('',#1934,#380);
#176=LINE('',#1936,#381);
#177=LINE('',#1937,#382);
#178=LINE('',#1941,#383);
#179=LINE('',#1943,#384);
#180=LINE('',#1945,#385);
#181=LINE('',#1946,#386);
#182=LINE('',#1950,#387);
#183=LINE('',#1952,#388);
#184=LINE('',#1954,#389);
#185=LINE('',#1955,#390);
#186=LINE('',#1958,#391);
#187=LINE('',#1960,#392);
#188=LINE('',#1961,#393);
#189=LINE('',#1964,#394);
#190=LINE('',#1966,#395);
#191=LINE('',#1967,#396);
#192=LINE('',#1969,#397);
#193=LINE('',#1970,#398);
#194=LINE('',#1974,#399);
#195=LINE('',#1976,#400);
#196=LINE('',#1978,#401);
#197=LINE('',#1979,#402);
#198=LINE('',#1983,#403);
#199=LINE('',#1985,#404);
#200=LINE('',#1987,#405);
#201=LINE('',#1988,#406);
#202=LINE('',#1991,#407);
#203=LINE('',#1993,#408);
#204=LINE('',#1994,#409);
#205=LINE('',#1997,#410);
#206=LINE('',#1999,#411);
#207=LINE('',#2000,#412);
#208=LINE('',#2002,#413);
#209=LINE('',#2003,#414);
#210=LINE('',#2007,#415);
#211=LINE('',#2009,#416);
#212=LINE('',#2011,#417);
#213=LINE('',#2012,#418);
#214=LINE('',#2016,#419);
#215=LINE('',#2018,#420);
#216=LINE('',#2020,#421);
#217=LINE('',#2021,#422);
#218=LINE('',#2024,#423);
#219=LINE('',#2026,#424);
#220=LINE('',#2027,#425);
#221=LINE('',#2030,#426);
#222=LINE('',#2032,#427);
#223=LINE('',#2033,#428);
#224=LINE('',#2035,#429);
#225=LINE('',#2036,#430);
#226=LINE('',#2040,#431);
#227=LINE('',#2042,#432);
#228=LINE('',#2044,#433);
#229=LINE('',#2045,#434);
#230=LINE('',#2049,#435);
#231=LINE('',#2051,#436);
#232=LINE('',#2053,#437);
#233=LINE('',#2054,#438);
#234=LINE('',#2057,#439);
#235=LINE('',#2059,#440);
#236=LINE('',#2060,#441);
#237=LINE('',#2063,#442);
#238=LINE('',#2065,#443);
#239=LINE('',#2066,#444);
#240=LINE('',#2068,#445);
#241=LINE('',#2069,#446);
#242=LINE('',#2073,#447);
#243=LINE('',#2075,#448);
#244=LINE('',#2077,#449);
#245=LINE('',#2078,#450);
#246=LINE('',#2082,#451);
#247=LINE('',#2084,#452);
#248=LINE('',#2086,#453);
#249=LINE('',#2087,#454);
#250=LINE('',#2089,#455);
#251=LINE('',#2090,#456);
#252=LINE('',#2094,#457);
#253=LINE('',#2096,#458);
#254=LINE('',#2098,#459);
#255=LINE('',#2099,#460);
#256=LINE('',#2103,#461);
#257=LINE('',#2105,#462);
#258=LINE('',#2107,#463);
#259=LINE('',#2108,#464);
#260=LINE('',#2111,#465);
#261=LINE('',#2113,#466);
#262=LINE('',#2114,#467);
#263=LINE('',#2117,#468);
#264=LINE('',#2119,#469);
#265=LINE('',#2120,#470);
#266=LINE('',#2122,#471);
#267=LINE('',#2123,#472);
#268=LINE('',#2127,#473);
#269=LINE('',#2129,#474);
#270=LINE('',#2131,#475);
#271=LINE('',#2132,#476);
#272=LINE('',#2136,#477);
#273=LINE('',#2138,#478);
#274=LINE('',#2140,#479);
#275=LINE('',#2141,#480);
#276=LINE('',#2143,#481);
#277=LINE('',#2145,#482);
#278=LINE('',#2146,#483);
#279=LINE('',#2149,#484);
#280=LINE('',#2150,#485);
#281=LINE('',#2153,#486);
#282=LINE('',#2155,#487);
#283=LINE('',#2157,#488);
#284=LINE('',#2159,#489);
#285=LINE('',#2161,#490);
#286=LINE('',#2162,#491);
#287=LINE('',#2165,#492);
#288=LINE('',#2167,#493);
#289=LINE('',#2168,#494);
#290=LINE('',#2171,#495);
#291=LINE('',#2173,#496);
#292=LINE('',#2175,#497);
#293=LINE('',#2177,#498);
#294=LINE('',#2179,#499);
#295=LINE('',#2181,#500);
#296=LINE('',#2183,#501);
#297=LINE('',#2184,#502);
#298=LINE('',#2186,#503);
#299=LINE('',#2187,#504);
#300=LINE('',#2189,#505);
#301=LINE('',#2191,#506);
#302=LINE('',#2193,#507);
#303=LINE('',#2194,#508);
#304=LINE('',#2198,#509);
#305=LINE('',#2200,#510);
#306=LINE('',#2201,#511);
#307=LINE('',#2204,#512);
#308=LINE('',#2205,#513);
#309=LINE('',#2208,#514);
#310=LINE('',#2209,#515);
#311=LINE('',#2211,#516);
#312=LINE('',#2213,#517);
#313=LINE('',#2215,#518);
#314=LINE('',#2217,#519);
#315=LINE('',#2218,#520);
#316=LINE('',#2220,#521);
#317=LINE('',#2222,#522);
#318=LINE('',#2223,#523);
#319=LINE('',#2225,#524);
#320=LINE('',#2227,#525);
#321=LINE('',#2228,#526);
#322=LINE('',#2230,#527);
#323=LINE('',#2232,#528);
#324=LINE('',#2233,#529);
#325=LINE('',#2235,#530);
#326=LINE('',#2237,#531);
#327=LINE('',#2238,#532);
#328=LINE('',#2240,#533);
#329=LINE('',#2242,#534);
#330=LINE('',#2243,#535);
#331=LINE('',#2246,#536);
#332=LINE('',#2247,#537);
#333=LINE('',#2250,#538);
#334=LINE('',#2251,#539);
#335=LINE('',#2253,#540);
#336=LINE('',#2256,#541);
#337=LINE('',#2257,#542);
#338=LINE('',#2260,#543);
#339=LINE('',#2261,#544);
#340=LINE('',#2263,#545);
#341=LINE('',#2266,#546);
#342=LINE('',#2267,#547);
#343=LINE('',#2270,#548);
#344=LINE('',#2271,#549);
#345=LINE('',#2273,#550);
#346=LINE('',#2276,#551);
#347=LINE('',#2277,#552);
#348=LINE('',#2280,#553);
#349=LINE('',#2281,#554);
#350=LINE('',#2283,#555);
#351=LINE('',#2286,#556);
#352=LINE('',#2287,#557);
#353=LINE('',#2290,#558);
#354=LINE('',#2291,#559);
#355=LINE('',#2293,#560);
#356=LINE('',#2296,#561);
#357=LINE('',#2297,#562);
#358=LINE('',#2300,#563);
#359=LINE('',#2301,#564);
#360=LINE('',#2303,#565);
#361=LINE('',#2305,#566);
#362=VECTOR('',#1549,10.);
#363=VECTOR('',#1550,10.);
#364=VECTOR('',#1551,10.);
#365=VECTOR('',#1552,10.);
#366=VECTOR('',#1553,10.);
#367=VECTOR('',#1556,10.);
#368=VECTOR('',#1557,10.);
#369=VECTOR('',#1558,10.);
#370=VECTOR('',#1559,10.);
#371=VECTOR('',#1562,10.);
#372=VECTOR('',#1563,10.);
#373=VECTOR('',#1564,10.);
#374=VECTOR('',#1567,10.);
#375=VECTOR('',#1568,10.);
#376=VECTOR('',#1569,10.);
#377=VECTOR('',#1572,10.);
#378=VECTOR('',#1573,10.);
#379=VECTOR('',#1574,10.);
#380=VECTOR('',#1575,10.);
#381=VECTOR('',#1578,10.);
#382=VECTOR('',#1579,10.);
#383=VECTOR('',#1582,10.);
#384=VECTOR('',#1583,10.);
#385=VECTOR('',#1584,10.);
#386=VECTOR('',#1585,10.);
#387=VECTOR('',#1588,10.);
#388=VECTOR('',#1589,10.);
#389=VECTOR('',#1590,10.);
#390=VECTOR('',#1591,10.);
#391=VECTOR('',#1594,10.);
#392=VECTOR('',#1595,10.);
#393=VECTOR('',#1596,10.);
#394=VECTOR('',#1599,10.);
#395=VECTOR('',#1600,10.);
#396=VECTOR('',#1601,10.);
#397=VECTOR('',#1604,10.);
#398=VECTOR('',#1605,10.);
#399=VECTOR('',#1608,10.);
#400=VECTOR('',#1609,10.);
#401=VECTOR('',#1610,10.);
#402=VECTOR('',#1611,10.);
#403=VECTOR('',#1614,10.);
#404=VECTOR('',#1615,10.);
#405=VECTOR('',#1616,10.);
#406=VECTOR('',#1617,10.);
#407=VECTOR('',#1620,10.);
#408=VECTOR('',#1621,10.);
#409=VECTOR('',#1622,10.);
#410=VECTOR('',#1625,10.);
#411=VECTOR('',#1626,10.);
#412=VECTOR('',#1627,10.);
#413=VECTOR('',#1630,10.);
#414=VECTOR('',#1631,10.);
#415=VECTOR('',#1634,10.);
#416=VECTOR('',#1635,10.);
#417=VECTOR('',#1636,10.);
#418=VECTOR('',#1637,10.);
#419=VECTOR('',#1640,10.);
#420=VECTOR('',#1641,10.);
#421=VECTOR('',#1642,10.);
#422=VECTOR('',#1643,10.);
#423=VECTOR('',#1646,10.);
#424=VECTOR('',#1647,10.);
#425=VECTOR('',#1648,10.);
#426=VECTOR('',#1651,10.);
#427=VECTOR('',#1652,10.);
#428=VECTOR('',#1653,10.);
#429=VECTOR('',#1656,10.);
#430=VECTOR('',#1657,10.);
#431=VECTOR('',#1660,10.);
#432=VECTOR('',#1661,10.);
#433=VECTOR('',#1662,10.);
#434=VECTOR('',#1663,10.);
#435=VECTOR('',#1666,10.);
#436=VECTOR('',#1667,10.);
#437=VECTOR('',#1668,10.);
#438=VECTOR('',#1669,10.);
#439=VECTOR('',#1672,10.);
#440=VECTOR('',#1673,10.);
#441=VECTOR('',#1674,10.);
#442=VECTOR('',#1677,10.);
#443=VECTOR('',#1678,10.);
#444=VECTOR('',#1679,10.);
#445=VECTOR('',#1682,10.);
#446=VECTOR('',#1683,10.);
#447=VECTOR('',#1686,10.);
#448=VECTOR('',#1687,10.);
#449=VECTOR('',#1688,10.);
#450=VECTOR('',#1689,10.);
#451=VECTOR('',#1692,10.);
#452=VECTOR('',#1693,10.);
#453=VECTOR('',#1694,10.);
#454=VECTOR('',#1695,10.);
#455=VECTOR('',#1698,10.);
#456=VECTOR('',#1699,10.);
#457=VECTOR('',#1702,10.);
#458=VECTOR('',#1703,10.);
#459=VECTOR('',#1704,10.);
#460=VECTOR('',#1705,10.);
#461=VECTOR('',#1708,10.);
#462=VECTOR('',#1709,10.);
#463=VECTOR('',#1710,10.);
#464=VECTOR('',#1711,10.);
#465=VECTOR('',#1714,10.);
#466=VECTOR('',#1715,10.);
#467=VECTOR('',#1716,10.);
#468=VECTOR('',#1719,10.);
#469=VECTOR('',#1720,10.);
#470=VECTOR('',#1721,10.);
#471=VECTOR('',#1724,10.);
#472=VECTOR('',#1725,10.);
#473=VECTOR('',#1728,10.);
#474=VECTOR('',#1729,10.);
#475=VECTOR('',#1730,10.);
#476=VECTOR('',#1731,10.);
#477=VECTOR('',#1734,10.);
#478=VECTOR('',#1735,10.);
#479=VECTOR('',#1736,10.);
#480=VECTOR('',#1737,10.);
#481=VECTOR('',#1740,10.);
#482=VECTOR('',#1741,10.);
#483=VECTOR('',#1742,10.);
#484=VECTOR('',#1745,10.);
#485=VECTOR('',#1746,10.);
#486=VECTOR('',#1749,10.);
#487=VECTOR('',#1750,10.);
#488=VECTOR('',#1751,10.);
#489=VECTOR('',#1752,10.);
#490=VECTOR('',#1753,10.);
#491=VECTOR('',#1754,10.);
#492=VECTOR('',#1757,10.);
#493=VECTOR('',#1758,10.);
#494=VECTOR('',#1759,10.);
#495=VECTOR('',#1762,10.);
#496=VECTOR('',#1763,10.);
#497=VECTOR('',#1764,10.);
#498=VECTOR('',#1765,10.);
#499=VECTOR('',#1766,10.);
#500=VECTOR('',#1767,10.);
#501=VECTOR('',#1768,10.);
#502=VECTOR('',#1769,10.);
#503=VECTOR('',#1772,10.);
#504=VECTOR('',#1773,10.);
#505=VECTOR('',#1776,10.);
#506=VECTOR('',#1779,10.);
#507=VECTOR('',#1782,10.);
#508=VECTOR('',#1783,10.);
#509=VECTOR('',#1788,10.);
#510=VECTOR('',#1789,10.);
#511=VECTOR('',#1790,10.);
#512=VECTOR('',#1793,10.);
#513=VECTOR('',#1794,10.);
#514=VECTOR('',#1797,10.);
#515=VECTOR('',#1798,10.);
#516=VECTOR('',#1801,10.);
#517=VECTOR('',#1804,10.);
#518=VECTOR('',#1805,10.);
#519=VECTOR('',#1806,10.);
#520=VECTOR('',#1807,10.);
#521=VECTOR('',#1808,10.);
#522=VECTOR('',#1809,10.);
#523=VECTOR('',#1810,10.);
#524=VECTOR('',#1811,10.);
#525=VECTOR('',#1812,10.);
#526=VECTOR('',#1813,10.);
#527=VECTOR('',#1814,10.);
#528=VECTOR('',#1815,10.);
#529=VECTOR('',#1816,10.);
#530=VECTOR('',#1817,10.);
#531=VECTOR('',#1818,10.);
#532=VECTOR('',#1819,10.);
#533=VECTOR('',#1820,10.);
#534=VECTOR('',#1821,10.);
#535=VECTOR('',#1822,10.);
#536=VECTOR('',#1825,10.);
#537=VECTOR('',#1826,10.);
#538=VECTOR('',#1829,10.);
#539=VECTOR('',#1830,10.);
#540=VECTOR('',#1833,10.);
#541=VECTOR('',#1836,10.);
#542=VECTOR('',#1837,10.);
#543=VECTOR('',#1840,10.);
#544=VECTOR('',#1841,10.);
#545=VECTOR('',#1844,10.);
#546=VECTOR('',#1847,10.);
#547=VECTOR('',#1848,10.);
#548=VECTOR('',#1851,10.);
#549=VECTOR('',#1852,10.);
#550=VECTOR('',#1855,10.);
#551=VECTOR('',#1858,10.);
#552=VECTOR('',#1859,10.);
#553=VECTOR('',#1862,10.);
#554=VECTOR('',#1863,10.);
#555=VECTOR('',#1866,10.);
#556=VECTOR('',#1869,10.);
#557=VECTOR('',#1870,10.);
#558=VECTOR('',#1873,10.);
#559=VECTOR('',#1874,10.);
#560=VECTOR('',#1877,10.);
#561=VECTOR('',#1880,10.);
#562=VECTOR('',#1881,10.);
#563=VECTOR('',#1884,10.);
#564=VECTOR('',#1885,10.);
#565=VECTOR('',#1888,10.);
#566=VECTOR('',#1891,10.);
#567=VERTEX_POINT('',#1896);
#568=VERTEX_POINT('',#1897);
#569=VERTEX_POINT('',#1899);
#570=VERTEX_POINT('',#1901);
#571=VERTEX_POINT('',#1903);
#572=VERTEX_POINT('',#1907);
#573=VERTEX_POINT('',#1908);
#574=VERTEX_POINT('',#1910);
#575=VERTEX_POINT('',#1912);
#576=VERTEX_POINT('',#1916);
#577=VERTEX_POINT('',#1918);
#578=VERTEX_POINT('',#1922);
#579=VERTEX_POINT('',#1923);
#580=VERTEX_POINT('',#1928);
#581=VERTEX_POINT('',#1930);
#582=VERTEX_POINT('',#1932);
#583=VERTEX_POINT('',#1939);
#584=VERTEX_POINT('',#1940);
#585=VERTEX_POINT('',#1942);
#586=VERTEX_POINT('',#1944);
#587=VERTEX_POINT('',#1948);
#588=VERTEX_POINT('',#1949);
#589=VERTEX_POINT('',#1951);
#590=VERTEX_POINT('',#1953);
#591=VERTEX_POINT('',#1957);
#592=VERTEX_POINT('',#1959);
#593=VERTEX_POINT('',#1963);
#594=VERTEX_POINT('',#1965);
#595=VERTEX_POINT('',#1972);
#596=VERTEX_POINT('',#1973);
#597=VERTEX_POINT('',#1975);
#598=VERTEX_POINT('',#1977);
#599=VERTEX_POINT('',#1981);
#600=VERTEX_POINT('',#1982);
#601=VERTEX_POINT('',#1984);
#602=VERTEX_POINT('',#1986);
#603=VERTEX_POINT('',#1990);
#604=VERTEX_POINT('',#1992);
#605=VERTEX_POINT('',#1996);
#606=VERTEX_POINT('',#1998);
#607=VERTEX_POINT('',#2005);
#608=VERTEX_POINT('',#2006);
#609=VERTEX_POINT('',#2008);
#610=VERTEX_POINT('',#2010);
#611=VERTEX_POINT('',#2014);
#612=VERTEX_POINT('',#2015);
#613=VERTEX_POINT('',#2017);
#614=VERTEX_POINT('',#2019);
#615=VERTEX_POINT('',#2023);
#616=VERTEX_POINT('',#2025);
#617=VERTEX_POINT('',#2029);
#618=VERTEX_POINT('',#2031);
#619=VERTEX_POINT('',#2038);
#620=VERTEX_POINT('',#2039);
#621=VERTEX_POINT('',#2041);
#622=VERTEX_POINT('',#2043);
#623=VERTEX_POINT('',#2047);
#624=VERTEX_POINT('',#2048);
#625=VERTEX_POINT('',#2050);
#626=VERTEX_POINT('',#2052);
#627=VERTEX_POINT('',#2056);
#628=VERTEX_POINT('',#2058);
#629=VERTEX_POINT('',#2062);
#630=VERTEX_POINT('',#2064);
#631=VERTEX_POINT('',#2071);
#632=VERTEX_POINT('',#2072);
#633=VERTEX_POINT('',#2074);
#634=VERTEX_POINT('',#2076);
#635=VERTEX_POINT('',#2080);
#636=VERTEX_POINT('',#2081);
#637=VERTEX_POINT('',#2083);
#638=VERTEX_POINT('',#2085);
#639=VERTEX_POINT('',#2092);
#640=VERTEX_POINT('',#2093);
#641=VERTEX_POINT('',#2095);
#642=VERTEX_POINT('',#2097);
#643=VERTEX_POINT('',#2101);
#644=VERTEX_POINT('',#2102);
#645=VERTEX_POINT('',#2104);
#646=VERTEX_POINT('',#2106);
#647=VERTEX_POINT('',#2110);
#648=VERTEX_POINT('',#2112);
#649=VERTEX_POINT('',#2116);
#650=VERTEX_POINT('',#2118);
#651=VERTEX_POINT('',#2125);
#652=VERTEX_POINT('',#2126);
#653=VERTEX_POINT('',#2128);
#654=VERTEX_POINT('',#2130);
#655=VERTEX_POINT('',#2134);
#656=VERTEX_POINT('',#2135);
#657=VERTEX_POINT('',#2137);
#658=VERTEX_POINT('',#2139);
#659=VERTEX_POINT('',#2144);
#660=VERTEX_POINT('',#2148);
#661=VERTEX_POINT('',#2152);
#662=VERTEX_POINT('',#2154);
#663=VERTEX_POINT('',#2156);
#664=VERTEX_POINT('',#2158);
#665=VERTEX_POINT('',#2160);
#666=VERTEX_POINT('',#2164);
#667=VERTEX_POINT('',#2166);
#668=VERTEX_POINT('',#2170);
#669=VERTEX_POINT('',#2172);
#670=VERTEX_POINT('',#2174);
#671=VERTEX_POINT('',#2176);
#672=VERTEX_POINT('',#2178);
#673=VERTEX_POINT('',#2180);
#674=VERTEX_POINT('',#2182);
#675=VERTEX_POINT('',#2197);
#676=VERTEX_POINT('',#2199);
#677=VERTEX_POINT('',#2203);
#678=VERTEX_POINT('',#2207);
#679=VERTEX_POINT('',#2214);
#680=VERTEX_POINT('',#2216);
#681=VERTEX_POINT('',#2219);
#682=VERTEX_POINT('',#2221);
#683=VERTEX_POINT('',#2224);
#684=VERTEX_POINT('',#2226);
#685=VERTEX_POINT('',#2229);
#686=VERTEX_POINT('',#2231);
#687=VERTEX_POINT('',#2234);
#688=VERTEX_POINT('',#2236);
#689=VERTEX_POINT('',#2239);
#690=VERTEX_POINT('',#2241);
#691=VERTEX_POINT('',#2245);
#692=VERTEX_POINT('',#2249);
#693=VERTEX_POINT('',#2255);
#694=VERTEX_POINT('',#2259);
#695=VERTEX_POINT('',#2265);
#696=VERTEX_POINT('',#2269);
#697=VERTEX_POINT('',#2275);
#698=VERTEX_POINT('',#2279);
#699=VERTEX_POINT('',#2285);
#700=VERTEX_POINT('',#2289);
#701=VERTEX_POINT('',#2295);
#702=VERTEX_POINT('',#2299);
#703=EDGE_CURVE('',#567,#568,#157,.T.);
#704=EDGE_CURVE('',#567,#569,#158,.T.);
#705=EDGE_CURVE('',#569,#570,#159,.T.);
#706=EDGE_CURVE('',#571,#570,#160,.T.);
#707=EDGE_CURVE('',#568,#571,#161,.T.);
#708=EDGE_CURVE('',#572,#573,#162,.T.);
#709=EDGE_CURVE('',#572,#574,#163,.T.);
#710=EDGE_CURVE('',#575,#574,#164,.T.);
#711=EDGE_CURVE('',#573,#575,#165,.T.);
#712=EDGE_CURVE('',#568,#576,#166,.T.);
#713=EDGE_CURVE('',#577,#571,#167,.T.);
#714=EDGE_CURVE('',#577,#576,#168,.T.);
#715=EDGE_CURVE('',#578,#579,#169,.T.);
#716=EDGE_CURVE('',#570,#578,#170,.T.);
#717=EDGE_CURVE('',#579,#569,#171,.T.);
#718=EDGE_CURVE('',#580,#567,#172,.T.);
#719=EDGE_CURVE('',#580,#581,#173,.T.);
#720=EDGE_CURVE('',#582,#581,#174,.T.);
#721=EDGE_CURVE('',#579,#582,#175,.T.);
#722=EDGE_CURVE('',#573,#580,#176,.T.);
#723=EDGE_CURVE('',#581,#575,#177,.T.);
#724=EDGE_CURVE('',#583,#584,#178,.T.);
#725=EDGE_CURVE('',#585,#583,#179,.T.);
#726=EDGE_CURVE('',#586,#585,#180,.T.);
#727=EDGE_CURVE('',#586,#584,#181,.T.);
#728=EDGE_CURVE('',#587,#588,#182,.T.);
#729=EDGE_CURVE('',#587,#589,#183,.T.);
#730=EDGE_CURVE('',#590,#589,#184,.T.);
#731=EDGE_CURVE('',#590,#588,#185,.T.);
#732=EDGE_CURVE('',#584,#591,#186,.T.);
#733=EDGE_CURVE('',#592,#586,#187,.T.);
#734=EDGE_CURVE('',#592,#591,#188,.T.);
#735=EDGE_CURVE('',#588,#593,#189,.T.);
#736=EDGE_CURVE('',#594,#590,#190,.T.);
#737=EDGE_CURVE('',#594,#593,#191,.T.);
#738=EDGE_CURVE('',#593,#583,#192,.T.);
#739=EDGE_CURVE('',#585,#594,#193,.T.);
#740=EDGE_CURVE('',#595,#596,#194,.T.);
#741=EDGE_CURVE('',#597,#595,#195,.T.);
#742=EDGE_CURVE('',#598,#597,#196,.T.);
#743=EDGE_CURVE('',#598,#596,#197,.T.);
#744=EDGE_CURVE('',#599,#600,#198,.T.);
#745=EDGE_CURVE('',#599,#601,#199,.T.);
#746=EDGE_CURVE('',#602,#601,#200,.T.);
#747=EDGE_CURVE('',#602,#600,#201,.T.);
#748=EDGE_CURVE('',#596,#603,#202,.T.);
#749=EDGE_CURVE('',#604,#598,#203,.T.);
#750=EDGE_CURVE('',#604,#603,#204,.T.);
#751=EDGE_CURVE('',#600,#605,#205,.T.);
#752=EDGE_CURVE('',#606,#602,#206,.T.);
#753=EDGE_CURVE('',#606,#605,#207,.T.);
#754=EDGE_CURVE('',#605,#595,#208,.T.);
#755=EDGE_CURVE('',#597,#606,#209,.T.);
#756=EDGE_CURVE('',#607,#608,#210,.T.);
#757=EDGE_CURVE('',#609,#607,#211,.T.);
#758=EDGE_CURVE('',#610,#609,#212,.T.);
#759=EDGE_CURVE('',#610,#608,#213,.T.);
#760=EDGE_CURVE('',#611,#612,#214,.T.);
#761=EDGE_CURVE('',#611,#613,#215,.T.);
#762=EDGE_CURVE('',#614,#613,#216,.T.);
#763=EDGE_CURVE('',#614,#612,#217,.T.);
#764=EDGE_CURVE('',#608,#615,#218,.T.);
#765=EDGE_CURVE('',#616,#610,#219,.T.);
#766=EDGE_CURVE('',#616,#615,#220,.T.);
#767=EDGE_CURVE('',#612,#617,#221,.T.);
#768=EDGE_CURVE('',#618,#614,#222,.T.);
#769=EDGE_CURVE('',#618,#617,#223,.T.);
#770=EDGE_CURVE('',#617,#607,#224,.T.);
#771=EDGE_CURVE('',#609,#618,#225,.T.);
#772=EDGE_CURVE('',#619,#620,#226,.T.);
#773=EDGE_CURVE('',#621,#619,#227,.T.);
#774=EDGE_CURVE('',#622,#621,#228,.T.);
#775=EDGE_CURVE('',#622,#620,#229,.T.);
#776=EDGE_CURVE('',#623,#624,#230,.T.);
#777=EDGE_CURVE('',#623,#625,#231,.T.);
#778=EDGE_CURVE('',#626,#625,#232,.T.);
#779=EDGE_CURVE('',#626,#624,#233,.T.);
#780=EDGE_CURVE('',#620,#627,#234,.T.);
#781=EDGE_CURVE('',#628,#622,#235,.T.);
#782=EDGE_CURVE('',#628,#627,#236,.T.);
#783=EDGE_CURVE('',#624,#629,#237,.T.);
#784=EDGE_CURVE('',#630,#626,#238,.T.);
#785=EDGE_CURVE('',#630,#629,#239,.T.);
#786=EDGE_CURVE('',#629,#619,#240,.T.);
#787=EDGE_CURVE('',#621,#630,#241,.T.);
#788=EDGE_CURVE('',#631,#632,#242,.T.);
#789=EDGE_CURVE('',#633,#631,#243,.T.);
#790=EDGE_CURVE('',#634,#633,#244,.T.);
#791=EDGE_CURVE('',#632,#634,#245,.T.);
#792=EDGE_CURVE('',#635,#636,#246,.T.);
#793=EDGE_CURVE('',#635,#637,#247,.T.);
#794=EDGE_CURVE('',#638,#637,#248,.T.);
#795=EDGE_CURVE('',#638,#636,#249,.T.);
#796=EDGE_CURVE('',#636,#631,#250,.T.);
#797=EDGE_CURVE('',#633,#638,#251,.T.);
#798=EDGE_CURVE('',#639,#640,#252,.T.);
#799=EDGE_CURVE('',#641,#639,#253,.T.);
#800=EDGE_CURVE('',#642,#641,#254,.T.);
#801=EDGE_CURVE('',#642,#640,#255,.T.);
#802=EDGE_CURVE('',#643,#644,#256,.T.);
#803=EDGE_CURVE('',#643,#645,#257,.T.);
#804=EDGE_CURVE('',#646,#645,#258,.T.);
#805=EDGE_CURVE('',#646,#644,#259,.T.);
#806=EDGE_CURVE('',#640,#647,#260,.T.);
#807=EDGE_CURVE('',#648,#642,#261,.T.);
#808=EDGE_CURVE('',#648,#647,#262,.T.);
#809=EDGE_CURVE('',#644,#649,#263,.T.);
#810=EDGE_CURVE('',#650,#646,#264,.T.);
#811=EDGE_CURVE('',#650,#649,#265,.T.);
#812=EDGE_CURVE('',#649,#639,#266,.T.);
#813=EDGE_CURVE('',#641,#650,#267,.T.);
#814=EDGE_CURVE('',#651,#652,#268,.T.);
#815=EDGE_CURVE('',#651,#653,#269,.T.);
#816=EDGE_CURVE('',#653,#654,#270,.T.);
#817=EDGE_CURVE('',#652,#654,#271,.T.);
#818=EDGE_CURVE('',#655,#656,#272,.T.);
#819=EDGE_CURVE('',#655,#657,#273,.T.);
#820=EDGE_CURVE('',#658,#657,#274,.T.);
#821=EDGE_CURVE('',#656,#658,#275,.T.);
#822=EDGE_CURVE('',#656,#651,#276,.T.);
#823=EDGE_CURVE('',#659,#658,#277,.T.);
#824=EDGE_CURVE('',#659,#653,#278,.T.);
#825=EDGE_CURVE('',#660,#659,#279,.T.);
#826=EDGE_CURVE('',#654,#660,#280,.T.);
#827=EDGE_CURVE('',#661,#582,#281,.T.);
#828=EDGE_CURVE('',#661,#662,#282,.T.);
#829=EDGE_CURVE('',#663,#662,#283,.T.);
#830=EDGE_CURVE('',#664,#663,#284,.T.);
#831=EDGE_CURVE('',#664,#665,#285,.T.);
#832=EDGE_CURVE('',#578,#665,#286,.T.);
#833=EDGE_CURVE('',#634,#666,#287,.T.);
#834=EDGE_CURVE('',#666,#667,#288,.T.);
#835=EDGE_CURVE('',#632,#667,#289,.T.);
#836=EDGE_CURVE('',#660,#668,#290,.T.);
#837=EDGE_CURVE('',#668,#669,#291,.T.);
#838=EDGE_CURVE('',#669,#670,#292,.T.);
#839=EDGE_CURVE('',#671,#670,#293,.T.);
#840=EDGE_CURVE('',#672,#671,#294,.T.);
#841=EDGE_CURVE('',#673,#672,#295,.T.);
#842=EDGE_CURVE('',#674,#673,#296,.T.);
#843=EDGE_CURVE('',#674,#652,#297,.T.);
#844=EDGE_CURVE('',#665,#668,#298,.T.);
#845=EDGE_CURVE('',#571,#658,#299,.T.);
#846=EDGE_CURVE('',#669,#664,#300,.T.);
#847=EDGE_CURVE('',#670,#663,#301,.T.);
#848=EDGE_CURVE('',#672,#661,#302,.T.);
#849=EDGE_CURVE('',#662,#671,#303,.T.);
#850=EDGE_CURVE('',#657,#675,#304,.T.);
#851=EDGE_CURVE('',#675,#676,#305,.T.);
#852=EDGE_CURVE('',#676,#577,#306,.T.);
#853=EDGE_CURVE('',#677,#676,#307,.T.);
#854=EDGE_CURVE('',#576,#677,#308,.T.);
#855=EDGE_CURVE('',#677,#678,#309,.T.);
#856=EDGE_CURVE('',#678,#675,#310,.T.);
#857=EDGE_CURVE('',#678,#655,#311,.T.);
#858=EDGE_CURVE('',#666,#674,#312,.T.);
#859=EDGE_CURVE('',#637,#679,#313,.T.);
#860=EDGE_CURVE('',#679,#680,#314,.T.);
#861=EDGE_CURVE('',#680,#616,#315,.T.);
#862=EDGE_CURVE('',#613,#681,#316,.T.);
#863=EDGE_CURVE('',#681,#682,#317,.T.);
#864=EDGE_CURVE('',#682,#628,#318,.T.);
#865=EDGE_CURVE('',#625,#683,#319,.T.);
#866=EDGE_CURVE('',#683,#684,#320,.T.);
#867=EDGE_CURVE('',#684,#604,#321,.T.);
#868=EDGE_CURVE('',#601,#685,#322,.T.);
#869=EDGE_CURVE('',#685,#686,#323,.T.);
#870=EDGE_CURVE('',#686,#592,#324,.T.);
#871=EDGE_CURVE('',#589,#687,#325,.T.);
#872=EDGE_CURVE('',#687,#688,#326,.T.);
#873=EDGE_CURVE('',#688,#648,#327,.T.);
#874=EDGE_CURVE('',#645,#689,#328,.T.);
#875=EDGE_CURVE('',#689,#690,#329,.T.);
#876=EDGE_CURVE('',#690,#572,#330,.T.);
#877=EDGE_CURVE('',#691,#587,#331,.T.);
#878=EDGE_CURVE('',#687,#691,#332,.T.);
#879=EDGE_CURVE('',#692,#691,#333,.T.);
#880=EDGE_CURVE('',#688,#692,#334,.T.);
#881=EDGE_CURVE('',#647,#692,#335,.T.);
#882=EDGE_CURVE('',#693,#599,#336,.T.);
#883=EDGE_CURVE('',#685,#693,#337,.T.);
#884=EDGE_CURVE('',#694,#693,#338,.T.);
#885=EDGE_CURVE('',#686,#694,#339,.T.);
#886=EDGE_CURVE('',#591,#694,#340,.T.);
#887=EDGE_CURVE('',#695,#611,#341,.T.);
#888=EDGE_CURVE('',#681,#695,#342,.T.);
#889=EDGE_CURVE('',#696,#695,#343,.T.);
#890=EDGE_CURVE('',#682,#696,#344,.T.);
#891=EDGE_CURVE('',#627,#696,#345,.T.);
#892=EDGE_CURVE('',#697,#623,#346,.T.);
#893=EDGE_CURVE('',#683,#697,#347,.T.);
#894=EDGE_CURVE('',#698,#697,#348,.T.);
#895=EDGE_CURVE('',#684,#698,#349,.T.);
#896=EDGE_CURVE('',#603,#698,#350,.T.);
#897=EDGE_CURVE('',#699,#635,#351,.T.);
#898=EDGE_CURVE('',#679,#699,#352,.T.);
#899=EDGE_CURVE('',#700,#699,#353,.T.);
#900=EDGE_CURVE('',#680,#700,#354,.T.);
#901=EDGE_CURVE('',#615,#700,#355,.T.);
#902=EDGE_CURVE('',#701,#643,#356,.T.);
#903=EDGE_CURVE('',#689,#701,#357,.T.);
#904=EDGE_CURVE('',#690,#702,#358,.T.);
#905=EDGE_CURVE('',#574,#702,#359,.T.);
#906=EDGE_CURVE('',#702,#701,#360,.T.);
#907=EDGE_CURVE('',#667,#673,#361,.T.);
#908=ORIENTED_EDGE('',*,*,#703,.F.);
#909=ORIENTED_EDGE('',*,*,#704,.T.);
#910=ORIENTED_EDGE('',*,*,#705,.T.);
#911=ORIENTED_EDGE('',*,*,#706,.F.);
#912=ORIENTED_EDGE('',*,*,#707,.F.);
#913=ORIENTED_EDGE('',*,*,#708,.F.);
#914=ORIENTED_EDGE('',*,*,#709,.T.);
#915=ORIENTED_EDGE('',*,*,#710,.F.);
#916=ORIENTED_EDGE('',*,*,#711,.F.);
#917=ORIENTED_EDGE('',*,*,#712,.F.);
#918=ORIENTED_EDGE('',*,*,#707,.T.);
#919=ORIENTED_EDGE('',*,*,#713,.F.);
#920=ORIENTED_EDGE('',*,*,#714,.T.);
#921=ORIENTED_EDGE('',*,*,#715,.F.);
#922=ORIENTED_EDGE('',*,*,#716,.F.);
#923=ORIENTED_EDGE('',*,*,#705,.F.);
#924=ORIENTED_EDGE('',*,*,#717,.F.);
#925=ORIENTED_EDGE('',*,*,#718,.F.);
#926=ORIENTED_EDGE('',*,*,#719,.T.);
#927=ORIENTED_EDGE('',*,*,#720,.F.);
#928=ORIENTED_EDGE('',*,*,#721,.F.);
#929=ORIENTED_EDGE('',*,*,#717,.T.);
#930=ORIENTED_EDGE('',*,*,#704,.F.);
#931=ORIENTED_EDGE('',*,*,#722,.F.);
#932=ORIENTED_EDGE('',*,*,#711,.T.);
#933=ORIENTED_EDGE('',*,*,#723,.F.);
#934=ORIENTED_EDGE('',*,*,#719,.F.);
#935=ORIENTED_EDGE('',*,*,#724,.F.);
#936=ORIENTED_EDGE('',*,*,#725,.F.);
#937=ORIENTED_EDGE('',*,*,#726,.F.);
#938=ORIENTED_EDGE('',*,*,#727,.T.);
#939=ORIENTED_EDGE('',*,*,#728,.F.);
#940=ORIENTED_EDGE('',*,*,#729,.T.);
#941=ORIENTED_EDGE('',*,*,#730,.F.);
#942=ORIENTED_EDGE('',*,*,#731,.T.);
#943=ORIENTED_EDGE('',*,*,#732,.F.);
#944=ORIENTED_EDGE('',*,*,#727,.F.);
#945=ORIENTED_EDGE('',*,*,#733,.F.);
#946=ORIENTED_EDGE('',*,*,#734,.T.);
#947=ORIENTED_EDGE('',*,*,#735,.F.);
#948=ORIENTED_EDGE('',*,*,#731,.F.);
#949=ORIENTED_EDGE('',*,*,#736,.F.);
#950=ORIENTED_EDGE('',*,*,#737,.T.);
#951=ORIENTED_EDGE('',*,*,#738,.F.);
#952=ORIENTED_EDGE('',*,*,#737,.F.);
#953=ORIENTED_EDGE('',*,*,#739,.F.);
#954=ORIENTED_EDGE('',*,*,#725,.T.);
#955=ORIENTED_EDGE('',*,*,#740,.F.);
#956=ORIENTED_EDGE('',*,*,#741,.F.);
#957=ORIENTED_EDGE('',*,*,#742,.F.);
#958=ORIENTED_EDGE('',*,*,#743,.T.);
#959=ORIENTED_EDGE('',*,*,#744,.F.);
#960=ORIENTED_EDGE('',*,*,#745,.T.);
#961=ORIENTED_EDGE('',*,*,#746,.F.);
#962=ORIENTED_EDGE('',*,*,#747,.T.);
#963=ORIENTED_EDGE('',*,*,#748,.F.);
#964=ORIENTED_EDGE('',*,*,#743,.F.);
#965=ORIENTED_EDGE('',*,*,#749,.F.);
#966=ORIENTED_EDGE('',*,*,#750,.T.);
#967=ORIENTED_EDGE('',*,*,#751,.F.);
#968=ORIENTED_EDGE('',*,*,#747,.F.);
#969=ORIENTED_EDGE('',*,*,#752,.F.);
#970=ORIENTED_EDGE('',*,*,#753,.T.);
#971=ORIENTED_EDGE('',*,*,#754,.F.);
#972=ORIENTED_EDGE('',*,*,#753,.F.);
#973=ORIENTED_EDGE('',*,*,#755,.F.);
#974=ORIENTED_EDGE('',*,*,#741,.T.);
#975=ORIENTED_EDGE('',*,*,#756,.F.);
#976=ORIENTED_EDGE('',*,*,#757,.F.);
#977=ORIENTED_EDGE('',*,*,#758,.F.);
#978=ORIENTED_EDGE('',*,*,#759,.T.);
#979=ORIENTED_EDGE('',*,*,#760,.F.);
#980=ORIENTED_EDGE('',*,*,#761,.T.);
#981=ORIENTED_EDGE('',*,*,#762,.F.);
#982=ORIENTED_EDGE('',*,*,#763,.T.);
#983=ORIENTED_EDGE('',*,*,#764,.F.);
#984=ORIENTED_EDGE('',*,*,#759,.F.);
#985=ORIENTED_EDGE('',*,*,#765,.F.);
#986=ORIENTED_EDGE('',*,*,#766,.T.);
#987=ORIENTED_EDGE('',*,*,#767,.F.);
#988=ORIENTED_EDGE('',*,*,#763,.F.);
#989=ORIENTED_EDGE('',*,*,#768,.F.);
#990=ORIENTED_EDGE('',*,*,#769,.T.);
#991=ORIENTED_EDGE('',*,*,#770,.F.);
#992=ORIENTED_EDGE('',*,*,#769,.F.);
#993=ORIENTED_EDGE('',*,*,#771,.F.);
#994=ORIENTED_EDGE('',*,*,#757,.T.);
#995=ORIENTED_EDGE('',*,*,#772,.F.);
#996=ORIENTED_EDGE('',*,*,#773,.F.);
#997=ORIENTED_EDGE('',*,*,#774,.F.);
#998=ORIENTED_EDGE('',*,*,#775,.T.);
#999=ORIENTED_EDGE('',*,*,#776,.F.);
#1000=ORIENTED_EDGE('',*,*,#777,.T.);
#1001=ORIENTED_EDGE('',*,*,#778,.F.);
#1002=ORIENTED_EDGE('',*,*,#779,.T.);
#1003=ORIENTED_EDGE('',*,*,#780,.F.);
#1004=ORIENTED_EDGE('',*,*,#775,.F.);
#1005=ORIENTED_EDGE('',*,*,#781,.F.);
#1006=ORIENTED_EDGE('',*,*,#782,.T.);
#1007=ORIENTED_EDGE('',*,*,#783,.F.);
#1008=ORIENTED_EDGE('',*,*,#779,.F.);
#1009=ORIENTED_EDGE('',*,*,#784,.F.);
#1010=ORIENTED_EDGE('',*,*,#785,.T.);
#1011=ORIENTED_EDGE('',*,*,#786,.F.);
#1012=ORIENTED_EDGE('',*,*,#785,.F.);
#1013=ORIENTED_EDGE('',*,*,#787,.F.);
#1014=ORIENTED_EDGE('',*,*,#773,.T.);
#1015=ORIENTED_EDGE('',*,*,#788,.F.);
#1016=ORIENTED_EDGE('',*,*,#789,.F.);
#1017=ORIENTED_EDGE('',*,*,#790,.F.);
#1018=ORIENTED_EDGE('',*,*,#791,.F.);
#1019=ORIENTED_EDGE('',*,*,#792,.F.);
#1020=ORIENTED_EDGE('',*,*,#793,.T.);
#1021=ORIENTED_EDGE('',*,*,#794,.F.);
#1022=ORIENTED_EDGE('',*,*,#795,.T.);
#1023=ORIENTED_EDGE('',*,*,#796,.F.);
#1024=ORIENTED_EDGE('',*,*,#795,.F.);
#1025=ORIENTED_EDGE('',*,*,#797,.F.);
#1026=ORIENTED_EDGE('',*,*,#789,.T.);
#1027=ORIENTED_EDGE('',*,*,#798,.F.);
#1028=ORIENTED_EDGE('',*,*,#799,.F.);
#1029=ORIENTED_EDGE('',*,*,#800,.F.);
#1030=ORIENTED_EDGE('',*,*,#801,.T.);
#1031=ORIENTED_EDGE('',*,*,#802,.F.);
#1032=ORIENTED_EDGE('',*,*,#803,.T.);
#1033=ORIENTED_EDGE('',*,*,#804,.F.);
#1034=ORIENTED_EDGE('',*,*,#805,.T.);
#1035=ORIENTED_EDGE('',*,*,#806,.F.);
#1036=ORIENTED_EDGE('',*,*,#801,.F.);
#1037=ORIENTED_EDGE('',*,*,#807,.F.);
#1038=ORIENTED_EDGE('',*,*,#808,.T.);
#1039=ORIENTED_EDGE('',*,*,#809,.F.);
#1040=ORIENTED_EDGE('',*,*,#805,.F.);
#1041=ORIENTED_EDGE('',*,*,#810,.F.);
#1042=ORIENTED_EDGE('',*,*,#811,.T.);
#1043=ORIENTED_EDGE('',*,*,#812,.F.);
#1044=ORIENTED_EDGE('',*,*,#811,.F.);
#1045=ORIENTED_EDGE('',*,*,#813,.F.);
#1046=ORIENTED_EDGE('',*,*,#799,.T.);
#1047=ORIENTED_EDGE('',*,*,#814,.F.);
#1048=ORIENTED_EDGE('',*,*,#815,.T.);
#1049=ORIENTED_EDGE('',*,*,#816,.T.);
#1050=ORIENTED_EDGE('',*,*,#817,.F.);
#1051=ORIENTED_EDGE('',*,*,#818,.F.);
#1052=ORIENTED_EDGE('',*,*,#819,.T.);
#1053=ORIENTED_EDGE('',*,*,#820,.F.);
#1054=ORIENTED_EDGE('',*,*,#821,.F.);
#1055=ORIENTED_EDGE('',*,*,#822,.F.);
#1056=ORIENTED_EDGE('',*,*,#821,.T.);
#1057=ORIENTED_EDGE('',*,*,#823,.F.);
#1058=ORIENTED_EDGE('',*,*,#824,.T.);
#1059=ORIENTED_EDGE('',*,*,#815,.F.);
#1060=ORIENTED_EDGE('',*,*,#824,.F.);
#1061=ORIENTED_EDGE('',*,*,#825,.F.);
#1062=ORIENTED_EDGE('',*,*,#826,.F.);
#1063=ORIENTED_EDGE('',*,*,#816,.F.);
#1064=ORIENTED_EDGE('',*,*,#715,.T.);
#1065=ORIENTED_EDGE('',*,*,#721,.T.);
#1066=ORIENTED_EDGE('',*,*,#827,.F.);
#1067=ORIENTED_EDGE('',*,*,#828,.T.);
#1068=ORIENTED_EDGE('',*,*,#829,.F.);
#1069=ORIENTED_EDGE('',*,*,#830,.F.);
#1070=ORIENTED_EDGE('',*,*,#831,.T.);
#1071=ORIENTED_EDGE('',*,*,#832,.F.);
#1072=ORIENTED_EDGE('',*,*,#791,.T.);
#1073=ORIENTED_EDGE('',*,*,#833,.T.);
#1074=ORIENTED_EDGE('',*,*,#834,.T.);
#1075=ORIENTED_EDGE('',*,*,#835,.F.);
#1076=ORIENTED_EDGE('',*,*,#817,.T.);
#1077=ORIENTED_EDGE('',*,*,#826,.T.);
#1078=ORIENTED_EDGE('',*,*,#836,.T.);
#1079=ORIENTED_EDGE('',*,*,#837,.T.);
#1080=ORIENTED_EDGE('',*,*,#838,.T.);
#1081=ORIENTED_EDGE('',*,*,#839,.F.);
#1082=ORIENTED_EDGE('',*,*,#840,.F.);
#1083=ORIENTED_EDGE('',*,*,#841,.F.);
#1084=ORIENTED_EDGE('',*,*,#842,.F.);
#1085=ORIENTED_EDGE('',*,*,#843,.T.);
#1086=ORIENTED_EDGE('',*,*,#706,.T.);
#1087=ORIENTED_EDGE('',*,*,#716,.T.);
#1088=ORIENTED_EDGE('',*,*,#832,.T.);
#1089=ORIENTED_EDGE('',*,*,#844,.T.);
#1090=ORIENTED_EDGE('',*,*,#836,.F.);
#1091=ORIENTED_EDGE('',*,*,#825,.T.);
#1092=ORIENTED_EDGE('',*,*,#823,.T.);
#1093=ORIENTED_EDGE('',*,*,#845,.F.);
#1094=ORIENTED_EDGE('',*,*,#844,.F.);
#1095=ORIENTED_EDGE('',*,*,#831,.F.);
#1096=ORIENTED_EDGE('',*,*,#846,.F.);
#1097=ORIENTED_EDGE('',*,*,#837,.F.);
#1098=ORIENTED_EDGE('',*,*,#846,.T.);
#1099=ORIENTED_EDGE('',*,*,#830,.T.);
#1100=ORIENTED_EDGE('',*,*,#847,.F.);
#1101=ORIENTED_EDGE('',*,*,#838,.F.);
#1102=ORIENTED_EDGE('',*,*,#828,.F.);
#1103=ORIENTED_EDGE('',*,*,#848,.F.);
#1104=ORIENTED_EDGE('',*,*,#840,.T.);
#1105=ORIENTED_EDGE('',*,*,#849,.F.);
#1106=ORIENTED_EDGE('',*,*,#829,.T.);
#1107=ORIENTED_EDGE('',*,*,#849,.T.);
#1108=ORIENTED_EDGE('',*,*,#839,.T.);
#1109=ORIENTED_EDGE('',*,*,#847,.T.);
#1110=ORIENTED_EDGE('',*,*,#713,.T.);
#1111=ORIENTED_EDGE('',*,*,#845,.T.);
#1112=ORIENTED_EDGE('',*,*,#820,.T.);
#1113=ORIENTED_EDGE('',*,*,#850,.T.);
#1114=ORIENTED_EDGE('',*,*,#851,.T.);
#1115=ORIENTED_EDGE('',*,*,#852,.T.);
#1116=ORIENTED_EDGE('',*,*,#714,.F.);
#1117=ORIENTED_EDGE('',*,*,#852,.F.);
#1118=ORIENTED_EDGE('',*,*,#853,.F.);
#1119=ORIENTED_EDGE('',*,*,#854,.F.);
#1120=ORIENTED_EDGE('',*,*,#855,.F.);
#1121=ORIENTED_EDGE('',*,*,#853,.T.);
#1122=ORIENTED_EDGE('',*,*,#851,.F.);
#1123=ORIENTED_EDGE('',*,*,#856,.F.);
#1124=ORIENTED_EDGE('',*,*,#819,.F.);
#1125=ORIENTED_EDGE('',*,*,#857,.F.);
#1126=ORIENTED_EDGE('',*,*,#856,.T.);
#1127=ORIENTED_EDGE('',*,*,#850,.F.);
#1128=ORIENTED_EDGE('',*,*,#712,.T.);
#1129=ORIENTED_EDGE('',*,*,#854,.T.);
#1130=ORIENTED_EDGE('',*,*,#855,.T.);
#1131=ORIENTED_EDGE('',*,*,#857,.T.);
#1132=ORIENTED_EDGE('',*,*,#818,.T.);
#1133=ORIENTED_EDGE('',*,*,#822,.T.);
#1134=ORIENTED_EDGE('',*,*,#814,.T.);
#1135=ORIENTED_EDGE('',*,*,#843,.F.);
#1136=ORIENTED_EDGE('',*,*,#858,.F.);
#1137=ORIENTED_EDGE('',*,*,#833,.F.);
#1138=ORIENTED_EDGE('',*,*,#790,.T.);
#1139=ORIENTED_EDGE('',*,*,#797,.T.);
#1140=ORIENTED_EDGE('',*,*,#794,.T.);
#1141=ORIENTED_EDGE('',*,*,#859,.T.);
#1142=ORIENTED_EDGE('',*,*,#860,.T.);
#1143=ORIENTED_EDGE('',*,*,#861,.T.);
#1144=ORIENTED_EDGE('',*,*,#765,.T.);
#1145=ORIENTED_EDGE('',*,*,#758,.T.);
#1146=ORIENTED_EDGE('',*,*,#771,.T.);
#1147=ORIENTED_EDGE('',*,*,#768,.T.);
#1148=ORIENTED_EDGE('',*,*,#762,.T.);
#1149=ORIENTED_EDGE('',*,*,#862,.T.);
#1150=ORIENTED_EDGE('',*,*,#863,.T.);
#1151=ORIENTED_EDGE('',*,*,#864,.T.);
#1152=ORIENTED_EDGE('',*,*,#781,.T.);
#1153=ORIENTED_EDGE('',*,*,#774,.T.);
#1154=ORIENTED_EDGE('',*,*,#787,.T.);
#1155=ORIENTED_EDGE('',*,*,#784,.T.);
#1156=ORIENTED_EDGE('',*,*,#778,.T.);
#1157=ORIENTED_EDGE('',*,*,#865,.T.);
#1158=ORIENTED_EDGE('',*,*,#866,.T.);
#1159=ORIENTED_EDGE('',*,*,#867,.T.);
#1160=ORIENTED_EDGE('',*,*,#749,.T.);
#1161=ORIENTED_EDGE('',*,*,#742,.T.);
#1162=ORIENTED_EDGE('',*,*,#755,.T.);
#1163=ORIENTED_EDGE('',*,*,#752,.T.);
#1164=ORIENTED_EDGE('',*,*,#746,.T.);
#1165=ORIENTED_EDGE('',*,*,#868,.T.);
#1166=ORIENTED_EDGE('',*,*,#869,.T.);
#1167=ORIENTED_EDGE('',*,*,#870,.T.);
#1168=ORIENTED_EDGE('',*,*,#733,.T.);
#1169=ORIENTED_EDGE('',*,*,#726,.T.);
#1170=ORIENTED_EDGE('',*,*,#739,.T.);
#1171=ORIENTED_EDGE('',*,*,#736,.T.);
#1172=ORIENTED_EDGE('',*,*,#730,.T.);
#1173=ORIENTED_EDGE('',*,*,#871,.T.);
#1174=ORIENTED_EDGE('',*,*,#872,.T.);
#1175=ORIENTED_EDGE('',*,*,#873,.T.);
#1176=ORIENTED_EDGE('',*,*,#807,.T.);
#1177=ORIENTED_EDGE('',*,*,#800,.T.);
#1178=ORIENTED_EDGE('',*,*,#813,.T.);
#1179=ORIENTED_EDGE('',*,*,#810,.T.);
#1180=ORIENTED_EDGE('',*,*,#804,.T.);
#1181=ORIENTED_EDGE('',*,*,#874,.T.);
#1182=ORIENTED_EDGE('',*,*,#875,.T.);
#1183=ORIENTED_EDGE('',*,*,#876,.T.);
#1184=ORIENTED_EDGE('',*,*,#708,.T.);
#1185=ORIENTED_EDGE('',*,*,#722,.T.);
#1186=ORIENTED_EDGE('',*,*,#718,.T.);
#1187=ORIENTED_EDGE('',*,*,#703,.T.);
#1188=ORIENTED_EDGE('',*,*,#729,.F.);
#1189=ORIENTED_EDGE('',*,*,#877,.F.);
#1190=ORIENTED_EDGE('',*,*,#878,.F.);
#1191=ORIENTED_EDGE('',*,*,#871,.F.);
#1192=ORIENTED_EDGE('',*,*,#872,.F.);
#1193=ORIENTED_EDGE('',*,*,#878,.T.);
#1194=ORIENTED_EDGE('',*,*,#879,.F.);
#1195=ORIENTED_EDGE('',*,*,#880,.F.);
#1196=ORIENTED_EDGE('',*,*,#808,.F.);
#1197=ORIENTED_EDGE('',*,*,#873,.F.);
#1198=ORIENTED_EDGE('',*,*,#880,.T.);
#1199=ORIENTED_EDGE('',*,*,#881,.F.);
#1200=ORIENTED_EDGE('',*,*,#745,.F.);
#1201=ORIENTED_EDGE('',*,*,#882,.F.);
#1202=ORIENTED_EDGE('',*,*,#883,.F.);
#1203=ORIENTED_EDGE('',*,*,#868,.F.);
#1204=ORIENTED_EDGE('',*,*,#869,.F.);
#1205=ORIENTED_EDGE('',*,*,#883,.T.);
#1206=ORIENTED_EDGE('',*,*,#884,.F.);
#1207=ORIENTED_EDGE('',*,*,#885,.F.);
#1208=ORIENTED_EDGE('',*,*,#734,.F.);
#1209=ORIENTED_EDGE('',*,*,#870,.F.);
#1210=ORIENTED_EDGE('',*,*,#885,.T.);
#1211=ORIENTED_EDGE('',*,*,#886,.F.);
#1212=ORIENTED_EDGE('',*,*,#761,.F.);
#1213=ORIENTED_EDGE('',*,*,#887,.F.);
#1214=ORIENTED_EDGE('',*,*,#888,.F.);
#1215=ORIENTED_EDGE('',*,*,#862,.F.);
#1216=ORIENTED_EDGE('',*,*,#863,.F.);
#1217=ORIENTED_EDGE('',*,*,#888,.T.);
#1218=ORIENTED_EDGE('',*,*,#889,.F.);
#1219=ORIENTED_EDGE('',*,*,#890,.F.);
#1220=ORIENTED_EDGE('',*,*,#782,.F.);
#1221=ORIENTED_EDGE('',*,*,#864,.F.);
#1222=ORIENTED_EDGE('',*,*,#890,.T.);
#1223=ORIENTED_EDGE('',*,*,#891,.F.);
#1224=ORIENTED_EDGE('',*,*,#777,.F.);
#1225=ORIENTED_EDGE('',*,*,#892,.F.);
#1226=ORIENTED_EDGE('',*,*,#893,.F.);
#1227=ORIENTED_EDGE('',*,*,#865,.F.);
#1228=ORIENTED_EDGE('',*,*,#866,.F.);
#1229=ORIENTED_EDGE('',*,*,#893,.T.);
#1230=ORIENTED_EDGE('',*,*,#894,.F.);
#1231=ORIENTED_EDGE('',*,*,#895,.F.);
#1232=ORIENTED_EDGE('',*,*,#750,.F.);
#1233=ORIENTED_EDGE('',*,*,#867,.F.);
#1234=ORIENTED_EDGE('',*,*,#895,.T.);
#1235=ORIENTED_EDGE('',*,*,#896,.F.);
#1236=ORIENTED_EDGE('',*,*,#793,.F.);
#1237=ORIENTED_EDGE('',*,*,#897,.F.);
#1238=ORIENTED_EDGE('',*,*,#898,.F.);
#1239=ORIENTED_EDGE('',*,*,#859,.F.);
#1240=ORIENTED_EDGE('',*,*,#860,.F.);
#1241=ORIENTED_EDGE('',*,*,#898,.T.);
#1242=ORIENTED_EDGE('',*,*,#899,.F.);
#1243=ORIENTED_EDGE('',*,*,#900,.F.);
#1244=ORIENTED_EDGE('',*,*,#766,.F.);
#1245=ORIENTED_EDGE('',*,*,#861,.F.);
#1246=ORIENTED_EDGE('',*,*,#900,.T.);
#1247=ORIENTED_EDGE('',*,*,#901,.F.);
#1248=ORIENTED_EDGE('',*,*,#803,.F.);
#1249=ORIENTED_EDGE('',*,*,#902,.F.);
#1250=ORIENTED_EDGE('',*,*,#903,.F.);
#1251=ORIENTED_EDGE('',*,*,#874,.F.);
#1252=ORIENTED_EDGE('',*,*,#709,.F.);
#1253=ORIENTED_EDGE('',*,*,#876,.F.);
#1254=ORIENTED_EDGE('',*,*,#904,.T.);
#1255=ORIENTED_EDGE('',*,*,#905,.F.);
#1256=ORIENTED_EDGE('',*,*,#875,.F.);
#1257=ORIENTED_EDGE('',*,*,#903,.T.);
#1258=ORIENTED_EDGE('',*,*,#906,.F.);
#1259=ORIENTED_EDGE('',*,*,#904,.F.);
#1260=ORIENTED_EDGE('',*,*,#858,.T.);
#1261=ORIENTED_EDGE('',*,*,#842,.T.);
#1262=ORIENTED_EDGE('',*,*,#907,.F.);
#1263=ORIENTED_EDGE('',*,*,#834,.F.);
#1264=ORIENTED_EDGE('',*,*,#710,.T.);
#1265=ORIENTED_EDGE('',*,*,#905,.T.);
#1266=ORIENTED_EDGE('',*,*,#906,.T.);
#1267=ORIENTED_EDGE('',*,*,#902,.T.);
#1268=ORIENTED_EDGE('',*,*,#802,.T.);
#1269=ORIENTED_EDGE('',*,*,#809,.T.);
#1270=ORIENTED_EDGE('',*,*,#812,.T.);
#1271=ORIENTED_EDGE('',*,*,#798,.T.);
#1272=ORIENTED_EDGE('',*,*,#806,.T.);
#1273=ORIENTED_EDGE('',*,*,#881,.T.);
#1274=ORIENTED_EDGE('',*,*,#879,.T.);
#1275=ORIENTED_EDGE('',*,*,#877,.T.);
#1276=ORIENTED_EDGE('',*,*,#728,.T.);
#1277=ORIENTED_EDGE('',*,*,#735,.T.);
#1278=ORIENTED_EDGE('',*,*,#738,.T.);
#1279=ORIENTED_EDGE('',*,*,#724,.T.);
#1280=ORIENTED_EDGE('',*,*,#732,.T.);
#1281=ORIENTED_EDGE('',*,*,#886,.T.);
#1282=ORIENTED_EDGE('',*,*,#884,.T.);
#1283=ORIENTED_EDGE('',*,*,#882,.T.);
#1284=ORIENTED_EDGE('',*,*,#744,.T.);
#1285=ORIENTED_EDGE('',*,*,#751,.T.);
#1286=ORIENTED_EDGE('',*,*,#754,.T.);
#1287=ORIENTED_EDGE('',*,*,#740,.T.);
#1288=ORIENTED_EDGE('',*,*,#748,.T.);
#1289=ORIENTED_EDGE('',*,*,#896,.T.);
#1290=ORIENTED_EDGE('',*,*,#894,.T.);
#1291=ORIENTED_EDGE('',*,*,#892,.T.);
#1292=ORIENTED_EDGE('',*,*,#776,.T.);
#1293=ORIENTED_EDGE('',*,*,#783,.T.);
#1294=ORIENTED_EDGE('',*,*,#786,.T.);
#1295=ORIENTED_EDGE('',*,*,#772,.T.);
#1296=ORIENTED_EDGE('',*,*,#780,.T.);
#1297=ORIENTED_EDGE('',*,*,#891,.T.);
#1298=ORIENTED_EDGE('',*,*,#889,.T.);
#1299=ORIENTED_EDGE('',*,*,#887,.T.);
#1300=ORIENTED_EDGE('',*,*,#760,.T.);
#1301=ORIENTED_EDGE('',*,*,#767,.T.);
#1302=ORIENTED_EDGE('',*,*,#770,.T.);
#1303=ORIENTED_EDGE('',*,*,#756,.T.);
#1304=ORIENTED_EDGE('',*,*,#764,.T.);
#1305=ORIENTED_EDGE('',*,*,#901,.T.);
#1306=ORIENTED_EDGE('',*,*,#899,.T.);
#1307=ORIENTED_EDGE('',*,*,#897,.T.);
#1308=ORIENTED_EDGE('',*,*,#792,.T.);
#1309=ORIENTED_EDGE('',*,*,#796,.T.);
#1310=ORIENTED_EDGE('',*,*,#788,.T.);
#1311=ORIENTED_EDGE('',*,*,#835,.T.);
#1312=ORIENTED_EDGE('',*,*,#907,.T.);
#1313=ORIENTED_EDGE('',*,*,#841,.T.);
#1314=ORIENTED_EDGE('',*,*,#848,.T.);
#1315=ORIENTED_EDGE('',*,*,#827,.T.);
#1316=ORIENTED_EDGE('',*,*,#720,.T.);
#1317=ORIENTED_EDGE('',*,*,#723,.T.);
#1318=PLANE('',#1474);
#1319=PLANE('',#1475);
#1320=PLANE('',#1476);
#1321=PLANE('',#1477);
#1322=PLANE('',#1478);
#1323=PLANE('',#1479);
#1324=PLANE('',#1480);
#1325=PLANE('',#1481);
#1326=PLANE('',#1482);
#1327=PLANE('',#1483);
#1328=PLANE('',#1484);
#1329=PLANE('',#1485);
#1330=PLANE('',#1486);
#1331=PLANE('',#1487);
#1332=PLANE('',#1488);
#1333=PLANE('',#1489);
#1334=PLANE('',#1490);
#1335=PLANE('',#1491);
#1336=PLANE('',#1492);
#1337=PLANE('',#1493);
#1338=PLANE('',#1494);
#1339=PLANE('',#1495);
#1340=PLANE('',#1496);
#1341=PLANE('',#1497);
#1342=PLANE('',#1498);
#1343=PLANE('',#1499);
#1344=PLANE('',#1500);
#1345=PLANE('',#1501);
#1346=PLANE('',#1502);
#1347=PLANE('',#1503);
#1348=PLANE('',#1504);
#1349=PLANE('',#1505);
#1350=PLANE('',#1506);
#1351=PLANE('',#1507);
#1352=PLANE('',#1508);
#1353=PLANE('',#1509);
#1354=PLANE('',#1510);
#1355=PLANE('',#1511);
#1356=PLANE('',#1512);
#1357=PLANE('',#1513);
#1358=PLANE('',#1514);
#1359=PLANE('',#1515);
#1360=PLANE('',#1516);
#1361=PLANE('',#1517);
#1362=PLANE('',#1518);
#1363=PLANE('',#1519);
#1364=PLANE('',#1520);
#1365=PLANE('',#1521);
#1366=PLANE('',#1522);
#1367=PLANE('',#1523);
#1368=PLANE('',#1524);
#1369=PLANE('',#1525);
#1370=PLANE('',#1526);
#1371=PLANE('',#1527);
#1372=PLANE('',#1528);
#1373=PLANE('',#1529);
#1374=PLANE('',#1530);
#1375=PLANE('',#1531);
#1376=PLANE('',#1532);
#1377=PLANE('',#1533);
#1378=PLANE('',#1534);
#1379=PLANE('',#1535);
#1380=PLANE('',#1536);
#1381=PLANE('',#1537);
#1382=PLANE('',#1538);
#1383=PLANE('',#1539);
#1384=PLANE('',#1540);
#1385=PLANE('',#1541);
#1386=PLANE('',#1542);
#1387=PLANE('',#1543);
#1388=PLANE('',#1544);
#1389=ADVANCED_FACE('',(#15),#1318,.F.);
#1390=ADVANCED_FACE('',(#16),#1319,.F.);
#1391=ADVANCED_FACE('',(#17),#1320,.F.);
#1392=ADVANCED_FACE('',(#18),#1321,.F.);
#1393=ADVANCED_FACE('',(#19),#1322,.F.);
#1394=ADVANCED_FACE('',(#20),#1323,.F.);
#1395=ADVANCED_FACE('',(#21),#1324,.F.);
#1396=ADVANCED_FACE('',(#22),#1325,.F.);
#1397=ADVANCED_FACE('',(#23),#1326,.F.);
#1398=ADVANCED_FACE('',(#24),#1327,.F.);
#1399=ADVANCED_FACE('',(#25),#1328,.F.);
#1400=ADVANCED_FACE('',(#26),#1329,.F.);
#1401=ADVANCED_FACE('',(#27),#1330,.F.);
#1402=ADVANCED_FACE('',(#28),#1331,.F.);
#1403=ADVANCED_FACE('',(#29),#1332,.F.);
#1404=ADVANCED_FACE('',(#30),#1333,.F.);
#1405=ADVANCED_FACE('',(#31),#1334,.F.);
#1406=ADVANCED_FACE('',(#32),#1335,.F.);
#1407=ADVANCED_FACE('',(#33),#1336,.F.);
#1408=ADVANCED_FACE('',(#34),#1337,.F.);
#1409=ADVANCED_FACE('',(#35),#1338,.F.);
#1410=ADVANCED_FACE('',(#36),#1339,.F.);
#1411=ADVANCED_FACE('',(#37),#1340,.F.);
#1412=ADVANCED_FACE('',(#38),#1341,.F.);
#1413=ADVANCED_FACE('',(#39),#1342,.F.);
#1414=ADVANCED_FACE('',(#40),#1343,.F.);
#1415=ADVANCED_FACE('',(#41),#1344,.F.);
#1416=ADVANCED_FACE('',(#42),#1345,.F.);
#1417=ADVANCED_FACE('',(#43),#1346,.F.);
#1418=ADVANCED_FACE('',(#44),#1347,.F.);
#1419=ADVANCED_FACE('',(#45),#1348,.F.);
#1420=ADVANCED_FACE('',(#46),#1349,.F.);
#1421=ADVANCED_FACE('',(#47),#1350,.F.);
#1422=ADVANCED_FACE('',(#48),#1351,.F.);
#1423=ADVANCED_FACE('',(#49),#1352,.F.);
#1424=ADVANCED_FACE('',(#50),#1353,.F.);
#1425=ADVANCED_FACE('',(#51),#1354,.F.);
#1426=ADVANCED_FACE('',(#52),#1355,.F.);
#1427=ADVANCED_FACE('',(#53),#1356,.T.);
#1428=ADVANCED_FACE('',(#54),#1357,.T.);
#1429=ADVANCED_FACE('',(#55),#1358,.T.);
#1430=ADVANCED_FACE('',(#56),#1359,.T.);
#1431=ADVANCED_FACE('',(#57),#1360,.F.);
#1432=ADVANCED_FACE('',(#58),#1361,.T.);
#1433=ADVANCED_FACE('',(#59),#1362,.T.);
#1434=ADVANCED_FACE('',(#60),#1363,.T.);
#1435=ADVANCED_FACE('',(#61),#1364,.T.);
#1436=ADVANCED_FACE('',(#62),#1365,.T.);
#1437=ADVANCED_FACE('',(#63),#1366,.T.);
#1438=ADVANCED_FACE('',(#64),#1367,.T.);
#1439=ADVANCED_FACE('',(#65),#1368,.F.);
#1440=ADVANCED_FACE('',(#66),#1369,.T.);
#1441=ADVANCED_FACE('',(#67),#1370,.T.);
#1442=ADVANCED_FACE('',(#68),#1371,.T.);
#1443=ADVANCED_FACE('',(#69),#1372,.T.);
#1444=ADVANCED_FACE('',(#70),#1373,.T.);
#1445=ADVANCED_FACE('',(#71),#1374,.T.);
#1446=ADVANCED_FACE('',(#72),#1375,.T.);
#1447=ADVANCED_FACE('',(#73),#1376,.T.);
#1448=ADVANCED_FACE('',(#74),#1377,.T.);
#1449=ADVANCED_FACE('',(#75),#1378,.T.);
#1450=ADVANCED_FACE('',(#76),#1379,.T.);
#1451=ADVANCED_FACE('',(#77),#1380,.T.);
#1452=ADVANCED_FACE('',(#78),#1381,.T.);
#1453=ADVANCED_FACE('',(#79),#1382,.T.);
#1454=ADVANCED_FACE('',(#80),#1383,.T.);
#1455=ADVANCED_FACE('',(#81),#1384,.T.);
#1456=ADVANCED_FACE('',(#82),#1385,.T.);
#1457=ADVANCED_FACE('',(#83),#1386,.T.);
#1458=ADVANCED_FACE('',(#84),#1387,.T.);
#1459=ADVANCED_FACE('',(#85),#1388,.T.);
#1460=CLOSED_SHELL('',(#1389,#1390,#1391,#1392,#1393,#1394,#1395,#1396,
#1397,#1398,#1399,#1400,#1401,#1402,#1403,#1404,#1405,#1406,#1407,#1408,
#1409,#1410,#1411,#1412,#1413,#1414,#1415,#1416,#1417,#1418,#1419,#1420,
#1421,#1422,#1423,#1424,#1425,#1426,#1427,#1428,#1429,#1430,#1431,#1432,
#1433,#1434,#1435,#1436,#1437,#1438,#1439,#1440,#1441,#1442,#1443,#1444,
#1445,#1446,#1447,#1448,#1449,#1450,#1451,#1452,#1453,#1454,#1455,#1456,
#1457,#1458,#1459));
#1461=DERIVED_UNIT_ELEMENT(#1463,1.);
#1462=DERIVED_UNIT_ELEMENT(#2312,-3.);
#1463=(
MASS_UNIT()
NAMED_UNIT(*)
SI_UNIT(.KILO.,.GRAM.)
);
#1464=DERIVED_UNIT((#1461,#1462));
#1465=MEASURE_REPRESENTATION_ITEM('density measure',
POSITIVE_RATIO_MEASURE(7850.),#1464);
#1466=PROPERTY_DEFINITION_REPRESENTATION(#1471,#1468);
#1467=PROPERTY_DEFINITION_REPRESENTATION(#1472,#1469);
#1468=REPRESENTATION('material name',(#1470),#2309);
#1469=REPRESENTATION('density',(#1465),#2309);
#1470=DESCRIPTIVE_REPRESENTATION_ITEM('\X2\92FC\X0\','\X2\92FC\X0\');
#1471=PROPERTY_DEFINITION('material property','material name',#2319);
#1472=PROPERTY_DEFINITION('material property','density of part',#2319);
#1473=AXIS2_PLACEMENT_3D('',#1894,#1545,#1546);
#1474=AXIS2_PLACEMENT_3D('',#1895,#1547,#1548);
#1475=AXIS2_PLACEMENT_3D('',#1906,#1554,#1555);
#1476=AXIS2_PLACEMENT_3D('',#1915,#1560,#1561);
#1477=AXIS2_PLACEMENT_3D('',#1921,#1565,#1566);
#1478=AXIS2_PLACEMENT_3D('',#1927,#1570,#1571);
#1479=AXIS2_PLACEMENT_3D('',#1935,#1576,#1577);
#1480=AXIS2_PLACEMENT_3D('',#1938,#1580,#1581);
#1481=AXIS2_PLACEMENT_3D('',#1947,#1586,#1587);
#1482=AXIS2_PLACEMENT_3D('',#1956,#1592,#1593);
#1483=AXIS2_PLACEMENT_3D('',#1962,#1597,#1598);
#1484=AXIS2_PLACEMENT_3D('',#1968,#1602,#1603);
#1485=AXIS2_PLACEMENT_3D('',#1971,#1606,#1607);
#1486=AXIS2_PLACEMENT_3D('',#1980,#1612,#1613);
#1487=AXIS2_PLACEMENT_3D('',#1989,#1618,#1619);
#1488=AXIS2_PLACEMENT_3D('',#1995,#1623,#1624);
#1489=AXIS2_PLACEMENT_3D('',#2001,#1628,#1629);
#1490=AXIS2_PLACEMENT_3D('',#2004,#1632,#1633);
#1491=AXIS2_PLACEMENT_3D('',#2013,#1638,#1639);
#1492=AXIS2_PLACEMENT_3D('',#2022,#1644,#1645);
#1493=AXIS2_PLACEMENT_3D('',#2028,#1649,#1650);
#1494=AXIS2_PLACEMENT_3D('',#2034,#1654,#1655);
#1495=AXIS2_PLACEMENT_3D('',#2037,#1658,#1659);
#1496=AXIS2_PLACEMENT_3D('',#2046,#1664,#1665);
#1497=AXIS2_PLACEMENT_3D('',#2055,#1670,#1671);
#1498=AXIS2_PLACEMENT_3D('',#2061,#1675,#1676);
#1499=AXIS2_PLACEMENT_3D('',#2067,#1680,#1681);
#1500=AXIS2_PLACEMENT_3D('',#2070,#1684,#1685);
#1501=AXIS2_PLACEMENT_3D('',#2079,#1690,#1691);
#1502=AXIS2_PLACEMENT_3D('',#2088,#1696,#1697);
#1503=AXIS2_PLACEMENT_3D('',#2091,#1700,#1701);
#1504=AXIS2_PLACEMENT_3D('',#2100,#1706,#1707);
#1505=AXIS2_PLACEMENT_3D('',#2109,#1712,#1713);
#1506=AXIS2_PLACEMENT_3D('',#2115,#1717,#1718);
#1507=AXIS2_PLACEMENT_3D('',#2121,#1722,#1723);
#1508=AXIS2_PLACEMENT_3D('',#2124,#1726,#1727);
#1509=AXIS2_PLACEMENT_3D('',#2133,#1732,#1733);
#1510=AXIS2_PLACEMENT_3D('',#2142,#1738,#1739);
#1511=AXIS2_PLACEMENT_3D('',#2147,#1743,#1744);
#1512=AXIS2_PLACEMENT_3D('',#2151,#1747,#1748);
#1513=AXIS2_PLACEMENT_3D('',#2163,#1755,#1756);
#1514=AXIS2_PLACEMENT_3D('',#2169,#1760,#1761);
#1515=AXIS2_PLACEMENT_3D('',#2185,#1770,#1771);
#1516=AXIS2_PLACEMENT_3D('',#2188,#1774,#1775);
#1517=AXIS2_PLACEMENT_3D('',#2190,#1777,#1778);
#1518=AXIS2_PLACEMENT_3D('',#2192,#1780,#1781);
#1519=AXIS2_PLACEMENT_3D('',#2195,#1784,#1785);
#1520=AXIS2_PLACEMENT_3D('',#2196,#1786,#1787);
#1521=AXIS2_PLACEMENT_3D('',#2202,#1791,#1792);
#1522=AXIS2_PLACEMENT_3D('',#2206,#1795,#1796);
#1523=AXIS2_PLACEMENT_3D('',#2210,#1799,#1800);
#1524=AXIS2_PLACEMENT_3D('',#2212,#1802,#1803);
#1525=AXIS2_PLACEMENT_3D('',#2244,#1823,#1824);
#1526=AXIS2_PLACEMENT_3D('',#2248,#1827,#1828);
#1527=AXIS2_PLACEMENT_3D('',#2252,#1831,#1832);
#1528=AXIS2_PLACEMENT_3D('',#2254,#1834,#1835);
#1529=AXIS2_PLACEMENT_3D('',#2258,#1838,#1839);
#1530=AXIS2_PLACEMENT_3D('',#2262,#1842,#1843);
#1531=AXIS2_PLACEMENT_3D('',#2264,#1845,#1846);
#1532=AXIS2_PLACEMENT_3D('',#2268,#1849,#1850);
#1533=AXIS2_PLACEMENT_3D('',#2272,#1853,#1854);
#1534=AXIS2_PLACEMENT_3D('',#2274,#1856,#1857);
#1535=AXIS2_PLACEMENT_3D('',#2278,#1860,#1861);
#1536=AXIS2_PLACEMENT_3D('',#2282,#1864,#1865);
#1537=AXIS2_PLACEMENT_3D('',#2284,#1867,#1868);
#1538=AXIS2_PLACEMENT_3D('',#2288,#1871,#1872);
#1539=AXIS2_PLACEMENT_3D('',#2292,#1875,#1876);
#1540=AXIS2_PLACEMENT_3D('',#2294,#1878,#1879);
#1541=AXIS2_PLACEMENT_3D('',#2298,#1882,#1883);
#1542=AXIS2_PLACEMENT_3D('',#2302,#1886,#1887);
#1543=AXIS2_PLACEMENT_3D('',#2304,#1889,#1890);
#1544=AXIS2_PLACEMENT_3D('',#2306,#1892,#1893);
#1545=DIRECTION('axis',(0.,0.,1.));
#1546=DIRECTION('refdir',(1.,0.,0.));
#1547=DIRECTION('center_axis',(1.,0.,0.));
#1548=DIRECTION('ref_axis',(0.,1.,0.));
#1549=DIRECTION('',(0.,1.,0.));
#1550=DIRECTION('',(0.,0.,1.));
#1551=DIRECTION('',(0.,1.,0.));
#1552=DIRECTION('',(0.,0.,1.));
#1553=DIRECTION('',(0.,0.,1.));
#1554=DIRECTION('center_axis',(0.,1.,0.));
#1555=DIRECTION('ref_axis',(-1.,0.,0.));
#1556=DIRECTION('',(-1.,0.,0.));
#1557=DIRECTION('',(0.,0.,1.));
#1558=DIRECTION('',(1.,0.,0.));
#1559=DIRECTION('',(0.,0.,1.));
#1560=DIRECTION('center_axis',(0.,1.,0.));
#1561=DIRECTION('ref_axis',(-1.,0.,0.));
#1562=DIRECTION('',(-1.,0.,0.));
#1563=DIRECTION('',(1.,0.,0.));
#1564=DIRECTION('',(0.,0.,-1.));
#1565=DIRECTION('center_axis',(0.,0.,1.));
#1566=DIRECTION('ref_axis',(1.,0.,0.));
#1567=DIRECTION('',(0.,-1.,0.));
#1568=DIRECTION('',(-1.,0.,0.));
#1569=DIRECTION('',(1.,0.,0.));
#1570=DIRECTION('center_axis',(0.,-1.,0.));
#1571=DIRECTION('ref_axis',(1.,0.,0.));
#1572=DIRECTION('',(1.,0.,0.));
#1573=DIRECTION('',(0.,0.,1.));
#1574=DIRECTION('',(-1.,0.,0.));
#1575=DIRECTION('',(0.,0.,-1.));
#1576=DIRECTION('center_axis',(-1.,0.,0.));
#1577=DIRECTION('ref_axis',(0.,-1.,0.));
#1578=DIRECTION('',(0.,-1.,0.));
#1579=DIRECTION('',(0.,1.,0.));
#1580=DIRECTION('center_axis',(-1.,0.,0.));
#1581=DIRECTION('ref_axis',(0.,-1.,0.));
#1582=DIRECTION('',(0.,1.,0.));
#1583=DIRECTION('',(0.,0.,1.));
#1584=DIRECTION('',(0.,-1.,0.));
#1585=DIRECTION('',(0.,0.,1.));
#1586=DIRECTION('center_axis',(0.,1.,0.));
#1587=DIRECTION('ref_axis',(-1.,0.,0.));
#1588=DIRECTION('',(1.,0.,0.));
#1589=DIRECTION('',(0.,0.,-1.));
#1590=DIRECTION('',(-1.,0.,0.));
#1591=DIRECTION('',(0.,0.,1.));
#1592=DIRECTION('center_axis',(0.,1.,0.));
#1593=DIRECTION('ref_axis',(-1.,0.,0.));
#1594=DIRECTION('',(1.,0.,0.));
#1595=DIRECTION('',(-1.,0.,0.));
#1596=DIRECTION('',(0.,0.,1.));
#1597=DIRECTION('center_axis',(1.,0.,0.));
#1598=DIRECTION('ref_axis',(0.,1.,0.));
#1599=DIRECTION('',(0.,-1.,0.));
#1600=DIRECTION('',(0.,1.,0.));
#1601=DIRECTION('',(0.,0.,1.));
#1602=DIRECTION('center_axis',(0.,-1.,0.));
#1603=DIRECTION('ref_axis',(1.,0.,0.));
#1604=DIRECTION('',(-1.,0.,0.));
#1605=DIRECTION('',(1.,0.,0.));
#1606=DIRECTION('center_axis',(-1.,0.,0.));
#1607=DIRECTION('ref_axis',(0.,-1.,0.));
#1608=DIRECTION('',(0.,1.,0.));
#1609=DIRECTION('',(0.,0.,1.));
#1610=DIRECTION('',(0.,-1.,0.));
#1611=DIRECTION('',(0.,0.,1.));
#1612=DIRECTION('center_axis',(0.,1.,0.));
#1613=DIRECTION('ref_axis',(-1.,0.,0.));
#1614=DIRECTION('',(1.,0.,0.));
#1615=DIRECTION('',(0.,0.,-1.));
#1616=DIRECTION('',(-1.,0.,0.));
#1617=DIRECTION('',(0.,0.,1.));
#1618=DIRECTION('center_axis',(0.,1.,0.));
#1619=DIRECTION('ref_axis',(-1.,0.,0.));
#1620=DIRECTION('',(1.,0.,0.));
#1621=DIRECTION('',(-1.,0.,0.));
#1622=DIRECTION('',(0.,0.,1.));
#1623=DIRECTION('center_axis',(1.,1.11022302462516E-16,0.));
#1624=DIRECTION('ref_axis',(-1.11022302462516E-16,1.,0.));
#1625=DIRECTION('',(1.11022302462516E-16,-1.,0.));
#1626=DIRECTION('',(-1.11022302462516E-16,1.,0.));
#1627=DIRECTION('',(0.,0.,1.));
#1628=DIRECTION('center_axis',(0.,-1.,0.));
#1629=DIRECTION('ref_axis',(1.,0.,0.));
#1630=DIRECTION('',(-1.,0.,0.));
#1631=DIRECTION('',(1.,0.,0.));
#1632=DIRECTION('center_axis',(-1.,0.,0.));
#1633=DIRECTION('ref_axis',(0.,-1.,0.));
#1634=DIRECTION('',(0.,1.,0.));
#1635=DIRECTION('',(0.,0.,1.));
#1636=DIRECTION('',(0.,-1.,0.));
#1637=DIRECTION('',(0.,0.,1.));
#1638=DIRECTION('center_axis',(0.,1.,0.));
#1639=DIRECTION('ref_axis',(-1.,0.,0.));
#1640=DIRECTION('',(1.,0.,0.));
#1641=DIRECTION('',(0.,0.,-1.));
#1642=DIRECTION('',(-1.,0.,0.));
#1643=DIRECTION('',(0.,0.,1.));
#1644=DIRECTION('center_axis',(0.,1.,0.));
#1645=DIRECTION('ref_axis',(-1.,0.,0.));
#1646=DIRECTION('',(1.,0.,0.));
#1647=DIRECTION('',(-1.,0.,0.));
#1648=DIRECTION('',(0.,0.,1.));
#1649=DIRECTION('center_axis',(1.,0.,0.));
#1650=DIRECTION('ref_axis',(0.,1.,0.));
#1651=DIRECTION('',(0.,-1.,0.));
#1652=DIRECTION('',(0.,1.,0.));
#1653=DIRECTION('',(0.,0.,1.));
#1654=DIRECTION('center_axis',(0.,-1.,0.));
#1655=DIRECTION('ref_axis',(1.,0.,0.));
#1656=DIRECTION('',(-1.,0.,0.));
#1657=DIRECTION('',(1.,0.,0.));
#1658=DIRECTION('center_axis',(-1.,0.,0.));
#1659=DIRECTION('ref_axis',(0.,-1.,0.));
#1660=DIRECTION('',(0.,1.,0.));
#1661=DIRECTION('',(0.,0.,1.));
#1662=DIRECTION('',(0.,-1.,0.));
#1663=DIRECTION('',(0.,0.,1.));
#1664=DIRECTION('center_axis',(0.,1.,0.));
#1665=DIRECTION('ref_axis',(-1.,0.,0.));
#1666=DIRECTION('',(1.,0.,0.));
#1667=DIRECTION('',(0.,0.,-1.));
#1668=DIRECTION('',(-1.,0.,0.));
#1669=DIRECTION('',(0.,0.,1.));
#1670=DIRECTION('center_axis',(0.,1.,0.));
#1671=DIRECTION('ref_axis',(-1.,0.,0.));
#1672=DIRECTION('',(1.,0.,0.));
#1673=DIRECTION('',(-1.,0.,0.));
#1674=DIRECTION('',(0.,0.,1.));
#1675=DIRECTION('center_axis',(1.,0.,0.));
#1676=DIRECTION('ref_axis',(0.,1.,0.));
#1677=DIRECTION('',(0.,-1.,0.));
#1678=DIRECTION('',(0.,1.,0.));
#1679=DIRECTION('',(0.,0.,1.));
#1680=DIRECTION('center_axis',(0.,-1.,0.));
#1681=DIRECTION('ref_axis',(1.,0.,0.));
#1682=DIRECTION('',(-1.,0.,0.));
#1683=DIRECTION('',(1.,0.,0.));
#1684=DIRECTION('center_axis',(0.,-1.,0.));
#1685=DIRECTION('ref_axis',(1.,0.,0.));
#1686=DIRECTION('',(-1.,0.,0.));
#1687=DIRECTION('',(0.,0.,1.));
#1688=DIRECTION('',(1.,0.,0.));
#1689=DIRECTION('',(0.,0.,-1.));
#1690=DIRECTION('center_axis',(0.,1.,0.));
#1691=DIRECTION('ref_axis',(-1.,0.,0.));
#1692=DIRECTION('',(1.,0.,0.));
#1693=DIRECTION('',(0.,0.,-1.));
#1694=DIRECTION('',(-1.,0.,0.));
#1695=DIRECTION('',(0.,0.,1.));
#1696=DIRECTION('center_axis',(1.,0.,0.));
#1697=DIRECTION('ref_axis',(0.,1.,0.));
#1698=DIRECTION('',(0.,-1.,0.));
#1699=DIRECTION('',(0.,1.,0.));
#1700=DIRECTION('center_axis',(-1.,0.,0.));
#1701=DIRECTION('ref_axis',(0.,-1.,0.));
#1702=DIRECTION('',(0.,1.,0.));
#1703=DIRECTION('',(0.,0.,1.));
#1704=DIRECTION('',(0.,-1.,0.));
#1705=DIRECTION('',(0.,0.,1.));
#1706=DIRECTION('center_axis',(0.,1.,0.));
#1707=DIRECTION('ref_axis',(-1.,0.,0.));
#1708=DIRECTION('',(1.,0.,0.));
#1709=DIRECTION('',(0.,0.,-1.));
#1710=DIRECTION('',(-1.,0.,0.));
#1711=DIRECTION('',(0.,0.,1.));
#1712=DIRECTION('center_axis',(0.,1.,0.));
#1713=DIRECTION('ref_axis',(-1.,0.,0.));
#1714=DIRECTION('',(1.,0.,0.));
#1715=DIRECTION('',(-1.,0.,0.));
#1716=DIRECTION('',(0.,0.,1.));
#1717=DIRECTION('center_axis',(1.,0.,0.));
#1718=DIRECTION('ref_axis',(0.,1.,0.));
#1719=DIRECTION('',(0.,-1.,0.));
#1720=DIRECTION('',(0.,1.,0.));
#1721=DIRECTION('',(0.,0.,1.));
#1722=DIRECTION('center_axis',(0.,-1.,0.));
#1723=DIRECTION('ref_axis',(1.,0.,0.));
#1724=DIRECTION('',(-1.,0.,0.));
#1725=DIRECTION('',(1.,0.,0.));
#1726=DIRECTION('center_axis',(0.,-1.,0.));
#1727=DIRECTION('ref_axis',(1.,0.,0.));
#1728=DIRECTION('',(1.,0.,0.));
#1729=DIRECTION('',(0.,0.,1.));
#1730=DIRECTION('',(1.,0.,0.));
#1731=DIRECTION('',(0.,0.,1.));
#1732=DIRECTION('center_axis',(0.,1.,0.));
#1733=DIRECTION('ref_axis',(-1.,0.,0.));
#1734=DIRECTION('',(-1.,0.,0.));
#1735=DIRECTION('',(0.,0.,1.));
#1736=DIRECTION('',(1.,0.,0.));
#1737=DIRECTION('',(0.,0.,1.));
#1738=DIRECTION('center_axis',(-1.,0.,0.));
#1739=DIRECTION('ref_axis',(0.,-1.,0.));
#1740=DIRECTION('',(0.,-1.,0.));
#1741=DIRECTION('',(0.,0.,-1.));
#1742=DIRECTION('',(0.,-1.,0.));
#1743=DIRECTION('center_axis',(0.,0.,1.));
#1744=DIRECTION('ref_axis',(1.,0.,0.));
#1745=DIRECTION('',(-1.,0.,0.));
#1746=DIRECTION('',(0.,1.,0.));
#1747=DIRECTION('center_axis',(-1.,0.,0.));
#1748=DIRECTION('ref_axis',(0.,-1.,0.));
#1749=DIRECTION('',(0.,1.,0.));
#1750=DIRECTION('',(0.,0.,1.));
#1751=DIRECTION('',(0.,-1.,0.));
#1752=DIRECTION('',(0.,0.,1.));
#1753=DIRECTION('',(0.,-1.,0.));
#1754=DIRECTION('',(0.,0.,1.));
#1755=DIRECTION('center_axis',(-1.,0.,0.));
#1756=DIRECTION('ref_axis',(0.,-1.,0.));
#1757=DIRECTION('',(0.,-1.,0.));
#1758=DIRECTION('',(0.,0.,1.));
#1759=DIRECTION('',(0.,-1.,0.));
#1760=DIRECTION('center_axis',(1.,0.,0.));
#1761=DIRECTION('ref_axis',(0.,1.,0.));
#1762=DIRECTION('',(0.,0.,1.));
#1763=DIRECTION('',(0.,1.,0.));
#1764=DIRECTION('',(0.,0.,1.));
#1765=DIRECTION('',(0.,1.,0.));
#1766=DIRECTION('',(0.,0.,1.));
#1767=DIRECTION('',(0.,1.,0.));
#1768=DIRECTION('',(0.,0.,1.));
#1769=DIRECTION('',(0.,1.,0.));
#1770=DIRECTION('center_axis',(0.,1.,0.));
#1771=DIRECTION('ref_axis',(-1.,0.,0.));
#1772=DIRECTION('',(1.,0.,0.));
#1773=DIRECTION('',(1.,0.,0.));
#1774=DIRECTION('center_axis',(0.,0.,1.));
#1775=DIRECTION('ref_axis',(1.,0.,0.));
#1776=DIRECTION('',(-1.,-1.85037170770859E-16,0.));
#1777=DIRECTION('center_axis',(-1.85037170770859E-16,1.,0.));
#1778=DIRECTION('ref_axis',(-1.,-1.85037170770859E-16,0.));
#1779=DIRECTION('',(-1.,-1.85037170770859E-16,0.));
#1780=DIRECTION('center_axis',(0.,-1.,0.));
#1781=DIRECTION('ref_axis',(1.,0.,0.));
#1782=DIRECTION('',(-1.,0.,0.));
#1783=DIRECTION('',(1.,0.,0.));
#1784=DIRECTION('center_axis',(0.,0.,1.));
#1785=DIRECTION('ref_axis',(1.,0.,0.));
#1786=DIRECTION('center_axis',(0.,0.,1.));
#1787=DIRECTION('ref_axis',(1.,0.,0.));
#1788=DIRECTION('',(-0.186619650236677,0.982432239976651,0.));
#1789=DIRECTION('',(-1.,0.,0.));
#1790=DIRECTION('',(-0.186619650236676,-0.982432239976651,0.));
#1791=DIRECTION('center_axis',(-0.982432239976651,0.186619650236676,0.));
#1792=DIRECTION('ref_axis',(-0.186619650236676,-0.982432239976651,0.));
#1793=DIRECTION('',(0.,0.,1.));
#1794=DIRECTION('',(0.186619650236676,0.982432239976651,0.));
#1795=DIRECTION('center_axis',(0.,1.,0.));
#1796=DIRECTION('ref_axis',(-1.,0.,0.));
#1797=DIRECTION('',(1.,0.,0.));
#1798=DIRECTION('',(0.,0.,1.));
#1799=DIRECTION('center_axis',(0.982432239976651,0.186619650236677,0.));
#1800=DIRECTION('ref_axis',(-0.186619650236677,0.982432239976651,0.));
#1801=DIRECTION('',(0.186619650236677,-0.982432239976651,0.));
#1802=DIRECTION('center_axis',(0.,0.,1.));
#1803=DIRECTION('ref_axis',(1.,0.,0.));
#1804=DIRECTION('',(1.,0.,0.));
#1805=DIRECTION('',(0.186619650236677,0.982432239976651,0.));
#1806=DIRECTION('',(1.,0.,0.));
#1807=DIRECTION('',(0.186619650236676,-0.982432239976651,0.));
#1808=DIRECTION('',(0.186619650236676,0.982432239976651,0.));
#1809=DIRECTION('',(1.,0.,0.));
#1810=DIRECTION('',(0.186619650236676,-0.982432239976651,0.));
#1811=DIRECTION('',(0.186619650236676,0.982432239976651,0.));
#1812=DIRECTION('',(1.,0.,0.));
#1813=DIRECTION('',(0.186619650236676,-0.982432239976651,0.));
#1814=DIRECTION('',(0.186619650236676,0.982432239976651,0.));
#1815=DIRECTION('',(1.,0.,0.));
#1816=DIRECTION('',(0.186619650236676,-0.982432239976651,0.));
#1817=DIRECTION('',(0.186619650236676,0.982432239976651,0.));
#1818=DIRECTION('',(1.,0.,0.));
#1819=DIRECTION('',(0.186619650236676,-0.982432239976651,0.));
#1820=DIRECTION('',(0.186619650236676,0.982432239976651,0.));
#1821=DIRECTION('',(1.,0.,0.));
#1822=DIRECTION('',(0.186619650236676,-0.982432239976651,0.));
#1823=DIRECTION('center_axis',(-0.982432239976651,0.186619650236676,0.));
#1824=DIRECTION('ref_axis',(-0.186619650236676,-0.982432239976651,0.));
#1825=DIRECTION('',(-0.186619650236676,-0.982432239976651,0.));
#1826=DIRECTION('',(0.,0.,1.));
#1827=DIRECTION('center_axis',(0.,1.,0.));
#1828=DIRECTION('ref_axis',(-1.,0.,0.));
#1829=DIRECTION('',(-1.,0.,0.));
#1830=DIRECTION('',(0.,0.,1.));
#1831=DIRECTION('center_axis',(0.982432239976651,0.186619650236676,0.));
#1832=DIRECTION('ref_axis',(-0.186619650236676,0.982432239976651,0.));
#1833=DIRECTION('',(-0.186619650236676,0.982432239976651,0.));
#1834=DIRECTION('center_axis',(-0.982432239976651,0.186619650236676,0.));
#1835=DIRECTION('ref_axis',(-0.186619650236676,-0.982432239976651,0.));
#1836=DIRECTION('',(-0.186619650236676,-0.982432239976651,0.));
#1837=DIRECTION('',(0.,0.,1.));
#1838=DIRECTION('center_axis',(0.,1.,0.));
#1839=DIRECTION('ref_axis',(-1.,0.,0.));
#1840=DIRECTION('',(-1.,0.,0.));
#1841=DIRECTION('',(0.,0.,1.));
#1842=DIRECTION('center_axis',(0.982432239976651,0.186619650236676,0.));
#1843=DIRECTION('ref_axis',(-0.186619650236676,0.982432239976651,0.));
#1844=DIRECTION('',(-0.186619650236676,0.982432239976651,0.));
#1845=DIRECTION('center_axis',(-0.982432239976651,0.186619650236676,0.));
#1846=DIRECTION('ref_axis',(-0.186619650236676,-0.982432239976651,0.));
#1847=DIRECTION('',(-0.186619650236676,-0.982432239976651,0.));
#1848=DIRECTION('',(0.,0.,1.));
#1849=DIRECTION('center_axis',(0.,1.,0.));
#1850=DIRECTION('ref_axis',(-1.,0.,0.));
#1851=DIRECTION('',(-1.,0.,0.));
#1852=DIRECTION('',(0.,0.,1.));
#1853=DIRECTION('center_axis',(0.982432239976651,0.186619650236676,0.));
#1854=DIRECTION('ref_axis',(-0.186619650236676,0.982432239976651,0.));
#1855=DIRECTION('',(-0.186619650236676,0.982432239976651,0.));
#1856=DIRECTION('center_axis',(-0.982432239976651,0.186619650236676,0.));
#1857=DIRECTION('ref_axis',(-0.186619650236676,-0.982432239976651,0.));
#1858=DIRECTION('',(-0.186619650236676,-0.982432239976651,0.));
#1859=DIRECTION('',(0.,0.,1.));
#1860=DIRECTION('center_axis',(0.,1.,0.));
#1861=DIRECTION('ref_axis',(-1.,0.,0.));
#1862=DIRECTION('',(-1.,0.,0.));
#1863=DIRECTION('',(0.,0.,1.));
#1864=DIRECTION('center_axis',(0.982432239976651,0.186619650236676,0.));
#1865=DIRECTION('ref_axis',(-0.186619650236676,0.982432239976651,0.));
#1866=DIRECTION('',(-0.186619650236676,0.982432239976651,0.));
#1867=DIRECTION('center_axis',(-0.982432239976651,0.186619650236677,0.));
#1868=DIRECTION('ref_axis',(-0.186619650236677,-0.982432239976651,0.));
#1869=DIRECTION('',(-0.186619650236677,-0.982432239976651,0.));
#1870=DIRECTION('',(0.,0.,1.));
#1871=DIRECTION('center_axis',(0.,1.,0.));
#1872=DIRECTION('ref_axis',(-1.,0.,0.));
#1873=DIRECTION('',(-1.,0.,0.));
#1874=DIRECTION('',(0.,0.,1.));
#1875=DIRECTION('center_axis',(0.982432239976651,0.186619650236676,0.));
#1876=DIRECTION('ref_axis',(-0.186619650236676,0.982432239976651,0.));
#1877=DIRECTION('',(-0.186619650236676,0.982432239976651,0.));
#1878=DIRECTION('center_axis',(-0.982432239976651,0.186619650236676,0.));
#1879=DIRECTION('ref_axis',(-0.186619650236676,-0.982432239976651,0.));
#1880=DIRECTION('',(-0.186619650236676,-0.982432239976651,0.));
#1881=DIRECTION('',(0.,0.,1.));
#1882=DIRECTION('center_axis',(0.982432239976651,0.186619650236676,0.));
#1883=DIRECTION('ref_axis',(-0.186619650236676,0.982432239976651,0.));
#1884=DIRECTION('',(0.,0.,1.));
#1885=DIRECTION('',(-0.186619650236676,0.982432239976651,0.));
#1886=DIRECTION('center_axis',(0.,1.,0.));
#1887=DIRECTION('ref_axis',(-1.,0.,0.));
#1888=DIRECTION('',(-1.,0.,0.));
#1889=DIRECTION('center_axis',(0.,-1.,0.));
#1890=DIRECTION('ref_axis',(1.,0.,0.));
#1891=DIRECTION('',(1.,0.,0.));
#1892=DIRECTION('center_axis',(0.,0.,1.));
#1893=DIRECTION('ref_axis',(1.,0.,0.));
#1894=CARTESIAN_POINT('',(0.,0.,0.));
#1895=CARTESIAN_POINT('Origin',(17.85,-15.05,472.05));
#1896=CARTESIAN_POINT('',(17.85,-15.05,472.1));
#1897=CARTESIAN_POINT('',(17.85,-12.55,472.1));
#1898=CARTESIAN_POINT('',(17.85,-15.6625,472.1));
#1899=CARTESIAN_POINT('',(17.85,-15.05,478.15));
#1900=CARTESIAN_POINT('',(17.85,-15.05,472.05));
#1901=CARTESIAN_POINT('',(17.85,-12.55,478.15));
#1902=CARTESIAN_POINT('',(17.85,-15.05,478.15));
#1903=CARTESIAN_POINT('',(17.85,-12.55,478.1));
#1904=CARTESIAN_POINT('',(17.85,-12.55,472.075));
#1905=CARTESIAN_POINT('',(17.85,-12.55,472.05));
#1906=CARTESIAN_POINT('Origin',(17.85,-12.55,472.05));
#1907=CARTESIAN_POINT('',(13.6369904498892,-12.55,472.1));
#1908=CARTESIAN_POINT('',(13.6,-12.55,472.1));
#1909=CARTESIAN_POINT('',(8.925,-12.55,472.1));
#1910=CARTESIAN_POINT('',(13.6369904498892,-12.55,478.1));
#1911=CARTESIAN_POINT('',(13.6369904498892,-12.55,472.1));
#1912=CARTESIAN_POINT('',(13.6,-12.55,478.1));
#1913=CARTESIAN_POINT('',(8.925,-12.55,478.1));
#1914=CARTESIAN_POINT('',(13.6,-12.55,472.05));
#1915=CARTESIAN_POINT('Origin',(17.85,-12.55,472.05));
#1916=CARTESIAN_POINT('',(17.7780479290862,-12.55,472.1));
#1917=CARTESIAN_POINT('',(8.925,-12.55,472.1));
#1918=CARTESIAN_POINT('',(17.7780479290862,-12.55,478.1));
#1919=CARTESIAN_POINT('',(11.5,-12.55,478.1));
#1920=CARTESIAN_POINT('',(17.7780479290862,-12.55,472.1));
#1921=CARTESIAN_POINT('Origin',(15.725,-13.8,478.15));
#1922=CARTESIAN_POINT('',(17.,-12.55,478.15));
#1923=CARTESIAN_POINT('',(17.,-15.05,478.15));
#1924=CARTESIAN_POINT('',(17.,-13.175,478.15));
#1925=CARTESIAN_POINT('',(19.3625,-12.55,478.15));
#1926=CARTESIAN_POINT('',(13.6,-15.05,478.15));
#1927=CARTESIAN_POINT('Origin',(13.6,-15.05,472.05));
#1928=CARTESIAN_POINT('',(13.6,-15.05,472.1));
#1929=CARTESIAN_POINT('',(6.8,-15.05,472.1));
#1930=CARTESIAN_POINT('',(13.6,-15.05,478.1));
#1931=CARTESIAN_POINT('',(13.6,-15.05,472.05));
#1932=CARTESIAN_POINT('',(17.,-15.05,478.1));
#1933=CARTESIAN_POINT('',(6.8,-15.05,478.1));
#1934=CARTESIAN_POINT('',(17.,-15.05,474.825));
#1935=CARTESIAN_POINT('Origin',(13.6,-12.55,472.05));
#1936=CARTESIAN_POINT('',(13.6,-14.4125,472.1));
#1937=CARTESIAN_POINT('',(13.6,-14.4125,478.1));
#1938=CARTESIAN_POINT('Origin',(1.,-12.55,472.05));
#1939=CARTESIAN_POINT('',(1.,-15.05,478.1));
#1940=CARTESIAN_POINT('',(1.,-12.55,478.1));
#1941=CARTESIAN_POINT('',(1.,-14.4125,478.1));
#1942=CARTESIAN_POINT('',(1.,-15.05,472.1));
#1943=CARTESIAN_POINT('',(1.,-15.05,472.05));
#1944=CARTESIAN_POINT('',(1.,-12.55,472.1));
#1945=CARTESIAN_POINT('',(1.,-14.4125,472.1));
#1946=CARTESIAN_POINT('',(1.,-12.55,472.05));
#1947=CARTESIAN_POINT('Origin',(5.25,-12.55,472.05));
#1948=CARTESIAN_POINT('',(5.21167731472703,-12.55,478.1));
#1949=CARTESIAN_POINT('',(5.25,-12.55,478.1));
#1950=CARTESIAN_POINT('',(2.625,-12.55,478.1));
#1951=CARTESIAN_POINT('',(5.21167731472703,-12.55,472.1));
#1952=CARTESIAN_POINT('',(5.21167731472703,-12.55,472.1));
#1953=CARTESIAN_POINT('',(5.25,-12.55,472.1));
#1954=CARTESIAN_POINT('',(2.625,-12.55,472.1));
#1955=CARTESIAN_POINT('',(5.25,-12.55,472.05));
#1956=CARTESIAN_POINT('Origin',(5.25,-12.55,472.05));
#1957=CARTESIAN_POINT('',(1.07061983553007,-12.55,478.1));
#1958=CARTESIAN_POINT('',(2.625,-12.55,478.1));
#1959=CARTESIAN_POINT('',(1.07061983553007,-12.55,472.1));
#1960=CARTESIAN_POINT('',(2.625,-12.55,472.1));
#1961=CARTESIAN_POINT('',(1.07061983553007,-12.55,472.1));
#1962=CARTESIAN_POINT('Origin',(5.25,-15.05,472.05));
#1963=CARTESIAN_POINT('',(5.25,-15.05,478.1));
#1964=CARTESIAN_POINT('',(5.25,-15.6625,478.1));
#1965=CARTESIAN_POINT('',(5.25,-15.05,472.1));
#1966=CARTESIAN_POINT('',(5.25,-15.6625,472.1));
#1967=CARTESIAN_POINT('',(5.25,-15.05,472.05));
#1968=CARTESIAN_POINT('Origin',(1.,-15.05,472.05));
#1969=CARTESIAN_POINT('',(0.5,-15.05,478.1));
#1970=CARTESIAN_POINT('',(0.5,-15.05,472.1));
#1971=CARTESIAN_POINT('Origin',(-5.25,-12.55,472.05));
#1972=CARTESIAN_POINT('',(-5.25,-15.05,478.1));
#1973=CARTESIAN_POINT('',(-5.25,-12.55,478.1));
#1974=CARTESIAN_POINT('',(-5.25,-14.4125,478.1));
#1975=CARTESIAN_POINT('',(-5.25,-15.05,472.1));
#1976=CARTESIAN_POINT('',(-5.25,-15.05,472.05));
#1977=CARTESIAN_POINT('',(-5.25,-12.55,472.1));
#1978=CARTESIAN_POINT('',(-5.25,-14.4125,472.1));
#1979=CARTESIAN_POINT('',(-5.25,-12.55,472.05));
#1980=CARTESIAN_POINT('Origin',(-1.,-12.55,472.05));
#1981=CARTESIAN_POINT('',(-1.07150799245255,-12.55,478.1));
#1982=CARTESIAN_POINT('',(-1.,-12.55,478.1));
#1983=CARTESIAN_POINT('',(-0.5,-12.55,478.1));
#1984=CARTESIAN_POINT('',(-1.07150799245256,-12.55,472.1));
#1985=CARTESIAN_POINT('',(-1.07150799245256,-12.55,472.1));
#1986=CARTESIAN_POINT('',(-1.,-12.55,472.1));
#1987=CARTESIAN_POINT('',(-0.5,-12.55,472.1));
#1988=CARTESIAN_POINT('',(-1.,-12.55,472.05));
#1989=CARTESIAN_POINT('Origin',(-1.,-12.55,472.05));
#1990=CARTESIAN_POINT('',(-5.21256547164952,-12.55,478.1));
#1991=CARTESIAN_POINT('',(-0.5,-12.55,478.1));
#1992=CARTESIAN_POINT('',(-5.21256547164951,-12.55,472.1));
#1993=CARTESIAN_POINT('',(-0.5,-12.55,472.1));
#1994=CARTESIAN_POINT('',(-5.21256547164952,-12.55,472.1));
#1995=CARTESIAN_POINT('Origin',(-1.,-15.05,472.05));
#1996=CARTESIAN_POINT('',(-1.,-15.05,478.1));
#1997=CARTESIAN_POINT('',(-1.,-15.6625,478.1));
#1998=CARTESIAN_POINT('',(-1.,-15.05,472.1));
#1999=CARTESIAN_POINT('',(-1.,-15.6625,472.1));
#2000=CARTESIAN_POINT('',(-1.,-15.05,472.05));
#2001=CARTESIAN_POINT('Origin',(-5.25,-15.05,472.05));
#2002=CARTESIAN_POINT('',(-2.625,-15.05,478.1));
#2003=CARTESIAN_POINT('',(-2.625,-15.05,472.1));
#2004=CARTESIAN_POINT('Origin',(-17.85,-12.55,472.05));
#2005=CARTESIAN_POINT('',(-17.85,-15.05,478.1));
#2006=CARTESIAN_POINT('',(-17.85,-12.55,478.1));
#2007=CARTESIAN_POINT('',(-17.85,-14.4125,478.1));
#2008=CARTESIAN_POINT('',(-17.85,-15.05,472.1));
#2009=CARTESIAN_POINT('',(-17.85,-15.05,472.05));
#2010=CARTESIAN_POINT('',(-17.85,-12.55,472.1));
#2011=CARTESIAN_POINT('',(-17.85,-14.4125,472.1));
#2012=CARTESIAN_POINT('',(-17.85,-12.55,472.05));
#2013=CARTESIAN_POINT('Origin',(-13.6,-12.55,472.05));
#2014=CARTESIAN_POINT('',(-13.6378786068117,-12.55,478.1));
#2015=CARTESIAN_POINT('',(-13.6,-12.55,478.1));
#2016=CARTESIAN_POINT('',(-6.8,-12.55,478.1));
#2017=CARTESIAN_POINT('',(-13.6378786068117,-12.55,472.1));
#2018=CARTESIAN_POINT('',(-13.6378786068117,-12.55,472.1));
#2019=CARTESIAN_POINT('',(-13.6,-12.55,472.1));
#2020=CARTESIAN_POINT('',(-6.8,-12.55,472.1));
#2021=CARTESIAN_POINT('',(-13.6,-12.55,472.05));
#2022=CARTESIAN_POINT('Origin',(-13.6,-12.55,472.05));
#2023=CARTESIAN_POINT('',(-17.7789360860087,-12.55,478.1));
#2024=CARTESIAN_POINT('',(-6.8,-12.55,478.1));
#2025=CARTESIAN_POINT('',(-17.7789360860087,-12.55,472.1));
#2026=CARTESIAN_POINT('',(-6.8,-12.55,472.1));
#2027=CARTESIAN_POINT('',(-17.7789360860087,-12.55,472.1));
#2028=CARTESIAN_POINT('Origin',(-13.6,-15.05,472.05));
#2029=CARTESIAN_POINT('',(-13.6,-15.05,478.1));
#2030=CARTESIAN_POINT('',(-13.6,-15.6625,478.1));
#2031=CARTESIAN_POINT('',(-13.6,-15.05,472.1));
#2032=CARTESIAN_POINT('',(-13.6,-15.6625,472.1));
#2033=CARTESIAN_POINT('',(-13.6,-15.05,472.05));
#2034=CARTESIAN_POINT('Origin',(-17.85,-15.05,472.05));
#2035=CARTESIAN_POINT('',(-8.925,-15.05,478.1));
#2036=CARTESIAN_POINT('',(-8.925,-15.05,472.1));
#2037=CARTESIAN_POINT('Origin',(-11.55,-12.55,472.05));
#2038=CARTESIAN_POINT('',(-11.55,-15.05,478.1));
#2039=CARTESIAN_POINT('',(-11.55,-12.55,478.1));
#2040=CARTESIAN_POINT('',(-11.55,-14.4125,478.1));
#2041=CARTESIAN_POINT('',(-11.55,-15.05,472.1));
#2042=CARTESIAN_POINT('',(-11.55,-15.05,472.05));
#2043=CARTESIAN_POINT('',(-11.55,-12.55,472.1));
#2044=CARTESIAN_POINT('',(-11.55,-14.4125,472.1));
#2045=CARTESIAN_POINT('',(-11.55,-12.55,472.05));
#2046=CARTESIAN_POINT('Origin',(-7.3,-12.55,472.05));
#2047=CARTESIAN_POINT('',(-7.35469329963214,-12.55,478.1));
#2048=CARTESIAN_POINT('',(-7.3,-12.55,478.1));
#2049=CARTESIAN_POINT('',(-3.65,-12.55,478.1));
#2050=CARTESIAN_POINT('',(-7.35469329963214,-12.55,472.1));
#2051=CARTESIAN_POINT('',(-7.35469329963214,-12.55,472.1));
#2052=CARTESIAN_POINT('',(-7.3,-12.55,472.1));
#2053=CARTESIAN_POINT('',(-3.65,-12.55,472.1));
#2054=CARTESIAN_POINT('',(-7.3,-12.55,472.05));
#2055=CARTESIAN_POINT('Origin',(-7.3,-12.55,472.05));
#2056=CARTESIAN_POINT('',(-11.4957507788291,-12.55,478.1));
#2057=CARTESIAN_POINT('',(-3.65,-12.55,478.1));
#2058=CARTESIAN_POINT('',(-11.4957507788291,-12.55,472.1));
#2059=CARTESIAN_POINT('',(-3.65,-12.55,472.1));
#2060=CARTESIAN_POINT('',(-11.4957507788291,-12.55,472.1));
#2061=CARTESIAN_POINT('Origin',(-7.3,-15.05,472.05));
#2062=CARTESIAN_POINT('',(-7.3,-15.05,478.1));
#2063=CARTESIAN_POINT('',(-7.3,-15.6625,478.1));
#2064=CARTESIAN_POINT('',(-7.3,-15.05,472.1));
#2065=CARTESIAN_POINT('',(-7.3,-15.6625,472.1));
#2066=CARTESIAN_POINT('',(-7.3,-15.05,472.05));
#2067=CARTESIAN_POINT('Origin',(-11.55,-15.05,472.05));
#2068=CARTESIAN_POINT('',(-5.775,-15.05,478.1));
#2069=CARTESIAN_POINT('',(-5.775,-15.05,472.1));
#2070=CARTESIAN_POINT('Origin',(-23.,-15.05,472.05));
#2071=CARTESIAN_POINT('',(-19.85,-15.05,478.1));
#2072=CARTESIAN_POINT('',(-23.,-15.05,478.1));
#2073=CARTESIAN_POINT('',(-11.5,-15.05,478.1));
#2074=CARTESIAN_POINT('',(-19.85,-15.05,472.1));
#2075=CARTESIAN_POINT('',(-19.85,-15.05,472.05));
#2076=CARTESIAN_POINT('',(-23.,-15.05,472.1));
#2077=CARTESIAN_POINT('',(-11.5,-15.05,472.1));
#2078=CARTESIAN_POINT('',(-23.,-15.05,472.075));
#2079=CARTESIAN_POINT('Origin',(-19.85,-12.55,472.05));
#2080=CARTESIAN_POINT('',(-19.9210639139913,-12.55,478.1));
#2081=CARTESIAN_POINT('',(-19.85,-12.55,478.1));
#2082=CARTESIAN_POINT('',(-9.925,-12.55,478.1));
#2083=CARTESIAN_POINT('',(-19.9210639139913,-12.55,472.1));
#2084=CARTESIAN_POINT('',(-19.9210639139913,-12.55,472.1));
#2085=CARTESIAN_POINT('',(-19.85,-12.55,472.1));
#2086=CARTESIAN_POINT('',(-9.925,-12.55,472.1));
#2087=CARTESIAN_POINT('',(-19.85,-12.55,472.05));
#2088=CARTESIAN_POINT('Origin',(-19.85,-15.05,472.05));
#2089=CARTESIAN_POINT('',(-19.85,-15.6625,478.1));
#2090=CARTESIAN_POINT('',(-19.85,-15.6625,472.1));
#2091=CARTESIAN_POINT('Origin',(7.3,-12.55,472.05));
#2092=CARTESIAN_POINT('',(7.3,-15.05,478.1));
#2093=CARTESIAN_POINT('',(7.3,-12.55,478.1));
#2094=CARTESIAN_POINT('',(7.3,-14.4125,478.1));
#2095=CARTESIAN_POINT('',(7.3,-15.05,472.1));
#2096=CARTESIAN_POINT('',(7.3,-15.05,472.05));
#2097=CARTESIAN_POINT('',(7.3,-12.55,472.1));
#2098=CARTESIAN_POINT('',(7.3,-14.4125,472.1));
#2099=CARTESIAN_POINT('',(7.3,-12.55,472.05));
#2100=CARTESIAN_POINT('Origin',(11.55,-12.55,472.05));
#2101=CARTESIAN_POINT('',(11.4948626219066,-12.55,478.1));
#2102=CARTESIAN_POINT('',(11.55,-12.55,478.1));
#2103=CARTESIAN_POINT('',(5.775,-12.55,478.1));
#2104=CARTESIAN_POINT('',(11.4948626219066,-12.55,472.1));
#2105=CARTESIAN_POINT('',(11.4948626219066,-12.55,472.1));
#2106=CARTESIAN_POINT('',(11.55,-12.55,472.1));
#2107=CARTESIAN_POINT('',(5.775,-12.55,472.1));
#2108=CARTESIAN_POINT('',(11.55,-12.55,472.05));
#2109=CARTESIAN_POINT('Origin',(11.55,-12.55,472.05));
#2110=CARTESIAN_POINT('',(7.35380514270966,-12.55,478.1));
#2111=CARTESIAN_POINT('',(5.775,-12.55,478.1));
#2112=CARTESIAN_POINT('',(7.35380514270965,-12.55,472.1));
#2113=CARTESIAN_POINT('',(5.775,-12.55,472.1));
#2114=CARTESIAN_POINT('',(7.35380514270965,-12.55,472.1));
#2115=CARTESIAN_POINT('Origin',(11.55,-15.05,472.05));
#2116=CARTESIAN_POINT('',(11.55,-15.05,478.1));
#2117=CARTESIAN_POINT('',(11.55,-15.6625,478.1));
#2118=CARTESIAN_POINT('',(11.55,-15.05,472.1));
#2119=CARTESIAN_POINT('',(11.55,-15.6625,472.1));
#2120=CARTESIAN_POINT('',(11.55,-15.05,472.05));
#2121=CARTESIAN_POINT('Origin',(7.3,-15.05,472.05));
#2122=CARTESIAN_POINT('',(3.65,-15.05,478.1));
#2123=CARTESIAN_POINT('',(3.65,-15.05,472.1));
#2124=CARTESIAN_POINT('Origin',(19.85,-15.05,472.05));
#2125=CARTESIAN_POINT('',(19.85,-15.05,472.1));
#2126=CARTESIAN_POINT('',(23.,-15.05,472.1));
#2127=CARTESIAN_POINT('',(9.925,-15.05,472.1));
#2128=CARTESIAN_POINT('',(19.85,-15.05,478.15));
#2129=CARTESIAN_POINT('',(19.85,-15.05,472.05));
#2130=CARTESIAN_POINT('',(23.,-15.05,478.15));
#2131=CARTESIAN_POINT('',(19.85,-15.05,478.15));
#2132=CARTESIAN_POINT('',(23.,-15.05,472.075));
#2133=CARTESIAN_POINT('Origin',(23.,-12.55,472.05));
#2134=CARTESIAN_POINT('',(19.9201757570688,-12.55,472.1));
#2135=CARTESIAN_POINT('',(19.85,-12.55,472.1));
#2136=CARTESIAN_POINT('',(11.5,-12.55,472.1));
#2137=CARTESIAN_POINT('',(19.9201757570688,-12.55,478.1));
#2138=CARTESIAN_POINT('',(19.9201757570688,-12.55,472.1));
#2139=CARTESIAN_POINT('',(19.85,-12.55,478.1));
#2140=CARTESIAN_POINT('',(11.5,-12.55,478.1));
#2141=CARTESIAN_POINT('',(19.85,-12.55,472.05));
#2142=CARTESIAN_POINT('Origin',(19.85,-12.55,472.05));
#2143=CARTESIAN_POINT('',(19.85,-14.4125,472.1));
#2144=CARTESIAN_POINT('',(19.85,-12.55,478.15));
#2145=CARTESIAN_POINT('',(19.85,-12.55,472.075));
#2146=CARTESIAN_POINT('',(19.85,-12.55,478.15));
#2147=CARTESIAN_POINT('Origin',(21.425,-13.8,478.15));
#2148=CARTESIAN_POINT('',(23.,-12.55,478.15));
#2149=CARTESIAN_POINT('',(22.2125,-12.55,478.15));
#2150=CARTESIAN_POINT('',(23.,-16.9,478.15));
#2151=CARTESIAN_POINT('Origin',(17.,-12.55,477.6));
#2152=CARTESIAN_POINT('',(17.,-17.4,478.1));
#2153=CARTESIAN_POINT('',(17.,-14.4125,478.1));
#2154=CARTESIAN_POINT('',(17.,-17.4,503.));
#2155=CARTESIAN_POINT('',(17.,-17.4,477.6));
#2156=CARTESIAN_POINT('',(17.,6.,503.));
#2157=CARTESIAN_POINT('',(17.,6.,503.));
#2158=CARTESIAN_POINT('',(17.,6.,485.));
#2159=CARTESIAN_POINT('',(17.,6.,485.));
#2160=CARTESIAN_POINT('',(17.,-12.55,485.));
#2161=CARTESIAN_POINT('',(17.,6.,485.));
#2162=CARTESIAN_POINT('',(17.,-12.55,477.6));
#2163=CARTESIAN_POINT('Origin',(-23.,-12.55,472.1));
#2164=CARTESIAN_POINT('',(-23.,-20.,472.1));
#2165=CARTESIAN_POINT('',(-23.,-12.55,472.1));
#2166=CARTESIAN_POINT('',(-23.,-20.,478.1));
#2167=CARTESIAN_POINT('',(-23.,-20.,472.1));
#2168=CARTESIAN_POINT('',(-23.,-12.55,478.1));
#2169=CARTESIAN_POINT('Origin',(23.,-20.,472.1));
#2170=CARTESIAN_POINT('',(23.,-12.55,485.));
#2171=CARTESIAN_POINT('',(23.,-12.55,472.1));
#2172=CARTESIAN_POINT('',(23.,6.,485.));
#2173=CARTESIAN_POINT('',(23.,-17.4,485.));
#2174=CARTESIAN_POINT('',(23.,6.,503.));
#2175=CARTESIAN_POINT('',(23.,6.,485.));
#2176=CARTESIAN_POINT('',(23.,-17.4,503.));
#2177=CARTESIAN_POINT('',(23.,-17.4,503.));
#2178=CARTESIAN_POINT('',(23.,-17.4,478.1));
#2179=CARTESIAN_POINT('',(23.,-17.4,477.6));
#2180=CARTESIAN_POINT('',(23.,-20.,478.1));
#2181=CARTESIAN_POINT('',(23.,-20.,478.1));
#2182=CARTESIAN_POINT('',(23.,-20.,472.1));
#2183=CARTESIAN_POINT('',(23.,-20.,472.1));
#2184=CARTESIAN_POINT('',(23.,-20.,472.1));
#2185=CARTESIAN_POINT('Origin',(23.,-12.55,472.1));
#2186=CARTESIAN_POINT('',(21.5,-12.55,485.));
#2187=CARTESIAN_POINT('',(11.5,-12.55,478.1));
#2188=CARTESIAN_POINT('Origin',(20.,-5.7,485.));
#2189=CARTESIAN_POINT('',(23.,6.,485.));
#2190=CARTESIAN_POINT('Origin',(23.,6.,485.));
#2191=CARTESIAN_POINT('',(23.,6.,503.));
#2192=CARTESIAN_POINT('Origin',(17.,-17.4,477.6));
#2193=CARTESIAN_POINT('',(8.5,-17.4,478.1));
#2194=CARTESIAN_POINT('',(17.,-17.4,503.));
#2195=CARTESIAN_POINT('Origin',(20.,-14.975,503.));
#2196=CARTESIAN_POINT('Origin',(0.,-16.275,478.1));
#2197=CARTESIAN_POINT('',(19.5402622268673,-10.55,478.1));
#2198=CARTESIAN_POINT('',(19.5402622268673,-10.55,478.1));
#2199=CARTESIAN_POINT('',(18.1579614592878,-10.55,478.1));
#2200=CARTESIAN_POINT('',(18.1579614592878,-10.55,478.1));
#2201=CARTESIAN_POINT('',(17.3411473693544,-14.85,478.1));
#2202=CARTESIAN_POINT('Origin',(18.1579614592878,-10.55,472.1));
#2203=CARTESIAN_POINT('',(18.1579614592878,-10.55,472.1));
#2204=CARTESIAN_POINT('',(18.1579614592878,-10.55,472.1));
#2205=CARTESIAN_POINT('',(17.3411473693544,-14.85,472.1));
#2206=CARTESIAN_POINT('Origin',(19.5402622268673,-10.55,472.1));
#2207=CARTESIAN_POINT('',(19.5402622268673,-10.55,472.1));
#2208=CARTESIAN_POINT('',(18.1579614592878,-10.55,472.1));
#2209=CARTESIAN_POINT('',(19.5402622268673,-10.55,472.1));
#2210=CARTESIAN_POINT('Origin',(20.3570763168006,-14.85,472.1));
#2211=CARTESIAN_POINT('',(19.5402622268673,-10.55,472.1));
#2212=CARTESIAN_POINT('Origin',(0.,-16.275,472.1));
#2213=CARTESIAN_POINT('',(-23.,-20.,472.1));
#2214=CARTESIAN_POINT('',(-19.5411503837898,-10.55,472.1));
#2215=CARTESIAN_POINT('',(-20.3579644737231,-14.85,472.1));
#2216=CARTESIAN_POINT('',(-18.1588496162102,-10.55,472.1));
#2217=CARTESIAN_POINT('',(-19.5411503837898,-10.55,472.1));
#2218=CARTESIAN_POINT('',(-18.1588496162102,-10.55,472.1));
#2219=CARTESIAN_POINT('',(-13.2579650766102,-10.55,472.1));
#2220=CARTESIAN_POINT('',(-14.0747791665435,-14.85,472.1));
#2221=CARTESIAN_POINT('',(-11.8756643090307,-10.55,472.1));
#2222=CARTESIAN_POINT('',(-13.2579650766102,-10.55,472.1));
#2223=CARTESIAN_POINT('',(-11.8756643090307,-10.55,472.1));
#2224=CARTESIAN_POINT('',(-6.97477976943058,-10.55,472.1));
#2225=CARTESIAN_POINT('',(-7.79159385936393,-14.85,472.1));
#2226=CARTESIAN_POINT('',(-5.59247900185107,-10.55,472.1));
#2227=CARTESIAN_POINT('',(-6.97477976943058,-10.55,472.1));
#2228=CARTESIAN_POINT('',(-5.59247900185107,-10.55,472.1));
#2229=CARTESIAN_POINT('',(-0.691594462250996,-10.55,472.1));
#2230=CARTESIAN_POINT('',(-1.50840855218434,-14.85,472.1));
#2231=CARTESIAN_POINT('',(0.690706305328513,-10.55,472.1));
#2232=CARTESIAN_POINT('',(-0.691594462250996,-10.55,472.1));
#2233=CARTESIAN_POINT('',(0.690706305328513,-10.55,472.1));
#2234=CARTESIAN_POINT('',(5.59159084492859,-10.55,472.1));
#2235=CARTESIAN_POINT('',(4.77477675499524,-14.85,472.1));
#2236=CARTESIAN_POINT('',(6.9738916125081,-10.55,472.1));
#2237=CARTESIAN_POINT('',(5.59159084492859,-10.55,472.1));
#2238=CARTESIAN_POINT('',(6.9738916125081,-10.55,472.1));
#2239=CARTESIAN_POINT('',(11.8747761521082,-10.55,472.1));
#2240=CARTESIAN_POINT('',(11.0579620621748,-14.85,472.1));
#2241=CARTESIAN_POINT('',(13.2570769196877,-10.55,472.1));
#2242=CARTESIAN_POINT('',(11.8747761521082,-10.55,472.1));
#2243=CARTESIAN_POINT('',(13.2570769196877,-10.55,472.1));
#2244=CARTESIAN_POINT('Origin',(5.59159084492859,-10.55,472.1));
#2245=CARTESIAN_POINT('',(5.59159084492859,-10.55,478.1));
#2246=CARTESIAN_POINT('',(4.77477675499524,-14.85,478.1));
#2247=CARTESIAN_POINT('',(5.59159084492859,-10.55,472.1));
#2248=CARTESIAN_POINT('Origin',(6.9738916125081,-10.55,472.1));
#2249=CARTESIAN_POINT('',(6.9738916125081,-10.55,478.1));
#2250=CARTESIAN_POINT('',(5.59159084492859,-10.55,478.1));
#2251=CARTESIAN_POINT('',(6.9738916125081,-10.55,472.1));
#2252=CARTESIAN_POINT('Origin',(7.79070570244144,-14.85,472.1));
#2253=CARTESIAN_POINT('',(6.9738916125081,-10.55,478.1));
#2254=CARTESIAN_POINT('Origin',(-0.691594462250996,-10.55,472.1));
#2255=CARTESIAN_POINT('',(-0.691594462250996,-10.55,478.1));
#2256=CARTESIAN_POINT('',(-1.50840855218434,-14.85,478.1));
#2257=CARTESIAN_POINT('',(-0.691594462250996,-10.55,472.1));
#2258=CARTESIAN_POINT('Origin',(0.690706305328513,-10.55,472.1));
#2259=CARTESIAN_POINT('',(0.690706305328513,-10.55,478.1));
#2260=CARTESIAN_POINT('',(-0.691594462250996,-10.55,478.1));
#2261=CARTESIAN_POINT('',(0.690706305328513,-10.55,472.1));
#2262=CARTESIAN_POINT('Origin',(1.50752039526186,-14.85,472.1));
#2263=CARTESIAN_POINT('',(0.690706305328513,-10.55,478.1));
#2264=CARTESIAN_POINT('Origin',(-13.2579650766102,-10.55,472.1));
#2265=CARTESIAN_POINT('',(-13.2579650766102,-10.55,478.1));
#2266=CARTESIAN_POINT('',(-14.0747791665435,-14.85,478.1));
#2267=CARTESIAN_POINT('',(-13.2579650766102,-10.55,472.1));
#2268=CARTESIAN_POINT('Origin',(-11.8756643090307,-10.55,472.1));
#2269=CARTESIAN_POINT('',(-11.8756643090307,-10.55,478.1));
#2270=CARTESIAN_POINT('',(-13.2579650766102,-10.55,478.1));
#2271=CARTESIAN_POINT('',(-11.8756643090307,-10.55,472.1));
#2272=CARTESIAN_POINT('Origin',(-11.0588502190973,-14.85,472.1));
#2273=CARTESIAN_POINT('',(-11.8756643090307,-10.55,478.1));
#2274=CARTESIAN_POINT('Origin',(-6.97477976943058,-10.55,472.1));
#2275=CARTESIAN_POINT('',(-6.97477976943058,-10.55,478.1));
#2276=CARTESIAN_POINT('',(-7.79159385936393,-14.85,478.1));
#2277=CARTESIAN_POINT('',(-6.97477976943058,-10.55,472.1));
#2278=CARTESIAN_POINT('Origin',(-5.59247900185107,-10.55,472.1));
#2279=CARTESIAN_POINT('',(-5.59247900185107,-10.55,478.1));
#2280=CARTESIAN_POINT('',(-6.97477976943058,-10.55,478.1));
#2281=CARTESIAN_POINT('',(-5.59247900185107,-10.55,472.1));
#2282=CARTESIAN_POINT('Origin',(-4.77566491191773,-14.85,472.1));
#2283=CARTESIAN_POINT('',(-5.59247900185107,-10.55,478.1));
#2284=CARTESIAN_POINT('Origin',(-19.5411503837898,-10.55,472.1));
#2285=CARTESIAN_POINT('',(-19.5411503837898,-10.55,478.1));
#2286=CARTESIAN_POINT('',(-20.3579644737231,-14.85,478.1));
#2287=CARTESIAN_POINT('',(-19.5411503837898,-10.55,472.1));
#2288=CARTESIAN_POINT('Origin',(-18.1588496162102,-10.55,472.1));
#2289=CARTESIAN_POINT('',(-18.1588496162102,-10.55,478.1));
#2290=CARTESIAN_POINT('',(-19.5411503837898,-10.55,478.1));
#2291=CARTESIAN_POINT('',(-18.1588496162102,-10.55,472.1));
#2292=CARTESIAN_POINT('Origin',(-17.3420355262769,-14.85,472.1));
#2293=CARTESIAN_POINT('',(-18.1588496162102,-10.55,478.1));
#2294=CARTESIAN_POINT('Origin',(11.8747761521082,-10.55,472.1));
#2295=CARTESIAN_POINT('',(11.8747761521082,-10.55,478.1));
#2296=CARTESIAN_POINT('',(11.0579620621748,-14.85,478.1));
#2297=CARTESIAN_POINT('',(11.8747761521082,-10.55,472.1));
#2298=CARTESIAN_POINT('Origin',(14.073891009621,-14.85,472.1));
#2299=CARTESIAN_POINT('',(13.2570769196877,-10.55,478.1));
#2300=CARTESIAN_POINT('',(13.2570769196877,-10.55,472.1));
#2301=CARTESIAN_POINT('',(13.2570769196877,-10.55,478.1));
#2302=CARTESIAN_POINT('Origin',(13.2570769196877,-10.55,472.1));
#2303=CARTESIAN_POINT('',(11.8747761521082,-10.55,478.1));
#2304=CARTESIAN_POINT('Origin',(-23.,-20.,472.1));
#2305=CARTESIAN_POINT('',(-23.,-20.,478.1));
#2306=CARTESIAN_POINT('Origin',(0.,-16.275,478.1));
#2307=UNCERTAINTY_MEASURE_WITH_UNIT(LENGTH_MEASURE(0.01),#2311,
'DISTANCE_ACCURACY_VALUE',
'Maximum model space distance between geometric entities at asserted c
onnectivities');
#2308=UNCERTAINTY_MEASURE_WITH_UNIT(LENGTH_MEASURE(0.01),#2311,
'DISTANCE_ACCURACY_VALUE',
'Maximum model space distance between geometric entities at asserted c
onnectivities');
#2309=(
GEOMETRIC_REPRESENTATION_CONTEXT(3)
GLOBAL_UNCERTAINTY_ASSIGNED_CONTEXT((#2307))
GLOBAL_UNIT_ASSIGNED_CONTEXT((#2311,#2313,#2314))
REPRESENTATION_CONTEXT('','3D')
);
#2310=(
GEOMETRIC_REPRESENTATION_CONTEXT(3)
GLOBAL_UNCERTAINTY_ASSIGNED_CONTEXT((#2308))
GLOBAL_UNIT_ASSIGNED_CONTEXT((#2311,#2313,#2314))
REPRESENTATION_CONTEXT('','3D')
);
#2311=(
LENGTH_UNIT()
NAMED_UNIT(*)
SI_UNIT(.MILLI.,.METRE.)
);
#2312=(
LENGTH_UNIT()
NAMED_UNIT(*)
SI_UNIT($,.METRE.)
);
#2313=(
NAMED_UNIT(*)
PLANE_ANGLE_UNIT()
SI_UNIT($,.RADIAN.)
);
#2314=(
NAMED_UNIT(*)
SI_UNIT($,.STERADIAN.)
SOLID_ANGLE_UNIT()
);
#2315=SHAPE_DEFINITION_REPRESENTATION(#2316,#2317);
#2316=PRODUCT_DEFINITION_SHAPE('',$,#2319);
#2317=SHAPE_REPRESENTATION('',(#1473),#2309);
#2318=PRODUCT_DEFINITION_CONTEXT('part definition',#2323,'design');
#2319=PRODUCT_DEFINITION('2026-09-02-14-52-33-704','Finger_B',#2320,#2318);
#2320=PRODUCT_DEFINITION_FORMATION('',$,#2325);
#2321=PRODUCT_RELATED_PRODUCT_CATEGORY('Finger_B','Finger_B',(#2325));
#2322=APPLICATION_PROTOCOL_DEFINITION('international standard',
'automotive_design',2009,#2323);
#2323=APPLICATION_CONTEXT(
'Core Data for Automotive Mechanical Design Process');
#2324=PRODUCT_CONTEXT('part definition',#2323,'mechanical');
#2325=PRODUCT('2026-09-02-14-52-33-704','Finger_B',$,(#2324));
#2326=PRESENTATION_STYLE_ASSIGNMENT((#2327));
#2327=SURFACE_STYLE_USAGE(.BOTH.,#2328);
#2328=SURFACE_SIDE_STYLE('',(#2329));
#2329=SURFACE_STYLE_FILL_AREA(#2330);
#2330=FILL_AREA_STYLE('\X2\92FC\X0\ - \X2\30B530C630F3\X0\',(#2331));
#2331=FILL_AREA_STYLE_COLOUR('\X2\92FC\X0\ - \X2\30B530C630F3\X0\',#2332);
#2332=COLOUR_RGB('\X2\92FC\X0\ - \X2\30B530C630F3\X0\',0.627450980392157,
0.627450980392157,0.627450980392157);
ENDSEC;
END-ISO-10303-21;
