ISO-10303-21;
HEADER;
/* Generated by software containing ST-Developer
 * from STEP Tools, Inc. (www.steptools.com) 
 */

FILE_DESCRIPTION(
/* description */ (''),
/* implementation_level */ '2;1');

FILE_NAME(
/* name */ 'GripperTop.step',
/* time_stamp */ '2026-08-21T16:05:24+09:00',
/* author */ (''),
/* organization */ (''),
/* preprocessor_version */ 'ST-DEVELOPER v20.1',
/* originating_system */ 'Autodesk Translation Framework v15.8.0.0',
/* authorisation */ '');

FILE_SCHEMA (('AUTOMOTIVE_DESIGN { 1 0 10303 214 3 1 1 }'));
ENDSEC;

DATA;
#10=MECHANICAL_DESIGN_GEOMETRIC_PRESENTATION_REPRESENTATION('',(#13),#852);
#11=SHAPE_REPRESENTATION_RELATIONSHIP('SRR','None',#859,#12);
#12=ADVANCED_BREP_SHAPE_REPRESENTATION('',(#14),#851);
#13=STYLED_ITEM('',(#868),#14);
#14=MANIFOLD_SOLID_BREP('\X2\30DC30C730A3\X0\1',#520);
#15=FACE_BOUND('',#86,.T.);
#16=FACE_BOUND('',#87,.T.);
#17=FACE_BOUND('',#88,.T.);
#18=FACE_BOUND('',#93,.T.);
#19=FACE_BOUND('',#94,.T.);
#20=FACE_BOUND('',#95,.T.);
#21=FACE_BOUND('',#96,.T.);
#22=FACE_BOUND('',#104,.T.);
#23=FACE_BOUND('',#105,.T.);
#24=FACE_BOUND('',#106,.T.);
#25=FACE_BOUND('',#107,.T.);
#26=FACE_BOUND('',#108,.T.);
#27=FACE_BOUND('',#109,.T.);
#28=FACE_BOUND('',#110,.T.);
#29=PLANE('',#543);
#30=PLANE('',#544);
#31=PLANE('',#545);
#32=PLANE('',#546);
#33=PLANE('',#547);
#34=PLANE('',#548);
#35=PLANE('',#549);
#36=PLANE('',#550);
#37=PLANE('',#551);
#38=PLANE('',#552);
#39=PLANE('',#553);
#40=PLANE('',#556);
#41=PLANE('',#557);
#42=PLANE('',#558);
#43=PLANE('',#559);
#44=PLANE('',#570);
#45=PLANE('',#571);
#46=PLANE('',#572);
#47=FACE_OUTER_BOUND('',#72,.T.);
#48=FACE_OUTER_BOUND('',#73,.T.);
#49=FACE_OUTER_BOUND('',#74,.T.);
#50=FACE_OUTER_BOUND('',#75,.T.);
#51=FACE_OUTER_BOUND('',#76,.T.);
#52=FACE_OUTER_BOUND('',#77,.T.);
#53=FACE_OUTER_BOUND('',#78,.T.);
#54=FACE_OUTER_BOUND('',#79,.T.);
#55=FACE_OUTER_BOUND('',#80,.T.);
#56=FACE_OUTER_BOUND('',#81,.T.);
#57=FACE_OUTER_BOUND('',#82,.T.);
#58=FACE_OUTER_BOUND('',#83,.T.);
#59=FACE_OUTER_BOUND('',#84,.T.);
#60=FACE_OUTER_BOUND('',#85,.T.);
#61=FACE_OUTER_BOUND('',#89,.T.);
#62=FACE_OUTER_BOUND('',#90,.T.);
#63=FACE_OUTER_BOUND('',#91,.T.);
#64=FACE_OUTER_BOUND('',#92,.T.);
#65=FACE_OUTER_BOUND('',#97,.T.);
#66=FACE_OUTER_BOUND('',#98,.T.);
#67=FACE_OUTER_BOUND('',#99,.T.);
#68=FACE_OUTER_BOUND('',#100,.T.);
#69=FACE_OUTER_BOUND('',#101,.T.);
#70=FACE_OUTER_BOUND('',#102,.T.);
#71=FACE_OUTER_BOUND('',#103,.T.);
#72=EDGE_LOOP('',(#350,#351,#352,#353));
#73=EDGE_LOOP('',(#354,#355,#356,#357));
#74=EDGE_LOOP('',(#358,#359,#360,#361));
#75=EDGE_LOOP('',(#362,#363,#364,#365));
#76=EDGE_LOOP('',(#366,#367,#368,#369));
#77=EDGE_LOOP('',(#370,#371,#372,#373));
#78=EDGE_LOOP('',(#374,#375,#376,#377,#378,#379,#380,#381,#382,#383,#384,
#385,#386,#387,#388,#389));
#79=EDGE_LOOP('',(#390,#391,#392,#393));
#80=EDGE_LOOP('',(#394,#395,#396,#397));
#81=EDGE_LOOP('',(#398,#399,#400,#401,#402,#403,#404,#405,#406,#407,#408,
#409,#410,#411,#412,#413));
#82=EDGE_LOOP('',(#414,#415,#416,#417));
#83=EDGE_LOOP('',(#418,#419,#420,#421));
#84=EDGE_LOOP('',(#422,#423,#424,#425));
#85=EDGE_LOOP('',(#426,#427,#428,#429));
#86=EDGE_LOOP('',(#430));
#87=EDGE_LOOP('',(#431));
#88=EDGE_LOOP('',(#432));
#89=EDGE_LOOP('',(#433,#434,#435,#436));
#90=EDGE_LOOP('',(#437,#438,#439,#440));
#91=EDGE_LOOP('',(#441,#442,#443,#444));
#92=EDGE_LOOP('',(#445,#446,#447,#448));
#93=EDGE_LOOP('',(#449));
#94=EDGE_LOOP('',(#450));
#95=EDGE_LOOP('',(#451));
#96=EDGE_LOOP('',(#452));
#97=EDGE_LOOP('',(#453,#454,#455,#456));
#98=EDGE_LOOP('',(#457,#458,#459,#460));
#99=EDGE_LOOP('',(#461,#462,#463,#464));
#100=EDGE_LOOP('',(#465,#466,#467,#468));
#101=EDGE_LOOP('',(#469,#470,#471,#472));
#102=EDGE_LOOP('',(#473,#474,#475,#476));
#103=EDGE_LOOP('',(#477,#478,#479,#480));
#104=EDGE_LOOP('',(#481));
#105=EDGE_LOOP('',(#482));
#106=EDGE_LOOP('',(#483));
#107=EDGE_LOOP('',(#484));
#108=EDGE_LOOP('',(#485));
#109=EDGE_LOOP('',(#486));
#110=EDGE_LOOP('',(#487));
#111=LINE('',#713,#166);
#112=LINE('',#719,#167);
#113=LINE('',#725,#168);
#114=LINE('',#730,#169);
#115=LINE('',#732,#170);
#116=LINE('',#734,#171);
#117=LINE('',#735,#172);
#118=LINE('',#738,#173);
#119=LINE('',#740,#174);
#120=LINE('',#741,#175);
#121=LINE('',#745,#176);
#122=LINE('',#747,#177);
#123=LINE('',#749,#178);
#124=LINE('',#750,#179);
#125=LINE('',#753,#180);
#126=LINE('',#755,#181);
#127=LINE('',#757,#182);
#128=LINE('',#759,#183);
#129=LINE('',#761,#184);
#130=LINE('',#763,#185);
#131=LINE('',#765,#186);
#132=LINE('',#767,#187);
#133=LINE('',#769,#188);
#134=LINE('',#771,#189);
#135=LINE('',#773,#190);
#136=LINE('',#774,#191);
#137=LINE('',#775,#192);
#138=LINE('',#778,#193);
#139=LINE('',#780,#194);
#140=LINE('',#781,#195);
#141=LINE('',#784,#196);
#142=LINE('',#785,#197);
#143=LINE('',#788,#198);
#144=LINE('',#790,#199);
#145=LINE('',#792,#200);
#146=LINE('',#794,#201);
#147=LINE('',#796,#202);
#148=LINE('',#798,#203);
#149=LINE('',#799,#204);
#150=LINE('',#801,#205);
#151=LINE('',#803,#206);
#152=LINE('',#804,#207);
#153=LINE('',#805,#208);
#154=LINE('',#807,#209);
#155=LINE('',#809,#210);
#156=LINE('',#817,#211);
#157=LINE('',#819,#212);
#158=LINE('',#820,#213);
#159=LINE('',#823,#214);
#160=LINE('',#831,#215);
#161=LINE('',#835,#216);
#162=LINE('',#839,#217);
#163=LINE('',#843,#218);
#164=LINE('',#845,#219);
#165=LINE('',#847,#220);
#166=VECTOR('',#579,12.6);
#167=VECTOR('',#586,1.25);
#168=VECTOR('',#593,1.25);
#169=VECTOR('',#598,10.);
#170=VECTOR('',#599,10.);
#171=VECTOR('',#600,10.);
#172=VECTOR('',#601,10.);
#173=VECTOR('',#604,10.);
#174=VECTOR('',#605,10.);
#175=VECTOR('',#606,10.);
#176=VECTOR('',#609,10.);
#177=VECTOR('',#610,10.);
#178=VECTOR('',#611,10.);
#179=VECTOR('',#612,10.);
#180=VECTOR('',#615,10.);
#181=VECTOR('',#616,10.);
#182=VECTOR('',#617,10.);
#183=VECTOR('',#618,10.);
#184=VECTOR('',#619,10.);
#185=VECTOR('',#620,10.);
#186=VECTOR('',#621,10.);
#187=VECTOR('',#622,10.);
#188=VECTOR('',#623,10.);
#189=VECTOR('',#624,10.);
#190=VECTOR('',#625,10.);
#191=VECTOR('',#626,10.);
#192=VECTOR('',#627,10.);
#193=VECTOR('',#630,10.);
#194=VECTOR('',#631,10.);
#195=VECTOR('',#632,10.);
#196=VECTOR('',#635,10.);
#197=VECTOR('',#636,10.);
#198=VECTOR('',#639,10.);
#199=VECTOR('',#640,10.);
#200=VECTOR('',#641,10.);
#201=VECTOR('',#642,10.);
#202=VECTOR('',#643,10.);
#203=VECTOR('',#644,10.);
#204=VECTOR('',#645,10.);
#205=VECTOR('',#646,10.);
#206=VECTOR('',#647,10.);
#207=VECTOR('',#648,10.);
#208=VECTOR('',#649,10.);
#209=VECTOR('',#652,10.);
#210=VECTOR('',#655,10.);
#211=VECTOR('',#666,10.);
#212=VECTOR('',#669,10.);
#213=VECTOR('',#670,10.);
#214=VECTOR('',#675,10.);
#215=VECTOR('',#684,1.8);
#216=VECTOR('',#689,1.8);
#217=VECTOR('',#694,1.8);
#218=VECTOR('',#699,1.8);
#219=VECTOR('',#702,10.);
#220=VECTOR('',#705,10.);
#221=CIRCLE('',#535,12.6);
#222=CIRCLE('',#536,12.6);
#223=CIRCLE('',#538,1.25);
#224=CIRCLE('',#539,1.25);
#225=CIRCLE('',#541,1.25);
#226=CIRCLE('',#542,1.25);
#227=CIRCLE('',#554,1.8);
#228=CIRCLE('',#555,1.8);
#229=CIRCLE('',#560,1.8);
#230=CIRCLE('',#561,1.8);
#231=CIRCLE('',#563,1.8);
#232=CIRCLE('',#565,1.8);
#233=CIRCLE('',#567,1.8);
#234=CIRCLE('',#569,1.8);
#235=VERTEX_POINT('',#710);
#236=VERTEX_POINT('',#712);
#237=VERTEX_POINT('',#716);
#238=VERTEX_POINT('',#718);
#239=VERTEX_POINT('',#722);
#240=VERTEX_POINT('',#724);
#241=VERTEX_POINT('',#728);
#242=VERTEX_POINT('',#729);
#243=VERTEX_POINT('',#731);
#244=VERTEX_POINT('',#733);
#245=VERTEX_POINT('',#737);
#246=VERTEX_POINT('',#739);
#247=VERTEX_POINT('',#743);
#248=VERTEX_POINT('',#744);
#249=VERTEX_POINT('',#746);
#250=VERTEX_POINT('',#748);
#251=VERTEX_POINT('',#752);
#252=VERTEX_POINT('',#754);
#253=VERTEX_POINT('',#756);
#254=VERTEX_POINT('',#758);
#255=VERTEX_POINT('',#760);
#256=VERTEX_POINT('',#762);
#257=VERTEX_POINT('',#764);
#258=VERTEX_POINT('',#766);
#259=VERTEX_POINT('',#768);
#260=VERTEX_POINT('',#770);
#261=VERTEX_POINT('',#772);
#262=VERTEX_POINT('',#777);
#263=VERTEX_POINT('',#779);
#264=VERTEX_POINT('',#783);
#265=VERTEX_POINT('',#787);
#266=VERTEX_POINT('',#789);
#267=VERTEX_POINT('',#791);
#268=VERTEX_POINT('',#793);
#269=VERTEX_POINT('',#795);
#270=VERTEX_POINT('',#797);
#271=VERTEX_POINT('',#800);
#272=VERTEX_POINT('',#802);
#273=VERTEX_POINT('',#812);
#274=VERTEX_POINT('',#814);
#275=VERTEX_POINT('',#824);
#276=VERTEX_POINT('',#826);
#277=VERTEX_POINT('',#829);
#278=VERTEX_POINT('',#833);
#279=VERTEX_POINT('',#837);
#280=VERTEX_POINT('',#841);
#281=EDGE_CURVE('',#235,#235,#221,.T.);
#282=EDGE_CURVE('',#235,#236,#111,.T.);
#283=EDGE_CURVE('',#236,#236,#222,.T.);
#284=EDGE_CURVE('',#237,#237,#223,.T.);
#285=EDGE_CURVE('',#237,#238,#112,.T.);
#286=EDGE_CURVE('',#238,#238,#224,.T.);
#287=EDGE_CURVE('',#239,#239,#225,.T.);
#288=EDGE_CURVE('',#239,#240,#113,.T.);
#289=EDGE_CURVE('',#240,#240,#226,.T.);
#290=EDGE_CURVE('',#241,#242,#114,.T.);
#291=EDGE_CURVE('',#243,#241,#115,.T.);
#292=EDGE_CURVE('',#244,#243,#116,.T.);
#293=EDGE_CURVE('',#242,#244,#117,.T.);
#294=EDGE_CURVE('',#243,#245,#118,.T.);
#295=EDGE_CURVE('',#246,#245,#119,.T.);
#296=EDGE_CURVE('',#244,#246,#120,.T.);
#297=EDGE_CURVE('',#247,#248,#121,.T.);
#298=EDGE_CURVE('',#249,#247,#122,.T.);
#299=EDGE_CURVE('',#249,#250,#123,.T.);
#300=EDGE_CURVE('',#248,#250,#124,.T.);
#301=EDGE_CURVE('',#251,#241,#125,.T.);
#302=EDGE_CURVE('',#252,#251,#126,.T.);
#303=EDGE_CURVE('',#252,#253,#127,.T.);
#304=EDGE_CURVE('',#253,#254,#128,.T.);
#305=EDGE_CURVE('',#254,#255,#129,.T.);
#306=EDGE_CURVE('',#256,#255,#130,.T.);
#307=EDGE_CURVE('',#257,#256,#131,.T.);
#308=EDGE_CURVE('',#258,#257,#132,.T.);
#309=EDGE_CURVE('',#259,#258,#133,.T.);
#310=EDGE_CURVE('',#259,#260,#134,.T.);
#311=EDGE_CURVE('',#260,#261,#135,.T.);
#312=EDGE_CURVE('',#247,#261,#136,.T.);
#313=EDGE_CURVE('',#245,#248,#137,.T.);
#314=EDGE_CURVE('',#254,#262,#138,.T.);
#315=EDGE_CURVE('',#262,#263,#139,.T.);
#316=EDGE_CURVE('',#255,#263,#140,.T.);
#317=EDGE_CURVE('',#264,#253,#141,.T.);
#318=EDGE_CURVE('',#262,#264,#142,.T.);
#319=EDGE_CURVE('',#265,#249,#143,.T.);
#320=EDGE_CURVE('',#266,#265,#144,.T.);
#321=EDGE_CURVE('',#266,#267,#145,.T.);
#322=EDGE_CURVE('',#267,#268,#146,.T.);
#323=EDGE_CURVE('',#269,#268,#147,.T.);
#324=EDGE_CURVE('',#269,#270,#148,.T.);
#325=EDGE_CURVE('',#263,#270,#149,.T.);
#326=EDGE_CURVE('',#271,#264,#150,.T.);
#327=EDGE_CURVE('',#272,#271,#151,.T.);
#328=EDGE_CURVE('',#272,#242,#152,.T.);
#329=EDGE_CURVE('',#250,#246,#153,.T.);
#330=EDGE_CURVE('',#271,#252,#154,.T.);
#331=EDGE_CURVE('',#251,#272,#155,.T.);
#332=EDGE_CURVE('',#273,#273,#227,.T.);
#333=EDGE_CURVE('',#274,#274,#228,.T.);
#334=EDGE_CURVE('',#261,#265,#156,.T.);
#335=EDGE_CURVE('',#257,#269,#157,.T.);
#336=EDGE_CURVE('',#270,#256,#158,.T.);
#337=EDGE_CURVE('',#268,#258,#159,.T.);
#338=EDGE_CURVE('',#275,#275,#229,.T.);
#339=EDGE_CURVE('',#276,#276,#230,.T.);
#340=EDGE_CURVE('',#277,#277,#231,.T.);
#341=EDGE_CURVE('',#277,#276,#160,.T.);
#342=EDGE_CURVE('',#278,#278,#232,.T.);
#343=EDGE_CURVE('',#278,#273,#161,.T.);
#344=EDGE_CURVE('',#279,#279,#233,.T.);
#345=EDGE_CURVE('',#279,#274,#162,.T.);
#346=EDGE_CURVE('',#280,#280,#234,.T.);
#347=EDGE_CURVE('',#280,#275,#163,.T.);
#348=EDGE_CURVE('',#267,#259,#164,.T.);
#349=EDGE_CURVE('',#260,#266,#165,.T.);
#350=ORIENTED_EDGE('',*,*,#281,.F.);
#351=ORIENTED_EDGE('',*,*,#282,.T.);
#352=ORIENTED_EDGE('',*,*,#283,.F.);
#353=ORIENTED_EDGE('',*,*,#282,.F.);
#354=ORIENTED_EDGE('',*,*,#284,.F.);
#355=ORIENTED_EDGE('',*,*,#285,.T.);
#356=ORIENTED_EDGE('',*,*,#286,.F.);
#357=ORIENTED_EDGE('',*,*,#285,.F.);
#358=ORIENTED_EDGE('',*,*,#287,.F.);
#359=ORIENTED_EDGE('',*,*,#288,.T.);
#360=ORIENTED_EDGE('',*,*,#289,.F.);
#361=ORIENTED_EDGE('',*,*,#288,.F.);
#362=ORIENTED_EDGE('',*,*,#290,.F.);
#363=ORIENTED_EDGE('',*,*,#291,.F.);
#364=ORIENTED_EDGE('',*,*,#292,.F.);
#365=ORIENTED_EDGE('',*,*,#293,.F.);
#366=ORIENTED_EDGE('',*,*,#292,.T.);
#367=ORIENTED_EDGE('',*,*,#294,.T.);
#368=ORIENTED_EDGE('',*,*,#295,.F.);
#369=ORIENTED_EDGE('',*,*,#296,.F.);
#370=ORIENTED_EDGE('',*,*,#297,.F.);
#371=ORIENTED_EDGE('',*,*,#298,.F.);
#372=ORIENTED_EDGE('',*,*,#299,.T.);
#373=ORIENTED_EDGE('',*,*,#300,.F.);
#374=ORIENTED_EDGE('',*,*,#301,.F.);
#375=ORIENTED_EDGE('',*,*,#302,.F.);
#376=ORIENTED_EDGE('',*,*,#303,.T.);
#377=ORIENTED_EDGE('',*,*,#304,.T.);
#378=ORIENTED_EDGE('',*,*,#305,.T.);
#379=ORIENTED_EDGE('',*,*,#306,.F.);
#380=ORIENTED_EDGE('',*,*,#307,.F.);
#381=ORIENTED_EDGE('',*,*,#308,.F.);
#382=ORIENTED_EDGE('',*,*,#309,.F.);
#383=ORIENTED_EDGE('',*,*,#310,.T.);
#384=ORIENTED_EDGE('',*,*,#311,.T.);
#385=ORIENTED_EDGE('',*,*,#312,.F.);
#386=ORIENTED_EDGE('',*,*,#297,.T.);
#387=ORIENTED_EDGE('',*,*,#313,.F.);
#388=ORIENTED_EDGE('',*,*,#294,.F.);
#389=ORIENTED_EDGE('',*,*,#291,.T.);
#390=ORIENTED_EDGE('',*,*,#314,.T.);
#391=ORIENTED_EDGE('',*,*,#315,.T.);
#392=ORIENTED_EDGE('',*,*,#316,.F.);
#393=ORIENTED_EDGE('',*,*,#305,.F.);
#394=ORIENTED_EDGE('',*,*,#317,.F.);
#395=ORIENTED_EDGE('',*,*,#318,.F.);
#396=ORIENTED_EDGE('',*,*,#314,.F.);
#397=ORIENTED_EDGE('',*,*,#304,.F.);
#398=ORIENTED_EDGE('',*,*,#299,.F.);
#399=ORIENTED_EDGE('',*,*,#319,.F.);
#400=ORIENTED_EDGE('',*,*,#320,.F.);
#401=ORIENTED_EDGE('',*,*,#321,.T.);
#402=ORIENTED_EDGE('',*,*,#322,.T.);
#403=ORIENTED_EDGE('',*,*,#323,.F.);
#404=ORIENTED_EDGE('',*,*,#324,.T.);
#405=ORIENTED_EDGE('',*,*,#325,.F.);
#406=ORIENTED_EDGE('',*,*,#315,.F.);
#407=ORIENTED_EDGE('',*,*,#318,.T.);
#408=ORIENTED_EDGE('',*,*,#326,.F.);
#409=ORIENTED_EDGE('',*,*,#327,.F.);
#410=ORIENTED_EDGE('',*,*,#328,.T.);
#411=ORIENTED_EDGE('',*,*,#293,.T.);
#412=ORIENTED_EDGE('',*,*,#296,.T.);
#413=ORIENTED_EDGE('',*,*,#329,.F.);
#414=ORIENTED_EDGE('',*,*,#317,.T.);
#415=ORIENTED_EDGE('',*,*,#303,.F.);
#416=ORIENTED_EDGE('',*,*,#330,.F.);
#417=ORIENTED_EDGE('',*,*,#326,.T.);
#418=ORIENTED_EDGE('',*,*,#290,.T.);
#419=ORIENTED_EDGE('',*,*,#328,.F.);
#420=ORIENTED_EDGE('',*,*,#331,.F.);
#421=ORIENTED_EDGE('',*,*,#301,.T.);
#422=ORIENTED_EDGE('',*,*,#313,.T.);
#423=ORIENTED_EDGE('',*,*,#300,.T.);
#424=ORIENTED_EDGE('',*,*,#329,.T.);
#425=ORIENTED_EDGE('',*,*,#295,.T.);
#426=ORIENTED_EDGE('',*,*,#331,.T.);
#427=ORIENTED_EDGE('',*,*,#327,.T.);
#428=ORIENTED_EDGE('',*,*,#330,.T.);
#429=ORIENTED_EDGE('',*,*,#302,.T.);
#430=ORIENTED_EDGE('',*,*,#283,.T.);
#431=ORIENTED_EDGE('',*,*,#332,.T.);
#432=ORIENTED_EDGE('',*,*,#333,.T.);
#433=ORIENTED_EDGE('',*,*,#298,.T.);
#434=ORIENTED_EDGE('',*,*,#312,.T.);
#435=ORIENTED_EDGE('',*,*,#334,.T.);
#436=ORIENTED_EDGE('',*,*,#319,.T.);
#437=ORIENTED_EDGE('',*,*,#324,.F.);
#438=ORIENTED_EDGE('',*,*,#335,.F.);
#439=ORIENTED_EDGE('',*,*,#307,.T.);
#440=ORIENTED_EDGE('',*,*,#336,.F.);
#441=ORIENTED_EDGE('',*,*,#306,.T.);
#442=ORIENTED_EDGE('',*,*,#316,.T.);
#443=ORIENTED_EDGE('',*,*,#325,.T.);
#444=ORIENTED_EDGE('',*,*,#336,.T.);
#445=ORIENTED_EDGE('',*,*,#335,.T.);
#446=ORIENTED_EDGE('',*,*,#323,.T.);
#447=ORIENTED_EDGE('',*,*,#337,.T.);
#448=ORIENTED_EDGE('',*,*,#308,.T.);
#449=ORIENTED_EDGE('',*,*,#286,.T.);
#450=ORIENTED_EDGE('',*,*,#289,.T.);
#451=ORIENTED_EDGE('',*,*,#338,.T.);
#452=ORIENTED_EDGE('',*,*,#339,.T.);
#453=ORIENTED_EDGE('',*,*,#340,.F.);
#454=ORIENTED_EDGE('',*,*,#341,.T.);
#455=ORIENTED_EDGE('',*,*,#339,.F.);
#456=ORIENTED_EDGE('',*,*,#341,.F.);
#457=ORIENTED_EDGE('',*,*,#342,.F.);
#458=ORIENTED_EDGE('',*,*,#343,.T.);
#459=ORIENTED_EDGE('',*,*,#332,.F.);
#460=ORIENTED_EDGE('',*,*,#343,.F.);
#461=ORIENTED_EDGE('',*,*,#344,.F.);
#462=ORIENTED_EDGE('',*,*,#345,.T.);
#463=ORIENTED_EDGE('',*,*,#333,.F.);
#464=ORIENTED_EDGE('',*,*,#345,.F.);
#465=ORIENTED_EDGE('',*,*,#346,.F.);
#466=ORIENTED_EDGE('',*,*,#347,.T.);
#467=ORIENTED_EDGE('',*,*,#338,.F.);
#468=ORIENTED_EDGE('',*,*,#347,.F.);
#469=ORIENTED_EDGE('',*,*,#348,.T.);
#470=ORIENTED_EDGE('',*,*,#309,.T.);
#471=ORIENTED_EDGE('',*,*,#337,.F.);
#472=ORIENTED_EDGE('',*,*,#322,.F.);
#473=ORIENTED_EDGE('',*,*,#349,.T.);
#474=ORIENTED_EDGE('',*,*,#320,.T.);
#475=ORIENTED_EDGE('',*,*,#334,.F.);
#476=ORIENTED_EDGE('',*,*,#311,.F.);
#477=ORIENTED_EDGE('',*,*,#310,.F.);
#478=ORIENTED_EDGE('',*,*,#348,.F.);
#479=ORIENTED_EDGE('',*,*,#321,.F.);
#480=ORIENTED_EDGE('',*,*,#349,.F.);
#481=ORIENTED_EDGE('',*,*,#284,.T.);
#482=ORIENTED_EDGE('',*,*,#287,.T.);
#483=ORIENTED_EDGE('',*,*,#346,.T.);
#484=ORIENTED_EDGE('',*,*,#344,.T.);
#485=ORIENTED_EDGE('',*,*,#342,.T.);
#486=ORIENTED_EDGE('',*,*,#340,.T.);
#487=ORIENTED_EDGE('',*,*,#281,.T.);
#488=CYLINDRICAL_SURFACE('',#534,12.6);
#489=CYLINDRICAL_SURFACE('',#537,1.25);
#490=CYLINDRICAL_SURFACE('',#540,1.25);
#491=CYLINDRICAL_SURFACE('',#562,1.8);
#492=CYLINDRICAL_SURFACE('',#564,1.8);
#493=CYLINDRICAL_SURFACE('',#566,1.8);
#494=CYLINDRICAL_SURFACE('',#568,1.8);
#495=ADVANCED_FACE('',(#47),#488,.F.);
#496=ADVANCED_FACE('',(#48),#489,.F.);
#497=ADVANCED_FACE('',(#49),#490,.F.);
#498=ADVANCED_FACE('',(#50),#29,.F.);
#499=ADVANCED_FACE('',(#51),#30,.T.);
#500=ADVANCED_FACE('',(#52),#31,.T.);
#501=ADVANCED_FACE('',(#53),#32,.T.);
#502=ADVANCED_FACE('',(#54),#33,.T.);
#503=ADVANCED_FACE('',(#55),#34,.F.);
#504=ADVANCED_FACE('',(#56),#35,.T.);
#505=ADVANCED_FACE('',(#57),#36,.T.);
#506=ADVANCED_FACE('',(#58),#37,.T.);
#507=ADVANCED_FACE('',(#59),#38,.T.);
#508=ADVANCED_FACE('',(#60,#15,#16,#17),#39,.T.);
#509=ADVANCED_FACE('',(#61),#40,.T.);
#510=ADVANCED_FACE('',(#62),#41,.T.);
#511=ADVANCED_FACE('',(#63),#42,.T.);
#512=ADVANCED_FACE('',(#64,#18,#19,#20,#21),#43,.T.);
#513=ADVANCED_FACE('',(#65),#491,.F.);
#514=ADVANCED_FACE('',(#66),#492,.F.);
#515=ADVANCED_FACE('',(#67),#493,.F.);
#516=ADVANCED_FACE('',(#68),#494,.F.);
#517=ADVANCED_FACE('',(#69),#44,.T.);
#518=ADVANCED_FACE('',(#70),#45,.T.);
#519=ADVANCED_FACE('',(#71,#22,#23,#24,#25,#26,#27,#28),#46,.F.);
#520=CLOSED_SHELL('',(#495,#496,#497,#498,#499,#500,#501,#502,#503,#504,
#505,#506,#507,#508,#509,#510,#511,#512,#513,#514,#515,#516,#517,#518,#519));
#521=DERIVED_UNIT_ELEMENT(#523,1.);
#522=DERIVED_UNIT_ELEMENT(#854,-3.);
#523=(
MASS_UNIT()
NAMED_UNIT(*)
SI_UNIT(.KILO.,.GRAM.)
);
#524=DERIVED_UNIT((#521,#522));
#525=MEASURE_REPRESENTATION_ITEM('density measure',
POSITIVE_RATIO_MEASURE(7850.),#524);
#526=PROPERTY_DEFINITION_REPRESENTATION(#531,#528);
#527=PROPERTY_DEFINITION_REPRESENTATION(#532,#529);
#528=REPRESENTATION('material name',(#530),#851);
#529=REPRESENTATION('density',(#525),#851);
#530=DESCRIPTIVE_REPRESENTATION_ITEM('\X2\92FC\X0\','\X2\92FC\X0\');
#531=PROPERTY_DEFINITION('material property','material name',#861);
#532=PROPERTY_DEFINITION('material property','density of part',#861);
#533=AXIS2_PLACEMENT_3D('',#708,#573,#574);
#534=AXIS2_PLACEMENT_3D('',#709,#575,#576);
#535=AXIS2_PLACEMENT_3D('',#711,#577,#578);
#536=AXIS2_PLACEMENT_3D('',#714,#580,#581);
#537=AXIS2_PLACEMENT_3D('',#715,#582,#583);
#538=AXIS2_PLACEMENT_3D('',#717,#584,#585);
#539=AXIS2_PLACEMENT_3D('',#720,#587,#588);
#540=AXIS2_PLACEMENT_3D('',#721,#589,#590);
#541=AXIS2_PLACEMENT_3D('',#723,#591,#592);
#542=AXIS2_PLACEMENT_3D('',#726,#594,#595);
#543=AXIS2_PLACEMENT_3D('',#727,#596,#597);
#544=AXIS2_PLACEMENT_3D('',#736,#602,#603);
#545=AXIS2_PLACEMENT_3D('',#742,#607,#608);
#546=AXIS2_PLACEMENT_3D('',#751,#613,#614);
#547=AXIS2_PLACEMENT_3D('',#776,#628,#629);
#548=AXIS2_PLACEMENT_3D('',#782,#633,#634);
#549=AXIS2_PLACEMENT_3D('',#786,#637,#638);
#550=AXIS2_PLACEMENT_3D('',#806,#650,#651);
#551=AXIS2_PLACEMENT_3D('',#808,#653,#654);
#552=AXIS2_PLACEMENT_3D('',#810,#656,#657);
#553=AXIS2_PLACEMENT_3D('',#811,#658,#659);
#554=AXIS2_PLACEMENT_3D('',#813,#660,#661);
#555=AXIS2_PLACEMENT_3D('',#815,#662,#663);
#556=AXIS2_PLACEMENT_3D('',#816,#664,#665);
#557=AXIS2_PLACEMENT_3D('',#818,#667,#668);
#558=AXIS2_PLACEMENT_3D('',#821,#671,#672);
#559=AXIS2_PLACEMENT_3D('',#822,#673,#674);
#560=AXIS2_PLACEMENT_3D('',#825,#676,#677);
#561=AXIS2_PLACEMENT_3D('',#827,#678,#679);
#562=AXIS2_PLACEMENT_3D('',#828,#680,#681);
#563=AXIS2_PLACEMENT_3D('',#830,#682,#683);
#564=AXIS2_PLACEMENT_3D('',#832,#685,#686);
#565=AXIS2_PLACEMENT_3D('',#834,#687,#688);
#566=AXIS2_PLACEMENT_3D('',#836,#690,#691);
#567=AXIS2_PLACEMENT_3D('',#838,#692,#693);
#568=AXIS2_PLACEMENT_3D('',#840,#695,#696);
#569=AXIS2_PLACEMENT_3D('',#842,#697,#698);
#570=AXIS2_PLACEMENT_3D('',#844,#700,#701);
#571=AXIS2_PLACEMENT_3D('',#846,#703,#704);
#572=AXIS2_PLACEMENT_3D('',#848,#706,#707);
#573=DIRECTION('axis',(0.,0.,1.));
#574=DIRECTION('refdir',(1.,0.,0.));
#575=DIRECTION('center_axis',(0.,0.,1.));
#576=DIRECTION('ref_axis',(1.,0.,0.));
#577=DIRECTION('center_axis',(0.,0.,1.));
#578=DIRECTION('ref_axis',(1.,0.,0.));
#579=DIRECTION('',(0.,0.,1.));
#580=DIRECTION('center_axis',(0.,0.,-1.));
#581=DIRECTION('ref_axis',(1.,0.,0.));
#582=DIRECTION('center_axis',(0.,0.,1.));
#583=DIRECTION('ref_axis',(1.,0.,0.));
#584=DIRECTION('center_axis',(0.,0.,1.));
#585=DIRECTION('ref_axis',(1.,0.,0.));
#586=DIRECTION('',(0.,0.,1.));
#587=DIRECTION('center_axis',(0.,0.,-1.));
#588=DIRECTION('ref_axis',(1.,0.,0.));
#589=DIRECTION('center_axis',(0.,0.,1.));
#590=DIRECTION('ref_axis',(1.,0.,0.));
#591=DIRECTION('center_axis',(0.,0.,1.));
#592=DIRECTION('ref_axis',(1.,0.,0.));
#593=DIRECTION('',(0.,0.,1.));
#594=DIRECTION('center_axis',(0.,0.,-1.));
#595=DIRECTION('ref_axis',(1.,0.,0.));
#596=DIRECTION('center_axis',(0.,0.,1.));
#597=DIRECTION('ref_axis',(1.,0.,0.));
#598=DIRECTION('',(1.,0.,0.));
#599=DIRECTION('',(0.,-1.,0.));
#600=DIRECTION('',(-1.,0.,0.));
#601=DIRECTION('',(0.,1.,0.));
#602=DIRECTION('center_axis',(0.,1.,0.));
#603=DIRECTION('ref_axis',(-1.,0.,0.));
#604=DIRECTION('',(0.,0.,1.));
#605=DIRECTION('',(-1.,0.,0.));
#606=DIRECTION('',(0.,0.,1.));
#607=DIRECTION('center_axis',(0.,-1.,0.));
#608=DIRECTION('ref_axis',(1.,0.,0.));
#609=DIRECTION('',(0.,0.,1.));
#610=DIRECTION('',(-1.,0.,0.));
#611=DIRECTION('',(0.,0.,1.));
#612=DIRECTION('',(1.,0.,0.));
#613=DIRECTION('center_axis',(-1.,0.,0.));
#614=DIRECTION('ref_axis',(0.,-1.,0.));
#615=DIRECTION('',(0.,0.,1.));
#616=DIRECTION('',(0.,-1.,0.));
#617=DIRECTION('',(0.,0.,1.));
#618=DIRECTION('',(0.,-1.,0.));
#619=DIRECTION('',(0.,0.,1.));
#620=DIRECTION('',(0.,-1.,0.));
#621=DIRECTION('',(0.,0.,1.));
#622=DIRECTION('',(0.,-1.,0.));
#623=DIRECTION('',(0.,0.,1.));
#624=DIRECTION('',(0.,-1.,0.));
#625=DIRECTION('',(0.,0.,1.));
#626=DIRECTION('',(0.,-1.,0.));
#627=DIRECTION('',(0.,-1.,0.));
#628=DIRECTION('center_axis',(0.,-1.,0.));
#629=DIRECTION('ref_axis',(1.,0.,0.));
#630=DIRECTION('',(1.,0.,0.));
#631=DIRECTION('',(0.,0.,1.));
#632=DIRECTION('',(1.,0.,0.));
#633=DIRECTION('center_axis',(0.,0.,1.));
#634=DIRECTION('ref_axis',(1.,0.,0.));
#635=DIRECTION('',(-1.,0.,0.));
#636=DIRECTION('',(0.,1.,0.));
#637=DIRECTION('center_axis',(1.,0.,0.));
#638=DIRECTION('ref_axis',(0.,1.,0.));
#639=DIRECTION('',(0.,1.,0.));
#640=DIRECTION('',(0.,0.,1.));
#641=DIRECTION('',(0.,1.,0.));
#642=DIRECTION('',(0.,0.,1.));
#643=DIRECTION('',(0.,1.,0.));
#644=DIRECTION('',(0.,0.,1.));
#645=DIRECTION('',(0.,1.,0.));
#646=DIRECTION('',(0.,0.,1.));
#647=DIRECTION('',(0.,1.,0.));
#648=DIRECTION('',(0.,0.,1.));
#649=DIRECTION('',(0.,1.,0.));
#650=DIRECTION('center_axis',(0.,-1.,0.));
#651=DIRECTION('ref_axis',(1.,0.,0.));
#652=DIRECTION('',(-1.,0.,0.));
#653=DIRECTION('center_axis',(0.,1.,0.));
#654=DIRECTION('ref_axis',(-1.,0.,0.));
#655=DIRECTION('',(1.,0.,0.));
#656=DIRECTION('center_axis',(0.,0.,1.));
#657=DIRECTION('ref_axis',(1.,0.,0.));
#658=DIRECTION('center_axis',(0.,0.,1.));
#659=DIRECTION('ref_axis',(1.,0.,0.));
#660=DIRECTION('center_axis',(0.,0.,-1.));
#661=DIRECTION('ref_axis',(1.,0.,0.));
#662=DIRECTION('center_axis',(0.,0.,-1.));
#663=DIRECTION('ref_axis',(1.,0.,0.));
#664=DIRECTION('center_axis',(0.,0.,1.));
#665=DIRECTION('ref_axis',(1.,0.,0.));
#666=DIRECTION('',(1.,0.,0.));
#667=DIRECTION('center_axis',(0.,1.,0.));
#668=DIRECTION('ref_axis',(-1.,0.,0.));
#669=DIRECTION('',(1.,0.,0.));
#670=DIRECTION('',(-1.,0.,0.));
#671=DIRECTION('center_axis',(0.,0.,1.));
#672=DIRECTION('ref_axis',(1.,0.,0.));
#673=DIRECTION('center_axis',(0.,0.,1.));
#674=DIRECTION('ref_axis',(1.,0.,0.));
#675=DIRECTION('',(-1.,9.25185853854297E-17,0.));
#676=DIRECTION('center_axis',(0.,0.,-1.));
#677=DIRECTION('ref_axis',(1.,0.,0.));
#678=DIRECTION('center_axis',(0.,0.,-1.));
#679=DIRECTION('ref_axis',(1.,0.,0.));
#680=DIRECTION('center_axis',(0.,0.,1.));
#681=DIRECTION('ref_axis',(1.,0.,0.));
#682=DIRECTION('center_axis',(0.,0.,1.));
#683=DIRECTION('ref_axis',(1.,0.,0.));
#684=DIRECTION('',(0.,0.,1.));
#685=DIRECTION('center_axis',(0.,0.,1.));
#686=DIRECTION('ref_axis',(1.,0.,0.));
#687=DIRECTION('center_axis',(0.,0.,1.));
#688=DIRECTION('ref_axis',(1.,0.,0.));
#689=DIRECTION('',(0.,0.,1.));
#690=DIRECTION('center_axis',(0.,0.,1.));
#691=DIRECTION('ref_axis',(1.,0.,0.));
#692=DIRECTION('center_axis',(0.,0.,1.));
#693=DIRECTION('ref_axis',(1.,0.,0.));
#694=DIRECTION('',(0.,0.,1.));
#695=DIRECTION('center_axis',(0.,0.,1.));
#696=DIRECTION('ref_axis',(1.,0.,0.));
#697=DIRECTION('center_axis',(0.,0.,1.));
#698=DIRECTION('ref_axis',(1.,0.,0.));
#699=DIRECTION('',(0.,0.,1.));
#700=DIRECTION('center_axis',(9.25185853854297E-17,1.,0.));
#701=DIRECTION('ref_axis',(-1.,9.25185853854297E-17,0.));
#702=DIRECTION('',(-1.,9.25185853854297E-17,0.));
#703=DIRECTION('center_axis',(0.,-1.,0.));
#704=DIRECTION('ref_axis',(1.,0.,0.));
#705=DIRECTION('',(1.,0.,0.));
#706=DIRECTION('center_axis',(0.,0.,1.));
#707=DIRECTION('ref_axis',(1.,0.,0.));
#708=CARTESIAN_POINT('',(0.,0.,0.));
#709=CARTESIAN_POINT('Origin',(0.,0.,467.85));
#710=CARTESIAN_POINT('',(-12.6,-1.54305496692567E-15,467.9));
#711=CARTESIAN_POINT('Origin',(0.,0.,467.9));
#712=CARTESIAN_POINT('',(-12.6,1.54305496692567E-15,471.9));
#713=CARTESIAN_POINT('',(-12.6,-1.54305496692567E-15,467.85));
#714=CARTESIAN_POINT('Origin',(0.,0.,471.9));
#715=CARTESIAN_POINT('Origin',(8.,30.5,467.9));
#716=CARTESIAN_POINT('',(6.75,30.5,467.9));
#717=CARTESIAN_POINT('Origin',(8.,30.5,467.9));
#718=CARTESIAN_POINT('',(6.75,30.5,471.9));
#719=CARTESIAN_POINT('',(6.75,30.5,467.9));
#720=CARTESIAN_POINT('Origin',(8.,30.5,471.9));
#721=CARTESIAN_POINT('Origin',(-8.,30.5,467.9));
#722=CARTESIAN_POINT('',(-9.25,30.5,467.9));
#723=CARTESIAN_POINT('Origin',(-8.,30.5,467.9));
#724=CARTESIAN_POINT('',(-9.25,30.5,471.9));
#725=CARTESIAN_POINT('',(-9.25,30.5,467.9));
#726=CARTESIAN_POINT('Origin',(-8.,30.5,471.9));
#727=CARTESIAN_POINT('Origin',(0.,-20.5,478.4));
#728=CARTESIAN_POINT('',(-24.,-20.3,478.4));
#729=CARTESIAN_POINT('',(24.,-20.3,478.4));
#730=CARTESIAN_POINT('',(12.,-20.3,478.4));
#731=CARTESIAN_POINT('',(-24.,-17.7,478.4));
#732=CARTESIAN_POINT('',(-24.,-17.7,478.4));
#733=CARTESIAN_POINT('',(24.,-17.7,478.4));
#734=CARTESIAN_POINT('',(24.,-17.7,478.4));
#735=CARTESIAN_POINT('',(24.,-23.3,478.4));
#736=CARTESIAN_POINT('Origin',(24.,-17.7,478.4));
#737=CARTESIAN_POINT('',(-24.,-17.7,479.9));
#738=CARTESIAN_POINT('',(-24.,-17.7,478.4));
#739=CARTESIAN_POINT('',(24.,-17.7,479.9));
#740=CARTESIAN_POINT('',(24.,-17.7,479.9));
#741=CARTESIAN_POINT('',(24.,-17.7,478.4));
#742=CARTESIAN_POINT('Origin',(-24.,-23.3,471.9));
#743=CARTESIAN_POINT('',(-24.,-23.3,471.9));
#744=CARTESIAN_POINT('',(-24.,-23.3,479.9));
#745=CARTESIAN_POINT('',(-24.,-23.3,471.9));
#746=CARTESIAN_POINT('',(24.,-23.3,471.9));
#747=CARTESIAN_POINT('',(-12.,-23.3,471.9));
#748=CARTESIAN_POINT('',(24.,-23.3,479.9));
#749=CARTESIAN_POINT('',(24.,-23.3,471.9));
#750=CARTESIAN_POINT('',(-24.,-23.3,479.9));
#751=CARTESIAN_POINT('Origin',(-24.,35.,467.9));
#752=CARTESIAN_POINT('',(-24.,-20.3,471.9));
#753=CARTESIAN_POINT('',(-24.,-20.3,471.9));
#754=CARTESIAN_POINT('',(-24.,20.3,471.9));
#755=CARTESIAN_POINT('',(-24.,35.,471.9));
#756=CARTESIAN_POINT('',(-24.,20.3,478.4));
#757=CARTESIAN_POINT('',(-24.,20.3,471.9));
#758=CARTESIAN_POINT('',(-24.,17.7,478.4));
#759=CARTESIAN_POINT('',(-24.,23.3,478.4));
#760=CARTESIAN_POINT('',(-24.,17.7,479.9));
#761=CARTESIAN_POINT('',(-24.,17.7,478.4));
#762=CARTESIAN_POINT('',(-24.,23.3,479.9));
#763=CARTESIAN_POINT('',(-24.,23.3,479.9));
#764=CARTESIAN_POINT('',(-24.,23.3,471.9));
#765=CARTESIAN_POINT('',(-24.,23.3,471.9));
#766=CARTESIAN_POINT('',(-24.,35.,471.9));
#767=CARTESIAN_POINT('',(-24.,35.,471.9));
#768=CARTESIAN_POINT('',(-24.,35.,467.9));
#769=CARTESIAN_POINT('',(-24.,35.,467.9));
#770=CARTESIAN_POINT('',(-24.,-24.,467.9));
#771=CARTESIAN_POINT('',(-24.,35.,467.9));
#772=CARTESIAN_POINT('',(-24.,-24.,471.9));
#773=CARTESIAN_POINT('',(-24.,-24.,467.9));
#774=CARTESIAN_POINT('',(-24.,35.,471.9));
#775=CARTESIAN_POINT('',(-24.,-17.7,479.9));
#776=CARTESIAN_POINT('Origin',(-24.,17.7,478.4));
#777=CARTESIAN_POINT('',(24.,17.7,478.4));
#778=CARTESIAN_POINT('',(-24.,17.7,478.4));
#779=CARTESIAN_POINT('',(24.,17.7,479.9));
#780=CARTESIAN_POINT('',(24.,17.7,478.4));
#781=CARTESIAN_POINT('',(-24.,17.7,479.9));
#782=CARTESIAN_POINT('Origin',(0.,20.5,478.4));
#783=CARTESIAN_POINT('',(24.,20.3,478.4));
#784=CARTESIAN_POINT('',(-12.,20.3,478.4));
#785=CARTESIAN_POINT('',(24.,17.7,478.4));
#786=CARTESIAN_POINT('Origin',(24.,-24.,467.9));
#787=CARTESIAN_POINT('',(24.,-24.,471.9));
#788=CARTESIAN_POINT('',(24.,-24.,471.9));
#789=CARTESIAN_POINT('',(24.,-24.,467.9));
#790=CARTESIAN_POINT('',(24.,-24.,467.9));
#791=CARTESIAN_POINT('',(24.,35.,467.9));
#792=CARTESIAN_POINT('',(24.,-24.,467.9));
#793=CARTESIAN_POINT('',(24.,35.,471.9));
#794=CARTESIAN_POINT('',(24.,35.,467.9));
#795=CARTESIAN_POINT('',(24.,23.3,471.9));
#796=CARTESIAN_POINT('',(24.,-24.,471.9));
#797=CARTESIAN_POINT('',(24.,23.3,479.9));
#798=CARTESIAN_POINT('',(24.,23.3,471.9));
#799=CARTESIAN_POINT('',(24.,17.7,479.9));
#800=CARTESIAN_POINT('',(24.,20.3,471.9));
#801=CARTESIAN_POINT('',(24.,20.3,471.9));
#802=CARTESIAN_POINT('',(24.,-20.3,471.9));
#803=CARTESIAN_POINT('',(24.,-24.,471.9));
#804=CARTESIAN_POINT('',(24.,-20.3,471.9));
#805=CARTESIAN_POINT('',(24.,-23.3,479.9));
#806=CARTESIAN_POINT('Origin',(-24.,20.3,471.9));
#807=CARTESIAN_POINT('',(-12.,20.3,471.9));
#808=CARTESIAN_POINT('Origin',(24.,-20.3,471.9));
#809=CARTESIAN_POINT('',(12.,-20.3,471.9));
#810=CARTESIAN_POINT('Origin',(0.,-21.8,479.9));
#811=CARTESIAN_POINT('Origin',(0.,5.5,471.9));
#812=CARTESIAN_POINT('',(-18.3,-6.,471.9));
#813=CARTESIAN_POINT('Origin',(-16.5,-6.,471.9));
#814=CARTESIAN_POINT('',(14.7,-6.,471.9));
#815=CARTESIAN_POINT('Origin',(16.5,-6.,471.9));
#816=CARTESIAN_POINT('Origin',(0.,5.5,471.9));
#817=CARTESIAN_POINT('',(-24.,-24.,471.9));
#818=CARTESIAN_POINT('Origin',(24.,23.3,471.9));
#819=CARTESIAN_POINT('',(12.,23.3,471.9));
#820=CARTESIAN_POINT('',(24.,23.3,479.9));
#821=CARTESIAN_POINT('Origin',(0.,21.8,479.9));
#822=CARTESIAN_POINT('Origin',(0.,5.5,471.9));
#823=CARTESIAN_POINT('',(24.,35.,471.9));
#824=CARTESIAN_POINT('',(-18.3,28.,471.9));
#825=CARTESIAN_POINT('Origin',(-16.5,28.,471.9));
#826=CARTESIAN_POINT('',(14.7,28.,471.9));
#827=CARTESIAN_POINT('Origin',(16.5,28.,471.9));
#828=CARTESIAN_POINT('Origin',(16.5,28.,467.9));
#829=CARTESIAN_POINT('',(14.7,28.,467.9));
#830=CARTESIAN_POINT('Origin',(16.5,28.,467.9));
#831=CARTESIAN_POINT('',(14.7,28.,467.9));
#832=CARTESIAN_POINT('Origin',(-16.5,-6.,467.9));
#833=CARTESIAN_POINT('',(-18.3,-6.,467.9));
#834=CARTESIAN_POINT('Origin',(-16.5,-6.,467.9));
#835=CARTESIAN_POINT('',(-18.3,-6.,467.9));
#836=CARTESIAN_POINT('Origin',(16.5,-6.,467.9));
#837=CARTESIAN_POINT('',(14.7,-6.,467.9));
#838=CARTESIAN_POINT('Origin',(16.5,-6.,467.9));
#839=CARTESIAN_POINT('',(14.7,-6.,467.9));
#840=CARTESIAN_POINT('Origin',(-16.5,28.,467.9));
#841=CARTESIAN_POINT('',(-18.3,28.,467.9));
#842=CARTESIAN_POINT('Origin',(-16.5,28.,467.9));
#843=CARTESIAN_POINT('',(-18.3,28.,467.9));
#844=CARTESIAN_POINT('Origin',(24.,35.,467.9));
#845=CARTESIAN_POINT('',(24.,35.,467.9));
#846=CARTESIAN_POINT('Origin',(-24.,-24.,467.9));
#847=CARTESIAN_POINT('',(-24.,-24.,467.9));
#848=CARTESIAN_POINT('Origin',(0.,5.5,467.9));
#849=UNCERTAINTY_MEASURE_WITH_UNIT(LENGTH_MEASURE(0.01),#853,
'DISTANCE_ACCURACY_VALUE',
'Maximum model space distance between geometric entities at asserted c
onnectivities');
#850=UNCERTAINTY_MEASURE_WITH_UNIT(LENGTH_MEASURE(0.01),#853,
'DISTANCE_ACCURACY_VALUE',
'Maximum model space distance between geometric entities at asserted c
onnectivities');
#851=(
GEOMETRIC_REPRESENTATION_CONTEXT(3)
GLOBAL_UNCERTAINTY_ASSIGNED_CONTEXT((#849))
GLOBAL_UNIT_ASSIGNED_CONTEXT((#853,#855,#856))
REPRESENTATION_CONTEXT('','3D')
);
#852=(
GEOMETRIC_REPRESENTATION_CONTEXT(3)
GLOBAL_UNCERTAINTY_ASSIGNED_CONTEXT((#850))
GLOBAL_UNIT_ASSIGNED_CONTEXT((#853,#855,#856))
REPRESENTATION_CONTEXT('','3D')
);
#853=(
LENGTH_UNIT()
NAMED_UNIT(*)
SI_UNIT(.MILLI.,.METRE.)
);
#854=(
LENGTH_UNIT()
NAMED_UNIT(*)
SI_UNIT($,.METRE.)
);
#855=(
NAMED_UNIT(*)
PLANE_ANGLE_UNIT()
SI_UNIT($,.RADIAN.)
);
#856=(
NAMED_UNIT(*)
SI_UNIT($,.STERADIAN.)
SOLID_ANGLE_UNIT()
);
#857=SHAPE_DEFINITION_REPRESENTATION(#858,#859);
#858=PRODUCT_DEFINITION_SHAPE('',$,#861);
#859=SHAPE_REPRESENTATION('',(#533),#851);
#860=PRODUCT_DEFINITION_CONTEXT('part definition',#865,'design');
#861=PRODUCT_DEFINITION('2026-08-21-16-05-24-362','GripperTop',#862,#860);
#862=PRODUCT_DEFINITION_FORMATION('',$,#867);
#863=PRODUCT_RELATED_PRODUCT_CATEGORY('GripperTop','GripperTop',(#867));
#864=APPLICATION_PROTOCOL_DEFINITION('international standard',
'automotive_design',2009,#865);
#865=APPLICATION_CONTEXT(
'Core Data for Automotive Mechanical Design Process');
#866=PRODUCT_CONTEXT('part definition',#865,'mechanical');
#867=PRODUCT('2026-08-21-16-05-24-362','GripperTop',$,(#866));
#868=PRESENTATION_STYLE_ASSIGNMENT((#869));
#869=SURFACE_STYLE_USAGE(.BOTH.,#870);
#870=SURFACE_SIDE_STYLE('',(#871));
#871=SURFACE_STYLE_FILL_AREA(#872);
#872=FILL_AREA_STYLE('\X2\92FC\X0\ - \X2\30B530C630F3\X0\',(#873));
#873=FILL_AREA_STYLE_COLOUR('\X2\92FC\X0\ - \X2\30B530C630F3\X0\',#874);
#874=COLOUR_RGB('\X2\92FC\X0\ - \X2\30B530C630F3\X0\',0.627450980392157,
0.627450980392157,0.627450980392157);
ENDSEC;
END-ISO-10303-21;
