ISO-10303-21;
HEADER;
/* Generated by software containing ST-Developer
 * from STEP Tools, Inc. (www.steptools.com) 
 */

FILE_DESCRIPTION(
/* description */ (''),
/* implementation_level */ '2;1');

FILE_NAME(
/* name */ 'J2_Bracket.step',
/* time_stamp */ '2026-07-31T17:00:13+09:00',
/* author */ (''),
/* organization */ (''),
/* preprocessor_version */ 'ST-DEVELOPER v20.1',
/* originating_system */ 'Autodesk Translation Framework v15.8.0.0',
/* authorisation */ '');

FILE_SCHEMA (('AUTOMOTIVE_DESIGN { 1 0 10303 214 3 1 1 }'));
ENDSEC;

DATA;
#10=MECHANICAL_DESIGN_GEOMETRIC_PRESENTATION_REPRESENTATION('',(#13),#2387);
#11=SHAPE_REPRESENTATION_RELATIONSHIP('SRR','None',#2394,#12);
#12=ADVANCED_BREP_SHAPE_REPRESENTATION('',(#14),#2386);
#13=STYLED_ITEM('',(#2403),#14);
#14=MANIFOLD_SOLID_BREP('J2_Bracket_v3',#1461);
#15=CYLINDRICAL_SURFACE('',#1489,2.3);
#16=CYLINDRICAL_SURFACE('',#1493,2.3);
#17=CYLINDRICAL_SURFACE('',#1497,2.3);
#18=CYLINDRICAL_SURFACE('',#1501,2.3);
#19=CYLINDRICAL_SURFACE('',#1505,1.2);
#20=CYLINDRICAL_SURFACE('',#1507,1.19999999999999);
#21=CYLINDRICAL_SURFACE('',#1509,1.19999999999999);
#22=CYLINDRICAL_SURFACE('',#1511,1.2);
#23=CYLINDRICAL_SURFACE('',#1526,5.);
#24=CYLINDRICAL_SURFACE('',#1532,3.24999999999999);
#25=CYLINDRICAL_SURFACE('',#1546,3.25);
#26=CYLINDRICAL_SURFACE('',#1553,3.25);
#27=CYLINDRICAL_SURFACE('',#1558,3.25);
#28=CYLINDRICAL_SURFACE('',#1566,3.25);
#29=CYLINDRICAL_SURFACE('',#1571,1.8);
#30=CYLINDRICAL_SURFACE('',#1573,1.8);
#31=CYLINDRICAL_SURFACE('',#1575,1.8);
#32=CYLINDRICAL_SURFACE('',#1577,1.8);
#33=FACE_BOUND('',#177,.T.);
#34=FACE_BOUND('',#178,.T.);
#35=FACE_BOUND('',#179,.T.);
#36=FACE_BOUND('',#180,.T.);
#37=FACE_BOUND('',#188,.T.);
#38=FACE_BOUND('',#191,.T.);
#39=FACE_BOUND('',#194,.T.);
#40=FACE_BOUND('',#197,.T.);
#41=FACE_BOUND('',#207,.T.);
#42=FACE_BOUND('',#208,.T.);
#43=FACE_BOUND('',#209,.T.);
#44=FACE_BOUND('',#210,.T.);
#45=FACE_BOUND('',#211,.T.);
#46=FACE_BOUND('',#212,.T.);
#47=FACE_BOUND('',#222,.T.);
#48=FACE_BOUND('',#243,.T.);
#49=FACE_BOUND('',#246,.T.);
#50=FACE_BOUND('',#248,.T.);
#51=FACE_BOUND('',#251,.T.);
#52=FACE_BOUND('',#264,.T.);
#53=FACE_BOUND('',#265,.T.);
#54=FACE_BOUND('',#266,.T.);
#55=FACE_BOUND('',#268,.T.);
#56=FACE_BOUND('',#269,.T.);
#57=FACE_BOUND('',#270,.T.);
#58=FACE_BOUND('',#271,.T.);
#59=FACE_BOUND('',#272,.T.);
#60=CIRCLE('',#1479,5.);
#61=CIRCLE('',#1480,2.3);
#62=CIRCLE('',#1481,2.3);
#63=CIRCLE('',#1482,2.3);
#64=CIRCLE('',#1483,2.3);
#65=CIRCLE('',#1490,2.3);
#66=CIRCLE('',#1492,1.2);
#67=CIRCLE('',#1494,2.3);
#68=CIRCLE('',#1496,1.19999999999999);
#69=CIRCLE('',#1498,2.3);
#70=CIRCLE('',#1500,1.19999999999999);
#71=CIRCLE('',#1502,2.3);
#72=CIRCLE('',#1504,1.2);
#73=CIRCLE('',#1506,1.2);
#74=CIRCLE('',#1508,1.19999999999999);
#75=CIRCLE('',#1510,1.19999999999999);
#76=CIRCLE('',#1512,1.2);
#77=CIRCLE('',#1518,3.24999999999999);
#78=CIRCLE('',#1527,5.);
#79=CIRCLE('',#1529,3.24999999999999);
#80=CIRCLE('',#1544,3.25);
#81=CIRCLE('',#1545,3.25);
#82=CIRCLE('',#1547,3.25);
#83=CIRCLE('',#1548,3.25);
#84=CIRCLE('',#1549,3.25);
#85=CIRCLE('',#1554,3.25);
#86=CIRCLE('',#1555,3.25);
#87=CIRCLE('',#1557,1.8);
#88=CIRCLE('',#1559,3.25);
#89=CIRCLE('',#1560,3.25);
#90=CIRCLE('',#1561,3.25);
#91=CIRCLE('',#1563,1.8);
#92=CIRCLE('',#1565,1.8);
#93=CIRCLE('',#1567,3.25);
#94=CIRCLE('',#1568,3.25);
#95=CIRCLE('',#1570,1.8);
#96=CIRCLE('',#1572,1.8);
#97=CIRCLE('',#1574,1.8);
#98=CIRCLE('',#1576,1.8);
#99=CIRCLE('',#1578,1.8);
#100=FACE_OUTER_BOUND('',#173,.T.);
#101=FACE_OUTER_BOUND('',#174,.T.);
#102=FACE_OUTER_BOUND('',#175,.T.);
#103=FACE_OUTER_BOUND('',#176,.T.);
#104=FACE_OUTER_BOUND('',#181,.T.);
#105=FACE_OUTER_BOUND('',#182,.T.);
#106=FACE_OUTER_BOUND('',#183,.T.);
#107=FACE_OUTER_BOUND('',#184,.T.);
#108=FACE_OUTER_BOUND('',#185,.T.);
#109=FACE_OUTER_BOUND('',#186,.T.);
#110=FACE_OUTER_BOUND('',#187,.T.);
#111=FACE_OUTER_BOUND('',#189,.T.);
#112=FACE_OUTER_BOUND('',#190,.T.);
#113=FACE_OUTER_BOUND('',#192,.T.);
#114=FACE_OUTER_BOUND('',#193,.T.);
#115=FACE_OUTER_BOUND('',#195,.T.);
#116=FACE_OUTER_BOUND('',#196,.T.);
#117=FACE_OUTER_BOUND('',#198,.T.);
#118=FACE_OUTER_BOUND('',#199,.T.);
#119=FACE_OUTER_BOUND('',#200,.T.);
#120=FACE_OUTER_BOUND('',#201,.T.);
#121=FACE_OUTER_BOUND('',#202,.T.);
#122=FACE_OUTER_BOUND('',#203,.T.);
#123=FACE_OUTER_BOUND('',#204,.T.);
#124=FACE_OUTER_BOUND('',#205,.T.);
#125=FACE_OUTER_BOUND('',#206,.T.);
#126=FACE_OUTER_BOUND('',#213,.T.);
#127=FACE_OUTER_BOUND('',#214,.T.);
#128=FACE_OUTER_BOUND('',#215,.T.);
#129=FACE_OUTER_BOUND('',#216,.T.);
#130=FACE_OUTER_BOUND('',#217,.T.);
#131=FACE_OUTER_BOUND('',#218,.T.);
#132=FACE_OUTER_BOUND('',#219,.T.);
#133=FACE_OUTER_BOUND('',#220,.T.);
#134=FACE_OUTER_BOUND('',#221,.T.);
#135=FACE_OUTER_BOUND('',#223,.T.);
#136=FACE_OUTER_BOUND('',#224,.T.);
#137=FACE_OUTER_BOUND('',#225,.T.);
#138=FACE_OUTER_BOUND('',#226,.T.);
#139=FACE_OUTER_BOUND('',#227,.T.);
#140=FACE_OUTER_BOUND('',#228,.T.);
#141=FACE_OUTER_BOUND('',#229,.T.);
#142=FACE_OUTER_BOUND('',#230,.T.);
#143=FACE_OUTER_BOUND('',#231,.T.);
#144=FACE_OUTER_BOUND('',#232,.T.);
#145=FACE_OUTER_BOUND('',#233,.T.);
#146=FACE_OUTER_BOUND('',#234,.T.);
#147=FACE_OUTER_BOUND('',#235,.T.);
#148=FACE_OUTER_BOUND('',#236,.T.);
#149=FACE_OUTER_BOUND('',#237,.T.);
#150=FACE_OUTER_BOUND('',#238,.T.);
#151=FACE_OUTER_BOUND('',#239,.T.);
#152=FACE_OUTER_BOUND('',#240,.T.);
#153=FACE_OUTER_BOUND('',#241,.T.);
#154=FACE_OUTER_BOUND('',#242,.T.);
#155=FACE_OUTER_BOUND('',#244,.T.);
#156=FACE_OUTER_BOUND('',#245,.T.);
#157=FACE_OUTER_BOUND('',#247,.T.);
#158=FACE_OUTER_BOUND('',#249,.T.);
#159=FACE_OUTER_BOUND('',#250,.T.);
#160=FACE_OUTER_BOUND('',#252,.T.);
#161=FACE_OUTER_BOUND('',#253,.T.);
#162=FACE_OUTER_BOUND('',#254,.T.);
#163=FACE_OUTER_BOUND('',#255,.T.);
#164=FACE_OUTER_BOUND('',#256,.T.);
#165=FACE_OUTER_BOUND('',#257,.T.);
#166=FACE_OUTER_BOUND('',#258,.T.);
#167=FACE_OUTER_BOUND('',#259,.T.);
#168=FACE_OUTER_BOUND('',#260,.T.);
#169=FACE_OUTER_BOUND('',#261,.T.);
#170=FACE_OUTER_BOUND('',#262,.T.);
#171=FACE_OUTER_BOUND('',#263,.T.);
#172=FACE_OUTER_BOUND('',#267,.T.);
#173=EDGE_LOOP('',(#929,#930,#931,#932));
#174=EDGE_LOOP('',(#933,#934,#935,#936));
#175=EDGE_LOOP('',(#937,#938,#939,#940));
#176=EDGE_LOOP('',(#941,#942,#943,#944));
#177=EDGE_LOOP('',(#945));
#178=EDGE_LOOP('',(#946));
#179=EDGE_LOOP('',(#947,#948,#949,#950,#951,#952,#953,#954,#955,#956));
#180=EDGE_LOOP('',(#957));
#181=EDGE_LOOP('',(#958,#959,#960,#961));
#182=EDGE_LOOP('',(#962,#963,#964,#965));
#183=EDGE_LOOP('',(#966,#967,#968,#969,#970,#971));
#184=EDGE_LOOP('',(#972,#973,#974,#975,#976));
#185=EDGE_LOOP('',(#977,#978,#979,#980,#981));
#186=EDGE_LOOP('',(#982,#983,#984,#985));
#187=EDGE_LOOP('',(#986));
#188=EDGE_LOOP('',(#987));
#189=EDGE_LOOP('',(#988,#989,#990,#991));
#190=EDGE_LOOP('',(#992));
#191=EDGE_LOOP('',(#993));
#192=EDGE_LOOP('',(#994,#995,#996,#997));
#193=EDGE_LOOP('',(#998));
#194=EDGE_LOOP('',(#999));
#195=EDGE_LOOP('',(#1000,#1001,#1002,#1003));
#196=EDGE_LOOP('',(#1004));
#197=EDGE_LOOP('',(#1005));
#198=EDGE_LOOP('',(#1006,#1007,#1008,#1009));
#199=EDGE_LOOP('',(#1010,#1011,#1012,#1013));
#200=EDGE_LOOP('',(#1014,#1015,#1016,#1017));
#201=EDGE_LOOP('',(#1018,#1019,#1020,#1021));
#202=EDGE_LOOP('',(#1022,#1023,#1024,#1025,#1026,#1027,#1028,#1029));
#203=EDGE_LOOP('',(#1030,#1031,#1032,#1033));
#204=EDGE_LOOP('',(#1034,#1035,#1036,#1037));
#205=EDGE_LOOP('',(#1038,#1039,#1040,#1041,#1042,#1043,#1044,#1045,#1046,
#1047));
#206=EDGE_LOOP('',(#1048,#1049,#1050,#1051,#1052,#1053,#1054,#1055));
#207=EDGE_LOOP('',(#1056,#1057,#1058,#1059,#1060,#1061,#1062,#1063));
#208=EDGE_LOOP('',(#1064));
#209=EDGE_LOOP('',(#1065));
#210=EDGE_LOOP('',(#1066));
#211=EDGE_LOOP('',(#1067));
#212=EDGE_LOOP('',(#1068));
#213=EDGE_LOOP('',(#1069,#1070,#1071,#1072,#1073,#1074,#1075,#1076));
#214=EDGE_LOOP('',(#1077,#1078,#1079,#1080,#1081,#1082,#1083,#1084));
#215=EDGE_LOOP('',(#1085,#1086,#1087,#1088,#1089,#1090,#1091,#1092));
#216=EDGE_LOOP('',(#1093,#1094,#1095,#1096,#1097,#1098,#1099,#1100));
#217=EDGE_LOOP('',(#1101,#1102,#1103,#1104));
#218=EDGE_LOOP('',(#1105,#1106,#1107,#1108,#1109,#1110));
#219=EDGE_LOOP('',(#1111,#1112,#1113,#1114));
#220=EDGE_LOOP('',(#1115,#1116,#1117,#1118));
#221=EDGE_LOOP('',(#1119));
#222=EDGE_LOOP('',(#1120));
#223=EDGE_LOOP('',(#1121,#1122,#1123,#1124));
#224=EDGE_LOOP('',(#1125,#1126,#1127,#1128,#1129,#1130));
#225=EDGE_LOOP('',(#1131,#1132,#1133,#1134));
#226=EDGE_LOOP('',(#1135,#1136,#1137,#1138));
#227=EDGE_LOOP('',(#1139,#1140,#1141,#1142,#1143,#1144,#1145,#1146));
#228=EDGE_LOOP('',(#1147,#1148,#1149,#1150,#1151));
#229=EDGE_LOOP('',(#1152,#1153,#1154,#1155,#1156,#1157,#1158));
#230=EDGE_LOOP('',(#1159,#1160,#1161,#1162,#1163));
#231=EDGE_LOOP('',(#1164,#1165,#1166,#1167,#1168,#1169,#1170,#1171,#1172,
#1173));
#232=EDGE_LOOP('',(#1174,#1175,#1176,#1177,#1178));
#233=EDGE_LOOP('',(#1179,#1180,#1181,#1182));
#234=EDGE_LOOP('',(#1183,#1184,#1185,#1186));
#235=EDGE_LOOP('',(#1187,#1188,#1189,#1190));
#236=EDGE_LOOP('',(#1191,#1192,#1193,#1194,#1195,#1196));
#237=EDGE_LOOP('',(#1197,#1198,#1199,#1200,#1201,#1202,#1203,#1204));
#238=EDGE_LOOP('',(#1205,#1206,#1207,#1208));
#239=EDGE_LOOP('',(#1209,#1210,#1211,#1212,#1213,#1214,#1215,#1216,#1217,
#1218,#1219,#1220));
#240=EDGE_LOOP('',(#1221,#1222,#1223,#1224));
#241=EDGE_LOOP('',(#1225,#1226,#1227,#1228));
#242=EDGE_LOOP('',(#1229));
#243=EDGE_LOOP('',(#1230));
#244=EDGE_LOOP('',(#1231,#1232,#1233,#1234,#1235,#1236,#1237,#1238));
#245=EDGE_LOOP('',(#1239));
#246=EDGE_LOOP('',(#1240));
#247=EDGE_LOOP('',(#1241));
#248=EDGE_LOOP('',(#1242));
#249=EDGE_LOOP('',(#1243,#1244,#1245,#1246));
#250=EDGE_LOOP('',(#1247));
#251=EDGE_LOOP('',(#1248));
#252=EDGE_LOOP('',(#1249,#1250,#1251,#1252));
#253=EDGE_LOOP('',(#1253,#1254,#1255,#1256));
#254=EDGE_LOOP('',(#1257,#1258,#1259,#1260));
#255=EDGE_LOOP('',(#1261,#1262,#1263,#1264));
#256=EDGE_LOOP('',(#1265,#1266,#1267,#1268,#1269,#1270,#1271,#1272,#1273,
#1274));
#257=EDGE_LOOP('',(#1275,#1276,#1277,#1278));
#258=EDGE_LOOP('',(#1279,#1280,#1281,#1282));
#259=EDGE_LOOP('',(#1283,#1284,#1285,#1286));
#260=EDGE_LOOP('',(#1287,#1288,#1289,#1290));
#261=EDGE_LOOP('',(#1291,#1292,#1293,#1294));
#262=EDGE_LOOP('',(#1295,#1296,#1297,#1298));
#263=EDGE_LOOP('',(#1299,#1300,#1301,#1302));
#264=EDGE_LOOP('',(#1303,#1304,#1305,#1306,#1307,#1308,#1309,#1310,#1311,
#1312,#1313,#1314,#1315,#1316,#1317,#1318));
#265=EDGE_LOOP('',(#1319));
#266=EDGE_LOOP('',(#1320));
#267=EDGE_LOOP('',(#1321,#1322,#1323,#1324));
#268=EDGE_LOOP('',(#1325,#1326,#1327,#1328));
#269=EDGE_LOOP('',(#1329));
#270=EDGE_LOOP('',(#1330));
#271=EDGE_LOOP('',(#1331));
#272=EDGE_LOOP('',(#1332));
#273=LINE('',#1982,#435);
#274=LINE('',#1984,#436);
#275=LINE('',#1986,#437);
#276=LINE('',#1987,#438);
#277=LINE('',#1990,#439);
#278=LINE('',#1992,#440);
#279=LINE('',#1993,#441);
#280=LINE('',#1996,#442);
#281=LINE('',#1998,#443);
#282=LINE('',#1999,#444);
#283=LINE('',#2003,#445);
#284=LINE('',#2005,#446);
#285=LINE('',#2007,#447);
#286=LINE('',#2008,#448);
#287=LINE('',#2014,#449);
#288=LINE('',#2016,#450);
#289=LINE('',#2019,#451);
#290=LINE('',#2022,#452);
#291=LINE('',#2023,#453);
#292=LINE('',#2028,#454);
#293=LINE('',#2029,#455);
#294=LINE('',#2032,#456);
#295=LINE('',#2033,#457);
#296=LINE('',#2037,#458);
#297=LINE('',#2039,#459);
#298=LINE('',#2040,#460);
#299=LINE('',#2042,#461);
#300=LINE('',#2043,#462);
#301=LINE('',#2045,#463);
#302=LINE('',#2046,#464);
#303=LINE('',#2048,#465);
#304=LINE('',#2049,#466);
#305=LINE('',#2052,#467);
#306=LINE('',#2069,#468);
#307=LINE('',#2076,#469);
#308=LINE('',#2080,#470);
#309=LINE('',#2084,#471);
#310=LINE('',#2088,#472);
#311=LINE('',#2093,#473);
#312=LINE('',#2095,#474);
#313=LINE('',#2097,#475);
#314=LINE('',#2099,#476);
#315=LINE('',#2101,#477);
#316=LINE('',#2103,#478);
#317=LINE('',#2105,#479);
#318=LINE('',#2106,#480);
#319=LINE('',#2109,#481);
#320=LINE('',#2111,#482);
#321=LINE('',#2112,#483);
#322=LINE('',#2115,#484);
#323=LINE('',#2117,#485);
#324=LINE('',#2118,#486);
#325=LINE('',#2121,#487);
#326=LINE('',#2123,#488);
#327=LINE('',#2125,#489);
#328=LINE('',#2127,#490);
#329=LINE('',#2129,#491);
#330=LINE('',#2131,#492);
#331=LINE('',#2133,#493);
#332=LINE('',#2134,#494);
#333=LINE('',#2137,#495);
#334=LINE('',#2138,#496);
#335=LINE('',#2140,#497);
#336=LINE('',#2141,#498);
#337=LINE('',#2146,#499);
#338=LINE('',#2147,#500);
#339=LINE('',#2149,#501);
#340=LINE('',#2151,#502);
#341=LINE('',#2152,#503);
#342=LINE('',#2155,#504);
#343=LINE('',#2157,#505);
#344=LINE('',#2159,#506);
#345=LINE('',#2161,#507);
#346=LINE('',#2163,#508);
#347=LINE('',#2165,#509);
#348=LINE('',#2166,#510);
#349=LINE('',#2170,#511);
#350=LINE('',#2171,#512);
#351=LINE('',#2173,#513);
#352=LINE('',#2174,#514);
#353=LINE('',#2175,#515);
#354=LINE('',#2178,#516);
#355=LINE('',#2180,#517);
#356=LINE('',#2182,#518);
#357=LINE('',#2184,#519);
#358=LINE('',#2186,#520);
#359=LINE('',#2187,#521);
#360=LINE('',#2190,#522);
#361=LINE('',#2191,#523);
#362=LINE('',#2194,#524);
#363=LINE('',#2196,#525);
#364=LINE('',#2198,#526);
#365=LINE('',#2199,#527);
#366=LINE('',#2202,#528);
#367=LINE('',#2203,#529);
#368=LINE('',#2206,#530);
#369=LINE('',#2213,#531);
#370=LINE('',#2215,#532);
#371=LINE('',#2216,#533);
#372=LINE('',#2219,#534);
#373=LINE('',#2220,#535);
#374=LINE('',#2221,#536);
#375=LINE('',#2223,#537);
#376=LINE('',#2225,#538);
#377=LINE('',#2228,#539);
#378=LINE('',#2230,#540);
#379=LINE('',#2231,#541);
#380=LINE('',#2233,#542);
#381=LINE('',#2235,#543);
#382=LINE('',#2236,#544);
#383=LINE('',#2239,#545);
#384=LINE('',#2241,#546);
#385=LINE('',#2243,#547);
#386=LINE('',#2244,#548);
#387=LINE('',#2247,#549);
#388=LINE('',#2249,#550);
#389=LINE('',#2251,#551);
#390=LINE('',#2253,#552);
#391=LINE('',#2254,#553);
#392=LINE('',#2255,#554);
#393=LINE('',#2258,#555);
#394=LINE('',#2260,#556);
#395=LINE('',#2261,#557);
#396=LINE('',#2264,#558);
#397=LINE('',#2266,#559);
#398=LINE('',#2267,#560);
#399=LINE('',#2270,#561);
#400=LINE('',#2272,#562);
#401=LINE('',#2273,#563);
#402=LINE('',#2277,#564);
#403=LINE('',#2279,#565);
#404=LINE('',#2281,#566);
#405=LINE('',#2282,#567);
#406=LINE('',#2290,#568);
#407=LINE('',#2294,#569);
#408=LINE('',#2295,#570);
#409=LINE('',#2298,#571);
#410=LINE('',#2300,#572);
#411=LINE('',#2302,#573);
#412=LINE('',#2303,#574);
#413=LINE('',#2305,#575);
#414=LINE('',#2310,#576);
#415=LINE('',#2319,#577);
#416=LINE('',#2332,#578);
#417=LINE('',#2340,#579);
#418=LINE('',#2344,#580);
#419=LINE('',#2348,#581);
#420=LINE('',#2352,#582);
#421=LINE('',#2354,#583);
#422=LINE('',#2356,#584);
#423=LINE('',#2361,#585);
#424=LINE('',#2363,#586);
#425=LINE('',#2365,#587);
#426=LINE('',#2366,#588);
#427=LINE('',#2369,#589);
#428=LINE('',#2371,#590);
#429=LINE('',#2372,#591);
#430=LINE('',#2375,#592);
#431=LINE('',#2377,#593);
#432=LINE('',#2378,#594);
#433=LINE('',#2380,#595);
#434=LINE('',#2381,#596);
#435=VECTOR('',#1592,10.);
#436=VECTOR('',#1593,10.);
#437=VECTOR('',#1594,10.);
#438=VECTOR('',#1595,10.);
#439=VECTOR('',#1598,10.);
#440=VECTOR('',#1599,10.);
#441=VECTOR('',#1600,10.);
#442=VECTOR('',#1603,10.);
#443=VECTOR('',#1604,10.);
#444=VECTOR('',#1605,10.);
#445=VECTOR('',#1608,10.);
#446=VECTOR('',#1609,10.);
#447=VECTOR('',#1610,10.);
#448=VECTOR('',#1611,10.);
#449=VECTOR('',#1616,10.);
#450=VECTOR('',#1617,10.);
#451=VECTOR('',#1620,10.);
#452=VECTOR('',#1623,10.);
#453=VECTOR('',#1624,10.);
#454=VECTOR('',#1629,10.);
#455=VECTOR('',#1630,10.);
#456=VECTOR('',#1633,10.);
#457=VECTOR('',#1634,10.);
#458=VECTOR('',#1637,10.);
#459=VECTOR('',#1638,10.);
#460=VECTOR('',#1639,10.);
#461=VECTOR('',#1640,10.);
#462=VECTOR('',#1641,10.);
#463=VECTOR('',#1644,10.);
#464=VECTOR('',#1645,10.);
#465=VECTOR('',#1648,10.);
#466=VECTOR('',#1649,10.);
#467=VECTOR('',#1652,2.3);
#468=VECTOR('',#1677,2.3);
#469=VECTOR('',#1686,1.2);
#470=VECTOR('',#1691,1.19999999999999);
#471=VECTOR('',#1696,1.19999999999999);
#472=VECTOR('',#1701,1.2);
#473=VECTOR('',#1706,10.);
#474=VECTOR('',#1707,10.);
#475=VECTOR('',#1708,10.);
#476=VECTOR('',#1709,10.);
#477=VECTOR('',#1710,10.);
#478=VECTOR('',#1711,10.);
#479=VECTOR('',#1712,10.);
#480=VECTOR('',#1713,10.);
#481=VECTOR('',#1716,10.);
#482=VECTOR('',#1717,10.);
#483=VECTOR('',#1718,10.);
#484=VECTOR('',#1721,10.);
#485=VECTOR('',#1722,10.);
#486=VECTOR('',#1723,10.);
#487=VECTOR('',#1726,10.);
#488=VECTOR('',#1727,10.);
#489=VECTOR('',#1728,10.);
#490=VECTOR('',#1729,10.);
#491=VECTOR('',#1730,10.);
#492=VECTOR('',#1731,10.);
#493=VECTOR('',#1732,10.);
#494=VECTOR('',#1733,10.);
#495=VECTOR('',#1736,10.);
#496=VECTOR('',#1737,10.);
#497=VECTOR('',#1738,10.);
#498=VECTOR('',#1739,10.);
#499=VECTOR('',#1744,10.);
#500=VECTOR('',#1745,10.);
#501=VECTOR('',#1746,10.);
#502=VECTOR('',#1747,10.);
#503=VECTOR('',#1748,10.);
#504=VECTOR('',#1751,10.);
#505=VECTOR('',#1752,10.);
#506=VECTOR('',#1753,10.);
#507=VECTOR('',#1754,10.);
#508=VECTOR('',#1755,10.);
#509=VECTOR('',#1756,10.);
#510=VECTOR('',#1757,10.);
#511=VECTOR('',#1760,10.);
#512=VECTOR('',#1761,10.);
#513=VECTOR('',#1762,10.);
#514=VECTOR('',#1763,10.);
#515=VECTOR('',#1764,10.);
#516=VECTOR('',#1767,10.);
#517=VECTOR('',#1768,10.);
#518=VECTOR('',#1769,10.);
#519=VECTOR('',#1770,10.);
#520=VECTOR('',#1771,10.);
#521=VECTOR('',#1772,10.);
#522=VECTOR('',#1775,10.);
#523=VECTOR('',#1776,10.);
#524=VECTOR('',#1779,10.);
#525=VECTOR('',#1780,10.);
#526=VECTOR('',#1781,10.);
#527=VECTOR('',#1782,10.);
#528=VECTOR('',#1785,10.);
#529=VECTOR('',#1786,10.);
#530=VECTOR('',#1789,5.);
#531=VECTOR('',#1798,10.);
#532=VECTOR('',#1799,10.);
#533=VECTOR('',#1800,10.);
#534=VECTOR('',#1803,10.);
#535=VECTOR('',#1804,10.);
#536=VECTOR('',#1805,10.);
#537=VECTOR('',#1808,3.24999999999999);
#538=VECTOR('',#1811,10.);
#539=VECTOR('',#1814,10.);
#540=VECTOR('',#1815,10.);
#541=VECTOR('',#1816,10.);
#542=VECTOR('',#1819,10.);
#543=VECTOR('',#1822,10.);
#544=VECTOR('',#1823,10.);
#545=VECTOR('',#1826,10.);
#546=VECTOR('',#1827,10.);
#547=VECTOR('',#1828,10.);
#548=VECTOR('',#1829,10.);
#549=VECTOR('',#1832,10.);
#550=VECTOR('',#1833,10.);
#551=VECTOR('',#1834,10.);
#552=VECTOR('',#1835,10.);
#553=VECTOR('',#1836,10.);
#554=VECTOR('',#1837,10.);
#555=VECTOR('',#1840,10.);
#556=VECTOR('',#1841,10.);
#557=VECTOR('',#1842,10.);
#558=VECTOR('',#1845,10.);
#559=VECTOR('',#1846,10.);
#560=VECTOR('',#1847,10.);
#561=VECTOR('',#1850,10.);
#562=VECTOR('',#1851,10.);
#563=VECTOR('',#1852,10.);
#564=VECTOR('',#1855,10.);
#565=VECTOR('',#1856,10.);
#566=VECTOR('',#1857,10.);
#567=VECTOR('',#1858,10.);
#568=VECTOR('',#1869,3.25);
#569=VECTOR('',#1876,10.);
#570=VECTOR('',#1877,10.);
#571=VECTOR('',#1880,10.);
#572=VECTOR('',#1881,10.);
#573=VECTOR('',#1882,10.);
#574=VECTOR('',#1883,10.);
#575=VECTOR('',#1886,10.);
#576=VECTOR('',#1891,3.25);
#577=VECTOR('',#1902,3.25);
#578=VECTOR('',#1919,3.25);
#579=VECTOR('',#1930,1.8);
#580=VECTOR('',#1935,1.8);
#581=VECTOR('',#1940,1.8);
#582=VECTOR('',#1945,1.8);
#583=VECTOR('',#1948,10.);
#584=VECTOR('',#1951,10.);
#585=VECTOR('',#1956,10.);
#586=VECTOR('',#1957,10.);
#587=VECTOR('',#1958,10.);
#588=VECTOR('',#1959,10.);
#589=VECTOR('',#1962,10.);
#590=VECTOR('',#1963,10.);
#591=VECTOR('',#1964,10.);
#592=VECTOR('',#1967,10.);
#593=VECTOR('',#1968,10.);
#594=VECTOR('',#1969,10.);
#595=VECTOR('',#1972,10.);
#596=VECTOR('',#1973,10.);
#597=VERTEX_POINT('',#1980);
#598=VERTEX_POINT('',#1981);
#599=VERTEX_POINT('',#1983);
#600=VERTEX_POINT('',#1985);
#601=VERTEX_POINT('',#1989);
#602=VERTEX_POINT('',#1991);
#603=VERTEX_POINT('',#1995);
#604=VERTEX_POINT('',#1997);
#605=VERTEX_POINT('',#2001);
#606=VERTEX_POINT('',#2002);
#607=VERTEX_POINT('',#2004);
#608=VERTEX_POINT('',#2006);
#609=VERTEX_POINT('',#2009);
#610=VERTEX_POINT('',#2011);
#611=VERTEX_POINT('',#2013);
#612=VERTEX_POINT('',#2015);
#613=VERTEX_POINT('',#2018);
#614=VERTEX_POINT('',#2021);
#615=VERTEX_POINT('',#2024);
#616=VERTEX_POINT('',#2027);
#617=VERTEX_POINT('',#2031);
#618=VERTEX_POINT('',#2035);
#619=VERTEX_POINT('',#2036);
#620=VERTEX_POINT('',#2038);
#621=VERTEX_POINT('',#2041);
#622=VERTEX_POINT('',#2051);
#623=VERTEX_POINT('',#2055);
#624=VERTEX_POINT('',#2060);
#625=VERTEX_POINT('',#2065);
#626=VERTEX_POINT('',#2068);
#627=VERTEX_POINT('',#2072);
#628=VERTEX_POINT('',#2075);
#629=VERTEX_POINT('',#2079);
#630=VERTEX_POINT('',#2083);
#631=VERTEX_POINT('',#2087);
#632=VERTEX_POINT('',#2091);
#633=VERTEX_POINT('',#2092);
#634=VERTEX_POINT('',#2094);
#635=VERTEX_POINT('',#2096);
#636=VERTEX_POINT('',#2098);
#637=VERTEX_POINT('',#2100);
#638=VERTEX_POINT('',#2102);
#639=VERTEX_POINT('',#2104);
#640=VERTEX_POINT('',#2108);
#641=VERTEX_POINT('',#2110);
#642=VERTEX_POINT('',#2114);
#643=VERTEX_POINT('',#2116);
#644=VERTEX_POINT('',#2120);
#645=VERTEX_POINT('',#2122);
#646=VERTEX_POINT('',#2124);
#647=VERTEX_POINT('',#2126);
#648=VERTEX_POINT('',#2128);
#649=VERTEX_POINT('',#2130);
#650=VERTEX_POINT('',#2132);
#651=VERTEX_POINT('',#2136);
#652=VERTEX_POINT('',#2139);
#653=VERTEX_POINT('',#2142);
#654=VERTEX_POINT('',#2145);
#655=VERTEX_POINT('',#2148);
#656=VERTEX_POINT('',#2150);
#657=VERTEX_POINT('',#2154);
#658=VERTEX_POINT('',#2156);
#659=VERTEX_POINT('',#2158);
#660=VERTEX_POINT('',#2160);
#661=VERTEX_POINT('',#2162);
#662=VERTEX_POINT('',#2164);
#663=VERTEX_POINT('',#2168);
#664=VERTEX_POINT('',#2169);
#665=VERTEX_POINT('',#2172);
#666=VERTEX_POINT('',#2177);
#667=VERTEX_POINT('',#2179);
#668=VERTEX_POINT('',#2181);
#669=VERTEX_POINT('',#2183);
#670=VERTEX_POINT('',#2185);
#671=VERTEX_POINT('',#2189);
#672=VERTEX_POINT('',#2193);
#673=VERTEX_POINT('',#2195);
#674=VERTEX_POINT('',#2197);
#675=VERTEX_POINT('',#2201);
#676=VERTEX_POINT('',#2205);
#677=VERTEX_POINT('',#2209);
#678=VERTEX_POINT('',#2212);
#679=VERTEX_POINT('',#2214);
#680=VERTEX_POINT('',#2218);
#681=VERTEX_POINT('',#2227);
#682=VERTEX_POINT('',#2229);
#683=VERTEX_POINT('',#2238);
#684=VERTEX_POINT('',#2240);
#685=VERTEX_POINT('',#2242);
#686=VERTEX_POINT('',#2246);
#687=VERTEX_POINT('',#2248);
#688=VERTEX_POINT('',#2250);
#689=VERTEX_POINT('',#2252);
#690=VERTEX_POINT('',#2257);
#691=VERTEX_POINT('',#2259);
#692=VERTEX_POINT('',#2263);
#693=VERTEX_POINT('',#2265);
#694=VERTEX_POINT('',#2269);
#695=VERTEX_POINT('',#2271);
#696=VERTEX_POINT('',#2275);
#697=VERTEX_POINT('',#2276);
#698=VERTEX_POINT('',#2278);
#699=VERTEX_POINT('',#2280);
#700=VERTEX_POINT('',#2287);
#701=VERTEX_POINT('',#2289);
#702=VERTEX_POINT('',#2297);
#703=VERTEX_POINT('',#2299);
#704=VERTEX_POINT('',#2301);
#705=VERTEX_POINT('',#2307);
#706=VERTEX_POINT('',#2309);
#707=VERTEX_POINT('',#2313);
#708=VERTEX_POINT('',#2316);
#709=VERTEX_POINT('',#2318);
#710=VERTEX_POINT('',#2323);
#711=VERTEX_POINT('',#2326);
#712=VERTEX_POINT('',#2329);
#713=VERTEX_POINT('',#2331);
#714=VERTEX_POINT('',#2335);
#715=VERTEX_POINT('',#2338);
#716=VERTEX_POINT('',#2342);
#717=VERTEX_POINT('',#2346);
#718=VERTEX_POINT('',#2350);
#719=VERTEX_POINT('',#2359);
#720=VERTEX_POINT('',#2360);
#721=VERTEX_POINT('',#2362);
#722=VERTEX_POINT('',#2364);
#723=VERTEX_POINT('',#2368);
#724=VERTEX_POINT('',#2370);
#725=VERTEX_POINT('',#2374);
#726=VERTEX_POINT('',#2376);
#727=EDGE_CURVE('',#597,#598,#273,.T.);
#728=EDGE_CURVE('',#599,#597,#274,.T.);
#729=EDGE_CURVE('',#600,#599,#275,.T.);
#730=EDGE_CURVE('',#598,#600,#276,.T.);
#731=EDGE_CURVE('',#601,#597,#277,.T.);
#732=EDGE_CURVE('',#602,#601,#278,.T.);
#733=EDGE_CURVE('',#599,#602,#279,.T.);
#734=EDGE_CURVE('',#603,#601,#280,.T.);
#735=EDGE_CURVE('',#604,#603,#281,.T.);
#736=EDGE_CURVE('',#602,#604,#282,.T.);
#737=EDGE_CURVE('',#605,#606,#283,.T.);
#738=EDGE_CURVE('',#606,#607,#284,.T.);
#739=EDGE_CURVE('',#608,#607,#285,.T.);
#740=EDGE_CURVE('',#605,#608,#286,.T.);
#741=EDGE_CURVE('',#609,#609,#60,.T.);
#742=EDGE_CURVE('',#610,#610,#61,.T.);
#743=EDGE_CURVE('',#604,#611,#287,.T.);
#744=EDGE_CURVE('',#611,#612,#288,.T.);
#745=EDGE_CURVE('',#612,#612,#62,.T.);
#746=EDGE_CURVE('',#612,#613,#289,.T.);
#747=EDGE_CURVE('',#613,#613,#63,.T.);
#748=EDGE_CURVE('',#613,#614,#290,.T.);
#749=EDGE_CURVE('',#614,#600,#291,.T.);
#750=EDGE_CURVE('',#615,#615,#64,.T.);
#751=EDGE_CURVE('',#616,#603,#292,.T.);
#752=EDGE_CURVE('',#611,#616,#293,.T.);
#753=EDGE_CURVE('',#614,#617,#294,.T.);
#754=EDGE_CURVE('',#598,#617,#295,.T.);
#755=EDGE_CURVE('',#618,#619,#296,.T.);
#756=EDGE_CURVE('',#620,#618,#297,.T.);
#757=EDGE_CURVE('',#620,#613,#298,.T.);
#758=EDGE_CURVE('',#621,#612,#299,.T.);
#759=EDGE_CURVE('',#621,#619,#300,.T.);
#760=EDGE_CURVE('',#619,#616,#301,.T.);
#761=EDGE_CURVE('',#621,#612,#302,.T.);
#762=EDGE_CURVE('',#617,#618,#303,.T.);
#763=EDGE_CURVE('',#620,#613,#304,.T.);
#764=EDGE_CURVE('',#615,#622,#305,.T.);
#765=EDGE_CURVE('',#622,#622,#65,.T.);
#766=EDGE_CURVE('',#623,#623,#66,.T.);
#767=EDGE_CURVE('',#620,#620,#67,.T.);
#768=EDGE_CURVE('',#624,#624,#68,.T.);
#769=EDGE_CURVE('',#621,#621,#69,.T.);
#770=EDGE_CURVE('',#625,#625,#70,.T.);
#771=EDGE_CURVE('',#610,#626,#306,.T.);
#772=EDGE_CURVE('',#626,#626,#71,.T.);
#773=EDGE_CURVE('',#627,#627,#72,.T.);
#774=EDGE_CURVE('',#623,#628,#307,.T.);
#775=EDGE_CURVE('',#628,#628,#73,.T.);
#776=EDGE_CURVE('',#624,#629,#308,.T.);
#777=EDGE_CURVE('',#629,#629,#74,.T.);
#778=EDGE_CURVE('',#625,#630,#309,.T.);
#779=EDGE_CURVE('',#630,#630,#75,.T.);
#780=EDGE_CURVE('',#627,#631,#310,.T.);
#781=EDGE_CURVE('',#631,#631,#76,.T.);
#782=EDGE_CURVE('',#632,#633,#311,.T.);
#783=EDGE_CURVE('',#632,#634,#312,.T.);
#784=EDGE_CURVE('',#634,#635,#313,.T.);
#785=EDGE_CURVE('',#636,#635,#314,.T.);
#786=EDGE_CURVE('',#636,#637,#315,.T.);
#787=EDGE_CURVE('',#637,#638,#316,.T.);
#788=EDGE_CURVE('',#639,#638,#317,.T.);
#789=EDGE_CURVE('',#633,#639,#318,.T.);
#790=EDGE_CURVE('',#640,#634,#319,.T.);
#791=EDGE_CURVE('',#641,#640,#320,.T.);
#792=EDGE_CURVE('',#635,#641,#321,.T.);
#793=EDGE_CURVE('',#642,#639,#322,.T.);
#794=EDGE_CURVE('',#643,#642,#323,.T.);
#795=EDGE_CURVE('',#643,#633,#324,.T.);
#796=EDGE_CURVE('',#638,#644,#325,.T.);
#797=EDGE_CURVE('',#644,#645,#326,.T.);
#798=EDGE_CURVE('',#646,#645,#327,.T.);
#799=EDGE_CURVE('',#647,#646,#328,.T.);
#800=EDGE_CURVE('',#648,#647,#329,.T.);
#801=EDGE_CURVE('',#649,#648,#330,.T.);
#802=EDGE_CURVE('',#649,#650,#331,.T.);
#803=EDGE_CURVE('',#642,#650,#332,.T.);
#804=EDGE_CURVE('',#637,#651,#333,.T.);
#805=EDGE_CURVE('',#640,#651,#334,.T.);
#806=EDGE_CURVE('',#652,#632,#335,.T.);
#807=EDGE_CURVE('',#652,#644,#336,.T.);
#808=EDGE_CURVE('',#653,#653,#77,.T.);
#809=EDGE_CURVE('',#607,#654,#337,.T.);
#810=EDGE_CURVE('',#654,#641,#338,.T.);
#811=EDGE_CURVE('',#651,#655,#339,.T.);
#812=EDGE_CURVE('',#655,#656,#340,.T.);
#813=EDGE_CURVE('',#656,#608,#341,.T.);
#814=EDGE_CURVE('',#657,#646,#342,.T.);
#815=EDGE_CURVE('',#657,#658,#343,.T.);
#816=EDGE_CURVE('',#659,#658,#344,.T.);
#817=EDGE_CURVE('',#660,#659,#345,.T.);
#818=EDGE_CURVE('',#661,#660,#346,.T.);
#819=EDGE_CURVE('',#662,#661,#347,.T.);
#820=EDGE_CURVE('',#647,#662,#348,.T.);
#821=EDGE_CURVE('',#663,#664,#349,.T.);
#822=EDGE_CURVE('',#606,#664,#350,.T.);
#823=EDGE_CURVE('',#665,#605,#351,.T.);
#824=EDGE_CURVE('',#665,#645,#352,.T.);
#825=EDGE_CURVE('',#663,#652,#353,.T.);
#826=EDGE_CURVE('',#666,#650,#354,.T.);
#827=EDGE_CURVE('',#667,#666,#355,.T.);
#828=EDGE_CURVE('',#668,#667,#356,.T.);
#829=EDGE_CURVE('',#669,#668,#357,.T.);
#830=EDGE_CURVE('',#670,#669,#358,.T.);
#831=EDGE_CURVE('',#643,#670,#359,.T.);
#832=EDGE_CURVE('',#662,#671,#360,.T.);
#833=EDGE_CURVE('',#648,#671,#361,.T.);
#834=EDGE_CURVE('',#672,#661,#362,.T.);
#835=EDGE_CURVE('',#673,#672,#363,.T.);
#836=EDGE_CURVE('',#673,#674,#364,.T.);
#837=EDGE_CURVE('',#671,#674,#365,.T.);
#838=EDGE_CURVE('',#675,#660,#366,.T.);
#839=EDGE_CURVE('',#672,#675,#367,.T.);
#840=EDGE_CURVE('',#609,#676,#368,.T.);
#841=EDGE_CURVE('',#676,#676,#78,.T.);
#842=EDGE_CURVE('',#677,#677,#79,.T.);
#843=EDGE_CURVE('',#674,#678,#369,.T.);
#844=EDGE_CURVE('',#679,#673,#370,.T.);
#845=EDGE_CURVE('',#679,#678,#371,.T.);
#846=EDGE_CURVE('',#680,#659,#372,.T.);
#847=EDGE_CURVE('',#678,#680,#373,.T.);
#848=EDGE_CURVE('',#675,#679,#374,.T.);
#849=EDGE_CURVE('',#677,#653,#375,.T.);
#850=EDGE_CURVE('',#655,#636,#376,.T.);
#851=EDGE_CURVE('',#681,#654,#377,.T.);
#852=EDGE_CURVE('',#682,#681,#378,.T.);
#853=EDGE_CURVE('',#682,#656,#379,.T.);
#854=EDGE_CURVE('',#681,#664,#380,.T.);
#855=EDGE_CURVE('',#667,#682,#381,.T.);
#856=EDGE_CURVE('',#665,#666,#382,.T.);
#857=EDGE_CURVE('',#667,#683,#383,.T.);
#858=EDGE_CURVE('',#684,#683,#384,.T.);
#859=EDGE_CURVE('',#685,#684,#385,.T.);
#860=EDGE_CURVE('',#668,#685,#386,.T.);
#861=EDGE_CURVE('',#686,#665,#387,.T.);
#862=EDGE_CURVE('',#687,#686,#388,.T.);
#863=EDGE_CURVE('',#688,#687,#389,.T.);
#864=EDGE_CURVE('',#688,#689,#390,.T.);
#865=EDGE_CURVE('',#664,#689,#391,.T.);
#866=EDGE_CURVE('',#663,#657,#392,.T.);
#867=EDGE_CURVE('',#690,#666,#393,.T.);
#868=EDGE_CURVE('',#691,#649,#394,.T.);
#869=EDGE_CURVE('',#691,#690,#395,.T.);
#870=EDGE_CURVE('',#689,#692,#396,.T.);
#871=EDGE_CURVE('',#693,#688,#397,.T.);
#872=EDGE_CURVE('',#692,#693,#398,.T.);
#873=EDGE_CURVE('',#694,#686,#399,.T.);
#874=EDGE_CURVE('',#695,#694,#400,.T.);
#875=EDGE_CURVE('',#687,#695,#401,.T.);
#876=EDGE_CURVE('',#696,#697,#402,.T.);
#877=EDGE_CURVE('',#698,#696,#403,.T.);
#878=EDGE_CURVE('',#699,#698,#404,.T.);
#879=EDGE_CURVE('',#697,#699,#405,.T.);
#880=EDGE_CURVE('',#697,#695,#80,.T.);
#881=EDGE_CURVE('',#693,#699,#81,.T.);
#882=EDGE_CURVE('',#700,#700,#82,.T.);
#883=EDGE_CURVE('',#700,#701,#406,.T.);
#884=EDGE_CURVE('',#692,#701,#83,.T.);
#885=EDGE_CURVE('',#701,#698,#84,.T.);
#886=EDGE_CURVE('',#690,#683,#407,.T.);
#887=EDGE_CURVE('',#684,#691,#408,.T.);
#888=EDGE_CURVE('',#680,#702,#409,.T.);
#889=EDGE_CURVE('',#702,#703,#410,.T.);
#890=EDGE_CURVE('',#703,#704,#411,.T.);
#891=EDGE_CURVE('',#704,#685,#412,.T.);
#892=EDGE_CURVE('',#702,#658,#413,.T.);
#893=EDGE_CURVE('',#705,#705,#85,.T.);
#894=EDGE_CURVE('',#705,#706,#414,.T.);
#895=EDGE_CURVE('',#706,#706,#86,.T.);
#896=EDGE_CURVE('',#707,#707,#87,.T.);
#897=EDGE_CURVE('',#708,#708,#88,.T.);
#898=EDGE_CURVE('',#708,#709,#415,.T.);
#899=EDGE_CURVE('',#696,#709,#89,.T.);
#900=EDGE_CURVE('',#709,#694,#90,.T.);
#901=EDGE_CURVE('',#710,#710,#91,.T.);
#902=EDGE_CURVE('',#711,#711,#92,.T.);
#903=EDGE_CURVE('',#712,#712,#93,.T.);
#904=EDGE_CURVE('',#712,#713,#416,.T.);
#905=EDGE_CURVE('',#713,#713,#94,.T.);
#906=EDGE_CURVE('',#714,#714,#95,.T.);
#907=EDGE_CURVE('',#715,#715,#96,.T.);
#908=EDGE_CURVE('',#715,#707,#417,.T.);
#909=EDGE_CURVE('',#716,#716,#97,.T.);
#910=EDGE_CURVE('',#716,#710,#418,.T.);
#911=EDGE_CURVE('',#717,#717,#98,.T.);
#912=EDGE_CURVE('',#717,#711,#419,.T.);
#913=EDGE_CURVE('',#718,#718,#99,.T.);
#914=EDGE_CURVE('',#718,#714,#420,.T.);
#915=EDGE_CURVE('',#703,#670,#421,.T.);
#916=EDGE_CURVE('',#704,#669,#422,.T.);
#917=EDGE_CURVE('',#719,#720,#423,.T.);
#918=EDGE_CURVE('',#720,#721,#424,.T.);
#919=EDGE_CURVE('',#722,#721,#425,.T.);
#920=EDGE_CURVE('',#719,#722,#426,.T.);
#921=EDGE_CURVE('',#723,#719,#427,.T.);
#922=EDGE_CURVE('',#724,#722,#428,.T.);
#923=EDGE_CURVE('',#723,#724,#429,.T.);
#924=EDGE_CURVE('',#725,#723,#430,.T.);
#925=EDGE_CURVE('',#726,#724,#431,.T.);
#926=EDGE_CURVE('',#725,#726,#432,.T.);
#927=EDGE_CURVE('',#720,#725,#433,.T.);
#928=EDGE_CURVE('',#721,#726,#434,.T.);
#929=ORIENTED_EDGE('',*,*,#727,.F.);
#930=ORIENTED_EDGE('',*,*,#728,.F.);
#931=ORIENTED_EDGE('',*,*,#729,.F.);
#932=ORIENTED_EDGE('',*,*,#730,.F.);
#933=ORIENTED_EDGE('',*,*,#731,.F.);
#934=ORIENTED_EDGE('',*,*,#732,.F.);
#935=ORIENTED_EDGE('',*,*,#733,.F.);
#936=ORIENTED_EDGE('',*,*,#728,.T.);
#937=ORIENTED_EDGE('',*,*,#734,.F.);
#938=ORIENTED_EDGE('',*,*,#735,.F.);
#939=ORIENTED_EDGE('',*,*,#736,.F.);
#940=ORIENTED_EDGE('',*,*,#732,.T.);
#941=ORIENTED_EDGE('',*,*,#737,.T.);
#942=ORIENTED_EDGE('',*,*,#738,.T.);
#943=ORIENTED_EDGE('',*,*,#739,.F.);
#944=ORIENTED_EDGE('',*,*,#740,.F.);
#945=ORIENTED_EDGE('',*,*,#741,.T.);
#946=ORIENTED_EDGE('',*,*,#742,.T.);
#947=ORIENTED_EDGE('',*,*,#729,.T.);
#948=ORIENTED_EDGE('',*,*,#733,.T.);
#949=ORIENTED_EDGE('',*,*,#736,.T.);
#950=ORIENTED_EDGE('',*,*,#743,.T.);
#951=ORIENTED_EDGE('',*,*,#744,.T.);
#952=ORIENTED_EDGE('',*,*,#745,.T.);
#953=ORIENTED_EDGE('',*,*,#746,.T.);
#954=ORIENTED_EDGE('',*,*,#747,.T.);
#955=ORIENTED_EDGE('',*,*,#748,.T.);
#956=ORIENTED_EDGE('',*,*,#749,.T.);
#957=ORIENTED_EDGE('',*,*,#750,.T.);
#958=ORIENTED_EDGE('',*,*,#735,.T.);
#959=ORIENTED_EDGE('',*,*,#751,.F.);
#960=ORIENTED_EDGE('',*,*,#752,.F.);
#961=ORIENTED_EDGE('',*,*,#743,.F.);
#962=ORIENTED_EDGE('',*,*,#730,.T.);
#963=ORIENTED_EDGE('',*,*,#749,.F.);
#964=ORIENTED_EDGE('',*,*,#753,.T.);
#965=ORIENTED_EDGE('',*,*,#754,.F.);
#966=ORIENTED_EDGE('',*,*,#755,.F.);
#967=ORIENTED_EDGE('',*,*,#756,.F.);
#968=ORIENTED_EDGE('',*,*,#757,.T.);
#969=ORIENTED_EDGE('',*,*,#746,.F.);
#970=ORIENTED_EDGE('',*,*,#758,.F.);
#971=ORIENTED_EDGE('',*,*,#759,.T.);
#972=ORIENTED_EDGE('',*,*,#760,.F.);
#973=ORIENTED_EDGE('',*,*,#759,.F.);
#974=ORIENTED_EDGE('',*,*,#761,.T.);
#975=ORIENTED_EDGE('',*,*,#744,.F.);
#976=ORIENTED_EDGE('',*,*,#752,.T.);
#977=ORIENTED_EDGE('',*,*,#762,.F.);
#978=ORIENTED_EDGE('',*,*,#753,.F.);
#979=ORIENTED_EDGE('',*,*,#748,.F.);
#980=ORIENTED_EDGE('',*,*,#763,.F.);
#981=ORIENTED_EDGE('',*,*,#756,.T.);
#982=ORIENTED_EDGE('',*,*,#750,.F.);
#983=ORIENTED_EDGE('',*,*,#764,.T.);
#984=ORIENTED_EDGE('',*,*,#765,.T.);
#985=ORIENTED_EDGE('',*,*,#764,.F.);
#986=ORIENTED_EDGE('',*,*,#765,.F.);
#987=ORIENTED_EDGE('',*,*,#766,.F.);
#988=ORIENTED_EDGE('',*,*,#747,.F.);
#989=ORIENTED_EDGE('',*,*,#757,.F.);
#990=ORIENTED_EDGE('',*,*,#767,.T.);
#991=ORIENTED_EDGE('',*,*,#763,.T.);
#992=ORIENTED_EDGE('',*,*,#767,.F.);
#993=ORIENTED_EDGE('',*,*,#768,.F.);
#994=ORIENTED_EDGE('',*,*,#769,.T.);
#995=ORIENTED_EDGE('',*,*,#758,.T.);
#996=ORIENTED_EDGE('',*,*,#745,.F.);
#997=ORIENTED_EDGE('',*,*,#761,.F.);
#998=ORIENTED_EDGE('',*,*,#769,.F.);
#999=ORIENTED_EDGE('',*,*,#770,.F.);
#1000=ORIENTED_EDGE('',*,*,#742,.F.);
#1001=ORIENTED_EDGE('',*,*,#771,.T.);
#1002=ORIENTED_EDGE('',*,*,#772,.T.);
#1003=ORIENTED_EDGE('',*,*,#771,.F.);
#1004=ORIENTED_EDGE('',*,*,#772,.F.);
#1005=ORIENTED_EDGE('',*,*,#773,.F.);
#1006=ORIENTED_EDGE('',*,*,#766,.T.);
#1007=ORIENTED_EDGE('',*,*,#774,.T.);
#1008=ORIENTED_EDGE('',*,*,#775,.F.);
#1009=ORIENTED_EDGE('',*,*,#774,.F.);
#1010=ORIENTED_EDGE('',*,*,#768,.T.);
#1011=ORIENTED_EDGE('',*,*,#776,.T.);
#1012=ORIENTED_EDGE('',*,*,#777,.F.);
#1013=ORIENTED_EDGE('',*,*,#776,.F.);
#1014=ORIENTED_EDGE('',*,*,#770,.T.);
#1015=ORIENTED_EDGE('',*,*,#778,.T.);
#1016=ORIENTED_EDGE('',*,*,#779,.F.);
#1017=ORIENTED_EDGE('',*,*,#778,.F.);
#1018=ORIENTED_EDGE('',*,*,#773,.T.);
#1019=ORIENTED_EDGE('',*,*,#780,.T.);
#1020=ORIENTED_EDGE('',*,*,#781,.F.);
#1021=ORIENTED_EDGE('',*,*,#780,.F.);
#1022=ORIENTED_EDGE('',*,*,#782,.F.);
#1023=ORIENTED_EDGE('',*,*,#783,.T.);
#1024=ORIENTED_EDGE('',*,*,#784,.T.);
#1025=ORIENTED_EDGE('',*,*,#785,.F.);
#1026=ORIENTED_EDGE('',*,*,#786,.T.);
#1027=ORIENTED_EDGE('',*,*,#787,.T.);
#1028=ORIENTED_EDGE('',*,*,#788,.F.);
#1029=ORIENTED_EDGE('',*,*,#789,.F.);
#1030=ORIENTED_EDGE('',*,*,#790,.F.);
#1031=ORIENTED_EDGE('',*,*,#791,.F.);
#1032=ORIENTED_EDGE('',*,*,#792,.F.);
#1033=ORIENTED_EDGE('',*,*,#784,.F.);
#1034=ORIENTED_EDGE('',*,*,#789,.T.);
#1035=ORIENTED_EDGE('',*,*,#793,.F.);
#1036=ORIENTED_EDGE('',*,*,#794,.F.);
#1037=ORIENTED_EDGE('',*,*,#795,.T.);
#1038=ORIENTED_EDGE('',*,*,#788,.T.);
#1039=ORIENTED_EDGE('',*,*,#796,.T.);
#1040=ORIENTED_EDGE('',*,*,#797,.T.);
#1041=ORIENTED_EDGE('',*,*,#798,.F.);
#1042=ORIENTED_EDGE('',*,*,#799,.F.);
#1043=ORIENTED_EDGE('',*,*,#800,.F.);
#1044=ORIENTED_EDGE('',*,*,#801,.F.);
#1045=ORIENTED_EDGE('',*,*,#802,.T.);
#1046=ORIENTED_EDGE('',*,*,#803,.F.);
#1047=ORIENTED_EDGE('',*,*,#793,.T.);
#1048=ORIENTED_EDGE('',*,*,#804,.T.);
#1049=ORIENTED_EDGE('',*,*,#805,.F.);
#1050=ORIENTED_EDGE('',*,*,#790,.T.);
#1051=ORIENTED_EDGE('',*,*,#783,.F.);
#1052=ORIENTED_EDGE('',*,*,#806,.F.);
#1053=ORIENTED_EDGE('',*,*,#807,.T.);
#1054=ORIENTED_EDGE('',*,*,#796,.F.);
#1055=ORIENTED_EDGE('',*,*,#787,.F.);
#1056=ORIENTED_EDGE('',*,*,#727,.T.);
#1057=ORIENTED_EDGE('',*,*,#754,.T.);
#1058=ORIENTED_EDGE('',*,*,#762,.T.);
#1059=ORIENTED_EDGE('',*,*,#755,.T.);
#1060=ORIENTED_EDGE('',*,*,#760,.T.);
#1061=ORIENTED_EDGE('',*,*,#751,.T.);
#1062=ORIENTED_EDGE('',*,*,#734,.T.);
#1063=ORIENTED_EDGE('',*,*,#731,.T.);
#1064=ORIENTED_EDGE('',*,*,#808,.T.);
#1065=ORIENTED_EDGE('',*,*,#781,.T.);
#1066=ORIENTED_EDGE('',*,*,#779,.T.);
#1067=ORIENTED_EDGE('',*,*,#777,.T.);
#1068=ORIENTED_EDGE('',*,*,#775,.T.);
#1069=ORIENTED_EDGE('',*,*,#809,.T.);
#1070=ORIENTED_EDGE('',*,*,#810,.T.);
#1071=ORIENTED_EDGE('',*,*,#791,.T.);
#1072=ORIENTED_EDGE('',*,*,#805,.T.);
#1073=ORIENTED_EDGE('',*,*,#811,.T.);
#1074=ORIENTED_EDGE('',*,*,#812,.T.);
#1075=ORIENTED_EDGE('',*,*,#813,.T.);
#1076=ORIENTED_EDGE('',*,*,#739,.T.);
#1077=ORIENTED_EDGE('',*,*,#814,.F.);
#1078=ORIENTED_EDGE('',*,*,#815,.T.);
#1079=ORIENTED_EDGE('',*,*,#816,.F.);
#1080=ORIENTED_EDGE('',*,*,#817,.F.);
#1081=ORIENTED_EDGE('',*,*,#818,.F.);
#1082=ORIENTED_EDGE('',*,*,#819,.F.);
#1083=ORIENTED_EDGE('',*,*,#820,.F.);
#1084=ORIENTED_EDGE('',*,*,#799,.T.);
#1085=ORIENTED_EDGE('',*,*,#821,.T.);
#1086=ORIENTED_EDGE('',*,*,#822,.F.);
#1087=ORIENTED_EDGE('',*,*,#737,.F.);
#1088=ORIENTED_EDGE('',*,*,#823,.F.);
#1089=ORIENTED_EDGE('',*,*,#824,.T.);
#1090=ORIENTED_EDGE('',*,*,#797,.F.);
#1091=ORIENTED_EDGE('',*,*,#807,.F.);
#1092=ORIENTED_EDGE('',*,*,#825,.F.);
#1093=ORIENTED_EDGE('',*,*,#794,.T.);
#1094=ORIENTED_EDGE('',*,*,#803,.T.);
#1095=ORIENTED_EDGE('',*,*,#826,.F.);
#1096=ORIENTED_EDGE('',*,*,#827,.F.);
#1097=ORIENTED_EDGE('',*,*,#828,.F.);
#1098=ORIENTED_EDGE('',*,*,#829,.F.);
#1099=ORIENTED_EDGE('',*,*,#830,.F.);
#1100=ORIENTED_EDGE('',*,*,#831,.F.);
#1101=ORIENTED_EDGE('',*,*,#820,.T.);
#1102=ORIENTED_EDGE('',*,*,#832,.T.);
#1103=ORIENTED_EDGE('',*,*,#833,.F.);
#1104=ORIENTED_EDGE('',*,*,#800,.T.);
#1105=ORIENTED_EDGE('',*,*,#819,.T.);
#1106=ORIENTED_EDGE('',*,*,#834,.F.);
#1107=ORIENTED_EDGE('',*,*,#835,.F.);
#1108=ORIENTED_EDGE('',*,*,#836,.T.);
#1109=ORIENTED_EDGE('',*,*,#837,.F.);
#1110=ORIENTED_EDGE('',*,*,#832,.F.);
#1111=ORIENTED_EDGE('',*,*,#818,.T.);
#1112=ORIENTED_EDGE('',*,*,#838,.F.);
#1113=ORIENTED_EDGE('',*,*,#839,.F.);
#1114=ORIENTED_EDGE('',*,*,#834,.T.);
#1115=ORIENTED_EDGE('',*,*,#741,.F.);
#1116=ORIENTED_EDGE('',*,*,#840,.T.);
#1117=ORIENTED_EDGE('',*,*,#841,.T.);
#1118=ORIENTED_EDGE('',*,*,#840,.F.);
#1119=ORIENTED_EDGE('',*,*,#841,.F.);
#1120=ORIENTED_EDGE('',*,*,#842,.T.);
#1121=ORIENTED_EDGE('',*,*,#843,.F.);
#1122=ORIENTED_EDGE('',*,*,#836,.F.);
#1123=ORIENTED_EDGE('',*,*,#844,.F.);
#1124=ORIENTED_EDGE('',*,*,#845,.T.);
#1125=ORIENTED_EDGE('',*,*,#817,.T.);
#1126=ORIENTED_EDGE('',*,*,#846,.F.);
#1127=ORIENTED_EDGE('',*,*,#847,.F.);
#1128=ORIENTED_EDGE('',*,*,#845,.F.);
#1129=ORIENTED_EDGE('',*,*,#848,.F.);
#1130=ORIENTED_EDGE('',*,*,#838,.T.);
#1131=ORIENTED_EDGE('',*,*,#842,.F.);
#1132=ORIENTED_EDGE('',*,*,#849,.T.);
#1133=ORIENTED_EDGE('',*,*,#808,.F.);
#1134=ORIENTED_EDGE('',*,*,#849,.F.);
#1135=ORIENTED_EDGE('',*,*,#850,.F.);
#1136=ORIENTED_EDGE('',*,*,#811,.F.);
#1137=ORIENTED_EDGE('',*,*,#804,.F.);
#1138=ORIENTED_EDGE('',*,*,#786,.F.);
#1139=ORIENTED_EDGE('',*,*,#792,.T.);
#1140=ORIENTED_EDGE('',*,*,#810,.F.);
#1141=ORIENTED_EDGE('',*,*,#851,.F.);
#1142=ORIENTED_EDGE('',*,*,#852,.F.);
#1143=ORIENTED_EDGE('',*,*,#853,.T.);
#1144=ORIENTED_EDGE('',*,*,#812,.F.);
#1145=ORIENTED_EDGE('',*,*,#850,.T.);
#1146=ORIENTED_EDGE('',*,*,#785,.T.);
#1147=ORIENTED_EDGE('',*,*,#854,.F.);
#1148=ORIENTED_EDGE('',*,*,#851,.T.);
#1149=ORIENTED_EDGE('',*,*,#809,.F.);
#1150=ORIENTED_EDGE('',*,*,#738,.F.);
#1151=ORIENTED_EDGE('',*,*,#822,.T.);
#1152=ORIENTED_EDGE('',*,*,#813,.F.);
#1153=ORIENTED_EDGE('',*,*,#853,.F.);
#1154=ORIENTED_EDGE('',*,*,#855,.F.);
#1155=ORIENTED_EDGE('',*,*,#827,.T.);
#1156=ORIENTED_EDGE('',*,*,#856,.F.);
#1157=ORIENTED_EDGE('',*,*,#823,.T.);
#1158=ORIENTED_EDGE('',*,*,#740,.T.);
#1159=ORIENTED_EDGE('',*,*,#828,.T.);
#1160=ORIENTED_EDGE('',*,*,#857,.T.);
#1161=ORIENTED_EDGE('',*,*,#858,.F.);
#1162=ORIENTED_EDGE('',*,*,#859,.F.);
#1163=ORIENTED_EDGE('',*,*,#860,.F.);
#1164=ORIENTED_EDGE('',*,*,#798,.T.);
#1165=ORIENTED_EDGE('',*,*,#824,.F.);
#1166=ORIENTED_EDGE('',*,*,#861,.F.);
#1167=ORIENTED_EDGE('',*,*,#862,.F.);
#1168=ORIENTED_EDGE('',*,*,#863,.F.);
#1169=ORIENTED_EDGE('',*,*,#864,.T.);
#1170=ORIENTED_EDGE('',*,*,#865,.F.);
#1171=ORIENTED_EDGE('',*,*,#821,.F.);
#1172=ORIENTED_EDGE('',*,*,#866,.T.);
#1173=ORIENTED_EDGE('',*,*,#814,.T.);
#1174=ORIENTED_EDGE('',*,*,#867,.T.);
#1175=ORIENTED_EDGE('',*,*,#826,.T.);
#1176=ORIENTED_EDGE('',*,*,#802,.F.);
#1177=ORIENTED_EDGE('',*,*,#868,.F.);
#1178=ORIENTED_EDGE('',*,*,#869,.T.);
#1179=ORIENTED_EDGE('',*,*,#870,.F.);
#1180=ORIENTED_EDGE('',*,*,#864,.F.);
#1181=ORIENTED_EDGE('',*,*,#871,.F.);
#1182=ORIENTED_EDGE('',*,*,#872,.F.);
#1183=ORIENTED_EDGE('',*,*,#873,.F.);
#1184=ORIENTED_EDGE('',*,*,#874,.F.);
#1185=ORIENTED_EDGE('',*,*,#875,.F.);
#1186=ORIENTED_EDGE('',*,*,#862,.T.);
#1187=ORIENTED_EDGE('',*,*,#876,.F.);
#1188=ORIENTED_EDGE('',*,*,#877,.F.);
#1189=ORIENTED_EDGE('',*,*,#878,.F.);
#1190=ORIENTED_EDGE('',*,*,#879,.F.);
#1191=ORIENTED_EDGE('',*,*,#880,.F.);
#1192=ORIENTED_EDGE('',*,*,#879,.T.);
#1193=ORIENTED_EDGE('',*,*,#881,.F.);
#1194=ORIENTED_EDGE('',*,*,#871,.T.);
#1195=ORIENTED_EDGE('',*,*,#863,.T.);
#1196=ORIENTED_EDGE('',*,*,#875,.T.);
#1197=ORIENTED_EDGE('',*,*,#882,.F.);
#1198=ORIENTED_EDGE('',*,*,#883,.T.);
#1199=ORIENTED_EDGE('',*,*,#884,.F.);
#1200=ORIENTED_EDGE('',*,*,#872,.T.);
#1201=ORIENTED_EDGE('',*,*,#881,.T.);
#1202=ORIENTED_EDGE('',*,*,#878,.T.);
#1203=ORIENTED_EDGE('',*,*,#885,.F.);
#1204=ORIENTED_EDGE('',*,*,#883,.F.);
#1205=ORIENTED_EDGE('',*,*,#886,.F.);
#1206=ORIENTED_EDGE('',*,*,#869,.F.);
#1207=ORIENTED_EDGE('',*,*,#887,.F.);
#1208=ORIENTED_EDGE('',*,*,#858,.T.);
#1209=ORIENTED_EDGE('',*,*,#847,.T.);
#1210=ORIENTED_EDGE('',*,*,#888,.T.);
#1211=ORIENTED_EDGE('',*,*,#889,.T.);
#1212=ORIENTED_EDGE('',*,*,#890,.T.);
#1213=ORIENTED_EDGE('',*,*,#891,.T.);
#1214=ORIENTED_EDGE('',*,*,#859,.T.);
#1215=ORIENTED_EDGE('',*,*,#887,.T.);
#1216=ORIENTED_EDGE('',*,*,#868,.T.);
#1217=ORIENTED_EDGE('',*,*,#801,.T.);
#1218=ORIENTED_EDGE('',*,*,#833,.T.);
#1219=ORIENTED_EDGE('',*,*,#837,.T.);
#1220=ORIENTED_EDGE('',*,*,#843,.T.);
#1221=ORIENTED_EDGE('',*,*,#816,.T.);
#1222=ORIENTED_EDGE('',*,*,#892,.F.);
#1223=ORIENTED_EDGE('',*,*,#888,.F.);
#1224=ORIENTED_EDGE('',*,*,#846,.T.);
#1225=ORIENTED_EDGE('',*,*,#893,.F.);
#1226=ORIENTED_EDGE('',*,*,#894,.T.);
#1227=ORIENTED_EDGE('',*,*,#895,.F.);
#1228=ORIENTED_EDGE('',*,*,#894,.F.);
#1229=ORIENTED_EDGE('',*,*,#893,.T.);
#1230=ORIENTED_EDGE('',*,*,#896,.F.);
#1231=ORIENTED_EDGE('',*,*,#897,.F.);
#1232=ORIENTED_EDGE('',*,*,#898,.T.);
#1233=ORIENTED_EDGE('',*,*,#899,.F.);
#1234=ORIENTED_EDGE('',*,*,#876,.T.);
#1235=ORIENTED_EDGE('',*,*,#880,.T.);
#1236=ORIENTED_EDGE('',*,*,#874,.T.);
#1237=ORIENTED_EDGE('',*,*,#900,.F.);
#1238=ORIENTED_EDGE('',*,*,#898,.F.);
#1239=ORIENTED_EDGE('',*,*,#897,.T.);
#1240=ORIENTED_EDGE('',*,*,#901,.F.);
#1241=ORIENTED_EDGE('',*,*,#882,.T.);
#1242=ORIENTED_EDGE('',*,*,#902,.F.);
#1243=ORIENTED_EDGE('',*,*,#903,.F.);
#1244=ORIENTED_EDGE('',*,*,#904,.T.);
#1245=ORIENTED_EDGE('',*,*,#905,.F.);
#1246=ORIENTED_EDGE('',*,*,#904,.F.);
#1247=ORIENTED_EDGE('',*,*,#903,.T.);
#1248=ORIENTED_EDGE('',*,*,#906,.F.);
#1249=ORIENTED_EDGE('',*,*,#907,.F.);
#1250=ORIENTED_EDGE('',*,*,#908,.T.);
#1251=ORIENTED_EDGE('',*,*,#896,.T.);
#1252=ORIENTED_EDGE('',*,*,#908,.F.);
#1253=ORIENTED_EDGE('',*,*,#909,.F.);
#1254=ORIENTED_EDGE('',*,*,#910,.T.);
#1255=ORIENTED_EDGE('',*,*,#901,.T.);
#1256=ORIENTED_EDGE('',*,*,#910,.F.);
#1257=ORIENTED_EDGE('',*,*,#911,.F.);
#1258=ORIENTED_EDGE('',*,*,#912,.T.);
#1259=ORIENTED_EDGE('',*,*,#902,.T.);
#1260=ORIENTED_EDGE('',*,*,#912,.F.);
#1261=ORIENTED_EDGE('',*,*,#913,.F.);
#1262=ORIENTED_EDGE('',*,*,#914,.T.);
#1263=ORIENTED_EDGE('',*,*,#906,.T.);
#1264=ORIENTED_EDGE('',*,*,#914,.F.);
#1265=ORIENTED_EDGE('',*,*,#782,.T.);
#1266=ORIENTED_EDGE('',*,*,#795,.F.);
#1267=ORIENTED_EDGE('',*,*,#831,.T.);
#1268=ORIENTED_EDGE('',*,*,#915,.F.);
#1269=ORIENTED_EDGE('',*,*,#889,.F.);
#1270=ORIENTED_EDGE('',*,*,#892,.T.);
#1271=ORIENTED_EDGE('',*,*,#815,.F.);
#1272=ORIENTED_EDGE('',*,*,#866,.F.);
#1273=ORIENTED_EDGE('',*,*,#825,.T.);
#1274=ORIENTED_EDGE('',*,*,#806,.T.);
#1275=ORIENTED_EDGE('',*,*,#829,.T.);
#1276=ORIENTED_EDGE('',*,*,#860,.T.);
#1277=ORIENTED_EDGE('',*,*,#891,.F.);
#1278=ORIENTED_EDGE('',*,*,#916,.T.);
#1279=ORIENTED_EDGE('',*,*,#830,.T.);
#1280=ORIENTED_EDGE('',*,*,#916,.F.);
#1281=ORIENTED_EDGE('',*,*,#890,.F.);
#1282=ORIENTED_EDGE('',*,*,#915,.T.);
#1283=ORIENTED_EDGE('',*,*,#917,.T.);
#1284=ORIENTED_EDGE('',*,*,#918,.T.);
#1285=ORIENTED_EDGE('',*,*,#919,.F.);
#1286=ORIENTED_EDGE('',*,*,#920,.F.);
#1287=ORIENTED_EDGE('',*,*,#921,.T.);
#1288=ORIENTED_EDGE('',*,*,#920,.T.);
#1289=ORIENTED_EDGE('',*,*,#922,.F.);
#1290=ORIENTED_EDGE('',*,*,#923,.F.);
#1291=ORIENTED_EDGE('',*,*,#924,.T.);
#1292=ORIENTED_EDGE('',*,*,#923,.T.);
#1293=ORIENTED_EDGE('',*,*,#925,.F.);
#1294=ORIENTED_EDGE('',*,*,#926,.F.);
#1295=ORIENTED_EDGE('',*,*,#927,.T.);
#1296=ORIENTED_EDGE('',*,*,#926,.T.);
#1297=ORIENTED_EDGE('',*,*,#928,.F.);
#1298=ORIENTED_EDGE('',*,*,#918,.F.);
#1299=ORIENTED_EDGE('',*,*,#928,.T.);
#1300=ORIENTED_EDGE('',*,*,#925,.T.);
#1301=ORIENTED_EDGE('',*,*,#922,.T.);
#1302=ORIENTED_EDGE('',*,*,#919,.T.);
#1303=ORIENTED_EDGE('',*,*,#856,.T.);
#1304=ORIENTED_EDGE('',*,*,#867,.F.);
#1305=ORIENTED_EDGE('',*,*,#886,.T.);
#1306=ORIENTED_EDGE('',*,*,#857,.F.);
#1307=ORIENTED_EDGE('',*,*,#855,.T.);
#1308=ORIENTED_EDGE('',*,*,#852,.T.);
#1309=ORIENTED_EDGE('',*,*,#854,.T.);
#1310=ORIENTED_EDGE('',*,*,#865,.T.);
#1311=ORIENTED_EDGE('',*,*,#870,.T.);
#1312=ORIENTED_EDGE('',*,*,#884,.T.);
#1313=ORIENTED_EDGE('',*,*,#885,.T.);
#1314=ORIENTED_EDGE('',*,*,#877,.T.);
#1315=ORIENTED_EDGE('',*,*,#899,.T.);
#1316=ORIENTED_EDGE('',*,*,#900,.T.);
#1317=ORIENTED_EDGE('',*,*,#873,.T.);
#1318=ORIENTED_EDGE('',*,*,#861,.T.);
#1319=ORIENTED_EDGE('',*,*,#905,.T.);
#1320=ORIENTED_EDGE('',*,*,#895,.T.);
#1321=ORIENTED_EDGE('',*,*,#927,.F.);
#1322=ORIENTED_EDGE('',*,*,#917,.F.);
#1323=ORIENTED_EDGE('',*,*,#921,.F.);
#1324=ORIENTED_EDGE('',*,*,#924,.F.);
#1325=ORIENTED_EDGE('',*,*,#835,.T.);
#1326=ORIENTED_EDGE('',*,*,#839,.T.);
#1327=ORIENTED_EDGE('',*,*,#848,.T.);
#1328=ORIENTED_EDGE('',*,*,#844,.T.);
#1329=ORIENTED_EDGE('',*,*,#907,.T.);
#1330=ORIENTED_EDGE('',*,*,#909,.T.);
#1331=ORIENTED_EDGE('',*,*,#911,.T.);
#1332=ORIENTED_EDGE('',*,*,#913,.T.);
#1333=PLANE('',#1475);
#1334=PLANE('',#1476);
#1335=PLANE('',#1477);
#1336=PLANE('',#1478);
#1337=PLANE('',#1484);
#1338=PLANE('',#1485);
#1339=PLANE('',#1486);
#1340=PLANE('',#1487);
#1341=PLANE('',#1488);
#1342=PLANE('',#1491);
#1343=PLANE('',#1495);
#1344=PLANE('',#1499);
#1345=PLANE('',#1503);
#1346=PLANE('',#1513);
#1347=PLANE('',#1514);
#1348=PLANE('',#1515);
#1349=PLANE('',#1516);
#1350=PLANE('',#1517);
#1351=PLANE('',#1519);
#1352=PLANE('',#1520);
#1353=PLANE('',#1521);
#1354=PLANE('',#1522);
#1355=PLANE('',#1523);
#1356=PLANE('',#1524);
#1357=PLANE('',#1525);
#1358=PLANE('',#1528);
#1359=PLANE('',#1530);
#1360=PLANE('',#1531);
#1361=PLANE('',#1533);
#1362=PLANE('',#1534);
#1363=PLANE('',#1535);
#1364=PLANE('',#1536);
#1365=PLANE('',#1537);
#1366=PLANE('',#1538);
#1367=PLANE('',#1539);
#1368=PLANE('',#1540);
#1369=PLANE('',#1541);
#1370=PLANE('',#1542);
#1371=PLANE('',#1543);
#1372=PLANE('',#1550);
#1373=PLANE('',#1551);
#1374=PLANE('',#1552);
#1375=PLANE('',#1556);
#1376=PLANE('',#1562);
#1377=PLANE('',#1564);
#1378=PLANE('',#1569);
#1379=PLANE('',#1579);
#1380=PLANE('',#1580);
#1381=PLANE('',#1581);
#1382=PLANE('',#1582);
#1383=PLANE('',#1583);
#1384=PLANE('',#1584);
#1385=PLANE('',#1585);
#1386=PLANE('',#1586);
#1387=PLANE('',#1587);
#1388=ADVANCED_FACE('',(#100),#1333,.F.);
#1389=ADVANCED_FACE('',(#101),#1334,.F.);
#1390=ADVANCED_FACE('',(#102),#1335,.F.);
#1391=ADVANCED_FACE('',(#103,#33,#34,#35,#36),#1336,.T.);
#1392=ADVANCED_FACE('',(#104),#1337,.F.);
#1393=ADVANCED_FACE('',(#105),#1338,.F.);
#1394=ADVANCED_FACE('',(#106),#1339,.F.);
#1395=ADVANCED_FACE('',(#107),#1340,.F.);
#1396=ADVANCED_FACE('',(#108),#1341,.F.);
#1397=ADVANCED_FACE('',(#109),#15,.F.);
#1398=ADVANCED_FACE('',(#110,#37),#1342,.F.);
#1399=ADVANCED_FACE('',(#111),#16,.F.);
#1400=ADVANCED_FACE('',(#112,#38),#1343,.F.);
#1401=ADVANCED_FACE('',(#113),#17,.F.);
#1402=ADVANCED_FACE('',(#114,#39),#1344,.F.);
#1403=ADVANCED_FACE('',(#115),#18,.F.);
#1404=ADVANCED_FACE('',(#116,#40),#1345,.F.);
#1405=ADVANCED_FACE('',(#117),#19,.F.);
#1406=ADVANCED_FACE('',(#118),#20,.F.);
#1407=ADVANCED_FACE('',(#119),#21,.F.);
#1408=ADVANCED_FACE('',(#120),#22,.F.);
#1409=ADVANCED_FACE('',(#121),#1346,.T.);
#1410=ADVANCED_FACE('',(#122),#1347,.T.);
#1411=ADVANCED_FACE('',(#123),#1348,.F.);
#1412=ADVANCED_FACE('',(#124),#1349,.F.);
#1413=ADVANCED_FACE('',(#125,#41,#42,#43,#44,#45,#46),#1350,.T.);
#1414=ADVANCED_FACE('',(#126),#1351,.T.);
#1415=ADVANCED_FACE('',(#127),#1352,.T.);
#1416=ADVANCED_FACE('',(#128),#1353,.F.);
#1417=ADVANCED_FACE('',(#129),#1354,.F.);
#1418=ADVANCED_FACE('',(#130),#1355,.F.);
#1419=ADVANCED_FACE('',(#131),#1356,.F.);
#1420=ADVANCED_FACE('',(#132),#1357,.F.);
#1421=ADVANCED_FACE('',(#133),#23,.T.);
#1422=ADVANCED_FACE('',(#134,#47),#1358,.F.);
#1423=ADVANCED_FACE('',(#135),#1359,.F.);
#1424=ADVANCED_FACE('',(#136),#1360,.F.);
#1425=ADVANCED_FACE('',(#137),#24,.F.);
#1426=ADVANCED_FACE('',(#138),#1361,.T.);
#1427=ADVANCED_FACE('',(#139),#1362,.T.);
#1428=ADVANCED_FACE('',(#140),#1363,.T.);
#1429=ADVANCED_FACE('',(#141),#1364,.T.);
#1430=ADVANCED_FACE('',(#142),#1365,.F.);
#1431=ADVANCED_FACE('',(#143),#1366,.F.);
#1432=ADVANCED_FACE('',(#144),#1367,.F.);
#1433=ADVANCED_FACE('',(#145),#1368,.F.);
#1434=ADVANCED_FACE('',(#146),#1369,.F.);
#1435=ADVANCED_FACE('',(#147),#1370,.F.);
#1436=ADVANCED_FACE('',(#148),#1371,.T.);
#1437=ADVANCED_FACE('',(#149),#25,.F.);
#1438=ADVANCED_FACE('',(#150),#1372,.F.);
#1439=ADVANCED_FACE('',(#151),#1373,.T.);
#1440=ADVANCED_FACE('',(#152),#1374,.F.);
#1441=ADVANCED_FACE('',(#153),#26,.F.);
#1442=ADVANCED_FACE('',(#154,#48),#1375,.T.);
#1443=ADVANCED_FACE('',(#155),#27,.F.);
#1444=ADVANCED_FACE('',(#156,#49),#1376,.T.);
#1445=ADVANCED_FACE('',(#157,#50),#1377,.T.);
#1446=ADVANCED_FACE('',(#158),#28,.F.);
#1447=ADVANCED_FACE('',(#159,#51),#1378,.T.);
#1448=ADVANCED_FACE('',(#160),#29,.F.);
#1449=ADVANCED_FACE('',(#161),#30,.F.);
#1450=ADVANCED_FACE('',(#162),#31,.F.);
#1451=ADVANCED_FACE('',(#163),#32,.F.);
#1452=ADVANCED_FACE('',(#164),#1379,.F.);
#1453=ADVANCED_FACE('',(#165),#1380,.F.);
#1454=ADVANCED_FACE('',(#166),#1381,.F.);
#1455=ADVANCED_FACE('',(#167),#1382,.T.);
#1456=ADVANCED_FACE('',(#168),#1383,.T.);
#1457=ADVANCED_FACE('',(#169),#1384,.T.);
#1458=ADVANCED_FACE('',(#170),#1385,.T.);
#1459=ADVANCED_FACE('',(#171,#52,#53,#54),#1386,.T.);
#1460=ADVANCED_FACE('',(#172,#55,#56,#57,#58,#59),#1387,.F.);
#1461=CLOSED_SHELL('',(#1388,#1389,#1390,#1391,#1392,#1393,#1394,#1395,
#1396,#1397,#1398,#1399,#1400,#1401,#1402,#1403,#1404,#1405,#1406,#1407,
#1408,#1409,#1410,#1411,#1412,#1413,#1414,#1415,#1416,#1417,#1418,#1419,
#1420,#1421,#1422,#1423,#1424,#1425,#1426,#1427,#1428,#1429,#1430,#1431,
#1432,#1433,#1434,#1435,#1436,#1437,#1438,#1439,#1440,#1441,#1442,#1443,
#1444,#1445,#1446,#1447,#1448,#1449,#1450,#1451,#1452,#1453,#1454,#1455,
#1456,#1457,#1458,#1459,#1460));
#1462=DERIVED_UNIT_ELEMENT(#1464,1.);
#1463=DERIVED_UNIT_ELEMENT(#2389,-3.);
#1464=(
MASS_UNIT()
NAMED_UNIT(*)
SI_UNIT(.KILO.,.GRAM.)
);
#1465=DERIVED_UNIT((#1462,#1463));
#1466=MEASURE_REPRESENTATION_ITEM('density measure',
POSITIVE_RATIO_MEASURE(7850.),#1465);
#1467=PROPERTY_DEFINITION_REPRESENTATION(#1472,#1469);
#1468=PROPERTY_DEFINITION_REPRESENTATION(#1473,#1470);
#1469=REPRESENTATION('material name',(#1471),#2386);
#1470=REPRESENTATION('density',(#1466),#2386);
#1471=DESCRIPTIVE_REPRESENTATION_ITEM('\X2\92FC\X0\','\X2\92FC\X0\');
#1472=PROPERTY_DEFINITION('material property','material name',#2396);
#1473=PROPERTY_DEFINITION('material property','density of part',#2396);
#1474=AXIS2_PLACEMENT_3D('',#1978,#1588,#1589);
#1475=AXIS2_PLACEMENT_3D('',#1979,#1590,#1591);
#1476=AXIS2_PLACEMENT_3D('',#1988,#1596,#1597);
#1477=AXIS2_PLACEMENT_3D('',#1994,#1601,#1602);
#1478=AXIS2_PLACEMENT_3D('',#2000,#1606,#1607);
#1479=AXIS2_PLACEMENT_3D('',#2010,#1612,#1613);
#1480=AXIS2_PLACEMENT_3D('',#2012,#1614,#1615);
#1481=AXIS2_PLACEMENT_3D('',#2017,#1618,#1619);
#1482=AXIS2_PLACEMENT_3D('',#2020,#1621,#1622);
#1483=AXIS2_PLACEMENT_3D('',#2025,#1625,#1626);
#1484=AXIS2_PLACEMENT_3D('',#2026,#1627,#1628);
#1485=AXIS2_PLACEMENT_3D('',#2030,#1631,#1632);
#1486=AXIS2_PLACEMENT_3D('',#2034,#1635,#1636);
#1487=AXIS2_PLACEMENT_3D('',#2044,#1642,#1643);
#1488=AXIS2_PLACEMENT_3D('',#2047,#1646,#1647);
#1489=AXIS2_PLACEMENT_3D('',#2050,#1650,#1651);
#1490=AXIS2_PLACEMENT_3D('',#2053,#1653,#1654);
#1491=AXIS2_PLACEMENT_3D('',#2054,#1655,#1656);
#1492=AXIS2_PLACEMENT_3D('',#2056,#1657,#1658);
#1493=AXIS2_PLACEMENT_3D('',#2057,#1659,#1660);
#1494=AXIS2_PLACEMENT_3D('',#2058,#1661,#1662);
#1495=AXIS2_PLACEMENT_3D('',#2059,#1663,#1664);
#1496=AXIS2_PLACEMENT_3D('',#2061,#1665,#1666);
#1497=AXIS2_PLACEMENT_3D('',#2062,#1667,#1668);
#1498=AXIS2_PLACEMENT_3D('',#2063,#1669,#1670);
#1499=AXIS2_PLACEMENT_3D('',#2064,#1671,#1672);
#1500=AXIS2_PLACEMENT_3D('',#2066,#1673,#1674);
#1501=AXIS2_PLACEMENT_3D('',#2067,#1675,#1676);
#1502=AXIS2_PLACEMENT_3D('',#2070,#1678,#1679);
#1503=AXIS2_PLACEMENT_3D('',#2071,#1680,#1681);
#1504=AXIS2_PLACEMENT_3D('',#2073,#1682,#1683);
#1505=AXIS2_PLACEMENT_3D('',#2074,#1684,#1685);
#1506=AXIS2_PLACEMENT_3D('',#2077,#1687,#1688);
#1507=AXIS2_PLACEMENT_3D('',#2078,#1689,#1690);
#1508=AXIS2_PLACEMENT_3D('',#2081,#1692,#1693);
#1509=AXIS2_PLACEMENT_3D('',#2082,#1694,#1695);
#1510=AXIS2_PLACEMENT_3D('',#2085,#1697,#1698);
#1511=AXIS2_PLACEMENT_3D('',#2086,#1699,#1700);
#1512=AXIS2_PLACEMENT_3D('',#2089,#1702,#1703);
#1513=AXIS2_PLACEMENT_3D('',#2090,#1704,#1705);
#1514=AXIS2_PLACEMENT_3D('',#2107,#1714,#1715);
#1515=AXIS2_PLACEMENT_3D('',#2113,#1719,#1720);
#1516=AXIS2_PLACEMENT_3D('',#2119,#1724,#1725);
#1517=AXIS2_PLACEMENT_3D('',#2135,#1734,#1735);
#1518=AXIS2_PLACEMENT_3D('',#2143,#1740,#1741);
#1519=AXIS2_PLACEMENT_3D('',#2144,#1742,#1743);
#1520=AXIS2_PLACEMENT_3D('',#2153,#1749,#1750);
#1521=AXIS2_PLACEMENT_3D('',#2167,#1758,#1759);
#1522=AXIS2_PLACEMENT_3D('',#2176,#1765,#1766);
#1523=AXIS2_PLACEMENT_3D('',#2188,#1773,#1774);
#1524=AXIS2_PLACEMENT_3D('',#2192,#1777,#1778);
#1525=AXIS2_PLACEMENT_3D('',#2200,#1783,#1784);
#1526=AXIS2_PLACEMENT_3D('',#2204,#1787,#1788);
#1527=AXIS2_PLACEMENT_3D('',#2207,#1790,#1791);
#1528=AXIS2_PLACEMENT_3D('',#2208,#1792,#1793);
#1529=AXIS2_PLACEMENT_3D('',#2210,#1794,#1795);
#1530=AXIS2_PLACEMENT_3D('',#2211,#1796,#1797);
#1531=AXIS2_PLACEMENT_3D('',#2217,#1801,#1802);
#1532=AXIS2_PLACEMENT_3D('',#2222,#1806,#1807);
#1533=AXIS2_PLACEMENT_3D('',#2224,#1809,#1810);
#1534=AXIS2_PLACEMENT_3D('',#2226,#1812,#1813);
#1535=AXIS2_PLACEMENT_3D('',#2232,#1817,#1818);
#1536=AXIS2_PLACEMENT_3D('',#2234,#1820,#1821);
#1537=AXIS2_PLACEMENT_3D('',#2237,#1824,#1825);
#1538=AXIS2_PLACEMENT_3D('',#2245,#1830,#1831);
#1539=AXIS2_PLACEMENT_3D('',#2256,#1838,#1839);
#1540=AXIS2_PLACEMENT_3D('',#2262,#1843,#1844);
#1541=AXIS2_PLACEMENT_3D('',#2268,#1848,#1849);
#1542=AXIS2_PLACEMENT_3D('',#2274,#1853,#1854);
#1543=AXIS2_PLACEMENT_3D('',#2283,#1859,#1860);
#1544=AXIS2_PLACEMENT_3D('',#2284,#1861,#1862);
#1545=AXIS2_PLACEMENT_3D('',#2285,#1863,#1864);
#1546=AXIS2_PLACEMENT_3D('',#2286,#1865,#1866);
#1547=AXIS2_PLACEMENT_3D('',#2288,#1867,#1868);
#1548=AXIS2_PLACEMENT_3D('',#2291,#1870,#1871);
#1549=AXIS2_PLACEMENT_3D('',#2292,#1872,#1873);
#1550=AXIS2_PLACEMENT_3D('',#2293,#1874,#1875);
#1551=AXIS2_PLACEMENT_3D('',#2296,#1878,#1879);
#1552=AXIS2_PLACEMENT_3D('',#2304,#1884,#1885);
#1553=AXIS2_PLACEMENT_3D('',#2306,#1887,#1888);
#1554=AXIS2_PLACEMENT_3D('',#2308,#1889,#1890);
#1555=AXIS2_PLACEMENT_3D('',#2311,#1892,#1893);
#1556=AXIS2_PLACEMENT_3D('',#2312,#1894,#1895);
#1557=AXIS2_PLACEMENT_3D('',#2314,#1896,#1897);
#1558=AXIS2_PLACEMENT_3D('',#2315,#1898,#1899);
#1559=AXIS2_PLACEMENT_3D('',#2317,#1900,#1901);
#1560=AXIS2_PLACEMENT_3D('',#2320,#1903,#1904);
#1561=AXIS2_PLACEMENT_3D('',#2321,#1905,#1906);
#1562=AXIS2_PLACEMENT_3D('',#2322,#1907,#1908);
#1563=AXIS2_PLACEMENT_3D('',#2324,#1909,#1910);
#1564=AXIS2_PLACEMENT_3D('',#2325,#1911,#1912);
#1565=AXIS2_PLACEMENT_3D('',#2327,#1913,#1914);
#1566=AXIS2_PLACEMENT_3D('',#2328,#1915,#1916);
#1567=AXIS2_PLACEMENT_3D('',#2330,#1917,#1918);
#1568=AXIS2_PLACEMENT_3D('',#2333,#1920,#1921);
#1569=AXIS2_PLACEMENT_3D('',#2334,#1922,#1923);
#1570=AXIS2_PLACEMENT_3D('',#2336,#1924,#1925);
#1571=AXIS2_PLACEMENT_3D('',#2337,#1926,#1927);
#1572=AXIS2_PLACEMENT_3D('',#2339,#1928,#1929);
#1573=AXIS2_PLACEMENT_3D('',#2341,#1931,#1932);
#1574=AXIS2_PLACEMENT_3D('',#2343,#1933,#1934);
#1575=AXIS2_PLACEMENT_3D('',#2345,#1936,#1937);
#1576=AXIS2_PLACEMENT_3D('',#2347,#1938,#1939);
#1577=AXIS2_PLACEMENT_3D('',#2349,#1941,#1942);
#1578=AXIS2_PLACEMENT_3D('',#2351,#1943,#1944);
#1579=AXIS2_PLACEMENT_3D('',#2353,#1946,#1947);
#1580=AXIS2_PLACEMENT_3D('',#2355,#1949,#1950);
#1581=AXIS2_PLACEMENT_3D('',#2357,#1952,#1953);
#1582=AXIS2_PLACEMENT_3D('',#2358,#1954,#1955);
#1583=AXIS2_PLACEMENT_3D('',#2367,#1960,#1961);
#1584=AXIS2_PLACEMENT_3D('',#2373,#1965,#1966);
#1585=AXIS2_PLACEMENT_3D('',#2379,#1970,#1971);
#1586=AXIS2_PLACEMENT_3D('',#2382,#1974,#1975);
#1587=AXIS2_PLACEMENT_3D('',#2383,#1976,#1977);
#1588=DIRECTION('axis',(0.,0.,1.));
#1589=DIRECTION('refdir',(1.,0.,0.));
#1590=DIRECTION('center_axis',(0.,-1.,0.));
#1591=DIRECTION('ref_axis',(-3.69319144711429E-127,0.,-1.));
#1592=DIRECTION('',(0.,0.,1.));
#1593=DIRECTION('',(1.,0.,0.));
#1594=DIRECTION('',(0.,0.,-1.));
#1595=DIRECTION('',(-1.,0.,0.));
#1596=DIRECTION('center_axis',(0.,3.93916048678534E-268,-1.));
#1597=DIRECTION('ref_axis',(-1.06660067402226E-141,1.,3.93916048678534E-268));
#1598=DIRECTION('',(0.,-1.,-3.93916048678534E-268));
#1599=DIRECTION('',(1.,0.,0.));
#1600=DIRECTION('',(0.,1.,3.93916048678534E-268));
#1601=DIRECTION('center_axis',(0.,1.,0.));
#1602=DIRECTION('ref_axis',(3.69319144711429E-127,0.,1.));
#1603=DIRECTION('',(0.,0.,-1.));
#1604=DIRECTION('',(1.,0.,0.));
#1605=DIRECTION('',(0.,0.,1.));
#1606=DIRECTION('center_axis',(-1.,0.,0.));
#1607=DIRECTION('ref_axis',(0.,-1.,0.));
#1608=DIRECTION('',(0.,-1.,0.));
#1609=DIRECTION('',(0.,0.,1.));
#1610=DIRECTION('',(0.,-1.,0.));
#1611=DIRECTION('',(0.,0.,1.));
#1612=DIRECTION('center_axis',(1.,0.,0.));
#1613=DIRECTION('ref_axis',(0.,0.,-1.));
#1614=DIRECTION('center_axis',(1.,0.,0.));
#1615=DIRECTION('ref_axis',(0.,0.,-1.));
#1616=DIRECTION('',(0.,1.,3.93916048678534E-268));
#1617=DIRECTION('',(0.,0.,1.));
#1618=DIRECTION('center_axis',(1.,0.,0.));
#1619=DIRECTION('ref_axis',(0.,0.,-1.));
#1620=DIRECTION('',(0.,-1.,-3.93916048678534E-268));
#1621=DIRECTION('center_axis',(1.,0.,0.));
#1622=DIRECTION('ref_axis',(0.,0.,-1.));
#1623=DIRECTION('',(0.,0.,-1.));
#1624=DIRECTION('',(0.,1.,3.93916048678534E-268));
#1625=DIRECTION('center_axis',(1.,0.,0.));
#1626=DIRECTION('ref_axis',(0.,0.,-1.));
#1627=DIRECTION('center_axis',(0.,3.93916048678534E-268,-1.));
#1628=DIRECTION('ref_axis',(-1.06660067402226E-141,1.,3.93916048678534E-268));
#1629=DIRECTION('',(0.,-1.,-3.93916048678534E-268));
#1630=DIRECTION('',(1.,0.,0.));
#1631=DIRECTION('center_axis',(0.,3.93916048678534E-268,-1.));
#1632=DIRECTION('ref_axis',(-1.06660067402226E-141,1.,3.93916048678534E-268));
#1633=DIRECTION('',(1.,0.,0.));
#1634=DIRECTION('',(0.,-1.,-3.93916048678534E-268));
#1635=DIRECTION('center_axis',(0.,-3.93916048678534E-268,1.));
#1636=DIRECTION('ref_axis',(1.06660067402226E-141,-1.,-3.93916048678534E-268));
#1637=DIRECTION('',(0.,1.,3.93916048678534E-268));
#1638=DIRECTION('',(1.,0.,0.));
#1639=DIRECTION('',(-1.,0.,0.));
#1640=DIRECTION('',(-1.,0.,0.));
#1641=DIRECTION('',(1.,0.,0.));
#1642=DIRECTION('center_axis',(0.,1.,0.));
#1643=DIRECTION('ref_axis',(3.69319144711429E-127,0.,1.));
#1644=DIRECTION('',(0.,0.,-1.));
#1645=DIRECTION('',(-1.,0.,0.));
#1646=DIRECTION('center_axis',(0.,-1.,0.));
#1647=DIRECTION('ref_axis',(-3.69319144711429E-127,0.,-1.));
#1648=DIRECTION('',(0.,0.,1.));
#1649=DIRECTION('',(-1.,0.,0.));
#1650=DIRECTION('center_axis',(1.,0.,0.));
#1651=DIRECTION('ref_axis',(0.,0.,-1.));
#1652=DIRECTION('',(1.,0.,0.));
#1653=DIRECTION('center_axis',(1.,1.06660067402226E-141,-3.69319144711429E-127));
#1654=DIRECTION('ref_axis',(-3.69319144711429E-127,0.,-1.));
#1655=DIRECTION('center_axis',(1.,1.06660067402226E-141,-3.69319144711429E-127));
#1656=DIRECTION('ref_axis',(-3.69319144711429E-127,0.,-1.));
#1657=DIRECTION('center_axis',(-1.,-1.06660067402226E-141,3.69319144711429E-127));
#1658=DIRECTION('ref_axis',(0.,0.,-1.));
#1659=DIRECTION('center_axis',(1.,0.,0.));
#1660=DIRECTION('ref_axis',(0.,1.22464679914735E-16,1.));
#1661=DIRECTION('center_axis',(1.,1.06660067402226E-141,-3.69319144711429E-127));
#1662=DIRECTION('ref_axis',(-3.69319144711429E-127,0.,-1.));
#1663=DIRECTION('center_axis',(1.,1.06660067402226E-141,-3.69319144711429E-127));
#1664=DIRECTION('ref_axis',(-3.69319144711429E-127,0.,-1.));
#1665=DIRECTION('center_axis',(-1.,-1.06660067402226E-141,3.69319144711429E-127));
#1666=DIRECTION('ref_axis',(0.,0.,-1.));
#1667=DIRECTION('center_axis',(1.,0.,0.));
#1668=DIRECTION('ref_axis',(0.,1.22464679914735E-16,1.));
#1669=DIRECTION('center_axis',(1.,1.06660067402226E-141,-3.69319144711429E-127));
#1670=DIRECTION('ref_axis',(-3.69319144711429E-127,0.,-1.));
#1671=DIRECTION('center_axis',(1.,1.06660067402226E-141,-3.69319144711429E-127));
#1672=DIRECTION('ref_axis',(-3.69319144711429E-127,0.,-1.));
#1673=DIRECTION('center_axis',(-1.,-1.06660067402226E-141,3.69319144711429E-127));
#1674=DIRECTION('ref_axis',(0.,0.,-1.));
#1675=DIRECTION('center_axis',(1.,0.,0.));
#1676=DIRECTION('ref_axis',(0.,0.,-1.));
#1677=DIRECTION('',(1.,0.,0.));
#1678=DIRECTION('center_axis',(1.,1.06660067402226E-141,-3.69319144711429E-127));
#1679=DIRECTION('ref_axis',(-3.69319144711429E-127,0.,-1.));
#1680=DIRECTION('center_axis',(1.,1.06660067402226E-141,-3.69319144711429E-127));
#1681=DIRECTION('ref_axis',(-3.69319144711429E-127,0.,-1.));
#1682=DIRECTION('center_axis',(-1.,-1.06660067402226E-141,3.69319144711429E-127));
#1683=DIRECTION('ref_axis',(0.,0.,-1.));
#1684=DIRECTION('center_axis',(1.,0.,0.));
#1685=DIRECTION('ref_axis',(0.,0.,-1.));
#1686=DIRECTION('',(1.,0.,0.));
#1687=DIRECTION('center_axis',(-1.,0.,0.));
#1688=DIRECTION('ref_axis',(0.,0.,-1.));
#1689=DIRECTION('center_axis',(1.,0.,0.));
#1690=DIRECTION('ref_axis',(0.,0.,-1.));
#1691=DIRECTION('',(1.,0.,0.));
#1692=DIRECTION('center_axis',(-1.,0.,0.));
#1693=DIRECTION('ref_axis',(0.,0.,-1.));
#1694=DIRECTION('center_axis',(1.,0.,0.));
#1695=DIRECTION('ref_axis',(0.,0.,-1.));
#1696=DIRECTION('',(1.,0.,0.));
#1697=DIRECTION('center_axis',(-1.,0.,0.));
#1698=DIRECTION('ref_axis',(0.,0.,-1.));
#1699=DIRECTION('center_axis',(1.,0.,0.));
#1700=DIRECTION('ref_axis',(0.,0.,-1.));
#1701=DIRECTION('',(1.,0.,0.));
#1702=DIRECTION('center_axis',(-1.,0.,0.));
#1703=DIRECTION('ref_axis',(0.,0.,-1.));
#1704=DIRECTION('center_axis',(0.,0.,1.));
#1705=DIRECTION('ref_axis',(1.,0.,0.));
#1706=DIRECTION('',(1.,0.,0.));
#1707=DIRECTION('',(0.,-1.,0.));
#1708=DIRECTION('',(1.,0.,0.));
#1709=DIRECTION('',(0.,-1.,0.));
#1710=DIRECTION('',(-1.,0.,0.));
#1711=DIRECTION('',(0.,-1.,0.));
#1712=DIRECTION('',(-1.,0.,0.));
#1713=DIRECTION('',(6.16790569236198E-17,1.,0.));
#1714=DIRECTION('center_axis',(0.,1.,0.));
#1715=DIRECTION('ref_axis',(-1.,0.,0.));
#1716=DIRECTION('',(0.,0.,-1.));
#1717=DIRECTION('',(-1.,0.,0.));
#1718=DIRECTION('',(0.,0.,1.));
#1719=DIRECTION('center_axis',(1.,-6.16790569236198E-17,0.));
#1720=DIRECTION('ref_axis',(6.16790569236198E-17,1.,0.));
#1721=DIRECTION('',(0.,0.,1.));
#1722=DIRECTION('',(5.84327907697451E-17,1.,0.));
#1723=DIRECTION('',(0.,0.,1.));
#1724=DIRECTION('center_axis',(0.,1.,0.));
#1725=DIRECTION('ref_axis',(-1.,0.,0.));
#1726=DIRECTION('',(0.,0.,-1.));
#1727=DIRECTION('',(-1.,0.,0.));
#1728=DIRECTION('',(0.,0.,1.));
#1729=DIRECTION('',(-1.,0.,0.));
#1730=DIRECTION('',(0.,0.,1.));
#1731=DIRECTION('',(-1.,0.,0.));
#1732=DIRECTION('',(0.,0.,1.));
#1733=DIRECTION('',(-1.,0.,0.));
#1734=DIRECTION('center_axis',(1.,0.,0.));
#1735=DIRECTION('ref_axis',(0.,1.,0.));
#1736=DIRECTION('',(0.,0.,1.));
#1737=DIRECTION('',(0.,1.,0.));
#1738=DIRECTION('',(0.,0.,1.));
#1739=DIRECTION('',(0.,1.,0.));
#1740=DIRECTION('center_axis',(-1.,0.,0.));
#1741=DIRECTION('ref_axis',(0.,0.,-1.));
#1742=DIRECTION('center_axis',(0.,0.,1.));
#1743=DIRECTION('ref_axis',(1.,0.,0.));
#1744=DIRECTION('',(1.,0.,0.));
#1745=DIRECTION('',(0.,1.,0.));
#1746=DIRECTION('',(1.,0.,0.));
#1747=DIRECTION('',(0.,1.,0.));
#1748=DIRECTION('',(-1.,0.,0.));
#1749=DIRECTION('center_axis',(0.,0.,1.));
#1750=DIRECTION('ref_axis',(1.,0.,0.));
#1751=DIRECTION('',(0.,1.,0.));
#1752=DIRECTION('',(1.,0.,0.));
#1753=DIRECTION('',(0.,-1.,0.));
#1754=DIRECTION('',(1.,0.,0.));
#1755=DIRECTION('',(0.,-1.,0.));
#1756=DIRECTION('',(-1.,0.,0.));
#1757=DIRECTION('',(0.,-1.,0.));
#1758=DIRECTION('center_axis',(0.,0.,1.));
#1759=DIRECTION('ref_axis',(1.,0.,0.));
#1760=DIRECTION('',(0.,-1.,0.));
#1761=DIRECTION('',(1.,0.,0.));
#1762=DIRECTION('',(-1.,0.,0.));
#1763=DIRECTION('',(0.,-1.,0.));
#1764=DIRECTION('',(1.,0.,0.));
#1765=DIRECTION('center_axis',(0.,0.,1.));
#1766=DIRECTION('ref_axis',(1.,0.,0.));
#1767=DIRECTION('',(0.,-1.,0.));
#1768=DIRECTION('',(-1.,0.,0.));
#1769=DIRECTION('',(0.,1.,0.));
#1770=DIRECTION('',(-1.,0.,0.));
#1771=DIRECTION('',(0.,1.,0.));
#1772=DIRECTION('',(1.,0.,0.));
#1773=DIRECTION('center_axis',(-1.,0.,0.));
#1774=DIRECTION('ref_axis',(0.,-1.,0.));
#1775=DIRECTION('',(0.,0.,-1.));
#1776=DIRECTION('',(0.,-1.,0.));
#1777=DIRECTION('center_axis',(0.,1.,0.));
#1778=DIRECTION('ref_axis',(-1.,0.,0.));
#1779=DIRECTION('',(0.,0.,1.));
#1780=DIRECTION('',(-1.,0.,0.));
#1781=DIRECTION('',(0.,0.,1.));
#1782=DIRECTION('',(1.,0.,0.));
#1783=DIRECTION('center_axis',(-1.,0.,0.));
#1784=DIRECTION('ref_axis',(0.,-1.,0.));
#1785=DIRECTION('',(0.,0.,1.));
#1786=DIRECTION('',(0.,-1.,0.));
#1787=DIRECTION('center_axis',(1.,0.,0.));
#1788=DIRECTION('ref_axis',(0.,0.,-1.));
#1789=DIRECTION('',(-1.,0.,0.));
#1790=DIRECTION('center_axis',(1.,1.06660067402226E-141,-3.69319144711429E-127));
#1791=DIRECTION('ref_axis',(-3.69319144711429E-127,0.,-1.));
#1792=DIRECTION('center_axis',(1.,1.06660067402226E-141,-3.69319144711429E-127));
#1793=DIRECTION('ref_axis',(-3.69319144711429E-127,0.,-1.));
#1794=DIRECTION('center_axis',(1.,1.06660067402226E-141,-3.69319144711429E-127));
#1795=DIRECTION('ref_axis',(0.,0.,-1.));
#1796=DIRECTION('center_axis',(1.,-6.16790569236198E-17,0.));
#1797=DIRECTION('ref_axis',(6.16790569236198E-17,1.,0.));
#1798=DIRECTION('',(-6.16790569236198E-17,-1.,0.));
#1799=DIRECTION('',(6.16790569236198E-17,1.,0.));
#1800=DIRECTION('',(0.,0.,1.));
#1801=DIRECTION('center_axis',(0.,-1.,0.));
#1802=DIRECTION('ref_axis',(1.,0.,0.));
#1803=DIRECTION('',(0.,0.,1.));
#1804=DIRECTION('',(-1.,0.,0.));
#1805=DIRECTION('',(1.,0.,0.));
#1806=DIRECTION('center_axis',(1.,0.,0.));
#1807=DIRECTION('ref_axis',(0.,0.,-1.));
#1808=DIRECTION('',(1.,0.,0.));
#1809=DIRECTION('center_axis',(0.,-1.,0.));
#1810=DIRECTION('ref_axis',(1.,0.,0.));
#1811=DIRECTION('',(0.,0.,-1.));
#1812=DIRECTION('center_axis',(1.,0.,0.));
#1813=DIRECTION('ref_axis',(0.,1.,0.));
#1814=DIRECTION('',(0.,0.,1.));
#1815=DIRECTION('',(0.,-1.,0.));
#1816=DIRECTION('',(0.,0.,1.));
#1817=DIRECTION('center_axis',(0.,-1.,0.));
#1818=DIRECTION('ref_axis',(1.,0.,0.));
#1819=DIRECTION('',(-1.,0.,0.));
#1820=DIRECTION('center_axis',(0.,1.,0.));
#1821=DIRECTION('ref_axis',(-1.,0.,0.));
#1822=DIRECTION('',(1.,0.,0.));
#1823=DIRECTION('',(1.,0.,0.));
#1824=DIRECTION('center_axis',(1.,0.,0.));
#1825=DIRECTION('ref_axis',(0.,1.,0.));
#1826=DIRECTION('',(0.,1.,0.));
#1827=DIRECTION('',(0.,0.,1.));
#1828=DIRECTION('',(0.,1.,0.));
#1829=DIRECTION('',(0.,0.,-1.));
#1830=DIRECTION('center_axis',(1.,0.,0.));
#1831=DIRECTION('ref_axis',(0.,0.,-1.));
#1832=DIRECTION('',(0.,-1.,0.));
#1833=DIRECTION('',(0.,0.,1.));
#1834=DIRECTION('',(0.,1.,0.));
#1835=DIRECTION('',(0.,0.,1.));
#1836=DIRECTION('',(0.,-1.,0.));
#1837=DIRECTION('',(0.,0.,-1.));
#1838=DIRECTION('center_axis',(-1.,0.,0.));
#1839=DIRECTION('ref_axis',(0.,-1.,0.));
#1840=DIRECTION('',(0.,-1.,0.));
#1841=DIRECTION('',(0.,-1.,0.));
#1842=DIRECTION('',(0.,0.,1.));
#1843=DIRECTION('center_axis',(0.,-1.,0.));
#1844=DIRECTION('ref_axis',(1.,0.,0.));
#1845=DIRECTION('',(-1.,0.,0.));
#1846=DIRECTION('',(1.,0.,0.));
#1847=DIRECTION('',(0.,0.,-1.));
#1848=DIRECTION('center_axis',(0.,1.,0.));
#1849=DIRECTION('ref_axis',(-1.,0.,0.));
#1850=DIRECTION('',(1.,0.,0.));
#1851=DIRECTION('',(0.,0.,1.));
#1852=DIRECTION('',(-1.,0.,0.));
#1853=DIRECTION('center_axis',(-1.,0.,0.));
#1854=DIRECTION('ref_axis',(0.,-1.,0.));
#1855=DIRECTION('',(0.,0.,-1.));
#1856=DIRECTION('',(0.,1.,0.));
#1857=DIRECTION('',(0.,0.,1.));
#1858=DIRECTION('',(0.,-1.,0.));
#1859=DIRECTION('center_axis',(0.,0.,1.));
#1860=DIRECTION('ref_axis',(1.,0.,0.));
#1861=DIRECTION('center_axis',(0.,0.,1.));
#1862=DIRECTION('ref_axis',(1.,0.,0.));
#1863=DIRECTION('center_axis',(0.,0.,1.));
#1864=DIRECTION('ref_axis',(1.,0.,0.));
#1865=DIRECTION('center_axis',(0.,0.,1.));
#1866=DIRECTION('ref_axis',(1.,0.,0.));
#1867=DIRECTION('center_axis',(0.,0.,1.));
#1868=DIRECTION('ref_axis',(1.,0.,0.));
#1869=DIRECTION('',(0.,0.,1.));
#1870=DIRECTION('center_axis',(0.,0.,-1.));
#1871=DIRECTION('ref_axis',(1.,0.,0.));
#1872=DIRECTION('center_axis',(0.,0.,-1.));
#1873=DIRECTION('ref_axis',(1.,0.,0.));
#1874=DIRECTION('center_axis',(0.,1.,0.));
#1875=DIRECTION('ref_axis',(-1.,0.,0.));
#1876=DIRECTION('',(1.,0.,0.));
#1877=DIRECTION('',(-1.,0.,0.));
#1878=DIRECTION('center_axis',(0.,0.,1.));
#1879=DIRECTION('ref_axis',(1.,0.,0.));
#1880=DIRECTION('',(0.,-1.,0.));
#1881=DIRECTION('',(1.,0.,0.));
#1882=DIRECTION('',(1.1686558153949E-16,1.,0.));
#1883=DIRECTION('',(-1.,0.,0.));
#1884=DIRECTION('center_axis',(-1.,0.,0.));
#1885=DIRECTION('ref_axis',(0.,-1.,0.));
#1886=DIRECTION('',(0.,0.,1.));
#1887=DIRECTION('center_axis',(0.,0.,1.));
#1888=DIRECTION('ref_axis',(1.,0.,0.));
#1889=DIRECTION('center_axis',(0.,0.,1.));
#1890=DIRECTION('ref_axis',(1.,0.,0.));
#1891=DIRECTION('',(0.,0.,1.));
#1892=DIRECTION('center_axis',(0.,0.,-1.));
#1893=DIRECTION('ref_axis',(1.,0.,0.));
#1894=DIRECTION('center_axis',(0.,0.,1.));
#1895=DIRECTION('ref_axis',(1.,0.,0.));
#1896=DIRECTION('center_axis',(0.,0.,1.));
#1897=DIRECTION('ref_axis',(1.,0.,0.));
#1898=DIRECTION('center_axis',(0.,0.,1.));
#1899=DIRECTION('ref_axis',(1.,0.,0.));
#1900=DIRECTION('center_axis',(0.,0.,1.));
#1901=DIRECTION('ref_axis',(1.,0.,0.));
#1902=DIRECTION('',(0.,0.,1.));
#1903=DIRECTION('center_axis',(0.,0.,-1.));
#1904=DIRECTION('ref_axis',(1.,0.,0.));
#1905=DIRECTION('center_axis',(0.,0.,-1.));
#1906=DIRECTION('ref_axis',(1.,0.,0.));
#1907=DIRECTION('center_axis',(0.,0.,1.));
#1908=DIRECTION('ref_axis',(1.,0.,0.));
#1909=DIRECTION('center_axis',(0.,0.,1.));
#1910=DIRECTION('ref_axis',(1.,0.,0.));
#1911=DIRECTION('center_axis',(0.,0.,1.));
#1912=DIRECTION('ref_axis',(1.,0.,0.));
#1913=DIRECTION('center_axis',(0.,0.,1.));
#1914=DIRECTION('ref_axis',(1.,0.,0.));
#1915=DIRECTION('center_axis',(0.,0.,1.));
#1916=DIRECTION('ref_axis',(1.,0.,0.));
#1917=DIRECTION('center_axis',(0.,0.,1.));
#1918=DIRECTION('ref_axis',(1.,0.,0.));
#1919=DIRECTION('',(0.,0.,1.));
#1920=DIRECTION('center_axis',(0.,0.,-1.));
#1921=DIRECTION('ref_axis',(1.,0.,0.));
#1922=DIRECTION('center_axis',(0.,0.,1.));
#1923=DIRECTION('ref_axis',(1.,0.,0.));
#1924=DIRECTION('center_axis',(0.,0.,1.));
#1925=DIRECTION('ref_axis',(1.,0.,0.));
#1926=DIRECTION('center_axis',(0.,0.,1.));
#1927=DIRECTION('ref_axis',(1.,0.,0.));
#1928=DIRECTION('center_axis',(0.,0.,1.));
#1929=DIRECTION('ref_axis',(1.,0.,0.));
#1930=DIRECTION('',(0.,0.,1.));
#1931=DIRECTION('center_axis',(0.,0.,1.));
#1932=DIRECTION('ref_axis',(1.,0.,0.));
#1933=DIRECTION('center_axis',(0.,0.,1.));
#1934=DIRECTION('ref_axis',(1.,0.,0.));
#1935=DIRECTION('',(0.,0.,1.));
#1936=DIRECTION('center_axis',(0.,0.,1.));
#1937=DIRECTION('ref_axis',(1.,0.,0.));
#1938=DIRECTION('center_axis',(0.,0.,1.));
#1939=DIRECTION('ref_axis',(1.,0.,0.));
#1940=DIRECTION('',(0.,0.,1.));
#1941=DIRECTION('center_axis',(0.,0.,1.));
#1942=DIRECTION('ref_axis',(1.,0.,0.));
#1943=DIRECTION('center_axis',(0.,0.,1.));
#1944=DIRECTION('ref_axis',(1.,0.,0.));
#1945=DIRECTION('',(0.,0.,1.));
#1946=DIRECTION('center_axis',(0.,-1.,0.));
#1947=DIRECTION('ref_axis',(1.,0.,0.));
#1948=DIRECTION('',(0.,0.,1.));
#1949=DIRECTION('center_axis',(0.,1.,0.));
#1950=DIRECTION('ref_axis',(-1.,0.,0.));
#1951=DIRECTION('',(0.,0.,1.));
#1952=DIRECTION('center_axis',(1.,0.,0.));
#1953=DIRECTION('ref_axis',(0.,1.,0.));
#1954=DIRECTION('center_axis',(0.,1.,0.));
#1955=DIRECTION('ref_axis',(-1.,0.,0.));
#1956=DIRECTION('',(-1.,0.,0.));
#1957=DIRECTION('',(0.,0.,1.));
#1958=DIRECTION('',(-1.,0.,0.));
#1959=DIRECTION('',(0.,0.,1.));
#1960=DIRECTION('center_axis',(1.,0.,0.));
#1961=DIRECTION('ref_axis',(0.,1.,0.));
#1962=DIRECTION('',(0.,1.,0.));
#1963=DIRECTION('',(0.,1.,0.));
#1964=DIRECTION('',(0.,0.,1.));
#1965=DIRECTION('center_axis',(0.,-1.,0.));
#1966=DIRECTION('ref_axis',(1.,0.,0.));
#1967=DIRECTION('',(1.,0.,0.));
#1968=DIRECTION('',(1.,0.,0.));
#1969=DIRECTION('',(0.,0.,1.));
#1970=DIRECTION('center_axis',(-1.,0.,0.));
#1971=DIRECTION('ref_axis',(0.,-1.,0.));
#1972=DIRECTION('',(0.,-1.,0.));
#1973=DIRECTION('',(0.,-1.,0.));
#1974=DIRECTION('center_axis',(0.,0.,1.));
#1975=DIRECTION('ref_axis',(1.,0.,0.));
#1976=DIRECTION('center_axis',(0.,0.,1.));
#1977=DIRECTION('ref_axis',(1.,0.,0.));
#1978=CARTESIAN_POINT('',(0.,0.,0.));
#1979=CARTESIAN_POINT('Origin',(-21.8,-6.,90.35));
#1980=CARTESIAN_POINT('',(-17.7,-6.,70.95));
#1981=CARTESIAN_POINT('',(-17.7,-6.,90.25));
#1982=CARTESIAN_POINT('',(-17.7,-6.,80.175));
#1983=CARTESIAN_POINT('',(-21.7,-6.,70.95));
#1984=CARTESIAN_POINT('',(-21.8,-6.,70.95));
#1985=CARTESIAN_POINT('',(-21.7,-6.,90.25));
#1986=CARTESIAN_POINT('',(-21.7,-6.,80.175));
#1987=CARTESIAN_POINT('',(-21.8,-6.,90.25));
#1988=CARTESIAN_POINT('Origin',(-21.8,-6.,70.95));
#1989=CARTESIAN_POINT('',(-17.7,6.,70.95));
#1990=CARTESIAN_POINT('',(-17.7,-10.775,70.95));
#1991=CARTESIAN_POINT('',(-21.7,6.,70.95));
#1992=CARTESIAN_POINT('',(-21.8,6.,70.95));
#1993=CARTESIAN_POINT('',(-21.7,4.775,70.95));
#1994=CARTESIAN_POINT('Origin',(-21.8,6.,70.95));
#1995=CARTESIAN_POINT('',(-17.7,6.,90.25));
#1996=CARTESIAN_POINT('',(-17.7,6.,70.475));
#1997=CARTESIAN_POINT('',(-21.7,6.,90.25));
#1998=CARTESIAN_POINT('',(-21.8,6.,90.25));
#1999=CARTESIAN_POINT('',(-21.7,6.,70.475));
#2000=CARTESIAN_POINT('Origin',(-21.7,15.55,70.));
#2001=CARTESIAN_POINT('',(-21.7,15.55,70.));
#2002=CARTESIAN_POINT('',(-21.7,-15.55,70.));
#2003=CARTESIAN_POINT('',(-21.7,15.55,70.));
#2004=CARTESIAN_POINT('',(-21.7,-15.55,119.95));
#2005=CARTESIAN_POINT('',(-21.7,-15.55,70.));
#2006=CARTESIAN_POINT('',(-21.7,15.55,119.95));
#2007=CARTESIAN_POINT('',(-21.7,15.55,119.95));
#2008=CARTESIAN_POINT('',(-21.7,15.55,70.));
#2009=CARTESIAN_POINT('',(-21.7,-6.12323399573677E-16,112.95));
#2010=CARTESIAN_POINT('Origin',(-21.7,-2.95448386704165E-140,107.95));
#2011=CARTESIAN_POINT('',(-21.7,-11.,76.25));
#2012=CARTESIAN_POINT('Origin',(-21.7,-11.,73.95));
#2013=CARTESIAN_POINT('',(-21.7,11.,90.25));
#2014=CARTESIAN_POINT('',(-21.7,2.275,90.25));
#2015=CARTESIAN_POINT('',(-21.7,11.,96.65));
#2016=CARTESIAN_POINT('',(-21.7,11.,80.125));
#2017=CARTESIAN_POINT('Origin',(-21.7,11.,98.95));
#2018=CARTESIAN_POINT('',(-21.7,-11.,96.65));
#2019=CARTESIAN_POINT('',(-21.7,13.275,96.65));
#2020=CARTESIAN_POINT('Origin',(-21.7,-11.,98.95));
#2021=CARTESIAN_POINT('',(-21.7,-11.,90.25));
#2022=CARTESIAN_POINT('',(-21.7,-11.,83.325));
#2023=CARTESIAN_POINT('',(-21.7,2.275,90.25));
#2024=CARTESIAN_POINT('',(-21.7,11.,76.25));
#2025=CARTESIAN_POINT('Origin',(-21.7,11.,73.95));
#2026=CARTESIAN_POINT('Origin',(-21.8,-11.,90.25));
#2027=CARTESIAN_POINT('',(-17.7,11.,90.25));
#2028=CARTESIAN_POINT('',(-17.7,-13.275,90.25));
#2029=CARTESIAN_POINT('',(-21.8,11.,90.25));
#2030=CARTESIAN_POINT('Origin',(-21.8,-11.,90.25));
#2031=CARTESIAN_POINT('',(-17.7,-11.,90.25));
#2032=CARTESIAN_POINT('',(-21.8,-11.,90.25));
#2033=CARTESIAN_POINT('',(-17.7,-13.275,90.25));
#2034=CARTESIAN_POINT('Origin',(-21.8,11.,96.65));
#2035=CARTESIAN_POINT('',(-17.7,-11.,96.65));
#2036=CARTESIAN_POINT('',(-17.7,11.,96.65));
#2037=CARTESIAN_POINT('',(-17.7,-2.275,96.65));
#2038=CARTESIAN_POINT('',(-20.,-11.,96.65));
#2039=CARTESIAN_POINT('',(-21.8,-11.,96.65));
#2040=CARTESIAN_POINT('',(-21.8,-11.,96.65));
#2041=CARTESIAN_POINT('',(-20.,11.,96.65));
#2042=CARTESIAN_POINT('',(-21.8,11.,96.65));
#2043=CARTESIAN_POINT('',(-21.8,11.,96.65));
#2044=CARTESIAN_POINT('Origin',(-21.8,11.,90.25));
#2045=CARTESIAN_POINT('',(-17.7,11.,80.125));
#2046=CARTESIAN_POINT('',(-21.8,11.,96.65));
#2047=CARTESIAN_POINT('Origin',(-21.8,-11.,96.65));
#2048=CARTESIAN_POINT('',(-17.7,-11.,83.325));
#2049=CARTESIAN_POINT('',(-21.8,-11.,96.65));
#2050=CARTESIAN_POINT('Origin',(-21.8,11.,73.95));
#2051=CARTESIAN_POINT('',(-20.,11.,76.25));
#2052=CARTESIAN_POINT('',(-21.8,11.,76.25));
#2053=CARTESIAN_POINT('Origin',(-20.,11.,73.95));
#2054=CARTESIAN_POINT('Origin',(-20.,11.,73.95));
#2055=CARTESIAN_POINT('',(-20.,11.,75.15));
#2056=CARTESIAN_POINT('Origin',(-20.,11.,73.95));
#2057=CARTESIAN_POINT('Origin',(-21.8,-11.,98.95));
#2058=CARTESIAN_POINT('Origin',(-20.,-11.,98.95));
#2059=CARTESIAN_POINT('Origin',(-20.,-11.,98.95));
#2060=CARTESIAN_POINT('',(-20.,-11.,100.15));
#2061=CARTESIAN_POINT('Origin',(-20.,-11.,98.95));
#2062=CARTESIAN_POINT('Origin',(-21.8,11.,98.95));
#2063=CARTESIAN_POINT('Origin',(-20.,11.,98.95));
#2064=CARTESIAN_POINT('Origin',(-20.,11.,98.95));
#2065=CARTESIAN_POINT('',(-20.,11.,100.15));
#2066=CARTESIAN_POINT('Origin',(-20.,11.,98.95));
#2067=CARTESIAN_POINT('Origin',(-21.8,-11.,73.95));
#2068=CARTESIAN_POINT('',(-20.,-11.,76.25));
#2069=CARTESIAN_POINT('',(-21.8,-11.,76.25));
#2070=CARTESIAN_POINT('Origin',(-20.,-11.,73.95));
#2071=CARTESIAN_POINT('Origin',(-20.,-11.,73.95));
#2072=CARTESIAN_POINT('',(-20.,-11.,75.15));
#2073=CARTESIAN_POINT('Origin',(-20.,-11.,73.95));
#2074=CARTESIAN_POINT('Origin',(-21.8,11.,73.95));
#2075=CARTESIAN_POINT('',(-17.7,11.,75.15));
#2076=CARTESIAN_POINT('',(-21.8,11.,75.15));
#2077=CARTESIAN_POINT('Origin',(-17.7,11.,73.95));
#2078=CARTESIAN_POINT('Origin',(-21.8,-11.,98.95));
#2079=CARTESIAN_POINT('',(-17.7,-11.,100.15));
#2080=CARTESIAN_POINT('',(-21.8,-11.,100.15));
#2081=CARTESIAN_POINT('Origin',(-17.7,-11.,98.95));
#2082=CARTESIAN_POINT('Origin',(-21.8,11.,98.95));
#2083=CARTESIAN_POINT('',(-17.7,11.,100.15));
#2084=CARTESIAN_POINT('',(-21.8,11.,100.15));
#2085=CARTESIAN_POINT('Origin',(-17.7,11.,98.95));
#2086=CARTESIAN_POINT('Origin',(-21.8,-11.,73.95));
#2087=CARTESIAN_POINT('',(-17.7,-11.,75.15));
#2088=CARTESIAN_POINT('',(-21.8,-11.,75.15));
#2089=CARTESIAN_POINT('Origin',(-17.7,-11.,73.95));
#2090=CARTESIAN_POINT('Origin',(-0.2,0.,70.95));
#2091=CARTESIAN_POINT('',(-17.7,-9.5,70.95));
#2092=CARTESIAN_POINT('',(-6.,-9.5,70.95));
#2093=CARTESIAN_POINT('',(-6.1,-9.5,70.95));
#2094=CARTESIAN_POINT('',(-17.7,-12.65,70.95));
#2095=CARTESIAN_POINT('',(-17.7,12.65,70.95));
#2096=CARTESIAN_POINT('',(17.3,-12.65,70.95));
#2097=CARTESIAN_POINT('',(-17.7,-12.65,70.95));
#2098=CARTESIAN_POINT('',(17.3,12.65,70.95));
#2099=CARTESIAN_POINT('',(17.3,-7.775,70.95));
#2100=CARTESIAN_POINT('',(-17.7,12.65,70.95));
#2101=CARTESIAN_POINT('',(17.3,12.65,70.95));
#2102=CARTESIAN_POINT('',(-17.7,9.5,70.95));
#2103=CARTESIAN_POINT('',(-17.7,12.65,70.95));
#2104=CARTESIAN_POINT('',(-6.,9.5,70.95));
#2105=CARTESIAN_POINT('',(5.9,9.5,70.95));
#2106=CARTESIAN_POINT('',(-6.,-4.5,70.95));
#2107=CARTESIAN_POINT('Origin',(17.3,-12.65,70.));
#2108=CARTESIAN_POINT('',(-17.7,-12.65,119.95));
#2109=CARTESIAN_POINT('',(-17.7,-12.65,70.));
#2110=CARTESIAN_POINT('',(17.3,-12.65,119.95));
#2111=CARTESIAN_POINT('',(17.3,-12.65,119.95));
#2112=CARTESIAN_POINT('',(17.3,-12.65,70.475));
#2113=CARTESIAN_POINT('Origin',(-6.,-9.,64.98));
#2114=CARTESIAN_POINT('',(-6.,9.5,70.));
#2115=CARTESIAN_POINT('',(-6.,9.5,69.95));
#2116=CARTESIAN_POINT('',(-6.,-9.5,70.));
#2117=CARTESIAN_POINT('',(-6.,-4.75,70.));
#2118=CARTESIAN_POINT('',(-6.,-9.5,69.95));
#2119=CARTESIAN_POINT('Origin',(12.,9.5,70.));
#2120=CARTESIAN_POINT('',(-17.7,9.5,70.));
#2121=CARTESIAN_POINT('',(-17.7,9.5,70.));
#2122=CARTESIAN_POINT('',(-20.7,9.5,70.));
#2123=CARTESIAN_POINT('',(-3.85,9.5,70.));
#2124=CARTESIAN_POINT('',(-20.7,9.5,69.95));
#2125=CARTESIAN_POINT('',(-20.7,9.5,73.45));
#2126=CARTESIAN_POINT('',(-16.5,9.5,69.95));
#2127=CARTESIAN_POINT('',(-6.,9.5,69.95));
#2128=CARTESIAN_POINT('',(-16.5,9.5,66.));
#2129=CARTESIAN_POINT('',(-16.5,9.5,66.));
#2130=CARTESIAN_POINT('',(-7.,9.5,66.));
#2131=CARTESIAN_POINT('',(12.,9.5,66.));
#2132=CARTESIAN_POINT('',(-7.,9.5,70.));
#2133=CARTESIAN_POINT('',(-7.,9.5,68.));
#2134=CARTESIAN_POINT('',(-4.1,9.5,70.));
#2135=CARTESIAN_POINT('Origin',(-17.7,-15.55,70.));
#2136=CARTESIAN_POINT('',(-17.7,12.65,119.95));
#2137=CARTESIAN_POINT('',(-17.7,12.65,70.));
#2138=CARTESIAN_POINT('',(-17.7,-15.55,119.95));
#2139=CARTESIAN_POINT('',(-17.7,-9.5,70.));
#2140=CARTESIAN_POINT('',(-17.7,-9.5,70.));
#2141=CARTESIAN_POINT('',(-17.7,-15.55,70.));
#2142=CARTESIAN_POINT('',(-17.7,3.98010209722889E-16,111.2));
#2143=CARTESIAN_POINT('Origin',(-17.7,-2.96514987378188E-140,107.95));
#2144=CARTESIAN_POINT('Origin',(-19.7,0.,119.95));
#2145=CARTESIAN_POINT('',(17.3,-15.55,119.95));
#2146=CARTESIAN_POINT('',(-21.7,-15.55,119.95));
#2147=CARTESIAN_POINT('',(17.3,-15.55,119.95));
#2148=CARTESIAN_POINT('',(17.3,12.65,119.95));
#2149=CARTESIAN_POINT('',(-21.7,12.65,119.95));
#2150=CARTESIAN_POINT('',(17.3,15.55,119.95));
#2151=CARTESIAN_POINT('',(17.3,12.65,119.95));
#2152=CARTESIAN_POINT('',(17.3,15.55,119.95));
#2153=CARTESIAN_POINT('Origin',(-13.85,0.,69.95));
#2154=CARTESIAN_POINT('',(-20.7,-9.5,69.95));
#2155=CARTESIAN_POINT('',(-20.7,5.5,69.95));
#2156=CARTESIAN_POINT('',(-16.5,-9.5,69.95));
#2157=CARTESIAN_POINT('',(-21.7,-9.5,69.95));
#2158=CARTESIAN_POINT('',(-16.5,-9.,69.95));
#2159=CARTESIAN_POINT('',(-16.5,4.75,69.95));
#2160=CARTESIAN_POINT('',(-17.7,-9.,69.95));
#2161=CARTESIAN_POINT('',(-15.775,-9.,69.95));
#2162=CARTESIAN_POINT('',(-17.7,9.,69.95));
#2163=CARTESIAN_POINT('',(-17.7,4.5,69.95));
#2164=CARTESIAN_POINT('',(-16.5,9.,69.95));
#2165=CARTESIAN_POINT('',(-9.925,9.,69.95));
#2166=CARTESIAN_POINT('',(-16.5,4.75,69.95));
#2167=CARTESIAN_POINT('Origin',(-2.2,0.,70.));
#2168=CARTESIAN_POINT('',(-20.7,-9.5,70.));
#2169=CARTESIAN_POINT('',(-20.7,-15.55,70.));
#2170=CARTESIAN_POINT('',(-20.7,-8.25,70.));
#2171=CARTESIAN_POINT('',(-21.7,-15.55,70.));
#2172=CARTESIAN_POINT('',(-20.7,15.55,70.));
#2173=CARTESIAN_POINT('',(17.3,15.55,70.));
#2174=CARTESIAN_POINT('',(-20.7,-8.25,70.));
#2175=CARTESIAN_POINT('',(-15.85,-9.5,70.));
#2176=CARTESIAN_POINT('Origin',(-2.2,0.,70.));
#2177=CARTESIAN_POINT('',(-7.,15.55,70.));
#2178=CARTESIAN_POINT('',(-7.,7.9,70.));
#2179=CARTESIAN_POINT('',(7.,15.55,70.));
#2180=CARTESIAN_POINT('',(17.3,15.55,70.));
#2181=CARTESIAN_POINT('',(7.,9.5,70.));
#2182=CARTESIAN_POINT('',(7.,6.3,70.));
#2183=CARTESIAN_POINT('',(12.,9.5,70.));
#2184=CARTESIAN_POINT('',(6.,9.5,70.));
#2185=CARTESIAN_POINT('',(12.,-9.5,70.));
#2186=CARTESIAN_POINT('',(12.,-4.75,70.));
#2187=CARTESIAN_POINT('',(-6.,-9.5,70.));
#2188=CARTESIAN_POINT('Origin',(-16.5,9.5,66.));
#2189=CARTESIAN_POINT('',(-16.5,9.,66.));
#2190=CARTESIAN_POINT('',(-16.5,9.,65.49));
#2191=CARTESIAN_POINT('',(-16.5,9.5,66.));
#2192=CARTESIAN_POINT('Origin',(-6.,9.,64.98));
#2193=CARTESIAN_POINT('',(-17.7,9.,65.));
#2194=CARTESIAN_POINT('',(-17.7,9.,64.98));
#2195=CARTESIAN_POINT('',(-6.,9.,65.));
#2196=CARTESIAN_POINT('',(-3.,9.,65.));
#2197=CARTESIAN_POINT('',(-6.,9.,66.));
#2198=CARTESIAN_POINT('',(-6.,9.,64.98));
#2199=CARTESIAN_POINT('',(-4.125,9.,66.));
#2200=CARTESIAN_POINT('Origin',(-17.7,9.,64.98));
#2201=CARTESIAN_POINT('',(-17.7,-9.,65.));
#2202=CARTESIAN_POINT('',(-17.7,-9.,64.98));
#2203=CARTESIAN_POINT('',(-17.7,4.5,65.));
#2204=CARTESIAN_POINT('Origin',(-27.7,-2.95448386704165E-140,107.95));
#2205=CARTESIAN_POINT('',(-27.7,-6.12323399573677E-16,112.95));
#2206=CARTESIAN_POINT('',(-27.7,-6.12323399573677E-16,112.95));
#2207=CARTESIAN_POINT('Origin',(-27.7,-2.95448386704165E-140,107.95));
#2208=CARTESIAN_POINT('Origin',(-27.7,-2.95448386704165E-140,107.95));
#2209=CARTESIAN_POINT('',(-27.7,-3.98010209722889E-16,111.2));
#2210=CARTESIAN_POINT('Origin',(-27.7,-2.96514987378188E-140,107.95));
#2211=CARTESIAN_POINT('Origin',(-6.,-9.,64.98));
#2212=CARTESIAN_POINT('',(-6.,-9.,66.));
#2213=CARTESIAN_POINT('',(-6.,-4.5,66.));
#2214=CARTESIAN_POINT('',(-6.,-9.,65.));
#2215=CARTESIAN_POINT('',(-6.,-4.5,65.));
#2216=CARTESIAN_POINT('',(-6.,-9.,64.98));
#2217=CARTESIAN_POINT('Origin',(-17.7,-9.,64.98));
#2218=CARTESIAN_POINT('',(-16.5,-9.,66.));
#2219=CARTESIAN_POINT('',(-16.5,-9.,65.49));
#2220=CARTESIAN_POINT('',(-9.975,-9.,66.));
#2221=CARTESIAN_POINT('',(-8.85,-9.,65.));
#2222=CARTESIAN_POINT('Origin',(-27.8,3.07309421864481E-74,107.95));
#2223=CARTESIAN_POINT('',(-27.8,-3.98010209722889E-16,111.2));
#2224=CARTESIAN_POINT('Origin',(-21.7,12.65,70.));
#2225=CARTESIAN_POINT('',(17.3,12.65,70.475));
#2226=CARTESIAN_POINT('Origin',(17.3,-15.55,70.));
#2227=CARTESIAN_POINT('',(17.3,-15.55,70.));
#2228=CARTESIAN_POINT('',(17.3,-15.55,70.));
#2229=CARTESIAN_POINT('',(17.3,15.55,70.));
#2230=CARTESIAN_POINT('',(17.3,-7.775,70.));
#2231=CARTESIAN_POINT('',(17.3,15.55,70.));
#2232=CARTESIAN_POINT('Origin',(-21.7,-15.55,70.));
#2233=CARTESIAN_POINT('',(-10.85,-15.55,70.));
#2234=CARTESIAN_POINT('Origin',(17.3,15.55,70.));
#2235=CARTESIAN_POINT('',(8.65,15.55,70.));
#2236=CARTESIAN_POINT('',(8.65,15.55,70.));
#2237=CARTESIAN_POINT('Origin',(7.,12.6,70.5));
#2238=CARTESIAN_POINT('',(7.,15.85,70.));
#2239=CARTESIAN_POINT('',(7.,6.3,70.));
#2240=CARTESIAN_POINT('',(7.,15.85,66.));
#2241=CARTESIAN_POINT('',(7.,15.85,66.));
#2242=CARTESIAN_POINT('',(7.,9.5,66.));
#2243=CARTESIAN_POINT('',(7.,9.4,66.));
#2244=CARTESIAN_POINT('',(7.,9.5,68.));
#2245=CARTESIAN_POINT('Origin',(-20.7,11.,76.95));
#2246=CARTESIAN_POINT('',(-20.7,16.5,70.));
#2247=CARTESIAN_POINT('',(-20.7,-8.25,70.));
#2248=CARTESIAN_POINT('',(-20.7,16.5,69.5));
#2249=CARTESIAN_POINT('',(-20.7,16.5,69.5));
#2250=CARTESIAN_POINT('',(-20.7,-16.5,69.5));
#2251=CARTESIAN_POINT('',(-20.7,-16.5,69.5));
#2252=CARTESIAN_POINT('',(-20.7,-16.5,70.));
#2253=CARTESIAN_POINT('',(-20.7,-16.5,69.5));
#2254=CARTESIAN_POINT('',(-20.7,-8.25,70.));
#2255=CARTESIAN_POINT('',(-20.7,-9.5,73.45));
#2256=CARTESIAN_POINT('Origin',(-7.,15.8,70.5));
#2257=CARTESIAN_POINT('',(-7.,15.85,70.));
#2258=CARTESIAN_POINT('',(-7.,7.9,70.));
#2259=CARTESIAN_POINT('',(-7.,15.85,66.));
#2260=CARTESIAN_POINT('',(-7.,15.85,66.));
#2261=CARTESIAN_POINT('',(-7.,15.85,66.));
#2262=CARTESIAN_POINT('Origin',(-24.2,-16.5,69.5));
#2263=CARTESIAN_POINT('',(-22.4382623085101,-16.5,70.));
#2264=CARTESIAN_POINT('',(-12.1,-16.5,70.));
#2265=CARTESIAN_POINT('',(-22.4382623085101,-16.5,69.5));
#2266=CARTESIAN_POINT('',(-24.2,-16.5,69.5));
#2267=CARTESIAN_POINT('',(-22.4382623085101,-16.5,67.));
#2268=CARTESIAN_POINT('Origin',(-20.7,16.5,69.5));
#2269=CARTESIAN_POINT('',(-22.4382623085101,16.5,70.));
#2270=CARTESIAN_POINT('',(-10.35,16.5,70.));
#2271=CARTESIAN_POINT('',(-22.4382623085101,16.5,69.5));
#2272=CARTESIAN_POINT('',(-22.4382623085101,16.5,67.));
#2273=CARTESIAN_POINT('',(-20.7,16.5,69.5));
#2274=CARTESIAN_POINT('Origin',(-24.2,16.5,69.5));
#2275=CARTESIAN_POINT('',(-24.2,15.35,70.));
#2276=CARTESIAN_POINT('',(-24.2,15.35,69.5));
#2277=CARTESIAN_POINT('',(-24.2,15.35,67.));
#2278=CARTESIAN_POINT('',(-24.2,-15.35,70.));
#2279=CARTESIAN_POINT('',(-24.2,8.25,70.));
#2280=CARTESIAN_POINT('',(-24.2,-15.35,69.5));
#2281=CARTESIAN_POINT('',(-24.2,-15.35,67.));
#2282=CARTESIAN_POINT('',(-24.2,16.5,69.5));
#2283=CARTESIAN_POINT('Origin',(-22.45,0.,69.5));
#2284=CARTESIAN_POINT('Origin',(-25.,18.5,69.5));
#2285=CARTESIAN_POINT('Origin',(-25.,-18.5,69.5));
#2286=CARTESIAN_POINT('Origin',(-25.,-18.5,67.));
#2287=CARTESIAN_POINT('',(-28.25,-18.5,67.));
#2288=CARTESIAN_POINT('Origin',(-25.,-18.5,67.));
#2289=CARTESIAN_POINT('',(-28.25,-18.5,70.));
#2290=CARTESIAN_POINT('',(-28.25,-18.5,67.));
#2291=CARTESIAN_POINT('Origin',(-25.,-18.5,70.));
#2292=CARTESIAN_POINT('Origin',(-25.,-18.5,70.));
#2293=CARTESIAN_POINT('Origin',(7.,15.85,66.));
#2294=CARTESIAN_POINT('',(3.5,15.85,70.));
#2295=CARTESIAN_POINT('',(7.,15.85,66.));
#2296=CARTESIAN_POINT('Origin',(-2.25,0.,66.));
#2297=CARTESIAN_POINT('',(-16.5,-9.5,66.));
#2298=CARTESIAN_POINT('',(-16.5,9.5,66.));
#2299=CARTESIAN_POINT('',(12.,-9.5,66.));
#2300=CARTESIAN_POINT('',(-16.5,-9.5,66.));
#2301=CARTESIAN_POINT('',(12.,9.5,66.));
#2302=CARTESIAN_POINT('',(12.,-9.5,66.));
#2303=CARTESIAN_POINT('',(12.,9.5,66.));
#2304=CARTESIAN_POINT('Origin',(-16.5,9.5,66.));
#2305=CARTESIAN_POINT('',(-16.5,-9.5,66.));
#2306=CARTESIAN_POINT('Origin',(25.,18.5,67.));
#2307=CARTESIAN_POINT('',(21.75,18.5,67.));
#2308=CARTESIAN_POINT('Origin',(25.,18.5,67.));
#2309=CARTESIAN_POINT('',(21.75,18.5,70.));
#2310=CARTESIAN_POINT('',(21.75,18.5,67.));
#2311=CARTESIAN_POINT('Origin',(25.,18.5,70.));
#2312=CARTESIAN_POINT('Origin',(25.,18.5,67.));
#2313=CARTESIAN_POINT('',(23.2,18.5,67.));
#2314=CARTESIAN_POINT('Origin',(25.,18.5,67.));
#2315=CARTESIAN_POINT('Origin',(-25.,18.5,67.));
#2316=CARTESIAN_POINT('',(-28.25,18.5,67.));
#2317=CARTESIAN_POINT('Origin',(-25.,18.5,67.));
#2318=CARTESIAN_POINT('',(-28.25,18.5,70.));
#2319=CARTESIAN_POINT('',(-28.25,18.5,67.));
#2320=CARTESIAN_POINT('Origin',(-25.,18.5,70.));
#2321=CARTESIAN_POINT('Origin',(-25.,18.5,70.));
#2322=CARTESIAN_POINT('Origin',(-25.,18.5,67.));
#2323=CARTESIAN_POINT('',(-26.8,18.5,67.));
#2324=CARTESIAN_POINT('Origin',(-25.,18.5,67.));
#2325=CARTESIAN_POINT('Origin',(-25.,-18.5,67.));
#2326=CARTESIAN_POINT('',(-26.8,-18.5,67.));
#2327=CARTESIAN_POINT('Origin',(-25.,-18.5,67.));
#2328=CARTESIAN_POINT('Origin',(25.,-18.5,67.));
#2329=CARTESIAN_POINT('',(21.75,-18.5,67.));
#2330=CARTESIAN_POINT('Origin',(25.,-18.5,67.));
#2331=CARTESIAN_POINT('',(21.75,-18.5,70.));
#2332=CARTESIAN_POINT('',(21.75,-18.5,67.));
#2333=CARTESIAN_POINT('Origin',(25.,-18.5,70.));
#2334=CARTESIAN_POINT('Origin',(25.,-18.5,67.));
#2335=CARTESIAN_POINT('',(23.2,-18.5,67.));
#2336=CARTESIAN_POINT('Origin',(25.,-18.5,67.));
#2337=CARTESIAN_POINT('Origin',(25.,18.5,64.9));
#2338=CARTESIAN_POINT('',(23.2,18.5,65.));
#2339=CARTESIAN_POINT('Origin',(25.,18.5,65.));
#2340=CARTESIAN_POINT('',(23.2,18.5,64.9));
#2341=CARTESIAN_POINT('Origin',(-25.,18.5,64.9));
#2342=CARTESIAN_POINT('',(-26.8,18.5,65.));
#2343=CARTESIAN_POINT('Origin',(-25.,18.5,65.));
#2344=CARTESIAN_POINT('',(-26.8,18.5,64.9));
#2345=CARTESIAN_POINT('Origin',(-25.,-18.5,64.9));
#2346=CARTESIAN_POINT('',(-26.8,-18.5,65.));
#2347=CARTESIAN_POINT('Origin',(-25.,-18.5,65.));
#2348=CARTESIAN_POINT('',(-26.8,-18.5,64.9));
#2349=CARTESIAN_POINT('Origin',(25.,-18.5,64.9));
#2350=CARTESIAN_POINT('',(23.2,-18.5,65.));
#2351=CARTESIAN_POINT('Origin',(25.,-18.5,65.));
#2352=CARTESIAN_POINT('',(23.2,-18.5,64.9));
#2353=CARTESIAN_POINT('Origin',(-12.,-9.5,70.));
#2354=CARTESIAN_POINT('',(12.,-9.5,66.));
#2355=CARTESIAN_POINT('Origin',(12.,9.5,70.));
#2356=CARTESIAN_POINT('',(12.,9.5,66.));
#2357=CARTESIAN_POINT('Origin',(12.,-9.5,70.));
#2358=CARTESIAN_POINT('Origin',(30.,23.,65.));
#2359=CARTESIAN_POINT('',(30.,23.,65.));
#2360=CARTESIAN_POINT('',(-30.,23.,65.));
#2361=CARTESIAN_POINT('',(30.,23.,65.));
#2362=CARTESIAN_POINT('',(-30.,23.,70.));
#2363=CARTESIAN_POINT('',(-30.,23.,65.));
#2364=CARTESIAN_POINT('',(30.,23.,70.));
#2365=CARTESIAN_POINT('',(30.,23.,70.));
#2366=CARTESIAN_POINT('',(30.,23.,65.));
#2367=CARTESIAN_POINT('Origin',(30.,-23.,65.));
#2368=CARTESIAN_POINT('',(30.,-23.,65.));
#2369=CARTESIAN_POINT('',(30.,-23.,65.));
#2370=CARTESIAN_POINT('',(30.,-23.,70.));
#2371=CARTESIAN_POINT('',(30.,-23.,70.));
#2372=CARTESIAN_POINT('',(30.,-23.,65.));
#2373=CARTESIAN_POINT('Origin',(-30.,-23.,65.));
#2374=CARTESIAN_POINT('',(-30.,-23.,65.));
#2375=CARTESIAN_POINT('',(-30.,-23.,65.));
#2376=CARTESIAN_POINT('',(-30.,-23.,70.));
#2377=CARTESIAN_POINT('',(-30.,-23.,70.));
#2378=CARTESIAN_POINT('',(-30.,-23.,65.));
#2379=CARTESIAN_POINT('Origin',(-30.,23.,65.));
#2380=CARTESIAN_POINT('',(-30.,23.,65.));
#2381=CARTESIAN_POINT('',(-30.,23.,70.));
#2382=CARTESIAN_POINT('Origin',(0.,0.,70.));
#2383=CARTESIAN_POINT('Origin',(0.,0.,65.));
#2384=UNCERTAINTY_MEASURE_WITH_UNIT(LENGTH_MEASURE(0.01),#2388,
'DISTANCE_ACCURACY_VALUE',
'Maximum model space distance between geometric entities at asserted c
onnectivities');
#2385=UNCERTAINTY_MEASURE_WITH_UNIT(LENGTH_MEASURE(0.01),#2388,
'DISTANCE_ACCURACY_VALUE',
'Maximum model space distance between geometric entities at asserted c
onnectivities');
#2386=(
GEOMETRIC_REPRESENTATION_CONTEXT(3)
GLOBAL_UNCERTAINTY_ASSIGNED_CONTEXT((#2384))
GLOBAL_UNIT_ASSIGNED_CONTEXT((#2388,#2390,#2391))
REPRESENTATION_CONTEXT('','3D')
);
#2387=(
GEOMETRIC_REPRESENTATION_CONTEXT(3)
GLOBAL_UNCERTAINTY_ASSIGNED_CONTEXT((#2385))
GLOBAL_UNIT_ASSIGNED_CONTEXT((#2388,#2390,#2391))
REPRESENTATION_CONTEXT('','3D')
);
#2388=(
LENGTH_UNIT()
NAMED_UNIT(*)
SI_UNIT(.MILLI.,.METRE.)
);
#2389=(
LENGTH_UNIT()
NAMED_UNIT(*)
SI_UNIT($,.METRE.)
);
#2390=(
NAMED_UNIT(*)
PLANE_ANGLE_UNIT()
SI_UNIT($,.RADIAN.)
);
#2391=(
NAMED_UNIT(*)
SI_UNIT($,.STERADIAN.)
SOLID_ANGLE_UNIT()
);
#2392=SHAPE_DEFINITION_REPRESENTATION(#2393,#2394);
#2393=PRODUCT_DEFINITION_SHAPE('',$,#2396);
#2394=SHAPE_REPRESENTATION('',(#1474),#2386);
#2395=PRODUCT_DEFINITION_CONTEXT('part definition',#2400,'design');
#2396=PRODUCT_DEFINITION('2026-07-31-17-00-13-536','J2_Bracket',#2397,#2395);
#2397=PRODUCT_DEFINITION_FORMATION('',$,#2402);
#2398=PRODUCT_RELATED_PRODUCT_CATEGORY('J2_Bracket','J2_Bracket',(#2402));
#2399=APPLICATION_PROTOCOL_DEFINITION('international standard',
'automotive_design',2009,#2400);
#2400=APPLICATION_CONTEXT(
'Core Data for Automotive Mechanical Design Process');
#2401=PRODUCT_CONTEXT('part definition',#2400,'mechanical');
#2402=PRODUCT('2026-07-31-17-00-13-536','J2_Bracket',$,(#2401));
#2403=PRESENTATION_STYLE_ASSIGNMENT((#2404));
#2404=SURFACE_STYLE_USAGE(.BOTH.,#2405);
#2405=SURFACE_SIDE_STYLE('',(#2406));
#2406=SURFACE_STYLE_FILL_AREA(#2407);
#2407=FILL_AREA_STYLE('\X2\92FC\X0\ - \X2\30B530C630F3\X0\',(#2408));
#2408=FILL_AREA_STYLE_COLOUR('\X2\92FC\X0\ - \X2\30B530C630F3\X0\',#2409);
#2409=COLOUR_RGB('\X2\92FC\X0\ - \X2\30B530C630F3\X0\',0.627450980392157,
0.627450980392157,0.627450980392157);
ENDSEC;
END-ISO-10303-21;
