ISO-10303-21;
HEADER;
/* Generated by software containing ST-Developer
 * from STEP Tools, Inc. (www.steptools.com) 
 */

FILE_DESCRIPTION(
/* description */ (''),
/* implementation_level */ '2;1');

FILE_NAME(
/* name */ 'J2_Bracket_v3.step',
/* time_stamp */ '2026-07-28T19:33:54+09:00',
/* author */ (''),
/* organization */ (''),
/* preprocessor_version */ 'ST-DEVELOPER v20.1',
/* originating_system */ 'Autodesk Translation Framework v15.8.0.0',
/* authorisation */ '');

FILE_SCHEMA (('AUTOMOTIVE_DESIGN { 1 0 10303 214 3 1 1 }'));
ENDSEC;

DATA;
#10=MECHANICAL_DESIGN_GEOMETRIC_PRESENTATION_REPRESENTATION('',(#13),#2109);
#11=SHAPE_REPRESENTATION_RELATIONSHIP('SRR','None',#2116,#12);
#12=ADVANCED_BREP_SHAPE_REPRESENTATION('',(#14),#2108);
#13=STYLED_ITEM('',(#2125),#14);
#14=MANIFOLD_SOLID_BREP('J2_Bracket_v3',#1309);
#15=CIRCLE('',#1348,3.25);
#16=CIRCLE('',#1349,3.25);
#17=CIRCLE('',#1351,1.8);
#18=CIRCLE('',#1353,3.25);
#19=CIRCLE('',#1355,3.25);
#20=CIRCLE('',#1356,3.25);
#21=CIRCLE('',#1357,3.25);
#22=CIRCLE('',#1359,1.8);
#23=CIRCLE('',#1361,3.25);
#24=CIRCLE('',#1362,3.25);
#25=CIRCLE('',#1363,3.25);
#26=CIRCLE('',#1364,3.25);
#27=CIRCLE('',#1367,1.8);
#28=CIRCLE('',#1369,3.25);
#29=CIRCLE('',#1370,3.25);
#30=CIRCLE('',#1372,1.8);
#31=CIRCLE('',#1376,1.8);
#32=CIRCLE('',#1378,1.8);
#33=CIRCLE('',#1380,1.8);
#34=CIRCLE('',#1382,1.8);
#35=CYLINDRICAL_SURFACE('',#1347,3.25);
#36=CYLINDRICAL_SURFACE('',#1354,3.25);
#37=CYLINDRICAL_SURFACE('',#1360,3.25);
#38=CYLINDRICAL_SURFACE('',#1368,3.25);
#39=CYLINDRICAL_SURFACE('',#1375,1.8);
#40=CYLINDRICAL_SURFACE('',#1377,1.8);
#41=CYLINDRICAL_SURFACE('',#1379,1.8);
#42=CYLINDRICAL_SURFACE('',#1381,1.8);
#43=FACE_BOUND('',#130,.T.);
#44=FACE_BOUND('',#136,.T.);
#45=FACE_BOUND('',#153,.T.);
#46=FACE_BOUND('',#157,.T.);
#47=FACE_BOUND('',#161,.T.);
#48=FACE_BOUND('',#164,.T.);
#49=FACE_BOUND('',#166,.T.);
#50=FACE_BOUND('',#167,.T.);
#51=FACE_BOUND('',#190,.T.);
#52=FACE_BOUND('',#191,.T.);
#53=FACE_BOUND('',#199,.T.);
#54=FACE_BOUND('',#200,.T.);
#55=FACE_BOUND('',#201,.T.);
#56=FACE_BOUND('',#203,.T.);
#57=FACE_BOUND('',#204,.T.);
#58=FACE_BOUND('',#205,.T.);
#59=FACE_BOUND('',#206,.T.);
#60=FACE_OUTER_BOUND('',#125,.T.);
#61=FACE_OUTER_BOUND('',#126,.T.);
#62=FACE_OUTER_BOUND('',#127,.T.);
#63=FACE_OUTER_BOUND('',#128,.T.);
#64=FACE_OUTER_BOUND('',#129,.T.);
#65=FACE_OUTER_BOUND('',#131,.T.);
#66=FACE_OUTER_BOUND('',#132,.T.);
#67=FACE_OUTER_BOUND('',#133,.T.);
#68=FACE_OUTER_BOUND('',#134,.T.);
#69=FACE_OUTER_BOUND('',#135,.T.);
#70=FACE_OUTER_BOUND('',#137,.T.);
#71=FACE_OUTER_BOUND('',#138,.T.);
#72=FACE_OUTER_BOUND('',#139,.T.);
#73=FACE_OUTER_BOUND('',#140,.T.);
#74=FACE_OUTER_BOUND('',#141,.T.);
#75=FACE_OUTER_BOUND('',#142,.T.);
#76=FACE_OUTER_BOUND('',#143,.T.);
#77=FACE_OUTER_BOUND('',#144,.T.);
#78=FACE_OUTER_BOUND('',#145,.T.);
#79=FACE_OUTER_BOUND('',#146,.T.);
#80=FACE_OUTER_BOUND('',#147,.T.);
#81=FACE_OUTER_BOUND('',#148,.T.);
#82=FACE_OUTER_BOUND('',#149,.T.);
#83=FACE_OUTER_BOUND('',#150,.T.);
#84=FACE_OUTER_BOUND('',#151,.T.);
#85=FACE_OUTER_BOUND('',#152,.T.);
#86=FACE_OUTER_BOUND('',#154,.T.);
#87=FACE_OUTER_BOUND('',#155,.T.);
#88=FACE_OUTER_BOUND('',#156,.T.);
#89=FACE_OUTER_BOUND('',#158,.T.);
#90=FACE_OUTER_BOUND('',#159,.T.);
#91=FACE_OUTER_BOUND('',#160,.T.);
#92=FACE_OUTER_BOUND('',#162,.T.);
#93=FACE_OUTER_BOUND('',#163,.T.);
#94=FACE_OUTER_BOUND('',#165,.T.);
#95=FACE_OUTER_BOUND('',#168,.T.);
#96=FACE_OUTER_BOUND('',#169,.T.);
#97=FACE_OUTER_BOUND('',#170,.T.);
#98=FACE_OUTER_BOUND('',#171,.T.);
#99=FACE_OUTER_BOUND('',#172,.T.);
#100=FACE_OUTER_BOUND('',#173,.T.);
#101=FACE_OUTER_BOUND('',#174,.T.);
#102=FACE_OUTER_BOUND('',#175,.T.);
#103=FACE_OUTER_BOUND('',#176,.T.);
#104=FACE_OUTER_BOUND('',#177,.T.);
#105=FACE_OUTER_BOUND('',#178,.T.);
#106=FACE_OUTER_BOUND('',#179,.T.);
#107=FACE_OUTER_BOUND('',#180,.T.);
#108=FACE_OUTER_BOUND('',#181,.T.);
#109=FACE_OUTER_BOUND('',#182,.T.);
#110=FACE_OUTER_BOUND('',#183,.T.);
#111=FACE_OUTER_BOUND('',#184,.T.);
#112=FACE_OUTER_BOUND('',#185,.T.);
#113=FACE_OUTER_BOUND('',#186,.T.);
#114=FACE_OUTER_BOUND('',#187,.T.);
#115=FACE_OUTER_BOUND('',#188,.T.);
#116=FACE_OUTER_BOUND('',#189,.T.);
#117=FACE_OUTER_BOUND('',#192,.T.);
#118=FACE_OUTER_BOUND('',#193,.T.);
#119=FACE_OUTER_BOUND('',#194,.T.);
#120=FACE_OUTER_BOUND('',#195,.T.);
#121=FACE_OUTER_BOUND('',#196,.T.);
#122=FACE_OUTER_BOUND('',#197,.T.);
#123=FACE_OUTER_BOUND('',#198,.T.);
#124=FACE_OUTER_BOUND('',#202,.T.);
#125=EDGE_LOOP('',(#827,#828,#829,#830));
#126=EDGE_LOOP('',(#831,#832,#833,#834));
#127=EDGE_LOOP('',(#835,#836,#837,#838));
#128=EDGE_LOOP('',(#839,#840,#841,#842));
#129=EDGE_LOOP('',(#843,#844,#845,#846));
#130=EDGE_LOOP('',(#847,#848,#849,#850));
#131=EDGE_LOOP('',(#851,#852,#853,#854));
#132=EDGE_LOOP('',(#855,#856,#857,#858));
#133=EDGE_LOOP('',(#859,#860,#861,#862));
#134=EDGE_LOOP('',(#863,#864,#865,#866));
#135=EDGE_LOOP('',(#867,#868,#869,#870));
#136=EDGE_LOOP('',(#871,#872,#873,#874));
#137=EDGE_LOOP('',(#875,#876,#877,#878));
#138=EDGE_LOOP('',(#879,#880,#881,#882));
#139=EDGE_LOOP('',(#883,#884,#885,#886));
#140=EDGE_LOOP('',(#887,#888,#889,#890));
#141=EDGE_LOOP('',(#891,#892,#893,#894));
#142=EDGE_LOOP('',(#895,#896,#897,#898));
#143=EDGE_LOOP('',(#899,#900,#901,#902));
#144=EDGE_LOOP('',(#903,#904,#905,#906));
#145=EDGE_LOOP('',(#907,#908,#909,#910));
#146=EDGE_LOOP('',(#911,#912,#913,#914,#915,#916,#917,#918));
#147=EDGE_LOOP('',(#919,#920,#921,#922));
#148=EDGE_LOOP('',(#923,#924,#925,#926,#927,#928,#929,#930,#931,#932,#933,
#934,#935,#936));
#149=EDGE_LOOP('',(#937,#938,#939,#940));
#150=EDGE_LOOP('',(#941,#942,#943,#944,#945,#946,#947,#948,#949,#950,#951,
#952));
#151=EDGE_LOOP('',(#953,#954,#955,#956));
#152=EDGE_LOOP('',(#957));
#153=EDGE_LOOP('',(#958));
#154=EDGE_LOOP('',(#959,#960,#961));
#155=EDGE_LOOP('',(#962,#963,#964,#965,#966,#967,#968,#969));
#156=EDGE_LOOP('',(#970));
#157=EDGE_LOOP('',(#971));
#158=EDGE_LOOP('',(#972,#973,#974,#975,#976,#977,#978,#979));
#159=EDGE_LOOP('',(#980,#981,#982));
#160=EDGE_LOOP('',(#983));
#161=EDGE_LOOP('',(#984));
#162=EDGE_LOOP('',(#985,#986,#987,#988));
#163=EDGE_LOOP('',(#989));
#164=EDGE_LOOP('',(#990));
#165=EDGE_LOOP('',(#991,#992,#993,#994,#995,#996,#997,#998));
#166=EDGE_LOOP('',(#999,#1000,#1001,#1002));
#167=EDGE_LOOP('',(#1003,#1004,#1005,#1006));
#168=EDGE_LOOP('',(#1007,#1008,#1009,#1010,#1011,#1012,#1013,#1014,#1015,
#1016));
#169=EDGE_LOOP('',(#1017,#1018,#1019,#1020));
#170=EDGE_LOOP('',(#1021,#1022,#1023,#1024));
#171=EDGE_LOOP('',(#1025,#1026,#1027,#1028));
#172=EDGE_LOOP('',(#1029,#1030,#1031,#1032));
#173=EDGE_LOOP('',(#1033,#1034,#1035,#1036,#1037,#1038,#1039,#1040));
#174=EDGE_LOOP('',(#1041,#1042,#1043,#1044,#1045,#1046,#1047,#1048));
#175=EDGE_LOOP('',(#1049,#1050,#1051,#1052));
#176=EDGE_LOOP('',(#1053,#1054,#1055,#1056));
#177=EDGE_LOOP('',(#1057,#1058,#1059,#1060));
#178=EDGE_LOOP('',(#1061,#1062,#1063,#1064));
#179=EDGE_LOOP('',(#1065,#1066,#1067,#1068));
#180=EDGE_LOOP('',(#1069,#1070,#1071,#1072));
#181=EDGE_LOOP('',(#1073,#1074,#1075,#1076));
#182=EDGE_LOOP('',(#1077,#1078,#1079,#1080,#1081,#1082,#1083,#1084));
#183=EDGE_LOOP('',(#1085,#1086,#1087,#1088));
#184=EDGE_LOOP('',(#1089,#1090,#1091,#1092));
#185=EDGE_LOOP('',(#1093,#1094,#1095,#1096));
#186=EDGE_LOOP('',(#1097,#1098,#1099,#1100));
#187=EDGE_LOOP('',(#1101,#1102,#1103,#1104,#1105,#1106,#1107,#1108,#1109,
#1110,#1111,#1112));
#188=EDGE_LOOP('',(#1113,#1114,#1115,#1116,#1117,#1118,#1119,#1120));
#189=EDGE_LOOP('',(#1121,#1122,#1123,#1124));
#190=EDGE_LOOP('',(#1125,#1126,#1127,#1128));
#191=EDGE_LOOP('',(#1129,#1130,#1131,#1132));
#192=EDGE_LOOP('',(#1133,#1134,#1135,#1136));
#193=EDGE_LOOP('',(#1137,#1138,#1139,#1140,#1141,#1142,#1143,#1144));
#194=EDGE_LOOP('',(#1145,#1146,#1147,#1148));
#195=EDGE_LOOP('',(#1149,#1150,#1151,#1152));
#196=EDGE_LOOP('',(#1153,#1154,#1155,#1156));
#197=EDGE_LOOP('',(#1157,#1158,#1159,#1160));
#198=EDGE_LOOP('',(#1161,#1162,#1163,#1164));
#199=EDGE_LOOP('',(#1165,#1166,#1167,#1168,#1169,#1170,#1171,#1172,#1173,
#1174,#1175,#1176));
#200=EDGE_LOOP('',(#1177));
#201=EDGE_LOOP('',(#1178));
#202=EDGE_LOOP('',(#1179,#1180,#1181,#1182));
#203=EDGE_LOOP('',(#1183));
#204=EDGE_LOOP('',(#1184));
#205=EDGE_LOOP('',(#1185));
#206=EDGE_LOOP('',(#1186));
#207=LINE('',#1744,#367);
#208=LINE('',#1746,#368);
#209=LINE('',#1748,#369);
#210=LINE('',#1749,#370);
#211=LINE('',#1752,#371);
#212=LINE('',#1754,#372);
#213=LINE('',#1755,#373);
#214=LINE('',#1758,#374);
#215=LINE('',#1760,#375);
#216=LINE('',#1761,#376);
#217=LINE('',#1763,#377);
#218=LINE('',#1764,#378);
#219=LINE('',#1768,#379);
#220=LINE('',#1770,#380);
#221=LINE('',#1772,#381);
#222=LINE('',#1773,#382);
#223=LINE('',#1777,#383);
#224=LINE('',#1779,#384);
#225=LINE('',#1781,#385);
#226=LINE('',#1782,#386);
#227=LINE('',#1785,#387);
#228=LINE('',#1787,#388);
#229=LINE('',#1788,#389);
#230=LINE('',#1791,#390);
#231=LINE('',#1793,#391);
#232=LINE('',#1794,#392);
#233=LINE('',#1796,#393);
#234=LINE('',#1797,#394);
#235=LINE('',#1801,#395);
#236=LINE('',#1803,#396);
#237=LINE('',#1805,#397);
#238=LINE('',#1806,#398);
#239=LINE('',#1809,#399);
#240=LINE('',#1811,#400);
#241=LINE('',#1812,#401);
#242=LINE('',#1815,#402);
#243=LINE('',#1816,#403);
#244=LINE('',#1819,#404);
#245=LINE('',#1821,#405);
#246=LINE('',#1822,#406);
#247=LINE('',#1825,#407);
#248=LINE('',#1826,#408);
#249=LINE('',#1829,#409);
#250=LINE('',#1830,#410);
#251=LINE('',#1832,#411);
#252=LINE('',#1835,#412);
#253=LINE('',#1836,#413);
#254=LINE('',#1838,#414);
#255=LINE('',#1842,#415);
#256=LINE('',#1844,#416);
#257=LINE('',#1846,#417);
#258=LINE('',#1847,#418);
#259=LINE('',#1851,#419);
#260=LINE('',#1853,#420);
#261=LINE('',#1855,#421);
#262=LINE('',#1857,#422);
#263=LINE('',#1859,#423);
#264=LINE('',#1860,#424);
#265=LINE('',#1861,#425);
#266=LINE('',#1864,#426);
#267=LINE('',#1866,#427);
#268=LINE('',#1867,#428);
#269=LINE('',#1871,#429);
#270=LINE('',#1873,#430);
#271=LINE('',#1875,#431);
#272=LINE('',#1877,#432);
#273=LINE('',#1879,#433);
#274=LINE('',#1881,#434);
#275=LINE('',#1883,#435);
#276=LINE('',#1885,#436);
#277=LINE('',#1887,#437);
#278=LINE('',#1889,#438);
#279=LINE('',#1891,#439);
#280=LINE('',#1893,#440);
#281=LINE('',#1895,#441);
#282=LINE('',#1896,#442);
#283=LINE('',#1899,#443);
#284=LINE('',#1900,#444);
#285=LINE('',#1904,#445);
#286=LINE('',#1906,#446);
#287=LINE('',#1908,#447);
#288=LINE('',#1909,#448);
#289=LINE('',#1911,#449);
#290=LINE('',#1913,#450);
#291=LINE('',#1915,#451);
#292=LINE('',#1917,#452);
#293=LINE('',#1919,#453);
#294=LINE('',#1920,#454);
#295=LINE('',#1925,#455);
#296=LINE('',#1933,#456);
#297=LINE('',#1938,#457);
#298=LINE('',#1941,#458);
#299=LINE('',#1950,#459);
#300=LINE('',#1954,#460);
#301=LINE('',#1958,#461);
#302=LINE('',#1962,#462);
#303=LINE('',#1963,#463);
#304=LINE('',#1971,#464);
#305=LINE('',#1977,#465);
#306=LINE('',#1979,#466);
#307=LINE('',#1980,#467);
#308=LINE('',#1983,#468);
#309=LINE('',#1985,#469);
#310=LINE('',#1987,#470);
#311=LINE('',#1989,#471);
#312=LINE('',#1991,#472);
#313=LINE('',#1993,#473);
#314=LINE('',#1994,#474);
#315=LINE('',#1998,#475);
#316=LINE('',#2002,#476);
#317=LINE('',#2006,#477);
#318=LINE('',#2010,#478);
#319=LINE('',#2012,#479);
#320=LINE('',#2014,#480);
#321=LINE('',#2015,#481);
#322=LINE('',#2018,#482);
#323=LINE('',#2019,#483);
#324=LINE('',#2020,#484);
#325=LINE('',#2021,#485);
#326=LINE('',#2023,#486);
#327=LINE('',#2025,#487);
#328=LINE('',#2027,#488);
#329=LINE('',#2031,#489);
#330=LINE('',#2033,#490);
#331=LINE('',#2034,#491);
#332=LINE('',#2037,#492);
#333=LINE('',#2039,#493);
#334=LINE('',#2040,#494);
#335=LINE('',#2042,#495);
#336=LINE('',#2045,#496);
#337=LINE('',#2047,#497);
#338=LINE('',#2049,#498);
#339=LINE('',#2050,#499);
#340=LINE('',#2053,#500);
#341=LINE('',#2055,#501);
#342=LINE('',#2056,#502);
#343=LINE('',#2059,#503);
#344=LINE('',#2060,#504);
#345=LINE('',#2062,#505);
#346=LINE('',#2065,#506);
#347=LINE('',#2066,#507);
#348=LINE('',#2068,#508);
#349=LINE('',#2069,#509);
#350=LINE('',#2071,#510);
#351=LINE('',#2073,#511);
#352=LINE('',#2074,#512);
#353=LINE('',#2077,#513);
#354=LINE('',#2079,#514);
#355=LINE('',#2083,#515);
#356=LINE('',#2085,#516);
#357=LINE('',#2087,#517);
#358=LINE('',#2088,#518);
#359=LINE('',#2091,#519);
#360=LINE('',#2093,#520);
#361=LINE('',#2094,#521);
#362=LINE('',#2097,#522);
#363=LINE('',#2099,#523);
#364=LINE('',#2100,#524);
#365=LINE('',#2102,#525);
#366=LINE('',#2103,#526);
#367=VECTOR('',#1412,10.);
#368=VECTOR('',#1413,10.);
#369=VECTOR('',#1414,10.);
#370=VECTOR('',#1415,10.);
#371=VECTOR('',#1418,10.);
#372=VECTOR('',#1419,10.);
#373=VECTOR('',#1420,10.);
#374=VECTOR('',#1423,10.);
#375=VECTOR('',#1424,10.);
#376=VECTOR('',#1425,10.);
#377=VECTOR('',#1428,10.);
#378=VECTOR('',#1429,10.);
#379=VECTOR('',#1432,10.);
#380=VECTOR('',#1433,10.);
#381=VECTOR('',#1434,10.);
#382=VECTOR('',#1435,10.);
#383=VECTOR('',#1438,10.);
#384=VECTOR('',#1439,10.);
#385=VECTOR('',#1440,10.);
#386=VECTOR('',#1441,10.);
#387=VECTOR('',#1444,10.);
#388=VECTOR('',#1445,10.);
#389=VECTOR('',#1446,10.);
#390=VECTOR('',#1449,10.);
#391=VECTOR('',#1450,10.);
#392=VECTOR('',#1451,10.);
#393=VECTOR('',#1454,10.);
#394=VECTOR('',#1455,10.);
#395=VECTOR('',#1458,10.);
#396=VECTOR('',#1459,10.);
#397=VECTOR('',#1460,10.);
#398=VECTOR('',#1461,10.);
#399=VECTOR('',#1464,10.);
#400=VECTOR('',#1465,10.);
#401=VECTOR('',#1466,10.);
#402=VECTOR('',#1469,10.);
#403=VECTOR('',#1470,10.);
#404=VECTOR('',#1473,10.);
#405=VECTOR('',#1474,10.);
#406=VECTOR('',#1475,10.);
#407=VECTOR('',#1478,10.);
#408=VECTOR('',#1479,10.);
#409=VECTOR('',#1482,10.);
#410=VECTOR('',#1483,10.);
#411=VECTOR('',#1486,10.);
#412=VECTOR('',#1489,10.);
#413=VECTOR('',#1490,10.);
#414=VECTOR('',#1493,10.);
#415=VECTOR('',#1496,10.);
#416=VECTOR('',#1497,10.);
#417=VECTOR('',#1498,10.);
#418=VECTOR('',#1499,10.);
#419=VECTOR('',#1502,10.);
#420=VECTOR('',#1503,10.);
#421=VECTOR('',#1504,10.);
#422=VECTOR('',#1505,10.);
#423=VECTOR('',#1506,10.);
#424=VECTOR('',#1507,10.);
#425=VECTOR('',#1508,10.);
#426=VECTOR('',#1511,10.);
#427=VECTOR('',#1512,10.);
#428=VECTOR('',#1513,10.);
#429=VECTOR('',#1516,10.);
#430=VECTOR('',#1517,10.);
#431=VECTOR('',#1518,10.);
#432=VECTOR('',#1519,10.);
#433=VECTOR('',#1520,10.);
#434=VECTOR('',#1521,10.);
#435=VECTOR('',#1522,10.);
#436=VECTOR('',#1523,10.);
#437=VECTOR('',#1524,10.);
#438=VECTOR('',#1525,10.);
#439=VECTOR('',#1526,10.);
#440=VECTOR('',#1527,10.);
#441=VECTOR('',#1528,10.);
#442=VECTOR('',#1529,10.);
#443=VECTOR('',#1532,10.);
#444=VECTOR('',#1533,10.);
#445=VECTOR('',#1536,10.);
#446=VECTOR('',#1537,10.);
#447=VECTOR('',#1538,10.);
#448=VECTOR('',#1539,10.);
#449=VECTOR('',#1540,10.);
#450=VECTOR('',#1541,10.);
#451=VECTOR('',#1542,10.);
#452=VECTOR('',#1543,10.);
#453=VECTOR('',#1544,10.);
#454=VECTOR('',#1545,10.);
#455=VECTOR('',#1550,3.25);
#456=VECTOR('',#1561,10.);
#457=VECTOR('',#1566,3.25);
#458=VECTOR('',#1569,10.);
#459=VECTOR('',#1580,3.25);
#460=VECTOR('',#1583,10.);
#461=VECTOR('',#1586,10.);
#462=VECTOR('',#1591,10.);
#463=VECTOR('',#1592,10.);
#464=VECTOR('',#1601,3.25);
#465=VECTOR('',#1610,10.);
#466=VECTOR('',#1611,10.);
#467=VECTOR('',#1612,10.);
#468=VECTOR('',#1615,10.);
#469=VECTOR('',#1616,10.);
#470=VECTOR('',#1617,10.);
#471=VECTOR('',#1618,10.);
#472=VECTOR('',#1619,10.);
#473=VECTOR('',#1620,10.);
#474=VECTOR('',#1621,10.);
#475=VECTOR('',#1626,1.8);
#476=VECTOR('',#1631,1.8);
#477=VECTOR('',#1636,1.8);
#478=VECTOR('',#1641,1.8);
#479=VECTOR('',#1644,10.);
#480=VECTOR('',#1645,10.);
#481=VECTOR('',#1646,10.);
#482=VECTOR('',#1649,10.);
#483=VECTOR('',#1650,10.);
#484=VECTOR('',#1651,10.);
#485=VECTOR('',#1652,10.);
#486=VECTOR('',#1655,10.);
#487=VECTOR('',#1658,10.);
#488=VECTOR('',#1661,10.);
#489=VECTOR('',#1666,10.);
#490=VECTOR('',#1667,10.);
#491=VECTOR('',#1668,10.);
#492=VECTOR('',#1671,10.);
#493=VECTOR('',#1672,10.);
#494=VECTOR('',#1673,10.);
#495=VECTOR('',#1676,10.);
#496=VECTOR('',#1679,10.);
#497=VECTOR('',#1680,10.);
#498=VECTOR('',#1681,10.);
#499=VECTOR('',#1682,10.);
#500=VECTOR('',#1685,10.);
#501=VECTOR('',#1686,10.);
#502=VECTOR('',#1687,10.);
#503=VECTOR('',#1690,10.);
#504=VECTOR('',#1691,10.);
#505=VECTOR('',#1694,10.);
#506=VECTOR('',#1697,10.);
#507=VECTOR('',#1698,10.);
#508=VECTOR('',#1701,10.);
#509=VECTOR('',#1702,10.);
#510=VECTOR('',#1705,10.);
#511=VECTOR('',#1706,10.);
#512=VECTOR('',#1707,10.);
#513=VECTOR('',#1712,10.);
#514=VECTOR('',#1715,10.);
#515=VECTOR('',#1718,10.);
#516=VECTOR('',#1719,10.);
#517=VECTOR('',#1720,10.);
#518=VECTOR('',#1721,10.);
#519=VECTOR('',#1724,10.);
#520=VECTOR('',#1725,10.);
#521=VECTOR('',#1726,10.);
#522=VECTOR('',#1729,10.);
#523=VECTOR('',#1730,10.);
#524=VECTOR('',#1731,10.);
#525=VECTOR('',#1734,10.);
#526=VECTOR('',#1735,10.);
#527=VERTEX_POINT('',#1742);
#528=VERTEX_POINT('',#1743);
#529=VERTEX_POINT('',#1745);
#530=VERTEX_POINT('',#1747);
#531=VERTEX_POINT('',#1751);
#532=VERTEX_POINT('',#1753);
#533=VERTEX_POINT('',#1757);
#534=VERTEX_POINT('',#1759);
#535=VERTEX_POINT('',#1766);
#536=VERTEX_POINT('',#1767);
#537=VERTEX_POINT('',#1769);
#538=VERTEX_POINT('',#1771);
#539=VERTEX_POINT('',#1775);
#540=VERTEX_POINT('',#1776);
#541=VERTEX_POINT('',#1778);
#542=VERTEX_POINT('',#1780);
#543=VERTEX_POINT('',#1784);
#544=VERTEX_POINT('',#1786);
#545=VERTEX_POINT('',#1790);
#546=VERTEX_POINT('',#1792);
#547=VERTEX_POINT('',#1799);
#548=VERTEX_POINT('',#1800);
#549=VERTEX_POINT('',#1802);
#550=VERTEX_POINT('',#1804);
#551=VERTEX_POINT('',#1808);
#552=VERTEX_POINT('',#1810);
#553=VERTEX_POINT('',#1814);
#554=VERTEX_POINT('',#1818);
#555=VERTEX_POINT('',#1820);
#556=VERTEX_POINT('',#1824);
#557=VERTEX_POINT('',#1828);
#558=VERTEX_POINT('',#1834);
#559=VERTEX_POINT('',#1840);
#560=VERTEX_POINT('',#1841);
#561=VERTEX_POINT('',#1843);
#562=VERTEX_POINT('',#1845);
#563=VERTEX_POINT('',#1849);
#564=VERTEX_POINT('',#1850);
#565=VERTEX_POINT('',#1852);
#566=VERTEX_POINT('',#1854);
#567=VERTEX_POINT('',#1856);
#568=VERTEX_POINT('',#1858);
#569=VERTEX_POINT('',#1863);
#570=VERTEX_POINT('',#1865);
#571=VERTEX_POINT('',#1869);
#572=VERTEX_POINT('',#1870);
#573=VERTEX_POINT('',#1872);
#574=VERTEX_POINT('',#1874);
#575=VERTEX_POINT('',#1876);
#576=VERTEX_POINT('',#1878);
#577=VERTEX_POINT('',#1880);
#578=VERTEX_POINT('',#1882);
#579=VERTEX_POINT('',#1884);
#580=VERTEX_POINT('',#1886);
#581=VERTEX_POINT('',#1888);
#582=VERTEX_POINT('',#1890);
#583=VERTEX_POINT('',#1892);
#584=VERTEX_POINT('',#1894);
#585=VERTEX_POINT('',#1898);
#586=VERTEX_POINT('',#1902);
#587=VERTEX_POINT('',#1903);
#588=VERTEX_POINT('',#1905);
#589=VERTEX_POINT('',#1907);
#590=VERTEX_POINT('',#1910);
#591=VERTEX_POINT('',#1912);
#592=VERTEX_POINT('',#1914);
#593=VERTEX_POINT('',#1916);
#594=VERTEX_POINT('',#1918);
#595=VERTEX_POINT('',#1922);
#596=VERTEX_POINT('',#1924);
#597=VERTEX_POINT('',#1928);
#598=VERTEX_POINT('',#1931);
#599=VERTEX_POINT('',#1935);
#600=VERTEX_POINT('',#1937);
#601=VERTEX_POINT('',#1939);
#602=VERTEX_POINT('',#1944);
#603=VERTEX_POINT('',#1947);
#604=VERTEX_POINT('',#1949);
#605=VERTEX_POINT('',#1951);
#606=VERTEX_POINT('',#1953);
#607=VERTEX_POINT('',#1955);
#608=VERTEX_POINT('',#1957);
#609=VERTEX_POINT('',#1961);
#610=VERTEX_POINT('',#1965);
#611=VERTEX_POINT('',#1968);
#612=VERTEX_POINT('',#1970);
#613=VERTEX_POINT('',#1974);
#614=VERTEX_POINT('',#1978);
#615=VERTEX_POINT('',#1982);
#616=VERTEX_POINT('',#1984);
#617=VERTEX_POINT('',#1986);
#618=VERTEX_POINT('',#1988);
#619=VERTEX_POINT('',#1990);
#620=VERTEX_POINT('',#1992);
#621=VERTEX_POINT('',#1996);
#622=VERTEX_POINT('',#2000);
#623=VERTEX_POINT('',#2004);
#624=VERTEX_POINT('',#2008);
#625=VERTEX_POINT('',#2013);
#626=VERTEX_POINT('',#2017);
#627=VERTEX_POINT('',#2030);
#628=VERTEX_POINT('',#2032);
#629=VERTEX_POINT('',#2036);
#630=VERTEX_POINT('',#2038);
#631=VERTEX_POINT('',#2044);
#632=VERTEX_POINT('',#2046);
#633=VERTEX_POINT('',#2048);
#634=VERTEX_POINT('',#2052);
#635=VERTEX_POINT('',#2054);
#636=VERTEX_POINT('',#2058);
#637=VERTEX_POINT('',#2064);
#638=VERTEX_POINT('',#2072);
#639=VERTEX_POINT('',#2081);
#640=VERTEX_POINT('',#2082);
#641=VERTEX_POINT('',#2084);
#642=VERTEX_POINT('',#2086);
#643=VERTEX_POINT('',#2090);
#644=VERTEX_POINT('',#2092);
#645=VERTEX_POINT('',#2096);
#646=VERTEX_POINT('',#2098);
#647=EDGE_CURVE('',#527,#528,#207,.T.);
#648=EDGE_CURVE('',#527,#529,#208,.T.);
#649=EDGE_CURVE('',#529,#530,#209,.T.);
#650=EDGE_CURVE('',#528,#530,#210,.T.);
#651=EDGE_CURVE('',#528,#531,#211,.T.);
#652=EDGE_CURVE('',#530,#532,#212,.T.);
#653=EDGE_CURVE('',#531,#532,#213,.T.);
#654=EDGE_CURVE('',#531,#533,#214,.T.);
#655=EDGE_CURVE('',#532,#534,#215,.T.);
#656=EDGE_CURVE('',#533,#534,#216,.T.);
#657=EDGE_CURVE('',#533,#527,#217,.T.);
#658=EDGE_CURVE('',#534,#529,#218,.T.);
#659=EDGE_CURVE('',#535,#536,#219,.T.);
#660=EDGE_CURVE('',#537,#535,#220,.T.);
#661=EDGE_CURVE('',#538,#537,#221,.T.);
#662=EDGE_CURVE('',#536,#538,#222,.T.);
#663=EDGE_CURVE('',#539,#540,#223,.T.);
#664=EDGE_CURVE('',#539,#541,#224,.T.);
#665=EDGE_CURVE('',#541,#542,#225,.T.);
#666=EDGE_CURVE('',#540,#542,#226,.T.);
#667=EDGE_CURVE('',#540,#543,#227,.T.);
#668=EDGE_CURVE('',#542,#544,#228,.T.);
#669=EDGE_CURVE('',#543,#544,#229,.T.);
#670=EDGE_CURVE('',#543,#545,#230,.T.);
#671=EDGE_CURVE('',#544,#546,#231,.T.);
#672=EDGE_CURVE('',#545,#546,#232,.T.);
#673=EDGE_CURVE('',#545,#539,#233,.T.);
#674=EDGE_CURVE('',#546,#541,#234,.T.);
#675=EDGE_CURVE('',#547,#548,#235,.T.);
#676=EDGE_CURVE('',#549,#547,#236,.T.);
#677=EDGE_CURVE('',#550,#549,#237,.T.);
#678=EDGE_CURVE('',#548,#550,#238,.T.);
#679=EDGE_CURVE('',#537,#551,#239,.T.);
#680=EDGE_CURVE('',#552,#551,#240,.T.);
#681=EDGE_CURVE('',#538,#552,#241,.T.);
#682=EDGE_CURVE('',#535,#553,#242,.T.);
#683=EDGE_CURVE('',#551,#553,#243,.T.);
#684=EDGE_CURVE('',#549,#554,#244,.T.);
#685=EDGE_CURVE('',#555,#554,#245,.T.);
#686=EDGE_CURVE('',#550,#555,#246,.T.);
#687=EDGE_CURVE('',#547,#556,#247,.T.);
#688=EDGE_CURVE('',#554,#556,#248,.T.);
#689=EDGE_CURVE('',#536,#557,#249,.T.);
#690=EDGE_CURVE('',#553,#557,#250,.T.);
#691=EDGE_CURVE('',#557,#552,#251,.T.);
#692=EDGE_CURVE('',#548,#558,#252,.T.);
#693=EDGE_CURVE('',#556,#558,#253,.T.);
#694=EDGE_CURVE('',#558,#555,#254,.T.);
#695=EDGE_CURVE('',#559,#560,#255,.T.);
#696=EDGE_CURVE('',#561,#559,#256,.T.);
#697=EDGE_CURVE('',#562,#561,#257,.T.);
#698=EDGE_CURVE('',#562,#560,#258,.T.);
#699=EDGE_CURVE('',#563,#564,#259,.T.);
#700=EDGE_CURVE('',#564,#565,#260,.T.);
#701=EDGE_CURVE('',#565,#566,#261,.T.);
#702=EDGE_CURVE('',#566,#567,#262,.T.);
#703=EDGE_CURVE('',#567,#568,#263,.T.);
#704=EDGE_CURVE('',#568,#562,#264,.T.);
#705=EDGE_CURVE('',#561,#563,#265,.T.);
#706=EDGE_CURVE('',#563,#569,#266,.T.);
#707=EDGE_CURVE('',#570,#569,#267,.T.);
#708=EDGE_CURVE('',#564,#570,#268,.T.);
#709=EDGE_CURVE('',#571,#572,#269,.T.);
#710=EDGE_CURVE('',#572,#573,#270,.T.);
#711=EDGE_CURVE('',#573,#574,#271,.T.);
#712=EDGE_CURVE('',#575,#574,#272,.T.);
#713=EDGE_CURVE('',#575,#576,#273,.T.);
#714=EDGE_CURVE('',#576,#577,#274,.T.);
#715=EDGE_CURVE('',#577,#578,#275,.T.);
#716=EDGE_CURVE('',#579,#578,#276,.T.);
#717=EDGE_CURVE('',#579,#580,#277,.T.);
#718=EDGE_CURVE('',#581,#580,#278,.T.);
#719=EDGE_CURVE('',#582,#581,#279,.T.);
#720=EDGE_CURVE('',#583,#582,#280,.T.);
#721=EDGE_CURVE('',#584,#583,#281,.T.);
#722=EDGE_CURVE('',#571,#584,#282,.T.);
#723=EDGE_CURVE('',#585,#570,#283,.T.);
#724=EDGE_CURVE('',#565,#585,#284,.T.);
#725=EDGE_CURVE('',#586,#587,#285,.T.);
#726=EDGE_CURVE('',#587,#588,#286,.T.);
#727=EDGE_CURVE('',#588,#589,#287,.T.);
#728=EDGE_CURVE('',#589,#585,#288,.T.);
#729=EDGE_CURVE('',#569,#590,#289,.T.);
#730=EDGE_CURVE('',#590,#591,#290,.T.);
#731=EDGE_CURVE('',#591,#592,#291,.T.);
#732=EDGE_CURVE('',#592,#593,#292,.T.);
#733=EDGE_CURVE('',#593,#594,#293,.T.);
#734=EDGE_CURVE('',#594,#586,#294,.T.);
#735=EDGE_CURVE('',#595,#595,#15,.T.);
#736=EDGE_CURVE('',#595,#596,#295,.T.);
#737=EDGE_CURVE('',#596,#596,#16,.T.);
#738=EDGE_CURVE('',#597,#597,#17,.T.);
#739=EDGE_CURVE('',#598,#576,#18,.T.);
#740=EDGE_CURVE('',#577,#598,#296,.T.);
#741=EDGE_CURVE('',#599,#599,#19,.T.);
#742=EDGE_CURVE('',#599,#600,#297,.T.);
#743=EDGE_CURVE('',#601,#600,#20,.T.);
#744=EDGE_CURVE('',#598,#601,#298,.T.);
#745=EDGE_CURVE('',#600,#575,#21,.T.);
#746=EDGE_CURVE('',#602,#602,#22,.T.);
#747=EDGE_CURVE('',#603,#603,#23,.T.);
#748=EDGE_CURVE('',#603,#604,#299,.T.);
#749=EDGE_CURVE('',#605,#604,#24,.T.);
#750=EDGE_CURVE('',#606,#605,#300,.T.);
#751=EDGE_CURVE('',#606,#607,#25,.T.);
#752=EDGE_CURVE('',#608,#607,#301,.T.);
#753=EDGE_CURVE('',#604,#608,#26,.T.);
#754=EDGE_CURVE('',#609,#606,#302,.T.);
#755=EDGE_CURVE('',#607,#609,#303,.T.);
#756=EDGE_CURVE('',#610,#610,#27,.T.);
#757=EDGE_CURVE('',#611,#611,#28,.T.);
#758=EDGE_CURVE('',#611,#612,#304,.T.);
#759=EDGE_CURVE('',#612,#612,#29,.T.);
#760=EDGE_CURVE('',#613,#613,#30,.T.);
#761=EDGE_CURVE('',#608,#601,#305,.T.);
#762=EDGE_CURVE('',#609,#614,#306,.T.);
#763=EDGE_CURVE('',#578,#614,#307,.T.);
#764=EDGE_CURVE('',#615,#605,#308,.T.);
#765=EDGE_CURVE('',#615,#616,#309,.T.);
#766=EDGE_CURVE('',#617,#616,#310,.T.);
#767=EDGE_CURVE('',#617,#618,#311,.T.);
#768=EDGE_CURVE('',#619,#618,#312,.T.);
#769=EDGE_CURVE('',#620,#619,#313,.T.);
#770=EDGE_CURVE('',#614,#620,#314,.T.);
#771=EDGE_CURVE('',#621,#621,#31,.T.);
#772=EDGE_CURVE('',#621,#597,#315,.T.);
#773=EDGE_CURVE('',#622,#622,#32,.T.);
#774=EDGE_CURVE('',#622,#602,#316,.T.);
#775=EDGE_CURVE('',#623,#623,#33,.T.);
#776=EDGE_CURVE('',#623,#610,#317,.T.);
#777=EDGE_CURVE('',#624,#624,#34,.T.);
#778=EDGE_CURVE('',#624,#613,#318,.T.);
#779=EDGE_CURVE('',#574,#559,#319,.T.);
#780=EDGE_CURVE('',#573,#625,#320,.T.);
#781=EDGE_CURVE('',#590,#625,#321,.T.);
#782=EDGE_CURVE('',#626,#586,#322,.T.);
#783=EDGE_CURVE('',#626,#572,#323,.T.);
#784=EDGE_CURVE('',#560,#571,#324,.T.);
#785=EDGE_CURVE('',#587,#568,#325,.T.);
#786=EDGE_CURVE('',#625,#626,#326,.T.);
#787=EDGE_CURVE('',#566,#589,#327,.T.);
#788=EDGE_CURVE('',#567,#588,#328,.T.);
#789=EDGE_CURVE('',#582,#627,#329,.T.);
#790=EDGE_CURVE('',#628,#581,#330,.T.);
#791=EDGE_CURVE('',#627,#628,#331,.T.);
#792=EDGE_CURVE('',#629,#579,#332,.T.);
#793=EDGE_CURVE('',#629,#630,#333,.T.);
#794=EDGE_CURVE('',#580,#630,#334,.T.);
#795=EDGE_CURVE('',#630,#628,#335,.T.);
#796=EDGE_CURVE('',#620,#631,#336,.T.);
#797=EDGE_CURVE('',#631,#632,#337,.T.);
#798=EDGE_CURVE('',#632,#633,#338,.T.);
#799=EDGE_CURVE('',#633,#629,#339,.T.);
#800=EDGE_CURVE('',#634,#617,#340,.T.);
#801=EDGE_CURVE('',#634,#635,#341,.T.);
#802=EDGE_CURVE('',#618,#635,#342,.T.);
#803=EDGE_CURVE('',#636,#619,#343,.T.);
#804=EDGE_CURVE('',#631,#636,#344,.T.);
#805=EDGE_CURVE('',#635,#636,#345,.T.);
#806=EDGE_CURVE('',#627,#637,#346,.T.);
#807=EDGE_CURVE('',#637,#583,#347,.T.);
#808=EDGE_CURVE('',#594,#637,#348,.T.);
#809=EDGE_CURVE('',#591,#633,#349,.T.);
#810=EDGE_CURVE('',#632,#592,#350,.T.);
#811=EDGE_CURVE('',#638,#634,#351,.T.);
#812=EDGE_CURVE('',#593,#638,#352,.T.);
#813=EDGE_CURVE('',#616,#638,#353,.T.);
#814=EDGE_CURVE('',#584,#615,#354,.T.);
#815=EDGE_CURVE('',#639,#640,#355,.T.);
#816=EDGE_CURVE('',#640,#641,#356,.T.);
#817=EDGE_CURVE('',#642,#641,#357,.T.);
#818=EDGE_CURVE('',#639,#642,#358,.T.);
#819=EDGE_CURVE('',#643,#639,#359,.T.);
#820=EDGE_CURVE('',#644,#642,#360,.T.);
#821=EDGE_CURVE('',#643,#644,#361,.T.);
#822=EDGE_CURVE('',#645,#643,#362,.T.);
#823=EDGE_CURVE('',#646,#644,#363,.T.);
#824=EDGE_CURVE('',#645,#646,#364,.T.);
#825=EDGE_CURVE('',#640,#645,#365,.T.);
#826=EDGE_CURVE('',#641,#646,#366,.T.);
#827=ORIENTED_EDGE('',*,*,#647,.F.);
#828=ORIENTED_EDGE('',*,*,#648,.T.);
#829=ORIENTED_EDGE('',*,*,#649,.T.);
#830=ORIENTED_EDGE('',*,*,#650,.F.);
#831=ORIENTED_EDGE('',*,*,#651,.F.);
#832=ORIENTED_EDGE('',*,*,#650,.T.);
#833=ORIENTED_EDGE('',*,*,#652,.T.);
#834=ORIENTED_EDGE('',*,*,#653,.F.);
#835=ORIENTED_EDGE('',*,*,#654,.F.);
#836=ORIENTED_EDGE('',*,*,#653,.T.);
#837=ORIENTED_EDGE('',*,*,#655,.T.);
#838=ORIENTED_EDGE('',*,*,#656,.F.);
#839=ORIENTED_EDGE('',*,*,#657,.F.);
#840=ORIENTED_EDGE('',*,*,#656,.T.);
#841=ORIENTED_EDGE('',*,*,#658,.T.);
#842=ORIENTED_EDGE('',*,*,#648,.F.);
#843=ORIENTED_EDGE('',*,*,#658,.F.);
#844=ORIENTED_EDGE('',*,*,#655,.F.);
#845=ORIENTED_EDGE('',*,*,#652,.F.);
#846=ORIENTED_EDGE('',*,*,#649,.F.);
#847=ORIENTED_EDGE('',*,*,#659,.F.);
#848=ORIENTED_EDGE('',*,*,#660,.F.);
#849=ORIENTED_EDGE('',*,*,#661,.F.);
#850=ORIENTED_EDGE('',*,*,#662,.F.);
#851=ORIENTED_EDGE('',*,*,#663,.F.);
#852=ORIENTED_EDGE('',*,*,#664,.T.);
#853=ORIENTED_EDGE('',*,*,#665,.T.);
#854=ORIENTED_EDGE('',*,*,#666,.F.);
#855=ORIENTED_EDGE('',*,*,#667,.F.);
#856=ORIENTED_EDGE('',*,*,#666,.T.);
#857=ORIENTED_EDGE('',*,*,#668,.T.);
#858=ORIENTED_EDGE('',*,*,#669,.F.);
#859=ORIENTED_EDGE('',*,*,#670,.F.);
#860=ORIENTED_EDGE('',*,*,#669,.T.);
#861=ORIENTED_EDGE('',*,*,#671,.T.);
#862=ORIENTED_EDGE('',*,*,#672,.F.);
#863=ORIENTED_EDGE('',*,*,#673,.F.);
#864=ORIENTED_EDGE('',*,*,#672,.T.);
#865=ORIENTED_EDGE('',*,*,#674,.T.);
#866=ORIENTED_EDGE('',*,*,#664,.F.);
#867=ORIENTED_EDGE('',*,*,#674,.F.);
#868=ORIENTED_EDGE('',*,*,#671,.F.);
#869=ORIENTED_EDGE('',*,*,#668,.F.);
#870=ORIENTED_EDGE('',*,*,#665,.F.);
#871=ORIENTED_EDGE('',*,*,#675,.F.);
#872=ORIENTED_EDGE('',*,*,#676,.F.);
#873=ORIENTED_EDGE('',*,*,#677,.F.);
#874=ORIENTED_EDGE('',*,*,#678,.F.);
#875=ORIENTED_EDGE('',*,*,#661,.T.);
#876=ORIENTED_EDGE('',*,*,#679,.T.);
#877=ORIENTED_EDGE('',*,*,#680,.F.);
#878=ORIENTED_EDGE('',*,*,#681,.F.);
#879=ORIENTED_EDGE('',*,*,#660,.T.);
#880=ORIENTED_EDGE('',*,*,#682,.T.);
#881=ORIENTED_EDGE('',*,*,#683,.F.);
#882=ORIENTED_EDGE('',*,*,#679,.F.);
#883=ORIENTED_EDGE('',*,*,#677,.T.);
#884=ORIENTED_EDGE('',*,*,#684,.T.);
#885=ORIENTED_EDGE('',*,*,#685,.F.);
#886=ORIENTED_EDGE('',*,*,#686,.F.);
#887=ORIENTED_EDGE('',*,*,#676,.T.);
#888=ORIENTED_EDGE('',*,*,#687,.T.);
#889=ORIENTED_EDGE('',*,*,#688,.F.);
#890=ORIENTED_EDGE('',*,*,#684,.F.);
#891=ORIENTED_EDGE('',*,*,#659,.T.);
#892=ORIENTED_EDGE('',*,*,#689,.T.);
#893=ORIENTED_EDGE('',*,*,#690,.F.);
#894=ORIENTED_EDGE('',*,*,#682,.F.);
#895=ORIENTED_EDGE('',*,*,#662,.T.);
#896=ORIENTED_EDGE('',*,*,#681,.T.);
#897=ORIENTED_EDGE('',*,*,#691,.F.);
#898=ORIENTED_EDGE('',*,*,#689,.F.);
#899=ORIENTED_EDGE('',*,*,#675,.T.);
#900=ORIENTED_EDGE('',*,*,#692,.T.);
#901=ORIENTED_EDGE('',*,*,#693,.F.);
#902=ORIENTED_EDGE('',*,*,#687,.F.);
#903=ORIENTED_EDGE('',*,*,#678,.T.);
#904=ORIENTED_EDGE('',*,*,#686,.T.);
#905=ORIENTED_EDGE('',*,*,#694,.F.);
#906=ORIENTED_EDGE('',*,*,#692,.F.);
#907=ORIENTED_EDGE('',*,*,#695,.F.);
#908=ORIENTED_EDGE('',*,*,#696,.F.);
#909=ORIENTED_EDGE('',*,*,#697,.F.);
#910=ORIENTED_EDGE('',*,*,#698,.T.);
#911=ORIENTED_EDGE('',*,*,#699,.T.);
#912=ORIENTED_EDGE('',*,*,#700,.T.);
#913=ORIENTED_EDGE('',*,*,#701,.T.);
#914=ORIENTED_EDGE('',*,*,#702,.T.);
#915=ORIENTED_EDGE('',*,*,#703,.T.);
#916=ORIENTED_EDGE('',*,*,#704,.T.);
#917=ORIENTED_EDGE('',*,*,#697,.T.);
#918=ORIENTED_EDGE('',*,*,#705,.T.);
#919=ORIENTED_EDGE('',*,*,#706,.T.);
#920=ORIENTED_EDGE('',*,*,#707,.F.);
#921=ORIENTED_EDGE('',*,*,#708,.F.);
#922=ORIENTED_EDGE('',*,*,#699,.F.);
#923=ORIENTED_EDGE('',*,*,#709,.T.);
#924=ORIENTED_EDGE('',*,*,#710,.T.);
#925=ORIENTED_EDGE('',*,*,#711,.T.);
#926=ORIENTED_EDGE('',*,*,#712,.F.);
#927=ORIENTED_EDGE('',*,*,#713,.T.);
#928=ORIENTED_EDGE('',*,*,#714,.T.);
#929=ORIENTED_EDGE('',*,*,#715,.T.);
#930=ORIENTED_EDGE('',*,*,#716,.F.);
#931=ORIENTED_EDGE('',*,*,#717,.T.);
#932=ORIENTED_EDGE('',*,*,#718,.F.);
#933=ORIENTED_EDGE('',*,*,#719,.F.);
#934=ORIENTED_EDGE('',*,*,#720,.F.);
#935=ORIENTED_EDGE('',*,*,#721,.F.);
#936=ORIENTED_EDGE('',*,*,#722,.F.);
#937=ORIENTED_EDGE('',*,*,#723,.F.);
#938=ORIENTED_EDGE('',*,*,#724,.F.);
#939=ORIENTED_EDGE('',*,*,#700,.F.);
#940=ORIENTED_EDGE('',*,*,#708,.T.);
#941=ORIENTED_EDGE('',*,*,#725,.T.);
#942=ORIENTED_EDGE('',*,*,#726,.T.);
#943=ORIENTED_EDGE('',*,*,#727,.T.);
#944=ORIENTED_EDGE('',*,*,#728,.T.);
#945=ORIENTED_EDGE('',*,*,#723,.T.);
#946=ORIENTED_EDGE('',*,*,#707,.T.);
#947=ORIENTED_EDGE('',*,*,#729,.T.);
#948=ORIENTED_EDGE('',*,*,#730,.T.);
#949=ORIENTED_EDGE('',*,*,#731,.T.);
#950=ORIENTED_EDGE('',*,*,#732,.T.);
#951=ORIENTED_EDGE('',*,*,#733,.T.);
#952=ORIENTED_EDGE('',*,*,#734,.T.);
#953=ORIENTED_EDGE('',*,*,#735,.F.);
#954=ORIENTED_EDGE('',*,*,#736,.T.);
#955=ORIENTED_EDGE('',*,*,#737,.F.);
#956=ORIENTED_EDGE('',*,*,#736,.F.);
#957=ORIENTED_EDGE('',*,*,#735,.T.);
#958=ORIENTED_EDGE('',*,*,#738,.F.);
#959=ORIENTED_EDGE('',*,*,#714,.F.);
#960=ORIENTED_EDGE('',*,*,#739,.F.);
#961=ORIENTED_EDGE('',*,*,#740,.F.);
#962=ORIENTED_EDGE('',*,*,#741,.F.);
#963=ORIENTED_EDGE('',*,*,#742,.T.);
#964=ORIENTED_EDGE('',*,*,#743,.F.);
#965=ORIENTED_EDGE('',*,*,#744,.F.);
#966=ORIENTED_EDGE('',*,*,#739,.T.);
#967=ORIENTED_EDGE('',*,*,#713,.F.);
#968=ORIENTED_EDGE('',*,*,#745,.F.);
#969=ORIENTED_EDGE('',*,*,#742,.F.);
#970=ORIENTED_EDGE('',*,*,#741,.T.);
#971=ORIENTED_EDGE('',*,*,#746,.F.);
#972=ORIENTED_EDGE('',*,*,#747,.F.);
#973=ORIENTED_EDGE('',*,*,#748,.T.);
#974=ORIENTED_EDGE('',*,*,#749,.F.);
#975=ORIENTED_EDGE('',*,*,#750,.F.);
#976=ORIENTED_EDGE('',*,*,#751,.T.);
#977=ORIENTED_EDGE('',*,*,#752,.F.);
#978=ORIENTED_EDGE('',*,*,#753,.F.);
#979=ORIENTED_EDGE('',*,*,#748,.F.);
#980=ORIENTED_EDGE('',*,*,#754,.F.);
#981=ORIENTED_EDGE('',*,*,#755,.F.);
#982=ORIENTED_EDGE('',*,*,#751,.F.);
#983=ORIENTED_EDGE('',*,*,#747,.T.);
#984=ORIENTED_EDGE('',*,*,#756,.F.);
#985=ORIENTED_EDGE('',*,*,#757,.F.);
#986=ORIENTED_EDGE('',*,*,#758,.T.);
#987=ORIENTED_EDGE('',*,*,#759,.F.);
#988=ORIENTED_EDGE('',*,*,#758,.F.);
#989=ORIENTED_EDGE('',*,*,#757,.T.);
#990=ORIENTED_EDGE('',*,*,#760,.F.);
#991=ORIENTED_EDGE('',*,*,#740,.T.);
#992=ORIENTED_EDGE('',*,*,#744,.T.);
#993=ORIENTED_EDGE('',*,*,#761,.F.);
#994=ORIENTED_EDGE('',*,*,#752,.T.);
#995=ORIENTED_EDGE('',*,*,#755,.T.);
#996=ORIENTED_EDGE('',*,*,#762,.T.);
#997=ORIENTED_EDGE('',*,*,#763,.F.);
#998=ORIENTED_EDGE('',*,*,#715,.F.);
#999=ORIENTED_EDGE('',*,*,#654,.T.);
#1000=ORIENTED_EDGE('',*,*,#657,.T.);
#1001=ORIENTED_EDGE('',*,*,#647,.T.);
#1002=ORIENTED_EDGE('',*,*,#651,.T.);
#1003=ORIENTED_EDGE('',*,*,#670,.T.);
#1004=ORIENTED_EDGE('',*,*,#673,.T.);
#1005=ORIENTED_EDGE('',*,*,#663,.T.);
#1006=ORIENTED_EDGE('',*,*,#667,.T.);
#1007=ORIENTED_EDGE('',*,*,#754,.T.);
#1008=ORIENTED_EDGE('',*,*,#750,.T.);
#1009=ORIENTED_EDGE('',*,*,#764,.F.);
#1010=ORIENTED_EDGE('',*,*,#765,.T.);
#1011=ORIENTED_EDGE('',*,*,#766,.F.);
#1012=ORIENTED_EDGE('',*,*,#767,.T.);
#1013=ORIENTED_EDGE('',*,*,#768,.F.);
#1014=ORIENTED_EDGE('',*,*,#769,.F.);
#1015=ORIENTED_EDGE('',*,*,#770,.F.);
#1016=ORIENTED_EDGE('',*,*,#762,.F.);
#1017=ORIENTED_EDGE('',*,*,#771,.F.);
#1018=ORIENTED_EDGE('',*,*,#772,.T.);
#1019=ORIENTED_EDGE('',*,*,#738,.T.);
#1020=ORIENTED_EDGE('',*,*,#772,.F.);
#1021=ORIENTED_EDGE('',*,*,#773,.F.);
#1022=ORIENTED_EDGE('',*,*,#774,.T.);
#1023=ORIENTED_EDGE('',*,*,#746,.T.);
#1024=ORIENTED_EDGE('',*,*,#774,.F.);
#1025=ORIENTED_EDGE('',*,*,#775,.F.);
#1026=ORIENTED_EDGE('',*,*,#776,.T.);
#1027=ORIENTED_EDGE('',*,*,#756,.T.);
#1028=ORIENTED_EDGE('',*,*,#776,.F.);
#1029=ORIENTED_EDGE('',*,*,#777,.F.);
#1030=ORIENTED_EDGE('',*,*,#778,.T.);
#1031=ORIENTED_EDGE('',*,*,#760,.T.);
#1032=ORIENTED_EDGE('',*,*,#778,.F.);
#1033=ORIENTED_EDGE('',*,*,#729,.F.);
#1034=ORIENTED_EDGE('',*,*,#706,.F.);
#1035=ORIENTED_EDGE('',*,*,#705,.F.);
#1036=ORIENTED_EDGE('',*,*,#696,.T.);
#1037=ORIENTED_EDGE('',*,*,#779,.F.);
#1038=ORIENTED_EDGE('',*,*,#711,.F.);
#1039=ORIENTED_EDGE('',*,*,#780,.T.);
#1040=ORIENTED_EDGE('',*,*,#781,.F.);
#1041=ORIENTED_EDGE('',*,*,#725,.F.);
#1042=ORIENTED_EDGE('',*,*,#782,.F.);
#1043=ORIENTED_EDGE('',*,*,#783,.T.);
#1044=ORIENTED_EDGE('',*,*,#709,.F.);
#1045=ORIENTED_EDGE('',*,*,#784,.F.);
#1046=ORIENTED_EDGE('',*,*,#698,.F.);
#1047=ORIENTED_EDGE('',*,*,#704,.F.);
#1048=ORIENTED_EDGE('',*,*,#785,.F.);
#1049=ORIENTED_EDGE('',*,*,#786,.F.);
#1050=ORIENTED_EDGE('',*,*,#780,.F.);
#1051=ORIENTED_EDGE('',*,*,#710,.F.);
#1052=ORIENTED_EDGE('',*,*,#783,.F.);
#1053=ORIENTED_EDGE('',*,*,#728,.F.);
#1054=ORIENTED_EDGE('',*,*,#787,.F.);
#1055=ORIENTED_EDGE('',*,*,#701,.F.);
#1056=ORIENTED_EDGE('',*,*,#724,.T.);
#1057=ORIENTED_EDGE('',*,*,#785,.T.);
#1058=ORIENTED_EDGE('',*,*,#703,.F.);
#1059=ORIENTED_EDGE('',*,*,#788,.T.);
#1060=ORIENTED_EDGE('',*,*,#726,.F.);
#1061=ORIENTED_EDGE('',*,*,#727,.F.);
#1062=ORIENTED_EDGE('',*,*,#788,.F.);
#1063=ORIENTED_EDGE('',*,*,#702,.F.);
#1064=ORIENTED_EDGE('',*,*,#787,.T.);
#1065=ORIENTED_EDGE('',*,*,#789,.F.);
#1066=ORIENTED_EDGE('',*,*,#719,.T.);
#1067=ORIENTED_EDGE('',*,*,#790,.F.);
#1068=ORIENTED_EDGE('',*,*,#791,.F.);
#1069=ORIENTED_EDGE('',*,*,#792,.F.);
#1070=ORIENTED_EDGE('',*,*,#793,.T.);
#1071=ORIENTED_EDGE('',*,*,#794,.F.);
#1072=ORIENTED_EDGE('',*,*,#717,.F.);
#1073=ORIENTED_EDGE('',*,*,#794,.T.);
#1074=ORIENTED_EDGE('',*,*,#795,.T.);
#1075=ORIENTED_EDGE('',*,*,#790,.T.);
#1076=ORIENTED_EDGE('',*,*,#718,.T.);
#1077=ORIENTED_EDGE('',*,*,#792,.T.);
#1078=ORIENTED_EDGE('',*,*,#716,.T.);
#1079=ORIENTED_EDGE('',*,*,#763,.T.);
#1080=ORIENTED_EDGE('',*,*,#770,.T.);
#1081=ORIENTED_EDGE('',*,*,#796,.T.);
#1082=ORIENTED_EDGE('',*,*,#797,.T.);
#1083=ORIENTED_EDGE('',*,*,#798,.T.);
#1084=ORIENTED_EDGE('',*,*,#799,.T.);
#1085=ORIENTED_EDGE('',*,*,#800,.F.);
#1086=ORIENTED_EDGE('',*,*,#801,.T.);
#1087=ORIENTED_EDGE('',*,*,#802,.F.);
#1088=ORIENTED_EDGE('',*,*,#767,.F.);
#1089=ORIENTED_EDGE('',*,*,#796,.F.);
#1090=ORIENTED_EDGE('',*,*,#769,.T.);
#1091=ORIENTED_EDGE('',*,*,#803,.F.);
#1092=ORIENTED_EDGE('',*,*,#804,.F.);
#1093=ORIENTED_EDGE('',*,*,#803,.T.);
#1094=ORIENTED_EDGE('',*,*,#768,.T.);
#1095=ORIENTED_EDGE('',*,*,#802,.T.);
#1096=ORIENTED_EDGE('',*,*,#805,.T.);
#1097=ORIENTED_EDGE('',*,*,#789,.T.);
#1098=ORIENTED_EDGE('',*,*,#806,.T.);
#1099=ORIENTED_EDGE('',*,*,#807,.T.);
#1100=ORIENTED_EDGE('',*,*,#720,.T.);
#1101=ORIENTED_EDGE('',*,*,#782,.T.);
#1102=ORIENTED_EDGE('',*,*,#734,.F.);
#1103=ORIENTED_EDGE('',*,*,#808,.T.);
#1104=ORIENTED_EDGE('',*,*,#806,.F.);
#1105=ORIENTED_EDGE('',*,*,#791,.T.);
#1106=ORIENTED_EDGE('',*,*,#795,.F.);
#1107=ORIENTED_EDGE('',*,*,#793,.F.);
#1108=ORIENTED_EDGE('',*,*,#799,.F.);
#1109=ORIENTED_EDGE('',*,*,#809,.F.);
#1110=ORIENTED_EDGE('',*,*,#730,.F.);
#1111=ORIENTED_EDGE('',*,*,#781,.T.);
#1112=ORIENTED_EDGE('',*,*,#786,.T.);
#1113=ORIENTED_EDGE('',*,*,#732,.F.);
#1114=ORIENTED_EDGE('',*,*,#810,.F.);
#1115=ORIENTED_EDGE('',*,*,#797,.F.);
#1116=ORIENTED_EDGE('',*,*,#804,.T.);
#1117=ORIENTED_EDGE('',*,*,#805,.F.);
#1118=ORIENTED_EDGE('',*,*,#801,.F.);
#1119=ORIENTED_EDGE('',*,*,#811,.F.);
#1120=ORIENTED_EDGE('',*,*,#812,.F.);
#1121=ORIENTED_EDGE('',*,*,#809,.T.);
#1122=ORIENTED_EDGE('',*,*,#798,.F.);
#1123=ORIENTED_EDGE('',*,*,#810,.T.);
#1124=ORIENTED_EDGE('',*,*,#731,.F.);
#1125=ORIENTED_EDGE('',*,*,#680,.T.);
#1126=ORIENTED_EDGE('',*,*,#683,.T.);
#1127=ORIENTED_EDGE('',*,*,#690,.T.);
#1128=ORIENTED_EDGE('',*,*,#691,.T.);
#1129=ORIENTED_EDGE('',*,*,#685,.T.);
#1130=ORIENTED_EDGE('',*,*,#688,.T.);
#1131=ORIENTED_EDGE('',*,*,#693,.T.);
#1132=ORIENTED_EDGE('',*,*,#694,.T.);
#1133=ORIENTED_EDGE('',*,*,#800,.T.);
#1134=ORIENTED_EDGE('',*,*,#766,.T.);
#1135=ORIENTED_EDGE('',*,*,#813,.T.);
#1136=ORIENTED_EDGE('',*,*,#811,.T.);
#1137=ORIENTED_EDGE('',*,*,#814,.F.);
#1138=ORIENTED_EDGE('',*,*,#721,.T.);
#1139=ORIENTED_EDGE('',*,*,#807,.F.);
#1140=ORIENTED_EDGE('',*,*,#808,.F.);
#1141=ORIENTED_EDGE('',*,*,#733,.F.);
#1142=ORIENTED_EDGE('',*,*,#812,.T.);
#1143=ORIENTED_EDGE('',*,*,#813,.F.);
#1144=ORIENTED_EDGE('',*,*,#765,.F.);
#1145=ORIENTED_EDGE('',*,*,#815,.T.);
#1146=ORIENTED_EDGE('',*,*,#816,.T.);
#1147=ORIENTED_EDGE('',*,*,#817,.F.);
#1148=ORIENTED_EDGE('',*,*,#818,.F.);
#1149=ORIENTED_EDGE('',*,*,#819,.T.);
#1150=ORIENTED_EDGE('',*,*,#818,.T.);
#1151=ORIENTED_EDGE('',*,*,#820,.F.);
#1152=ORIENTED_EDGE('',*,*,#821,.F.);
#1153=ORIENTED_EDGE('',*,*,#822,.T.);
#1154=ORIENTED_EDGE('',*,*,#821,.T.);
#1155=ORIENTED_EDGE('',*,*,#823,.F.);
#1156=ORIENTED_EDGE('',*,*,#824,.F.);
#1157=ORIENTED_EDGE('',*,*,#825,.T.);
#1158=ORIENTED_EDGE('',*,*,#824,.T.);
#1159=ORIENTED_EDGE('',*,*,#826,.F.);
#1160=ORIENTED_EDGE('',*,*,#816,.F.);
#1161=ORIENTED_EDGE('',*,*,#826,.T.);
#1162=ORIENTED_EDGE('',*,*,#823,.T.);
#1163=ORIENTED_EDGE('',*,*,#820,.T.);
#1164=ORIENTED_EDGE('',*,*,#817,.T.);
#1165=ORIENTED_EDGE('',*,*,#784,.T.);
#1166=ORIENTED_EDGE('',*,*,#722,.T.);
#1167=ORIENTED_EDGE('',*,*,#814,.T.);
#1168=ORIENTED_EDGE('',*,*,#764,.T.);
#1169=ORIENTED_EDGE('',*,*,#749,.T.);
#1170=ORIENTED_EDGE('',*,*,#753,.T.);
#1171=ORIENTED_EDGE('',*,*,#761,.T.);
#1172=ORIENTED_EDGE('',*,*,#743,.T.);
#1173=ORIENTED_EDGE('',*,*,#745,.T.);
#1174=ORIENTED_EDGE('',*,*,#712,.T.);
#1175=ORIENTED_EDGE('',*,*,#779,.T.);
#1176=ORIENTED_EDGE('',*,*,#695,.T.);
#1177=ORIENTED_EDGE('',*,*,#759,.T.);
#1178=ORIENTED_EDGE('',*,*,#737,.T.);
#1179=ORIENTED_EDGE('',*,*,#825,.F.);
#1180=ORIENTED_EDGE('',*,*,#815,.F.);
#1181=ORIENTED_EDGE('',*,*,#819,.F.);
#1182=ORIENTED_EDGE('',*,*,#822,.F.);
#1183=ORIENTED_EDGE('',*,*,#771,.T.);
#1184=ORIENTED_EDGE('',*,*,#773,.T.);
#1185=ORIENTED_EDGE('',*,*,#775,.T.);
#1186=ORIENTED_EDGE('',*,*,#777,.T.);
#1187=PLANE('',#1323);
#1188=PLANE('',#1324);
#1189=PLANE('',#1325);
#1190=PLANE('',#1326);
#1191=PLANE('',#1327);
#1192=PLANE('',#1328);
#1193=PLANE('',#1329);
#1194=PLANE('',#1330);
#1195=PLANE('',#1331);
#1196=PLANE('',#1332);
#1197=PLANE('',#1333);
#1198=PLANE('',#1334);
#1199=PLANE('',#1335);
#1200=PLANE('',#1336);
#1201=PLANE('',#1337);
#1202=PLANE('',#1338);
#1203=PLANE('',#1339);
#1204=PLANE('',#1340);
#1205=PLANE('',#1341);
#1206=PLANE('',#1342);
#1207=PLANE('',#1343);
#1208=PLANE('',#1344);
#1209=PLANE('',#1345);
#1210=PLANE('',#1346);
#1211=PLANE('',#1350);
#1212=PLANE('',#1352);
#1213=PLANE('',#1358);
#1214=PLANE('',#1365);
#1215=PLANE('',#1366);
#1216=PLANE('',#1371);
#1217=PLANE('',#1373);
#1218=PLANE('',#1374);
#1219=PLANE('',#1383);
#1220=PLANE('',#1384);
#1221=PLANE('',#1385);
#1222=PLANE('',#1386);
#1223=PLANE('',#1387);
#1224=PLANE('',#1388);
#1225=PLANE('',#1389);
#1226=PLANE('',#1390);
#1227=PLANE('',#1391);
#1228=PLANE('',#1392);
#1229=PLANE('',#1393);
#1230=PLANE('',#1394);
#1231=PLANE('',#1395);
#1232=PLANE('',#1396);
#1233=PLANE('',#1397);
#1234=PLANE('',#1398);
#1235=PLANE('',#1399);
#1236=PLANE('',#1400);
#1237=PLANE('',#1401);
#1238=PLANE('',#1402);
#1239=PLANE('',#1403);
#1240=PLANE('',#1404);
#1241=PLANE('',#1405);
#1242=PLANE('',#1406);
#1243=PLANE('',#1407);
#1244=ADVANCED_FACE('',(#60),#1187,.F.);
#1245=ADVANCED_FACE('',(#61),#1188,.F.);
#1246=ADVANCED_FACE('',(#62),#1189,.F.);
#1247=ADVANCED_FACE('',(#63),#1190,.F.);
#1248=ADVANCED_FACE('',(#64,#43),#1191,.F.);
#1249=ADVANCED_FACE('',(#65),#1192,.F.);
#1250=ADVANCED_FACE('',(#66),#1193,.F.);
#1251=ADVANCED_FACE('',(#67),#1194,.F.);
#1252=ADVANCED_FACE('',(#68),#1195,.F.);
#1253=ADVANCED_FACE('',(#69,#44),#1196,.F.);
#1254=ADVANCED_FACE('',(#70),#1197,.F.);
#1255=ADVANCED_FACE('',(#71),#1198,.F.);
#1256=ADVANCED_FACE('',(#72),#1199,.F.);
#1257=ADVANCED_FACE('',(#73),#1200,.F.);
#1258=ADVANCED_FACE('',(#74),#1201,.F.);
#1259=ADVANCED_FACE('',(#75),#1202,.F.);
#1260=ADVANCED_FACE('',(#76),#1203,.F.);
#1261=ADVANCED_FACE('',(#77),#1204,.F.);
#1262=ADVANCED_FACE('',(#78),#1205,.F.);
#1263=ADVANCED_FACE('',(#79),#1206,.T.);
#1264=ADVANCED_FACE('',(#80),#1207,.F.);
#1265=ADVANCED_FACE('',(#81),#1208,.T.);
#1266=ADVANCED_FACE('',(#82),#1209,.F.);
#1267=ADVANCED_FACE('',(#83),#1210,.T.);
#1268=ADVANCED_FACE('',(#84),#35,.F.);
#1269=ADVANCED_FACE('',(#85,#45),#1211,.T.);
#1270=ADVANCED_FACE('',(#86),#1212,.F.);
#1271=ADVANCED_FACE('',(#87),#36,.F.);
#1272=ADVANCED_FACE('',(#88,#46),#1213,.T.);
#1273=ADVANCED_FACE('',(#89),#37,.F.);
#1274=ADVANCED_FACE('',(#90),#1214,.F.);
#1275=ADVANCED_FACE('',(#91,#47),#1215,.T.);
#1276=ADVANCED_FACE('',(#92),#38,.F.);
#1277=ADVANCED_FACE('',(#93,#48),#1216,.T.);
#1278=ADVANCED_FACE('',(#94,#49,#50),#1217,.T.);
#1279=ADVANCED_FACE('',(#95),#1218,.T.);
#1280=ADVANCED_FACE('',(#96),#39,.F.);
#1281=ADVANCED_FACE('',(#97),#40,.F.);
#1282=ADVANCED_FACE('',(#98),#41,.F.);
#1283=ADVANCED_FACE('',(#99),#42,.F.);
#1284=ADVANCED_FACE('',(#100),#1219,.F.);
#1285=ADVANCED_FACE('',(#101),#1220,.F.);
#1286=ADVANCED_FACE('',(#102),#1221,.F.);
#1287=ADVANCED_FACE('',(#103),#1222,.F.);
#1288=ADVANCED_FACE('',(#104),#1223,.F.);
#1289=ADVANCED_FACE('',(#105),#1224,.F.);
#1290=ADVANCED_FACE('',(#106),#1225,.T.);
#1291=ADVANCED_FACE('',(#107),#1226,.T.);
#1292=ADVANCED_FACE('',(#108),#1227,.T.);
#1293=ADVANCED_FACE('',(#109),#1228,.T.);
#1294=ADVANCED_FACE('',(#110),#1229,.T.);
#1295=ADVANCED_FACE('',(#111),#1230,.T.);
#1296=ADVANCED_FACE('',(#112),#1231,.T.);
#1297=ADVANCED_FACE('',(#113),#1232,.T.);
#1298=ADVANCED_FACE('',(#114),#1233,.T.);
#1299=ADVANCED_FACE('',(#115),#1234,.T.);
#1300=ADVANCED_FACE('',(#116,#51,#52),#1235,.T.);
#1301=ADVANCED_FACE('',(#117),#1236,.T.);
#1302=ADVANCED_FACE('',(#118),#1237,.T.);
#1303=ADVANCED_FACE('',(#119),#1238,.T.);
#1304=ADVANCED_FACE('',(#120),#1239,.T.);
#1305=ADVANCED_FACE('',(#121),#1240,.T.);
#1306=ADVANCED_FACE('',(#122),#1241,.T.);
#1307=ADVANCED_FACE('',(#123,#53,#54,#55),#1242,.T.);
#1308=ADVANCED_FACE('',(#124,#56,#57,#58,#59),#1243,.F.);
#1309=CLOSED_SHELL('',(#1244,#1245,#1246,#1247,#1248,#1249,#1250,#1251,
#1252,#1253,#1254,#1255,#1256,#1257,#1258,#1259,#1260,#1261,#1262,#1263,
#1264,#1265,#1266,#1267,#1268,#1269,#1270,#1271,#1272,#1273,#1274,#1275,
#1276,#1277,#1278,#1279,#1280,#1281,#1282,#1283,#1284,#1285,#1286,#1287,
#1288,#1289,#1290,#1291,#1292,#1293,#1294,#1295,#1296,#1297,#1298,#1299,
#1300,#1301,#1302,#1303,#1304,#1305,#1306,#1307,#1308));
#1310=DERIVED_UNIT_ELEMENT(#1312,1.);
#1311=DERIVED_UNIT_ELEMENT(#2111,-3.);
#1312=(
MASS_UNIT()
NAMED_UNIT(*)
SI_UNIT(.KILO.,.GRAM.)
);
#1313=DERIVED_UNIT((#1310,#1311));
#1314=MEASURE_REPRESENTATION_ITEM('density measure',
POSITIVE_RATIO_MEASURE(7850.),#1313);
#1315=PROPERTY_DEFINITION_REPRESENTATION(#1320,#1317);
#1316=PROPERTY_DEFINITION_REPRESENTATION(#1321,#1318);
#1317=REPRESENTATION('material name',(#1319),#2108);
#1318=REPRESENTATION('density',(#1314),#2108);
#1319=DESCRIPTIVE_REPRESENTATION_ITEM('\X2\92FC\X0\','\X2\92FC\X0\');
#1320=PROPERTY_DEFINITION('material property','material name',#2118);
#1321=PROPERTY_DEFINITION('material property','density of part',#2118);
#1322=AXIS2_PLACEMENT_3D('',#1740,#1408,#1409);
#1323=AXIS2_PLACEMENT_3D('',#1741,#1410,#1411);
#1324=AXIS2_PLACEMENT_3D('',#1750,#1416,#1417);
#1325=AXIS2_PLACEMENT_3D('',#1756,#1421,#1422);
#1326=AXIS2_PLACEMENT_3D('',#1762,#1426,#1427);
#1327=AXIS2_PLACEMENT_3D('',#1765,#1430,#1431);
#1328=AXIS2_PLACEMENT_3D('',#1774,#1436,#1437);
#1329=AXIS2_PLACEMENT_3D('',#1783,#1442,#1443);
#1330=AXIS2_PLACEMENT_3D('',#1789,#1447,#1448);
#1331=AXIS2_PLACEMENT_3D('',#1795,#1452,#1453);
#1332=AXIS2_PLACEMENT_3D('',#1798,#1456,#1457);
#1333=AXIS2_PLACEMENT_3D('',#1807,#1462,#1463);
#1334=AXIS2_PLACEMENT_3D('',#1813,#1467,#1468);
#1335=AXIS2_PLACEMENT_3D('',#1817,#1471,#1472);
#1336=AXIS2_PLACEMENT_3D('',#1823,#1476,#1477);
#1337=AXIS2_PLACEMENT_3D('',#1827,#1480,#1481);
#1338=AXIS2_PLACEMENT_3D('',#1831,#1484,#1485);
#1339=AXIS2_PLACEMENT_3D('',#1833,#1487,#1488);
#1340=AXIS2_PLACEMENT_3D('',#1837,#1491,#1492);
#1341=AXIS2_PLACEMENT_3D('',#1839,#1494,#1495);
#1342=AXIS2_PLACEMENT_3D('',#1848,#1500,#1501);
#1343=AXIS2_PLACEMENT_3D('',#1862,#1509,#1510);
#1344=AXIS2_PLACEMENT_3D('',#1868,#1514,#1515);
#1345=AXIS2_PLACEMENT_3D('',#1897,#1530,#1531);
#1346=AXIS2_PLACEMENT_3D('',#1901,#1534,#1535);
#1347=AXIS2_PLACEMENT_3D('',#1921,#1546,#1547);
#1348=AXIS2_PLACEMENT_3D('',#1923,#1548,#1549);
#1349=AXIS2_PLACEMENT_3D('',#1926,#1551,#1552);
#1350=AXIS2_PLACEMENT_3D('',#1927,#1553,#1554);
#1351=AXIS2_PLACEMENT_3D('',#1929,#1555,#1556);
#1352=AXIS2_PLACEMENT_3D('',#1930,#1557,#1558);
#1353=AXIS2_PLACEMENT_3D('',#1932,#1559,#1560);
#1354=AXIS2_PLACEMENT_3D('',#1934,#1562,#1563);
#1355=AXIS2_PLACEMENT_3D('',#1936,#1564,#1565);
#1356=AXIS2_PLACEMENT_3D('',#1940,#1567,#1568);
#1357=AXIS2_PLACEMENT_3D('',#1942,#1570,#1571);
#1358=AXIS2_PLACEMENT_3D('',#1943,#1572,#1573);
#1359=AXIS2_PLACEMENT_3D('',#1945,#1574,#1575);
#1360=AXIS2_PLACEMENT_3D('',#1946,#1576,#1577);
#1361=AXIS2_PLACEMENT_3D('',#1948,#1578,#1579);
#1362=AXIS2_PLACEMENT_3D('',#1952,#1581,#1582);
#1363=AXIS2_PLACEMENT_3D('',#1956,#1584,#1585);
#1364=AXIS2_PLACEMENT_3D('',#1959,#1587,#1588);
#1365=AXIS2_PLACEMENT_3D('',#1960,#1589,#1590);
#1366=AXIS2_PLACEMENT_3D('',#1964,#1593,#1594);
#1367=AXIS2_PLACEMENT_3D('',#1966,#1595,#1596);
#1368=AXIS2_PLACEMENT_3D('',#1967,#1597,#1598);
#1369=AXIS2_PLACEMENT_3D('',#1969,#1599,#1600);
#1370=AXIS2_PLACEMENT_3D('',#1972,#1602,#1603);
#1371=AXIS2_PLACEMENT_3D('',#1973,#1604,#1605);
#1372=AXIS2_PLACEMENT_3D('',#1975,#1606,#1607);
#1373=AXIS2_PLACEMENT_3D('',#1976,#1608,#1609);
#1374=AXIS2_PLACEMENT_3D('',#1981,#1613,#1614);
#1375=AXIS2_PLACEMENT_3D('',#1995,#1622,#1623);
#1376=AXIS2_PLACEMENT_3D('',#1997,#1624,#1625);
#1377=AXIS2_PLACEMENT_3D('',#1999,#1627,#1628);
#1378=AXIS2_PLACEMENT_3D('',#2001,#1629,#1630);
#1379=AXIS2_PLACEMENT_3D('',#2003,#1632,#1633);
#1380=AXIS2_PLACEMENT_3D('',#2005,#1634,#1635);
#1381=AXIS2_PLACEMENT_3D('',#2007,#1637,#1638);
#1382=AXIS2_PLACEMENT_3D('',#2009,#1639,#1640);
#1383=AXIS2_PLACEMENT_3D('',#2011,#1642,#1643);
#1384=AXIS2_PLACEMENT_3D('',#2016,#1647,#1648);
#1385=AXIS2_PLACEMENT_3D('',#2022,#1653,#1654);
#1386=AXIS2_PLACEMENT_3D('',#2024,#1656,#1657);
#1387=AXIS2_PLACEMENT_3D('',#2026,#1659,#1660);
#1388=AXIS2_PLACEMENT_3D('',#2028,#1662,#1663);
#1389=AXIS2_PLACEMENT_3D('',#2029,#1664,#1665);
#1390=AXIS2_PLACEMENT_3D('',#2035,#1669,#1670);
#1391=AXIS2_PLACEMENT_3D('',#2041,#1674,#1675);
#1392=AXIS2_PLACEMENT_3D('',#2043,#1677,#1678);
#1393=AXIS2_PLACEMENT_3D('',#2051,#1683,#1684);
#1394=AXIS2_PLACEMENT_3D('',#2057,#1688,#1689);
#1395=AXIS2_PLACEMENT_3D('',#2061,#1692,#1693);
#1396=AXIS2_PLACEMENT_3D('',#2063,#1695,#1696);
#1397=AXIS2_PLACEMENT_3D('',#2067,#1699,#1700);
#1398=AXIS2_PLACEMENT_3D('',#2070,#1703,#1704);
#1399=AXIS2_PLACEMENT_3D('',#2075,#1708,#1709);
#1400=AXIS2_PLACEMENT_3D('',#2076,#1710,#1711);
#1401=AXIS2_PLACEMENT_3D('',#2078,#1713,#1714);
#1402=AXIS2_PLACEMENT_3D('',#2080,#1716,#1717);
#1403=AXIS2_PLACEMENT_3D('',#2089,#1722,#1723);
#1404=AXIS2_PLACEMENT_3D('',#2095,#1727,#1728);
#1405=AXIS2_PLACEMENT_3D('',#2101,#1732,#1733);
#1406=AXIS2_PLACEMENT_3D('',#2104,#1736,#1737);
#1407=AXIS2_PLACEMENT_3D('',#2105,#1738,#1739);
#1408=DIRECTION('axis',(0.,0.,1.));
#1409=DIRECTION('refdir',(1.,0.,0.));
#1410=DIRECTION('center_axis',(0.,0.,1.));
#1411=DIRECTION('ref_axis',(0.,-1.,0.));
#1412=DIRECTION('',(0.,-1.,0.));
#1413=DIRECTION('',(1.,0.,0.));
#1414=DIRECTION('',(0.,-1.,0.));
#1415=DIRECTION('',(1.,0.,0.));
#1416=DIRECTION('center_axis',(0.,-1.,0.));
#1417=DIRECTION('ref_axis',(0.,0.,-1.));
#1418=DIRECTION('',(0.,0.,-1.));
#1419=DIRECTION('',(0.,0.,-1.));
#1420=DIRECTION('',(1.,0.,0.));
#1421=DIRECTION('center_axis',(0.,0.,-1.));
#1422=DIRECTION('ref_axis',(0.,1.,0.));
#1423=DIRECTION('',(0.,1.,0.));
#1424=DIRECTION('',(0.,1.,0.));
#1425=DIRECTION('',(1.,0.,0.));
#1426=DIRECTION('center_axis',(0.,1.,0.));
#1427=DIRECTION('ref_axis',(0.,0.,1.));
#1428=DIRECTION('',(0.,0.,1.));
#1429=DIRECTION('',(0.,0.,1.));
#1430=DIRECTION('center_axis',(1.,0.,0.));
#1431=DIRECTION('ref_axis',(0.,0.,-1.));
#1432=DIRECTION('',(0.,1.,0.));
#1433=DIRECTION('',(0.,0.,1.));
#1434=DIRECTION('',(0.,-1.,0.));
#1435=DIRECTION('',(0.,0.,-1.));
#1436=DIRECTION('center_axis',(0.,0.,1.));
#1437=DIRECTION('ref_axis',(0.,-1.,0.));
#1438=DIRECTION('',(0.,-1.,0.));
#1439=DIRECTION('',(1.,0.,0.));
#1440=DIRECTION('',(0.,-1.,0.));
#1441=DIRECTION('',(1.,0.,0.));
#1442=DIRECTION('center_axis',(0.,-1.,0.));
#1443=DIRECTION('ref_axis',(0.,0.,-1.));
#1444=DIRECTION('',(0.,0.,-1.));
#1445=DIRECTION('',(0.,0.,-1.));
#1446=DIRECTION('',(1.,0.,0.));
#1447=DIRECTION('center_axis',(0.,0.,-1.));
#1448=DIRECTION('ref_axis',(0.,1.,0.));
#1449=DIRECTION('',(0.,1.,0.));
#1450=DIRECTION('',(0.,1.,0.));
#1451=DIRECTION('',(1.,0.,0.));
#1452=DIRECTION('center_axis',(0.,1.,0.));
#1453=DIRECTION('ref_axis',(0.,0.,1.));
#1454=DIRECTION('',(0.,0.,1.));
#1455=DIRECTION('',(0.,0.,1.));
#1456=DIRECTION('center_axis',(1.,0.,0.));
#1457=DIRECTION('ref_axis',(0.,0.,-1.));
#1458=DIRECTION('',(0.,1.,0.));
#1459=DIRECTION('',(0.,0.,1.));
#1460=DIRECTION('',(0.,-1.,0.));
#1461=DIRECTION('',(0.,0.,-1.));
#1462=DIRECTION('center_axis',(0.,0.,-1.));
#1463=DIRECTION('ref_axis',(0.,1.,0.));
#1464=DIRECTION('',(1.,0.,0.));
#1465=DIRECTION('',(0.,-1.,0.));
#1466=DIRECTION('',(1.,0.,0.));
#1467=DIRECTION('center_axis',(0.,-1.,0.));
#1468=DIRECTION('ref_axis',(0.,0.,-1.));
#1469=DIRECTION('',(1.,0.,0.));
#1470=DIRECTION('',(0.,0.,1.));
#1471=DIRECTION('center_axis',(0.,0.,-1.));
#1472=DIRECTION('ref_axis',(0.,1.,0.));
#1473=DIRECTION('',(1.,0.,0.));
#1474=DIRECTION('',(0.,-1.,0.));
#1475=DIRECTION('',(1.,0.,0.));
#1476=DIRECTION('center_axis',(0.,-1.,0.));
#1477=DIRECTION('ref_axis',(0.,0.,-1.));
#1478=DIRECTION('',(1.,0.,0.));
#1479=DIRECTION('',(0.,0.,1.));
#1480=DIRECTION('center_axis',(0.,0.,1.));
#1481=DIRECTION('ref_axis',(0.,-1.,0.));
#1482=DIRECTION('',(1.,0.,0.));
#1483=DIRECTION('',(0.,1.,0.));
#1484=DIRECTION('center_axis',(0.,1.,0.));
#1485=DIRECTION('ref_axis',(0.,0.,1.));
#1486=DIRECTION('',(0.,0.,-1.));
#1487=DIRECTION('center_axis',(0.,0.,1.));
#1488=DIRECTION('ref_axis',(0.,-1.,0.));
#1489=DIRECTION('',(1.,0.,0.));
#1490=DIRECTION('',(0.,1.,0.));
#1491=DIRECTION('center_axis',(0.,1.,0.));
#1492=DIRECTION('ref_axis',(0.,0.,1.));
#1493=DIRECTION('',(0.,0.,-1.));
#1494=DIRECTION('center_axis',(0.,1.,0.));
#1495=DIRECTION('ref_axis',(-1.,0.,0.));
#1496=DIRECTION('',(1.,0.,0.));
#1497=DIRECTION('',(0.,0.,1.));
#1498=DIRECTION('',(-1.,0.,0.));
#1499=DIRECTION('',(0.,0.,1.));
#1500=DIRECTION('center_axis',(0.,0.,1.));
#1501=DIRECTION('ref_axis',(1.,0.,0.));
#1502=DIRECTION('',(-1.,0.,0.));
#1503=DIRECTION('',(0.,-1.,0.));
#1504=DIRECTION('',(1.,0.,0.));
#1505=DIRECTION('',(1.1686558153949E-16,1.,0.));
#1506=DIRECTION('',(-1.,0.,0.));
#1507=DIRECTION('',(0.,1.,0.));
#1508=DIRECTION('',(0.,-1.,0.));
#1509=DIRECTION('center_axis',(0.,1.,0.));
#1510=DIRECTION('ref_axis',(-1.,0.,0.));
#1511=DIRECTION('',(0.,0.,1.));
#1512=DIRECTION('',(1.,0.,0.));
#1513=DIRECTION('',(0.,0.,1.));
#1514=DIRECTION('center_axis',(0.,1.,0.));
#1515=DIRECTION('ref_axis',(-1.,0.,0.));
#1516=DIRECTION('',(0.,0.,1.));
#1517=DIRECTION('',(-1.,0.,0.));
#1518=DIRECTION('',(0.,0.,-1.));
#1519=DIRECTION('',(1.,0.,0.));
#1520=DIRECTION('',(0.,0.,1.));
#1521=DIRECTION('',(-1.,0.,0.));
#1522=DIRECTION('',(0.,0.,1.));
#1523=DIRECTION('',(-1.,0.,0.));
#1524=DIRECTION('',(0.,0.,1.));
#1525=DIRECTION('',(-1.,0.,0.));
#1526=DIRECTION('',(0.,0.,1.));
#1527=DIRECTION('',(-1.,0.,0.));
#1528=DIRECTION('',(0.,0.,1.));
#1529=DIRECTION('',(1.,0.,0.));
#1530=DIRECTION('center_axis',(-1.,0.,0.));
#1531=DIRECTION('ref_axis',(0.,-1.,0.));
#1532=DIRECTION('',(0.,1.,0.));
#1533=DIRECTION('',(0.,0.,1.));
#1534=DIRECTION('center_axis',(0.,0.,1.));
#1535=DIRECTION('ref_axis',(1.,0.,0.));
#1536=DIRECTION('',(0.,-1.,0.));
#1537=DIRECTION('',(1.,0.,0.));
#1538=DIRECTION('',(0.,-1.,0.));
#1539=DIRECTION('',(-1.,0.,0.));
#1540=DIRECTION('',(0.,1.,0.));
#1541=DIRECTION('',(-1.,0.,0.));
#1542=DIRECTION('',(0.,-1.,0.));
#1543=DIRECTION('',(1.,0.,0.));
#1544=DIRECTION('',(0.,1.,0.));
#1545=DIRECTION('',(-1.,0.,0.));
#1546=DIRECTION('center_axis',(0.,0.,1.));
#1547=DIRECTION('ref_axis',(1.,0.,0.));
#1548=DIRECTION('center_axis',(0.,0.,1.));
#1549=DIRECTION('ref_axis',(1.,0.,0.));
#1550=DIRECTION('',(0.,0.,1.));
#1551=DIRECTION('center_axis',(0.,0.,-1.));
#1552=DIRECTION('ref_axis',(1.,0.,0.));
#1553=DIRECTION('center_axis',(0.,0.,1.));
#1554=DIRECTION('ref_axis',(1.,0.,0.));
#1555=DIRECTION('center_axis',(0.,0.,1.));
#1556=DIRECTION('ref_axis',(1.,0.,0.));
#1557=DIRECTION('center_axis',(0.,0.,1.));
#1558=DIRECTION('ref_axis',(1.,0.,0.));
#1559=DIRECTION('center_axis',(0.,0.,1.));
#1560=DIRECTION('ref_axis',(1.,0.,0.));
#1561=DIRECTION('',(0.,-1.,0.));
#1562=DIRECTION('center_axis',(0.,0.,1.));
#1563=DIRECTION('ref_axis',(1.,0.,0.));
#1564=DIRECTION('center_axis',(0.,0.,1.));
#1565=DIRECTION('ref_axis',(1.,0.,0.));
#1566=DIRECTION('',(0.,0.,1.));
#1567=DIRECTION('center_axis',(0.,0.,-1.));
#1568=DIRECTION('ref_axis',(1.,0.,0.));
#1569=DIRECTION('',(0.,0.,-1.));
#1570=DIRECTION('center_axis',(0.,0.,-1.));
#1571=DIRECTION('ref_axis',(1.,0.,0.));
#1572=DIRECTION('center_axis',(0.,0.,1.));
#1573=DIRECTION('ref_axis',(1.,0.,0.));
#1574=DIRECTION('center_axis',(0.,0.,1.));
#1575=DIRECTION('ref_axis',(1.,0.,0.));
#1576=DIRECTION('center_axis',(0.,0.,1.));
#1577=DIRECTION('ref_axis',(1.,0.,0.));
#1578=DIRECTION('center_axis',(0.,0.,1.));
#1579=DIRECTION('ref_axis',(1.,0.,0.));
#1580=DIRECTION('',(0.,0.,1.));
#1581=DIRECTION('center_axis',(0.,0.,-1.));
#1582=DIRECTION('ref_axis',(1.,0.,0.));
#1583=DIRECTION('',(0.,0.,-1.));
#1584=DIRECTION('center_axis',(0.,0.,1.));
#1585=DIRECTION('ref_axis',(1.,0.,0.));
#1586=DIRECTION('',(0.,0.,1.));
#1587=DIRECTION('center_axis',(0.,0.,-1.));
#1588=DIRECTION('ref_axis',(1.,0.,0.));
#1589=DIRECTION('center_axis',(0.,0.,1.));
#1590=DIRECTION('ref_axis',(1.,0.,0.));
#1591=DIRECTION('',(1.,0.,0.));
#1592=DIRECTION('',(0.,-1.,0.));
#1593=DIRECTION('center_axis',(0.,0.,1.));
#1594=DIRECTION('ref_axis',(1.,0.,0.));
#1595=DIRECTION('center_axis',(0.,0.,1.));
#1596=DIRECTION('ref_axis',(1.,0.,0.));
#1597=DIRECTION('center_axis',(0.,0.,1.));
#1598=DIRECTION('ref_axis',(1.,0.,0.));
#1599=DIRECTION('center_axis',(0.,0.,1.));
#1600=DIRECTION('ref_axis',(1.,0.,0.));
#1601=DIRECTION('',(0.,0.,1.));
#1602=DIRECTION('center_axis',(0.,0.,-1.));
#1603=DIRECTION('ref_axis',(1.,0.,0.));
#1604=DIRECTION('center_axis',(0.,0.,1.));
#1605=DIRECTION('ref_axis',(1.,0.,0.));
#1606=DIRECTION('center_axis',(0.,0.,1.));
#1607=DIRECTION('ref_axis',(1.,0.,0.));
#1608=DIRECTION('center_axis',(-1.,0.,0.));
#1609=DIRECTION('ref_axis',(0.,-1.,0.));
#1610=DIRECTION('',(0.,1.,0.));
#1611=DIRECTION('',(0.,0.,1.));
#1612=DIRECTION('',(0.,-1.,0.));
#1613=DIRECTION('center_axis',(0.,-1.,0.));
#1614=DIRECTION('ref_axis',(1.,0.,0.));
#1615=DIRECTION('',(-1.,0.,0.));
#1616=DIRECTION('',(0.,0.,1.));
#1617=DIRECTION('',(1.,0.,0.));
#1618=DIRECTION('',(0.,0.,1.));
#1619=DIRECTION('',(1.,0.,0.));
#1620=DIRECTION('',(0.,0.,1.));
#1621=DIRECTION('',(1.,0.,0.));
#1622=DIRECTION('center_axis',(0.,0.,1.));
#1623=DIRECTION('ref_axis',(1.,0.,0.));
#1624=DIRECTION('center_axis',(0.,0.,1.));
#1625=DIRECTION('ref_axis',(1.,0.,0.));
#1626=DIRECTION('',(0.,0.,1.));
#1627=DIRECTION('center_axis',(0.,0.,1.));
#1628=DIRECTION('ref_axis',(1.,0.,0.));
#1629=DIRECTION('center_axis',(0.,0.,1.));
#1630=DIRECTION('ref_axis',(1.,0.,0.));
#1631=DIRECTION('',(0.,0.,1.));
#1632=DIRECTION('center_axis',(0.,0.,1.));
#1633=DIRECTION('ref_axis',(1.,0.,0.));
#1634=DIRECTION('center_axis',(0.,0.,1.));
#1635=DIRECTION('ref_axis',(1.,0.,0.));
#1636=DIRECTION('',(0.,0.,1.));
#1637=DIRECTION('center_axis',(0.,0.,1.));
#1638=DIRECTION('ref_axis',(1.,0.,0.));
#1639=DIRECTION('center_axis',(0.,0.,1.));
#1640=DIRECTION('ref_axis',(1.,0.,0.));
#1641=DIRECTION('',(0.,0.,1.));
#1642=DIRECTION('center_axis',(-1.,0.,0.));
#1643=DIRECTION('ref_axis',(0.,-1.,0.));
#1644=DIRECTION('',(0.,1.,0.));
#1645=DIRECTION('',(0.,-1.,0.));
#1646=DIRECTION('',(0.,0.,1.));
#1647=DIRECTION('center_axis',(1.,0.,0.));
#1648=DIRECTION('ref_axis',(0.,1.,0.));
#1649=DIRECTION('',(0.,0.,-1.));
#1650=DIRECTION('',(0.,1.,0.));
#1651=DIRECTION('',(0.,-1.,0.));
#1652=DIRECTION('',(0.,0.,-1.));
#1653=DIRECTION('center_axis',(0.,0.,1.));
#1654=DIRECTION('ref_axis',(1.,0.,0.));
#1655=DIRECTION('',(1.,0.,0.));
#1656=DIRECTION('center_axis',(0.,-1.,0.));
#1657=DIRECTION('ref_axis',(1.,0.,0.));
#1658=DIRECTION('',(0.,0.,1.));
#1659=DIRECTION('center_axis',(0.,1.,0.));
#1660=DIRECTION('ref_axis',(-1.,0.,0.));
#1661=DIRECTION('',(0.,0.,1.));
#1662=DIRECTION('center_axis',(1.,0.,0.));
#1663=DIRECTION('ref_axis',(0.,1.,0.));
#1664=DIRECTION('center_axis',(1.,-7.28015098114857E-16,0.));
#1665=DIRECTION('ref_axis',(7.28015098114857E-16,1.,0.));
#1666=DIRECTION('',(-7.28015098114857E-16,-1.,0.));
#1667=DIRECTION('',(7.28015098114857E-16,1.,0.));
#1668=DIRECTION('',(0.,0.,1.));
#1669=DIRECTION('center_axis',(-1.,0.,0.));
#1670=DIRECTION('ref_axis',(0.,-1.,0.));
#1671=DIRECTION('',(0.,1.,0.));
#1672=DIRECTION('',(0.,0.,1.));
#1673=DIRECTION('',(0.,-1.,0.));
#1674=DIRECTION('center_axis',(0.,0.,1.));
#1675=DIRECTION('ref_axis',(1.,0.,0.));
#1676=DIRECTION('',(1.,0.,0.));
#1677=DIRECTION('center_axis',(0.,0.,1.));
#1678=DIRECTION('ref_axis',(1.,0.,0.));
#1679=DIRECTION('',(0.,1.,0.));
#1680=DIRECTION('',(-1.,0.,0.));
#1681=DIRECTION('',(0.,1.,0.));
#1682=DIRECTION('',(1.,0.,0.));
#1683=DIRECTION('center_axis',(1.,-7.28015098114857E-16,0.));
#1684=DIRECTION('ref_axis',(7.28015098114857E-16,1.,0.));
#1685=DIRECTION('',(-7.28015098114857E-16,-1.,0.));
#1686=DIRECTION('',(0.,0.,1.));
#1687=DIRECTION('',(7.28015098114857E-16,1.,0.));
#1688=DIRECTION('center_axis',(-1.,0.,0.));
#1689=DIRECTION('ref_axis',(0.,-1.,0.));
#1690=DIRECTION('',(0.,-1.,0.));
#1691=DIRECTION('',(0.,0.,1.));
#1692=DIRECTION('center_axis',(0.,0.,1.));
#1693=DIRECTION('ref_axis',(1.,0.,0.));
#1694=DIRECTION('',(-1.,0.,0.));
#1695=DIRECTION('center_axis',(0.,0.,1.));
#1696=DIRECTION('ref_axis',(1.,0.,0.));
#1697=DIRECTION('',(1.,0.,0.));
#1698=DIRECTION('',(0.,1.,0.));
#1699=DIRECTION('center_axis',(0.,-1.,0.));
#1700=DIRECTION('ref_axis',(1.,0.,0.));
#1701=DIRECTION('',(0.,0.,1.));
#1702=DIRECTION('',(0.,0.,1.));
#1703=DIRECTION('center_axis',(0.,1.,0.));
#1704=DIRECTION('ref_axis',(-1.,0.,0.));
#1705=DIRECTION('',(0.,0.,-1.));
#1706=DIRECTION('',(-1.,0.,0.));
#1707=DIRECTION('',(0.,0.,1.));
#1708=DIRECTION('center_axis',(1.,0.,0.));
#1709=DIRECTION('ref_axis',(0.,1.,0.));
#1710=DIRECTION('center_axis',(0.,0.,1.));
#1711=DIRECTION('ref_axis',(1.,0.,0.));
#1712=DIRECTION('',(0.,1.,0.));
#1713=DIRECTION('center_axis',(1.,0.,0.));
#1714=DIRECTION('ref_axis',(0.,1.,0.));
#1715=DIRECTION('',(0.,-1.,0.));
#1716=DIRECTION('center_axis',(0.,1.,0.));
#1717=DIRECTION('ref_axis',(-1.,0.,0.));
#1718=DIRECTION('',(-1.,0.,0.));
#1719=DIRECTION('',(0.,0.,1.));
#1720=DIRECTION('',(-1.,0.,0.));
#1721=DIRECTION('',(0.,0.,1.));
#1722=DIRECTION('center_axis',(1.,0.,0.));
#1723=DIRECTION('ref_axis',(0.,1.,0.));
#1724=DIRECTION('',(0.,1.,0.));
#1725=DIRECTION('',(0.,1.,0.));
#1726=DIRECTION('',(0.,0.,1.));
#1727=DIRECTION('center_axis',(0.,-1.,0.));
#1728=DIRECTION('ref_axis',(1.,0.,0.));
#1729=DIRECTION('',(1.,0.,0.));
#1730=DIRECTION('',(1.,0.,0.));
#1731=DIRECTION('',(0.,0.,1.));
#1732=DIRECTION('center_axis',(-1.,0.,0.));
#1733=DIRECTION('ref_axis',(0.,-1.,0.));
#1734=DIRECTION('',(0.,-1.,0.));
#1735=DIRECTION('',(0.,-1.,0.));
#1736=DIRECTION('center_axis',(0.,0.,1.));
#1737=DIRECTION('ref_axis',(1.,0.,0.));
#1738=DIRECTION('center_axis',(0.,0.,1.));
#1739=DIRECTION('ref_axis',(1.,0.,0.));
#1740=CARTESIAN_POINT('',(0.,0.,0.));
#1741=CARTESIAN_POINT('Origin',(-23.9,13.3,79.75));
#1742=CARTESIAN_POINT('',(-23.8,13.3,79.75));
#1743=CARTESIAN_POINT('',(-23.8,8.7,79.75));
#1744=CARTESIAN_POINT('',(-23.8,14.5,79.75));
#1745=CARTESIAN_POINT('',(-20.7,13.3,79.75));
#1746=CARTESIAN_POINT('',(-23.9,13.3,79.75));
#1747=CARTESIAN_POINT('',(-20.7,8.7,79.75));
#1748=CARTESIAN_POINT('',(-20.7,8.7,79.75));
#1749=CARTESIAN_POINT('',(-23.9,8.7,79.75));
#1750=CARTESIAN_POINT('Origin',(-23.9,8.7,79.75));
#1751=CARTESIAN_POINT('',(-23.8,8.7,74.15));
#1752=CARTESIAN_POINT('',(-23.8,8.7,74.875));
#1753=CARTESIAN_POINT('',(-20.7,8.7,74.15));
#1754=CARTESIAN_POINT('',(-20.7,8.7,74.15));
#1755=CARTESIAN_POINT('',(-23.9,8.7,74.15));
#1756=CARTESIAN_POINT('Origin',(-23.9,8.7,74.15));
#1757=CARTESIAN_POINT('',(-23.8,13.3,74.15));
#1758=CARTESIAN_POINT('',(-23.8,12.2,74.15));
#1759=CARTESIAN_POINT('',(-20.7,13.3,74.15));
#1760=CARTESIAN_POINT('',(-20.7,13.3,74.15));
#1761=CARTESIAN_POINT('',(-23.9,13.3,74.15));
#1762=CARTESIAN_POINT('Origin',(-23.9,13.3,74.15));
#1763=CARTESIAN_POINT('',(-23.8,13.3,72.075));
#1764=CARTESIAN_POINT('',(-20.7,13.3,79.75));
#1765=CARTESIAN_POINT('Origin',(-20.7,11.,76.95));
#1766=CARTESIAN_POINT('',(-20.7,9.8,78.65));
#1767=CARTESIAN_POINT('',(-20.7,12.2,78.65));
#1768=CARTESIAN_POINT('',(-20.7,11.6,78.65));
#1769=CARTESIAN_POINT('',(-20.7,9.8,75.25));
#1770=CARTESIAN_POINT('',(-20.7,9.8,77.8));
#1771=CARTESIAN_POINT('',(-20.7,12.2,75.25));
#1772=CARTESIAN_POINT('',(-20.7,10.4,75.25));
#1773=CARTESIAN_POINT('',(-20.7,12.2,76.1));
#1774=CARTESIAN_POINT('Origin',(-23.9,-8.7,79.75));
#1775=CARTESIAN_POINT('',(-23.8,-8.7,79.75));
#1776=CARTESIAN_POINT('',(-23.8,-13.3,79.75));
#1777=CARTESIAN_POINT('',(-23.8,3.5,79.75));
#1778=CARTESIAN_POINT('',(-20.7,-8.7,79.75));
#1779=CARTESIAN_POINT('',(-23.9,-8.7,79.75));
#1780=CARTESIAN_POINT('',(-20.7,-13.3,79.75));
#1781=CARTESIAN_POINT('',(-20.7,-13.3,79.75));
#1782=CARTESIAN_POINT('',(-23.9,-13.3,79.75));
#1783=CARTESIAN_POINT('Origin',(-23.9,-13.3,79.75));
#1784=CARTESIAN_POINT('',(-23.8,-13.3,74.15));
#1785=CARTESIAN_POINT('',(-23.8,-13.3,74.875));
#1786=CARTESIAN_POINT('',(-20.7,-13.3,74.15));
#1787=CARTESIAN_POINT('',(-20.7,-13.3,74.15));
#1788=CARTESIAN_POINT('',(-23.9,-13.3,74.15));
#1789=CARTESIAN_POINT('Origin',(-23.9,-13.3,74.15));
#1790=CARTESIAN_POINT('',(-23.8,-8.7,74.15));
#1791=CARTESIAN_POINT('',(-23.8,1.2,74.15));
#1792=CARTESIAN_POINT('',(-20.7,-8.7,74.15));
#1793=CARTESIAN_POINT('',(-20.7,-8.7,74.15));
#1794=CARTESIAN_POINT('',(-23.9,-8.7,74.15));
#1795=CARTESIAN_POINT('Origin',(-23.9,-8.7,74.15));
#1796=CARTESIAN_POINT('',(-23.8,-8.7,72.075));
#1797=CARTESIAN_POINT('',(-20.7,-8.7,79.75));
#1798=CARTESIAN_POINT('Origin',(-20.7,-11.,76.95));
#1799=CARTESIAN_POINT('',(-20.7,-12.2,78.65));
#1800=CARTESIAN_POINT('',(-20.7,-9.8,78.65));
#1801=CARTESIAN_POINT('',(-20.7,-10.4,78.65));
#1802=CARTESIAN_POINT('',(-20.7,-12.2,75.25));
#1803=CARTESIAN_POINT('',(-20.7,-12.2,77.8));
#1804=CARTESIAN_POINT('',(-20.7,-9.8,75.25));
#1805=CARTESIAN_POINT('',(-20.7,-11.6,75.25));
#1806=CARTESIAN_POINT('',(-20.7,-9.8,76.1));
#1807=CARTESIAN_POINT('Origin',(-23.9,9.8,75.25));
#1808=CARTESIAN_POINT('',(-17.7,9.8,75.25));
#1809=CARTESIAN_POINT('',(-23.9,9.8,75.25));
#1810=CARTESIAN_POINT('',(-17.7,12.2,75.25));
#1811=CARTESIAN_POINT('',(-17.7,-2.95,75.25));
#1812=CARTESIAN_POINT('',(-23.9,12.2,75.25));
#1813=CARTESIAN_POINT('Origin',(-23.9,9.8,78.65));
#1814=CARTESIAN_POINT('',(-17.7,9.8,78.65));
#1815=CARTESIAN_POINT('',(-23.9,9.8,78.65));
#1816=CARTESIAN_POINT('',(-17.7,9.8,76.225));
#1817=CARTESIAN_POINT('Origin',(-23.9,-12.2,75.25));
#1818=CARTESIAN_POINT('',(-17.7,-12.2,75.25));
#1819=CARTESIAN_POINT('',(-23.9,-12.2,75.25));
#1820=CARTESIAN_POINT('',(-17.7,-9.8,75.25));
#1821=CARTESIAN_POINT('',(-17.7,-13.95,75.25));
#1822=CARTESIAN_POINT('',(-23.9,-9.8,75.25));
#1823=CARTESIAN_POINT('Origin',(-23.9,-12.2,78.65));
#1824=CARTESIAN_POINT('',(-17.7,-12.2,78.65));
#1825=CARTESIAN_POINT('',(-23.9,-12.2,78.65));
#1826=CARTESIAN_POINT('',(-17.7,-12.2,76.225));
#1827=CARTESIAN_POINT('Origin',(-23.9,12.2,78.65));
#1828=CARTESIAN_POINT('',(-17.7,12.2,78.65));
#1829=CARTESIAN_POINT('',(-23.9,12.2,78.65));
#1830=CARTESIAN_POINT('',(-17.7,-1.75,78.65));
#1831=CARTESIAN_POINT('Origin',(-23.9,12.2,75.25));
#1832=CARTESIAN_POINT('',(-17.7,12.2,74.525));
#1833=CARTESIAN_POINT('Origin',(-23.9,-9.8,78.65));
#1834=CARTESIAN_POINT('',(-17.7,-9.8,78.65));
#1835=CARTESIAN_POINT('',(-23.9,-9.8,78.65));
#1836=CARTESIAN_POINT('',(-17.7,-12.75,78.65));
#1837=CARTESIAN_POINT('Origin',(-23.9,-9.8,75.25));
#1838=CARTESIAN_POINT('',(-17.7,-9.8,74.525));
#1839=CARTESIAN_POINT('Origin',(7.,15.85,66.));
#1840=CARTESIAN_POINT('',(-7.,15.85,70.));
#1841=CARTESIAN_POINT('',(7.,15.85,70.));
#1842=CARTESIAN_POINT('',(3.5,15.85,70.));
#1843=CARTESIAN_POINT('',(-7.,15.85,66.));
#1844=CARTESIAN_POINT('',(-7.,15.85,66.));
#1845=CARTESIAN_POINT('',(7.,15.85,66.));
#1846=CARTESIAN_POINT('',(7.,15.85,66.));
#1847=CARTESIAN_POINT('',(7.,15.85,66.));
#1848=CARTESIAN_POINT('Origin',(-2.25,0.,66.));
#1849=CARTESIAN_POINT('',(-7.,9.5,66.));
#1850=CARTESIAN_POINT('',(-16.5,9.5,66.));
#1851=CARTESIAN_POINT('',(12.,9.5,66.));
#1852=CARTESIAN_POINT('',(-16.5,-9.5,66.));
#1853=CARTESIAN_POINT('',(-16.5,9.5,66.));
#1854=CARTESIAN_POINT('',(12.,-9.5,66.));
#1855=CARTESIAN_POINT('',(-16.5,-9.5,66.));
#1856=CARTESIAN_POINT('',(12.,9.5,66.));
#1857=CARTESIAN_POINT('',(12.,-9.5,66.));
#1858=CARTESIAN_POINT('',(7.,9.5,66.));
#1859=CARTESIAN_POINT('',(12.,9.5,66.));
#1860=CARTESIAN_POINT('',(7.,9.4,66.));
#1861=CARTESIAN_POINT('',(-7.,15.85,66.));
#1862=CARTESIAN_POINT('Origin',(12.,9.5,70.));
#1863=CARTESIAN_POINT('',(-7.,9.5,73.8));
#1864=CARTESIAN_POINT('',(-7.,9.5,68.));
#1865=CARTESIAN_POINT('',(-16.5,9.5,73.8));
#1866=CARTESIAN_POINT('',(4.825,9.5,73.8));
#1867=CARTESIAN_POINT('',(-16.5,9.5,66.));
#1868=CARTESIAN_POINT('Origin',(19.1,15.7,70.));
#1869=CARTESIAN_POINT('',(7.,15.7,70.));
#1870=CARTESIAN_POINT('',(7.,15.7,94.));
#1871=CARTESIAN_POINT('',(7.,15.7,70.25));
#1872=CARTESIAN_POINT('',(-7.,15.7,94.));
#1873=CARTESIAN_POINT('',(9.55,15.7,94.));
#1874=CARTESIAN_POINT('',(-7.,15.7,70.));
#1875=CARTESIAN_POINT('',(-7.,15.7,70.25));
#1876=CARTESIAN_POINT('',(-23.35,15.7,70.));
#1877=CARTESIAN_POINT('',(9.55,15.7,70.));
#1878=CARTESIAN_POINT('',(-23.35,15.7,70.1));
#1879=CARTESIAN_POINT('',(-23.35,15.7,67.));
#1880=CARTESIAN_POINT('',(-23.8,15.7,70.1));
#1881=CARTESIAN_POINT('',(-2.95,15.7,70.1));
#1882=CARTESIAN_POINT('',(-23.8,15.7,90.));
#1883=CARTESIAN_POINT('',(-23.8,15.7,70.));
#1884=CARTESIAN_POINT('',(-16.,15.7,90.));
#1885=CARTESIAN_POINT('',(19.1,15.7,90.));
#1886=CARTESIAN_POINT('',(-16.,15.7,104.));
#1887=CARTESIAN_POINT('',(-16.,15.7,90.));
#1888=CARTESIAN_POINT('',(17.,15.7,104.));
#1889=CARTESIAN_POINT('',(17.,15.7,104.));
#1890=CARTESIAN_POINT('',(17.,15.7,90.));
#1891=CARTESIAN_POINT('',(17.,15.7,90.));
#1892=CARTESIAN_POINT('',(19.1,15.7,90.));
#1893=CARTESIAN_POINT('',(19.1,15.7,90.));
#1894=CARTESIAN_POINT('',(19.1,15.7,70.));
#1895=CARTESIAN_POINT('',(19.1,15.7,70.));
#1896=CARTESIAN_POINT('',(9.55,15.7,70.));
#1897=CARTESIAN_POINT('Origin',(-16.5,9.5,66.));
#1898=CARTESIAN_POINT('',(-16.5,-9.5,73.8));
#1899=CARTESIAN_POINT('',(-16.5,4.75,73.8));
#1900=CARTESIAN_POINT('',(-16.5,-9.5,66.));
#1901=CARTESIAN_POINT('Origin',(-2.35,0.,73.8));
#1902=CARTESIAN_POINT('',(7.,12.65,73.8));
#1903=CARTESIAN_POINT('',(7.,9.5,73.8));
#1904=CARTESIAN_POINT('',(7.,6.3,73.8));
#1905=CARTESIAN_POINT('',(12.,9.5,73.8));
#1906=CARTESIAN_POINT('',(4.825,9.5,73.8));
#1907=CARTESIAN_POINT('',(12.,-9.5,73.8));
#1908=CARTESIAN_POINT('',(12.,-4.75,73.8));
#1909=CARTESIAN_POINT('',(-7.175,-9.5,73.8));
#1910=CARTESIAN_POINT('',(-7.,12.65,73.8));
#1911=CARTESIAN_POINT('',(-7.,7.925,73.8));
#1912=CARTESIAN_POINT('',(-17.7,12.65,73.8));
#1913=CARTESIAN_POINT('',(-10.025,12.65,73.8));
#1914=CARTESIAN_POINT('',(-17.7,-12.65,73.8));
#1915=CARTESIAN_POINT('',(-17.7,-7.85,73.8));
#1916=CARTESIAN_POINT('',(19.1,-12.65,73.8));
#1917=CARTESIAN_POINT('',(8.375,-12.65,73.8));
#1918=CARTESIAN_POINT('',(19.1,12.65,73.8));
#1919=CARTESIAN_POINT('',(19.1,-15.7,73.8));
#1920=CARTESIAN_POINT('',(-10.025,12.65,73.8));
#1921=CARTESIAN_POINT('Origin',(25.,18.5,67.));
#1922=CARTESIAN_POINT('',(21.75,18.5,67.));
#1923=CARTESIAN_POINT('Origin',(25.,18.5,67.));
#1924=CARTESIAN_POINT('',(21.75,18.5,70.));
#1925=CARTESIAN_POINT('',(21.75,18.5,67.));
#1926=CARTESIAN_POINT('Origin',(25.,18.5,70.));
#1927=CARTESIAN_POINT('Origin',(25.,18.5,67.));
#1928=CARTESIAN_POINT('',(23.2,18.5,67.));
#1929=CARTESIAN_POINT('Origin',(25.,18.5,67.));
#1930=CARTESIAN_POINT('Origin',(-25.,18.5,70.1));
#1931=CARTESIAN_POINT('',(-23.8,15.4796523378922,70.1));
#1932=CARTESIAN_POINT('Origin',(-25.,18.5,70.1));
#1933=CARTESIAN_POINT('',(-23.8,17.1,70.1));
#1934=CARTESIAN_POINT('Origin',(-25.,18.5,67.));
#1935=CARTESIAN_POINT('',(-28.25,18.5,67.));
#1936=CARTESIAN_POINT('Origin',(-25.,18.5,67.));
#1937=CARTESIAN_POINT('',(-28.25,18.5,70.));
#1938=CARTESIAN_POINT('',(-28.25,18.5,67.));
#1939=CARTESIAN_POINT('',(-23.8,15.4796523378922,70.));
#1940=CARTESIAN_POINT('Origin',(-25.,18.5,70.));
#1941=CARTESIAN_POINT('',(-23.8,15.4796523378922,67.));
#1942=CARTESIAN_POINT('Origin',(-25.,18.5,70.));
#1943=CARTESIAN_POINT('Origin',(-25.,18.5,67.));
#1944=CARTESIAN_POINT('',(-26.8,18.5,67.));
#1945=CARTESIAN_POINT('Origin',(-25.,18.5,67.));
#1946=CARTESIAN_POINT('Origin',(-25.,-18.5,67.));
#1947=CARTESIAN_POINT('',(-28.25,-18.5,67.));
#1948=CARTESIAN_POINT('Origin',(-25.,-18.5,67.));
#1949=CARTESIAN_POINT('',(-28.25,-18.5,70.));
#1950=CARTESIAN_POINT('',(-28.25,-18.5,67.));
#1951=CARTESIAN_POINT('',(-23.35,-15.7,70.));
#1952=CARTESIAN_POINT('Origin',(-25.,-18.5,70.));
#1953=CARTESIAN_POINT('',(-23.35,-15.7,70.1));
#1954=CARTESIAN_POINT('',(-23.35,-15.7,67.));
#1955=CARTESIAN_POINT('',(-23.8,-15.4796523378922,70.1));
#1956=CARTESIAN_POINT('Origin',(-25.,-18.5,70.1));
#1957=CARTESIAN_POINT('',(-23.8,-15.4796523378922,70.));
#1958=CARTESIAN_POINT('',(-23.8,-15.4796523378922,67.));
#1959=CARTESIAN_POINT('Origin',(-25.,-18.5,70.));
#1960=CARTESIAN_POINT('Origin',(-25.,-18.5,70.1));
#1961=CARTESIAN_POINT('',(-23.8,-15.7,70.1));
#1962=CARTESIAN_POINT('',(-24.4,-15.7,70.1));
#1963=CARTESIAN_POINT('',(-23.8,-1.4,70.1));
#1964=CARTESIAN_POINT('Origin',(-25.,-18.5,67.));
#1965=CARTESIAN_POINT('',(-26.8,-18.5,67.));
#1966=CARTESIAN_POINT('Origin',(-25.,-18.5,67.));
#1967=CARTESIAN_POINT('Origin',(25.,-18.5,67.));
#1968=CARTESIAN_POINT('',(21.75,-18.5,67.));
#1969=CARTESIAN_POINT('Origin',(25.,-18.5,67.));
#1970=CARTESIAN_POINT('',(21.75,-18.5,70.));
#1971=CARTESIAN_POINT('',(21.75,-18.5,67.));
#1972=CARTESIAN_POINT('Origin',(25.,-18.5,70.));
#1973=CARTESIAN_POINT('Origin',(25.,-18.5,67.));
#1974=CARTESIAN_POINT('',(23.2,-18.5,67.));
#1975=CARTESIAN_POINT('Origin',(25.,-18.5,67.));
#1976=CARTESIAN_POINT('Origin',(-23.8,15.7,70.));
#1977=CARTESIAN_POINT('',(-23.8,7.85,70.));
#1978=CARTESIAN_POINT('',(-23.8,-15.7,90.));
#1979=CARTESIAN_POINT('',(-23.8,-15.7,70.));
#1980=CARTESIAN_POINT('',(-23.8,15.7,90.));
#1981=CARTESIAN_POINT('Origin',(-23.8,-15.7,70.));
#1982=CARTESIAN_POINT('',(19.1,-15.7,70.));
#1983=CARTESIAN_POINT('',(-11.9,-15.7,70.));
#1984=CARTESIAN_POINT('',(19.1,-15.7,90.));
#1985=CARTESIAN_POINT('',(19.1,-15.7,70.));
#1986=CARTESIAN_POINT('',(17.,-15.7,90.));
#1987=CARTESIAN_POINT('',(-23.8,-15.7,90.));
#1988=CARTESIAN_POINT('',(17.,-15.7,104.));
#1989=CARTESIAN_POINT('',(17.,-15.7,90.));
#1990=CARTESIAN_POINT('',(-16.,-15.7,104.));
#1991=CARTESIAN_POINT('',(-16.,-15.7,104.));
#1992=CARTESIAN_POINT('',(-16.,-15.7,90.));
#1993=CARTESIAN_POINT('',(-16.,-15.7,90.));
#1994=CARTESIAN_POINT('',(-23.8,-15.7,90.));
#1995=CARTESIAN_POINT('Origin',(25.,18.5,64.9));
#1996=CARTESIAN_POINT('',(23.2,18.5,65.));
#1997=CARTESIAN_POINT('Origin',(25.,18.5,65.));
#1998=CARTESIAN_POINT('',(23.2,18.5,64.9));
#1999=CARTESIAN_POINT('Origin',(-25.,18.5,64.9));
#2000=CARTESIAN_POINT('',(-26.8,18.5,65.));
#2001=CARTESIAN_POINT('Origin',(-25.,18.5,65.));
#2002=CARTESIAN_POINT('',(-26.8,18.5,64.9));
#2003=CARTESIAN_POINT('Origin',(-25.,-18.5,64.9));
#2004=CARTESIAN_POINT('',(-26.8,-18.5,65.));
#2005=CARTESIAN_POINT('Origin',(-25.,-18.5,65.));
#2006=CARTESIAN_POINT('',(-26.8,-18.5,64.9));
#2007=CARTESIAN_POINT('Origin',(25.,-18.5,64.9));
#2008=CARTESIAN_POINT('',(23.2,-18.5,65.));
#2009=CARTESIAN_POINT('Origin',(25.,-18.5,65.));
#2010=CARTESIAN_POINT('',(23.2,-18.5,64.9));
#2011=CARTESIAN_POINT('Origin',(-7.,15.8,70.5));
#2012=CARTESIAN_POINT('',(-7.,7.925,70.));
#2013=CARTESIAN_POINT('',(-7.,12.65,94.));
#2014=CARTESIAN_POINT('',(-7.,15.8,94.));
#2015=CARTESIAN_POINT('',(-7.,12.65,72.15));
#2016=CARTESIAN_POINT('Origin',(7.,12.6,70.5));
#2017=CARTESIAN_POINT('',(7.,12.65,94.));
#2018=CARTESIAN_POINT('',(7.,12.65,72.15));
#2019=CARTESIAN_POINT('',(7.,12.6,94.));
#2020=CARTESIAN_POINT('',(7.,4.7,70.));
#2021=CARTESIAN_POINT('',(7.,9.5,68.));
#2022=CARTESIAN_POINT('Origin',(0.,14.2,94.));
#2023=CARTESIAN_POINT('',(-8.85,12.65,94.));
#2024=CARTESIAN_POINT('Origin',(-12.,-9.5,70.));
#2025=CARTESIAN_POINT('',(12.,-9.5,66.));
#2026=CARTESIAN_POINT('Origin',(12.,9.5,70.));
#2027=CARTESIAN_POINT('',(12.,9.5,66.));
#2028=CARTESIAN_POINT('Origin',(12.,-9.5,70.));
#2029=CARTESIAN_POINT('Origin',(17.,12.65,90.));
#2030=CARTESIAN_POINT('',(17.,12.65,90.));
#2031=CARTESIAN_POINT('',(17.,6.32499999999999,90.));
#2032=CARTESIAN_POINT('',(17.,12.65,104.));
#2033=CARTESIAN_POINT('',(17.,12.65,104.));
#2034=CARTESIAN_POINT('',(17.,12.65,90.));
#2035=CARTESIAN_POINT('Origin',(-16.,15.7,90.));
#2036=CARTESIAN_POINT('',(-16.,12.65,90.));
#2037=CARTESIAN_POINT('',(-16.,7.85,90.));
#2038=CARTESIAN_POINT('',(-16.,12.65,104.));
#2039=CARTESIAN_POINT('',(-16.,12.65,90.));
#2040=CARTESIAN_POINT('',(-16.,15.7,104.));
#2041=CARTESIAN_POINT('Origin',(0.499999999999998,14.175,104.));
#2042=CARTESIAN_POINT('',(-16.,12.65,104.));
#2043=CARTESIAN_POINT('Origin',(-20.75,0.,90.));
#2044=CARTESIAN_POINT('',(-16.,-12.65,90.));
#2045=CARTESIAN_POINT('',(-16.,-6.325,90.));
#2046=CARTESIAN_POINT('',(-17.7,-12.65,90.));
#2047=CARTESIAN_POINT('',(19.1,-12.65,90.));
#2048=CARTESIAN_POINT('',(-17.7,12.65,90.));
#2049=CARTESIAN_POINT('',(-17.7,-15.7,90.));
#2050=CARTESIAN_POINT('',(-17.7,12.65,90.));
#2051=CARTESIAN_POINT('Origin',(17.,-15.7,90.));
#2052=CARTESIAN_POINT('',(17.,-12.65,90.));
#2053=CARTESIAN_POINT('',(17.,-7.85000000000001,90.));
#2054=CARTESIAN_POINT('',(17.,-12.65,104.));
#2055=CARTESIAN_POINT('',(17.,-12.65,90.));
#2056=CARTESIAN_POINT('',(17.,-15.7,104.));
#2057=CARTESIAN_POINT('Origin',(-16.,-12.65,90.));
#2058=CARTESIAN_POINT('',(-16.,-12.65,104.));
#2059=CARTESIAN_POINT('',(-16.,-12.65,104.));
#2060=CARTESIAN_POINT('',(-16.,-12.65,90.));
#2061=CARTESIAN_POINT('Origin',(0.499999999999998,-14.175,104.));
#2062=CARTESIAN_POINT('',(17.,-12.65,104.));
#2063=CARTESIAN_POINT('Origin',(-20.75,0.,90.));
#2064=CARTESIAN_POINT('',(19.1,12.65,90.));
#2065=CARTESIAN_POINT('',(-17.7,12.65,90.));
#2066=CARTESIAN_POINT('',(19.1,12.65,90.));
#2067=CARTESIAN_POINT('Origin',(-17.7,12.65,73.8));
#2068=CARTESIAN_POINT('',(19.1,12.65,73.8));
#2069=CARTESIAN_POINT('',(-17.7,12.65,73.8));
#2070=CARTESIAN_POINT('Origin',(19.1,-12.65,73.8));
#2071=CARTESIAN_POINT('',(-17.7,-12.65,73.8));
#2072=CARTESIAN_POINT('',(19.1,-12.65,90.));
#2073=CARTESIAN_POINT('',(19.1,-12.65,90.));
#2074=CARTESIAN_POINT('',(19.1,-12.65,73.8));
#2075=CARTESIAN_POINT('Origin',(-17.7,-15.7,73.8));
#2076=CARTESIAN_POINT('Origin',(-20.75,0.,90.));
#2077=CARTESIAN_POINT('',(19.1,-15.7,90.));
#2078=CARTESIAN_POINT('Origin',(19.1,-15.7,70.));
#2079=CARTESIAN_POINT('',(19.1,-7.85,70.));
#2080=CARTESIAN_POINT('Origin',(30.,23.,65.));
#2081=CARTESIAN_POINT('',(30.,23.,65.));
#2082=CARTESIAN_POINT('',(-30.,23.,65.));
#2083=CARTESIAN_POINT('',(30.,23.,65.));
#2084=CARTESIAN_POINT('',(-30.,23.,70.));
#2085=CARTESIAN_POINT('',(-30.,23.,65.));
#2086=CARTESIAN_POINT('',(30.,23.,70.));
#2087=CARTESIAN_POINT('',(30.,23.,70.));
#2088=CARTESIAN_POINT('',(30.,23.,65.));
#2089=CARTESIAN_POINT('Origin',(30.,-23.,65.));
#2090=CARTESIAN_POINT('',(30.,-23.,65.));
#2091=CARTESIAN_POINT('',(30.,-23.,65.));
#2092=CARTESIAN_POINT('',(30.,-23.,70.));
#2093=CARTESIAN_POINT('',(30.,-23.,70.));
#2094=CARTESIAN_POINT('',(30.,-23.,65.));
#2095=CARTESIAN_POINT('Origin',(-30.,-23.,65.));
#2096=CARTESIAN_POINT('',(-30.,-23.,65.));
#2097=CARTESIAN_POINT('',(-30.,-23.,65.));
#2098=CARTESIAN_POINT('',(-30.,-23.,70.));
#2099=CARTESIAN_POINT('',(-30.,-23.,70.));
#2100=CARTESIAN_POINT('',(-30.,-23.,65.));
#2101=CARTESIAN_POINT('Origin',(-30.,23.,65.));
#2102=CARTESIAN_POINT('',(-30.,23.,65.));
#2103=CARTESIAN_POINT('',(-30.,23.,70.));
#2104=CARTESIAN_POINT('Origin',(0.,0.,70.));
#2105=CARTESIAN_POINT('Origin',(0.,0.,65.));
#2106=UNCERTAINTY_MEASURE_WITH_UNIT(LENGTH_MEASURE(0.01),#2110,
'DISTANCE_ACCURACY_VALUE',
'Maximum model space distance between geometric entities at asserted c
onnectivities');
#2107=UNCERTAINTY_MEASURE_WITH_UNIT(LENGTH_MEASURE(0.01),#2110,
'DISTANCE_ACCURACY_VALUE',
'Maximum model space distance between geometric entities at asserted c
onnectivities');
#2108=(
GEOMETRIC_REPRESENTATION_CONTEXT(3)
GLOBAL_UNCERTAINTY_ASSIGNED_CONTEXT((#2106))
GLOBAL_UNIT_ASSIGNED_CONTEXT((#2110,#2112,#2113))
REPRESENTATION_CONTEXT('','3D')
);
#2109=(
GEOMETRIC_REPRESENTATION_CONTEXT(3)
GLOBAL_UNCERTAINTY_ASSIGNED_CONTEXT((#2107))
GLOBAL_UNIT_ASSIGNED_CONTEXT((#2110,#2112,#2113))
REPRESENTATION_CONTEXT('','3D')
);
#2110=(
LENGTH_UNIT()
NAMED_UNIT(*)
SI_UNIT(.MILLI.,.METRE.)
);
#2111=(
LENGTH_UNIT()
NAMED_UNIT(*)
SI_UNIT($,.METRE.)
);
#2112=(
NAMED_UNIT(*)
PLANE_ANGLE_UNIT()
SI_UNIT($,.RADIAN.)
);
#2113=(
NAMED_UNIT(*)
SI_UNIT($,.STERADIAN.)
SOLID_ANGLE_UNIT()
);
#2114=SHAPE_DEFINITION_REPRESENTATION(#2115,#2116);
#2115=PRODUCT_DEFINITION_SHAPE('',$,#2118);
#2116=SHAPE_REPRESENTATION('',(#1322),#2108);
#2117=PRODUCT_DEFINITION_CONTEXT('part definition',#2122,'design');
#2118=PRODUCT_DEFINITION('2026-07-28-19-33-53-908','J2_Bracket_v3',#2119,
#2117);
#2119=PRODUCT_DEFINITION_FORMATION('',$,#2124);
#2120=PRODUCT_RELATED_PRODUCT_CATEGORY('J2_Bracket_v3','J2_Bracket_v3',
(#2124));
#2121=APPLICATION_PROTOCOL_DEFINITION('international standard',
'automotive_design',2009,#2122);
#2122=APPLICATION_CONTEXT(
'Core Data for Automotive Mechanical Design Process');
#2123=PRODUCT_CONTEXT('part definition',#2122,'mechanical');
#2124=PRODUCT('2026-07-28-19-33-53-908','J2_Bracket_v3',$,(#2123));
#2125=PRESENTATION_STYLE_ASSIGNMENT((#2126));
#2126=SURFACE_STYLE_USAGE(.BOTH.,#2127);
#2127=SURFACE_SIDE_STYLE('',(#2128));
#2128=SURFACE_STYLE_FILL_AREA(#2129);
#2129=FILL_AREA_STYLE('\X2\92FC\X0\ - \X2\30B530C630F3\X0\',(#2130));
#2130=FILL_AREA_STYLE_COLOUR('\X2\92FC\X0\ - \X2\30B530C630F3\X0\',#2131);
#2131=COLOUR_RGB('\X2\92FC\X0\ - \X2\30B530C630F3\X0\',0.627450980392157,
0.627450980392157,0.627450980392157);
ENDSEC;
END-ISO-10303-21;
