ISO-10303-21;
HEADER;
/* Generated by software containing ST-Developer
 * from STEP Tools, Inc. (www.steptools.com) 
 */

FILE_DESCRIPTION(
/* description */ (''),
/* implementation_level */ '2;1');

FILE_NAME(
/* name */ 'TopPlate_J1.step',
/* time_stamp */ '2026-07-09T16:48:33+09:00',
/* author */ (''),
/* organization */ (''),
/* preprocessor_version */ 'ST-DEVELOPER v20.1',
/* originating_system */ 'Autodesk Translation Framework v15.8.0.0',
/* authorisation */ '');

FILE_SCHEMA (('AUTOMOTIVE_DESIGN { 1 0 10303 214 3 1 1 }'));
ENDSEC;

DATA;
#10=MECHANICAL_DESIGN_GEOMETRIC_PRESENTATION_REPRESENTATION('',(#13),#556);
#11=SHAPE_REPRESENTATION_RELATIONSHIP('SRR','None',#563,#12);
#12=ADVANCED_BREP_SHAPE_REPRESENTATION('',(#14),#555);
#13=STYLED_ITEM('',(#572),#14);
#14=MANIFOLD_SOLID_BREP('\X2\30DC30C730A3\X0\1',#310);
#15=FACE_BOUND('',#71,.T.);
#16=FACE_BOUND('',#72,.T.);
#17=FACE_BOUND('',#73,.T.);
#18=FACE_BOUND('',#74,.T.);
#19=FACE_BOUND('',#75,.T.);
#20=FACE_BOUND('',#78,.T.);
#21=FACE_BOUND('',#79,.T.);
#22=FACE_BOUND('',#80,.T.);
#23=FACE_BOUND('',#81,.T.);
#24=FACE_BOUND('',#82,.T.);
#25=FACE_BOUND('',#85,.T.);
#26=FACE_BOUND('',#88,.T.);
#27=FACE_BOUND('',#91,.T.);
#28=FACE_BOUND('',#94,.T.);
#29=FACE_BOUND('',#102,.T.);
#30=PLANE('',#329);
#31=PLANE('',#337);
#32=PLANE('',#345);
#33=PLANE('',#349);
#34=PLANE('',#353);
#35=PLANE('',#357);
#36=PLANE('',#367);
#37=CYLINDRICAL_SURFACE('',#327,43.);
#38=CYLINDRICAL_SURFACE('',#343,3.25);
#39=CYLINDRICAL_SURFACE('',#347,3.25);
#40=CYLINDRICAL_SURFACE('',#351,3.25);
#41=CYLINDRICAL_SURFACE('',#355,3.25);
#42=CYLINDRICAL_SURFACE('',#359,1.8);
#43=CYLINDRICAL_SURFACE('',#360,1.8);
#44=CYLINDRICAL_SURFACE('',#361,1.8);
#45=CYLINDRICAL_SURFACE('',#362,1.8);
#46=CYLINDRICAL_SURFACE('',#363,29.);
#47=CYLINDRICAL_SURFACE('',#365,32.75);
#48=FACE_OUTER_BOUND('',#68,.T.);
#49=FACE_OUTER_BOUND('',#69,.T.);
#50=FACE_OUTER_BOUND('',#70,.T.);
#51=FACE_OUTER_BOUND('',#76,.T.);
#52=FACE_OUTER_BOUND('',#77,.T.);
#53=FACE_OUTER_BOUND('',#83,.T.);
#54=FACE_OUTER_BOUND('',#84,.T.);
#55=FACE_OUTER_BOUND('',#86,.T.);
#56=FACE_OUTER_BOUND('',#87,.T.);
#57=FACE_OUTER_BOUND('',#89,.T.);
#58=FACE_OUTER_BOUND('',#90,.T.);
#59=FACE_OUTER_BOUND('',#92,.T.);
#60=FACE_OUTER_BOUND('',#93,.T.);
#61=FACE_OUTER_BOUND('',#95,.T.);
#62=FACE_OUTER_BOUND('',#96,.T.);
#63=FACE_OUTER_BOUND('',#97,.T.);
#64=FACE_OUTER_BOUND('',#98,.T.);
#65=FACE_OUTER_BOUND('',#99,.T.);
#66=FACE_OUTER_BOUND('',#100,.T.);
#67=FACE_OUTER_BOUND('',#101,.T.);
#68=EDGE_LOOP('',(#214,#215,#216,#217));
#69=EDGE_LOOP('',(#218,#219,#220,#221));
#70=EDGE_LOOP('',(#222));
#71=EDGE_LOOP('',(#223));
#72=EDGE_LOOP('',(#224));
#73=EDGE_LOOP('',(#225));
#74=EDGE_LOOP('',(#226));
#75=EDGE_LOOP('',(#227));
#76=EDGE_LOOP('',(#228,#229,#230,#231));
#77=EDGE_LOOP('',(#232));
#78=EDGE_LOOP('',(#233));
#79=EDGE_LOOP('',(#234));
#80=EDGE_LOOP('',(#235));
#81=EDGE_LOOP('',(#236));
#82=EDGE_LOOP('',(#237));
#83=EDGE_LOOP('',(#238,#239,#240,#241));
#84=EDGE_LOOP('',(#242));
#85=EDGE_LOOP('',(#243));
#86=EDGE_LOOP('',(#244,#245,#246,#247));
#87=EDGE_LOOP('',(#248));
#88=EDGE_LOOP('',(#249));
#89=EDGE_LOOP('',(#250,#251,#252,#253));
#90=EDGE_LOOP('',(#254));
#91=EDGE_LOOP('',(#255));
#92=EDGE_LOOP('',(#256,#257,#258,#259));
#93=EDGE_LOOP('',(#260));
#94=EDGE_LOOP('',(#261));
#95=EDGE_LOOP('',(#262,#263,#264,#265));
#96=EDGE_LOOP('',(#266,#267,#268,#269));
#97=EDGE_LOOP('',(#270,#271,#272,#273));
#98=EDGE_LOOP('',(#274,#275,#276,#277));
#99=EDGE_LOOP('',(#278,#279,#280,#281));
#100=EDGE_LOOP('',(#282,#283,#284,#285));
#101=EDGE_LOOP('',(#286));
#102=EDGE_LOOP('',(#287));
#103=LINE('',#476,#116);
#104=LINE('',#480,#117);
#105=LINE('',#495,#118);
#106=LINE('',#510,#119);
#107=LINE('',#517,#120);
#108=LINE('',#524,#121);
#109=LINE('',#531,#122);
#110=LINE('',#537,#123);
#111=LINE('',#539,#124);
#112=LINE('',#541,#125);
#113=LINE('',#543,#126);
#114=LINE('',#547,#127);
#115=LINE('',#550,#128);
#116=VECTOR('',#374,42.75);
#117=VECTOR('',#379,43.);
#118=VECTOR('',#396,42.85);
#119=VECTOR('',#413,3.25);
#120=VECTOR('',#422,3.25);
#121=VECTOR('',#431,3.25);
#122=VECTOR('',#440,3.25);
#123=VECTOR('',#449,1.8);
#124=VECTOR('',#452,1.8);
#125=VECTOR('',#455,1.8);
#126=VECTOR('',#458,1.8);
#127=VECTOR('',#463,29.);
#128=VECTOR('',#466,32.75);
#129=CIRCLE('',#325,42.5);
#130=CIRCLE('',#326,43.);
#131=CIRCLE('',#328,43.);
#132=CIRCLE('',#330,3.25);
#133=CIRCLE('',#331,3.25);
#134=CIRCLE('',#332,3.25);
#135=CIRCLE('',#333,3.25);
#136=CIRCLE('',#334,32.75);
#137=CIRCLE('',#336,42.7);
#138=CIRCLE('',#338,1.8);
#139=CIRCLE('',#339,1.8);
#140=CIRCLE('',#340,1.8);
#141=CIRCLE('',#341,1.8);
#142=CIRCLE('',#342,29.);
#143=CIRCLE('',#344,3.25);
#144=CIRCLE('',#346,1.8);
#145=CIRCLE('',#348,3.25);
#146=CIRCLE('',#350,1.8);
#147=CIRCLE('',#352,3.25);
#148=CIRCLE('',#354,1.8);
#149=CIRCLE('',#356,3.25);
#150=CIRCLE('',#358,1.8);
#151=CIRCLE('',#364,29.);
#152=CIRCLE('',#366,32.75);
#153=VERTEX_POINT('',#473);
#154=VERTEX_POINT('',#475);
#155=VERTEX_POINT('',#479);
#156=VERTEX_POINT('',#483);
#157=VERTEX_POINT('',#485);
#158=VERTEX_POINT('',#487);
#159=VERTEX_POINT('',#489);
#160=VERTEX_POINT('',#491);
#161=VERTEX_POINT('',#494);
#162=VERTEX_POINT('',#498);
#163=VERTEX_POINT('',#500);
#164=VERTEX_POINT('',#502);
#165=VERTEX_POINT('',#504);
#166=VERTEX_POINT('',#506);
#167=VERTEX_POINT('',#509);
#168=VERTEX_POINT('',#513);
#169=VERTEX_POINT('',#516);
#170=VERTEX_POINT('',#520);
#171=VERTEX_POINT('',#523);
#172=VERTEX_POINT('',#527);
#173=VERTEX_POINT('',#530);
#174=VERTEX_POINT('',#534);
#175=VERTEX_POINT('',#545);
#176=VERTEX_POINT('',#549);
#177=EDGE_CURVE('',#153,#153,#129,.T.);
#178=EDGE_CURVE('',#153,#154,#103,.T.);
#179=EDGE_CURVE('',#154,#154,#130,.T.);
#180=EDGE_CURVE('',#154,#155,#104,.T.);
#181=EDGE_CURVE('',#155,#155,#131,.T.);
#182=EDGE_CURVE('',#156,#156,#132,.T.);
#183=EDGE_CURVE('',#157,#157,#133,.T.);
#184=EDGE_CURVE('',#158,#158,#134,.T.);
#185=EDGE_CURVE('',#159,#159,#135,.T.);
#186=EDGE_CURVE('',#160,#160,#136,.T.);
#187=EDGE_CURVE('',#155,#161,#105,.T.);
#188=EDGE_CURVE('',#161,#161,#137,.T.);
#189=EDGE_CURVE('',#162,#162,#138,.T.);
#190=EDGE_CURVE('',#163,#163,#139,.T.);
#191=EDGE_CURVE('',#164,#164,#140,.T.);
#192=EDGE_CURVE('',#165,#165,#141,.T.);
#193=EDGE_CURVE('',#166,#166,#142,.T.);
#194=EDGE_CURVE('',#156,#167,#106,.T.);
#195=EDGE_CURVE('',#167,#167,#143,.T.);
#196=EDGE_CURVE('',#168,#168,#144,.T.);
#197=EDGE_CURVE('',#157,#169,#107,.T.);
#198=EDGE_CURVE('',#169,#169,#145,.T.);
#199=EDGE_CURVE('',#170,#170,#146,.T.);
#200=EDGE_CURVE('',#158,#171,#108,.T.);
#201=EDGE_CURVE('',#171,#171,#147,.T.);
#202=EDGE_CURVE('',#172,#172,#148,.T.);
#203=EDGE_CURVE('',#159,#173,#109,.T.);
#204=EDGE_CURVE('',#173,#173,#149,.T.);
#205=EDGE_CURVE('',#174,#174,#150,.T.);
#206=EDGE_CURVE('',#168,#162,#110,.T.);
#207=EDGE_CURVE('',#170,#163,#111,.T.);
#208=EDGE_CURVE('',#172,#164,#112,.T.);
#209=EDGE_CURVE('',#174,#165,#113,.T.);
#210=EDGE_CURVE('',#175,#175,#151,.T.);
#211=EDGE_CURVE('',#175,#166,#114,.T.);
#212=EDGE_CURVE('',#160,#176,#115,.T.);
#213=EDGE_CURVE('',#176,#176,#152,.T.);
#214=ORIENTED_EDGE('',*,*,#177,.T.);
#215=ORIENTED_EDGE('',*,*,#178,.T.);
#216=ORIENTED_EDGE('',*,*,#179,.T.);
#217=ORIENTED_EDGE('',*,*,#178,.F.);
#218=ORIENTED_EDGE('',*,*,#179,.F.);
#219=ORIENTED_EDGE('',*,*,#180,.T.);
#220=ORIENTED_EDGE('',*,*,#181,.F.);
#221=ORIENTED_EDGE('',*,*,#180,.F.);
#222=ORIENTED_EDGE('',*,*,#177,.F.);
#223=ORIENTED_EDGE('',*,*,#182,.T.);
#224=ORIENTED_EDGE('',*,*,#183,.T.);
#225=ORIENTED_EDGE('',*,*,#184,.T.);
#226=ORIENTED_EDGE('',*,*,#185,.T.);
#227=ORIENTED_EDGE('',*,*,#186,.T.);
#228=ORIENTED_EDGE('',*,*,#181,.T.);
#229=ORIENTED_EDGE('',*,*,#187,.T.);
#230=ORIENTED_EDGE('',*,*,#188,.T.);
#231=ORIENTED_EDGE('',*,*,#187,.F.);
#232=ORIENTED_EDGE('',*,*,#188,.F.);
#233=ORIENTED_EDGE('',*,*,#189,.T.);
#234=ORIENTED_EDGE('',*,*,#190,.T.);
#235=ORIENTED_EDGE('',*,*,#191,.T.);
#236=ORIENTED_EDGE('',*,*,#192,.T.);
#237=ORIENTED_EDGE('',*,*,#193,.T.);
#238=ORIENTED_EDGE('',*,*,#182,.F.);
#239=ORIENTED_EDGE('',*,*,#194,.T.);
#240=ORIENTED_EDGE('',*,*,#195,.T.);
#241=ORIENTED_EDGE('',*,*,#194,.F.);
#242=ORIENTED_EDGE('',*,*,#195,.F.);
#243=ORIENTED_EDGE('',*,*,#196,.F.);
#244=ORIENTED_EDGE('',*,*,#183,.F.);
#245=ORIENTED_EDGE('',*,*,#197,.T.);
#246=ORIENTED_EDGE('',*,*,#198,.T.);
#247=ORIENTED_EDGE('',*,*,#197,.F.);
#248=ORIENTED_EDGE('',*,*,#198,.F.);
#249=ORIENTED_EDGE('',*,*,#199,.F.);
#250=ORIENTED_EDGE('',*,*,#184,.F.);
#251=ORIENTED_EDGE('',*,*,#200,.T.);
#252=ORIENTED_EDGE('',*,*,#201,.T.);
#253=ORIENTED_EDGE('',*,*,#200,.F.);
#254=ORIENTED_EDGE('',*,*,#201,.F.);
#255=ORIENTED_EDGE('',*,*,#202,.F.);
#256=ORIENTED_EDGE('',*,*,#185,.F.);
#257=ORIENTED_EDGE('',*,*,#203,.T.);
#258=ORIENTED_EDGE('',*,*,#204,.T.);
#259=ORIENTED_EDGE('',*,*,#203,.F.);
#260=ORIENTED_EDGE('',*,*,#204,.F.);
#261=ORIENTED_EDGE('',*,*,#205,.F.);
#262=ORIENTED_EDGE('',*,*,#196,.T.);
#263=ORIENTED_EDGE('',*,*,#206,.T.);
#264=ORIENTED_EDGE('',*,*,#189,.F.);
#265=ORIENTED_EDGE('',*,*,#206,.F.);
#266=ORIENTED_EDGE('',*,*,#199,.T.);
#267=ORIENTED_EDGE('',*,*,#207,.T.);
#268=ORIENTED_EDGE('',*,*,#190,.F.);
#269=ORIENTED_EDGE('',*,*,#207,.F.);
#270=ORIENTED_EDGE('',*,*,#202,.T.);
#271=ORIENTED_EDGE('',*,*,#208,.T.);
#272=ORIENTED_EDGE('',*,*,#191,.F.);
#273=ORIENTED_EDGE('',*,*,#208,.F.);
#274=ORIENTED_EDGE('',*,*,#205,.T.);
#275=ORIENTED_EDGE('',*,*,#209,.T.);
#276=ORIENTED_EDGE('',*,*,#192,.F.);
#277=ORIENTED_EDGE('',*,*,#209,.F.);
#278=ORIENTED_EDGE('',*,*,#210,.F.);
#279=ORIENTED_EDGE('',*,*,#211,.T.);
#280=ORIENTED_EDGE('',*,*,#193,.F.);
#281=ORIENTED_EDGE('',*,*,#211,.F.);
#282=ORIENTED_EDGE('',*,*,#186,.F.);
#283=ORIENTED_EDGE('',*,*,#212,.T.);
#284=ORIENTED_EDGE('',*,*,#213,.T.);
#285=ORIENTED_EDGE('',*,*,#212,.F.);
#286=ORIENTED_EDGE('',*,*,#213,.F.);
#287=ORIENTED_EDGE('',*,*,#210,.T.);
#288=CONICAL_SURFACE('',#324,42.75,0.785398163397448);
#289=CONICAL_SURFACE('',#335,42.85,0.785398163397448);
#290=ADVANCED_FACE('',(#48),#288,.T.);
#291=ADVANCED_FACE('',(#49),#37,.T.);
#292=ADVANCED_FACE('',(#50,#15,#16,#17,#18,#19),#30,.T.);
#293=ADVANCED_FACE('',(#51),#289,.T.);
#294=ADVANCED_FACE('',(#52,#20,#21,#22,#23,#24),#31,.F.);
#295=ADVANCED_FACE('',(#53),#38,.F.);
#296=ADVANCED_FACE('',(#54,#25),#32,.T.);
#297=ADVANCED_FACE('',(#55),#39,.F.);
#298=ADVANCED_FACE('',(#56,#26),#33,.T.);
#299=ADVANCED_FACE('',(#57),#40,.F.);
#300=ADVANCED_FACE('',(#58,#27),#34,.T.);
#301=ADVANCED_FACE('',(#59),#41,.F.);
#302=ADVANCED_FACE('',(#60,#28),#35,.T.);
#303=ADVANCED_FACE('',(#61),#42,.F.);
#304=ADVANCED_FACE('',(#62),#43,.F.);
#305=ADVANCED_FACE('',(#63),#44,.F.);
#306=ADVANCED_FACE('',(#64),#45,.F.);
#307=ADVANCED_FACE('',(#65),#46,.F.);
#308=ADVANCED_FACE('',(#66),#47,.F.);
#309=ADVANCED_FACE('',(#67,#29),#36,.T.);
#310=CLOSED_SHELL('',(#290,#291,#292,#293,#294,#295,#296,#297,#298,#299,
#300,#301,#302,#303,#304,#305,#306,#307,#308,#309));
#311=DERIVED_UNIT_ELEMENT(#313,1.);
#312=DERIVED_UNIT_ELEMENT(#558,-3.);
#313=(
MASS_UNIT()
NAMED_UNIT(*)
SI_UNIT(.KILO.,.GRAM.)
);
#314=DERIVED_UNIT((#311,#312));
#315=MEASURE_REPRESENTATION_ITEM('density measure',
POSITIVE_RATIO_MEASURE(7850.),#314);
#316=PROPERTY_DEFINITION_REPRESENTATION(#321,#318);
#317=PROPERTY_DEFINITION_REPRESENTATION(#322,#319);
#318=REPRESENTATION('material name',(#320),#555);
#319=REPRESENTATION('density',(#315),#555);
#320=DESCRIPTIVE_REPRESENTATION_ITEM('\X2\92FC\X0\','\X2\92FC\X0\');
#321=PROPERTY_DEFINITION('material property','material name',#565);
#322=PROPERTY_DEFINITION('material property','density of part',#565);
#323=AXIS2_PLACEMENT_3D('',#471,#368,#369);
#324=AXIS2_PLACEMENT_3D('',#472,#370,#371);
#325=AXIS2_PLACEMENT_3D('',#474,#372,#373);
#326=AXIS2_PLACEMENT_3D('',#477,#375,#376);
#327=AXIS2_PLACEMENT_3D('',#478,#377,#378);
#328=AXIS2_PLACEMENT_3D('',#481,#380,#381);
#329=AXIS2_PLACEMENT_3D('',#482,#382,#383);
#330=AXIS2_PLACEMENT_3D('',#484,#384,#385);
#331=AXIS2_PLACEMENT_3D('',#486,#386,#387);
#332=AXIS2_PLACEMENT_3D('',#488,#388,#389);
#333=AXIS2_PLACEMENT_3D('',#490,#390,#391);
#334=AXIS2_PLACEMENT_3D('',#492,#392,#393);
#335=AXIS2_PLACEMENT_3D('',#493,#394,#395);
#336=AXIS2_PLACEMENT_3D('',#496,#397,#398);
#337=AXIS2_PLACEMENT_3D('',#497,#399,#400);
#338=AXIS2_PLACEMENT_3D('',#499,#401,#402);
#339=AXIS2_PLACEMENT_3D('',#501,#403,#404);
#340=AXIS2_PLACEMENT_3D('',#503,#405,#406);
#341=AXIS2_PLACEMENT_3D('',#505,#407,#408);
#342=AXIS2_PLACEMENT_3D('',#507,#409,#410);
#343=AXIS2_PLACEMENT_3D('',#508,#411,#412);
#344=AXIS2_PLACEMENT_3D('',#511,#414,#415);
#345=AXIS2_PLACEMENT_3D('',#512,#416,#417);
#346=AXIS2_PLACEMENT_3D('',#514,#418,#419);
#347=AXIS2_PLACEMENT_3D('',#515,#420,#421);
#348=AXIS2_PLACEMENT_3D('',#518,#423,#424);
#349=AXIS2_PLACEMENT_3D('',#519,#425,#426);
#350=AXIS2_PLACEMENT_3D('',#521,#427,#428);
#351=AXIS2_PLACEMENT_3D('',#522,#429,#430);
#352=AXIS2_PLACEMENT_3D('',#525,#432,#433);
#353=AXIS2_PLACEMENT_3D('',#526,#434,#435);
#354=AXIS2_PLACEMENT_3D('',#528,#436,#437);
#355=AXIS2_PLACEMENT_3D('',#529,#438,#439);
#356=AXIS2_PLACEMENT_3D('',#532,#441,#442);
#357=AXIS2_PLACEMENT_3D('',#533,#443,#444);
#358=AXIS2_PLACEMENT_3D('',#535,#445,#446);
#359=AXIS2_PLACEMENT_3D('',#536,#447,#448);
#360=AXIS2_PLACEMENT_3D('',#538,#450,#451);
#361=AXIS2_PLACEMENT_3D('',#540,#453,#454);
#362=AXIS2_PLACEMENT_3D('',#542,#456,#457);
#363=AXIS2_PLACEMENT_3D('',#544,#459,#460);
#364=AXIS2_PLACEMENT_3D('',#546,#461,#462);
#365=AXIS2_PLACEMENT_3D('',#548,#464,#465);
#366=AXIS2_PLACEMENT_3D('',#551,#467,#468);
#367=AXIS2_PLACEMENT_3D('',#552,#469,#470);
#368=DIRECTION('axis',(0.,0.,1.));
#369=DIRECTION('refdir',(1.,0.,0.));
#370=DIRECTION('center_axis',(0.,0.,-1.));
#371=DIRECTION('ref_axis',(1.,0.,0.));
#372=DIRECTION('center_axis',(0.,0.,-1.));
#373=DIRECTION('ref_axis',(1.,0.,0.));
#374=DIRECTION('',(-0.707106781186548,-8.65956056235494E-17,-0.707106781186548));
#375=DIRECTION('center_axis',(0.,0.,1.));
#376=DIRECTION('ref_axis',(1.,0.,0.));
#377=DIRECTION('center_axis',(0.,0.,1.));
#378=DIRECTION('ref_axis',(1.,0.,0.));
#379=DIRECTION('',(0.,0.,-1.));
#380=DIRECTION('center_axis',(0.,0.,-1.));
#381=DIRECTION('ref_axis',(1.,0.,0.));
#382=DIRECTION('center_axis',(0.,0.,1.));
#383=DIRECTION('ref_axis',(1.,0.,0.));
#384=DIRECTION('center_axis',(0.,0.,-1.));
#385=DIRECTION('ref_axis',(1.,0.,0.));
#386=DIRECTION('center_axis',(0.,0.,-1.));
#387=DIRECTION('ref_axis',(1.,0.,0.));
#388=DIRECTION('center_axis',(0.,0.,-1.));
#389=DIRECTION('ref_axis',(1.,0.,0.));
#390=DIRECTION('center_axis',(0.,0.,-1.));
#391=DIRECTION('ref_axis',(1.,0.,0.));
#392=DIRECTION('center_axis',(0.,0.,-1.));
#393=DIRECTION('ref_axis',(1.,0.,0.));
#394=DIRECTION('center_axis',(0.,0.,1.));
#395=DIRECTION('ref_axis',(1.,0.,0.));
#396=DIRECTION('',(0.707106781186547,8.65956056235493E-17,-0.707106781186547));
#397=DIRECTION('center_axis',(0.,0.,1.));
#398=DIRECTION('ref_axis',(1.,0.,0.));
#399=DIRECTION('center_axis',(0.,0.,1.));
#400=DIRECTION('ref_axis',(1.,0.,0.));
#401=DIRECTION('center_axis',(0.,0.,1.));
#402=DIRECTION('ref_axis',(1.,0.,0.));
#403=DIRECTION('center_axis',(0.,0.,1.));
#404=DIRECTION('ref_axis',(1.,0.,0.));
#405=DIRECTION('center_axis',(0.,0.,1.));
#406=DIRECTION('ref_axis',(1.,0.,0.));
#407=DIRECTION('center_axis',(0.,0.,1.));
#408=DIRECTION('ref_axis',(1.,0.,0.));
#409=DIRECTION('center_axis',(0.,0.,1.));
#410=DIRECTION('ref_axis',(1.,0.,0.));
#411=DIRECTION('center_axis',(0.,0.,-1.));
#412=DIRECTION('ref_axis',(1.,0.,0.));
#413=DIRECTION('',(0.,0.,-1.));
#414=DIRECTION('center_axis',(0.,0.,-1.));
#415=DIRECTION('ref_axis',(1.,0.,0.));
#416=DIRECTION('center_axis',(0.,0.,1.));
#417=DIRECTION('ref_axis',(1.,0.,0.));
#418=DIRECTION('center_axis',(0.,0.,1.));
#419=DIRECTION('ref_axis',(1.,0.,0.));
#420=DIRECTION('center_axis',(0.,0.,-1.));
#421=DIRECTION('ref_axis',(1.,0.,0.));
#422=DIRECTION('',(0.,0.,-1.));
#423=DIRECTION('center_axis',(0.,0.,-1.));
#424=DIRECTION('ref_axis',(1.,0.,0.));
#425=DIRECTION('center_axis',(0.,0.,1.));
#426=DIRECTION('ref_axis',(1.,0.,0.));
#427=DIRECTION('center_axis',(0.,0.,1.));
#428=DIRECTION('ref_axis',(1.,0.,0.));
#429=DIRECTION('center_axis',(0.,0.,-1.));
#430=DIRECTION('ref_axis',(1.,0.,0.));
#431=DIRECTION('',(0.,0.,-1.));
#432=DIRECTION('center_axis',(0.,0.,-1.));
#433=DIRECTION('ref_axis',(1.,0.,0.));
#434=DIRECTION('center_axis',(0.,0.,1.));
#435=DIRECTION('ref_axis',(1.,0.,0.));
#436=DIRECTION('center_axis',(0.,0.,1.));
#437=DIRECTION('ref_axis',(1.,0.,0.));
#438=DIRECTION('center_axis',(0.,0.,-1.));
#439=DIRECTION('ref_axis',(1.,0.,0.));
#440=DIRECTION('',(0.,0.,-1.));
#441=DIRECTION('center_axis',(0.,0.,-1.));
#442=DIRECTION('ref_axis',(1.,0.,0.));
#443=DIRECTION('center_axis',(0.,0.,1.));
#444=DIRECTION('ref_axis',(1.,0.,0.));
#445=DIRECTION('center_axis',(0.,0.,1.));
#446=DIRECTION('ref_axis',(1.,0.,0.));
#447=DIRECTION('center_axis',(0.,0.,-1.));
#448=DIRECTION('ref_axis',(1.,0.,0.));
#449=DIRECTION('',(0.,0.,-1.));
#450=DIRECTION('center_axis',(0.,0.,-1.));
#451=DIRECTION('ref_axis',(1.,0.,0.));
#452=DIRECTION('',(0.,0.,-1.));
#453=DIRECTION('center_axis',(0.,0.,-1.));
#454=DIRECTION('ref_axis',(1.,0.,0.));
#455=DIRECTION('',(0.,0.,-1.));
#456=DIRECTION('center_axis',(0.,0.,-1.));
#457=DIRECTION('ref_axis',(1.,0.,0.));
#458=DIRECTION('',(0.,0.,-1.));
#459=DIRECTION('center_axis',(0.,0.,-1.));
#460=DIRECTION('ref_axis',(1.,0.,0.));
#461=DIRECTION('center_axis',(0.,0.,-1.));
#462=DIRECTION('ref_axis',(1.,0.,0.));
#463=DIRECTION('',(0.,0.,-1.));
#464=DIRECTION('center_axis',(0.,0.,-1.));
#465=DIRECTION('ref_axis',(1.,0.,0.));
#466=DIRECTION('',(0.,0.,-1.));
#467=DIRECTION('center_axis',(0.,0.,-1.));
#468=DIRECTION('ref_axis',(1.,0.,0.));
#469=DIRECTION('center_axis',(0.,0.,1.));
#470=DIRECTION('ref_axis',(1.,0.,0.));
#471=CARTESIAN_POINT('',(0.,0.,0.));
#472=CARTESIAN_POINT('Origin',(0.,0.,59.75));
#473=CARTESIAN_POINT('',(-42.5,5.20474889637625E-15,60.));
#474=CARTESIAN_POINT('Origin',(0.,0.,60.));
#475=CARTESIAN_POINT('',(-43.,-5.26598123633362E-15,59.5));
#476=CARTESIAN_POINT('',(-42.75,-5.23536506635494E-15,59.75));
#477=CARTESIAN_POINT('Origin',(0.,0.,59.5));
#478=CARTESIAN_POINT('Origin',(0.,0.,50.));
#479=CARTESIAN_POINT('',(-43.,5.26598123633362E-15,50.3));
#480=CARTESIAN_POINT('',(-43.,-5.26598123633362E-15,50.));
#481=CARTESIAN_POINT('Origin',(0.,0.,50.3));
#482=CARTESIAN_POINT('Origin',(0.,0.,60.));
#483=CARTESIAN_POINT('',(-29.75,-26.5,60.));
#484=CARTESIAN_POINT('Origin',(-26.5,-26.5,60.));
#485=CARTESIAN_POINT('',(-29.75,26.5,60.));
#486=CARTESIAN_POINT('Origin',(-26.5,26.5,60.));
#487=CARTESIAN_POINT('',(23.25,26.5,60.));
#488=CARTESIAN_POINT('Origin',(26.5,26.5,60.));
#489=CARTESIAN_POINT('',(23.25,-26.5,60.));
#490=CARTESIAN_POINT('Origin',(26.5,-26.5,60.));
#491=CARTESIAN_POINT('',(-32.75,-4.01071826720758E-15,60.));
#492=CARTESIAN_POINT('Origin',(0.,0.,60.));
#493=CARTESIAN_POINT('Origin',(0.,0.,50.15));
#494=CARTESIAN_POINT('',(-42.7,-5.2292418323592E-15,50.));
#495=CARTESIAN_POINT('',(-42.85,-5.24761153434641E-15,50.15));
#496=CARTESIAN_POINT('Origin',(0.,0.,50.));
#497=CARTESIAN_POINT('Origin',(0.,0.,50.));
#498=CARTESIAN_POINT('',(-28.3,-26.5,50.));
#499=CARTESIAN_POINT('Origin',(-26.5,-26.5,50.));
#500=CARTESIAN_POINT('',(-28.3,26.5,50.));
#501=CARTESIAN_POINT('Origin',(-26.5,26.5,50.));
#502=CARTESIAN_POINT('',(24.7,26.5,50.));
#503=CARTESIAN_POINT('Origin',(26.5,26.5,50.));
#504=CARTESIAN_POINT('',(24.7,-26.5,50.));
#505=CARTESIAN_POINT('Origin',(26.5,-26.5,50.));
#506=CARTESIAN_POINT('',(-29.,-3.55147571752732E-15,50.));
#507=CARTESIAN_POINT('Origin',(0.,0.,50.));
#508=CARTESIAN_POINT('Origin',(-26.5,-26.5,60.));
#509=CARTESIAN_POINT('',(-29.75,-26.5,56.5));
#510=CARTESIAN_POINT('',(-29.75,-26.5,60.));
#511=CARTESIAN_POINT('Origin',(-26.5,-26.5,56.5));
#512=CARTESIAN_POINT('Origin',(-26.5,-26.5,56.5));
#513=CARTESIAN_POINT('',(-28.3,-26.5,56.5));
#514=CARTESIAN_POINT('Origin',(-26.5,-26.5,56.5));
#515=CARTESIAN_POINT('Origin',(-26.5,26.5,60.));
#516=CARTESIAN_POINT('',(-29.75,26.5,56.5));
#517=CARTESIAN_POINT('',(-29.75,26.5,60.));
#518=CARTESIAN_POINT('Origin',(-26.5,26.5,56.5));
#519=CARTESIAN_POINT('Origin',(-26.5,26.5,56.5));
#520=CARTESIAN_POINT('',(-28.3,26.5,56.5));
#521=CARTESIAN_POINT('Origin',(-26.5,26.5,56.5));
#522=CARTESIAN_POINT('Origin',(26.5,26.5,60.));
#523=CARTESIAN_POINT('',(23.25,26.5,56.5));
#524=CARTESIAN_POINT('',(23.25,26.5,60.));
#525=CARTESIAN_POINT('Origin',(26.5,26.5,56.5));
#526=CARTESIAN_POINT('Origin',(26.5,26.5,56.5));
#527=CARTESIAN_POINT('',(24.7,26.5,56.5));
#528=CARTESIAN_POINT('Origin',(26.5,26.5,56.5));
#529=CARTESIAN_POINT('Origin',(26.5,-26.5,60.));
#530=CARTESIAN_POINT('',(23.25,-26.5,56.5));
#531=CARTESIAN_POINT('',(23.25,-26.5,60.));
#532=CARTESIAN_POINT('Origin',(26.5,-26.5,56.5));
#533=CARTESIAN_POINT('Origin',(26.5,-26.5,56.5));
#534=CARTESIAN_POINT('',(24.7,-26.5,56.5));
#535=CARTESIAN_POINT('Origin',(26.5,-26.5,56.5));
#536=CARTESIAN_POINT('Origin',(-26.5,-26.5,60.));
#537=CARTESIAN_POINT('',(-28.3,-26.5,60.));
#538=CARTESIAN_POINT('Origin',(-26.5,26.5,60.));
#539=CARTESIAN_POINT('',(-28.3,26.5,60.));
#540=CARTESIAN_POINT('Origin',(26.5,26.5,60.));
#541=CARTESIAN_POINT('',(24.7,26.5,60.));
#542=CARTESIAN_POINT('Origin',(26.5,-26.5,60.));
#543=CARTESIAN_POINT('',(24.7,-26.5,60.));
#544=CARTESIAN_POINT('Origin',(0.,0.,60.));
#545=CARTESIAN_POINT('',(-29.,3.55147571752732E-15,53.5));
#546=CARTESIAN_POINT('Origin',(0.,0.,53.5));
#547=CARTESIAN_POINT('',(-29.,3.55147571752732E-15,60.));
#548=CARTESIAN_POINT('Origin',(0.,0.,60.));
#549=CARTESIAN_POINT('',(-32.75,-4.01071826720758E-15,53.5));
#550=CARTESIAN_POINT('',(-32.75,4.01071826720758E-15,60.));
#551=CARTESIAN_POINT('Origin',(0.,0.,53.5));
#552=CARTESIAN_POINT('Origin',(0.,0.,53.5));
#553=UNCERTAINTY_MEASURE_WITH_UNIT(LENGTH_MEASURE(0.01),#557,
'DISTANCE_ACCURACY_VALUE',
'Maximum model space distance between geometric entities at asserted c
onnectivities');
#554=UNCERTAINTY_MEASURE_WITH_UNIT(LENGTH_MEASURE(0.01),#557,
'DISTANCE_ACCURACY_VALUE',
'Maximum model space distance between geometric entities at asserted c
onnectivities');
#555=(
GEOMETRIC_REPRESENTATION_CONTEXT(3)
GLOBAL_UNCERTAINTY_ASSIGNED_CONTEXT((#553))
GLOBAL_UNIT_ASSIGNED_CONTEXT((#557,#559,#560))
REPRESENTATION_CONTEXT('','3D')
);
#556=(
GEOMETRIC_REPRESENTATION_CONTEXT(3)
GLOBAL_UNCERTAINTY_ASSIGNED_CONTEXT((#554))
GLOBAL_UNIT_ASSIGNED_CONTEXT((#557,#559,#560))
REPRESENTATION_CONTEXT('','3D')
);
#557=(
LENGTH_UNIT()
NAMED_UNIT(*)
SI_UNIT(.MILLI.,.METRE.)
);
#558=(
LENGTH_UNIT()
NAMED_UNIT(*)
SI_UNIT($,.METRE.)
);
#559=(
NAMED_UNIT(*)
PLANE_ANGLE_UNIT()
SI_UNIT($,.RADIAN.)
);
#560=(
NAMED_UNIT(*)
SI_UNIT($,.STERADIAN.)
SOLID_ANGLE_UNIT()
);
#561=SHAPE_DEFINITION_REPRESENTATION(#562,#563);
#562=PRODUCT_DEFINITION_SHAPE('',$,#565);
#563=SHAPE_REPRESENTATION('',(#323),#555);
#564=PRODUCT_DEFINITION_CONTEXT('part definition',#569,'design');
#565=PRODUCT_DEFINITION('2026-07-09-16-48-33-049','TopPlate_J1',#566,#564);
#566=PRODUCT_DEFINITION_FORMATION('',$,#571);
#567=PRODUCT_RELATED_PRODUCT_CATEGORY('TopPlate_J1','TopPlate_J1',(#571));
#568=APPLICATION_PROTOCOL_DEFINITION('international standard',
'automotive_design',2009,#569);
#569=APPLICATION_CONTEXT(
'Core Data for Automotive Mechanical Design Process');
#570=PRODUCT_CONTEXT('part definition',#569,'mechanical');
#571=PRODUCT('2026-07-09-16-48-33-049','TopPlate_J1',$,(#570));
#572=PRESENTATION_STYLE_ASSIGNMENT((#573));
#573=SURFACE_STYLE_USAGE(.BOTH.,#574);
#574=SURFACE_SIDE_STYLE('',(#575));
#575=SURFACE_STYLE_FILL_AREA(#576);
#576=FILL_AREA_STYLE('\X2\92FC\X0\ - \X2\30B530C630F3\X0\',(#577));
#577=FILL_AREA_STYLE_COLOUR('\X2\92FC\X0\ - \X2\30B530C630F3\X0\',#578);
#578=COLOUR_RGB('\X2\92FC\X0\ - \X2\30B530C630F3\X0\',0.627450980392157,
0.627450980392157,0.627450980392157);
ENDSEC;
END-ISO-10303-21;
