ISO-10303-21;
HEADER;
/* Generated by software containing ST-Developer
 * from STEP Tools, Inc. (www.steptools.com) 
 */

FILE_DESCRIPTION(
/* description */ (''),
/* implementation_level */ '2;1');

FILE_NAME(
/* name */ 'WristHub_J5.step',
/* time_stamp */ '2026-08-21T16:47:58+09:00',
/* author */ (''),
/* organization */ (''),
/* preprocessor_version */ 'ST-DEVELOPER v20.1',
/* originating_system */ 'Autodesk Translation Framework v15.8.0.0',
/* authorisation */ '');

FILE_SCHEMA (('AUTOMOTIVE_DESIGN { 1 0 10303 214 3 1 1 }'));
ENDSEC;

DATA;
#10=MECHANICAL_DESIGN_GEOMETRIC_PRESENTATION_REPRESENTATION('',(#13),#2084);
#11=SHAPE_REPRESENTATION_RELATIONSHIP('SRR','None',#2091,#12);
#12=ADVANCED_BREP_SHAPE_REPRESENTATION('',(#14),#2083);
#13=STYLED_ITEM('',(#2100),#14);
#14=MANIFOLD_SOLID_BREP('\X2\30DC30C730A3\X0\1',#1246);
#15=FACE_BOUND('',#163,.T.);
#16=FACE_BOUND('',#166,.T.);
#17=FACE_BOUND('',#169,.T.);
#18=FACE_BOUND('',#172,.T.);
#19=FACE_BOUND('',#181,.T.);
#20=FACE_BOUND('',#182,.T.);
#21=FACE_BOUND('',#183,.T.);
#22=FACE_BOUND('',#184,.T.);
#23=FACE_BOUND('',#189,.T.);
#24=FACE_BOUND('',#191,.T.);
#25=FACE_BOUND('',#193,.T.);
#26=FACE_BOUND('',#195,.T.);
#27=FACE_BOUND('',#197,.T.);
#28=FACE_BOUND('',#198,.T.);
#29=FACE_BOUND('',#199,.T.);
#30=FACE_BOUND('',#200,.T.);
#31=FACE_BOUND('',#211,.T.);
#32=FACE_BOUND('',#212,.T.);
#33=FACE_BOUND('',#213,.T.);
#34=FACE_BOUND('',#214,.T.);
#35=FACE_BOUND('',#215,.T.);
#36=FACE_BOUND('',#216,.T.);
#37=FACE_BOUND('',#220,.T.);
#38=FACE_BOUND('',#223,.T.);
#39=FACE_BOUND('',#225,.T.);
#40=FACE_BOUND('',#226,.T.);
#41=FACE_BOUND('',#227,.T.);
#42=FACE_BOUND('',#228,.T.);
#43=PLANE('',#1272);
#44=PLANE('',#1273);
#45=PLANE('',#1289);
#46=PLANE('',#1294);
#47=PLANE('',#1299);
#48=PLANE('',#1304);
#49=PLANE('',#1306);
#50=PLANE('',#1313);
#51=PLANE('',#1314);
#52=PLANE('',#1315);
#53=PLANE('',#1316);
#54=PLANE('',#1317);
#55=PLANE('',#1319);
#56=PLANE('',#1320);
#57=PLANE('',#1321);
#58=PLANE('',#1322);
#59=PLANE('',#1323);
#60=PLANE('',#1324);
#61=PLANE('',#1325);
#62=PLANE('',#1326);
#63=PLANE('',#1327);
#64=PLANE('',#1328);
#65=PLANE('',#1329);
#66=PLANE('',#1330);
#67=PLANE('',#1331);
#68=PLANE('',#1334);
#69=PLANE('',#1335);
#70=PLANE('',#1336);
#71=PLANE('',#1337);
#72=PLANE('',#1340);
#73=PLANE('',#1342);
#74=PLANE('',#1345);
#75=PLANE('',#1347);
#76=PLANE('',#1348);
#77=PLANE('',#1351);
#78=PLANE('',#1359);
#79=PLANE('',#1360);
#80=PLANE('',#1362);
#81=PLANE('',#1363);
#82=PLANE('',#1364);
#83=PLANE('',#1366);
#84=PLANE('',#1368);
#85=PLANE('',#1370);
#86=FACE_OUTER_BOUND('',#151,.T.);
#87=FACE_OUTER_BOUND('',#152,.T.);
#88=FACE_OUTER_BOUND('',#153,.T.);
#89=FACE_OUTER_BOUND('',#154,.T.);
#90=FACE_OUTER_BOUND('',#155,.T.);
#91=FACE_OUTER_BOUND('',#156,.T.);
#92=FACE_OUTER_BOUND('',#157,.T.);
#93=FACE_OUTER_BOUND('',#158,.T.);
#94=FACE_OUTER_BOUND('',#159,.T.);
#95=FACE_OUTER_BOUND('',#160,.T.);
#96=FACE_OUTER_BOUND('',#161,.T.);
#97=FACE_OUTER_BOUND('',#162,.T.);
#98=FACE_OUTER_BOUND('',#164,.T.);
#99=FACE_OUTER_BOUND('',#165,.T.);
#100=FACE_OUTER_BOUND('',#167,.T.);
#101=FACE_OUTER_BOUND('',#168,.T.);
#102=FACE_OUTER_BOUND('',#170,.T.);
#103=FACE_OUTER_BOUND('',#171,.T.);
#104=FACE_OUTER_BOUND('',#173,.T.);
#105=FACE_OUTER_BOUND('',#174,.T.);
#106=FACE_OUTER_BOUND('',#175,.T.);
#107=FACE_OUTER_BOUND('',#176,.T.);
#108=FACE_OUTER_BOUND('',#177,.T.);
#109=FACE_OUTER_BOUND('',#178,.T.);
#110=FACE_OUTER_BOUND('',#179,.T.);
#111=FACE_OUTER_BOUND('',#180,.T.);
#112=FACE_OUTER_BOUND('',#185,.T.);
#113=FACE_OUTER_BOUND('',#186,.T.);
#114=FACE_OUTER_BOUND('',#187,.T.);
#115=FACE_OUTER_BOUND('',#188,.T.);
#116=FACE_OUTER_BOUND('',#190,.T.);
#117=FACE_OUTER_BOUND('',#192,.T.);
#118=FACE_OUTER_BOUND('',#194,.T.);
#119=FACE_OUTER_BOUND('',#196,.T.);
#120=FACE_OUTER_BOUND('',#201,.T.);
#121=FACE_OUTER_BOUND('',#202,.T.);
#122=FACE_OUTER_BOUND('',#203,.T.);
#123=FACE_OUTER_BOUND('',#204,.T.);
#124=FACE_OUTER_BOUND('',#205,.T.);
#125=FACE_OUTER_BOUND('',#206,.T.);
#126=FACE_OUTER_BOUND('',#207,.T.);
#127=FACE_OUTER_BOUND('',#208,.T.);
#128=FACE_OUTER_BOUND('',#209,.T.);
#129=FACE_OUTER_BOUND('',#210,.T.);
#130=FACE_OUTER_BOUND('',#217,.T.);
#131=FACE_OUTER_BOUND('',#218,.T.);
#132=FACE_OUTER_BOUND('',#219,.T.);
#133=FACE_OUTER_BOUND('',#221,.T.);
#134=FACE_OUTER_BOUND('',#222,.T.);
#135=FACE_OUTER_BOUND('',#224,.T.);
#136=FACE_OUTER_BOUND('',#229,.T.);
#137=FACE_OUTER_BOUND('',#230,.T.);
#138=FACE_OUTER_BOUND('',#231,.T.);
#139=FACE_OUTER_BOUND('',#232,.T.);
#140=FACE_OUTER_BOUND('',#233,.T.);
#141=FACE_OUTER_BOUND('',#234,.T.);
#142=FACE_OUTER_BOUND('',#235,.T.);
#143=FACE_OUTER_BOUND('',#236,.T.);
#144=FACE_OUTER_BOUND('',#237,.T.);
#145=FACE_OUTER_BOUND('',#238,.T.);
#146=FACE_OUTER_BOUND('',#239,.T.);
#147=FACE_OUTER_BOUND('',#240,.T.);
#148=FACE_OUTER_BOUND('',#241,.T.);
#149=FACE_OUTER_BOUND('',#242,.T.);
#150=FACE_OUTER_BOUND('',#243,.T.);
#151=EDGE_LOOP('',(#817,#818,#819,#820));
#152=EDGE_LOOP('',(#821,#822,#823,#824));
#153=EDGE_LOOP('',(#825,#826,#827,#828));
#154=EDGE_LOOP('',(#829,#830,#831,#832));
#155=EDGE_LOOP('',(#833,#834,#835,#836,#837,#838));
#156=EDGE_LOOP('',(#839,#840,#841,#842,#843,#844,#845,#846));
#157=EDGE_LOOP('',(#847,#848,#849,#850));
#158=EDGE_LOOP('',(#851,#852,#853,#854));
#159=EDGE_LOOP('',(#855,#856,#857,#858));
#160=EDGE_LOOP('',(#859,#860,#861,#862));
#161=EDGE_LOOP('',(#863,#864,#865,#866));
#162=EDGE_LOOP('',(#867));
#163=EDGE_LOOP('',(#868));
#164=EDGE_LOOP('',(#869,#870,#871,#872));
#165=EDGE_LOOP('',(#873));
#166=EDGE_LOOP('',(#874));
#167=EDGE_LOOP('',(#875,#876,#877,#878));
#168=EDGE_LOOP('',(#879));
#169=EDGE_LOOP('',(#880));
#170=EDGE_LOOP('',(#881,#882,#883,#884));
#171=EDGE_LOOP('',(#885));
#172=EDGE_LOOP('',(#886));
#173=EDGE_LOOP('',(#887,#888,#889,#890));
#174=EDGE_LOOP('',(#891,#892,#893,#894));
#175=EDGE_LOOP('',(#895,#896,#897,#898));
#176=EDGE_LOOP('',(#899,#900,#901,#902,#903,#904,#905,#906,#907,#908));
#177=EDGE_LOOP('',(#909,#910,#911,#912));
#178=EDGE_LOOP('',(#913,#914,#915,#916));
#179=EDGE_LOOP('',(#917,#918,#919,#920));
#180=EDGE_LOOP('',(#921,#922,#923,#924));
#181=EDGE_LOOP('',(#925));
#182=EDGE_LOOP('',(#926));
#183=EDGE_LOOP('',(#927));
#184=EDGE_LOOP('',(#928,#929,#930,#931,#932,#933,#934,#935,#936,#937));
#185=EDGE_LOOP('',(#938,#939,#940,#941));
#186=EDGE_LOOP('',(#942,#943,#944,#945));
#187=EDGE_LOOP('',(#946,#947,#948,#949,#950,#951));
#188=EDGE_LOOP('',(#952));
#189=EDGE_LOOP('',(#953));
#190=EDGE_LOOP('',(#954,#955,#956));
#191=EDGE_LOOP('',(#957));
#192=EDGE_LOOP('',(#958,#959,#960));
#193=EDGE_LOOP('',(#961));
#194=EDGE_LOOP('',(#962));
#195=EDGE_LOOP('',(#963));
#196=EDGE_LOOP('',(#964,#965,#966,#967,#968,#969,#970,#971,#972,#973));
#197=EDGE_LOOP('',(#974));
#198=EDGE_LOOP('',(#975));
#199=EDGE_LOOP('',(#976));
#200=EDGE_LOOP('',(#977));
#201=EDGE_LOOP('',(#978,#979,#980,#981));
#202=EDGE_LOOP('',(#982,#983,#984,#985,#986,#987,#988,#989,#990,#991));
#203=EDGE_LOOP('',(#992,#993,#994,#995,#996,#997));
#204=EDGE_LOOP('',(#998,#999,#1000,#1001,#1002,#1003,#1004,#1005));
#205=EDGE_LOOP('',(#1006,#1007,#1008,#1009,#1010,#1011,#1012,#1013,#1014));
#206=EDGE_LOOP('',(#1015,#1016,#1017,#1018,#1019,#1020));
#207=EDGE_LOOP('',(#1021,#1022,#1023,#1024,#1025,#1026,#1027,#1028,#1029,
#1030));
#208=EDGE_LOOP('',(#1031,#1032,#1033,#1034));
#209=EDGE_LOOP('',(#1035,#1036,#1037,#1038,#1039,#1040,#1041,#1042));
#210=EDGE_LOOP('',(#1043,#1044,#1045,#1046,#1047,#1048,#1049,#1050));
#211=EDGE_LOOP('',(#1051));
#212=EDGE_LOOP('',(#1052,#1053,#1054,#1055,#1056,#1057,#1058,#1059));
#213=EDGE_LOOP('',(#1060));
#214=EDGE_LOOP('',(#1061));
#215=EDGE_LOOP('',(#1062));
#216=EDGE_LOOP('',(#1063));
#217=EDGE_LOOP('',(#1064,#1065,#1066,#1067));
#218=EDGE_LOOP('',(#1068,#1069,#1070,#1071));
#219=EDGE_LOOP('',(#1072));
#220=EDGE_LOOP('',(#1073));
#221=EDGE_LOOP('',(#1074,#1075,#1076,#1077));
#222=EDGE_LOOP('',(#1078));
#223=EDGE_LOOP('',(#1079,#1080,#1081,#1082,#1083,#1084));
#224=EDGE_LOOP('',(#1085,#1086,#1087,#1088));
#225=EDGE_LOOP('',(#1089));
#226=EDGE_LOOP('',(#1090));
#227=EDGE_LOOP('',(#1091));
#228=EDGE_LOOP('',(#1092));
#229=EDGE_LOOP('',(#1093,#1094,#1095,#1096));
#230=EDGE_LOOP('',(#1097,#1098,#1099,#1100));
#231=EDGE_LOOP('',(#1101,#1102,#1103,#1104));
#232=EDGE_LOOP('',(#1105,#1106,#1107));
#233=EDGE_LOOP('',(#1108,#1109,#1110,#1111,#1112,#1113));
#234=EDGE_LOOP('',(#1114,#1115,#1116,#1117,#1118,#1119));
#235=EDGE_LOOP('',(#1120,#1121,#1122));
#236=EDGE_LOOP('',(#1123,#1124));
#237=EDGE_LOOP('',(#1125,#1126));
#238=EDGE_LOOP('',(#1127,#1128));
#239=EDGE_LOOP('',(#1129,#1130,#1131,#1132));
#240=EDGE_LOOP('',(#1133,#1134,#1135,#1136));
#241=EDGE_LOOP('',(#1137,#1138,#1139,#1140));
#242=EDGE_LOOP('',(#1141,#1142,#1143,#1144));
#243=EDGE_LOOP('',(#1145,#1146,#1147,#1148,#1149,#1150,#1151,#1152,#1153,
#1154,#1155,#1156,#1157,#1158));
#244=LINE('',#1737,#363);
#245=LINE('',#1742,#364);
#246=LINE('',#1746,#365);
#247=LINE('',#1751,#366);
#248=LINE('',#1755,#367);
#249=LINE('',#1761,#368);
#250=LINE('',#1765,#369);
#251=LINE('',#1767,#370);
#252=LINE('',#1769,#371);
#253=LINE('',#1771,#372);
#254=LINE('',#1772,#373);
#255=LINE('',#1775,#374);
#256=LINE('',#1776,#375);
#257=LINE('',#1777,#376);
#258=LINE('',#1779,#377);
#259=LINE('',#1780,#378);
#260=LINE('',#1785,#379);
#261=LINE('',#1791,#380);
#262=LINE('',#1797,#381);
#263=LINE('',#1803,#382);
#264=LINE('',#1809,#383);
#265=LINE('',#1818,#384);
#266=LINE('',#1827,#385);
#267=LINE('',#1836,#386);
#268=LINE('',#1844,#387);
#269=LINE('',#1848,#388);
#270=LINE('',#1852,#389);
#271=LINE('',#1855,#390);
#272=LINE('',#1858,#391);
#273=LINE('',#1861,#392);
#274=LINE('',#1864,#393);
#275=LINE('',#1866,#394);
#276=LINE('',#1868,#395);
#277=LINE('',#1870,#396);
#278=LINE('',#1872,#397);
#279=LINE('',#1874,#398);
#280=LINE('',#1875,#399);
#281=LINE('',#1879,#400);
#282=LINE('',#1881,#401);
#283=LINE('',#1883,#402);
#284=LINE('',#1884,#403);
#285=LINE('',#1887,#404);
#286=LINE('',#1889,#405);
#287=LINE('',#1890,#406);
#288=LINE('',#1893,#407);
#289=LINE('',#1895,#408);
#290=LINE('',#1896,#409);
#291=LINE('',#1900,#410);
#292=LINE('',#1902,#411);
#293=LINE('',#1904,#412);
#294=LINE('',#1905,#413);
#295=LINE('',#1909,#414);
#296=LINE('',#1910,#415);
#297=LINE('',#1911,#416);
#298=LINE('',#1913,#417);
#299=LINE('',#1916,#418);
#300=LINE('',#1917,#419);
#301=LINE('',#1919,#420);
#302=LINE('',#1920,#421);
#303=LINE('',#1927,#422);
#304=LINE('',#1929,#423);
#305=LINE('',#1931,#424);
#306=LINE('',#1933,#425);
#307=LINE('',#1935,#426);
#308=LINE('',#1937,#427);
#309=LINE('',#1939,#428);
#310=LINE('',#1940,#429);
#311=LINE('',#1943,#430);
#312=LINE('',#1945,#431);
#313=LINE('',#1946,#432);
#314=LINE('',#1949,#433);
#315=LINE('',#1951,#434);
#316=LINE('',#1953,#435);
#317=LINE('',#1955,#436);
#318=LINE('',#1957,#437);
#319=LINE('',#1959,#438);
#320=LINE('',#1961,#439);
#321=LINE('',#1962,#440);
#322=LINE('',#1965,#441);
#323=LINE('',#1967,#442);
#324=LINE('',#1969,#443);
#325=LINE('',#1970,#444);
#326=LINE('',#1972,#445);
#327=LINE('',#1974,#446);
#328=LINE('',#1975,#447);
#329=LINE('',#1976,#448);
#330=LINE('',#1979,#449);
#331=LINE('',#1985,#450);
#332=LINE('',#1987,#451);
#333=LINE('',#1989,#452);
#334=LINE('',#1990,#453);
#335=LINE('',#1992,#454);
#336=LINE('',#1994,#455);
#337=LINE('',#1996,#456);
#338=LINE('',#1997,#457);
#339=LINE('',#2000,#458);
#340=LINE('',#2002,#459);
#341=LINE('',#2004,#460);
#342=LINE('',#2005,#461);
#343=LINE('',#2008,#462);
#344=LINE('',#2009,#463);
#345=LINE('',#2013,#464);
#346=LINE('',#2015,#465);
#347=LINE('',#2017,#466);
#348=LINE('',#2019,#467);
#349=LINE('',#2024,#468);
#350=LINE('',#2025,#469);
#351=LINE('',#2028,#470);
#352=LINE('',#2034,#471);
#353=LINE('',#2051,#472);
#354=LINE('',#2056,#473);
#355=LINE('',#2059,#474);
#356=LINE('',#2060,#475);
#357=LINE('',#2062,#476);
#358=LINE('',#2072,#477);
#359=LINE('',#2074,#478);
#360=LINE('',#2076,#479);
#361=LINE('',#2078,#480);
#362=LINE('',#2080,#481);
#363=VECTOR('',#1383,2.5);
#364=VECTOR('',#1388,10.);
#365=VECTOR('',#1391,10.);
#366=VECTOR('',#1396,10.);
#367=VECTOR('',#1399,10.);
#368=VECTOR('',#1406,2.5);
#369=VECTOR('',#1411,10.);
#370=VECTOR('',#1412,10.);
#371=VECTOR('',#1413,10.);
#372=VECTOR('',#1414,10.);
#373=VECTOR('',#1415,10.);
#374=VECTOR('',#1418,10.);
#375=VECTOR('',#1419,10.);
#376=VECTOR('',#1420,10.);
#377=VECTOR('',#1421,10.);
#378=VECTOR('',#1422,10.);
#379=VECTOR('',#1427,1.40000000000001);
#380=VECTOR('',#1434,1.40000000000001);
#381=VECTOR('',#1441,1.40000000000001);
#382=VECTOR('',#1448,1.40000000000001);
#383=VECTOR('',#1455,3.25);
#384=VECTOR('',#1466,3.25);
#385=VECTOR('',#1477,3.25);
#386=VECTOR('',#1488,3.25);
#387=VECTOR('',#1497,10.);
#388=VECTOR('',#1500,10.);
#389=VECTOR('',#1505,10.);
#390=VECTOR('',#1508,10.);
#391=VECTOR('',#1511,10.);
#392=VECTOR('',#1514,10.);
#393=VECTOR('',#1517,10.);
#394=VECTOR('',#1518,10.);
#395=VECTOR('',#1519,10.);
#396=VECTOR('',#1520,10.);
#397=VECTOR('',#1521,10.);
#398=VECTOR('',#1522,10.);
#399=VECTOR('',#1523,10.);
#400=VECTOR('',#1526,10.);
#401=VECTOR('',#1527,10.);
#402=VECTOR('',#1528,10.);
#403=VECTOR('',#1529,10.);
#404=VECTOR('',#1532,10.);
#405=VECTOR('',#1533,10.);
#406=VECTOR('',#1534,10.);
#407=VECTOR('',#1537,10.);
#408=VECTOR('',#1538,10.);
#409=VECTOR('',#1539,10.);
#410=VECTOR('',#1542,10.);
#411=VECTOR('',#1543,10.);
#412=VECTOR('',#1544,10.);
#413=VECTOR('',#1545,10.);
#414=VECTOR('',#1548,10.);
#415=VECTOR('',#1549,10.);
#416=VECTOR('',#1550,10.);
#417=VECTOR('',#1553,10.);
#418=VECTOR('',#1556,10.);
#419=VECTOR('',#1557,10.);
#420=VECTOR('',#1560,10.);
#421=VECTOR('',#1561,10.);
#422=VECTOR('',#1572,10.);
#423=VECTOR('',#1573,10.);
#424=VECTOR('',#1574,10.);
#425=VECTOR('',#1575,10.);
#426=VECTOR('',#1576,10.);
#427=VECTOR('',#1577,10.);
#428=VECTOR('',#1578,10.);
#429=VECTOR('',#1579,10.);
#430=VECTOR('',#1582,10.);
#431=VECTOR('',#1583,10.);
#432=VECTOR('',#1584,10.);
#433=VECTOR('',#1587,10.);
#434=VECTOR('',#1588,10.);
#435=VECTOR('',#1589,10.);
#436=VECTOR('',#1590,10.);
#437=VECTOR('',#1591,10.);
#438=VECTOR('',#1592,10.);
#439=VECTOR('',#1593,10.);
#440=VECTOR('',#1594,10.);
#441=VECTOR('',#1597,10.);
#442=VECTOR('',#1598,10.);
#443=VECTOR('',#1599,10.);
#444=VECTOR('',#1600,10.);
#445=VECTOR('',#1603,10.);
#446=VECTOR('',#1604,10.);
#447=VECTOR('',#1605,10.);
#448=VECTOR('',#1606,10.);
#449=VECTOR('',#1609,10.);
#450=VECTOR('',#1614,10.);
#451=VECTOR('',#1615,10.);
#452=VECTOR('',#1616,10.);
#453=VECTOR('',#1617,10.);
#454=VECTOR('',#1620,10.);
#455=VECTOR('',#1621,10.);
#456=VECTOR('',#1622,10.);
#457=VECTOR('',#1623,10.);
#458=VECTOR('',#1626,10.);
#459=VECTOR('',#1627,10.);
#460=VECTOR('',#1628,10.);
#461=VECTOR('',#1629,10.);
#462=VECTOR('',#1632,10.);
#463=VECTOR('',#1633,10.);
#464=VECTOR('',#1638,10.);
#465=VECTOR('',#1639,10.);
#466=VECTOR('',#1642,10.);
#467=VECTOR('',#1645,10.);
#468=VECTOR('',#1650,10.);
#469=VECTOR('',#1651,10.);
#470=VECTOR('',#1654,5.);
#471=VECTOR('',#1663,10.);
#472=VECTOR('',#1686,3.25000000000003);
#473=VECTOR('',#1693,10.);
#474=VECTOR('',#1696,10.);
#475=VECTOR('',#1697,10.);
#476=VECTOR('',#1700,10.);
#477=VECTOR('',#1719,1.7);
#478=VECTOR('',#1722,1.7);
#479=VECTOR('',#1725,1.7);
#480=VECTOR('',#1728,3.15);
#481=VECTOR('',#1731,20.);
#482=CIRCLE('',#1261,2.5);
#483=CIRCLE('',#1262,2.5);
#484=CIRCLE('',#1264,2.5);
#485=CIRCLE('',#1265,2.5);
#486=CIRCLE('',#1267,2.5);
#487=CIRCLE('',#1268,2.5);
#488=CIRCLE('',#1270,2.5);
#489=CIRCLE('',#1271,2.5);
#490=CIRCLE('',#1275,1.40000000000001);
#491=CIRCLE('',#1276,1.40000000000001);
#492=CIRCLE('',#1278,1.40000000000001);
#493=CIRCLE('',#1279,1.40000000000001);
#494=CIRCLE('',#1281,1.40000000000001);
#495=CIRCLE('',#1282,1.40000000000001);
#496=CIRCLE('',#1284,1.40000000000001);
#497=CIRCLE('',#1285,1.40000000000001);
#498=CIRCLE('',#1287,3.25);
#499=CIRCLE('',#1288,3.25);
#500=CIRCLE('',#1290,3.15);
#501=CIRCLE('',#1292,3.25);
#502=CIRCLE('',#1293,3.25);
#503=CIRCLE('',#1295,1.7);
#504=CIRCLE('',#1297,3.25);
#505=CIRCLE('',#1298,3.25);
#506=CIRCLE('',#1300,1.7);
#507=CIRCLE('',#1302,3.25);
#508=CIRCLE('',#1303,3.25);
#509=CIRCLE('',#1305,1.7);
#510=CIRCLE('',#1307,3.25);
#511=CIRCLE('',#1308,1.7);
#512=CIRCLE('',#1310,3.25);
#513=CIRCLE('',#1312,1.7);
#514=CIRCLE('',#1318,5.);
#515=CIRCLE('',#1332,20.);
#516=CIRCLE('',#1333,20.);
#517=CIRCLE('',#1338,20.);
#518=CIRCLE('',#1339,20.);
#519=CIRCLE('',#1341,3.25000000000003);
#520=CIRCLE('',#1344,5.);
#521=CIRCLE('',#1346,3.25000000000003);
#522=CIRCLE('',#1349,20.);
#523=CIRCLE('',#1350,10.4);
#524=CIRCLE('',#1352,10.4);
#525=CIRCLE('',#1353,1.7);
#526=CIRCLE('',#1354,1.7);
#527=CIRCLE('',#1355,1.7);
#528=CIRCLE('',#1356,3.15);
#529=CIRCLE('',#1361,20.);
#530=CIRCLE('',#1365,20.);
#531=CIRCLE('',#1367,20.);
#532=CIRCLE('',#1369,20.);
#533=CIRCLE('',#1371,20.);
#534=VERTEX_POINT('',#1734);
#535=VERTEX_POINT('',#1736);
#536=VERTEX_POINT('',#1740);
#537=VERTEX_POINT('',#1741);
#538=VERTEX_POINT('',#1743);
#539=VERTEX_POINT('',#1745);
#540=VERTEX_POINT('',#1749);
#541=VERTEX_POINT('',#1750);
#542=VERTEX_POINT('',#1752);
#543=VERTEX_POINT('',#1754);
#544=VERTEX_POINT('',#1758);
#545=VERTEX_POINT('',#1760);
#546=VERTEX_POINT('',#1764);
#547=VERTEX_POINT('',#1766);
#548=VERTEX_POINT('',#1768);
#549=VERTEX_POINT('',#1770);
#550=VERTEX_POINT('',#1774);
#551=VERTEX_POINT('',#1778);
#552=VERTEX_POINT('',#1782);
#553=VERTEX_POINT('',#1784);
#554=VERTEX_POINT('',#1788);
#555=VERTEX_POINT('',#1790);
#556=VERTEX_POINT('',#1794);
#557=VERTEX_POINT('',#1796);
#558=VERTEX_POINT('',#1800);
#559=VERTEX_POINT('',#1802);
#560=VERTEX_POINT('',#1806);
#561=VERTEX_POINT('',#1808);
#562=VERTEX_POINT('',#1812);
#563=VERTEX_POINT('',#1815);
#564=VERTEX_POINT('',#1817);
#565=VERTEX_POINT('',#1821);
#566=VERTEX_POINT('',#1824);
#567=VERTEX_POINT('',#1826);
#568=VERTEX_POINT('',#1830);
#569=VERTEX_POINT('',#1833);
#570=VERTEX_POINT('',#1835);
#571=VERTEX_POINT('',#1839);
#572=VERTEX_POINT('',#1842);
#573=VERTEX_POINT('',#1843);
#574=VERTEX_POINT('',#1845);
#575=VERTEX_POINT('',#1847);
#576=VERTEX_POINT('',#1851);
#577=VERTEX_POINT('',#1853);
#578=VERTEX_POINT('',#1857);
#579=VERTEX_POINT('',#1859);
#580=VERTEX_POINT('',#1863);
#581=VERTEX_POINT('',#1865);
#582=VERTEX_POINT('',#1867);
#583=VERTEX_POINT('',#1869);
#584=VERTEX_POINT('',#1871);
#585=VERTEX_POINT('',#1873);
#586=VERTEX_POINT('',#1877);
#587=VERTEX_POINT('',#1878);
#588=VERTEX_POINT('',#1880);
#589=VERTEX_POINT('',#1882);
#590=VERTEX_POINT('',#1886);
#591=VERTEX_POINT('',#1888);
#592=VERTEX_POINT('',#1892);
#593=VERTEX_POINT('',#1894);
#594=VERTEX_POINT('',#1898);
#595=VERTEX_POINT('',#1899);
#596=VERTEX_POINT('',#1901);
#597=VERTEX_POINT('',#1903);
#598=VERTEX_POINT('',#1906);
#599=VERTEX_POINT('',#1908);
#600=VERTEX_POINT('',#1915);
#601=VERTEX_POINT('',#1926);
#602=VERTEX_POINT('',#1928);
#603=VERTEX_POINT('',#1930);
#604=VERTEX_POINT('',#1932);
#605=VERTEX_POINT('',#1934);
#606=VERTEX_POINT('',#1936);
#607=VERTEX_POINT('',#1938);
#608=VERTEX_POINT('',#1942);
#609=VERTEX_POINT('',#1944);
#610=VERTEX_POINT('',#1948);
#611=VERTEX_POINT('',#1950);
#612=VERTEX_POINT('',#1952);
#613=VERTEX_POINT('',#1954);
#614=VERTEX_POINT('',#1956);
#615=VERTEX_POINT('',#1958);
#616=VERTEX_POINT('',#1960);
#617=VERTEX_POINT('',#1964);
#618=VERTEX_POINT('',#1966);
#619=VERTEX_POINT('',#1968);
#620=VERTEX_POINT('',#1973);
#621=VERTEX_POINT('',#1978);
#622=VERTEX_POINT('',#1980);
#623=VERTEX_POINT('',#1982);
#624=VERTEX_POINT('',#1984);
#625=VERTEX_POINT('',#1986);
#626=VERTEX_POINT('',#1988);
#627=VERTEX_POINT('',#1993);
#628=VERTEX_POINT('',#1995);
#629=VERTEX_POINT('',#1999);
#630=VERTEX_POINT('',#2001);
#631=VERTEX_POINT('',#2003);
#632=VERTEX_POINT('',#2007);
#633=VERTEX_POINT('',#2011);
#634=VERTEX_POINT('',#2014);
#635=VERTEX_POINT('',#2020);
#636=VERTEX_POINT('',#2023);
#637=VERTEX_POINT('',#2027);
#638=VERTEX_POINT('',#2031);
#639=VERTEX_POINT('',#2036);
#640=VERTEX_POINT('',#2041);
#641=VERTEX_POINT('',#2043);
#642=VERTEX_POINT('',#2045);
#643=VERTEX_POINT('',#2047);
#644=VERTEX_POINT('',#2054);
#645=VERTEX_POINT('',#2058);
#646=EDGE_CURVE('',#534,#534,#482,.T.);
#647=EDGE_CURVE('',#534,#535,#244,.T.);
#648=EDGE_CURVE('',#535,#535,#483,.T.);
#649=EDGE_CURVE('',#536,#537,#245,.T.);
#650=EDGE_CURVE('',#538,#536,#484,.T.);
#651=EDGE_CURVE('',#539,#538,#246,.T.);
#652=EDGE_CURVE('',#539,#537,#485,.T.);
#653=EDGE_CURVE('',#540,#541,#247,.T.);
#654=EDGE_CURVE('',#542,#540,#486,.T.);
#655=EDGE_CURVE('',#543,#542,#248,.T.);
#656=EDGE_CURVE('',#543,#541,#487,.T.);
#657=EDGE_CURVE('',#544,#544,#488,.T.);
#658=EDGE_CURVE('',#544,#545,#249,.T.);
#659=EDGE_CURVE('',#545,#545,#489,.T.);
#660=EDGE_CURVE('',#546,#543,#250,.T.);
#661=EDGE_CURVE('',#547,#542,#251,.T.);
#662=EDGE_CURVE('',#547,#548,#252,.T.);
#663=EDGE_CURVE('',#549,#548,#253,.T.);
#664=EDGE_CURVE('',#546,#549,#254,.T.);
#665=EDGE_CURVE('',#550,#539,#255,.T.);
#666=EDGE_CURVE('',#540,#538,#256,.T.);
#667=EDGE_CURVE('',#541,#546,#257,.T.);
#668=EDGE_CURVE('',#551,#549,#258,.T.);
#669=EDGE_CURVE('',#550,#551,#259,.T.);
#670=EDGE_CURVE('',#552,#552,#490,.T.);
#671=EDGE_CURVE('',#552,#553,#260,.T.);
#672=EDGE_CURVE('',#553,#553,#491,.T.);
#673=EDGE_CURVE('',#554,#554,#492,.T.);
#674=EDGE_CURVE('',#554,#555,#261,.T.);
#675=EDGE_CURVE('',#555,#555,#493,.T.);
#676=EDGE_CURVE('',#556,#556,#494,.T.);
#677=EDGE_CURVE('',#556,#557,#262,.T.);
#678=EDGE_CURVE('',#557,#557,#495,.T.);
#679=EDGE_CURVE('',#558,#558,#496,.T.);
#680=EDGE_CURVE('',#558,#559,#263,.T.);
#681=EDGE_CURVE('',#559,#559,#497,.T.);
#682=EDGE_CURVE('',#560,#560,#498,.T.);
#683=EDGE_CURVE('',#560,#561,#264,.T.);
#684=EDGE_CURVE('',#561,#561,#499,.T.);
#685=EDGE_CURVE('',#562,#562,#500,.T.);
#686=EDGE_CURVE('',#563,#563,#501,.T.);
#687=EDGE_CURVE('',#563,#564,#265,.T.);
#688=EDGE_CURVE('',#564,#564,#502,.T.);
#689=EDGE_CURVE('',#565,#565,#503,.T.);
#690=EDGE_CURVE('',#566,#566,#504,.T.);
#691=EDGE_CURVE('',#566,#567,#266,.T.);
#692=EDGE_CURVE('',#567,#567,#505,.T.);
#693=EDGE_CURVE('',#568,#568,#506,.T.);
#694=EDGE_CURVE('',#569,#569,#507,.T.);
#695=EDGE_CURVE('',#569,#570,#267,.T.);
#696=EDGE_CURVE('',#570,#570,#508,.T.);
#697=EDGE_CURVE('',#571,#571,#509,.T.);
#698=EDGE_CURVE('',#572,#573,#268,.T.);
#699=EDGE_CURVE('',#572,#574,#510,.T.);
#700=EDGE_CURVE('',#575,#574,#269,.T.);
#701=EDGE_CURVE('',#573,#575,#511,.T.);
#702=EDGE_CURVE('',#576,#572,#270,.T.);
#703=EDGE_CURVE('',#577,#576,#512,.T.);
#704=EDGE_CURVE('',#574,#577,#271,.T.);
#705=EDGE_CURVE('',#575,#578,#272,.T.);
#706=EDGE_CURVE('',#579,#578,#513,.T.);
#707=EDGE_CURVE('',#579,#573,#273,.T.);
#708=EDGE_CURVE('',#577,#580,#274,.T.);
#709=EDGE_CURVE('',#581,#580,#275,.T.);
#710=EDGE_CURVE('',#582,#581,#276,.T.);
#711=EDGE_CURVE('',#583,#582,#277,.T.);
#712=EDGE_CURVE('',#584,#583,#278,.T.);
#713=EDGE_CURVE('',#585,#584,#279,.T.);
#714=EDGE_CURVE('',#578,#585,#280,.T.);
#715=EDGE_CURVE('',#586,#587,#281,.T.);
#716=EDGE_CURVE('',#588,#586,#282,.T.);
#717=EDGE_CURVE('',#589,#588,#283,.T.);
#718=EDGE_CURVE('',#587,#589,#284,.T.);
#719=EDGE_CURVE('',#590,#586,#285,.T.);
#720=EDGE_CURVE('',#591,#590,#286,.T.);
#721=EDGE_CURVE('',#588,#591,#287,.T.);
#722=EDGE_CURVE('',#592,#590,#288,.T.);
#723=EDGE_CURVE('',#593,#592,#289,.T.);
#724=EDGE_CURVE('',#591,#593,#290,.T.);
#725=EDGE_CURVE('',#594,#595,#291,.T.);
#726=EDGE_CURVE('',#595,#596,#292,.T.);
#727=EDGE_CURVE('',#597,#596,#293,.T.);
#728=EDGE_CURVE('',#594,#597,#294,.T.);
#729=EDGE_CURVE('',#598,#598,#514,.T.);
#730=EDGE_CURVE('',#536,#599,#295,.T.);
#731=EDGE_CURVE('',#599,#589,#296,.T.);
#732=EDGE_CURVE('',#593,#547,#297,.T.);
#733=EDGE_CURVE('',#548,#592,#298,.T.);
#734=EDGE_CURVE('',#599,#600,#299,.T.);
#735=EDGE_CURVE('',#587,#600,#300,.T.);
#736=EDGE_CURVE('',#537,#550,#301,.T.);
#737=EDGE_CURVE('',#600,#551,#302,.T.);
#738=EDGE_CURVE('',#601,#576,#303,.T.);
#739=EDGE_CURVE('',#602,#601,#304,.T.);
#740=EDGE_CURVE('',#602,#603,#305,.T.);
#741=EDGE_CURVE('',#603,#604,#306,.T.);
#742=EDGE_CURVE('',#605,#604,#307,.T.);
#743=EDGE_CURVE('',#605,#606,#308,.T.);
#744=EDGE_CURVE('',#606,#607,#309,.T.);
#745=EDGE_CURVE('',#580,#607,#310,.T.);
#746=EDGE_CURVE('',#608,#603,#311,.T.);
#747=EDGE_CURVE('',#609,#608,#312,.T.);
#748=EDGE_CURVE('',#604,#609,#313,.T.);
#749=EDGE_CURVE('',#610,#605,#314,.T.);
#750=EDGE_CURVE('',#611,#609,#315,.T.);
#751=EDGE_CURVE('',#612,#611,#316,.T.);
#752=EDGE_CURVE('',#612,#613,#317,.T.);
#753=EDGE_CURVE('',#614,#613,#318,.T.);
#754=EDGE_CURVE('',#614,#615,#319,.T.);
#755=EDGE_CURVE('',#615,#616,#320,.T.);
#756=EDGE_CURVE('',#610,#616,#321,.T.);
#757=EDGE_CURVE('',#607,#617,#322,.T.);
#758=EDGE_CURVE('',#618,#617,#323,.T.);
#759=EDGE_CURVE('',#619,#618,#324,.T.);
#760=EDGE_CURVE('',#581,#619,#325,.T.);
#761=EDGE_CURVE('',#596,#611,#326,.T.);
#762=EDGE_CURVE('',#608,#620,#327,.T.);
#763=EDGE_CURVE('',#620,#610,#328,.T.);
#764=EDGE_CURVE('',#616,#597,#329,.T.);
#765=EDGE_CURVE('',#582,#621,#330,.T.);
#766=EDGE_CURVE('',#622,#619,#515,.T.);
#767=EDGE_CURVE('',#623,#622,#516,.T.);
#768=EDGE_CURVE('',#623,#624,#331,.T.);
#769=EDGE_CURVE('',#624,#625,#332,.T.);
#770=EDGE_CURVE('',#626,#625,#333,.T.);
#771=EDGE_CURVE('',#621,#626,#334,.T.);
#772=EDGE_CURVE('',#624,#601,#335,.T.);
#773=EDGE_CURVE('',#627,#623,#336,.T.);
#774=EDGE_CURVE('',#628,#627,#337,.T.);
#775=EDGE_CURVE('',#628,#602,#338,.T.);
#776=EDGE_CURVE('',#629,#579,#339,.T.);
#777=EDGE_CURVE('',#630,#629,#340,.T.);
#778=EDGE_CURVE('',#631,#630,#341,.T.);
#779=EDGE_CURVE('',#631,#625,#342,.T.);
#780=EDGE_CURVE('',#632,#631,#343,.T.);
#781=EDGE_CURVE('',#632,#626,#344,.T.);
#782=EDGE_CURVE('',#627,#633,#517,.T.);
#783=EDGE_CURVE('',#595,#633,#345,.T.);
#784=EDGE_CURVE('',#634,#594,#346,.T.);
#785=EDGE_CURVE('',#634,#618,#518,.T.);
#786=EDGE_CURVE('',#628,#617,#347,.T.);
#787=EDGE_CURVE('',#606,#620,#348,.T.);
#788=EDGE_CURVE('',#635,#635,#519,.T.);
#789=EDGE_CURVE('',#636,#632,#349,.T.);
#790=EDGE_CURVE('',#636,#621,#350,.T.);
#791=EDGE_CURVE('',#598,#637,#351,.T.);
#792=EDGE_CURVE('',#637,#637,#520,.T.);
#793=EDGE_CURVE('',#638,#638,#521,.T.);
#794=EDGE_CURVE('',#583,#636,#352,.T.);
#795=EDGE_CURVE('',#639,#639,#522,.T.);
#796=EDGE_CURVE('',#630,#584,#523,.T.);
#797=EDGE_CURVE('',#629,#585,#524,.T.);
#798=EDGE_CURVE('',#640,#640,#525,.T.);
#799=EDGE_CURVE('',#641,#641,#526,.T.);
#800=EDGE_CURVE('',#642,#642,#527,.T.);
#801=EDGE_CURVE('',#643,#643,#528,.T.);
#802=EDGE_CURVE('',#638,#635,#353,.T.);
#803=EDGE_CURVE('',#644,#613,#529,.T.);
#804=EDGE_CURVE('',#644,#612,#354,.T.);
#805=EDGE_CURVE('',#615,#645,#355,.T.);
#806=EDGE_CURVE('',#634,#645,#356,.T.);
#807=EDGE_CURVE('',#644,#633,#357,.T.);
#808=EDGE_CURVE('',#614,#645,#530,.T.);
#809=EDGE_CURVE('',#613,#614,#531,.T.);
#810=EDGE_CURVE('',#633,#644,#532,.T.);
#811=EDGE_CURVE('',#645,#634,#533,.T.);
#812=EDGE_CURVE('',#640,#568,#358,.T.);
#813=EDGE_CURVE('',#641,#571,#359,.T.);
#814=EDGE_CURVE('',#642,#565,#360,.T.);
#815=EDGE_CURVE('',#643,#562,#361,.T.);
#816=EDGE_CURVE('',#622,#639,#362,.T.);
#817=ORIENTED_EDGE('',*,*,#646,.F.);
#818=ORIENTED_EDGE('',*,*,#647,.T.);
#819=ORIENTED_EDGE('',*,*,#648,.T.);
#820=ORIENTED_EDGE('',*,*,#647,.F.);
#821=ORIENTED_EDGE('',*,*,#649,.F.);
#822=ORIENTED_EDGE('',*,*,#650,.F.);
#823=ORIENTED_EDGE('',*,*,#651,.F.);
#824=ORIENTED_EDGE('',*,*,#652,.T.);
#825=ORIENTED_EDGE('',*,*,#653,.F.);
#826=ORIENTED_EDGE('',*,*,#654,.F.);
#827=ORIENTED_EDGE('',*,*,#655,.F.);
#828=ORIENTED_EDGE('',*,*,#656,.T.);
#829=ORIENTED_EDGE('',*,*,#657,.F.);
#830=ORIENTED_EDGE('',*,*,#658,.T.);
#831=ORIENTED_EDGE('',*,*,#659,.T.);
#832=ORIENTED_EDGE('',*,*,#658,.F.);
#833=ORIENTED_EDGE('',*,*,#660,.T.);
#834=ORIENTED_EDGE('',*,*,#655,.T.);
#835=ORIENTED_EDGE('',*,*,#661,.F.);
#836=ORIENTED_EDGE('',*,*,#662,.T.);
#837=ORIENTED_EDGE('',*,*,#663,.F.);
#838=ORIENTED_EDGE('',*,*,#664,.F.);
#839=ORIENTED_EDGE('',*,*,#665,.T.);
#840=ORIENTED_EDGE('',*,*,#651,.T.);
#841=ORIENTED_EDGE('',*,*,#666,.F.);
#842=ORIENTED_EDGE('',*,*,#653,.T.);
#843=ORIENTED_EDGE('',*,*,#667,.T.);
#844=ORIENTED_EDGE('',*,*,#664,.T.);
#845=ORIENTED_EDGE('',*,*,#668,.F.);
#846=ORIENTED_EDGE('',*,*,#669,.F.);
#847=ORIENTED_EDGE('',*,*,#670,.F.);
#848=ORIENTED_EDGE('',*,*,#671,.T.);
#849=ORIENTED_EDGE('',*,*,#672,.F.);
#850=ORIENTED_EDGE('',*,*,#671,.F.);
#851=ORIENTED_EDGE('',*,*,#673,.F.);
#852=ORIENTED_EDGE('',*,*,#674,.T.);
#853=ORIENTED_EDGE('',*,*,#675,.F.);
#854=ORIENTED_EDGE('',*,*,#674,.F.);
#855=ORIENTED_EDGE('',*,*,#676,.F.);
#856=ORIENTED_EDGE('',*,*,#677,.T.);
#857=ORIENTED_EDGE('',*,*,#678,.F.);
#858=ORIENTED_EDGE('',*,*,#677,.F.);
#859=ORIENTED_EDGE('',*,*,#679,.F.);
#860=ORIENTED_EDGE('',*,*,#680,.T.);
#861=ORIENTED_EDGE('',*,*,#681,.F.);
#862=ORIENTED_EDGE('',*,*,#680,.F.);
#863=ORIENTED_EDGE('',*,*,#682,.F.);
#864=ORIENTED_EDGE('',*,*,#683,.T.);
#865=ORIENTED_EDGE('',*,*,#684,.F.);
#866=ORIENTED_EDGE('',*,*,#683,.F.);
#867=ORIENTED_EDGE('',*,*,#682,.T.);
#868=ORIENTED_EDGE('',*,*,#685,.F.);
#869=ORIENTED_EDGE('',*,*,#686,.F.);
#870=ORIENTED_EDGE('',*,*,#687,.T.);
#871=ORIENTED_EDGE('',*,*,#688,.F.);
#872=ORIENTED_EDGE('',*,*,#687,.F.);
#873=ORIENTED_EDGE('',*,*,#686,.T.);
#874=ORIENTED_EDGE('',*,*,#689,.F.);
#875=ORIENTED_EDGE('',*,*,#690,.F.);
#876=ORIENTED_EDGE('',*,*,#691,.T.);
#877=ORIENTED_EDGE('',*,*,#692,.F.);
#878=ORIENTED_EDGE('',*,*,#691,.F.);
#879=ORIENTED_EDGE('',*,*,#690,.T.);
#880=ORIENTED_EDGE('',*,*,#693,.F.);
#881=ORIENTED_EDGE('',*,*,#694,.F.);
#882=ORIENTED_EDGE('',*,*,#695,.T.);
#883=ORIENTED_EDGE('',*,*,#696,.F.);
#884=ORIENTED_EDGE('',*,*,#695,.F.);
#885=ORIENTED_EDGE('',*,*,#694,.T.);
#886=ORIENTED_EDGE('',*,*,#697,.F.);
#887=ORIENTED_EDGE('',*,*,#698,.F.);
#888=ORIENTED_EDGE('',*,*,#699,.T.);
#889=ORIENTED_EDGE('',*,*,#700,.F.);
#890=ORIENTED_EDGE('',*,*,#701,.F.);
#891=ORIENTED_EDGE('',*,*,#702,.F.);
#892=ORIENTED_EDGE('',*,*,#703,.F.);
#893=ORIENTED_EDGE('',*,*,#704,.F.);
#894=ORIENTED_EDGE('',*,*,#699,.F.);
#895=ORIENTED_EDGE('',*,*,#701,.T.);
#896=ORIENTED_EDGE('',*,*,#705,.T.);
#897=ORIENTED_EDGE('',*,*,#706,.F.);
#898=ORIENTED_EDGE('',*,*,#707,.T.);
#899=ORIENTED_EDGE('',*,*,#700,.T.);
#900=ORIENTED_EDGE('',*,*,#704,.T.);
#901=ORIENTED_EDGE('',*,*,#708,.T.);
#902=ORIENTED_EDGE('',*,*,#709,.F.);
#903=ORIENTED_EDGE('',*,*,#710,.F.);
#904=ORIENTED_EDGE('',*,*,#711,.F.);
#905=ORIENTED_EDGE('',*,*,#712,.F.);
#906=ORIENTED_EDGE('',*,*,#713,.F.);
#907=ORIENTED_EDGE('',*,*,#714,.F.);
#908=ORIENTED_EDGE('',*,*,#705,.F.);
#909=ORIENTED_EDGE('',*,*,#715,.F.);
#910=ORIENTED_EDGE('',*,*,#716,.F.);
#911=ORIENTED_EDGE('',*,*,#717,.F.);
#912=ORIENTED_EDGE('',*,*,#718,.F.);
#913=ORIENTED_EDGE('',*,*,#719,.F.);
#914=ORIENTED_EDGE('',*,*,#720,.F.);
#915=ORIENTED_EDGE('',*,*,#721,.F.);
#916=ORIENTED_EDGE('',*,*,#716,.T.);
#917=ORIENTED_EDGE('',*,*,#722,.F.);
#918=ORIENTED_EDGE('',*,*,#723,.F.);
#919=ORIENTED_EDGE('',*,*,#724,.F.);
#920=ORIENTED_EDGE('',*,*,#720,.T.);
#921=ORIENTED_EDGE('',*,*,#725,.T.);
#922=ORIENTED_EDGE('',*,*,#726,.T.);
#923=ORIENTED_EDGE('',*,*,#727,.F.);
#924=ORIENTED_EDGE('',*,*,#728,.F.);
#925=ORIENTED_EDGE('',*,*,#729,.T.);
#926=ORIENTED_EDGE('',*,*,#657,.T.);
#927=ORIENTED_EDGE('',*,*,#646,.T.);
#928=ORIENTED_EDGE('',*,*,#650,.T.);
#929=ORIENTED_EDGE('',*,*,#730,.T.);
#930=ORIENTED_EDGE('',*,*,#731,.T.);
#931=ORIENTED_EDGE('',*,*,#717,.T.);
#932=ORIENTED_EDGE('',*,*,#721,.T.);
#933=ORIENTED_EDGE('',*,*,#724,.T.);
#934=ORIENTED_EDGE('',*,*,#732,.T.);
#935=ORIENTED_EDGE('',*,*,#661,.T.);
#936=ORIENTED_EDGE('',*,*,#654,.T.);
#937=ORIENTED_EDGE('',*,*,#666,.T.);
#938=ORIENTED_EDGE('',*,*,#723,.T.);
#939=ORIENTED_EDGE('',*,*,#733,.F.);
#940=ORIENTED_EDGE('',*,*,#662,.F.);
#941=ORIENTED_EDGE('',*,*,#732,.F.);
#942=ORIENTED_EDGE('',*,*,#718,.T.);
#943=ORIENTED_EDGE('',*,*,#731,.F.);
#944=ORIENTED_EDGE('',*,*,#734,.T.);
#945=ORIENTED_EDGE('',*,*,#735,.F.);
#946=ORIENTED_EDGE('',*,*,#736,.T.);
#947=ORIENTED_EDGE('',*,*,#669,.T.);
#948=ORIENTED_EDGE('',*,*,#737,.F.);
#949=ORIENTED_EDGE('',*,*,#734,.F.);
#950=ORIENTED_EDGE('',*,*,#730,.F.);
#951=ORIENTED_EDGE('',*,*,#649,.T.);
#952=ORIENTED_EDGE('',*,*,#648,.F.);
#953=ORIENTED_EDGE('',*,*,#670,.T.);
#954=ORIENTED_EDGE('',*,*,#736,.F.);
#955=ORIENTED_EDGE('',*,*,#652,.F.);
#956=ORIENTED_EDGE('',*,*,#665,.F.);
#957=ORIENTED_EDGE('',*,*,#673,.T.);
#958=ORIENTED_EDGE('',*,*,#667,.F.);
#959=ORIENTED_EDGE('',*,*,#656,.F.);
#960=ORIENTED_EDGE('',*,*,#660,.F.);
#961=ORIENTED_EDGE('',*,*,#676,.T.);
#962=ORIENTED_EDGE('',*,*,#659,.F.);
#963=ORIENTED_EDGE('',*,*,#679,.T.);
#964=ORIENTED_EDGE('',*,*,#703,.T.);
#965=ORIENTED_EDGE('',*,*,#738,.F.);
#966=ORIENTED_EDGE('',*,*,#739,.F.);
#967=ORIENTED_EDGE('',*,*,#740,.T.);
#968=ORIENTED_EDGE('',*,*,#741,.T.);
#969=ORIENTED_EDGE('',*,*,#742,.F.);
#970=ORIENTED_EDGE('',*,*,#743,.T.);
#971=ORIENTED_EDGE('',*,*,#744,.T.);
#972=ORIENTED_EDGE('',*,*,#745,.F.);
#973=ORIENTED_EDGE('',*,*,#708,.F.);
#974=ORIENTED_EDGE('',*,*,#684,.T.);
#975=ORIENTED_EDGE('',*,*,#688,.T.);
#976=ORIENTED_EDGE('',*,*,#692,.T.);
#977=ORIENTED_EDGE('',*,*,#696,.T.);
#978=ORIENTED_EDGE('',*,*,#746,.F.);
#979=ORIENTED_EDGE('',*,*,#747,.F.);
#980=ORIENTED_EDGE('',*,*,#748,.F.);
#981=ORIENTED_EDGE('',*,*,#741,.F.);
#982=ORIENTED_EDGE('',*,*,#749,.T.);
#983=ORIENTED_EDGE('',*,*,#742,.T.);
#984=ORIENTED_EDGE('',*,*,#748,.T.);
#985=ORIENTED_EDGE('',*,*,#750,.F.);
#986=ORIENTED_EDGE('',*,*,#751,.F.);
#987=ORIENTED_EDGE('',*,*,#752,.T.);
#988=ORIENTED_EDGE('',*,*,#753,.F.);
#989=ORIENTED_EDGE('',*,*,#754,.T.);
#990=ORIENTED_EDGE('',*,*,#755,.T.);
#991=ORIENTED_EDGE('',*,*,#756,.F.);
#992=ORIENTED_EDGE('',*,*,#745,.T.);
#993=ORIENTED_EDGE('',*,*,#757,.T.);
#994=ORIENTED_EDGE('',*,*,#758,.F.);
#995=ORIENTED_EDGE('',*,*,#759,.F.);
#996=ORIENTED_EDGE('',*,*,#760,.F.);
#997=ORIENTED_EDGE('',*,*,#709,.T.);
#998=ORIENTED_EDGE('',*,*,#761,.T.);
#999=ORIENTED_EDGE('',*,*,#750,.T.);
#1000=ORIENTED_EDGE('',*,*,#747,.T.);
#1001=ORIENTED_EDGE('',*,*,#762,.T.);
#1002=ORIENTED_EDGE('',*,*,#763,.T.);
#1003=ORIENTED_EDGE('',*,*,#756,.T.);
#1004=ORIENTED_EDGE('',*,*,#764,.T.);
#1005=ORIENTED_EDGE('',*,*,#727,.T.);
#1006=ORIENTED_EDGE('',*,*,#765,.F.);
#1007=ORIENTED_EDGE('',*,*,#710,.T.);
#1008=ORIENTED_EDGE('',*,*,#760,.T.);
#1009=ORIENTED_EDGE('',*,*,#766,.F.);
#1010=ORIENTED_EDGE('',*,*,#767,.F.);
#1011=ORIENTED_EDGE('',*,*,#768,.T.);
#1012=ORIENTED_EDGE('',*,*,#769,.T.);
#1013=ORIENTED_EDGE('',*,*,#770,.F.);
#1014=ORIENTED_EDGE('',*,*,#771,.F.);
#1015=ORIENTED_EDGE('',*,*,#739,.T.);
#1016=ORIENTED_EDGE('',*,*,#772,.F.);
#1017=ORIENTED_EDGE('',*,*,#768,.F.);
#1018=ORIENTED_EDGE('',*,*,#773,.F.);
#1019=ORIENTED_EDGE('',*,*,#774,.F.);
#1020=ORIENTED_EDGE('',*,*,#775,.T.);
#1021=ORIENTED_EDGE('',*,*,#698,.T.);
#1022=ORIENTED_EDGE('',*,*,#707,.F.);
#1023=ORIENTED_EDGE('',*,*,#776,.F.);
#1024=ORIENTED_EDGE('',*,*,#777,.F.);
#1025=ORIENTED_EDGE('',*,*,#778,.F.);
#1026=ORIENTED_EDGE('',*,*,#779,.T.);
#1027=ORIENTED_EDGE('',*,*,#769,.F.);
#1028=ORIENTED_EDGE('',*,*,#772,.T.);
#1029=ORIENTED_EDGE('',*,*,#738,.T.);
#1030=ORIENTED_EDGE('',*,*,#702,.T.);
#1031=ORIENTED_EDGE('',*,*,#770,.T.);
#1032=ORIENTED_EDGE('',*,*,#779,.F.);
#1033=ORIENTED_EDGE('',*,*,#780,.F.);
#1034=ORIENTED_EDGE('',*,*,#781,.T.);
#1035=ORIENTED_EDGE('',*,*,#774,.T.);
#1036=ORIENTED_EDGE('',*,*,#782,.T.);
#1037=ORIENTED_EDGE('',*,*,#783,.F.);
#1038=ORIENTED_EDGE('',*,*,#725,.F.);
#1039=ORIENTED_EDGE('',*,*,#784,.F.);
#1040=ORIENTED_EDGE('',*,*,#785,.T.);
#1041=ORIENTED_EDGE('',*,*,#758,.T.);
#1042=ORIENTED_EDGE('',*,*,#786,.F.);
#1043=ORIENTED_EDGE('',*,*,#787,.T.);
#1044=ORIENTED_EDGE('',*,*,#762,.F.);
#1045=ORIENTED_EDGE('',*,*,#746,.T.);
#1046=ORIENTED_EDGE('',*,*,#740,.F.);
#1047=ORIENTED_EDGE('',*,*,#775,.F.);
#1048=ORIENTED_EDGE('',*,*,#786,.T.);
#1049=ORIENTED_EDGE('',*,*,#757,.F.);
#1050=ORIENTED_EDGE('',*,*,#744,.F.);
#1051=ORIENTED_EDGE('',*,*,#788,.T.);
#1052=ORIENTED_EDGE('',*,*,#715,.T.);
#1053=ORIENTED_EDGE('',*,*,#735,.T.);
#1054=ORIENTED_EDGE('',*,*,#737,.T.);
#1055=ORIENTED_EDGE('',*,*,#668,.T.);
#1056=ORIENTED_EDGE('',*,*,#663,.T.);
#1057=ORIENTED_EDGE('',*,*,#733,.T.);
#1058=ORIENTED_EDGE('',*,*,#722,.T.);
#1059=ORIENTED_EDGE('',*,*,#719,.T.);
#1060=ORIENTED_EDGE('',*,*,#681,.T.);
#1061=ORIENTED_EDGE('',*,*,#678,.T.);
#1062=ORIENTED_EDGE('',*,*,#675,.T.);
#1063=ORIENTED_EDGE('',*,*,#672,.T.);
#1064=ORIENTED_EDGE('',*,*,#771,.T.);
#1065=ORIENTED_EDGE('',*,*,#781,.F.);
#1066=ORIENTED_EDGE('',*,*,#789,.F.);
#1067=ORIENTED_EDGE('',*,*,#790,.T.);
#1068=ORIENTED_EDGE('',*,*,#729,.F.);
#1069=ORIENTED_EDGE('',*,*,#791,.T.);
#1070=ORIENTED_EDGE('',*,*,#792,.T.);
#1071=ORIENTED_EDGE('',*,*,#791,.F.);
#1072=ORIENTED_EDGE('',*,*,#792,.F.);
#1073=ORIENTED_EDGE('',*,*,#793,.T.);
#1074=ORIENTED_EDGE('',*,*,#765,.T.);
#1075=ORIENTED_EDGE('',*,*,#790,.F.);
#1076=ORIENTED_EDGE('',*,*,#794,.F.);
#1077=ORIENTED_EDGE('',*,*,#711,.T.);
#1078=ORIENTED_EDGE('',*,*,#795,.F.);
#1079=ORIENTED_EDGE('',*,*,#712,.T.);
#1080=ORIENTED_EDGE('',*,*,#794,.T.);
#1081=ORIENTED_EDGE('',*,*,#789,.T.);
#1082=ORIENTED_EDGE('',*,*,#780,.T.);
#1083=ORIENTED_EDGE('',*,*,#778,.T.);
#1084=ORIENTED_EDGE('',*,*,#796,.T.);
#1085=ORIENTED_EDGE('',*,*,#714,.T.);
#1086=ORIENTED_EDGE('',*,*,#797,.F.);
#1087=ORIENTED_EDGE('',*,*,#776,.T.);
#1088=ORIENTED_EDGE('',*,*,#706,.T.);
#1089=ORIENTED_EDGE('',*,*,#798,.T.);
#1090=ORIENTED_EDGE('',*,*,#799,.T.);
#1091=ORIENTED_EDGE('',*,*,#800,.T.);
#1092=ORIENTED_EDGE('',*,*,#801,.T.);
#1093=ORIENTED_EDGE('',*,*,#713,.T.);
#1094=ORIENTED_EDGE('',*,*,#796,.F.);
#1095=ORIENTED_EDGE('',*,*,#777,.T.);
#1096=ORIENTED_EDGE('',*,*,#797,.T.);
#1097=ORIENTED_EDGE('',*,*,#793,.F.);
#1098=ORIENTED_EDGE('',*,*,#802,.T.);
#1099=ORIENTED_EDGE('',*,*,#788,.F.);
#1100=ORIENTED_EDGE('',*,*,#802,.F.);
#1101=ORIENTED_EDGE('',*,*,#749,.F.);
#1102=ORIENTED_EDGE('',*,*,#763,.F.);
#1103=ORIENTED_EDGE('',*,*,#787,.F.);
#1104=ORIENTED_EDGE('',*,*,#743,.F.);
#1105=ORIENTED_EDGE('',*,*,#803,.T.);
#1106=ORIENTED_EDGE('',*,*,#752,.F.);
#1107=ORIENTED_EDGE('',*,*,#804,.F.);
#1108=ORIENTED_EDGE('',*,*,#764,.F.);
#1109=ORIENTED_EDGE('',*,*,#755,.F.);
#1110=ORIENTED_EDGE('',*,*,#805,.T.);
#1111=ORIENTED_EDGE('',*,*,#806,.F.);
#1112=ORIENTED_EDGE('',*,*,#784,.T.);
#1113=ORIENTED_EDGE('',*,*,#728,.T.);
#1114=ORIENTED_EDGE('',*,*,#783,.T.);
#1115=ORIENTED_EDGE('',*,*,#807,.F.);
#1116=ORIENTED_EDGE('',*,*,#804,.T.);
#1117=ORIENTED_EDGE('',*,*,#751,.T.);
#1118=ORIENTED_EDGE('',*,*,#761,.F.);
#1119=ORIENTED_EDGE('',*,*,#726,.F.);
#1120=ORIENTED_EDGE('',*,*,#754,.F.);
#1121=ORIENTED_EDGE('',*,*,#808,.T.);
#1122=ORIENTED_EDGE('',*,*,#805,.F.);
#1123=ORIENTED_EDGE('',*,*,#753,.T.);
#1124=ORIENTED_EDGE('',*,*,#809,.T.);
#1125=ORIENTED_EDGE('',*,*,#807,.T.);
#1126=ORIENTED_EDGE('',*,*,#810,.T.);
#1127=ORIENTED_EDGE('',*,*,#806,.T.);
#1128=ORIENTED_EDGE('',*,*,#811,.T.);
#1129=ORIENTED_EDGE('',*,*,#798,.F.);
#1130=ORIENTED_EDGE('',*,*,#812,.T.);
#1131=ORIENTED_EDGE('',*,*,#693,.T.);
#1132=ORIENTED_EDGE('',*,*,#812,.F.);
#1133=ORIENTED_EDGE('',*,*,#799,.F.);
#1134=ORIENTED_EDGE('',*,*,#813,.T.);
#1135=ORIENTED_EDGE('',*,*,#697,.T.);
#1136=ORIENTED_EDGE('',*,*,#813,.F.);
#1137=ORIENTED_EDGE('',*,*,#800,.F.);
#1138=ORIENTED_EDGE('',*,*,#814,.T.);
#1139=ORIENTED_EDGE('',*,*,#689,.T.);
#1140=ORIENTED_EDGE('',*,*,#814,.F.);
#1141=ORIENTED_EDGE('',*,*,#801,.F.);
#1142=ORIENTED_EDGE('',*,*,#815,.T.);
#1143=ORIENTED_EDGE('',*,*,#685,.T.);
#1144=ORIENTED_EDGE('',*,*,#815,.F.);
#1145=ORIENTED_EDGE('',*,*,#759,.T.);
#1146=ORIENTED_EDGE('',*,*,#785,.F.);
#1147=ORIENTED_EDGE('',*,*,#811,.F.);
#1148=ORIENTED_EDGE('',*,*,#808,.F.);
#1149=ORIENTED_EDGE('',*,*,#809,.F.);
#1150=ORIENTED_EDGE('',*,*,#803,.F.);
#1151=ORIENTED_EDGE('',*,*,#810,.F.);
#1152=ORIENTED_EDGE('',*,*,#782,.F.);
#1153=ORIENTED_EDGE('',*,*,#773,.T.);
#1154=ORIENTED_EDGE('',*,*,#767,.T.);
#1155=ORIENTED_EDGE('',*,*,#816,.T.);
#1156=ORIENTED_EDGE('',*,*,#795,.T.);
#1157=ORIENTED_EDGE('',*,*,#816,.F.);
#1158=ORIENTED_EDGE('',*,*,#766,.T.);
#1159=CYLINDRICAL_SURFACE('',#1260,2.5);
#1160=CYLINDRICAL_SURFACE('',#1263,2.5);
#1161=CYLINDRICAL_SURFACE('',#1266,2.5);
#1162=CYLINDRICAL_SURFACE('',#1269,2.5);
#1163=CYLINDRICAL_SURFACE('',#1274,1.40000000000001);
#1164=CYLINDRICAL_SURFACE('',#1277,1.40000000000001);
#1165=CYLINDRICAL_SURFACE('',#1280,1.40000000000001);
#1166=CYLINDRICAL_SURFACE('',#1283,1.40000000000001);
#1167=CYLINDRICAL_SURFACE('',#1286,3.25);
#1168=CYLINDRICAL_SURFACE('',#1291,3.25);
#1169=CYLINDRICAL_SURFACE('',#1296,3.25);
#1170=CYLINDRICAL_SURFACE('',#1301,3.25);
#1171=CYLINDRICAL_SURFACE('',#1309,3.25);
#1172=CYLINDRICAL_SURFACE('',#1311,1.7);
#1173=CYLINDRICAL_SURFACE('',#1343,5.);
#1174=CYLINDRICAL_SURFACE('',#1357,10.4);
#1175=CYLINDRICAL_SURFACE('',#1358,3.25000000000003);
#1176=CYLINDRICAL_SURFACE('',#1372,1.7);
#1177=CYLINDRICAL_SURFACE('',#1373,1.7);
#1178=CYLINDRICAL_SURFACE('',#1374,1.7);
#1179=CYLINDRICAL_SURFACE('',#1375,3.15);
#1180=CYLINDRICAL_SURFACE('',#1376,20.);
#1181=ADVANCED_FACE('',(#86),#1159,.F.);
#1182=ADVANCED_FACE('',(#87),#1160,.F.);
#1183=ADVANCED_FACE('',(#88),#1161,.F.);
#1184=ADVANCED_FACE('',(#89),#1162,.F.);
#1185=ADVANCED_FACE('',(#90),#43,.F.);
#1186=ADVANCED_FACE('',(#91),#44,.F.);
#1187=ADVANCED_FACE('',(#92),#1163,.F.);
#1188=ADVANCED_FACE('',(#93),#1164,.F.);
#1189=ADVANCED_FACE('',(#94),#1165,.F.);
#1190=ADVANCED_FACE('',(#95),#1166,.F.);
#1191=ADVANCED_FACE('',(#96),#1167,.F.);
#1192=ADVANCED_FACE('',(#97,#15),#45,.T.);
#1193=ADVANCED_FACE('',(#98),#1168,.F.);
#1194=ADVANCED_FACE('',(#99,#16),#46,.T.);
#1195=ADVANCED_FACE('',(#100),#1169,.F.);
#1196=ADVANCED_FACE('',(#101,#17),#47,.T.);
#1197=ADVANCED_FACE('',(#102),#1170,.F.);
#1198=ADVANCED_FACE('',(#103,#18),#48,.T.);
#1199=ADVANCED_FACE('',(#104),#49,.T.);
#1200=ADVANCED_FACE('',(#105),#1171,.F.);
#1201=ADVANCED_FACE('',(#106),#1172,.F.);
#1202=ADVANCED_FACE('',(#107),#50,.F.);
#1203=ADVANCED_FACE('',(#108),#51,.F.);
#1204=ADVANCED_FACE('',(#109),#52,.F.);
#1205=ADVANCED_FACE('',(#110),#53,.F.);
#1206=ADVANCED_FACE('',(#111,#19,#20,#21,#22),#54,.T.);
#1207=ADVANCED_FACE('',(#112),#55,.F.);
#1208=ADVANCED_FACE('',(#113),#56,.F.);
#1209=ADVANCED_FACE('',(#114),#57,.F.);
#1210=ADVANCED_FACE('',(#115,#23),#58,.F.);
#1211=ADVANCED_FACE('',(#116,#24),#59,.F.);
#1212=ADVANCED_FACE('',(#117,#25),#60,.F.);
#1213=ADVANCED_FACE('',(#118,#26),#61,.F.);
#1214=ADVANCED_FACE('',(#119,#27,#28,#29,#30),#62,.T.);
#1215=ADVANCED_FACE('',(#120),#63,.T.);
#1216=ADVANCED_FACE('',(#121),#64,.T.);
#1217=ADVANCED_FACE('',(#122),#65,.F.);
#1218=ADVANCED_FACE('',(#123),#66,.T.);
#1219=ADVANCED_FACE('',(#124),#67,.T.);
#1220=ADVANCED_FACE('',(#125),#68,.F.);
#1221=ADVANCED_FACE('',(#126),#69,.F.);
#1222=ADVANCED_FACE('',(#127),#70,.F.);
#1223=ADVANCED_FACE('',(#128),#71,.F.);
#1224=ADVANCED_FACE('',(#129,#31,#32,#33,#34,#35,#36),#72,.T.);
#1225=ADVANCED_FACE('',(#130),#73,.T.);
#1226=ADVANCED_FACE('',(#131),#1173,.T.);
#1227=ADVANCED_FACE('',(#132,#37),#74,.F.);
#1228=ADVANCED_FACE('',(#133),#75,.F.);
#1229=ADVANCED_FACE('',(#134,#38),#76,.F.);
#1230=ADVANCED_FACE('',(#135,#39,#40,#41,#42),#77,.F.);
#1231=ADVANCED_FACE('',(#136),#1174,.F.);
#1232=ADVANCED_FACE('',(#137),#1175,.F.);
#1233=ADVANCED_FACE('',(#138),#78,.T.);
#1234=ADVANCED_FACE('',(#139),#79,.F.);
#1235=ADVANCED_FACE('',(#140),#80,.T.);
#1236=ADVANCED_FACE('',(#141),#81,.T.);
#1237=ADVANCED_FACE('',(#142),#82,.F.);
#1238=ADVANCED_FACE('',(#143),#83,.T.);
#1239=ADVANCED_FACE('',(#144),#84,.T.);
#1240=ADVANCED_FACE('',(#145),#85,.T.);
#1241=ADVANCED_FACE('',(#146),#1176,.F.);
#1242=ADVANCED_FACE('',(#147),#1177,.F.);
#1243=ADVANCED_FACE('',(#148),#1178,.F.);
#1244=ADVANCED_FACE('',(#149),#1179,.F.);
#1245=ADVANCED_FACE('',(#150),#1180,.T.);
#1246=CLOSED_SHELL('',(#1181,#1182,#1183,#1184,#1185,#1186,#1187,#1188,
#1189,#1190,#1191,#1192,#1193,#1194,#1195,#1196,#1197,#1198,#1199,#1200,
#1201,#1202,#1203,#1204,#1205,#1206,#1207,#1208,#1209,#1210,#1211,#1212,
#1213,#1214,#1215,#1216,#1217,#1218,#1219,#1220,#1221,#1222,#1223,#1224,
#1225,#1226,#1227,#1228,#1229,#1230,#1231,#1232,#1233,#1234,#1235,#1236,
#1237,#1238,#1239,#1240,#1241,#1242,#1243,#1244,#1245));
#1247=DERIVED_UNIT_ELEMENT(#1249,1.);
#1248=DERIVED_UNIT_ELEMENT(#2086,-3.);
#1249=(
MASS_UNIT()
NAMED_UNIT(*)
SI_UNIT(.KILO.,.GRAM.)
);
#1250=DERIVED_UNIT((#1247,#1248));
#1251=MEASURE_REPRESENTATION_ITEM('density measure',
POSITIVE_RATIO_MEASURE(7850.),#1250);
#1252=PROPERTY_DEFINITION_REPRESENTATION(#1257,#1254);
#1253=PROPERTY_DEFINITION_REPRESENTATION(#1258,#1255);
#1254=REPRESENTATION('material name',(#1256),#2083);
#1255=REPRESENTATION('density',(#1251),#2083);
#1256=DESCRIPTIVE_REPRESENTATION_ITEM('\X2\92FC\X0\','\X2\92FC\X0\');
#1257=PROPERTY_DEFINITION('material property','material name',#2093);
#1258=PROPERTY_DEFINITION('material property','density of part',#2093);
#1259=AXIS2_PLACEMENT_3D('',#1732,#1377,#1378);
#1260=AXIS2_PLACEMENT_3D('',#1733,#1379,#1380);
#1261=AXIS2_PLACEMENT_3D('',#1735,#1381,#1382);
#1262=AXIS2_PLACEMENT_3D('',#1738,#1384,#1385);
#1263=AXIS2_PLACEMENT_3D('',#1739,#1386,#1387);
#1264=AXIS2_PLACEMENT_3D('',#1744,#1389,#1390);
#1265=AXIS2_PLACEMENT_3D('',#1747,#1392,#1393);
#1266=AXIS2_PLACEMENT_3D('',#1748,#1394,#1395);
#1267=AXIS2_PLACEMENT_3D('',#1753,#1397,#1398);
#1268=AXIS2_PLACEMENT_3D('',#1756,#1400,#1401);
#1269=AXIS2_PLACEMENT_3D('',#1757,#1402,#1403);
#1270=AXIS2_PLACEMENT_3D('',#1759,#1404,#1405);
#1271=AXIS2_PLACEMENT_3D('',#1762,#1407,#1408);
#1272=AXIS2_PLACEMENT_3D('',#1763,#1409,#1410);
#1273=AXIS2_PLACEMENT_3D('',#1773,#1416,#1417);
#1274=AXIS2_PLACEMENT_3D('',#1781,#1423,#1424);
#1275=AXIS2_PLACEMENT_3D('',#1783,#1425,#1426);
#1276=AXIS2_PLACEMENT_3D('',#1786,#1428,#1429);
#1277=AXIS2_PLACEMENT_3D('',#1787,#1430,#1431);
#1278=AXIS2_PLACEMENT_3D('',#1789,#1432,#1433);
#1279=AXIS2_PLACEMENT_3D('',#1792,#1435,#1436);
#1280=AXIS2_PLACEMENT_3D('',#1793,#1437,#1438);
#1281=AXIS2_PLACEMENT_3D('',#1795,#1439,#1440);
#1282=AXIS2_PLACEMENT_3D('',#1798,#1442,#1443);
#1283=AXIS2_PLACEMENT_3D('',#1799,#1444,#1445);
#1284=AXIS2_PLACEMENT_3D('',#1801,#1446,#1447);
#1285=AXIS2_PLACEMENT_3D('',#1804,#1449,#1450);
#1286=AXIS2_PLACEMENT_3D('',#1805,#1451,#1452);
#1287=AXIS2_PLACEMENT_3D('',#1807,#1453,#1454);
#1288=AXIS2_PLACEMENT_3D('',#1810,#1456,#1457);
#1289=AXIS2_PLACEMENT_3D('',#1811,#1458,#1459);
#1290=AXIS2_PLACEMENT_3D('',#1813,#1460,#1461);
#1291=AXIS2_PLACEMENT_3D('',#1814,#1462,#1463);
#1292=AXIS2_PLACEMENT_3D('',#1816,#1464,#1465);
#1293=AXIS2_PLACEMENT_3D('',#1819,#1467,#1468);
#1294=AXIS2_PLACEMENT_3D('',#1820,#1469,#1470);
#1295=AXIS2_PLACEMENT_3D('',#1822,#1471,#1472);
#1296=AXIS2_PLACEMENT_3D('',#1823,#1473,#1474);
#1297=AXIS2_PLACEMENT_3D('',#1825,#1475,#1476);
#1298=AXIS2_PLACEMENT_3D('',#1828,#1478,#1479);
#1299=AXIS2_PLACEMENT_3D('',#1829,#1480,#1481);
#1300=AXIS2_PLACEMENT_3D('',#1831,#1482,#1483);
#1301=AXIS2_PLACEMENT_3D('',#1832,#1484,#1485);
#1302=AXIS2_PLACEMENT_3D('',#1834,#1486,#1487);
#1303=AXIS2_PLACEMENT_3D('',#1837,#1489,#1490);
#1304=AXIS2_PLACEMENT_3D('',#1838,#1491,#1492);
#1305=AXIS2_PLACEMENT_3D('',#1840,#1493,#1494);
#1306=AXIS2_PLACEMENT_3D('',#1841,#1495,#1496);
#1307=AXIS2_PLACEMENT_3D('',#1846,#1498,#1499);
#1308=AXIS2_PLACEMENT_3D('',#1849,#1501,#1502);
#1309=AXIS2_PLACEMENT_3D('',#1850,#1503,#1504);
#1310=AXIS2_PLACEMENT_3D('',#1854,#1506,#1507);
#1311=AXIS2_PLACEMENT_3D('',#1856,#1509,#1510);
#1312=AXIS2_PLACEMENT_3D('',#1860,#1512,#1513);
#1313=AXIS2_PLACEMENT_3D('',#1862,#1515,#1516);
#1314=AXIS2_PLACEMENT_3D('',#1876,#1524,#1525);
#1315=AXIS2_PLACEMENT_3D('',#1885,#1530,#1531);
#1316=AXIS2_PLACEMENT_3D('',#1891,#1535,#1536);
#1317=AXIS2_PLACEMENT_3D('',#1897,#1540,#1541);
#1318=AXIS2_PLACEMENT_3D('',#1907,#1546,#1547);
#1319=AXIS2_PLACEMENT_3D('',#1912,#1551,#1552);
#1320=AXIS2_PLACEMENT_3D('',#1914,#1554,#1555);
#1321=AXIS2_PLACEMENT_3D('',#1918,#1558,#1559);
#1322=AXIS2_PLACEMENT_3D('',#1921,#1562,#1563);
#1323=AXIS2_PLACEMENT_3D('',#1922,#1564,#1565);
#1324=AXIS2_PLACEMENT_3D('',#1923,#1566,#1567);
#1325=AXIS2_PLACEMENT_3D('',#1924,#1568,#1569);
#1326=AXIS2_PLACEMENT_3D('',#1925,#1570,#1571);
#1327=AXIS2_PLACEMENT_3D('',#1941,#1580,#1581);
#1328=AXIS2_PLACEMENT_3D('',#1947,#1585,#1586);
#1329=AXIS2_PLACEMENT_3D('',#1963,#1595,#1596);
#1330=AXIS2_PLACEMENT_3D('',#1971,#1601,#1602);
#1331=AXIS2_PLACEMENT_3D('',#1977,#1607,#1608);
#1332=AXIS2_PLACEMENT_3D('',#1981,#1610,#1611);
#1333=AXIS2_PLACEMENT_3D('',#1983,#1612,#1613);
#1334=AXIS2_PLACEMENT_3D('',#1991,#1618,#1619);
#1335=AXIS2_PLACEMENT_3D('',#1998,#1624,#1625);
#1336=AXIS2_PLACEMENT_3D('',#2006,#1630,#1631);
#1337=AXIS2_PLACEMENT_3D('',#2010,#1634,#1635);
#1338=AXIS2_PLACEMENT_3D('',#2012,#1636,#1637);
#1339=AXIS2_PLACEMENT_3D('',#2016,#1640,#1641);
#1340=AXIS2_PLACEMENT_3D('',#2018,#1643,#1644);
#1341=AXIS2_PLACEMENT_3D('',#2021,#1646,#1647);
#1342=AXIS2_PLACEMENT_3D('',#2022,#1648,#1649);
#1343=AXIS2_PLACEMENT_3D('',#2026,#1652,#1653);
#1344=AXIS2_PLACEMENT_3D('',#2029,#1655,#1656);
#1345=AXIS2_PLACEMENT_3D('',#2030,#1657,#1658);
#1346=AXIS2_PLACEMENT_3D('',#2032,#1659,#1660);
#1347=AXIS2_PLACEMENT_3D('',#2033,#1661,#1662);
#1348=AXIS2_PLACEMENT_3D('',#2035,#1664,#1665);
#1349=AXIS2_PLACEMENT_3D('',#2037,#1666,#1667);
#1350=AXIS2_PLACEMENT_3D('',#2038,#1668,#1669);
#1351=AXIS2_PLACEMENT_3D('',#2039,#1670,#1671);
#1352=AXIS2_PLACEMENT_3D('',#2040,#1672,#1673);
#1353=AXIS2_PLACEMENT_3D('',#2042,#1674,#1675);
#1354=AXIS2_PLACEMENT_3D('',#2044,#1676,#1677);
#1355=AXIS2_PLACEMENT_3D('',#2046,#1678,#1679);
#1356=AXIS2_PLACEMENT_3D('',#2048,#1680,#1681);
#1357=AXIS2_PLACEMENT_3D('',#2049,#1682,#1683);
#1358=AXIS2_PLACEMENT_3D('',#2050,#1684,#1685);
#1359=AXIS2_PLACEMENT_3D('',#2052,#1687,#1688);
#1360=AXIS2_PLACEMENT_3D('',#2053,#1689,#1690);
#1361=AXIS2_PLACEMENT_3D('',#2055,#1691,#1692);
#1362=AXIS2_PLACEMENT_3D('',#2057,#1694,#1695);
#1363=AXIS2_PLACEMENT_3D('',#2061,#1698,#1699);
#1364=AXIS2_PLACEMENT_3D('',#2063,#1701,#1702);
#1365=AXIS2_PLACEMENT_3D('',#2064,#1703,#1704);
#1366=AXIS2_PLACEMENT_3D('',#2065,#1705,#1706);
#1367=AXIS2_PLACEMENT_3D('',#2066,#1707,#1708);
#1368=AXIS2_PLACEMENT_3D('',#2067,#1709,#1710);
#1369=AXIS2_PLACEMENT_3D('',#2068,#1711,#1712);
#1370=AXIS2_PLACEMENT_3D('',#2069,#1713,#1714);
#1371=AXIS2_PLACEMENT_3D('',#2070,#1715,#1716);
#1372=AXIS2_PLACEMENT_3D('',#2071,#1717,#1718);
#1373=AXIS2_PLACEMENT_3D('',#2073,#1720,#1721);
#1374=AXIS2_PLACEMENT_3D('',#2075,#1723,#1724);
#1375=AXIS2_PLACEMENT_3D('',#2077,#1726,#1727);
#1376=AXIS2_PLACEMENT_3D('',#2079,#1729,#1730);
#1377=DIRECTION('axis',(0.,0.,1.));
#1378=DIRECTION('refdir',(1.,0.,0.));
#1379=DIRECTION('center_axis',(1.,0.,0.));
#1380=DIRECTION('ref_axis',(0.,0.,-1.));
#1381=DIRECTION('center_axis',(1.,0.,0.));
#1382=DIRECTION('ref_axis',(0.,0.,-1.));
#1383=DIRECTION('',(1.,0.,0.));
#1384=DIRECTION('center_axis',(1.,0.,0.));
#1385=DIRECTION('ref_axis',(0.,0.,-1.));
#1386=DIRECTION('center_axis',(1.,0.,0.));
#1387=DIRECTION('ref_axis',(0.,-0.19999999999998,0.979795897113275));
#1388=DIRECTION('',(1.,0.,0.));
#1389=DIRECTION('center_axis',(1.,0.,0.));
#1390=DIRECTION('ref_axis',(0.,0.,-1.));
#1391=DIRECTION('',(-1.,0.,0.));
#1392=DIRECTION('center_axis',(1.,0.,0.));
#1393=DIRECTION('ref_axis',(0.,0.,-1.));
#1394=DIRECTION('center_axis',(1.,0.,0.));
#1395=DIRECTION('ref_axis',(0.,0.19999999999998,0.979795897113275));
#1396=DIRECTION('',(1.,0.,0.));
#1397=DIRECTION('center_axis',(1.,0.,0.));
#1398=DIRECTION('ref_axis',(0.,0.,-1.));
#1399=DIRECTION('',(-1.,0.,0.));
#1400=DIRECTION('center_axis',(1.,0.,0.));
#1401=DIRECTION('ref_axis',(0.,0.,-1.));
#1402=DIRECTION('center_axis',(1.,0.,0.));
#1403=DIRECTION('ref_axis',(0.,0.,-1.));
#1404=DIRECTION('center_axis',(1.,0.,0.));
#1405=DIRECTION('ref_axis',(0.,0.,-1.));
#1406=DIRECTION('',(1.,0.,0.));
#1407=DIRECTION('center_axis',(1.,0.,0.));
#1408=DIRECTION('ref_axis',(0.,0.,-1.));
#1409=DIRECTION('center_axis',(0.,1.,0.));
#1410=DIRECTION('ref_axis',(0.,0.,1.));
#1411=DIRECTION('',(0.,0.,-1.));
#1412=DIRECTION('',(0.,0.,1.));
#1413=DIRECTION('',(1.,0.,0.));
#1414=DIRECTION('',(0.,0.,-1.));
#1415=DIRECTION('',(1.,0.,0.));
#1416=DIRECTION('center_axis',(0.,0.,1.));
#1417=DIRECTION('ref_axis',(-9.86076131526285E-32,-1.,0.));
#1418=DIRECTION('',(0.,1.,0.));
#1419=DIRECTION('',(0.,-1.,0.));
#1420=DIRECTION('',(0.,1.,0.));
#1421=DIRECTION('',(0.,1.,0.));
#1422=DIRECTION('',(1.,0.,0.));
#1423=DIRECTION('center_axis',(1.,0.,0.));
#1424=DIRECTION('ref_axis',(0.,0.,-1.));
#1425=DIRECTION('center_axis',(1.,-9.86076131526285E-32,0.));
#1426=DIRECTION('ref_axis',(0.,0.,-1.));
#1427=DIRECTION('',(1.,0.,0.));
#1428=DIRECTION('center_axis',(-1.,0.,0.));
#1429=DIRECTION('ref_axis',(0.,0.,-1.));
#1430=DIRECTION('center_axis',(1.,0.,0.));
#1431=DIRECTION('ref_axis',(0.,0.,-1.));
#1432=DIRECTION('center_axis',(1.,-9.86076131526285E-32,0.));
#1433=DIRECTION('ref_axis',(0.,0.,-1.));
#1434=DIRECTION('',(1.,0.,0.));
#1435=DIRECTION('center_axis',(-1.,0.,0.));
#1436=DIRECTION('ref_axis',(0.,0.,-1.));
#1437=DIRECTION('center_axis',(1.,0.,0.));
#1438=DIRECTION('ref_axis',(0.,0.,-1.));
#1439=DIRECTION('center_axis',(1.,-9.86076131526285E-32,0.));
#1440=DIRECTION('ref_axis',(0.,0.,-1.));
#1441=DIRECTION('',(1.,0.,0.));
#1442=DIRECTION('center_axis',(-1.,0.,0.));
#1443=DIRECTION('ref_axis',(0.,0.,-1.));
#1444=DIRECTION('center_axis',(1.,0.,0.));
#1445=DIRECTION('ref_axis',(0.,0.,-1.));
#1446=DIRECTION('center_axis',(1.,-9.86076131526285E-32,0.));
#1447=DIRECTION('ref_axis',(0.,0.,-1.));
#1448=DIRECTION('',(1.,0.,0.));
#1449=DIRECTION('center_axis',(-1.,0.,0.));
#1450=DIRECTION('ref_axis',(0.,0.,-1.));
#1451=DIRECTION('center_axis',(0.,0.,1.));
#1452=DIRECTION('ref_axis',(1.,0.,0.));
#1453=DIRECTION('center_axis',(0.,0.,1.));
#1454=DIRECTION('ref_axis',(1.,0.,0.));
#1455=DIRECTION('',(0.,0.,1.));
#1456=DIRECTION('center_axis',(0.,0.,-1.));
#1457=DIRECTION('ref_axis',(1.,0.,0.));
#1458=DIRECTION('center_axis',(0.,0.,1.));
#1459=DIRECTION('ref_axis',(1.,0.,0.));
#1460=DIRECTION('center_axis',(0.,0.,1.));
#1461=DIRECTION('ref_axis',(1.,0.,0.));
#1462=DIRECTION('center_axis',(0.,0.,1.));
#1463=DIRECTION('ref_axis',(1.,0.,0.));
#1464=DIRECTION('center_axis',(0.,0.,1.));
#1465=DIRECTION('ref_axis',(1.,0.,0.));
#1466=DIRECTION('',(0.,0.,1.));
#1467=DIRECTION('center_axis',(0.,0.,-1.));
#1468=DIRECTION('ref_axis',(1.,0.,0.));
#1469=DIRECTION('center_axis',(0.,0.,1.));
#1470=DIRECTION('ref_axis',(1.,0.,0.));
#1471=DIRECTION('center_axis',(0.,0.,1.));
#1472=DIRECTION('ref_axis',(1.,0.,0.));
#1473=DIRECTION('center_axis',(0.,0.,1.));
#1474=DIRECTION('ref_axis',(1.,0.,0.));
#1475=DIRECTION('center_axis',(0.,0.,1.));
#1476=DIRECTION('ref_axis',(1.,0.,0.));
#1477=DIRECTION('',(0.,0.,1.));
#1478=DIRECTION('center_axis',(0.,0.,-1.));
#1479=DIRECTION('ref_axis',(1.,0.,0.));
#1480=DIRECTION('center_axis',(0.,0.,1.));
#1481=DIRECTION('ref_axis',(1.,0.,0.));
#1482=DIRECTION('center_axis',(0.,0.,1.));
#1483=DIRECTION('ref_axis',(1.,0.,0.));
#1484=DIRECTION('center_axis',(0.,0.,1.));
#1485=DIRECTION('ref_axis',(1.,0.,0.));
#1486=DIRECTION('center_axis',(0.,0.,1.));
#1487=DIRECTION('ref_axis',(1.,0.,0.));
#1488=DIRECTION('',(0.,0.,1.));
#1489=DIRECTION('center_axis',(0.,0.,-1.));
#1490=DIRECTION('ref_axis',(1.,0.,0.));
#1491=DIRECTION('center_axis',(0.,0.,1.));
#1492=DIRECTION('ref_axis',(1.,0.,0.));
#1493=DIRECTION('center_axis',(0.,0.,1.));
#1494=DIRECTION('ref_axis',(1.,0.,0.));
#1495=DIRECTION('center_axis',(0.,0.,1.));
#1496=DIRECTION('ref_axis',(1.,0.,0.));
#1497=DIRECTION('',(6.16790569236198E-17,1.,0.));
#1498=DIRECTION('center_axis',(0.,0.,1.));
#1499=DIRECTION('ref_axis',(1.,0.,0.));
#1500=DIRECTION('',(6.16790569236198E-17,1.,0.));
#1501=DIRECTION('center_axis',(0.,0.,1.));
#1502=DIRECTION('ref_axis',(1.,0.,0.));
#1503=DIRECTION('center_axis',(0.,0.,1.));
#1504=DIRECTION('ref_axis',(1.,0.,0.));
#1505=DIRECTION('',(0.,0.,-1.));
#1506=DIRECTION('center_axis',(0.,0.,-1.));
#1507=DIRECTION('ref_axis',(1.,0.,0.));
#1508=DIRECTION('',(0.,0.,1.));
#1509=DIRECTION('center_axis',(0.,0.,1.));
#1510=DIRECTION('ref_axis',(1.,0.,0.));
#1511=DIRECTION('',(0.,0.,-1.));
#1512=DIRECTION('center_axis',(0.,0.,1.));
#1513=DIRECTION('ref_axis',(1.,0.,0.));
#1514=DIRECTION('',(0.,0.,1.));
#1515=DIRECTION('center_axis',(1.,-6.16790569236198E-17,0.));
#1516=DIRECTION('ref_axis',(6.16790569236198E-17,1.,0.));
#1517=DIRECTION('',(6.16790569236198E-17,1.,0.));
#1518=DIRECTION('',(0.,0.,1.));
#1519=DIRECTION('',(5.84327907697451E-17,1.,0.));
#1520=DIRECTION('',(0.,0.,1.));
#1521=DIRECTION('',(6.16790569236198E-17,1.,0.));
#1522=DIRECTION('',(0.,0.,-1.));
#1523=DIRECTION('',(6.16790569236198E-17,1.,0.));
#1524=DIRECTION('center_axis',(0.,-1.,0.));
#1525=DIRECTION('ref_axis',(0.,0.,-1.));
#1526=DIRECTION('',(0.,0.,1.));
#1527=DIRECTION('',(1.,0.,0.));
#1528=DIRECTION('',(0.,0.,-1.));
#1529=DIRECTION('',(-1.,0.,0.));
#1530=DIRECTION('center_axis',(0.,0.,-1.));
#1531=DIRECTION('ref_axis',(9.86076131526285E-32,1.,0.));
#1532=DIRECTION('',(0.,-1.,0.));
#1533=DIRECTION('',(1.,0.,0.));
#1534=DIRECTION('',(0.,1.,0.));
#1535=DIRECTION('center_axis',(0.,1.,0.));
#1536=DIRECTION('ref_axis',(0.,0.,1.));
#1537=DIRECTION('',(0.,0.,-1.));
#1538=DIRECTION('',(1.,0.,0.));
#1539=DIRECTION('',(0.,0.,1.));
#1540=DIRECTION('center_axis',(-1.,0.,0.));
#1541=DIRECTION('ref_axis',(0.,-1.,0.));
#1542=DIRECTION('',(0.,-1.,0.));
#1543=DIRECTION('',(0.,0.,1.));
#1544=DIRECTION('',(0.,-1.,0.));
#1545=DIRECTION('',(0.,0.,1.));
#1546=DIRECTION('center_axis',(1.,0.,0.));
#1547=DIRECTION('ref_axis',(0.,3.59840356462266E-77,-1.));
#1548=DIRECTION('',(0.,0.,-1.));
#1549=DIRECTION('',(0.,1.,0.));
#1550=DIRECTION('',(0.,1.,0.));
#1551=DIRECTION('center_axis',(0.,0.,-1.));
#1552=DIRECTION('ref_axis',(9.86076131526285E-32,1.,0.));
#1553=DIRECTION('',(0.,-1.,0.));
#1554=DIRECTION('center_axis',(0.,0.,-1.));
#1555=DIRECTION('ref_axis',(9.86076131526285E-32,1.,0.));
#1556=DIRECTION('',(1.,0.,0.));
#1557=DIRECTION('',(0.,-1.,0.));
#1558=DIRECTION('center_axis',(0.,-1.,0.));
#1559=DIRECTION('ref_axis',(0.,0.,-1.));
#1560=DIRECTION('',(0.,0.,1.));
#1561=DIRECTION('',(0.,0.,1.));
#1562=DIRECTION('center_axis',(1.,-9.86076131526285E-32,0.));
#1563=DIRECTION('ref_axis',(0.,0.,-1.));
#1564=DIRECTION('center_axis',(1.,-9.86076131526285E-32,0.));
#1565=DIRECTION('ref_axis',(0.,0.,-1.));
#1566=DIRECTION('center_axis',(1.,-9.86076131526285E-32,0.));
#1567=DIRECTION('ref_axis',(0.,0.,-1.));
#1568=DIRECTION('center_axis',(1.,-9.86076131526285E-32,0.));
#1569=DIRECTION('ref_axis',(0.,0.,-1.));
#1570=DIRECTION('center_axis',(0.,0.,1.));
#1571=DIRECTION('ref_axis',(1.,0.,0.));
#1572=DIRECTION('',(6.16790569236198E-17,1.,0.));
#1573=DIRECTION('',(1.,0.,0.));
#1574=DIRECTION('',(0.,-1.,0.));
#1575=DIRECTION('',(1.,0.,0.));
#1576=DIRECTION('',(0.,-1.,0.));
#1577=DIRECTION('',(-1.,0.,0.));
#1578=DIRECTION('',(0.,-1.,0.));
#1579=DIRECTION('',(-1.,0.,0.));
#1580=DIRECTION('center_axis',(0.,1.,0.));
#1581=DIRECTION('ref_axis',(-1.,0.,0.));
#1582=DIRECTION('',(0.,0.,-1.));
#1583=DIRECTION('',(-1.,0.,0.));
#1584=DIRECTION('',(0.,0.,1.));
#1585=DIRECTION('center_axis',(1.,0.,0.));
#1586=DIRECTION('ref_axis',(0.,1.,0.));
#1587=DIRECTION('',(0.,0.,-1.));
#1588=DIRECTION('',(0.,1.,0.));
#1589=DIRECTION('',(0.,0.,1.));
#1590=DIRECTION('',(0.,1.,0.));
#1591=DIRECTION('',(0.,-1.,0.));
#1592=DIRECTION('',(0.,1.,0.));
#1593=DIRECTION('',(0.,0.,1.));
#1594=DIRECTION('',(0.,1.,0.));
#1595=DIRECTION('center_axis',(0.,1.,0.));
#1596=DIRECTION('ref_axis',(-1.,0.,0.));
#1597=DIRECTION('',(0.,0.,-1.));
#1598=DIRECTION('',(-1.,0.,0.));
#1599=DIRECTION('',(0.,0.,1.));
#1600=DIRECTION('',(-1.,0.,0.));
#1601=DIRECTION('center_axis',(0.,0.,1.));
#1602=DIRECTION('ref_axis',(1.,0.,0.));
#1603=DIRECTION('',(1.,0.,0.));
#1604=DIRECTION('',(0.,1.,0.));
#1605=DIRECTION('',(1.,0.,0.));
#1606=DIRECTION('',(-1.,0.,0.));
#1607=DIRECTION('center_axis',(0.,0.,1.));
#1608=DIRECTION('ref_axis',(1.,0.,0.));
#1609=DIRECTION('',(-1.,0.,0.));
#1610=DIRECTION('center_axis',(0.,0.,-1.));
#1611=DIRECTION('ref_axis',(1.,0.,0.));
#1612=DIRECTION('center_axis',(0.,0.,-1.));
#1613=DIRECTION('ref_axis',(1.,0.,0.));
#1614=DIRECTION('',(1.,0.,0.));
#1615=DIRECTION('',(5.84327907697451E-17,1.,0.));
#1616=DIRECTION('',(1.,0.,0.));
#1617=DIRECTION('',(0.,-1.,0.));
#1618=DIRECTION('center_axis',(0.,-1.,0.));
#1619=DIRECTION('ref_axis',(1.,0.,0.));
#1620=DIRECTION('',(0.,0.,1.));
#1621=DIRECTION('',(0.,0.,-1.));
#1622=DIRECTION('',(1.,0.,0.));
#1623=DIRECTION('',(0.,0.,1.));
#1624=DIRECTION('center_axis',(1.,-6.16790569236198E-17,0.));
#1625=DIRECTION('ref_axis',(6.16790569236198E-17,1.,0.));
#1626=DIRECTION('',(6.16790569236198E-17,1.,0.));
#1627=DIRECTION('',(0.,0.,1.));
#1628=DIRECTION('',(6.16790569236198E-17,1.,0.));
#1629=DIRECTION('',(0.,0.,1.));
#1630=DIRECTION('center_axis',(0.,-1.,0.));
#1631=DIRECTION('ref_axis',(1.,0.,0.));
#1632=DIRECTION('',(1.,0.,0.));
#1633=DIRECTION('',(0.,0.,1.));
#1634=DIRECTION('center_axis',(0.,0.,1.));
#1635=DIRECTION('ref_axis',(1.,0.,0.));
#1636=DIRECTION('center_axis',(0.,0.,1.));
#1637=DIRECTION('ref_axis',(1.,0.,0.));
#1638=DIRECTION('',(1.,0.,0.));
#1639=DIRECTION('',(-1.,0.,0.));
#1640=DIRECTION('center_axis',(0.,0.,1.));
#1641=DIRECTION('ref_axis',(1.,0.,0.));
#1642=DIRECTION('',(0.,1.,0.));
#1643=DIRECTION('center_axis',(1.,0.,0.));
#1644=DIRECTION('ref_axis',(0.,1.,0.));
#1645=DIRECTION('',(0.,0.,1.));
#1646=DIRECTION('center_axis',(-1.,0.,0.));
#1647=DIRECTION('ref_axis',(0.,0.,-1.));
#1648=DIRECTION('center_axis',(1.,0.,0.));
#1649=DIRECTION('ref_axis',(0.,1.,0.));
#1650=DIRECTION('',(0.,-1.,0.));
#1651=DIRECTION('',(0.,0.,1.));
#1652=DIRECTION('center_axis',(1.,-1.02716263700653E-31,0.));
#1653=DIRECTION('ref_axis',(0.,3.59840356462266E-77,-1.));
#1654=DIRECTION('',(-1.,1.02716263700653E-31,0.));
#1655=DIRECTION('center_axis',(1.,-9.86076131526284E-32,3.50324616081204E-46));
#1656=DIRECTION('ref_axis',(3.50324616081204E-46,-2.45454673264886E-91,
-1.));
#1657=DIRECTION('center_axis',(1.,-9.86076131526284E-32,3.50324616081204E-46));
#1658=DIRECTION('ref_axis',(3.50324616081204E-46,-2.45454673264886E-91,
-1.));
#1659=DIRECTION('center_axis',(1.,-9.86076131526284E-32,3.50324616081204E-46));
#1660=DIRECTION('ref_axis',(0.,3.38673276670368E-77,-1.));
#1661=DIRECTION('center_axis',(0.,1.,0.));
#1662=DIRECTION('ref_axis',(-1.,0.,0.));
#1663=DIRECTION('',(-1.,0.,0.));
#1664=DIRECTION('center_axis',(0.,0.,1.));
#1665=DIRECTION('ref_axis',(1.,0.,0.));
#1666=DIRECTION('center_axis',(0.,0.,1.));
#1667=DIRECTION('ref_axis',(1.,0.,0.));
#1668=DIRECTION('center_axis',(0.,0.,1.));
#1669=DIRECTION('ref_axis',(1.,0.,0.));
#1670=DIRECTION('center_axis',(0.,0.,1.));
#1671=DIRECTION('ref_axis',(1.,0.,0.));
#1672=DIRECTION('center_axis',(0.,0.,1.));
#1673=DIRECTION('ref_axis',(1.,0.,0.));
#1674=DIRECTION('center_axis',(0.,0.,1.));
#1675=DIRECTION('ref_axis',(1.,0.,0.));
#1676=DIRECTION('center_axis',(0.,0.,1.));
#1677=DIRECTION('ref_axis',(1.,0.,0.));
#1678=DIRECTION('center_axis',(0.,0.,1.));
#1679=DIRECTION('ref_axis',(1.,0.,0.));
#1680=DIRECTION('center_axis',(0.,0.,1.));
#1681=DIRECTION('ref_axis',(1.,0.,0.));
#1682=DIRECTION('center_axis',(0.,0.,1.));
#1683=DIRECTION('ref_axis',(1.,0.,0.));
#1684=DIRECTION('center_axis',(1.,-9.66741305417907E-32,0.));
#1685=DIRECTION('ref_axis',(0.,3.3867327667037E-77,-1.));
#1686=DIRECTION('',(1.,-9.66741305417907E-32,0.));
#1687=DIRECTION('center_axis',(0.,-1.,0.));
#1688=DIRECTION('ref_axis',(1.,0.,0.));
#1689=DIRECTION('center_axis',(0.,0.,1.));
#1690=DIRECTION('ref_axis',(1.,0.,0.));
#1691=DIRECTION('center_axis',(0.,0.,1.));
#1692=DIRECTION('ref_axis',(1.,0.,0.));
#1693=DIRECTION('',(1.,0.,0.));
#1694=DIRECTION('center_axis',(0.,1.,0.));
#1695=DIRECTION('ref_axis',(-1.,0.,0.));
#1696=DIRECTION('',(-1.,0.,0.));
#1697=DIRECTION('',(1.,0.,0.));
#1698=DIRECTION('center_axis',(0.,-1.,0.));
#1699=DIRECTION('ref_axis',(1.,0.,0.));
#1700=DIRECTION('',(-1.,0.,0.));
#1701=DIRECTION('center_axis',(0.,0.,1.));
#1702=DIRECTION('ref_axis',(1.,0.,0.));
#1703=DIRECTION('center_axis',(0.,0.,1.));
#1704=DIRECTION('ref_axis',(1.,0.,0.));
#1705=DIRECTION('center_axis',(0.,0.,1.));
#1706=DIRECTION('ref_axis',(1.,0.,0.));
#1707=DIRECTION('center_axis',(0.,0.,1.));
#1708=DIRECTION('ref_axis',(1.,0.,0.));
#1709=DIRECTION('center_axis',(0.,0.,1.));
#1710=DIRECTION('ref_axis',(1.,0.,0.));
#1711=DIRECTION('center_axis',(0.,0.,1.));
#1712=DIRECTION('ref_axis',(1.,0.,0.));
#1713=DIRECTION('center_axis',(0.,0.,1.));
#1714=DIRECTION('ref_axis',(1.,0.,0.));
#1715=DIRECTION('center_axis',(0.,0.,1.));
#1716=DIRECTION('ref_axis',(1.,0.,0.));
#1717=DIRECTION('center_axis',(0.,0.,1.));
#1718=DIRECTION('ref_axis',(1.,0.,0.));
#1719=DIRECTION('',(0.,0.,1.));
#1720=DIRECTION('center_axis',(0.,0.,1.));
#1721=DIRECTION('ref_axis',(1.,0.,0.));
#1722=DIRECTION('',(0.,0.,1.));
#1723=DIRECTION('center_axis',(0.,0.,1.));
#1724=DIRECTION('ref_axis',(1.,0.,0.));
#1725=DIRECTION('',(0.,0.,1.));
#1726=DIRECTION('center_axis',(0.,0.,1.));
#1727=DIRECTION('ref_axis',(1.,0.,0.));
#1728=DIRECTION('',(0.,0.,1.));
#1729=DIRECTION('center_axis',(0.,0.,1.));
#1730=DIRECTION('ref_axis',(1.,0.,0.));
#1731=DIRECTION('',(0.,0.,-1.));
#1732=CARTESIAN_POINT('',(0.,0.,0.));
#1733=CARTESIAN_POINT('Origin',(-21.85,11.,313.95));
#1734=CARTESIAN_POINT('',(-21.7,11.,316.45));
#1735=CARTESIAN_POINT('Origin',(-21.7,11.,313.95));
#1736=CARTESIAN_POINT('',(-20.,11.,316.45));
#1737=CARTESIAN_POINT('',(-21.85,11.,316.45));
#1738=CARTESIAN_POINT('Origin',(-20.,11.,313.95));
#1739=CARTESIAN_POINT('Origin',(-21.85,-11.,338.95));
#1740=CARTESIAN_POINT('',(-21.7,-11.,336.45));
#1741=CARTESIAN_POINT('',(-20.,-11.,336.45));
#1742=CARTESIAN_POINT('',(-21.85,-11.,336.45));
#1743=CARTESIAN_POINT('',(-21.7,-10.0202041028868,336.65));
#1744=CARTESIAN_POINT('Origin',(-21.7,-11.,338.95));
#1745=CARTESIAN_POINT('',(-20.,-10.0202041028867,336.65));
#1746=CARTESIAN_POINT('',(-21.85,-10.0202041028867,336.65));
#1747=CARTESIAN_POINT('Origin',(-20.,-11.,338.95));
#1748=CARTESIAN_POINT('Origin',(-21.85,11.,338.95));
#1749=CARTESIAN_POINT('',(-21.7,10.0202041028868,336.65));
#1750=CARTESIAN_POINT('',(-20.,10.0202041028867,336.65));
#1751=CARTESIAN_POINT('',(-21.85,10.0202041028867,336.65));
#1752=CARTESIAN_POINT('',(-21.7,11.,336.45));
#1753=CARTESIAN_POINT('Origin',(-21.7,11.,338.95));
#1754=CARTESIAN_POINT('',(-20.,11.,336.45));
#1755=CARTESIAN_POINT('',(-21.85,11.,336.45));
#1756=CARTESIAN_POINT('Origin',(-20.,11.,338.95));
#1757=CARTESIAN_POINT('Origin',(-21.85,-11.,313.95));
#1758=CARTESIAN_POINT('',(-21.7,-11.,316.45));
#1759=CARTESIAN_POINT('Origin',(-21.7,-11.,313.95));
#1760=CARTESIAN_POINT('',(-20.,-11.,316.45));
#1761=CARTESIAN_POINT('',(-21.85,-11.,316.45));
#1762=CARTESIAN_POINT('Origin',(-20.,-11.,313.95));
#1763=CARTESIAN_POINT('Origin',(-21.8,11.,330.25));
#1764=CARTESIAN_POINT('',(-20.,11.,336.65));
#1765=CARTESIAN_POINT('',(-20.,11.,334.6));
#1766=CARTESIAN_POINT('',(-21.7,11.,330.25));
#1767=CARTESIAN_POINT('',(-21.7,11.,320.125));
#1768=CARTESIAN_POINT('',(-17.7,11.,330.25));
#1769=CARTESIAN_POINT('',(-21.8,11.,330.25));
#1770=CARTESIAN_POINT('',(-17.7,11.,336.65));
#1771=CARTESIAN_POINT('',(-17.7,11.,320.125));
#1772=CARTESIAN_POINT('',(-21.8,11.,336.65));
#1773=CARTESIAN_POINT('Origin',(-21.8,11.,336.65));
#1774=CARTESIAN_POINT('',(-20.,-11.,336.65));
#1775=CARTESIAN_POINT('',(-20.,0.,336.65));
#1776=CARTESIAN_POINT('',(-21.7,13.275,336.65));
#1777=CARTESIAN_POINT('',(-20.,11.,336.65));
#1778=CARTESIAN_POINT('',(-17.7,-11.,336.65));
#1779=CARTESIAN_POINT('',(-17.7,-2.275,336.65));
#1780=CARTESIAN_POINT('',(-21.8,-11.,336.65));
#1781=CARTESIAN_POINT('Origin',(-21.85,11.,313.95));
#1782=CARTESIAN_POINT('',(-20.,11.,315.35));
#1783=CARTESIAN_POINT('Origin',(-20.,11.,313.95));
#1784=CARTESIAN_POINT('',(-17.7,11.,315.35));
#1785=CARTESIAN_POINT('',(-21.85,11.,315.35));
#1786=CARTESIAN_POINT('Origin',(-17.7,11.,313.95));
#1787=CARTESIAN_POINT('Origin',(-21.85,-11.,338.95));
#1788=CARTESIAN_POINT('',(-20.,-11.,340.35));
#1789=CARTESIAN_POINT('Origin',(-20.,-11.,338.95));
#1790=CARTESIAN_POINT('',(-17.7,-11.,340.35));
#1791=CARTESIAN_POINT('',(-21.85,-11.,340.35));
#1792=CARTESIAN_POINT('Origin',(-17.7,-11.,338.95));
#1793=CARTESIAN_POINT('Origin',(-21.85,11.,338.95));
#1794=CARTESIAN_POINT('',(-20.,11.,340.35));
#1795=CARTESIAN_POINT('Origin',(-20.,11.,338.95));
#1796=CARTESIAN_POINT('',(-17.7,11.,340.35));
#1797=CARTESIAN_POINT('',(-21.85,11.,340.35));
#1798=CARTESIAN_POINT('Origin',(-17.7,11.,338.95));
#1799=CARTESIAN_POINT('Origin',(-21.85,-11.,313.95));
#1800=CARTESIAN_POINT('',(-20.,-11.,315.35));
#1801=CARTESIAN_POINT('Origin',(-20.,-11.,313.95));
#1802=CARTESIAN_POINT('',(-17.7,-11.,315.35));
#1803=CARTESIAN_POINT('',(-21.85,-11.,315.35));
#1804=CARTESIAN_POINT('Origin',(-17.7,-11.,313.95));
#1805=CARTESIAN_POINT('Origin',(0.,0.,309.9));
#1806=CARTESIAN_POINT('',(-3.25,-3.9801020972289E-16,309.9));
#1807=CARTESIAN_POINT('Origin',(0.,0.,309.9));
#1808=CARTESIAN_POINT('',(-3.25,3.9801020972289E-16,310.95));
#1809=CARTESIAN_POINT('',(-3.25,-3.9801020972289E-16,309.9));
#1810=CARTESIAN_POINT('Origin',(0.,0.,310.95));
#1811=CARTESIAN_POINT('Origin',(0.,0.,309.9));
#1812=CARTESIAN_POINT('',(-3.15,-3.85763741731416E-16,309.9));
#1813=CARTESIAN_POINT('Origin',(0.,0.,309.9));
#1814=CARTESIAN_POINT('Origin',(7.,0.,309.9));
#1815=CARTESIAN_POINT('',(3.75,-3.9801020972289E-16,309.9));
#1816=CARTESIAN_POINT('Origin',(7.,0.,309.9));
#1817=CARTESIAN_POINT('',(3.75,3.9801020972289E-16,310.95));
#1818=CARTESIAN_POINT('',(3.75,-3.9801020972289E-16,309.9));
#1819=CARTESIAN_POINT('Origin',(7.,0.,310.95));
#1820=CARTESIAN_POINT('Origin',(7.,0.,309.9));
#1821=CARTESIAN_POINT('',(5.3,-2.0818995585505E-16,309.9));
#1822=CARTESIAN_POINT('Origin',(7.,0.,309.9));
#1823=CARTESIAN_POINT('Origin',(0.,-7.,309.9));
#1824=CARTESIAN_POINT('',(-3.25,-7.,309.9));
#1825=CARTESIAN_POINT('Origin',(0.,-7.,309.9));
#1826=CARTESIAN_POINT('',(-3.25,-7.,310.95));
#1827=CARTESIAN_POINT('',(-3.25,-7.,309.9));
#1828=CARTESIAN_POINT('Origin',(0.,-7.,310.95));
#1829=CARTESIAN_POINT('Origin',(0.,-7.,309.9));
#1830=CARTESIAN_POINT('',(-1.7,-7.,309.9));
#1831=CARTESIAN_POINT('Origin',(0.,-7.,309.9));
#1832=CARTESIAN_POINT('Origin',(0.,7.,309.9));
#1833=CARTESIAN_POINT('',(-3.25,7.,309.9));
#1834=CARTESIAN_POINT('Origin',(0.,7.,309.9));
#1835=CARTESIAN_POINT('',(-3.25,7.,310.95));
#1836=CARTESIAN_POINT('',(-3.25,7.,309.9));
#1837=CARTESIAN_POINT('Origin',(0.,7.,310.95));
#1838=CARTESIAN_POINT('Origin',(0.,7.,309.9));
#1839=CARTESIAN_POINT('',(-1.7,7.,309.9));
#1840=CARTESIAN_POINT('Origin',(0.,7.,309.9));
#1841=CARTESIAN_POINT('Origin',(-7.,0.,309.9));
#1842=CARTESIAN_POINT('',(-6.,-3.09232921921325,309.9));
#1843=CARTESIAN_POINT('',(-6.,-1.37477270848675,309.9));
#1844=CARTESIAN_POINT('',(-6.,-4.5,309.9));
#1845=CARTESIAN_POINT('',(-6.,3.09232921921325,309.9));
#1846=CARTESIAN_POINT('Origin',(-7.,0.,309.9));
#1847=CARTESIAN_POINT('',(-6.,1.37477270848675,309.9));
#1848=CARTESIAN_POINT('',(-6.,-4.5,309.9));
#1849=CARTESIAN_POINT('Origin',(-7.,0.,309.9));
#1850=CARTESIAN_POINT('Origin',(-7.,0.,309.9));
#1851=CARTESIAN_POINT('',(-6.,-3.09232921921325,310.95));
#1852=CARTESIAN_POINT('',(-6.,-3.09232921921325,309.9));
#1853=CARTESIAN_POINT('',(-6.,3.09232921921325,310.95));
#1854=CARTESIAN_POINT('Origin',(-7.,0.,310.95));
#1855=CARTESIAN_POINT('',(-6.,3.09232921921325,309.9));
#1856=CARTESIAN_POINT('Origin',(-7.,0.,305.5));
#1857=CARTESIAN_POINT('',(-6.,1.37477270848675,308.));
#1858=CARTESIAN_POINT('',(-6.,1.37477270848675,305.5));
#1859=CARTESIAN_POINT('',(-6.,-1.37477270848675,308.));
#1860=CARTESIAN_POINT('Origin',(-7.,0.,308.));
#1861=CARTESIAN_POINT('',(-6.,-1.37477270848675,305.5));
#1862=CARTESIAN_POINT('Origin',(-6.,-9.,305.48));
#1863=CARTESIAN_POINT('',(-6.,9.5,310.95));
#1864=CARTESIAN_POINT('',(-6.,-4.5,310.95));
#1865=CARTESIAN_POINT('',(-6.,9.5,309.95));
#1866=CARTESIAN_POINT('',(-6.,9.5,309.95));
#1867=CARTESIAN_POINT('',(-6.,9.,309.95));
#1868=CARTESIAN_POINT('',(-6.,-9.5,309.95));
#1869=CARTESIAN_POINT('',(-6.,9.,305.5));
#1870=CARTESIAN_POINT('',(-6.,9.,305.48));
#1871=CARTESIAN_POINT('',(-6.,8.49470423263812,305.5));
#1872=CARTESIAN_POINT('',(-6.,-4.5,305.5));
#1873=CARTESIAN_POINT('',(-6.,8.49470423263812,308.));
#1874=CARTESIAN_POINT('',(-6.,8.49470423263812,305.5));
#1875=CARTESIAN_POINT('',(-6.,-4.5,308.));
#1876=CARTESIAN_POINT('Origin',(-21.8,-6.,330.35));
#1877=CARTESIAN_POINT('',(-17.7,-6.,310.95));
#1878=CARTESIAN_POINT('',(-17.7,-6.,330.25));
#1879=CARTESIAN_POINT('',(-17.7,-6.,320.175));
#1880=CARTESIAN_POINT('',(-21.7,-6.,310.95));
#1881=CARTESIAN_POINT('',(-21.8,-6.,310.95));
#1882=CARTESIAN_POINT('',(-21.7,-6.,330.25));
#1883=CARTESIAN_POINT('',(-21.7,-6.,320.175));
#1884=CARTESIAN_POINT('',(-21.8,-6.,330.25));
#1885=CARTESIAN_POINT('Origin',(-21.8,-6.,310.95));
#1886=CARTESIAN_POINT('',(-17.7,6.,310.95));
#1887=CARTESIAN_POINT('',(-17.7,-10.775,310.95));
#1888=CARTESIAN_POINT('',(-21.7,6.,310.95));
#1889=CARTESIAN_POINT('',(-21.8,6.,310.95));
#1890=CARTESIAN_POINT('',(-21.7,4.775,310.95));
#1891=CARTESIAN_POINT('Origin',(-21.8,6.,310.95));
#1892=CARTESIAN_POINT('',(-17.7,6.,330.25));
#1893=CARTESIAN_POINT('',(-17.7,6.,310.475));
#1894=CARTESIAN_POINT('',(-21.7,6.,330.25));
#1895=CARTESIAN_POINT('',(-21.8,6.,330.25));
#1896=CARTESIAN_POINT('',(-21.7,6.,310.475));
#1897=CARTESIAN_POINT('Origin',(-21.7,15.55,310.));
#1898=CARTESIAN_POINT('',(-21.7,15.55,310.));
#1899=CARTESIAN_POINT('',(-21.7,-15.55,310.));
#1900=CARTESIAN_POINT('',(-21.7,15.55,310.));
#1901=CARTESIAN_POINT('',(-21.7,-15.55,359.95));
#1902=CARTESIAN_POINT('',(-21.7,-15.55,310.));
#1903=CARTESIAN_POINT('',(-21.7,15.55,359.95));
#1904=CARTESIAN_POINT('',(-21.7,15.55,359.95));
#1905=CARTESIAN_POINT('',(-21.7,15.55,310.));
#1906=CARTESIAN_POINT('',(-21.7,-6.12323399573675E-16,352.95));
#1907=CARTESIAN_POINT('Origin',(-21.7,2.11513330212389E-30,347.95));
#1908=CARTESIAN_POINT('',(-21.7,-11.,330.25));
#1909=CARTESIAN_POINT('',(-21.7,-11.,323.325));
#1910=CARTESIAN_POINT('',(-21.7,2.275,330.25));
#1911=CARTESIAN_POINT('',(-21.7,2.275,330.25));
#1912=CARTESIAN_POINT('Origin',(-21.8,-11.,330.25));
#1913=CARTESIAN_POINT('',(-17.7,-13.275,330.25));
#1914=CARTESIAN_POINT('Origin',(-21.8,-11.,330.25));
#1915=CARTESIAN_POINT('',(-17.7,-11.,330.25));
#1916=CARTESIAN_POINT('',(-21.8,-11.,330.25));
#1917=CARTESIAN_POINT('',(-17.7,-13.275,330.25));
#1918=CARTESIAN_POINT('Origin',(-21.8,-11.,336.65));
#1919=CARTESIAN_POINT('',(-20.,-11.,337.8));
#1920=CARTESIAN_POINT('',(-17.7,-11.,323.325));
#1921=CARTESIAN_POINT('Origin',(-20.,11.,313.95));
#1922=CARTESIAN_POINT('Origin',(-20.,-11.,338.95));
#1923=CARTESIAN_POINT('Origin',(-20.,11.,338.95));
#1924=CARTESIAN_POINT('Origin',(-20.,-11.,313.95));
#1925=CARTESIAN_POINT('Origin',(-0.2,0.,310.95));
#1926=CARTESIAN_POINT('',(-6.,-9.5,310.95));
#1927=CARTESIAN_POINT('',(-6.,-4.5,310.95));
#1928=CARTESIAN_POINT('',(-17.7,-9.5,310.95));
#1929=CARTESIAN_POINT('',(-10.95,-9.5,310.95));
#1930=CARTESIAN_POINT('',(-17.7,-12.65,310.95));
#1931=CARTESIAN_POINT('',(-17.7,12.65,310.95));
#1932=CARTESIAN_POINT('',(17.3,-12.65,310.95));
#1933=CARTESIAN_POINT('',(-17.7,-12.65,310.95));
#1934=CARTESIAN_POINT('',(17.3,12.65,310.95));
#1935=CARTESIAN_POINT('',(17.3,-7.775,310.95));
#1936=CARTESIAN_POINT('',(-17.7,12.65,310.95));
#1937=CARTESIAN_POINT('',(17.3,12.65,310.95));
#1938=CARTESIAN_POINT('',(-17.7,9.5,310.95));
#1939=CARTESIAN_POINT('',(-17.7,12.65,310.95));
#1940=CARTESIAN_POINT('',(-3.1,9.5,310.95));
#1941=CARTESIAN_POINT('Origin',(17.3,-12.65,310.));
#1942=CARTESIAN_POINT('',(-17.7,-12.65,359.95));
#1943=CARTESIAN_POINT('',(-17.7,-12.65,310.));
#1944=CARTESIAN_POINT('',(17.3,-12.65,359.95));
#1945=CARTESIAN_POINT('',(17.3,-12.65,359.95));
#1946=CARTESIAN_POINT('',(17.3,-12.65,310.));
#1947=CARTESIAN_POINT('Origin',(17.3,-15.55,310.));
#1948=CARTESIAN_POINT('',(17.3,12.65,359.95));
#1949=CARTESIAN_POINT('',(17.3,12.65,310.475));
#1950=CARTESIAN_POINT('',(17.3,-15.55,359.95));
#1951=CARTESIAN_POINT('',(17.3,-15.55,359.95));
#1952=CARTESIAN_POINT('',(17.3,-15.55,310.));
#1953=CARTESIAN_POINT('',(17.3,-15.55,310.));
#1954=CARTESIAN_POINT('',(17.3,-10.0354372102066,310.));
#1955=CARTESIAN_POINT('',(17.3,-15.55,310.));
#1956=CARTESIAN_POINT('',(17.3,10.0354372102066,310.));
#1957=CARTESIAN_POINT('',(17.3,-7.775,310.));
#1958=CARTESIAN_POINT('',(17.3,15.55,310.));
#1959=CARTESIAN_POINT('',(17.3,-15.55,310.));
#1960=CARTESIAN_POINT('',(17.3,15.55,359.95));
#1961=CARTESIAN_POINT('',(17.3,15.55,310.));
#1962=CARTESIAN_POINT('',(17.3,12.65,359.95));
#1963=CARTESIAN_POINT('Origin',(-6.,9.5,309.95));
#1964=CARTESIAN_POINT('',(-17.7,9.5,310.));
#1965=CARTESIAN_POINT('',(-17.7,9.5,309.975));
#1966=CARTESIAN_POINT('',(-17.599715906798,9.5,310.));
#1967=CARTESIAN_POINT('',(-4.1,9.5,310.));
#1968=CARTESIAN_POINT('',(-17.599715906798,9.5,309.95));
#1969=CARTESIAN_POINT('',(-17.599715906798,9.5,305.5));
#1970=CARTESIAN_POINT('',(-6.,9.5,309.95));
#1971=CARTESIAN_POINT('Origin',(-19.7,0.,359.95));
#1972=CARTESIAN_POINT('',(-21.7,-15.55,359.95));
#1973=CARTESIAN_POINT('',(-17.7,12.65,359.95));
#1974=CARTESIAN_POINT('',(-17.7,-15.55,359.95));
#1975=CARTESIAN_POINT('',(-21.7,12.65,359.95));
#1976=CARTESIAN_POINT('',(17.3,15.55,359.95));
#1977=CARTESIAN_POINT('Origin',(-13.85,0.,309.95));
#1978=CARTESIAN_POINT('',(-17.7,9.,309.95));
#1979=CARTESIAN_POINT('',(-9.925,9.,309.95));
#1980=CARTESIAN_POINT('',(-20.,-2.44929359829471E-15,309.95));
#1981=CARTESIAN_POINT('Origin',(0.,0.,309.95));
#1982=CARTESIAN_POINT('',(-17.599715906798,-9.5,309.95));
#1983=CARTESIAN_POINT('Origin',(0.,0.,309.95));
#1984=CARTESIAN_POINT('',(-6.,-9.5,309.95));
#1985=CARTESIAN_POINT('',(-21.7,-9.5,309.95));
#1986=CARTESIAN_POINT('',(-6.,-9.,309.95));
#1987=CARTESIAN_POINT('',(-6.,-9.5,309.95));
#1988=CARTESIAN_POINT('',(-17.7,-9.,309.95));
#1989=CARTESIAN_POINT('',(-15.775,-9.,309.95));
#1990=CARTESIAN_POINT('',(-17.7,-7.775,309.95));
#1991=CARTESIAN_POINT('Origin',(-21.7,-9.5,309.95));
#1992=CARTESIAN_POINT('',(-6.,-9.5,309.95));
#1993=CARTESIAN_POINT('',(-17.599715906798,-9.5,310.));
#1994=CARTESIAN_POINT('',(-17.599715906798,-9.5,305.5));
#1995=CARTESIAN_POINT('',(-17.7,-9.5,310.));
#1996=CARTESIAN_POINT('',(-11.95,-9.5,310.));
#1997=CARTESIAN_POINT('',(-17.7,-9.5,309.975));
#1998=CARTESIAN_POINT('Origin',(-6.,-9.,305.48));
#1999=CARTESIAN_POINT('',(-6.,-8.49470423263812,308.));
#2000=CARTESIAN_POINT('',(-6.,-4.5,308.));
#2001=CARTESIAN_POINT('',(-6.,-8.49470423263812,305.5));
#2002=CARTESIAN_POINT('',(-6.,-8.49470423263812,305.5));
#2003=CARTESIAN_POINT('',(-6.,-9.,305.5));
#2004=CARTESIAN_POINT('',(-6.,-4.5,305.5));
#2005=CARTESIAN_POINT('',(-6.,-9.,305.48));
#2006=CARTESIAN_POINT('Origin',(-17.7,-9.,305.48));
#2007=CARTESIAN_POINT('',(-17.7,-9.,305.5));
#2008=CARTESIAN_POINT('',(-8.85,-9.,305.5));
#2009=CARTESIAN_POINT('',(-17.7,-9.,305.48));
#2010=CARTESIAN_POINT('Origin',(-2.2,0.,310.));
#2011=CARTESIAN_POINT('',(-12.5776587646509,-15.55,310.));
#2012=CARTESIAN_POINT('Origin',(0.,0.,310.));
#2013=CARTESIAN_POINT('',(-21.7,-15.55,310.));
#2014=CARTESIAN_POINT('',(-12.5776587646509,15.55,310.));
#2015=CARTESIAN_POINT('',(17.3,15.55,310.));
#2016=CARTESIAN_POINT('Origin',(0.,0.,310.));
#2017=CARTESIAN_POINT('',(-17.7,-15.55,310.));
#2018=CARTESIAN_POINT('Origin',(-17.7,-15.55,310.));
#2019=CARTESIAN_POINT('',(-17.7,12.65,310.));
#2020=CARTESIAN_POINT('',(-17.7,3.98010209722895E-16,351.2));
#2021=CARTESIAN_POINT('Origin',(-17.7,1.76488292717099E-30,347.95));
#2022=CARTESIAN_POINT('Origin',(-17.7,-15.55,310.));
#2023=CARTESIAN_POINT('',(-17.7,9.,305.5));
#2024=CARTESIAN_POINT('',(-17.7,4.5,305.5));
#2025=CARTESIAN_POINT('',(-17.7,9.,305.48));
#2026=CARTESIAN_POINT('Origin',(-27.7,2.73143088432781E-30,347.95));
#2027=CARTESIAN_POINT('',(-27.7,-6.12323399573674E-16,352.95));
#2028=CARTESIAN_POINT('',(-27.7,-6.12323399573674E-16,352.95));
#2029=CARTESIAN_POINT('Origin',(-27.7,2.73143088432781E-30,347.95));
#2030=CARTESIAN_POINT('Origin',(-27.7,2.73143088432781E-30,347.95));
#2031=CARTESIAN_POINT('',(-27.7,-3.98010209722891E-16,351.2));
#2032=CARTESIAN_POINT('Origin',(-27.7,2.73162423258889E-30,347.95));
#2033=CARTESIAN_POINT('Origin',(-6.,9.,305.48));
#2034=CARTESIAN_POINT('',(-3.,9.,305.5));
#2035=CARTESIAN_POINT('Origin',(0.,0.,305.5));
#2036=CARTESIAN_POINT('',(-20.,-2.44929359829471E-15,305.5));
#2037=CARTESIAN_POINT('Origin',(0.,0.,305.5));
#2038=CARTESIAN_POINT('Origin',(0.,0.,305.5));
#2039=CARTESIAN_POINT('Origin',(0.,0.,308.));
#2040=CARTESIAN_POINT('Origin',(0.,0.,308.));
#2041=CARTESIAN_POINT('',(-1.7,-7.,308.));
#2042=CARTESIAN_POINT('Origin',(0.,-7.,308.));
#2043=CARTESIAN_POINT('',(-1.7,7.,308.));
#2044=CARTESIAN_POINT('Origin',(0.,7.,308.));
#2045=CARTESIAN_POINT('',(5.3,-2.0818995585505E-16,308.));
#2046=CARTESIAN_POINT('Origin',(7.,0.,308.));
#2047=CARTESIAN_POINT('',(-3.15,-3.85763741731416E-16,308.));
#2048=CARTESIAN_POINT('Origin',(0.,0.,308.));
#2049=CARTESIAN_POINT('Origin',(0.,0.,305.5));
#2050=CARTESIAN_POINT('Origin',(-27.8,2.74129164564307E-30,347.95));
#2051=CARTESIAN_POINT('',(-27.8,-3.98010209722891E-16,351.2));
#2052=CARTESIAN_POINT('Origin',(-21.7,12.65,310.));
#2053=CARTESIAN_POINT('Origin',(-2.2,0.,310.));
#2054=CARTESIAN_POINT('',(12.5776587646509,-15.55,310.));
#2055=CARTESIAN_POINT('Origin',(0.,0.,310.));
#2056=CARTESIAN_POINT('',(-21.7,-15.55,310.));
#2057=CARTESIAN_POINT('Origin',(17.3,15.55,310.));
#2058=CARTESIAN_POINT('',(12.5776587646509,15.55,310.));
#2059=CARTESIAN_POINT('',(17.3,15.55,310.));
#2060=CARTESIAN_POINT('',(8.65,15.55,310.));
#2061=CARTESIAN_POINT('Origin',(-21.7,-15.55,310.));
#2062=CARTESIAN_POINT('',(-10.85,-15.55,310.));
#2063=CARTESIAN_POINT('Origin',(-2.2,0.,310.));
#2064=CARTESIAN_POINT('Origin',(0.,0.,310.));
#2065=CARTESIAN_POINT('Origin',(0.,0.,310.));
#2066=CARTESIAN_POINT('Origin',(0.,0.,310.));
#2067=CARTESIAN_POINT('Origin',(0.,0.,310.));
#2068=CARTESIAN_POINT('Origin',(0.,0.,310.));
#2069=CARTESIAN_POINT('Origin',(0.,0.,310.));
#2070=CARTESIAN_POINT('Origin',(0.,0.,310.));
#2071=CARTESIAN_POINT('Origin',(0.,-7.,305.5));
#2072=CARTESIAN_POINT('',(-1.7,-7.,305.5));
#2073=CARTESIAN_POINT('Origin',(0.,7.,305.5));
#2074=CARTESIAN_POINT('',(-1.7,7.,305.5));
#2075=CARTESIAN_POINT('Origin',(7.,0.,305.5));
#2076=CARTESIAN_POINT('',(5.3,-2.0818995585505E-16,305.5));
#2077=CARTESIAN_POINT('Origin',(0.,0.,305.5));
#2078=CARTESIAN_POINT('',(-3.15,-3.85763741731416E-16,305.5));
#2079=CARTESIAN_POINT('Origin',(0.,0.,305.5));
#2080=CARTESIAN_POINT('',(-20.,-2.44929359829471E-15,305.5));
#2081=UNCERTAINTY_MEASURE_WITH_UNIT(LENGTH_MEASURE(0.01),#2085,
'DISTANCE_ACCURACY_VALUE',
'Maximum model space distance between geometric entities at asserted c
onnectivities');
#2082=UNCERTAINTY_MEASURE_WITH_UNIT(LENGTH_MEASURE(0.01),#2085,
'DISTANCE_ACCURACY_VALUE',
'Maximum model space distance between geometric entities at asserted c
onnectivities');
#2083=(
GEOMETRIC_REPRESENTATION_CONTEXT(3)
GLOBAL_UNCERTAINTY_ASSIGNED_CONTEXT((#2081))
GLOBAL_UNIT_ASSIGNED_CONTEXT((#2085,#2087,#2088))
REPRESENTATION_CONTEXT('','3D')
);
#2084=(
GEOMETRIC_REPRESENTATION_CONTEXT(3)
GLOBAL_UNCERTAINTY_ASSIGNED_CONTEXT((#2082))
GLOBAL_UNIT_ASSIGNED_CONTEXT((#2085,#2087,#2088))
REPRESENTATION_CONTEXT('','3D')
);
#2085=(
LENGTH_UNIT()
NAMED_UNIT(*)
SI_UNIT(.MILLI.,.METRE.)
);
#2086=(
LENGTH_UNIT()
NAMED_UNIT(*)
SI_UNIT($,.METRE.)
);
#2087=(
NAMED_UNIT(*)
PLANE_ANGLE_UNIT()
SI_UNIT($,.RADIAN.)
);
#2088=(
NAMED_UNIT(*)
SI_UNIT($,.STERADIAN.)
SOLID_ANGLE_UNIT()
);
#2089=SHAPE_DEFINITION_REPRESENTATION(#2090,#2091);
#2090=PRODUCT_DEFINITION_SHAPE('',$,#2093);
#2091=SHAPE_REPRESENTATION('',(#1259),#2083);
#2092=PRODUCT_DEFINITION_CONTEXT('part definition',#2097,'design');
#2093=PRODUCT_DEFINITION('2026-08-21-16-47-58-255','WristHub_J5',#2094,
#2092);
#2094=PRODUCT_DEFINITION_FORMATION('',$,#2099);
#2095=PRODUCT_RELATED_PRODUCT_CATEGORY('WristHub_J5','WristHub_J5',(#2099));
#2096=APPLICATION_PROTOCOL_DEFINITION('international standard',
'automotive_design',2009,#2097);
#2097=APPLICATION_CONTEXT(
'Core Data for Automotive Mechanical Design Process');
#2098=PRODUCT_CONTEXT('part definition',#2097,'mechanical');
#2099=PRODUCT('2026-08-21-16-47-58-255','WristHub_J5',$,(#2098));
#2100=PRESENTATION_STYLE_ASSIGNMENT((#2101));
#2101=SURFACE_STYLE_USAGE(.BOTH.,#2102);
#2102=SURFACE_SIDE_STYLE('',(#2103));
#2103=SURFACE_STYLE_FILL_AREA(#2104);
#2104=FILL_AREA_STYLE('\X2\92FC\X0\ - \X2\30B530C630F3\X0\',(#2105));
#2105=FILL_AREA_STYLE_COLOUR('\X2\92FC\X0\ - \X2\30B530C630F3\X0\',#2106);
#2106=COLOUR_RGB('\X2\92FC\X0\ - \X2\30B530C630F3\X0\',0.627450980392157,
0.627450980392157,0.627450980392157);
ENDSEC;
END-ISO-10303-21;
